<svg xmlns="http://www.w3.org/2000/svg" viewBox="0 0 1376 1896" width="1376" height="1896">
<defs>
  <pattern id="dotgrid" width="8" height="8" patternUnits="userSpaceOnUse">
    <rect width="8" height="8" fill="#000000"/>
    <circle cx="4" cy="4" r="0.8" fill="#b4f079" opacity="0.7"/>
  </pattern>
  <pattern id="crosshatch" width="8" height="8" patternUnits="userSpaceOnUse">
    <rect width="8" height="8" fill="#000000"/>
    <path d="M0 8L8 0M-1 1L1 -1M7 9L9 7" stroke="#b4f079" stroke-width="0.8" opacity="0.2"/>
  </pattern>
  <pattern id="hero" width="6" height="6" patternUnits="userSpaceOnUse">
    <rect width="6" height="6" fill="#3d6b23"/>
    <circle cx="3" cy="3" r="0.6" fill="#5a9a35" opacity="0.5"/>
  </pattern>
  <marker id="arrowhead" markerWidth="10" markerHeight="7" refX="9" refY="3.5" orient="auto" markerUnits="strokeWidth">
    <polygon points="0 0, 10 3.5, 0 7" fill="#b4f079"/>
  </marker>
  <marker id="arrowhead-reverse" markerWidth="10" markerHeight="7" refX="1" refY="3.5" orient="auto" markerUnits="strokeWidth">
    <polygon points="10 0, 0 3.5, 10 7" fill="#b4f079"/>
  </marker>
</defs>
<rect width="100%" height="100%" fill="#000000"/>
<g class="diagram">
<text x="30" y="34" font-family="'Inter', 'Helvetica Neue', Arial, sans-serif" font-size="15" fill="#ffffff" font-weight="700">Compiler pipeline: 5-layer deep dependency graph with cross-layer and reverse edges</text>
<rect x="446.99999999999994" y="109" width="396.00000000000006" height="381" rx="12" fill="url(#dotgrid)" stroke="#b4f079" stroke-width="1" stroke-dasharray="6 4" opacity="0.35"/><rect x="446.99999999999994" y="109" width="396.00000000000006" height="381" rx="12" fill="none" stroke="#b4f079" stroke-width="1" stroke-dasharray="6 4" opacity="0.5"/>
<rect x="156" y="506" width="502.29999999999995" height="381" rx="12" fill="url(#crosshatch)" stroke="#b4f079" stroke-width="1" opacity="0.35"/><rect x="156" y="506" width="502.29999999999995" height="381" rx="12" fill="none" stroke="#b4f079" stroke-width="1" opacity="0.5"/>
<rect x="718.4" y="506" width="415.5999999999999" height="398" rx="12" fill="url(#dotgrid)" stroke="#b4f079" stroke-width="1" opacity="0.35"/><rect x="718.4" y="506" width="415.5999999999999" height="398" rx="12" fill="none" stroke="#b4f079" stroke-width="1" opacity="0.5"/>
<rect x="577.4499999999999" y="920" width="291.85" height="540" rx="12" fill="url(#crosshatch)" stroke="#b4f079" stroke-width="1" opacity="0.35"/><rect x="577.4499999999999" y="920" width="291.85" height="540" rx="12" fill="none" stroke="#b4f079" stroke-width="1" opacity="0.5"/>
<rect x="355.66249999999997" y="1476" width="406.06249999999994" height="398" rx="12" fill="url(#dotgrid)" stroke="#b4f079" stroke-width="1" stroke-dasharray="6 4" opacity="0.35"/><rect x="355.66249999999997" y="1476" width="406.06249999999994" height="398" rx="12" fill="none" stroke="#b4f079" stroke-width="1" stroke-dasharray="6 4" opacity="0.5"/>
<polyline points="539.5,264 539.5,346 246,346 246,562" fill="none" stroke="#b4f079" stroke-width="1.5" marker-end="url(#arrowhead)"/>
<polyline points="623.4,474 623.4,548 431.2,548 455.59999999999997,562" fill="none" stroke="#b4f079" stroke-width="1.5" marker-end="url(#arrowhead)"/>
<polyline points="736.5,281 736.5,430 1036.8,430 1036.8,579" fill="none" stroke="#b4f079" stroke-width="1.5" marker-end="url(#arrowhead)"/>
<polyline points="436.69999999999993,813 116,813 116,710 1036.8,710 1036.8,695" fill="none" stroke="#b4f079" stroke-width="1.5" marker-end="url(#arrowhead)"/>
<line x1="830" y1="712" x2="790.3" y2="976" stroke="#b4f079" stroke-width="1.5" marker-end="url(#arrowhead)"/>
<line x1="674.4499999999999" y1="1444" x2="659.7249999999999" y2="1532" stroke="#b4f079" stroke-width="1.5" marker-end="url(#arrowhead)"/>
<polyline points="539.5,264 539.5,346 431.2,346 406.8,562" fill="none" stroke="#7aa84f" stroke-width="1.5" marker-end="url(#arrowhead)"/>
<polyline points="623.4,474 623.4,725 762.8,725 735.3,976" fill="none" stroke="#7aa84f" stroke-width="1.5" marker-end="url(#arrowhead)"/>
<polyline points="539.4999999999999,871 539.4999999999999,964 703.8999999999999,964 678.3,1152" fill="none" stroke="#7aa84f" stroke-width="1.5" marker-end="url(#arrowhead)"/>
<polyline points="736.5,281 736.5,421.5 830,421.5 830,562" fill="none" stroke="#7aa84f" stroke-width="1.5" marker-end="url(#arrowhead)"/>
<line x1="436.6999999999999" y1="813" x2="406.69999999999993" y2="813" stroke="#b4f079" stroke-width="1.5" stroke-dasharray="6 4" marker-end="url(#arrowhead)"/>
<polyline points="830,712 830,733.5 539.4999999999999,733.5 539.4999999999999,755" fill="none" stroke="#b4f079" stroke-width="1.5" stroke-dasharray="6 4" marker-end="url(#arrowhead)"/>
<polyline points="534.0625,1800 1194,1800 1194,693 246,693 246,678" fill="none" stroke="#b4f079" stroke-width="1.5" stroke-dasharray="6 4" marker-end="url(#arrowhead)"/>
<polyline points="619.0999999999999,1210 76,1210 76,903 960.9,903 960.9,888" fill="none" stroke="#b4f079" stroke-width="1.5" stroke-dasharray="6 4" marker-end="url(#arrowhead)"/>
<polyline points="539.5,264 539.5,311 623.4,311 623.4,358" fill="none" stroke="#b4f079" stroke-width="1.5" marker-end="url(#arrowhead)"/>
<polyline points="246,678 246,716.5 329.0999999999999,716.5 329.0999999999999,755" fill="none" stroke="#b4f079" stroke-width="1.5" marker-end="url(#arrowhead)"/>
<polyline points="251.49999999999994,813 56,813 56,693 431.2,693 431.2,678" fill="none" stroke="#b4f079" stroke-width="1.5" marker-end="url(#arrowhead)"/>
<polyline points="431.2,678 431.2,716.5 539.4999999999999,716.5 539.4999999999999,755" fill="none" stroke="#b4f079" stroke-width="1.5" marker-end="url(#arrowhead)"/>
<line x1="1036.8" y1="695" x2="960.9" y2="772" stroke="#b4f079" stroke-width="1.5" marker-end="url(#arrowhead)"/>
<polyline points="1038.5,830 1254,830 1254,727 830,727 830,712" fill="none" stroke="#b4f079" stroke-width="1.5" marker-end="url(#arrowhead)"/>
<line x1="762.8" y1="1092" x2="729.4999999999999" y2="1152" stroke="#b4f079" stroke-width="1.5" marker-end="url(#arrowhead)"/>
<line x1="703.8999999999999" y1="1268" x2="674.4499999999999" y2="1328" stroke="#b4f079" stroke-width="1.5" marker-end="url(#arrowhead)"/>
<polyline points="659.7249999999999,1682 659.7249999999999,1712 452.86249999999995,1712 452.86249999999995,1742" fill="none" stroke="#b4f079" stroke-width="1.5" marker-end="url(#arrowhead)"/>
<rect x="333.25" y="402" width="89" height="22" rx="4" fill="#000000"/>
<rect x="464.29999999999995" y="532" width="96" height="22" rx="4" fill="#000000"/>
<rect x="806.15" y="432.75" width="131" height="22" rx="4" fill="#000000"/>
<rect x="93.5" y="750.5" width="75" height="22" rx="4" fill="#000000"/>
<rect x="733.4" y="833" width="96" height="22" rx="4" fill="#000000"/>
<rect x="619.0874999999999" y="1502" width="96" height="22" rx="4" fill="#000000"/>
<rect x="445.35" y="328" width="110" height="22" rx="4" fill="#000000"/>
<rect x="656.5999999999999" y="703.25" width="103" height="22" rx="4" fill="#000000"/>
<rect x="520.1999999999998" y="965" width="173" height="22" rx="4" fill="#000000"/>
<rect x="714.25" y="396.75" width="138" height="22" rx="4" fill="#000000"/>
<rect x="371.19999999999993" y="725" width="131" height="22" rx="4" fill="#000000"/>
<rect x="594.75" y="739.25" width="180" height="22" rx="4" fill="#000000"/>
<rect x="1136.5" y="1235.5" width="145" height="22" rx="4" fill="#000000"/>
<rect x="21" y="1045.5" width="110" height="22" rx="4" fill="#000000"/>
<rect x="454.99999999999994" y="123" width="56" height="22" fill="#b4f079" rx="2"/><text x="462.99999999999994" y="134" font-family="'JetBrains Mono', 'Fira Code', 'SF Mono', 'Cascadia Code', monospace" font-size="10" fill="#000000" dominant-baseline="central" font-weight="700" letter-spacing="0.08em">INPUT</text><rect x="519" y="122" width="177.5" height="24" fill="#000000" rx="3"/><text x="529" y="135" font-family="'Inter', 'Helvetica Neue', Arial, sans-serif" font-size="14" fill="#ffffff" opacity="0.9" text-anchor="start">Layer 1: Source Input</text>
<rect x="164" y="520" width="56" height="22" fill="#b4f079" rx="2"/><text x="172" y="531" font-family="'JetBrains Mono', 'Fira Code', 'SF Mono', 'Cascadia Code', monospace" font-size="10" fill="#000000" dominant-baseline="central" font-weight="700" letter-spacing="0.08em">PARSE</text><rect x="228" y="519" width="147.5" height="24" fill="#000000" rx="3"/><text x="238" y="532" font-family="'Inter', 'Helvetica Neue', Arial, sans-serif" font-size="14" fill="#ffffff" opacity="0.9" text-anchor="start">Layer 2: Frontend</text>
<rect x="726.4" y="520" width="80" height="22" fill="#b4f079" rx="2"/><text x="734.4" y="531" font-family="'JetBrains Mono', 'Fira Code', 'SF Mono', 'Cascadia Code', monospace" font-size="10" fill="#000000" dominant-baseline="central" font-weight="700" letter-spacing="0.08em">OPTIMIZE</text><rect x="814.4" y="519" width="177.5" height="24" fill="#000000" rx="3"/><text x="824.4" y="532" font-family="'Inter', 'Helvetica Neue', Arial, sans-serif" font-size="14" fill="#ffffff" opacity="0.9" text-anchor="start">Layer 3: IR Transform</text>
<rect x="585.4499999999999" y="934" width="48" height="22" fill="#b4f079" rx="2"/><text x="593.4499999999999" y="945" font-family="'JetBrains Mono', 'Fira Code', 'SF Mono', 'Cascadia Code', monospace" font-size="10" fill="#000000" dominant-baseline="central" font-weight="700" letter-spacing="0.08em">EMIT</text><rect x="641.4499999999999" y="933" width="200" height="24" fill="#000000" rx="3"/><text x="651.4499999999999" y="946" font-family="'Inter', 'Helvetica Neue', Arial, sans-serif" font-size="14" fill="#ffffff" opacity="0.9" text-anchor="start">Layer 4: Code Generation</text>
<rect x="363.66249999999997" y="1490" width="64" height="22" fill="#b4f079" rx="2"/><text x="371.66249999999997" y="1501" font-family="'JetBrains Mono', 'Fira Code', 'SF Mono', 'Cascadia Code', monospace" font-size="10" fill="#000000" dominant-baseline="central" font-weight="700" letter-spacing="0.08em">OUTPUT</text><rect x="435.66249999999997" y="1489" width="132.5" height="24" fill="#000000" rx="3"/><text x="445.66249999999997" y="1502" font-family="'Inter', 'Helvetica Neue', Arial, sans-serif" font-size="14" fill="#ffffff" opacity="0.9" text-anchor="start">Layer 5: Output</text>
<rect x="462.99999999999994" y="182" width="153" height="82" rx="12" fill="url(#dotgrid)" stroke="#b4f079" stroke-width="2"/><rect x="483.5" y="203.9" width="112" height="22.2" fill="#000000" rx="2"/><text x="539.5" y="215" font-family="'JetBrains Mono', 'Fira Code', 'SF Mono', 'Cascadia Code', monospace" font-size="13" fill="#b4f079" text-anchor="middle" dominant-baseline="central" letter-spacing="0.12em">SOURCE FILES</text><rect x="475.5" y="223.6" width="128" height="22.799999999999997" fill="#000000" rx="2"/><text x="539.5" y="235" font-family="'JetBrains Mono', 'Fira Code', 'SF Mono', 'Cascadia Code', monospace" font-size="12" fill="#b4f079" opacity="0.7" text-anchor="middle" dominant-baseline="central" letter-spacing="0.12em">.ts, .tsx, .js</text>
<rect x="542.4" y="358" width="162" height="116" rx="12" fill="url(#dotgrid)" stroke="#b4f079" stroke-width="1.5"/><rect x="563.4" y="396.9" width="120" height="22.2" fill="#000000" rx="2"/><text x="623.4" y="408" font-family="'JetBrains Mono', 'Fira Code', 'SF Mono', 'Cascadia Code', monospace" font-size="13" fill="#b4f079" text-anchor="middle" dominant-baseline="central" letter-spacing="0.12em">CONFIG LOADER</text><rect x="563.4" y="416.59999999999997" width="120" height="39.599999999999994" fill="#000000" rx="2"/><text x="623.4" y="419.6" font-family="'JetBrains Mono', 'Fira Code', 'SF Mono', 'Cascadia Code', monospace" font-size="12" fill="#b4f079" opacity="0.6" text-anchor="middle" dominant-baseline="central" letter-spacing="0.12em">tsconfig.json</text><text x="623.4" y="436.40000000000003" font-family="'JetBrains Mono', 'Fira Code', 'SF Mono', 'Cascadia Code', monospace" font-size="12" fill="#b4f079" opacity="0.6" text-anchor="middle" dominant-baseline="central" letter-spacing="0.12em">path aliases</text>
<rect x="646" y="165" width="181" height="116" rx="12" fill="url(#dotgrid)" stroke="#b4f079" stroke-width="1.5"/><rect x="668.5" y="203.9" width="136" height="22.2" fill="#000000" rx="2"/><text x="736.5" y="215" font-family="'JetBrains Mono', 'Fira Code', 'SF Mono', 'Cascadia Code', monospace" font-size="13" fill="#b4f079" text-anchor="middle" dominant-baseline="central" letter-spacing="0.12em">PLUGIN REGISTRY</text><rect x="660.5" y="223.60000000000002" width="152" height="39.599999999999994" fill="#000000" rx="2"/><text x="736.5" y="226.6" font-family="'JetBrains Mono', 'Fira Code', 'SF Mono', 'Cascadia Code', monospace" font-size="12" fill="#b4f079" opacity="0.6" text-anchor="middle" dominant-baseline="central" letter-spacing="0.12em">Transform plugins</text><text x="736.5" y="243.39999999999998" font-family="'JetBrains Mono', 'Fira Code', 'SF Mono', 'Cascadia Code', monospace" font-size="12" fill="#b4f079" opacity="0.6" text-anchor="middle" dominant-baseline="central" letter-spacing="0.12em">Custom resolvers</text>
<rect x="172" y="562" width="148" height="116" rx="12" fill="url(#dotgrid)" stroke="#b4f079" stroke-width="1.5"/><rect x="218" y="600.9" width="56" height="22.2" fill="#000000" rx="2"/><text x="246" y="612" font-family="'JetBrains Mono', 'Fira Code', 'SF Mono', 'Cascadia Code', monospace" font-size="13" fill="#b4f079" text-anchor="middle" dominant-baseline="central" letter-spacing="0.12em">LEXER</text><rect x="178" y="620.6" width="136" height="39.599999999999994" fill="#000000" rx="2"/><text x="246" y="623.6" font-family="'JetBrains Mono', 'Fira Code', 'SF Mono', 'Cascadia Code', monospace" font-size="12" fill="#b4f079" opacity="0.6" text-anchor="middle" dominant-baseline="central" letter-spacing="0.12em">Token stream</text><text x="246" y="640.4" font-family="'JetBrains Mono', 'Fira Code', 'SF Mono', 'Cascadia Code', monospace" font-size="12" fill="#b4f079" opacity="0.6" text-anchor="middle" dominant-baseline="central" letter-spacing="0.12em">Unicode support</text>
<rect x="251.49999999999994" y="755" width="155.2" height="116" rx="12" fill="url(#dotgrid)" stroke="#b4f079" stroke-width="1.5"/><rect x="297.0999999999999" y="793.9" width="64" height="22.2" fill="#000000" rx="2"/><text x="329.0999999999999" y="805" font-family="'JetBrains Mono', 'Fira Code', 'SF Mono', 'Cascadia Code', monospace" font-size="13" fill="#b4f079" text-anchor="middle" dominant-baseline="central" letter-spacing="0.12em">PARSER</text><rect x="257.0999999999999" y="813.6" width="144" height="39.599999999999994" fill="#000000" rx="2"/><text x="329.0999999999999" y="816.6" font-family="'JetBrains Mono', 'Fira Code', 'SF Mono', 'Cascadia Code', monospace" font-size="12" fill="#b4f079" opacity="0.6" text-anchor="middle" dominant-baseline="central" letter-spacing="0.12em">AST construction</text><text x="329.0999999999999" y="833.4" font-family="'JetBrains Mono', 'Fira Code', 'SF Mono', 'Cascadia Code', monospace" font-size="12" fill="#b4f079" opacity="0.6" text-anchor="middle" dominant-baseline="central" letter-spacing="0.12em">Error recovery</text>
<rect x="436.69999999999993" y="755" width="205.6" height="116" rx="12" fill="url(#dotgrid)" stroke="#b4f079" stroke-width="2"/><rect x="483.4999999999999" y="793.9" width="112" height="22.2" fill="#000000" rx="2"/><text x="539.4999999999999" y="805" font-family="'JetBrains Mono', 'Fira Code', 'SF Mono', 'Cascadia Code', monospace" font-size="13" fill="#b4f079" text-anchor="middle" dominant-baseline="central" letter-spacing="0.12em">TYPE CHECKER</text><rect x="439.4999999999999" y="813.6" width="200" height="39.599999999999994" fill="#000000" rx="2"/><text x="539.4999999999999" y="816.6" font-family="'JetBrains Mono', 'Fira Code', 'SF Mono', 'Cascadia Code', monospace" font-size="12" fill="#b4f079" opacity="0.7" text-anchor="middle" dominant-baseline="central" letter-spacing="0.12em">Hindley-Milner</text><text x="539.4999999999999" y="833.4" font-family="'JetBrains Mono', 'Fira Code', 'SF Mono', 'Cascadia Code', monospace" font-size="12" fill="#b4f079" opacity="0.7" text-anchor="middle" dominant-baseline="central" letter-spacing="0.12em">Bidirectional inference</text>
<rect x="350" y="562" width="162.39999999999998" height="116" rx="12" fill="url(#dotgrid)" stroke="#b4f079" stroke-width="1.5"/><rect x="371.2" y="600.9" width="120" height="22.2" fill="#000000" rx="2"/><text x="431.2" y="612" font-family="'JetBrains Mono', 'Fira Code', 'SF Mono', 'Cascadia Code', monospace" font-size="13" fill="#b4f079" text-anchor="middle" dominant-baseline="central" letter-spacing="0.12em">NAME RESOLVER</text><rect x="355.2" y="620.6" width="152" height="39.599999999999994" fill="#000000" rx="2"/><text x="431.2" y="623.6" font-family="'JetBrains Mono', 'Fira Code', 'SF Mono', 'Cascadia Code', monospace" font-size="12" fill="#b4f079" opacity="0.6" text-anchor="middle" dominant-baseline="central" letter-spacing="0.12em">Scope analysis</text><text x="431.2" y="640.4" font-family="'JetBrains Mono', 'Fira Code', 'SF Mono', 'Cascadia Code', monospace" font-size="12" fill="#b4f079" opacity="0.6" text-anchor="middle" dominant-baseline="central" letter-spacing="0.12em">Import resolution</text>
<rect x="955.5999999999999" y="579" width="162.39999999999998" height="116" rx="12" fill="url(#dotgrid)" stroke="#b4f079" stroke-width="1.5"/><rect x="980.8" y="617.9" width="112" height="22.2" fill="#000000" rx="2"/><text x="1036.8" y="629" font-family="'JetBrains Mono', 'Fira Code', 'SF Mono', 'Cascadia Code', monospace" font-size="13" fill="#b4f079" text-anchor="middle" dominant-baseline="central" letter-spacing="0.12em">AST LOWERING</text><rect x="960.8" y="637.6" width="152" height="39.599999999999994" fill="#000000" rx="2"/><text x="1036.8" y="640.6" font-family="'JetBrains Mono', 'Fira Code', 'SF Mono', 'Cascadia Code', monospace" font-size="12" fill="#b4f079" opacity="0.6" text-anchor="middle" dominant-baseline="central" letter-spacing="0.12em">Desugar syntax</text><text x="1036.8" y="657.4" font-family="'JetBrains Mono', 'Fira Code', 'SF Mono', 'Cascadia Code', monospace" font-size="12" fill="#b4f079" opacity="0.6" text-anchor="middle" dominant-baseline="central" letter-spacing="0.12em">Pattern expansion</text>
<rect x="883.3" y="772" width="155.2" height="116" rx="12" fill="url(#dotgrid)" stroke="#b4f079" stroke-width="1.5"/><rect x="912.9" y="810.9" width="96" height="22.2" fill="#000000" rx="2"/><text x="960.9" y="822" font-family="'JetBrains Mono', 'Fira Code', 'SF Mono', 'Cascadia Code', monospace" font-size="13" fill="#b4f079" text-anchor="middle" dominant-baseline="central" letter-spacing="0.12em">IR BUILDER</text><rect x="888.9" y="830.6" width="144" height="39.599999999999994" fill="#000000" rx="2"/><text x="960.9" y="833.6" font-family="'JetBrains Mono', 'Fira Code', 'SF Mono', 'Cascadia Code', monospace" font-size="12" fill="#b4f079" opacity="0.6" text-anchor="middle" dominant-baseline="central" letter-spacing="0.12em">SSA form</text><text x="960.9" y="850.4" font-family="'JetBrains Mono', 'Fira Code', 'SF Mono', 'Cascadia Code', monospace" font-size="12" fill="#b4f079" opacity="0.6" text-anchor="middle" dominant-baseline="central" letter-spacing="0.12em">CFG construction</text>
<rect x="734.4" y="562" width="191.2" height="150" rx="12" fill="url(#dotgrid)" stroke="#b4f079" stroke-width="2"/><rect x="786" y="617.9" width="88" height="22.2" fill="#000000" rx="2"/><text x="830" y="629" font-family="'JetBrains Mono', 'Fira Code', 'SF Mono', 'Cascadia Code', monospace" font-size="13" fill="#b4f079" text-anchor="middle" dominant-baseline="central" letter-spacing="0.12em">OPTIMIZER</text><rect x="738" y="637.5999999999999" width="184" height="56.39999999999999" fill="#000000" rx="2"/><text x="830" y="632.2" font-family="'JetBrains Mono', 'Fira Code', 'SF Mono', 'Cascadia Code', monospace" font-size="12" fill="#b4f079" opacity="0.7" text-anchor="middle" dominant-baseline="central" letter-spacing="0.12em">Dead code elimination</text><text x="830" y="649" font-family="'JetBrains Mono', 'Fira Code', 'SF Mono', 'Cascadia Code', monospace" font-size="12" fill="#b4f079" opacity="0.7" text-anchor="middle" dominant-baseline="central" letter-spacing="0.12em">Constant folding</text><text x="830" y="665.8000000000001" font-family="'JetBrains Mono', 'Fira Code', 'SF Mono', 'Cascadia Code', monospace" font-size="12" fill="#b4f079" opacity="0.7" text-anchor="middle" dominant-baseline="central" letter-spacing="0.12em">Inlining</text>
<rect x="672.3" y="976" width="181" height="116" rx="12" fill="url(#dotgrid)" stroke="#b4f079" stroke-width="1.5"/><rect x="694.8" y="1014.9" width="136" height="22.2" fill="#000000" rx="2"/><text x="762.8" y="1026" font-family="'JetBrains Mono', 'Fira Code', 'SF Mono', 'Cascadia Code', monospace" font-size="13" fill="#b4f079" text-anchor="middle" dominant-baseline="central" letter-spacing="0.12em">TARGET SELECTOR</text><rect x="686.8" y="1034.6000000000001" width="152" height="39.599999999999994" fill="#000000" rx="2"/><text x="762.8" y="1037.6" font-family="'JetBrains Mono', 'Fira Code', 'SF Mono', 'Cascadia Code', monospace" font-size="12" fill="#b4f079" opacity="0.6" text-anchor="middle" dominant-baseline="central" letter-spacing="0.12em">ESM vs CJS</text><text x="762.8" y="1054.3999999999999" font-family="'JetBrains Mono', 'Fira Code', 'SF Mono', 'Cascadia Code', monospace" font-size="12" fill="#b4f079" opacity="0.6" text-anchor="middle" dominant-baseline="central" letter-spacing="0.12em">Target ES version</text>
<rect x="619.0999999999999" y="1152" width="169.6" height="116" rx="12" fill="url(#dotgrid)" stroke="#b4f079" stroke-width="1.5"/><rect x="647.8999999999999" y="1190.9" width="112" height="22.2" fill="#000000" rx="2"/><text x="703.8999999999999" y="1202" font-family="'JetBrains Mono', 'Fira Code', 'SF Mono', 'Cascadia Code', monospace" font-size="13" fill="#b4f079" text-anchor="middle" dominant-baseline="central" letter-spacing="0.12em">CODE EMITTER</text><rect x="623.8999999999999" y="1210.6000000000001" width="160" height="39.599999999999994" fill="#000000" rx="2"/><text x="703.8999999999999" y="1213.6" font-family="'JetBrains Mono', 'Fira Code', 'SF Mono', 'Cascadia Code', monospace" font-size="12" fill="#b4f079" opacity="0.6" text-anchor="middle" dominant-baseline="central" letter-spacing="0.12em">Source map support</text><text x="703.8999999999999" y="1230.3999999999999" font-family="'JetBrains Mono', 'Fira Code', 'SF Mono', 'Cascadia Code', monospace" font-size="12" fill="#b4f079" opacity="0.6" text-anchor="middle" dominant-baseline="central" letter-spacing="0.12em">Minification pass</text>
<rect x="593.4499999999999" y="1328" width="162" height="116" rx="12" fill="url(#dotgrid)" stroke="#7aa84f" stroke-width="1.5"/><rect x="614.4499999999999" y="1366.9" width="120" height="22.2" fill="#000000" rx="2"/><text x="674.4499999999999" y="1378" font-family="'JetBrains Mono', 'Fira Code', 'SF Mono', 'Cascadia Code', monospace" font-size="13" fill="#7aa84f" opacity="0.85" text-anchor="middle" dominant-baseline="central" letter-spacing="0.12em">BUNDLE LINKER</text><rect x="606.4499999999999" y="1386.6000000000001" width="136" height="39.599999999999994" fill="#000000" rx="2"/><text x="674.4499999999999" y="1389.6" font-family="'JetBrains Mono', 'Fira Code', 'SF Mono', 'Cascadia Code', monospace" font-size="12" fill="#7aa84f" opacity="0.55" text-anchor="middle" dominant-baseline="central" letter-spacing="0.12em">Tree shaking</text><text x="674.4499999999999" y="1406.3999999999999" font-family="'JetBrains Mono', 'Fira Code', 'SF Mono', 'Cascadia Code', monospace" font-size="12" fill="#7aa84f" opacity="0.55" text-anchor="middle" dominant-baseline="central" letter-spacing="0.12em">Chunk splitting</text>
<rect x="573.7249999999999" y="1542" width="172" height="130" fill="url(#crosshatch)" stroke="none"/><line x1="573.7249999999999" y1="1542" x2="573.7249999999999" y2="1672" stroke="#7aa84f" stroke-width="1.5"/><line x1="745.7249999999999" y1="1542" x2="745.7249999999999" y2="1672" stroke="#7aa84f" stroke-width="1.5"/><ellipse cx="659.7249999999999" cy="1542" rx="86" ry="10" fill="url(#crosshatch)" stroke="#7aa84f" stroke-width="1.5"/><path d="M573.7249999999999,1672 A86,10 0 0,0 745.7249999999999,1672" fill="url(#crosshatch)" stroke="#7aa84f" stroke-width="1.5"/><rect x="595.7249999999999" y="1587.9" width="128" height="22.2" fill="#000000" rx="2"/><text x="659.7249999999999" y="1599" font-family="'JetBrains Mono', 'Fira Code', 'SF Mono', 'Cascadia Code', monospace" font-size="13" fill="#7aa84f" opacity="0.85" text-anchor="middle" dominant-baseline="central" letter-spacing="0.12em">DIST ARTIFACTS</text><rect x="579.7249999999999" y="1607.6" width="160" height="56.39999999999999" fill="#000000" rx="2"/><text x="659.7249999999999" y="1602.2" font-family="'JetBrains Mono', 'Fira Code', 'SF Mono', 'Cascadia Code', monospace" font-size="12" fill="#7aa84f" opacity="0.55" text-anchor="middle" dominant-baseline="central" letter-spacing="0.12em">.js bundles</text><text x="659.7249999999999" y="1619" font-family="'JetBrains Mono', 'Fira Code', 'SF Mono', 'Cascadia Code', monospace" font-size="12" fill="#7aa84f" opacity="0.55" text-anchor="middle" dominant-baseline="central" letter-spacing="0.12em">.d.ts declarations</text><text x="659.7249999999999" y="1635.8" font-family="'JetBrains Mono', 'Fira Code', 'SF Mono', 'Cascadia Code', monospace" font-size="12" fill="#7aa84f" opacity="0.55" text-anchor="middle" dominant-baseline="central" letter-spacing="0.12em">Source maps</text>
<rect x="371.66249999999997" y="1742" width="162.39999999999998" height="116" rx="12" fill="url(#dotgrid)" stroke="#555555" stroke-width="1"/><rect x="396.86249999999995" y="1780.9" width="112" height="22.2" fill="#000000" rx="2"/><text x="452.86249999999995" y="1792" font-family="'JetBrains Mono', 'Fira Code', 'SF Mono', 'Cascadia Code', monospace" font-size="13" fill="#888888" opacity="0.65" text-anchor="middle" dominant-baseline="central" letter-spacing="0.12em">CACHE WRITER</text><rect x="376.86249999999995" y="1800.6000000000001" width="152" height="39.599999999999994" fill="#000000" rx="2"/><text x="452.86249999999995" y="1803.6" font-family="'JetBrains Mono', 'Fira Code', 'SF Mono', 'Cascadia Code', monospace" font-size="12" fill="#888888" opacity="0.45" text-anchor="middle" dominant-baseline="central" letter-spacing="0.12em">Incremental build</text><text x="452.86249999999995" y="1820.3999999999999" font-family="'JetBrains Mono', 'Fira Code', 'SF Mono', 'Cascadia Code', monospace" font-size="12" fill="#888888" opacity="0.45" text-anchor="middle" dominant-baseline="central" letter-spacing="0.12em">Content hash keys</text>
<text x="377.75" y="417" font-family="'JetBrains Mono', 'Fira Code', 'SF Mono', 'Cascadia Code', monospace" font-size="12" fill="#b4f079" opacity="0.85" text-anchor="middle">Read source</text>
<text x="512.3" y="547" font-family="'JetBrains Mono', 'Fira Code', 'SF Mono', 'Cascadia Code', monospace" font-size="12" fill="#b4f079" opacity="0.85" text-anchor="middle">Path aliases</text>
<text x="871.65" y="447.75" font-family="'JetBrains Mono', 'Fira Code', 'SF Mono', 'Cascadia Code', monospace" font-size="12" fill="#b4f079" opacity="0.85" text-anchor="middle">Custom transforms</text>
<text x="131" y="765.5" font-family="'JetBrains Mono', 'Fira Code', 'SF Mono', 'Cascadia Code', monospace" font-size="12" fill="#b4f079" opacity="0.85" text-anchor="middle">Typed AST</text>
<text x="781.4" y="848" font-family="'JetBrains Mono', 'Fira Code', 'SF Mono', 'Cascadia Code', monospace" font-size="12" fill="#b4f079" opacity="0.85" text-anchor="middle">Optimized IR</text>
<text x="667.0874999999999" y="1517" font-family="'JetBrains Mono', 'Fira Code', 'SF Mono', 'Cascadia Code', monospace" font-size="12" fill="#b4f079" opacity="0.85" text-anchor="middle">Write output</text>
<text x="500.35" y="343" font-family="'JetBrains Mono', 'Fira Code', 'SF Mono', 'Cascadia Code', monospace" font-size="12" fill="#7aa84f" opacity="0.85" text-anchor="middle">Direct imports</text>
<text x="708.0999999999999" y="718.25" font-family="'JetBrains Mono', 'Fira Code', 'SF Mono', 'Cascadia Code', monospace" font-size="12" fill="#7aa84f" opacity="0.85" text-anchor="middle">Target config</text>
<text x="606.6999999999998" y="980" font-family="'JetBrains Mono', 'Fira Code', 'SF Mono', 'Cascadia Code', monospace" font-size="12" fill="#7aa84f" opacity="0.85" text-anchor="middle">Type metadata for .d.ts</text>
<text x="783.25" y="411.75" font-family="'JetBrains Mono', 'Fira Code', 'SF Mono', 'Cascadia Code', monospace" font-size="12" fill="#7aa84f" opacity="0.85" text-anchor="middle">Optimization hints</text>
<text x="436.69999999999993" y="740" font-family="'JetBrains Mono', 'Fira Code', 'SF Mono', 'Cascadia Code', monospace" font-size="12" fill="#b4f079" opacity="0.85" text-anchor="middle">Re-parse on error</text>
<text x="684.75" y="754.25" font-family="'JetBrains Mono', 'Fira Code', 'SF Mono', 'Cascadia Code', monospace" font-size="12" fill="#b4f079" opacity="0.85" text-anchor="middle">Inlining needs type info</text>
<text x="1209" y="1250.5" font-family="'JetBrains Mono', 'Fira Code', 'SF Mono', 'Cascadia Code', monospace" font-size="12" fill="#b4f079" opacity="0.85" text-anchor="middle">Invalidation signal</text>
<text x="76" y="1060.5" font-family="'JetBrains Mono', 'Fira Code', 'SF Mono', 'Cascadia Code', monospace" font-size="12" fill="#b4f079" opacity="0.85" text-anchor="middle">Deopt feedback</text>
<text x="1142" y="430" font-family="'Inter', 'Helvetica Neue', Arial, sans-serif" font-size="14" fill="#ffffff" font-weight="700">Cross-layer edges:</text><text x="1142" y="448" font-family="'JetBrains Mono', 'Fira Code', 'SF Mono', 'Cascadia Code', monospace" font-size="11" fill="#b4f079" opacity="0.7">4 skip connections violate</text><text x="1142" y="466" font-family="'JetBrains Mono', 'Fira Code', 'SF Mono', 'Cascadia Code', monospace" font-size="11" fill="#b4f079" opacity="0.7">strict layering — tests</text><text x="1142" y="484" font-family="'JetBrains Mono', 'Fira Code', 'SF Mono', 'Cascadia Code', monospace" font-size="11" fill="#b4f079" opacity="0.7">topology preservation</text>
<text x="1142" y="528" font-family="'Inter', 'Helvetica Neue', Arial, sans-serif" font-size="14" fill="#ffffff" font-weight="700">Reverse dependencies:</text><text x="1142" y="546" font-family="'JetBrains Mono', 'Fira Code', 'SF Mono', 'Cascadia Code', monospace" font-size="11" fill="#b4f079" opacity="0.7">4 dashed feedback edges</text><text x="1142" y="564" font-family="'JetBrains Mono', 'Fira Code', 'SF Mono', 'Cascadia Code', monospace" font-size="11" fill="#b4f079" opacity="0.7">flow upward — tests</text><text x="1142" y="582" font-family="'JetBrains Mono', 'Fira Code', 'SF Mono', 'Cascadia Code', monospace" font-size="11" fill="#b4f079" opacity="0.7">layer assignment logic</text>
<text x="462.99999999999994" y="74" font-family="'Inter', 'Helvetica Neue', Arial, sans-serif" font-size="14" fill="#ffffff" font-weight="700">17 nodes across 5 layers</text><text x="462.99999999999994" y="92" font-family="'JetBrains Mono', 'Fira Code', 'SF Mono', 'Cascadia Code', monospace" font-size="11" fill="#b4f079" opacity="0.7">with dense inter-layer wiring</text>
</g>
</svg>