<svg xmlns="http://www.w3.org/2000/svg" viewBox="0 0 2161.2 1987.35" width="2161.2" height="1987.35">
<defs>
  <pattern id="dotgrid" width="8" height="8" patternUnits="userSpaceOnUse">
    <rect width="8" height="8" fill="#000000"/>
    <circle cx="4" cy="4" r="0.8" fill="#b4f079" opacity="0.7"/>
  </pattern>
  <pattern id="crosshatch" width="8" height="8" patternUnits="userSpaceOnUse">
    <rect width="8" height="8" fill="#000000"/>
    <path d="M0 8L8 0M-1 1L1 -1M7 9L9 7" stroke="#b4f079" stroke-width="0.8" opacity="0.2"/>
  </pattern>
  <pattern id="hero" width="6" height="6" patternUnits="userSpaceOnUse">
    <rect width="6" height="6" fill="#3d6b23"/>
    <circle cx="3" cy="3" r="0.6" fill="#5a9a35" opacity="0.5"/>
  </pattern>
  <marker id="arrowhead" markerWidth="10" markerHeight="7" refX="9" refY="3.5" orient="auto" markerUnits="strokeWidth">
    <polygon points="0 0, 10 3.5, 0 7" fill="#b4f079"/>
  </marker>
  <marker id="arrowhead-reverse" markerWidth="10" markerHeight="7" refX="1" refY="3.5" orient="auto" markerUnits="strokeWidth">
    <polygon points="10 0, 0 3.5, 10 7" fill="#b4f079"/>
  </marker>
</defs>
<rect width="100%" height="100%" fill="#000000"/>
<g class="diagram">
<text x="30" y="34" font-family="'Inter', 'Helvetica Neue', Arial, sans-serif" font-size="15" fill="#ffffff" font-weight="700">Kubernetes cluster: 4 namespaces with cross-boundary service mesh routing</text>
<rect x="615.5" y="60" width="542.2" height="404.35" rx="12" fill="url(#crosshatch)" stroke="#b4f079" stroke-width="1" stroke-dasharray="6 4" opacity="0.35"/><rect x="615.5" y="60" width="542.2" height="404.35" rx="12" fill="none" stroke="#b4f079" stroke-width="1" stroke-dasharray="6 4" opacity="0.5"/>
<rect x="256" y="480.35" width="895.4" height="376" rx="12" fill="url(#dotgrid)" stroke="#b4f079" stroke-width="1" opacity="0.35"/><rect x="256" y="480.35" width="895.4" height="376" rx="12" fill="none" stroke="#b4f079" stroke-width="1" opacity="0.5"/>
<rect x="448" y="872.35" width="1443.2" height="376" rx="12" fill="url(#crosshatch)" stroke="#b4f079" stroke-width="1" opacity="0.35"/><rect x="448" y="872.35" width="1443.2" height="376" rx="12" fill="none" stroke="#b4f079" stroke-width="1" opacity="0.5"/>
<rect x="1136.7" y="1264.35" width="572.5" height="701" rx="12" fill="url(#dotgrid)" stroke="#b4f079" stroke-width="1" stroke-dasharray="6 4" opacity="0.35"/><rect x="1136.7" y="1264.35" width="572.5" height="701" rx="12" fill="none" stroke="#b4f079" stroke-width="1" stroke-dasharray="6 4" opacity="0.5"/>
<polyline points="964.7,357 1931.2,357 1931.2,281 745.5999999999999,281 720,266" fill="none" stroke="#b4f079" stroke-width="1.5" marker-end="url(#arrowhead)"/>
<polyline points="745.5999999999999,266 745.5999999999999,465.075 926.9,465.075 926.9,546.35" fill="none" stroke="#b4f079" stroke-width="1.5" marker-end="url(#arrowhead)"/>
<polyline points="745.5999999999999,266 745.5999999999999,465.075 1079.4,465.075 1079.4,536.35" fill="none" stroke="#b4f079" stroke-width="1.5" marker-end="url(#arrowhead)"/>
<polyline points="885.5,840.35 885.5,914.35 552.4,914.35 552.4,945.35" fill="none" stroke="#b4f079" stroke-width="1.5" marker-end="url(#arrowhead)"/>
<polyline points="885.5,840.35 885.5,914.35 1794.2,914.35 1713.2,978.35" fill="none" stroke="#b4f079" stroke-width="1.5" marker-end="url(#arrowhead)"/>
<polyline points="1079.4,837.5 1079.4,914.35 1229.4,914.35 1251.4,928.35" fill="none" stroke="#b4f079" stroke-width="1.5" marker-end="url(#arrowhead)"/>
<polyline points="1058.7,767.05 1058.7,849.5 1229.4,849.5 1207.4,928.35" fill="none" stroke="#b4f079" stroke-width="1.5" marker-end="url(#arrowhead)"/>
<line x1="1303.4" y1="1003.35" x2="1713.2" y2="1003.3499999999999" stroke="#7aa84f" stroke-width="1.5" marker-end="url(#arrowhead)"/>
<polyline points="1079.4,837.5 1079.4,916.35 1266.2,916.35 1266.2,1116.35" fill="none" stroke="#7aa84f" stroke-width="1.5" marker-end="url(#arrowhead)"/>
<polyline points="729.2,377 729.2,522.35 358,522.35 444,594.6833333333334" fill="none" stroke="#b4f079" stroke-width="1.5" stroke-dasharray="6 4" marker-end="url(#arrowhead)"/>
<polyline points="729.2,377 729.2,661.175 552.4,661.175 552.4,945.35" fill="none" stroke="#b4f079" stroke-width="1.5" stroke-dasharray="6 4" marker-end="url(#arrowhead)"/>
<polyline points="1293.5,1378.35 1951.2,1378.35 1951.2,281 745.5999999999999,281 771.1999999999999,266" fill="none" stroke="#7aa84f" stroke-width="1.5" stroke-dasharray="6 4" marker-end="url(#arrowhead)"/>
<polyline points="1293.5,1378.35 1971.2,1378.35 1971.2,852.5 1079.4,852.5 1079.4,837.5" fill="none" stroke="#7aa84f" stroke-width="1.5" stroke-dasharray="6 4" marker-end="url(#arrowhead)"/>
<polyline points="1293.5,1378.35 1991.2,1378.35 1991.2,711.35 926.9,711.35 926.9,696.35" fill="none" stroke="#7aa84f" stroke-width="1.5" stroke-dasharray="6 4" marker-end="url(#arrowhead)"/>
<polyline points="1152.7,1378.35 136,1378.35 136,1096.9 1427.9,1096.9 1427.9,1081.9" fill="none" stroke="#7aa84f" stroke-width="1.5" stroke-dasharray="6 4" marker-end="url(#arrowhead)"/>
<polyline points="1152.7,1378.35 116,1378.35 116,1093.35 1229.4,1093.35 1229.4,1078.35" fill="none" stroke="#7aa84f" stroke-width="1.5" stroke-dasharray="6 4" marker-end="url(#arrowhead)"/>
<polyline points="1152.7,1378.35 96,1378.35 96,1076.35 1794.2,1076.35 1713.2,1028.35" fill="none" stroke="#7aa84f" stroke-width="1.5" stroke-dasharray="6 4" marker-end="url(#arrowhead)"/>
<polyline points="1693.2,1566.35 2071.2,1566.35 2071.2,1025 1453.2,1025 1453.2,1010" fill="none" stroke="#7aa84f" stroke-width="1.5" stroke-dasharray="6 4" marker-end="url(#arrowhead)"/>
<polyline points="885.5,840.35 885.5,1308.35 1254.15,1308.35 1254.15,1833.35" fill="none" stroke="#7aa84f" stroke-width="1.5" stroke-dasharray="6 4" marker-end="url(#arrowhead)"/>
<line x1="745.5999999999999" y1="266" x2="708" y2="304" stroke="#7aa84f" stroke-width="1.5" marker-end="url(#arrowhead)"/>
<polyline points="745.5999999999999,266 745.5999999999999,285 1064.1,285 1064.1,304" fill="none" stroke="#b4f079" stroke-width="1.5" marker-end="url(#arrowhead)"/>
<line x1="926.9" y1="696.35" x2="885.5" y2="724.35" stroke="#b4f079" stroke-width="1.5" marker-end="url(#arrowhead)"/>
<line x1="1023.4000000000001" y1="714.4845667870036" x2="966.5" y2="799.0166666666667" stroke="#b4f079" stroke-width="1.5" marker-end="url(#arrowhead)"/>
<line x1="984.7" y1="710.3841801385681" x2="966.5" y2="765.6833333333334" stroke="#b4f079" stroke-width="1.5" marker-end="url(#arrowhead)"/>
<polyline points="966.5,782.35 2091.2,782.35 2091.2,684.35 358,684.35 444,628.0166666666667" fill="none" stroke="#7aa84f" stroke-width="1.5" marker-end="url(#arrowhead)"/>
<line x1="640.8" y1="1004.3874757281553" x2="1323.4" y2="1012.3985722444318" stroke="#b4f079" stroke-width="1.5" marker-end="url(#arrowhead)"/>
<polyline points="1427.9,1081.9 1427.9,1099.125 1266.2,1099.125 1266.2,1116.35" fill="none" stroke="#7aa84f" stroke-width="1.5" marker-end="url(#arrowhead)"/>
<polyline points="1223.1000000000001,1436.35 1223.1000000000001,1488.85 1622.8000000000002,1488.85 1552.4,1541.35" fill="none" stroke="#b4f079" stroke-width="1.5" marker-end="url(#arrowhead)"/>
<polyline points="1387.5,1436.35 1387.5,1501.35 1622.8000000000002,1501.35 1552.4,1566.35" fill="none" stroke="#7aa84f" stroke-width="1.5" marker-end="url(#arrowhead)"/>
<polyline points="1165.75,1891.35 36,1891.35 36,1639.35 1622.8000000000002,1639.35 1552.4,1591.35" fill="none" stroke="#7aa84f" stroke-width="1.5" marker-end="url(#arrowhead)"/>
<rect x="1864.7" y="308" width="103" height="22" rx="4" fill="#000000"/>
<rect x="794.25" y="395.175" width="54" height="22" rx="4" fill="#000000"/>
<rect x="870.5" y="390.175" width="54" height="22" rx="4" fill="#000000"/>
<rect x="634.95" y="917.35" width="138" height="22" rx="4" fill="#000000"/>
<rect x="1247.85" y="898.35" width="124" height="22" rx="4" fill="#000000"/>
<rect x="1069.4" y="880.35" width="110" height="22" rx="4" fill="#000000"/>
<rect x="1089.0500000000002" y="845.5" width="110" height="22" rx="4" fill="#000000"/>
<rect x="1439.3000000000002" y="1089.9" width="138" height="22" rx="4" fill="#000000"/>
<rect x="1092.3000000000002" y="916.35" width="131" height="22" rx="4" fill="#000000"/>
<rect x="488.6" y="525.35" width="110" height="22" rx="4" fill="#000000"/>
<rect x="600.8" y="650.175" width="110" height="22" rx="4" fill="#000000"/>
<rect x="1907.7" y="818.675" width="117" height="22" rx="4" fill="#000000"/>
<rect x="1927.7" y="1104.425" width="117" height="22" rx="4" fill="#000000"/>
<rect x="1947.7" y="1033.85" width="117" height="22" rx="4" fill="#000000"/>
<rect x="67" y="1255.9671875" width="138" height="22" rx="4" fill="#000000"/>
<rect x="105" y="1187.92890625" width="82" height="22" rx="4" fill="#000000"/>
<rect x="46.5" y="1223.92890625" width="159" height="22" rx="4" fill="#000000"/>
<rect x="2002.1999999999998" y="1284.675" width="138" height="22" rx="4" fill="#000000"/>
<rect x="1025.325" y="1325.85" width="89" height="22" rx="4" fill="#000000"/>
<rect x="649.8" y="274" width="124" height="22" rx="4" fill="#000000"/>
<rect x="864.8499999999999" y="274" width="110" height="22" rx="4" fill="#000000"/>
<rect x="1303.5500000000002" y="1086.35" width="117" height="22" rx="4" fill="#000000"/>
<rect x="1337.9500000000003" y="1477.85" width="110" height="22" rx="4" fill="#000000"/>
<rect x="1464.15" y="1478.35" width="82" height="22" rx="4" fill="#000000"/>
<rect x="18" y="1754.35" width="96" height="22" rx="4" fill="#000000"/>
<rect x="623.5" y="74" width="72" height="22" fill="#b4f079" rx="2"/><text x="631.5" y="85" font-family="'JetBrains Mono', 'Fira Code', 'SF Mono', 'Cascadia Code', monospace" font-size="10" fill="#000000" dominant-baseline="central" font-weight="700" letter-spacing="0.08em">INGRESS</text><rect x="703.5" y="73" width="207.5" height="24" fill="#000000" rx="3"/><text x="713.5" y="86" font-family="'Inter', 'Helvetica Neue', Arial, sans-serif" font-size="14" fill="#ffffff" opacity="0.9" text-anchor="start">Namespace: ingress-system</text>
<rect x="264" y="494.35" width="40" height="22" fill="#b4f079" rx="2"/><text x="272" y="505.35" font-family="'JetBrains Mono', 'Fira Code', 'SF Mono', 'Cascadia Code', monospace" font-size="10" fill="#000000" dominant-baseline="central" font-weight="700" letter-spacing="0.08em">APP</text><rect x="312" y="493.35" width="207.5" height="24" fill="#000000" rx="3"/><text x="322" y="506.35" font-family="'Inter', 'Helvetica Neue', Arial, sans-serif" font-size="14" fill="#ffffff" opacity="0.9" text-anchor="start">Namespace: app-production</text>
<rect x="456" y="886.35" width="48" height="22" fill="#b4f079" rx="2"/><text x="464" y="897.35" font-family="'JetBrains Mono', 'Fira Code', 'SF Mono', 'Cascadia Code', monospace" font-size="10" fill="#000000" dominant-baseline="central" font-weight="700" letter-spacing="0.08em">DATA</text><rect x="512" y="885.35" width="215" height="24" fill="#000000" rx="3"/><text x="522" y="898.35" font-family="'Inter', 'Helvetica Neue', Arial, sans-serif" font-size="14" fill="#ffffff" opacity="0.9" text-anchor="start">Namespace: data-production</text>
<rect x="1144.7" y="1278.35" width="40" height="22" fill="#b4f079" rx="2"/><text x="1152.7" y="1289.35" font-family="'JetBrains Mono', 'Fira Code', 'SF Mono', 'Cascadia Code', monospace" font-size="10" fill="#000000" dominant-baseline="central" font-weight="700" letter-spacing="0.08em">OBS</text><rect x="1192.7" y="1277.35" width="177.5" height="24" fill="#000000" rx="3"/><text x="1202.7" y="1290.35" font-family="'Inter', 'Helvetica Neue', Arial, sans-serif" font-size="14" fill="#ffffff" opacity="0.9" text-anchor="start">Namespace: monitoring</text>
<rect x="792.7" y="337" width="172" height="40" rx="12" fill="#000000" stroke="#b4f079" stroke-width="1.5"/><text x="878.7" y="357" font-family="'JetBrains Mono', 'Fira Code', 'SF Mono', 'Cascadia Code', monospace" font-size="13" fill="#b4f079" text-anchor="middle" dominant-baseline="central" letter-spacing="0.12em">CLOUDFLARE CDN</text>
<rect x="1390.7" y="970" width="125" height="40" rx="12" fill="#000000" stroke="#555555" stroke-width="1"/><text x="1453.2" y="990" font-family="'JetBrains Mono', 'Fira Code', 'SF Mono', 'Cascadia Code', monospace" font-size="13" fill="#888888" opacity="0.65" text-anchor="middle" dominant-baseline="central" letter-spacing="0.12em">PAGERDUTY</text>
<rect x="685.7" y="337" width="87" height="40" rx="12" fill="#000000" stroke="#b4f079" stroke-width="1.5"/><text x="729.2" y="357" font-family="'JetBrains Mono', 'Fira Code', 'SF Mono', 'Cascadia Code', monospace" font-size="13" fill="#b4f079" text-anchor="middle" dominant-baseline="central" letter-spacing="0.12em">VAULT</text>
<rect x="660.8" y="116" width="169.6" height="150" rx="12" fill="none" stroke="#b4f079" stroke-width="2"/><rect x="665.8" y="121" width="159.6" height="140" rx="8" fill="url(#hero)" stroke="#b4f079" stroke-width="1"/><rect x="685.5999999999999" y="171.9" width="120" height="22.2" fill="#000000" rx="2"/><text x="745.5999999999999" y="183" font-family="'JetBrains Mono', 'Fira Code', 'SF Mono', 'Cascadia Code', monospace" font-size="13" fill="#b4f079" text-anchor="middle" dominant-baseline="central" letter-spacing="0.12em">NGINX INGRESS</text><rect x="665.5999999999999" y="191.60000000000002" width="160" height="56.39999999999999" fill="#000000" rx="2"/><text x="745.5999999999999" y="186.2" font-family="'JetBrains Mono', 'Fira Code', 'SF Mono', 'Cascadia Code', monospace" font-size="12" fill="#b4f079" opacity="0.7" text-anchor="middle" dominant-baseline="central" letter-spacing="0.12em">TLS termination</text><text x="745.5999999999999" y="203" font-family="'JetBrains Mono', 'Fira Code', 'SF Mono', 'Cascadia Code', monospace" font-size="12" fill="#b4f079" opacity="0.7" text-anchor="middle" dominant-baseline="central" letter-spacing="0.12em">Path-based routing</text><text x="745.5999999999999" y="219.79999999999998" font-family="'JetBrains Mono', 'Fira Code', 'SF Mono', 'Cascadia Code', monospace" font-size="12" fill="#b4f079" opacity="0.7" text-anchor="middle" dominant-baseline="central" letter-spacing="0.12em">Rate limiting</text>
<rect x="631.5" y="304" width="153" height="149.075" rx="12" fill="url(#dotgrid)" stroke="#555555" stroke-width="1"/><rect x="652" y="359.4375" width="112" height="22.2" fill="#000000" rx="2"/><text x="708" y="370.5375" font-family="'JetBrains Mono', 'Fira Code', 'SF Mono', 'Cascadia Code', monospace" font-size="13" fill="#888888" opacity="0.65" text-anchor="middle" dominant-baseline="central" letter-spacing="0.12em">CERT MANAGER</text><rect x="648" y="379.1375" width="120" height="39.599999999999994" fill="#000000" rx="2"/><text x="708" y="382.13750000000005" font-family="'JetBrains Mono', 'Fira Code', 'SF Mono', 'Cascadia Code', monospace" font-size="12" fill="#888888" opacity="0.45" text-anchor="middle" dominant-baseline="central" letter-spacing="0.12em">Let's Encrypt</text><text x="708" y="398.93750000000006" font-family="'JetBrains Mono', 'Fira Code', 'SF Mono', 'Cascadia Code', monospace" font-size="12" fill="#888888" opacity="0.45" text-anchor="middle" dominant-baseline="central" letter-spacing="0.12em">Auto-renewal</text>
<rect x="986.5" y="304" width="155.2" height="116" rx="12" fill="url(#dotgrid)" stroke="#555555" stroke-width="1"/><rect x="1044.1" y="342.9" width="40" height="22.2" fill="#000000" rx="2"/><text x="1064.1" y="354" font-family="'JetBrains Mono', 'Fira Code', 'SF Mono', 'Cascadia Code', monospace" font-size="13" fill="#888888" opacity="0.65" text-anchor="middle" dominant-baseline="central" letter-spacing="0.12em">WAF</text><rect x="992.0999999999999" y="362.59999999999997" width="144" height="39.599999999999994" fill="#000000" rx="2"/><text x="1064.1" y="365.6" font-family="'JetBrains Mono', 'Fira Code', 'SF Mono', 'Cascadia Code', monospace" font-size="12" fill="#888888" opacity="0.45" text-anchor="middle" dominant-baseline="central" letter-spacing="0.12em">ModSecurity</text><text x="1064.1" y="382.40000000000003" font-family="'JetBrains Mono', 'Fira Code', 'SF Mono', 'Cascadia Code', monospace" font-size="12" fill="#888888" opacity="0.45" text-anchor="middle" dominant-baseline="central" letter-spacing="0.12em">OWASP Core Rules</text>
<rect x="850.4" y="546.35" width="153" height="150" rx="12" fill="url(#dotgrid)" stroke="#b4f079" stroke-width="1.5"/><rect x="870.9" y="602.25" width="112" height="22.2" fill="#000000" rx="2"/><text x="926.9" y="613.35" font-family="'JetBrains Mono', 'Fira Code', 'SF Mono', 'Cascadia Code', monospace" font-size="13" fill="#b4f079" text-anchor="middle" dominant-baseline="central" letter-spacing="0.12em">FRONTEND POD</text><rect x="878.9" y="621.9499999999999" width="96" height="56.39999999999999" fill="#000000" rx="2"/><text x="926.9" y="616.5500000000001" font-family="'JetBrains Mono', 'Fira Code', 'SF Mono', 'Cascadia Code', monospace" font-size="12" fill="#b4f079" opacity="0.6" text-anchor="middle" dominant-baseline="central" letter-spacing="0.12em">React SSR</text><text x="926.9" y="633.35" font-family="'JetBrains Mono', 'Fira Code', 'SF Mono', 'Cascadia Code', monospace" font-size="12" fill="#b4f079" opacity="0.6" text-anchor="middle" dominant-baseline="central" letter-spacing="0.12em">3 replicas</text><text x="926.9" y="650.1500000000001" font-family="'JetBrains Mono', 'Fira Code', 'SF Mono', 'Cascadia Code', monospace" font-size="12" fill="#b4f079" opacity="0.6" text-anchor="middle" dominant-baseline="central" letter-spacing="0.12em">HPA: 3-10</text>
<rect x="1023.4" y="536.35" width="112" height="301.1499999999999" rx="12" fill="url(#dotgrid)" stroke="#b4f079" stroke-width="2"/><rect x="1043.4" y="667.8249999999999" width="72" height="22.2" fill="#000000" rx="2"/><text x="1079.4" y="678.925" font-family="'JetBrains Mono', 'Fira Code', 'SF Mono', 'Cascadia Code', monospace" font-size="13" fill="#b4f079" text-anchor="middle" dominant-baseline="central" letter-spacing="0.12em">API POD</text><rect x="1031.4" y="687.5249999999999" width="96" height="56.39999999999999" fill="#000000" rx="2"/><text x="1079.4" y="682.125" font-family="'JetBrains Mono', 'Fira Code', 'SF Mono', 'Cascadia Code', monospace" font-size="12" fill="#b4f079" opacity="0.7" text-anchor="middle" dominant-baseline="central" letter-spacing="0.12em">Node.js</text><text x="1079.4" y="698.925" font-family="'JetBrains Mono', 'Fira Code', 'SF Mono', 'Cascadia Code', monospace" font-size="12" fill="#b4f079" opacity="0.7" text-anchor="middle" dominant-baseline="central" letter-spacing="0.12em">5 replicas</text><text x="1079.4" y="715.725" font-family="'JetBrains Mono', 'Fira Code', 'SF Mono', 'Cascadia Code', monospace" font-size="12" fill="#b4f079" opacity="0.7" text-anchor="middle" dominant-baseline="central" letter-spacing="0.12em">HPA: 5-20</text>
<rect x="984.7" y="546.35" width="148" height="220.69999999999993" rx="12" fill="url(#dotgrid)" stroke="#b4f079" stroke-width="1.5"/><rect x="1010.7" y="637.6" width="96" height="22.2" fill="#000000" rx="2"/><text x="1058.7" y="648.7" font-family="'JetBrains Mono', 'Fira Code', 'SF Mono', 'Cascadia Code', monospace" font-size="13" fill="#b4f079" text-anchor="middle" dominant-baseline="central" letter-spacing="0.12em">WORKER POD</text><rect x="990.7" y="657.3" width="136" height="56.39999999999999" fill="#000000" rx="2"/><text x="1058.7" y="651.9000000000001" font-family="'JetBrains Mono', 'Fira Code', 'SF Mono', 'Cascadia Code', monospace" font-size="12" fill="#b4f079" opacity="0.6" text-anchor="middle" dominant-baseline="central" letter-spacing="0.12em">Background jobs</text><text x="1058.7" y="668.7" font-family="'JetBrains Mono', 'Fira Code', 'SF Mono', 'Cascadia Code', monospace" font-size="12" fill="#b4f079" opacity="0.6" text-anchor="middle" dominant-baseline="central" letter-spacing="0.12em">2 replicas</text><text x="1058.7" y="685.5000000000001" font-family="'JetBrains Mono', 'Fira Code', 'SF Mono', 'Cascadia Code', monospace" font-size="12" fill="#b4f079" opacity="0.6" text-anchor="middle" dominant-baseline="central" letter-spacing="0.12em">Queue consumer</text>
<rect x="804.5" y="724.35" width="162" height="116" rx="12" fill="url(#crosshatch)" stroke="#7aa84f" stroke-width="1.5"/><rect x="825.5" y="763.25" width="120" height="22.2" fill="#000000" rx="2"/><text x="885.5" y="774.35" font-family="'JetBrains Mono', 'Fira Code', 'SF Mono', 'Cascadia Code', monospace" font-size="13" fill="#7aa84f" opacity="0.85" text-anchor="middle" dominant-baseline="central" letter-spacing="0.12em">SIDECAR PROXY</text><rect x="821.5" y="782.95" width="128" height="39.599999999999994" fill="#000000" rx="2"/><text x="885.5" y="785.95" font-family="'JetBrains Mono', 'Fira Code', 'SF Mono', 'Cascadia Code', monospace" font-size="12" fill="#7aa84f" opacity="0.55" text-anchor="middle" dominant-baseline="central" letter-spacing="0.12em">Envoy</text><text x="885.5" y="802.75" font-family="'JetBrains Mono', 'Fira Code', 'SF Mono', 'Cascadia Code', monospace" font-size="12" fill="#7aa84f" opacity="0.55" text-anchor="middle" dominant-baseline="central" letter-spacing="0.12em">mTLS + tracing</text>
<rect x="272" y="553.35" width="172" height="116" rx="12" fill="url(#crosshatch)" stroke="#555555" stroke-width="1"/><rect x="294" y="592.25" width="128" height="22.2" fill="#000000" rx="2"/><text x="358" y="603.35" font-family="'JetBrains Mono', 'Fira Code', 'SF Mono', 'Cascadia Code', monospace" font-size="13" fill="#888888" opacity="0.65" text-anchor="middle" dominant-baseline="central" letter-spacing="0.12em">CONFIG SIDECAR</text><rect x="282" y="611.95" width="152" height="39.599999999999994" fill="#000000" rx="2"/><text x="358" y="614.95" font-family="'JetBrains Mono', 'Fira Code', 'SF Mono', 'Cascadia Code', monospace" font-size="12" fill="#888888" opacity="0.45" text-anchor="middle" dominant-baseline="central" letter-spacing="0.12em">Consul agent</text><text x="358" y="631.75" font-family="'JetBrains Mono', 'Fira Code', 'SF Mono', 'Cascadia Code', monospace" font-size="12" fill="#888888" opacity="0.45" text-anchor="middle" dominant-baseline="central" letter-spacing="0.12em">Service discovery</text>
<rect x="1323.4" y="955.35" width="209" height="116.54999999999995" fill="url(#crosshatch)" stroke="none"/><line x1="1323.4" y1="955.35" x2="1323.4" y2="1071.9" stroke="#b4f079" stroke-width="2"/><line x1="1532.4" y1="955.35" x2="1532.4" y2="1071.9" stroke="#b4f079" stroke-width="2"/><ellipse cx="1427.9" cy="955.35" rx="104.5" ry="10" fill="url(#crosshatch)" stroke="#b4f079" stroke-width="2"/><path d="M1323.4,1071.9 A104.5,10 0 0,0 1532.4,1071.9" fill="url(#crosshatch)" stroke="#b4f079" stroke-width="2"/><rect x="1347.9" y="994.525" width="160" height="22.2" fill="#000000" rx="2"/><text x="1427.9" y="1005.625" font-family="'JetBrains Mono', 'Fira Code', 'SF Mono', 'Cascadia Code', monospace" font-size="13" fill="#b4f079" text-anchor="middle" dominant-baseline="central" letter-spacing="0.12em">POSTGRESQL PRIMARY</text><rect x="1343.9" y="1014.2250000000001" width="168" height="39.599999999999994" fill="#000000" rx="2"/><text x="1427.9" y="1017.225" font-family="'JetBrains Mono', 'Fira Code', 'SF Mono', 'Cascadia Code', monospace" font-size="12" fill="#b4f079" opacity="0.7" text-anchor="middle" dominant-baseline="central" letter-spacing="0.12em">v16, WAL streaming</text><text x="1427.9" y="1034.025" font-family="'JetBrains Mono', 'Fira Code', 'SF Mono', 'Cascadia Code', monospace" font-size="12" fill="#b4f079" opacity="0.7" text-anchor="middle" dominant-baseline="central" letter-spacing="0.12em">500 connections max</text>
<rect x="1161.7" y="1126.35" width="209" height="96" fill="url(#crosshatch)" stroke="none"/><line x1="1161.7" y1="1126.35" x2="1161.7" y2="1222.35" stroke="#555555" stroke-width="1"/><line x1="1370.7" y1="1126.35" x2="1370.7" y2="1222.35" stroke="#555555" stroke-width="1"/><ellipse cx="1266.2" cy="1126.35" rx="104.5" ry="10" fill="url(#crosshatch)" stroke="#555555" stroke-width="1"/><path d="M1161.7,1222.35 A104.5,10 0 0,0 1370.7,1222.35" fill="url(#crosshatch)" stroke="#555555" stroke-width="1"/><rect x="1186.2" y="1155.25" width="160" height="22.2" fill="#000000" rx="2"/><text x="1266.2" y="1166.35" font-family="'JetBrains Mono', 'Fira Code', 'SF Mono', 'Cascadia Code', monospace" font-size="13" fill="#888888" opacity="0.65" text-anchor="middle" dominant-baseline="central" letter-spacing="0.12em">POSTGRESQL REPLICA</text><rect x="1190.2" y="1174.95" width="152" height="39.599999999999994" fill="#000000" rx="2"/><text x="1266.2" y="1177.9499999999998" font-family="'JetBrains Mono', 'Fira Code', 'SF Mono', 'Cascadia Code', monospace" font-size="12" fill="#888888" opacity="0.45" text-anchor="middle" dominant-baseline="central" letter-spacing="0.12em">Read replica</text><text x="1266.2" y="1194.7499999999998" font-family="'JetBrains Mono', 'Fira Code', 'SF Mono', 'Cascadia Code', monospace" font-size="12" fill="#888888" opacity="0.45" text-anchor="middle" dominant-baseline="central" letter-spacing="0.12em">Async replication</text>
<rect x="1713.2" y="955.35" width="162" height="96" fill="url(#crosshatch)" stroke="none"/><line x1="1713.2" y1="955.35" x2="1713.2" y2="1051.35" stroke="#b4f079" stroke-width="1.5"/><line x1="1875.2" y1="955.35" x2="1875.2" y2="1051.35" stroke="#b4f079" stroke-width="1.5"/><ellipse cx="1794.2" cy="955.35" rx="81" ry="10" fill="url(#crosshatch)" stroke="#b4f079" stroke-width="1.5"/><path d="M1713.2,1051.35 A81,10 0 0,0 1875.2,1051.35" fill="url(#crosshatch)" stroke="#b4f079" stroke-width="1.5"/><rect x="1734.2" y="984.25" width="120" height="22.2" fill="#000000" rx="2"/><text x="1794.2" y="995.35" font-family="'JetBrains Mono', 'Fira Code', 'SF Mono', 'Cascadia Code', monospace" font-size="13" fill="#b4f079" text-anchor="middle" dominant-baseline="central" letter-spacing="0.12em">REDIS CLUSTER</text><rect x="1726.2" y="1003.95" width="136" height="39.599999999999994" fill="#000000" rx="2"/><text x="1794.2" y="1006.95" font-family="'JetBrains Mono', 'Fira Code', 'SF Mono', 'Cascadia Code', monospace" font-size="12" fill="#b4f079" opacity="0.6" text-anchor="middle" dominant-baseline="central" letter-spacing="0.12em">6 nodes</text><text x="1794.2" y="1023.75" font-family="'JetBrains Mono', 'Fira Code', 'SF Mono', 'Cascadia Code', monospace" font-size="12" fill="#b4f079" opacity="0.6" text-anchor="middle" dominant-baseline="central" letter-spacing="0.12em">Session + cache</text>
<rect x="1155.4" y="938.35" width="148" height="130" fill="url(#crosshatch)" stroke="none"/><line x1="1155.4" y1="938.35" x2="1155.4" y2="1068.35" stroke="#7aa84f" stroke-width="1.5"/><line x1="1303.4" y1="938.35" x2="1303.4" y2="1068.35" stroke="#7aa84f" stroke-width="1.5"/><ellipse cx="1229.4" cy="938.35" rx="74" ry="10" fill="url(#crosshatch)" stroke="#7aa84f" stroke-width="1.5"/><path d="M1155.4,1068.35 A74,10 0 0,0 1303.4,1068.35" fill="url(#crosshatch)" stroke="#7aa84f" stroke-width="1.5"/><rect x="1201.4" y="984.25" width="56" height="22.2" fill="#000000" rx="2"/><text x="1229.4" y="995.35" font-family="'JetBrains Mono', 'Fira Code', 'SF Mono', 'Cascadia Code', monospace" font-size="13" fill="#7aa84f" opacity="0.85" text-anchor="middle" dominant-baseline="central" letter-spacing="0.12em">KAFKA</text><rect x="1161.4" y="1003.95" width="136" height="56.39999999999999" fill="#000000" rx="2"/><text x="1229.4" y="998.5500000000001" font-family="'JetBrains Mono', 'Fira Code', 'SF Mono', 'Cascadia Code', monospace" font-size="12" fill="#7aa84f" opacity="0.55" text-anchor="middle" dominant-baseline="central" letter-spacing="0.12em">3 brokers</text><text x="1229.4" y="1015.35" font-family="'JetBrains Mono', 'Fira Code', 'SF Mono', 'Cascadia Code', monospace" font-size="12" fill="#7aa84f" opacity="0.55" text-anchor="middle" dominant-baseline="central" letter-spacing="0.12em">Event streaming</text><text x="1229.4" y="1032.15" font-family="'JetBrains Mono', 'Fira Code', 'SF Mono', 'Cascadia Code', monospace" font-size="12" fill="#7aa84f" opacity="0.55" text-anchor="middle" dominant-baseline="central" letter-spacing="0.12em">7-day retention</text>
<rect x="464" y="945.35" width="176.79999999999998" height="116" rx="12" fill="url(#dotgrid)" stroke="#b4f079" stroke-width="1.5"/><rect x="508.4" y="984.25" width="88" height="22.2" fill="#000000" rx="2"/><text x="552.4" y="995.35" font-family="'JetBrains Mono', 'Fira Code', 'SF Mono', 'Cascadia Code', monospace" font-size="13" fill="#b4f079" text-anchor="middle" dominant-baseline="central" letter-spacing="0.12em">PGBOUNCER</text><rect x="468.4" y="1003.95" width="168" height="39.599999999999994" fill="#000000" rx="2"/><text x="552.4" y="1006.95" font-family="'JetBrains Mono', 'Fira Code', 'SF Mono', 'Cascadia Code', monospace" font-size="12" fill="#b4f079" opacity="0.6" text-anchor="middle" dominant-baseline="central" letter-spacing="0.12em">Connection pooling</text><text x="552.4" y="1023.75" font-family="'JetBrains Mono', 'Fira Code', 'SF Mono', 'Cascadia Code', monospace" font-size="12" fill="#b4f079" opacity="0.6" text-anchor="middle" dominant-baseline="central" letter-spacing="0.12em">Max 200 connections</text>
<rect x="1152.7" y="1320.35" width="140.8" height="116" rx="12" fill="url(#dotgrid)" stroke="#b4f079" stroke-width="1.5"/><rect x="1175.1000000000001" y="1359.25" width="96" height="22.2" fill="#000000" rx="2"/><text x="1223.1000000000001" y="1370.35" font-family="'JetBrains Mono', 'Fira Code', 'SF Mono', 'Cascadia Code', monospace" font-size="13" fill="#b4f079" text-anchor="middle" dominant-baseline="central" letter-spacing="0.12em">PROMETHEUS</text><rect x="1159.1000000000001" y="1378.95" width="128" height="39.599999999999994" fill="#000000" rx="2"/><text x="1223.1000000000001" y="1381.9499999999998" font-family="'JetBrains Mono', 'Fira Code', 'SF Mono', 'Cascadia Code', monospace" font-size="12" fill="#b4f079" opacity="0.6" text-anchor="middle" dominant-baseline="central" letter-spacing="0.12em">Metrics scrape</text><text x="1223.1000000000001" y="1398.7499999999998" font-family="'JetBrains Mono', 'Fira Code', 'SF Mono', 'Cascadia Code', monospace" font-size="12" fill="#b4f079" opacity="0.6" text-anchor="middle" dominant-baseline="central" letter-spacing="0.12em">15s interval</text>
<rect x="1552.4" y="1508.35" width="140.8" height="116" rx="12" fill="url(#dotgrid)" stroke="#7aa84f" stroke-width="1.5"/><rect x="1586.8000000000002" y="1547.25" width="72" height="22.2" fill="#000000" rx="2"/><text x="1622.8000000000002" y="1558.35" font-family="'JetBrains Mono', 'Fira Code', 'SF Mono', 'Cascadia Code', monospace" font-size="13" fill="#7aa84f" opacity="0.85" text-anchor="middle" dominant-baseline="central" letter-spacing="0.12em">GRAFANA</text><rect x="1558.8000000000002" y="1566.95" width="128" height="39.599999999999994" fill="#000000" rx="2"/><text x="1622.8000000000002" y="1569.9499999999998" font-family="'JetBrains Mono', 'Fira Code', 'SF Mono', 'Cascadia Code', monospace" font-size="12" fill="#7aa84f" opacity="0.55" text-anchor="middle" dominant-baseline="central" letter-spacing="0.12em">Dashboards</text><text x="1622.8000000000002" y="1586.7499999999998" font-family="'JetBrains Mono', 'Fira Code', 'SF Mono', 'Cascadia Code', monospace" font-size="12" fill="#7aa84f" opacity="0.55" text-anchor="middle" dominant-baseline="central" letter-spacing="0.12em">Alerting rules</text>
<rect x="1313.5" y="1320.35" width="148" height="116" rx="12" fill="url(#dotgrid)" stroke="#555555" stroke-width="1"/><rect x="1363.5" y="1359.25" width="48" height="22.2" fill="#000000" rx="2"/><text x="1387.5" y="1370.35" font-family="'JetBrains Mono', 'Fira Code', 'SF Mono', 'Cascadia Code', monospace" font-size="13" fill="#888888" opacity="0.65" text-anchor="middle" dominant-baseline="central" letter-spacing="0.12em">LOKI</text><rect x="1319.5" y="1378.95" width="136" height="39.599999999999994" fill="#000000" rx="2"/><text x="1387.5" y="1381.9499999999998" font-family="'JetBrains Mono', 'Fira Code', 'SF Mono', 'Cascadia Code', monospace" font-size="12" fill="#888888" opacity="0.45" text-anchor="middle" dominant-baseline="central" letter-spacing="0.12em">Log aggregation</text><text x="1387.5" y="1398.7499999999998" font-family="'JetBrains Mono', 'Fira Code', 'SF Mono', 'Cascadia Code', monospace" font-size="12" fill="#888888" opacity="0.45" text-anchor="middle" dominant-baseline="central" letter-spacing="0.12em">LogQL queries</text>
<rect x="1165.75" y="1833.35" width="176.79999999999998" height="116" rx="12" fill="url(#dotgrid)" stroke="#555555" stroke-width="1"/><rect x="1226.15" y="1872.25" width="56" height="22.2" fill="#000000" rx="2"/><text x="1254.15" y="1883.35" font-family="'JetBrains Mono', 'Fira Code', 'SF Mono', 'Cascadia Code', monospace" font-size="13" fill="#888888" opacity="0.65" text-anchor="middle" dominant-baseline="central" letter-spacing="0.12em">TEMPO</text><rect x="1170.15" y="1891.95" width="168" height="39.599999999999994" fill="#000000" rx="2"/><text x="1254.15" y="1894.9499999999998" font-family="'JetBrains Mono', 'Fira Code', 'SF Mono', 'Cascadia Code', monospace" font-size="12" fill="#888888" opacity="0.45" text-anchor="middle" dominant-baseline="central" letter-spacing="0.12em">Distributed tracing</text><text x="1254.15" y="1911.7499999999998" font-family="'JetBrains Mono', 'Fira Code', 'SF Mono', 'Cascadia Code', monospace" font-size="12" fill="#888888" opacity="0.45" text-anchor="middle" dominant-baseline="central" letter-spacing="0.12em">Trace-to-logs</text>
<text x="1916.2" y="323" font-family="'JetBrains Mono', 'Fira Code', 'SF Mono', 'Cascadia Code', monospace" font-size="12" fill="#b4f079" opacity="0.85" text-anchor="middle">HTTPS traffic</text>
<text x="821.25" y="410.175" font-family="'JetBrains Mono', 'Fira Code', 'SF Mono', 'Cascadia Code', monospace" font-size="12" fill="#b4f079" opacity="0.85" text-anchor="middle">/app/*</text>
<text x="897.5" y="405.175" font-family="'JetBrains Mono', 'Fira Code', 'SF Mono', 'Cascadia Code', monospace" font-size="12" fill="#b4f079" opacity="0.85" text-anchor="middle">/api/*</text>
<text x="703.95" y="932.35" font-family="'JetBrains Mono', 'Fira Code', 'SF Mono', 'Cascadia Code', monospace" font-size="12" fill="#b4f079" opacity="0.85" text-anchor="middle">SQL queries (mTLS)</text>
<text x="1309.85" y="913.35" font-family="'JetBrains Mono', 'Fira Code', 'SF Mono', 'Cascadia Code', monospace" font-size="12" fill="#b4f079" opacity="0.85" text-anchor="middle">Cache ops (mTLS)</text>
<text x="1124.4" y="895.35" font-family="'JetBrains Mono', 'Fira Code', 'SF Mono', 'Cascadia Code', monospace" font-size="12" fill="#b4f079" opacity="0.85" text-anchor="middle">Publish events</text>
<text x="1144.0500000000002" y="860.5" font-family="'JetBrains Mono', 'Fira Code', 'SF Mono', 'Cascadia Code', monospace" font-size="12" fill="#b4f079" opacity="0.85" text-anchor="middle">Consume events</text>
<text x="1508.3000000000002" y="1104.9" font-family="'JetBrains Mono', 'Fira Code', 'SF Mono', 'Cascadia Code', monospace" font-size="12" fill="#7aa84f" opacity="0.85" text-anchor="middle">Cache invalidation</text>
<text x="1157.8000000000002" y="931.35" font-family="'JetBrains Mono', 'Fira Code', 'SF Mono', 'Cascadia Code', monospace" font-size="12" fill="#7aa84f" opacity="0.85" text-anchor="middle">Read-only queries</text>
<text x="543.6" y="540.35" font-family="'JetBrains Mono', 'Fira Code', 'SF Mono', 'Cascadia Code', monospace" font-size="12" fill="#b4f079" opacity="0.85" text-anchor="middle">Inject secrets</text>
<text x="655.8" y="665.175" font-family="'JetBrains Mono', 'Fira Code', 'SF Mono', 'Cascadia Code', monospace" font-size="12" fill="#b4f079" opacity="0.85" text-anchor="middle">DB credentials</text>
<text x="1966.2" y="833.675" font-family="'JetBrains Mono', 'Fira Code', 'SF Mono', 'Cascadia Code', monospace" font-size="12" fill="#7aa84f" opacity="0.85" text-anchor="middle">Scrape /metrics</text>
<text x="1986.2" y="1119.425" font-family="'JetBrains Mono', 'Fira Code', 'SF Mono', 'Cascadia Code', monospace" font-size="12" fill="#7aa84f" opacity="0.85" text-anchor="middle">Scrape /metrics</text>
<text x="2006.2" y="1048.85" font-family="'JetBrains Mono', 'Fira Code', 'SF Mono', 'Cascadia Code', monospace" font-size="12" fill="#7aa84f" opacity="0.85" text-anchor="middle">Scrape /metrics</text>
<text x="136" y="1270.9671875" font-family="'JetBrains Mono', 'Fira Code', 'SF Mono', 'Cascadia Code', monospace" font-size="12" fill="#7aa84f" opacity="0.85" text-anchor="middle">Scrape pg_exporter</text>
<text x="146" y="1202.92890625" font-family="'JetBrains Mono', 'Fira Code', 'SF Mono', 'Cascadia Code', monospace" font-size="12" fill="#7aa84f" opacity="0.85" text-anchor="middle">Scrape JMX</text>
<text x="126" y="1238.92890625" font-family="'JetBrains Mono', 'Fira Code', 'SF Mono', 'Cascadia Code', monospace" font-size="12" fill="#7aa84f" opacity="0.85" text-anchor="middle">Scrape redis_exporter</text>
<text x="2071.2" y="1299.675" font-family="'JetBrains Mono', 'Fira Code', 'SF Mono', 'Cascadia Code', monospace" font-size="12" fill="#7aa84f" opacity="0.85" text-anchor="middle">Alert notification</text>
<text x="1069.825" y="1340.85" font-family="'JetBrains Mono', 'Fira Code', 'SF Mono', 'Cascadia Code', monospace" font-size="12" fill="#7aa84f" opacity="0.85" text-anchor="middle">Emit traces</text>
<text x="711.8" y="289" font-family="'JetBrains Mono', 'Fira Code', 'SF Mono', 'Cascadia Code', monospace" font-size="12" fill="#7aa84f" opacity="0.85" text-anchor="middle">TLS cert request</text>
<text x="919.8499999999999" y="289" font-family="'JetBrains Mono', 'Fira Code', 'SF Mono', 'Cascadia Code', monospace" font-size="12" fill="#b4f079" opacity="0.85" text-anchor="middle">Filter request</text>
<text x="1362.0500000000002" y="1101.35" font-family="'JetBrains Mono', 'Fira Code', 'SF Mono', 'Cascadia Code', monospace" font-size="12" fill="#7aa84f" opacity="0.85" text-anchor="middle">WAL replication</text>
<text x="1392.9500000000003" y="1492.85" font-family="'JetBrains Mono', 'Fira Code', 'SF Mono', 'Cascadia Code', monospace" font-size="12" fill="#b4f079" opacity="0.85" text-anchor="middle">Metrics source</text>
<text x="1505.15" y="1493.35" font-family="'JetBrains Mono', 'Fira Code', 'SF Mono', 'Cascadia Code', monospace" font-size="12" fill="#7aa84f" opacity="0.85" text-anchor="middle">Log source</text>
<text x="66" y="1769.35" font-family="'JetBrains Mono', 'Fira Code', 'SF Mono', 'Cascadia Code', monospace" font-size="12" fill="#7aa84f" opacity="0.85" text-anchor="middle">Trace source</text>
<text x="804.5" y="878" font-family="'Inter', 'Helvetica Neue', Arial, sans-serif" font-size="14" fill="#ffffff" font-weight="700">Cross-namespace traffic:</text><text x="804.5" y="896" font-family="'JetBrains Mono', 'Fira Code', 'SF Mono', 'Cascadia Code', monospace" font-size="11" fill="#b4f079" opacity="0.7">mTLS enforced by service mesh</text><text x="804.5" y="914" font-family="'JetBrains Mono', 'Fira Code', 'SF Mono', 'Cascadia Code', monospace" font-size="11" fill="#b4f079" opacity="0.7">NetworkPolicy whitelists</text>
<text x="1899.2" y="559" font-family="'Inter', 'Helvetica Neue', Arial, sans-serif" font-size="14" fill="#ffffff" font-weight="700">Data isolation:</text><text x="1899.2" y="577" font-family="'JetBrains Mono', 'Fira Code', 'SF Mono', 'Cascadia Code', monospace" font-size="11" fill="#b4f079" opacity="0.7">namespace boundary enforces</text><text x="1899.2" y="595" font-family="'JetBrains Mono', 'Fira Code', 'SF Mono', 'Cascadia Code', monospace" font-size="11" fill="#b4f079" opacity="0.7">RBAC + resource quotas</text>
<text x="1899.2" y="639" font-family="'Inter', 'Helvetica Neue', Arial, sans-serif" font-size="14" fill="#ffffff" font-weight="700">4 separate namespaces:</text><text x="1899.2" y="657" font-family="'JetBrains Mono', 'Fira Code', 'SF Mono', 'Cascadia Code', monospace" font-size="11" fill="#b4f079" opacity="0.7">ingress, app, data, monitoring</text><text x="1899.2" y="675" font-family="'JetBrains Mono', 'Fira Code', 'SF Mono', 'Cascadia Code', monospace" font-size="11" fill="#b4f079" opacity="0.7">22 nodes, 30+ edges</text>
<text x="1899.2" y="719" font-family="'Inter', 'Helvetica Neue', Arial, sans-serif" font-size="14" fill="#ffffff" font-weight="700">HPA scales pods:</text><text x="1899.2" y="737" font-family="'JetBrains Mono', 'Fira Code', 'SF Mono', 'Cascadia Code', monospace" font-size="11" fill="#b4f079" opacity="0.7">CPU &gt; 70% triggers scale-up</text><text x="1899.2" y="755" font-family="'JetBrains Mono', 'Fira Code', 'SF Mono', 'Cascadia Code', monospace" font-size="11" fill="#b4f079" opacity="0.7">min/max bounds per deployment</text>
</g>
</svg>