<svg xmlns="http://www.w3.org/2000/svg" viewBox="0 0 553.8 305.5" width="553.8" height="305.5">
<defs>
  <pattern id="dotgrid" width="8" height="8" patternUnits="userSpaceOnUse">
    <rect width="8" height="8" fill="#000000"/>
    <circle cx="4" cy="4" r="0.8" fill="#b4f079" opacity="0.7"/>
  </pattern>
  <pattern id="crosshatch" width="8" height="8" patternUnits="userSpaceOnUse">
    <rect width="8" height="8" fill="#000000"/>
    <path d="M0 8L8 0M-1 1L1 -1M7 9L9 7" stroke="#b4f079" stroke-width="0.8" opacity="0.2"/>
  </pattern>
  <pattern id="hero" width="6" height="6" patternUnits="userSpaceOnUse">
    <rect width="6" height="6" fill="#3d6b23"/>
    <circle cx="3" cy="3" r="0.6" fill="#5a9a35" opacity="0.5"/>
  </pattern>
  <marker id="arrowhead" markerWidth="10" markerHeight="7" refX="9" refY="3.5" orient="auto" markerUnits="strokeWidth">
    <polygon points="0 0, 10 3.5, 0 7" fill="#b4f079"/>
  </marker>
  <marker id="arrowhead-reverse" markerWidth="10" markerHeight="7" refX="1" refY="3.5" orient="auto" markerUnits="strokeWidth">
    <polygon points="10 0, 0 3.5, 10 7" fill="#b4f079"/>
  </marker>
</defs>
<rect width="100%" height="100%" fill="#000000"/>
<g class="diagram">
<text x="30" y="34" font-family="'Inter', 'Helvetica Neue', Arial, sans-serif" font-size="18" fill="#ffffff" font-weight="700">Language models use tools</text>
<rect x="140" y="68" width="177" height="204" rx="12" fill="url(#crosshatch)" stroke="#b4f079" stroke-width="1.5" opacity="0.5"/><rect x="140" y="68" width="177" height="204" rx="12" fill="none" stroke="#b4f079" stroke-width="1.5" opacity="0.4"/><text x="228.5" y="94" font-family="'Inter', 'Helvetica Neue', Arial, sans-serif" font-size="14" fill="#ffffff" opacity="0.9" text-anchor="middle">Tools</text>
<line x1="114" y1="165.63636363636363" x2="189" y2="138.36363636363637" stroke="#b4f079" stroke-width="1.5" marker-end="url(#arrowhead)"/>
<line x1="114" y1="180" x2="175" y2="180" stroke="#b4f079" stroke-width="1.5" marker-end="url(#arrowhead)"/>
<line x1="114" y1="194.36363636363637" x2="173.5" y2="216" stroke="#b4f079" stroke-width="1.5" marker-end="url(#arrowhead)"/>
<line x1="268" y1="119.31620553359684" x2="366.1" y2="107.68379446640316" stroke="#b4f079" stroke-width="1.5" marker-end="url(#arrowhead)"/>
<line x1="282" y1="180" x2="346.29999999999995" y2="180" stroke="#b4f079" stroke-width="1.5" marker-end="url(#arrowhead)"/>
<line x1="301" y1="244.59683794466403" x2="343" y2="249.57707509881422" stroke="#b4f079" stroke-width="1.5" marker-end="url(#arrowhead)"/>

<rect x="35" y="160" width="79" height="40" rx="12" fill="url(#dotgrid)" stroke="#b4f079" stroke-width="1.5"/><text x="74.5" y="180" font-family="'JetBrains Mono', 'Fira Code', 'SF Mono', 'Cascadia Code', monospace" font-size="13" fill="#b4f079" text-anchor="middle" dominant-baseline="central" letter-spacing="0.12em">MODEL</text>
<rect x="189" y="104" width="79" height="40" rx="12" fill="none" stroke="#b4f079" stroke-width="2"/><rect x="194" y="109" width="69" height="30" rx="8" fill="transparent" stroke="#b4f079" stroke-width="1"/><text x="228.5" y="124" font-family="'JetBrains Mono', 'Fira Code', 'SF Mono', 'Cascadia Code', monospace" font-size="13" fill="#b4f079" text-anchor="middle" dominant-baseline="central" letter-spacing="0.12em">SHELL</text>
<rect x="175" y="160" width="107" height="40" rx="12" fill="none" stroke="#b4f079" stroke-width="2"/><rect x="180" y="165" width="97" height="30" rx="8" fill="transparent" stroke="#b4f079" stroke-width="1"/><text x="228.5" y="180" font-family="'JetBrains Mono', 'Fira Code', 'SF Mono', 'Cascadia Code', monospace" font-size="13" fill="#b4f079" text-anchor="middle" dominant-baseline="central" letter-spacing="0.12em">FUNCTION</text>
<rect x="156" y="216" width="145" height="40" rx="12" fill="none" stroke="#b4f079" stroke-width="2"/><rect x="161" y="221" width="135" height="30" rx="8" fill="transparent" stroke="#b4f079" stroke-width="1"/><text x="228.5" y="236" font-family="'JetBrains Mono', 'Fira Code', 'SF Mono', 'Cascadia Code', monospace" font-size="13" fill="#b4f079" text-anchor="middle" dominant-baseline="central" letter-spacing="0.12em">COMPUTER USE</text>

<text x="366.1" y="85.5" font-family="'JetBrains Mono', 'Fira Code', 'SF Mono', 'Cascadia Code', monospace" font-size="13" fill="#b4f079" font-weight="700" letter-spacing="0.12em">COMMAND</text><text x="370.1" y="101.5" font-family="'JetBrains Mono', 'Fira Code', 'SF Mono', 'Cascadia Code', monospace" font-size="11" fill="#b4f079" opacity="0.7">ls -l /home/user</text>
<text x="346.3" y="156.5" font-family="'JetBrains Mono', 'Fira Code', 'SF Mono', 'Cascadia Code', monospace" font-size="13" fill="#b4f079" font-weight="700" letter-spacing="0.12em">JSON</text><text x="350.3" y="172.5" font-family="'JetBrains Mono', 'Fira Code', 'SF Mono', 'Cascadia Code', monospace" font-size="11" fill="#b4f079" opacity="0.7">{&quot;name&quot;:&quot;get_weather&quot;,</text><text x="350.3" y="190.5" font-family="'JetBrains Mono', 'Fira Code', 'SF Mono', 'Cascadia Code', monospace" font-size="11" fill="#b4f079" opacity="0.7">&quot;description&quot;:&quot;...&quot;}</text>
<text x="343" y="245.5" font-family="'JetBrains Mono', 'Fira Code', 'SF Mono', 'Cascadia Code', monospace" font-size="13" fill="#b4f079" font-weight="700" letter-spacing="0.12em">ACTION</text><text x="347" y="261.5" font-family="'JetBrains Mono', 'Fira Code', 'SF Mono', 'Cascadia Code', monospace" font-size="11" fill="#b4f079" opacity="0.7">click(&quot;left&quot;, 100, 200)</text>
<circle cx="216.5" cy="152" r="3" fill="#b4f079"/><circle cx="228.5" cy="152" r="3" fill="#b4f079"/><circle cx="240.5" cy="152" r="3" fill="#b4f079"/>
</g>
</svg>