<svg xmlns="http://www.w3.org/2000/svg" viewBox="0 0 1224 940" width="1224" height="940">
<defs>
  <pattern id="dotgrid" width="8" height="8" patternUnits="userSpaceOnUse">
    <rect width="8" height="8" fill="#000000"/>
    <circle cx="4" cy="4" r="0.8" fill="#b4f079" opacity="0.7"/>
  </pattern>
  <pattern id="crosshatch" width="8" height="8" patternUnits="userSpaceOnUse">
    <rect width="8" height="8" fill="#000000"/>
    <path d="M0 8L8 0M-1 1L1 -1M7 9L9 7" stroke="#b4f079" stroke-width="0.8" opacity="0.2"/>
  </pattern>
  <pattern id="hero" width="6" height="6" patternUnits="userSpaceOnUse">
    <rect width="6" height="6" fill="#3d6b23"/>
    <circle cx="3" cy="3" r="0.6" fill="#5a9a35" opacity="0.5"/>
  </pattern>
  <marker id="arrowhead" markerWidth="10" markerHeight="7" refX="9" refY="3.5" orient="auto" markerUnits="strokeWidth">
    <polygon points="0 0, 10 3.5, 0 7" fill="#b4f079"/>
  </marker>
  <marker id="arrowhead-reverse" markerWidth="10" markerHeight="7" refX="1" refY="3.5" orient="auto" markerUnits="strokeWidth">
    <polygon points="10 0, 0 3.5, 10 7" fill="#b4f079"/>
  </marker>
</defs>
<rect width="100%" height="100%" fill="#000000"/>
<g class="diagram">
<text x="30" y="34" font-family="'Inter', 'Helvetica Neue', Arial, sans-serif" font-size="15" fill="#ffffff" font-weight="700">Incident response runbook: escalation paths and communication channels</text>
<line x1="612" y1="156" x2="612" y2="156" stroke="#b4f079" stroke-width="1.5" marker-end="url(#arrowhead)"/><rect x="564" y="141" width="96" height="20" rx="4" fill="#000000" opacity="0.9"/><text x="612" y="156" font-family="'JetBrains Mono', 'Fira Code', 'SF Mono', 'Cascadia Code', monospace" font-size="12" fill="#b4f079" opacity="0.85" text-anchor="middle">Page on-call</text>
<line x1="612" y1="212" x2="612" y2="338" stroke="#b4f079" stroke-width="1.5" marker-end="url(#arrowhead)"/><rect x="553.5" y="260" width="117" height="20" rx="4" fill="#000000" opacity="0.9"/><text x="612" y="275" font-family="'JetBrains Mono', 'Fira Code', 'SF Mono', 'Cascadia Code', monospace" font-size="12" fill="#b4f079" opacity="0.85" text-anchor="middle">Assess severity</text>
<line x1="612" y1="212" x2="612" y2="508" stroke="#b4f079" stroke-width="1.5" marker-end="url(#arrowhead)"/><rect x="553.5" y="345" width="117" height="20" rx="4" fill="#000000" opacity="0.9"/><text x="612" y="360" font-family="'JetBrains Mono', 'Fira Code', 'SF Mono', 'Cascadia Code', monospace" font-size="12" fill="#b4f079" opacity="0.85" text-anchor="middle">Execute runbook</text>
<line x1="612" y1="212" x2="612" y2="710" stroke="#b4f079" stroke-width="1.5" marker-end="url(#arrowhead)"/><rect x="567.5" y="446" width="89" height="20" rx="4" fill="#000000" opacity="0.9"/><text x="612" y="461" font-family="'JetBrains Mono', 'Fira Code', 'SF Mono', 'Cascadia Code', monospace" font-size="12" fill="#b4f079" opacity="0.85" text-anchor="middle">Draft comms</text>
<line x1="612" y1="212" x2="612" y2="212" stroke="#b4f079" stroke-width="1.5" marker-end="url(#arrowhead)"/><rect x="550" y="197" width="124" height="20" rx="4" fill="#000000" opacity="0.9"/><text x="612" y="212" font-family="'JetBrains Mono', 'Fira Code', 'SF Mono', 'Cascadia Code', monospace" font-size="12" fill="#b4f079" opacity="0.85" text-anchor="middle">After resolution</text>
<line x1="612" y1="508" x2="612" y2="508" stroke="#b4f079" stroke-width="1.5" marker-end="url(#arrowhead)"/>
<line x1="612" y1="0" x2="612" y2="100" stroke="#b4f079" stroke-width="1.5" marker-end="url(#arrowhead)"/><text x="612" y="-18" font-family="'Inter', 'Helvetica Neue', Arial, sans-serif" font-size="12" fill="#ffffff" opacity="0.8" text-anchor="start">Automated monitoring</text><text x="612" y="-2" font-family="'Inter', 'Helvetica Neue', Arial, sans-serif" font-size="12" fill="#ffffff" opacity="0.8" text-anchor="start">triggers</text>
<line x1="413.5" y1="128" x2="513.5" y2="128" stroke="#b4f079" stroke-width="1.5" marker-end="url(#arrowhead)"/><text x="403.5" y="120" font-family="'Inter', 'Helvetica Neue', Arial, sans-serif" font-size="12" fill="#ffffff" opacity="0.8" text-anchor="start">Manual trigger via</text><text x="403.5" y="136" font-family="'Inter', 'Helvetica Neue', Arial, sans-serif" font-size="12" fill="#ffffff" opacity="0.8" text-anchor="start">/incident</text>
<line x1="810.5" y1="128" x2="710.5" y2="128" stroke="#b4f079" stroke-width="1.5" marker-end="url(#arrowhead)"/><text x="820.5" y="120" font-family="'Inter', 'Helvetica Neue', Arial, sans-serif" font-size="12" fill="#ffffff" opacity="0.8" text-anchor="start">External customer</text><text x="820.5" y="136" font-family="'Inter', 'Helvetica Neue', Arial, sans-serif" font-size="12" fill="#ffffff" opacity="0.8" text-anchor="start">report</text>
<line x1="612" y1="256" x2="612" y2="156" stroke="#b4f079" stroke-width="1.5" marker-end="url(#arrowhead)"/><text x="612" y="327.1853566169739" font-family="'Inter', 'Helvetica Neue', Arial, sans-serif" font-size="12" fill="#ffffff" opacity="0.8" text-anchor="start">Dependency failure</text><text x="612" y="343.1853566169739" font-family="'Inter', 'Helvetica Neue', Arial, sans-serif" font-size="12" fill="#ffffff" opacity="0.8" text-anchor="start">cascade</text>
<rect x="187" y="338" width="850" height="170" rx="12" fill="url(#dotgrid)" stroke="none" opacity="0.5"/><rect x="187" y="338" width="850" height="170" rx="12" fill="none" stroke="#b4f079" stroke-width="1.5" opacity="0.35"/><rect x="211" y="362" width="190" height="122" rx="10" fill="#111111" stroke="#333333" stroke-width="1"/><g transform="translate(225, 374)"><svg viewBox="0 0 24 24" width="24" height="24" fill="none" stroke="#ffffff" stroke-width="1.5" stroke-linecap="round" stroke-linejoin="round"><path d="M10 13a5 5 0 007.5.5l2-2a5 5 0 00-7-7l-1 1"/><path d="M14 11a5 5 0 00-7.5-.5l-2 2a5 5 0 007 7l1-1"/><line x1="18" y1="2" x2="22" y2="6"/><line x1="2" y1="18" x2="6" y2="22"/></svg></g><text x="257" y="388" font-family="'Inter', 'Helvetica Neue', Arial, sans-serif" font-size="13" fill="#ffffff" font-weight="600">SEV-1: Critical</text><text x="257" y="406" font-family="'Inter', 'Helvetica Neue', Arial, sans-serif" font-size="11" fill="#ffffff" opacity="0.7">Revenue impact &gt; $10K/min</text><text x="257" y="422" font-family="'Inter', 'Helvetica Neue', Arial, sans-serif" font-size="11" fill="#ffffff" opacity="0.7">All hands on deck</text><text x="257" y="438" font-family="'Inter', 'Helvetica Neue', Arial, sans-serif" font-size="11" fill="#ffffff" opacity="0.7">Exec notification</text><text x="257" y="454" font-family="'Inter', 'Helvetica Neue', Arial, sans-serif" font-size="11" fill="#ffffff" opacity="0.7">Statuspage: Major outage</text><rect x="415" y="362" width="190" height="122" rx="10" fill="#111111" stroke="#333333" stroke-width="1"/><g transform="translate(429, 374)"><svg viewBox="0 0 24 24" width="24" height="24" fill="none" stroke="#ffffff" stroke-width="1.5" stroke-linecap="round" stroke-linejoin="round"><path d="M10 13a5 5 0 007.5.5l2-2a5 5 0 00-7-7l-1 1"/><path d="M14 11a5 5 0 00-7.5-.5l-2 2a5 5 0 007 7l1-1"/><line x1="18" y1="2" x2="22" y2="6"/><line x1="2" y1="18" x2="6" y2="22"/></svg></g><text x="461" y="388" font-family="'Inter', 'Helvetica Neue', Arial, sans-serif" font-size="13" fill="#ffffff" font-weight="600">SEV-2: Major</text><text x="461" y="406" font-family="'Inter', 'Helvetica Neue', Arial, sans-serif" font-size="11" fill="#ffffff" opacity="0.7">Feature degraded</text><text x="461" y="422" font-family="'Inter', 'Helvetica Neue', Arial, sans-serif" font-size="11" fill="#ffffff" opacity="0.7">On-call + backup</text><text x="461" y="438" font-family="'Inter', 'Helvetica Neue', Arial, sans-serif" font-size="11" fill="#ffffff" opacity="0.7">30 min SLA to bridge</text><text x="461" y="454" font-family="'Inter', 'Helvetica Neue', Arial, sans-serif" font-size="11" fill="#ffffff" opacity="0.7">Statuspage: Partial outage</text><rect x="619" y="362" width="190" height="122" rx="10" fill="#111111" stroke="#333333" stroke-width="1"/><g transform="translate(633, 374)"><svg viewBox="0 0 24 24" width="24" height="24" fill="none" stroke="#ffffff" stroke-width="1.5" stroke-linecap="round" stroke-linejoin="round"><path d="M14 2H6a2 2 0 00-2 2v16a2 2 0 002 2h12a2 2 0 002-2V8z"/><polyline points="14 2 14 8 20 8"/><line x1="9" y1="13" x2="15" y2="13"/><line x1="9" y1="17" x2="13" y2="17"/></svg></g><text x="665" y="388" font-family="'Inter', 'Helvetica Neue', Arial, sans-serif" font-size="13" fill="#ffffff" font-weight="600">SEV-3: Minor</text><text x="665" y="406" font-family="'Inter', 'Helvetica Neue', Arial, sans-serif" font-size="11" fill="#ffffff" opacity="0.7">Non-critical impact</text><text x="665" y="422" font-family="'Inter', 'Helvetica Neue', Arial, sans-serif" font-size="11" fill="#ffffff" opacity="0.7">On-call only</text><text x="665" y="438" font-family="'Inter', 'Helvetica Neue', Arial, sans-serif" font-size="11" fill="#ffffff" opacity="0.7">4 hour SLA</text><text x="665" y="454" font-family="'Inter', 'Helvetica Neue', Arial, sans-serif" font-size="11" fill="#ffffff" opacity="0.7">No status page update</text><rect x="823" y="362" width="190" height="122" rx="10" fill="#111111" stroke="#333333" stroke-width="1"/><g transform="translate(837, 374)"><svg viewBox="0 0 24 24" width="24" height="24" fill="none" stroke="#ffffff" stroke-width="1.5" stroke-linecap="round" stroke-linejoin="round"><path d="M14 2H6a2 2 0 00-2 2v16a2 2 0 002 2h12a2 2 0 002-2V8z"/><polyline points="14 2 14 8 20 8"/><line x1="9" y1="13" x2="15" y2="13"/><line x1="9" y1="17" x2="13" y2="17"/></svg></g><text x="869" y="388" font-family="'Inter', 'Helvetica Neue', Arial, sans-serif" font-size="13" fill="#ffffff" font-weight="600">SEV-4: Low</text><text x="869" y="406" font-family="'Inter', 'Helvetica Neue', Arial, sans-serif" font-size="11" fill="#ffffff" opacity="0.7">Cosmetic or logging</text><text x="869" y="422" font-family="'Inter', 'Helvetica Neue', Arial, sans-serif" font-size="11" fill="#ffffff" opacity="0.7">Next business day</text><text x="869" y="438" font-family="'Inter', 'Helvetica Neue', Arial, sans-serif" font-size="11" fill="#ffffff" opacity="0.7">Ticket-only workflow</text><text x="869" y="454" font-family="'Inter', 'Helvetica Neue', Arial, sans-serif" font-size="11" fill="#ffffff" opacity="0.7">No page required</text>
<rect x="60" y="508" width="1104" height="202" rx="12" fill="url(#dotgrid)" stroke="none" opacity="0.5"/><rect x="60" y="508" width="1104" height="202" rx="12" fill="none" stroke="#b4f079" stroke-width="1.5" opacity="0.35"/><rect x="84" y="532" width="190" height="154" rx="10" fill="#111111" stroke="#333333" stroke-width="1"/><g transform="translate(98, 544)"><svg viewBox="0 0 24 24" width="24" height="24" fill="none" stroke="#ffffff" stroke-width="1.5" stroke-linecap="round" stroke-linejoin="round"><path d="M12 2a5 5 0 014.8 3.6A4 4 0 0120 9.5a4 4 0 01-1.5 7.8A5 5 0 0112 22a5 5 0 01-6.5-4.7A4 4 0 014 9.5a4 4 0 013.2-3.9A5 5 0 0112 2z"/><path d="M12 2v20"/><path d="M8 8h8"/><path d="M7 13h10"/></svg></g><text x="130" y="558" font-family="'Inter', 'Helvetica Neue', Arial, sans-serif" font-size="13" fill="#ffffff" font-weight="600">Triage</text><text x="130" y="576" font-family="'Inter', 'Helvetica Neue', Arial, sans-serif" font-size="11" fill="#ffffff" opacity="0.7">Identify blast radius</text><text x="130" y="592" font-family="'Inter', 'Helvetica Neue', Arial, sans-serif" font-size="11" fill="#ffffff" opacity="0.7">Check dashboards</text><text x="130" y="608" font-family="'Inter', 'Helvetica Neue', Arial, sans-serif" font-size="11" fill="#ffffff" opacity="0.7">Correlate recent deploys</text><text x="130" y="624" font-family="'Inter', 'Helvetica Neue', Arial, sans-serif" font-size="11" fill="#ffffff" opacity="0.7">Estimate time to resolve</text><rect x="288" y="532" width="190" height="154" rx="10" fill="#111111" stroke="#333333" stroke-width="1"/><g transform="translate(302, 544)"><svg viewBox="0 0 24 24" width="24" height="24" fill="none" stroke="#ffffff" stroke-width="1.5" stroke-linecap="round" stroke-linejoin="round"><path d="M12 2a5 5 0 014.8 3.6A4 4 0 0120 9.5a4 4 0 01-1.5 7.8A5 5 0 0112 22a5 5 0 01-6.5-4.7A4 4 0 014 9.5a4 4 0 013.2-3.9A5 5 0 0112 2z"/><path d="M12 2v20"/><path d="M8 8h8"/><path d="M7 13h10"/></svg></g><text x="334" y="558" font-family="'Inter', 'Helvetica Neue', Arial, sans-serif" font-size="13" fill="#ffffff" font-weight="600">Mitigate</text><text x="334" y="576" font-family="'Inter', 'Helvetica Neue', Arial, sans-serif" font-size="11" fill="#ffffff" opacity="0.7">Rollback if deploy-related</text><text x="334" y="592" font-family="'Inter', 'Helvetica Neue', Arial, sans-serif" font-size="11" fill="#ffffff" opacity="0.7">Scale if capacity-related</text><text x="334" y="608" font-family="'Inter', 'Helvetica Neue', Arial, sans-serif" font-size="11" fill="#ffffff" opacity="0.7">Failover if region-related</text><text x="334" y="624" font-family="'Inter', 'Helvetica Neue', Arial, sans-serif" font-size="11" fill="#ffffff" opacity="0.7">Block if security-related</text><rect x="492" y="532" width="190" height="154" rx="10" fill="#111111" stroke="#333333" stroke-width="1"/><g transform="translate(506, 544)"><svg viewBox="0 0 24 24" width="24" height="24" fill="none" stroke="#ffffff" stroke-width="1.5" stroke-linecap="round" stroke-linejoin="round"><circle cx="12" cy="7" r="4"/><path d="M5.5 21a6.5 6.5 0 0113 0"/></svg></g><text x="538" y="558" font-family="'Inter', 'Helvetica Neue', Arial, sans-serif" font-size="13" fill="#ffffff" font-weight="600">Communicate</text><text x="538" y="576" font-family="'Inter', 'Helvetica Neue', Arial, sans-serif" font-size="11" fill="#ffffff" opacity="0.7">Internal: Slack #incidents</text><text x="538" y="592" font-family="'Inter', 'Helvetica Neue', Arial, sans-serif" font-size="11" fill="#ffffff" opacity="0.7">External:</text><text x="538" y="608" font-family="'Inter', 'Helvetica Neue', Arial, sans-serif" font-size="11" fill="#ffffff" opacity="0.7">status.example.com</text><text x="538" y="624" font-family="'Inter', 'Helvetica Neue', Arial, sans-serif" font-size="11" fill="#ffffff" opacity="0.7">Exec: email + SMS</text><text x="538" y="640" font-family="'Inter', 'Helvetica Neue', Arial, sans-serif" font-size="11" fill="#ffffff" opacity="0.7">Customer: support ticket</text><text x="538" y="656" font-family="'Inter', 'Helvetica Neue', Arial, sans-serif" font-size="11" fill="#ffffff" opacity="0.7">update</text><rect x="696" y="532" width="190" height="154" rx="10" fill="#111111" stroke="#333333" stroke-width="1"/><g transform="translate(710, 544)"><svg viewBox="0 0 24 24" width="24" height="24" fill="none" stroke="#ffffff" stroke-width="1.5" stroke-linecap="round" stroke-linejoin="round"><path d="M12 2a5 5 0 014.8 3.6A4 4 0 0120 9.5a4 4 0 01-1.5 7.8A5 5 0 0112 22a5 5 0 01-6.5-4.7A4 4 0 014 9.5a4 4 0 013.2-3.9A5 5 0 0112 2z"/><path d="M12 2v20"/><path d="M8 8h8"/><path d="M7 13h10"/></svg></g><text x="742" y="558" font-family="'Inter', 'Helvetica Neue', Arial, sans-serif" font-size="13" fill="#ffffff" font-weight="600">Resolve</text><text x="742" y="576" font-family="'Inter', 'Helvetica Neue', Arial, sans-serif" font-size="11" fill="#ffffff" opacity="0.7">Root cause identified</text><text x="742" y="592" font-family="'Inter', 'Helvetica Neue', Arial, sans-serif" font-size="11" fill="#ffffff" opacity="0.7">Fix deployed and verified</text><text x="742" y="608" font-family="'Inter', 'Helvetica Neue', Arial, sans-serif" font-size="11" fill="#ffffff" opacity="0.7">Monitoring confirms</text><text x="742" y="624" font-family="'Inter', 'Helvetica Neue', Arial, sans-serif" font-size="11" fill="#ffffff" opacity="0.7">recovery</text><text x="742" y="640" font-family="'Inter', 'Helvetica Neue', Arial, sans-serif" font-size="11" fill="#ffffff" opacity="0.7">All-clear announcement</text><rect x="900" y="532" width="190" height="154" rx="10" fill="#111111" stroke="#333333" stroke-width="1"/><g transform="translate(914, 544)"><svg viewBox="0 0 24 24" width="24" height="24" fill="none" stroke="#ffffff" stroke-width="1.5" stroke-linecap="round" stroke-linejoin="round"><path d="M14 2H6a2 2 0 00-2 2v16a2 2 0 002 2h12a2 2 0 002-2V8z"/><polyline points="14 2 14 8 20 8"/><line x1="9" y1="13" x2="15" y2="13"/><line x1="9" y1="17" x2="13" y2="17"/></svg></g><text x="946" y="558" font-family="'Inter', 'Helvetica Neue', Arial, sans-serif" font-size="13" fill="#ffffff" font-weight="600">Review</text><text x="946" y="576" font-family="'Inter', 'Helvetica Neue', Arial, sans-serif" font-size="11" fill="#ffffff" opacity="0.7">Postmortem within 48h</text><text x="946" y="592" font-family="'Inter', 'Helvetica Neue', Arial, sans-serif" font-size="11" fill="#ffffff" opacity="0.7">5 Whys analysis</text><text x="946" y="608" font-family="'Inter', 'Helvetica Neue', Arial, sans-serif" font-size="11" fill="#ffffff" opacity="0.7">Action items assigned</text><text x="946" y="624" font-family="'Inter', 'Helvetica Neue', Arial, sans-serif" font-size="11" fill="#ffffff" opacity="0.7">Process improvements</text><text x="946" y="640" font-family="'Inter', 'Helvetica Neue', Arial, sans-serif" font-size="11" fill="#ffffff" opacity="0.7">logged</text><circle cx="1106" cy="609" r="3" fill="#ffffff" opacity="0.5"/><circle cx="1114" cy="609" r="3" fill="#ffffff" opacity="0.5"/><circle cx="1122" cy="609" r="3" fill="#ffffff" opacity="0.5"/>
<rect x="289" y="710" width="646" height="170" rx="12" fill="url(#crosshatch)" stroke="none" opacity="0.5"/><rect x="289" y="710" width="646" height="170" rx="12" fill="none" stroke="#b4f079" stroke-width="1.5" opacity="0.35"/><rect x="313" y="734" width="190" height="122" rx="10" fill="#111111" stroke="#333333" stroke-width="1"/><g transform="translate(327, 746)"><svg viewBox="0 0 24 24" width="24" height="24" fill="none" stroke="#ffffff" stroke-width="1.5" stroke-linecap="round" stroke-linejoin="round"><path d="M14 2H6a2 2 0 00-2 2v16a2 2 0 002 2h12a2 2 0 002-2V8z"/><polyline points="14 2 14 8 20 8"/><line x1="9" y1="13" x2="15" y2="13"/><line x1="9" y1="17" x2="13" y2="17"/></svg></g><text x="359" y="760" font-family="'Inter', 'Helvetica Neue', Arial, sans-serif" font-size="13" fill="#ffffff" font-weight="600">Initial Alert</text><text x="359" y="778" font-family="'Inter', 'Helvetica Neue', Arial, sans-serif" font-size="11" fill="#ffffff" opacity="0.7">What: brief description</text><text x="359" y="794" font-family="'Inter', 'Helvetica Neue', Arial, sans-serif" font-size="11" fill="#ffffff" opacity="0.7">Impact: who is affected</text><text x="359" y="810" font-family="'Inter', 'Helvetica Neue', Arial, sans-serif" font-size="11" fill="#ffffff" opacity="0.7">Status: investigating</text><text x="359" y="826" font-family="'Inter', 'Helvetica Neue', Arial, sans-serif" font-size="11" fill="#ffffff" opacity="0.7">Next update: 30 min</text><rect x="517" y="734" width="190" height="122" rx="10" fill="#111111" stroke="#333333" stroke-width="1"/><g transform="translate(531, 746)"><svg viewBox="0 0 24 24" width="24" height="24" fill="none" stroke="#ffffff" stroke-width="1.5" stroke-linecap="round" stroke-linejoin="round"><path d="M14 2H6a2 2 0 00-2 2v16a2 2 0 002 2h12a2 2 0 002-2V8z"/><polyline points="14 2 14 8 20 8"/><line x1="9" y1="13" x2="15" y2="13"/><line x1="9" y1="17" x2="13" y2="17"/></svg></g><text x="563" y="760" font-family="'Inter', 'Helvetica Neue', Arial, sans-serif" font-size="13" fill="#ffffff" font-weight="600">Update</text><text x="563" y="778" font-family="'Inter', 'Helvetica Neue', Arial, sans-serif" font-size="11" fill="#ffffff" opacity="0.7">What changed: progress</text><text x="563" y="794" font-family="'Inter', 'Helvetica Neue', Arial, sans-serif" font-size="11" fill="#ffffff" opacity="0.7">Current status: mitigating</text><text x="563" y="810" font-family="'Inter', 'Helvetica Neue', Arial, sans-serif" font-size="11" fill="#ffffff" opacity="0.7">ETA: if known</text><text x="563" y="826" font-family="'Inter', 'Helvetica Neue', Arial, sans-serif" font-size="11" fill="#ffffff" opacity="0.7">Next update: 30 min</text><rect x="721" y="734" width="190" height="122" rx="10" fill="#111111" stroke="#333333" stroke-width="1"/><g transform="translate(735, 746)"><svg viewBox="0 0 24 24" width="24" height="24" fill="none" stroke="#ffffff" stroke-width="1.5" stroke-linecap="round" stroke-linejoin="round"><path d="M14 2H6a2 2 0 00-2 2v16a2 2 0 002 2h12a2 2 0 002-2V8z"/><polyline points="14 2 14 8 20 8"/><line x1="9" y1="13" x2="15" y2="13"/><line x1="9" y1="17" x2="13" y2="17"/></svg></g><text x="767" y="760" font-family="'Inter', 'Helvetica Neue', Arial, sans-serif" font-size="13" fill="#ffffff" font-weight="600">Resolution</text><text x="767" y="778" font-family="'Inter', 'Helvetica Neue', Arial, sans-serif" font-size="11" fill="#ffffff" opacity="0.7">Resolved: timestamp</text><text x="767" y="794" font-family="'Inter', 'Helvetica Neue', Arial, sans-serif" font-size="11" fill="#ffffff" opacity="0.7">Root cause: brief</text><text x="767" y="810" font-family="'Inter', 'Helvetica Neue', Arial, sans-serif" font-size="11" fill="#ffffff" opacity="0.7">Duration: total time</text><text x="767" y="826" font-family="'Inter', 'Helvetica Neue', Arial, sans-serif" font-size="11" fill="#ffffff" opacity="0.7">Postmortem: link</text>
<rect x="513.5" y="100" width="197" height="56" rx="12" fill="url(#hero)" stroke="#b4f079" stroke-width="1.5"/><text x="612" y="128" font-family="'JetBrains Mono', 'Fira Code', 'SF Mono', 'Cascadia Code', monospace" font-size="13" fill="#b4f079" text-anchor="middle" dominant-baseline="central" letter-spacing="0.12em">PAGERDUTY ALERT</text>
<rect x="499.5" y="156" width="225" height="56" rx="12" fill="url(#hero)" stroke="#b4f079" stroke-width="1.5"/><text x="612" y="184" font-family="'JetBrains Mono', 'Fira Code', 'SF Mono', 'Cascadia Code', monospace" font-size="13" fill="#b4f079" text-anchor="middle" dominant-baseline="central" letter-spacing="0.12em">INCIDENT COMMANDER</text>
<rect x="509" y="212" width="206" height="56" rx="12" fill="url(#crosshatch)" stroke="#b4f079" stroke-width="1.5"/><text x="612" y="240" font-family="'JetBrains Mono', 'Fira Code', 'SF Mono', 'Cascadia Code', monospace" font-size="13" fill="#b4f079" text-anchor="middle" dominant-baseline="central" letter-spacing="0.12em">POSTMORTEM BOARD</text>
<line x1="612" y1="212" x2="612" y2="242" stroke="#b4f079" stroke-width="1.5" opacity="0.5"/><g transform="translate(481.43, 173.98315793275833)"><svg viewBox="0 0 24 24" width="24" height="24" fill="none" stroke="#ffffff" stroke-width="1.5" stroke-linecap="round" stroke-linejoin="round"><circle cx="12" cy="7" r="4"/><path d="M5.5 21a6.5 6.5 0 0113 0"/></svg></g><text x="511.43" y="187.98315793275833" font-family="'Inter', 'Helvetica Neue', Arial, sans-serif" font-size="14" fill="#ffffff" opacity="0.85">On-call rotation: weekly, follows the sun</text>
<line x1="612" y1="212" x2="612" y2="242" stroke="#b4f079" stroke-width="1.5" opacity="0.5"/><g transform="translate(493.26, 293.0385836362839)"><svg viewBox="0 0 24 24" width="24" height="24" fill="none" stroke="#ffffff" stroke-width="1.5" stroke-linecap="round" stroke-linejoin="round"><path d="M12 2a5 5 0 014.8 3.6A4 4 0 0120 9.5a4 4 0 01-1.5 7.8A5 5 0 0112 22a5 5 0 01-6.5-4.7A4 4 0 014 9.5a4 4 0 013.2-3.9A5 5 0 0112 2z"/><path d="M12 2v20"/><path d="M8 8h8"/><path d="M7 13h10"/></svg></g><text x="523.26" y="307.0385836362839" font-family="'Inter', 'Helvetica Neue', Arial, sans-serif" font-size="14" fill="#ffffff" opacity="0.85">War room: Zoom bridge auto-created</text>
<line x1="612" y1="212" x2="612" y2="242" stroke="#b4f079" stroke-width="1.5" opacity="0.5"/><g transform="translate(499.98, 203.0075481235981)"><svg viewBox="0 0 24 24" width="24" height="24" fill="none" stroke="#ffffff" stroke-width="1.5" stroke-linecap="round" stroke-linejoin="round"><path d="M14 2H6a2 2 0 00-2 2v16a2 2 0 002 2h12a2 2 0 002-2V8z"/><polyline points="14 2 14 8 20 8"/><line x1="9" y1="13" x2="15" y2="13"/><line x1="9" y1="17" x2="13" y2="17"/></svg></g><text x="529.98" y="217.0075481235981" font-family="'Inter', 'Helvetica Neue', Arial, sans-serif" font-size="14" fill="#ffffff" opacity="0.85">Status page: auto-updated via API</text>
<line x1="612" y1="212" x2="612" y2="242" stroke="#b4f079" stroke-width="1.5" opacity="0.5"/><g transform="translate(470.37, 235.0075481235981)"><svg viewBox="0 0 24 24" width="24" height="24" fill="none" stroke="#ffffff" stroke-width="1.5" stroke-linecap="round" stroke-linejoin="round"><path d="M14 2H6a2 2 0 00-2 2v16a2 2 0 002 2h12a2 2 0 002-2V8z"/><polyline points="14 2 14 8 20 8"/><line x1="9" y1="13" x2="15" y2="13"/><line x1="9" y1="17" x2="13" y2="17"/></svg></g><text x="500.37" y="249.0075481235981" font-family="'Inter', 'Helvetica Neue', Arial, sans-serif" font-size="14" fill="#ffffff" opacity="0.85">Timeline: all actions logged with timestamps</text>
<line x1="612" y1="268" x2="612" y2="298" stroke="#b4f079" stroke-width="1.5" opacity="0.5"/><g transform="translate(459.44999999999993, 349.74586725234985)"><svg viewBox="0 0 24 24" width="24" height="24" fill="none" stroke="#ffffff" stroke-width="1.5" stroke-linecap="round" stroke-linejoin="round"><circle cx="12" cy="7" r="4"/><path d="M5.5 21a6.5 6.5 0 0113 0"/></svg></g><text x="489.44999999999993" y="363.74586725234985" font-family="'Inter', 'Helvetica Neue', Arial, sans-serif" font-size="14" fill="#ffffff" opacity="0.85">Blameless culture: focus on systems, not people</text>
<line x1="612" y1="268" x2="612" y2="298" stroke="#b4f079" stroke-width="1.5" opacity="0.5"/><g transform="translate(484.93000000000006, 264.03193831443787)"><svg viewBox="0 0 24 24" width="24" height="24" fill="none" stroke="#ffffff" stroke-width="1.5" stroke-linecap="round" stroke-linejoin="round"><path d="M14 2H6a2 2 0 00-2 2v16a2 2 0 002 2h12a2 2 0 002-2V8z"/><polyline points="14 2 14 8 20 8"/><line x1="9" y1="13" x2="15" y2="13"/><line x1="9" y1="17" x2="13" y2="17"/></svg></g><text x="514.9300000000001" y="278.03193831443787" font-family="'Inter', 'Helvetica Neue', Arial, sans-serif" font-size="14" fill="#ffffff" opacity="0.85">Action items tracked in Linear with SLA</text>
</g>
</svg>