<svg xmlns="http://www.w3.org/2000/svg" viewBox="0 0 1249 1056" width="1249" height="1056">
<defs>
  <pattern id="dotgrid" width="8" height="8" patternUnits="userSpaceOnUse">
    <rect width="8" height="8" fill="#000000"/>
    <circle cx="4" cy="4" r="0.8" fill="#b4f079" opacity="0.7"/>
  </pattern>
  <pattern id="crosshatch" width="8" height="8" patternUnits="userSpaceOnUse">
    <rect width="8" height="8" fill="#000000"/>
    <path d="M0 8L8 0M-1 1L1 -1M7 9L9 7" stroke="#b4f079" stroke-width="0.8" opacity="0.2"/>
  </pattern>
  <pattern id="hero" width="6" height="6" patternUnits="userSpaceOnUse">
    <rect width="6" height="6" fill="#3d6b23"/>
    <circle cx="3" cy="3" r="0.6" fill="#5a9a35" opacity="0.5"/>
  </pattern>
  <marker id="arrowhead" markerWidth="10" markerHeight="7" refX="9" refY="3.5" orient="auto" markerUnits="strokeWidth">
    <polygon points="0 0, 10 3.5, 0 7" fill="#b4f079"/>
  </marker>
  <marker id="arrowhead-reverse" markerWidth="10" markerHeight="7" refX="1" refY="3.5" orient="auto" markerUnits="strokeWidth">
    <polygon points="10 0, 0 3.5, 10 7" fill="#b4f079"/>
  </marker>
</defs>
<rect width="100%" height="100%" fill="#000000"/>
<g class="diagram">
<text x="30" y="34" font-family="'Inter', 'Helvetica Neue', Arial, sans-serif" font-size="15" fill="#ffffff" font-weight="700">Platform observability dashboard: metrics, logs, traces, alerts, and SLOs</text>
<line x1="624.5" y1="156" x2="624.5" y2="226" stroke="#b4f079" stroke-width="1.5" marker-end="url(#arrowhead)"/>
<line x1="624.5" y1="156" x2="624.5" y2="380" stroke="#b4f079" stroke-width="1.5" marker-end="url(#arrowhead)"/>
<line x1="624.5" y1="156" x2="624.5" y2="534" stroke="#b4f079" stroke-width="1.5" marker-end="url(#arrowhead)"/>
<line x1="624.5" y1="156" x2="624.5" y2="688" stroke="#b4f079" stroke-width="1.5" marker-end="url(#arrowhead)"/>
<line x1="624.5" y1="156" x2="624.5" y2="842" stroke="#b4f079" stroke-width="1.5" marker-end="url(#arrowhead)"/>
<line x1="624.5" y1="0" x2="624.5" y2="100" stroke="#b4f079" stroke-width="1.5" marker-end="url(#arrowhead)"/><text x="624.5" y="-10" font-family="'Inter', 'Helvetica Neue', Arial, sans-serif" font-size="12" fill="#ffffff" opacity="0.8" text-anchor="start">All engineering teams</text>
<line x1="445" y1="128" x2="545" y2="128" stroke="#b4f079" stroke-width="1.5" marker-end="url(#arrowhead)"/><text x="435" y="128" font-family="'Inter', 'Helvetica Neue', Arial, sans-serif" font-size="12" fill="#ffffff" opacity="0.8" text-anchor="start">On-call rotation</text>
<line x1="804" y1="128" x2="704" y2="128" stroke="#b4f079" stroke-width="1.5" marker-end="url(#arrowhead)"/><text x="814" y="128" font-family="'Inter', 'Helvetica Neue', Arial, sans-serif" font-size="12" fill="#ffffff" opacity="0.8" text-anchor="start">Executive stakeholders</text>
<rect x="60" y="226" width="1129" height="154" rx="12" fill="url(#dotgrid)" stroke="none" opacity="0.5"/><rect x="60" y="226" width="1129" height="154" rx="12" fill="none" stroke="#b4f079" stroke-width="1.5" opacity="0.35"/><rect x="84" y="250" width="190" height="106" rx="10" fill="#111111" stroke="#333333" stroke-width="1"/><g transform="translate(98, 262)"><svg viewBox="0 0 24 24" width="24" height="24" fill="none" stroke="#ffffff" stroke-width="1.5" stroke-linecap="round" stroke-linejoin="round"><path d="M12 2a5 5 0 014.8 3.6A4 4 0 0120 9.5a4 4 0 01-1.5 7.8A5 5 0 0112 22a5 5 0 01-6.5-4.7A4 4 0 014 9.5a4 4 0 013.2-3.9A5 5 0 0112 2z"/><path d="M12 2v20"/><path d="M8 8h8"/><path d="M7 13h10"/></svg></g><text x="130" y="276" font-family="'Inter', 'Helvetica Neue', Arial, sans-serif" font-size="13" fill="#ffffff" font-weight="600">CPU Utilization</text><text x="130" y="294" font-family="'Inter', 'Helvetica Neue', Arial, sans-serif" font-size="11" fill="#ffffff" opacity="0.7">Per-node heatmap</text><text x="130" y="310" font-family="'Inter', 'Helvetica Neue', Arial, sans-serif" font-size="11" fill="#ffffff" opacity="0.7">P99 threshold: 80%</text><text x="130" y="326" font-family="'Inter', 'Helvetica Neue', Arial, sans-serif" font-size="11" fill="#ffffff" opacity="0.7">Alert: sustained &gt; 90%</text><rect x="288" y="250" width="190" height="106" rx="10" fill="#111111" stroke="#333333" stroke-width="1"/><g transform="translate(302, 262)"><svg viewBox="0 0 24 24" width="24" height="24" fill="none" stroke="#ffffff" stroke-width="1.5" stroke-linecap="round" stroke-linejoin="round"><path d="M12 2a5 5 0 014.8 3.6A4 4 0 0120 9.5a4 4 0 01-1.5 7.8A5 5 0 0112 22a5 5 0 01-6.5-4.7A4 4 0 014 9.5a4 4 0 013.2-3.9A5 5 0 0112 2z"/><path d="M12 2v20"/><path d="M8 8h8"/><path d="M7 13h10"/></svg></g><text x="334" y="276" font-family="'Inter', 'Helvetica Neue', Arial, sans-serif" font-size="13" fill="#ffffff" font-weight="600">Memory Pressure</text><text x="334" y="294" font-family="'Inter', 'Helvetica Neue', Arial, sans-serif" font-size="11" fill="#ffffff" opacity="0.7">RSS vs available</text><text x="334" y="310" font-family="'Inter', 'Helvetica Neue', Arial, sans-serif" font-size="11" fill="#ffffff" opacity="0.7">OOM kill tracking</text><text x="334" y="326" font-family="'Inter', 'Helvetica Neue', Arial, sans-serif" font-size="11" fill="#ffffff" opacity="0.7">Swap usage trend</text><rect x="492" y="250" width="190" height="106" rx="10" fill="#111111" stroke="#333333" stroke-width="1"/><g transform="translate(506, 262)"><svg viewBox="0 0 24 24" width="24" height="24" fill="none" stroke="#ffffff" stroke-width="1.5" stroke-linecap="round" stroke-linejoin="round"><path d="M14 2H6a2 2 0 00-2 2v16a2 2 0 002 2h12a2 2 0 002-2V8z"/><polyline points="14 2 14 8 20 8"/><line x1="9" y1="13" x2="15" y2="13"/><line x1="9" y1="17" x2="13" y2="17"/></svg></g><text x="538" y="276" font-family="'Inter', 'Helvetica Neue', Arial, sans-serif" font-size="13" fill="#ffffff" font-weight="600">Disk I/O</text><text x="538" y="294" font-family="'Inter', 'Helvetica Neue', Arial, sans-serif" font-size="11" fill="#ffffff" opacity="0.7">IOPS per volume</text><text x="538" y="310" font-family="'Inter', 'Helvetica Neue', Arial, sans-serif" font-size="11" fill="#ffffff" opacity="0.7">Latency percentiles</text><text x="538" y="326" font-family="'Inter', 'Helvetica Neue', Arial, sans-serif" font-size="11" fill="#ffffff" opacity="0.7">Queue depth monitor</text><rect x="696" y="250" width="195" height="106" rx="10" fill="#111111" stroke="#333333" stroke-width="1"/><g transform="translate(710, 262)"><svg viewBox="0 0 24 24" width="24" height="24" fill="none" stroke="#ffffff" stroke-width="1.5" stroke-linecap="round" stroke-linejoin="round"><path d="M14 2H6a2 2 0 00-2 2v16a2 2 0 002 2h12a2 2 0 002-2V8z"/><polyline points="14 2 14 8 20 8"/><line x1="9" y1="13" x2="15" y2="13"/><line x1="9" y1="17" x2="13" y2="17"/></svg></g><text x="742" y="276" font-family="'Inter', 'Helvetica Neue', Arial, sans-serif" font-size="13" fill="#ffffff" font-weight="600">Network Throughput</text><text x="742" y="294" font-family="'Inter', 'Helvetica Neue', Arial, sans-serif" font-size="11" fill="#ffffff" opacity="0.7">Ingress/egress per AZ</text><text x="742" y="310" font-family="'Inter', 'Helvetica Neue', Arial, sans-serif" font-size="11" fill="#ffffff" opacity="0.7">Packet loss rate</text><text x="742" y="326" font-family="'Inter', 'Helvetica Neue', Arial, sans-serif" font-size="11" fill="#ffffff" opacity="0.7">TCP retransmit ratio</text><rect x="905" y="250" width="190" height="106" rx="10" fill="#111111" stroke="#333333" stroke-width="1"/><g transform="translate(919, 262)"><svg viewBox="0 0 24 24" width="24" height="24" fill="none" stroke="#ffffff" stroke-width="1.5" stroke-linecap="round" stroke-linejoin="round"><path d="M12 2a5 5 0 014.8 3.6A4 4 0 0120 9.5a4 4 0 01-1.5 7.8A5 5 0 0112 22a5 5 0 01-6.5-4.7A4 4 0 014 9.5a4 4 0 013.2-3.9A5 5 0 0112 2z"/><path d="M12 2v20"/><path d="M8 8h8"/><path d="M7 13h10"/></svg></g><text x="951" y="276" font-family="'Inter', 'Helvetica Neue', Arial, sans-serif" font-size="13" fill="#ffffff" font-weight="600">GPU Utilization</text><text x="951" y="294" font-family="'Inter', 'Helvetica Neue', Arial, sans-serif" font-size="11" fill="#ffffff" opacity="0.7">CUDA core usage</text><text x="951" y="310" font-family="'Inter', 'Helvetica Neue', Arial, sans-serif" font-size="11" fill="#ffffff" opacity="0.7">VRAM allocation</text><text x="951" y="326" font-family="'Inter', 'Helvetica Neue', Arial, sans-serif" font-size="11" fill="#ffffff" opacity="0.7">Inference queue depth</text><circle cx="1111" cy="303" r="3" fill="#ffffff" opacity="0.5"/><circle cx="1119" cy="303" r="3" fill="#ffffff" opacity="0.5"/><circle cx="1127" cy="303" r="3" fill="#ffffff" opacity="0.5"/>
<rect x="199.5" y="380" width="850" height="154" rx="12" fill="url(#dotgrid)" stroke="none" opacity="0.5"/><rect x="199.5" y="380" width="850" height="154" rx="12" fill="none" stroke="#b4f079" stroke-width="1.5" opacity="0.35"/><rect x="223.5" y="404" width="190" height="106" rx="10" fill="#111111" stroke="#333333" stroke-width="1"/><g transform="translate(237.5, 416)"><svg viewBox="0 0 24 24" width="24" height="24" fill="none" stroke="#ffffff" stroke-width="1.5" stroke-linecap="round" stroke-linejoin="round"><path d="M10 13a5 5 0 007.5.5l2-2a5 5 0 00-7-7l-1 1"/><path d="M14 11a5 5 0 00-7.5-.5l-2 2a5 5 0 007 7l1-1"/><line x1="18" y1="2" x2="22" y2="6"/><line x1="2" y1="18" x2="6" y2="22"/></svg></g><text x="269.5" y="430" font-family="'Inter', 'Helvetica Neue', Arial, sans-serif" font-size="13" fill="#ffffff" font-weight="600">Error Rate</text><text x="269.5" y="448" font-family="'Inter', 'Helvetica Neue', Arial, sans-serif" font-size="11" fill="#ffffff" opacity="0.7">5xx per endpoint</text><text x="269.5" y="464" font-family="'Inter', 'Helvetica Neue', Arial, sans-serif" font-size="11" fill="#ffffff" opacity="0.7">Grouped by service</text><text x="269.5" y="480" font-family="'Inter', 'Helvetica Neue', Arial, sans-serif" font-size="11" fill="#ffffff" opacity="0.7">Anomaly detection</text><rect x="427.5" y="404" width="190" height="106" rx="10" fill="#111111" stroke="#333333" stroke-width="1"/><g transform="translate(441.5, 416)"><svg viewBox="0 0 24 24" width="24" height="24" fill="none" stroke="#ffffff" stroke-width="1.5" stroke-linecap="round" stroke-linejoin="round"><path d="M14 2H6a2 2 0 00-2 2v16a2 2 0 002 2h12a2 2 0 002-2V8z"/><polyline points="14 2 14 8 20 8"/><line x1="9" y1="13" x2="15" y2="13"/><line x1="9" y1="17" x2="13" y2="17"/></svg></g><text x="473.5" y="430" font-family="'Inter', 'Helvetica Neue', Arial, sans-serif" font-size="13" fill="#ffffff" font-weight="600">Slow Queries</text><text x="473.5" y="448" font-family="'Inter', 'Helvetica Neue', Arial, sans-serif" font-size="11" fill="#ffffff" opacity="0.7">P95 &gt; 500ms flagged</text><text x="473.5" y="464" font-family="'Inter', 'Helvetica Neue', Arial, sans-serif" font-size="11" fill="#ffffff" opacity="0.7">Explain plan capture</text><text x="473.5" y="480" font-family="'Inter', 'Helvetica Neue', Arial, sans-serif" font-size="11" fill="#ffffff" opacity="0.7">Index suggestions</text><rect x="631.5" y="404" width="190" height="106" rx="10" fill="#111111" stroke="#333333" stroke-width="1"/><g transform="translate(645.5, 416)"><svg viewBox="0 0 24 24" width="24" height="24" fill="none" stroke="#ffffff" stroke-width="1.5" stroke-linecap="round" stroke-linejoin="round"><circle cx="12" cy="7" r="4"/><path d="M5.5 21a6.5 6.5 0 0113 0"/></svg></g><text x="677.5" y="430" font-family="'Inter', 'Helvetica Neue', Arial, sans-serif" font-size="13" fill="#ffffff" font-weight="600">Audit Events</text><text x="677.5" y="448" font-family="'Inter', 'Helvetica Neue', Arial, sans-serif" font-size="11" fill="#ffffff" opacity="0.7">Auth attempts log</text><text x="677.5" y="464" font-family="'Inter', 'Helvetica Neue', Arial, sans-serif" font-size="11" fill="#ffffff" opacity="0.7">Permission changes</text><text x="677.5" y="480" font-family="'Inter', 'Helvetica Neue', Arial, sans-serif" font-size="11" fill="#ffffff" opacity="0.7">Data access trail</text><rect x="835.5" y="404" width="190" height="106" rx="10" fill="#111111" stroke="#333333" stroke-width="1"/><g transform="translate(849.5, 416)"><svg viewBox="0 0 24 24" width="24" height="24" fill="none" stroke="#ffffff" stroke-width="1.5" stroke-linecap="round" stroke-linejoin="round"><path d="M12 2a5 5 0 014.8 3.6A4 4 0 0120 9.5a4 4 0 01-1.5 7.8A5 5 0 0112 22a5 5 0 01-6.5-4.7A4 4 0 014 9.5a4 4 0 013.2-3.9A5 5 0 0112 2z"/><path d="M12 2v20"/><path d="M8 8h8"/><path d="M7 13h10"/></svg></g><text x="881.5" y="430" font-family="'Inter', 'Helvetica Neue', Arial, sans-serif" font-size="13" fill="#ffffff" font-weight="600">Debug Traces</text><text x="881.5" y="448" font-family="'Inter', 'Helvetica Neue', Arial, sans-serif" font-size="11" fill="#ffffff" opacity="0.7">Sampled at 1%</text><text x="881.5" y="464" font-family="'Inter', 'Helvetica Neue', Arial, sans-serif" font-size="11" fill="#ffffff" opacity="0.7">Full trace on error</text><text x="881.5" y="480" font-family="'Inter', 'Helvetica Neue', Arial, sans-serif" font-size="11" fill="#ffffff" opacity="0.7">Correlation ID linked</text>
<rect x="174.5" y="534" width="900" height="154" rx="12" fill="url(#crosshatch)" stroke="none" opacity="0.5"/><rect x="174.5" y="534" width="900" height="154" rx="12" fill="none" stroke="#b4f079" stroke-width="1.5" opacity="0.35"/><rect x="198.5" y="558" width="190" height="106" rx="10" fill="#111111" stroke="#333333" stroke-width="1"/><g transform="translate(212.5, 570)"><svg viewBox="0 0 24 24" width="24" height="24" fill="none" stroke="#ffffff" stroke-width="1.5" stroke-linecap="round" stroke-linejoin="round"><path d="M12 2a5 5 0 014.8 3.6A4 4 0 0120 9.5a4 4 0 01-1.5 7.8A5 5 0 0112 22a5 5 0 01-6.5-4.7A4 4 0 014 9.5a4 4 0 013.2-3.9A5 5 0 0112 2z"/><path d="M12 2v20"/><path d="M8 8h8"/><path d="M7 13h10"/></svg></g><text x="244.5" y="584" font-family="'Inter', 'Helvetica Neue', Arial, sans-serif" font-size="13" fill="#ffffff" font-weight="600">Service Map</text><text x="244.5" y="602" font-family="'Inter', 'Helvetica Neue', Arial, sans-serif" font-size="11" fill="#ffffff" opacity="0.7">Auto-discovered topology</text><text x="244.5" y="618" font-family="'Inter', 'Helvetica Neue', Arial, sans-serif" font-size="11" fill="#ffffff" opacity="0.7">Latency edge weights</text><text x="244.5" y="634" font-family="'Inter', 'Helvetica Neue', Arial, sans-serif" font-size="11" fill="#ffffff" opacity="0.7">Error rate per hop</text><rect x="402.5" y="558" width="190" height="106" rx="10" fill="#111111" stroke="#333333" stroke-width="1"/><g transform="translate(416.5, 570)"><svg viewBox="0 0 24 24" width="24" height="24" fill="none" stroke="#ffffff" stroke-width="1.5" stroke-linecap="round" stroke-linejoin="round"><path d="M14 2H6a2 2 0 00-2 2v16a2 2 0 002 2h12a2 2 0 002-2V8z"/><polyline points="14 2 14 8 20 8"/><line x1="9" y1="13" x2="15" y2="13"/><line x1="9" y1="17" x2="13" y2="17"/></svg></g><text x="448.5" y="584" font-family="'Inter', 'Helvetica Neue', Arial, sans-serif" font-size="13" fill="#ffffff" font-weight="600">Critical Path</text><text x="448.5" y="602" font-family="'Inter', 'Helvetica Neue', Arial, sans-serif" font-size="11" fill="#ffffff" opacity="0.7">Longest span chain</text><text x="448.5" y="618" font-family="'Inter', 'Helvetica Neue', Arial, sans-serif" font-size="11" fill="#ffffff" opacity="0.7">Bottleneck detection</text><text x="448.5" y="634" font-family="'Inter', 'Helvetica Neue', Arial, sans-serif" font-size="11" fill="#ffffff" opacity="0.7">Parallel span analysis</text><rect x="606.5" y="558" width="190" height="106" rx="10" fill="#111111" stroke="#333333" stroke-width="1"/><g transform="translate(620.5, 570)"><svg viewBox="0 0 24 24" width="24" height="24" fill="none" stroke="#ffffff" stroke-width="1.5" stroke-linecap="round" stroke-linejoin="round"><path d="M14 2H6a2 2 0 00-2 2v16a2 2 0 002 2h12a2 2 0 002-2V8z"/><polyline points="14 2 14 8 20 8"/><line x1="9" y1="13" x2="15" y2="13"/><line x1="9" y1="17" x2="13" y2="17"/></svg></g><text x="652.5" y="584" font-family="'Inter', 'Helvetica Neue', Arial, sans-serif" font-size="13" fill="#ffffff" font-weight="600">Trace Comparison</text><text x="652.5" y="602" font-family="'Inter', 'Helvetica Neue', Arial, sans-serif" font-size="11" fill="#ffffff" opacity="0.7">Baseline vs canary</text><text x="652.5" y="618" font-family="'Inter', 'Helvetica Neue', Arial, sans-serif" font-size="11" fill="#ffffff" opacity="0.7">Regression detection</text><text x="652.5" y="634" font-family="'Inter', 'Helvetica Neue', Arial, sans-serif" font-size="11" fill="#ffffff" opacity="0.7">A/B deployment diff</text><rect x="810.5" y="558" width="190" height="106" rx="10" fill="#111111" stroke="#333333" stroke-width="1"/><g transform="translate(824.5, 570)"><svg viewBox="0 0 24 24" width="24" height="24" fill="none" stroke="#ffffff" stroke-width="1.5" stroke-linecap="round" stroke-linejoin="round"><path d="M12 2a5 5 0 014.8 3.6A4 4 0 0120 9.5a4 4 0 01-1.5 7.8A5 5 0 0112 22a5 5 0 01-6.5-4.7A4 4 0 014 9.5a4 4 0 013.2-3.9A5 5 0 0112 2z"/><path d="M12 2v20"/><path d="M8 8h8"/><path d="M7 13h10"/></svg></g><text x="856.5" y="584" font-family="'Inter', 'Helvetica Neue', Arial, sans-serif" font-size="13" fill="#ffffff" font-weight="600">Span Analytics</text><text x="856.5" y="602" font-family="'Inter', 'Helvetica Neue', Arial, sans-serif" font-size="11" fill="#ffffff" opacity="0.7">Custom attributes</text><text x="856.5" y="618" font-family="'Inter', 'Helvetica Neue', Arial, sans-serif" font-size="11" fill="#ffffff" opacity="0.7">Tag-based filtering</text><text x="856.5" y="634" font-family="'Inter', 'Helvetica Neue', Arial, sans-serif" font-size="11" fill="#ffffff" opacity="0.7">Histogram buckets</text><circle cx="1016.5" cy="611" r="3" fill="#ffffff" opacity="0.5"/><circle cx="1024.5" cy="611" r="3" fill="#ffffff" opacity="0.5"/><circle cx="1032.5" cy="611" r="3" fill="#ffffff" opacity="0.5"/>
<rect x="111.5" y="688" width="1026" height="154" rx="12" fill="url(#crosshatch)" stroke="none" opacity="0.5"/><rect x="111.5" y="688" width="1026" height="154" rx="12" fill="none" stroke="#b4f079" stroke-width="1.5" opacity="0.35"/><rect x="135.5" y="712" width="213" height="106" rx="10" fill="#111111" stroke="#333333" stroke-width="1"/><g transform="translate(149.5, 724)"><svg viewBox="0 0 24 24" width="24" height="24" fill="none" stroke="#ffffff" stroke-width="1.5" stroke-linecap="round" stroke-linejoin="round"><path d="M10 13a5 5 0 007.5.5l2-2a5 5 0 00-7-7l-1 1"/><path d="M14 11a5 5 0 00-7.5-.5l-2 2a5 5 0 007 7l1-1"/><line x1="18" y1="2" x2="22" y2="6"/><line x1="2" y1="18" x2="6" y2="22"/></svg></g><text x="181.5" y="738" font-family="'Inter', 'Helvetica Neue', Arial, sans-serif" font-size="13" fill="#ffffff" font-weight="600">P0 — Page Immediately</text><text x="181.5" y="756" font-family="'Inter', 'Helvetica Neue', Arial, sans-serif" font-size="11" fill="#ffffff" opacity="0.7">Service down &gt; 30s</text><text x="181.5" y="772" font-family="'Inter', 'Helvetica Neue', Arial, sans-serif" font-size="11" fill="#ffffff" opacity="0.7">Error rate &gt; 5%</text><text x="181.5" y="788" font-family="'Inter', 'Helvetica Neue', Arial, sans-serif" font-size="11" fill="#ffffff" opacity="0.7">Latency P99 &gt; 2s</text><rect x="362.5" y="712" width="234" height="106" rx="10" fill="#111111" stroke="#333333" stroke-width="1"/><g transform="translate(376.5, 724)"><svg viewBox="0 0 24 24" width="24" height="24" fill="none" stroke="#ffffff" stroke-width="1.5" stroke-linecap="round" stroke-linejoin="round"><path d="M10 13a5 5 0 007.5.5l2-2a5 5 0 00-7-7l-1 1"/><path d="M14 11a5 5 0 00-7.5-.5l-2 2a5 5 0 007 7l1-1"/><line x1="18" y1="2" x2="22" y2="6"/><line x1="2" y1="18" x2="6" y2="22"/></svg></g><text x="408.5" y="738" font-family="'Inter', 'Helvetica Neue', Arial, sans-serif" font-size="13" fill="#ffffff" font-weight="600">P1 — Page Business Hours</text><text x="408.5" y="756" font-family="'Inter', 'Helvetica Neue', Arial, sans-serif" font-size="11" fill="#ffffff" opacity="0.7">Degraded throughput</text><text x="408.5" y="772" font-family="'Inter', 'Helvetica Neue', Arial, sans-serif" font-size="11" fill="#ffffff" opacity="0.7">Disk &gt; 85% full</text><text x="408.5" y="788" font-family="'Inter', 'Helvetica Neue', Arial, sans-serif" font-size="11" fill="#ffffff" opacity="0.7">Cert expiry &lt; 7 days</text><rect x="610.5" y="712" width="190" height="106" rx="10" fill="#111111" stroke="#333333" stroke-width="1"/><g transform="translate(624.5, 724)"><svg viewBox="0 0 24 24" width="24" height="24" fill="none" stroke="#ffffff" stroke-width="1.5" stroke-linecap="round" stroke-linejoin="round"><path d="M14 2H6a2 2 0 00-2 2v16a2 2 0 002 2h12a2 2 0 002-2V8z"/><polyline points="14 2 14 8 20 8"/><line x1="9" y1="13" x2="15" y2="13"/><line x1="9" y1="17" x2="13" y2="17"/></svg></g><text x="656.5" y="738" font-family="'Inter', 'Helvetica Neue', Arial, sans-serif" font-size="13" fill="#ffffff" font-weight="600">P2 — Ticket</text><text x="656.5" y="756" font-family="'Inter', 'Helvetica Neue', Arial, sans-serif" font-size="11" fill="#ffffff" opacity="0.7">Memory leak trend</text><text x="656.5" y="772" font-family="'Inter', 'Helvetica Neue', Arial, sans-serif" font-size="11" fill="#ffffff" opacity="0.7">Log volume spike</text><text x="656.5" y="788" font-family="'Inter', 'Helvetica Neue', Arial, sans-serif" font-size="11" fill="#ffffff" opacity="0.7">Dependency deprecation</text><rect x="814.5" y="712" width="190" height="106" rx="10" fill="#111111" stroke="#333333" stroke-width="1"/><g transform="translate(828.5, 724)"><svg viewBox="0 0 24 24" width="24" height="24" fill="none" stroke="#ffffff" stroke-width="1.5" stroke-linecap="round" stroke-linejoin="round"><path d="M14 2H6a2 2 0 00-2 2v16a2 2 0 002 2h12a2 2 0 002-2V8z"/><polyline points="14 2 14 8 20 8"/><line x1="9" y1="13" x2="15" y2="13"/><line x1="9" y1="17" x2="13" y2="17"/></svg></g><text x="860.5" y="738" font-family="'Inter', 'Helvetica Neue', Arial, sans-serif" font-size="13" fill="#ffffff" font-weight="600">P3 — Informational</text><text x="860.5" y="756" font-family="'Inter', 'Helvetica Neue', Arial, sans-serif" font-size="11" fill="#ffffff" opacity="0.7">Deployment completed</text><text x="860.5" y="772" font-family="'Inter', 'Helvetica Neue', Arial, sans-serif" font-size="11" fill="#ffffff" opacity="0.7">Config change applied</text><text x="860.5" y="788" font-family="'Inter', 'Helvetica Neue', Arial, sans-serif" font-size="11" fill="#ffffff" opacity="0.7">Scaling event logged</text>
<rect x="301.5" y="842" width="646" height="154" rx="12" fill="url(#dotgrid)" stroke="none" opacity="0.5"/><rect x="301.5" y="842" width="646" height="154" rx="12" fill="none" stroke="#b4f079" stroke-width="1.5" opacity="0.35"/><rect x="325.5" y="866" width="190" height="106" rx="10" fill="#111111" stroke="#333333" stroke-width="1"/><g transform="translate(339.5, 878)"><svg viewBox="0 0 24 24" width="24" height="24" fill="none" stroke="#ffffff" stroke-width="1.5" stroke-linecap="round" stroke-linejoin="round"><path d="M12 2a5 5 0 014.8 3.6A4 4 0 0120 9.5a4 4 0 01-1.5 7.8A5 5 0 0112 22a5 5 0 01-6.5-4.7A4 4 0 014 9.5a4 4 0 013.2-3.9A5 5 0 0112 2z"/><path d="M12 2v20"/><path d="M8 8h8"/><path d="M7 13h10"/></svg></g><text x="371.5" y="892" font-family="'Inter', 'Helvetica Neue', Arial, sans-serif" font-size="13" fill="#ffffff" font-weight="600">Availability SLO</text><text x="371.5" y="910" font-family="'Inter', 'Helvetica Neue', Arial, sans-serif" font-size="11" fill="#ffffff" opacity="0.7">Target: 99.95%</text><text x="371.5" y="926" font-family="'Inter', 'Helvetica Neue', Arial, sans-serif" font-size="11" fill="#ffffff" opacity="0.7">Burn rate: 1.2x</text><text x="371.5" y="942" font-family="'Inter', 'Helvetica Neue', Arial, sans-serif" font-size="11" fill="#ffffff" opacity="0.7">Error budget: 21.6min/month</text><rect x="529.5" y="866" width="190" height="106" rx="10" fill="#111111" stroke="#333333" stroke-width="1"/><g transform="translate(543.5, 878)"><svg viewBox="0 0 24 24" width="24" height="24" fill="none" stroke="#ffffff" stroke-width="1.5" stroke-linecap="round" stroke-linejoin="round"><path d="M12 2a5 5 0 014.8 3.6A4 4 0 0120 9.5a4 4 0 01-1.5 7.8A5 5 0 0112 22a5 5 0 01-6.5-4.7A4 4 0 014 9.5a4 4 0 013.2-3.9A5 5 0 0112 2z"/><path d="M12 2v20"/><path d="M8 8h8"/><path d="M7 13h10"/></svg></g><text x="575.5" y="892" font-family="'Inter', 'Helvetica Neue', Arial, sans-serif" font-size="13" fill="#ffffff" font-weight="600">Latency SLO</text><text x="575.5" y="910" font-family="'Inter', 'Helvetica Neue', Arial, sans-serif" font-size="11" fill="#ffffff" opacity="0.7">P99 &lt; 200ms</text><text x="575.5" y="926" font-family="'Inter', 'Helvetica Neue', Arial, sans-serif" font-size="11" fill="#ffffff" opacity="0.7">Current: 147ms</text><text x="575.5" y="942" font-family="'Inter', 'Helvetica Neue', Arial, sans-serif" font-size="11" fill="#ffffff" opacity="0.7">Budget remaining: 68%</text><rect x="733.5" y="866" width="190" height="106" rx="10" fill="#111111" stroke="#333333" stroke-width="1"/><g transform="translate(747.5, 878)"><svg viewBox="0 0 24 24" width="24" height="24" fill="none" stroke="#ffffff" stroke-width="1.5" stroke-linecap="round" stroke-linejoin="round"><path d="M14 2H6a2 2 0 00-2 2v16a2 2 0 002 2h12a2 2 0 002-2V8z"/><polyline points="14 2 14 8 20 8"/><line x1="9" y1="13" x2="15" y2="13"/><line x1="9" y1="17" x2="13" y2="17"/></svg></g><text x="779.5" y="892" font-family="'Inter', 'Helvetica Neue', Arial, sans-serif" font-size="13" fill="#ffffff" font-weight="600">Throughput SLO</text><text x="779.5" y="910" font-family="'Inter', 'Helvetica Neue', Arial, sans-serif" font-size="11" fill="#ffffff" opacity="0.7">Min 10k req/s</text><text x="779.5" y="926" font-family="'Inter', 'Helvetica Neue', Arial, sans-serif" font-size="11" fill="#ffffff" opacity="0.7">Peak: 45k req/s</text><text x="779.5" y="942" font-family="'Inter', 'Helvetica Neue', Arial, sans-serif" font-size="11" fill="#ffffff" opacity="0.7">Capacity plan: Q2</text>
<rect x="545" y="100" width="159" height="56" rx="12" fill="url(#hero)" stroke="#b4f079" stroke-width="1.5"/><text x="624.5" y="128" font-family="'JetBrains Mono', 'Fira Code', 'SF Mono', 'Cascadia Code', monospace" font-size="13" fill="#b4f079" text-anchor="middle" dominant-baseline="central" letter-spacing="0.12em">GRAFANA HUB</text>
<line x1="624.5" y1="156" x2="624.5" y2="186" stroke="#b4f079" stroke-width="1.5" opacity="0.5"/><g transform="translate(494.35, 190)"><svg viewBox="0 0 24 24" width="24" height="24" fill="none" stroke="#ffffff" stroke-width="1.5" stroke-linecap="round" stroke-linejoin="round"><path d="M12 2a5 5 0 014.8 3.6A4 4 0 0120 9.5a4 4 0 01-1.5 7.8A5 5 0 0112 22a5 5 0 01-6.5-4.7A4 4 0 014 9.5a4 4 0 013.2-3.9A5 5 0 0112 2z"/><path d="M12 2v20"/><path d="M8 8h8"/><path d="M7 13h10"/></svg></g><text x="524.35" y="204" font-family="'Inter', 'Helvetica Neue', Arial, sans-serif" font-size="14" fill="#ffffff" opacity="0.85">Data retention: 90 days hot, 2 years cold</text>
</g>
</svg>