<svg xmlns="http://www.w3.org/2000/svg" viewBox="0 0 1175.9 993" width="1175.9" height="993">
<defs>
  <pattern id="dotgrid" width="8" height="8" patternUnits="userSpaceOnUse">
    <rect width="8" height="8" fill="#000000"/>
    <circle cx="4" cy="4" r="0.8" fill="#b4f079" opacity="0.7"/>
  </pattern>
  <pattern id="crosshatch" width="8" height="8" patternUnits="userSpaceOnUse">
    <rect width="8" height="8" fill="#000000"/>
    <path d="M0 8L8 0M-1 1L1 -1M7 9L9 7" stroke="#b4f079" stroke-width="0.8" opacity="0.2"/>
  </pattern>
  <pattern id="hero" width="6" height="6" patternUnits="userSpaceOnUse">
    <rect width="6" height="6" fill="#3d6b23"/>
    <circle cx="3" cy="3" r="0.6" fill="#5a9a35" opacity="0.5"/>
  </pattern>
  <marker id="arrowhead" markerWidth="10" markerHeight="7" refX="9" refY="3.5" orient="auto" markerUnits="strokeWidth">
    <polygon points="0 0, 10 3.5, 0 7" fill="#b4f079"/>
  </marker>
  <marker id="arrowhead-reverse" markerWidth="10" markerHeight="7" refX="1" refY="3.5" orient="auto" markerUnits="strokeWidth">
    <polygon points="10 0, 0 3.5, 10 7" fill="#b4f079"/>
  </marker>
</defs>
<rect width="100%" height="100%" fill="#000000"/>
<g class="diagram">
<text x="30" y="34" font-family="'Inter', 'Helvetica Neue', Arial, sans-serif" font-size="15" fill="#ffffff" font-weight="700">Multi-tenant SaaS platform: isolated deployment islands</text>
<rect x="36" y="144" width="348" height="633" rx="12" fill="url(#dotgrid)" stroke="#b4f079" stroke-width="1" opacity="0.35"/><rect x="36" y="144" width="348" height="633" rx="12" fill="none" stroke="#b4f079" stroke-width="1" opacity="0.5"/>
<rect x="223.39999999999998" y="174" width="561" height="633" rx="12" fill="url(#dotgrid)" stroke="#b4f079" stroke-width="1" opacity="0.35"/><rect x="223.39999999999998" y="174" width="561" height="633" rx="12" fill="none" stroke="#b4f079" stroke-width="1" opacity="0.5"/>
<rect x="500.5" y="174" width="484.9" height="633" rx="12" fill="url(#dotgrid)" stroke="#b4f079" stroke-width="1" opacity="0.35"/><rect x="500.5" y="174" width="484.9" height="633" rx="12" fill="none" stroke="#b4f079" stroke-width="1" opacity="0.5"/>
<rect x="349.4" y="154" width="574.6" height="469" rx="12" fill="url(#hero)" stroke="#b4f079" stroke-width="1" opacity="0.35"/><rect x="349.4" y="154" width="574.6" height="469" rx="12" fill="none" stroke="#b4f079" stroke-width="1" opacity="0.5"/>
<line x1="218.5" y1="282" x2="166.39999999999998" y2="375" stroke="#b4f079" stroke-width="1.5" marker-end="url(#arrowhead)"/>
<polyline points="166.39999999999998,415 166.39999999999998,472 242.2,472 242.2,529" fill="none" stroke="#b4f079" stroke-width="1.5" marker-end="url(#arrowhead)"/>
<polyline points="242.2,569 242.2,607 133,607 133,645" fill="none" stroke="#b4f079" stroke-width="1.5" marker-end="url(#arrowhead)"/>
<line x1="242.2" y1="569" x2="301" y2="645" stroke="#b4f079" stroke-width="1.5" marker-end="url(#arrowhead)"/>
<line x1="214" y1="703" x2="234" y2="703" stroke="#b4f079" stroke-width="1.5" marker-end="url(#arrowhead)"/>
<polyline points="410.5,312 410.5,325 292.4,325 292.4,405" fill="none" stroke="#b4f079" stroke-width="1.5" marker-end="url(#arrowhead)"/>
<polyline points="292.4,445 292.4,502 405.2,502 405.2,559" fill="none" stroke="#b4f079" stroke-width="1.5" marker-end="url(#arrowhead)"/>
<polyline points="405.2,599 405.2,637 487.2,637 487.2,675" fill="none" stroke="#b4f079" stroke-width="1.5" marker-end="url(#arrowhead)"/>
<polyline points="405.2,599 405.2,637 687.4,637 687.4,675" fill="none" stroke="#b4f079" stroke-width="1.5" marker-end="url(#arrowhead)"/>
<line x1="611.5" y1="312" x2="619.9" y2="405" stroke="#b4f079" stroke-width="1.5" marker-end="url(#arrowhead)"/>
<polyline points="619.9,445 619.9,479 769.7,479 769.7,559" fill="none" stroke="#b4f079" stroke-width="1.5" marker-end="url(#arrowhead)"/>
<polyline points="769.7,599 769.7,637 878.9,637 878.9,675" fill="none" stroke="#b4f079" stroke-width="1.5" marker-end="url(#arrowhead)"/>
<polyline points="807.7,326 807.7,331.5 451.4,331.5 451.4,337" fill="none" stroke="#b4f079" stroke-width="1.5" marker-end="url(#arrowhead)"/>
<line x1="807.7" y1="326" x2="805.1999999999999" y2="354" stroke="#b4f079" stroke-width="1.5" marker-end="url(#arrowhead)"/>
<polyline points="451.4,453 451.4,472 582.7,472 582.7,491" fill="none" stroke="#b4f079" stroke-width="1.5" marker-end="url(#arrowhead)"/>
<rect x="151.45" y="317.5" width="82" height="22" rx="4" fill="#000000"/>
<rect x="134.85000000000002" y="587.5" width="82" height="22" rx="4" fill="#000000"/>
<rect x="230.85000000000002" y="591.75" width="75" height="22" rx="4" fill="#000000"/>
<rect x="159.5" y="627.75" width="159" height="22" rx="4" fill="#000000"/>
<rect x="310.45" y="307" width="82" height="22" rx="4" fill="#000000"/>
<rect x="376.2" y="626" width="110" height="22" rx="4" fill="#000000"/>
<rect x="513.3" y="626" width="96" height="22" rx="4" fill="#000000"/>
<rect x="574.7" y="347.5" width="82" height="22" rx="4" fill="#000000"/>
<rect x="804.3" y="626" width="40" height="22" rx="4" fill="#000000"/>
<rect x="754.95" y="324" width="103" height="22" rx="4" fill="#000000"/>
<rect x="469.04999999999995" y="461" width="96" height="22" rx="4" fill="#000000"/>
<rect x="147.5" y="157" width="125" height="24" fill="#000000" rx="3"/><text x="210" y="170" font-family="'Inter', 'Helvetica Neue', Arial, sans-serif" font-size="14" fill="#ffffff" opacity="0.9" text-anchor="middle">US-East Region</text>
<rect x="231.39999999999998" y="187" width="177.5" height="24" fill="#000000" rx="3"/><text x="241.39999999999998" y="200" font-family="'Inter', 'Helvetica Neue', Arial, sans-serif" font-size="14" fill="#ffffff" opacity="0.9" text-anchor="start">EU-West Region (GDPR)</text>
<rect x="508.5" y="187" width="102.5" height="24" fill="#000000" rx="3"/><text x="518.5" y="200" font-family="'Inter', 'Helvetica Neue', Arial, sans-serif" font-size="14" fill="#ffffff" opacity="0.9" text-anchor="start">APAC Region</text>
<rect x="357.4" y="167" width="170" height="24" fill="#000000" rx="3"/><text x="367.4" y="180" font-family="'Inter', 'Helvetica Neue', Arial, sans-serif" font-size="14" fill="#ffffff" opacity="0.9" text-anchor="start">Global Control Plane</text>
<rect x="132.5" y="200" width="172" height="82" rx="12" fill="none" stroke="#b4f079" stroke-width="2"/><rect x="137.5" y="205" width="162" height="72" rx="8" fill="url(#hero)" stroke="#b4f079" stroke-width="1"/><rect x="154.5" y="221.9" width="128" height="22.2" fill="#000000" rx="2"/><text x="218.5" y="233" font-family="'JetBrains Mono', 'Fira Code', 'SF Mono', 'Cascadia Code', monospace" font-size="13" fill="#b4f079" text-anchor="middle" dominant-baseline="central" letter-spacing="0.12em">US API GATEWAY</text><rect x="174.5" y="241.6" width="88" height="22.799999999999997" fill="#000000" rx="2"/><text x="218.5" y="253" font-family="'JetBrains Mono', 'Fira Code', 'SF Mono', 'Cascadia Code', monospace" font-size="12" fill="#b4f079" opacity="0.6" text-anchor="middle" dominant-baseline="central" letter-spacing="0.12em">us-east-1</text>
<rect x="113.39999999999998" y="375" width="106" height="40" rx="12" fill="url(#dotgrid)" stroke="#b4f079" stroke-width="1.5"/><rect x="130.39999999999998" y="383.9" width="72" height="22.2" fill="#000000" rx="2"/><text x="166.39999999999998" y="395" font-family="'JetBrains Mono', 'Fira Code', 'SF Mono', 'Cascadia Code', monospace" font-size="13" fill="#b4f079" text-anchor="middle" dominant-baseline="central" letter-spacing="0.12em">US AUTH</text>
<rect x="170.7" y="529" width="143" height="40" rx="12" fill="url(#dotgrid)" stroke="#b4f079" stroke-width="1.5"/><rect x="190.2" y="537.9" width="104" height="22.2" fill="#000000" rx="2"/><text x="242.2" y="549" font-family="'JetBrains Mono', 'Fira Code', 'SF Mono', 'Cascadia Code', monospace" font-size="13" fill="#b4f079" text-anchor="middle" dominant-baseline="central" letter-spacing="0.12em">US APP TIER</text>
<rect x="52" y="655" width="162" height="96" fill="url(#crosshatch)" stroke="none"/><line x1="52" y1="655" x2="52" y2="751" stroke="#b4f079" stroke-width="1.5"/><line x1="214" y1="655" x2="214" y2="751" stroke="#b4f079" stroke-width="1.5"/><ellipse cx="133" cy="655" rx="81" ry="10" fill="url(#crosshatch)" stroke="#b4f079" stroke-width="1.5"/><path d="M52,751 A81,10 0 0,0 214,751" fill="url(#crosshatch)" stroke="#b4f079" stroke-width="1.5"/><rect x="73" y="683.9" width="120" height="22.2" fill="#000000" rx="2"/><text x="133" y="695" font-family="'JetBrains Mono', 'Fira Code', 'SF Mono', 'Cascadia Code', monospace" font-size="13" fill="#b4f079" text-anchor="middle" dominant-baseline="central" letter-spacing="0.12em">US PRIMARY DB</text><rect x="73" y="703.6" width="120" height="39.599999999999994" fill="#000000" rx="2"/><text x="133" y="706.6" font-family="'JetBrains Mono', 'Fira Code', 'SF Mono', 'Cascadia Code', monospace" font-size="12" fill="#b4f079" opacity="0.6" text-anchor="middle" dominant-baseline="central" letter-spacing="0.12em">PostgreSQL 16</text><text x="133" y="723.4" font-family="'JetBrains Mono', 'Fira Code', 'SF Mono', 'Cascadia Code', monospace" font-size="12" fill="#b4f079" opacity="0.6" text-anchor="middle" dominant-baseline="central" letter-spacing="0.12em">us-east-1a</text>
<rect x="234" y="655" width="134" height="96" fill="url(#crosshatch)" stroke="none"/><line x1="234" y1="655" x2="234" y2="751" stroke="#b4f079" stroke-width="1.5"/><line x1="368" y1="655" x2="368" y2="751" stroke="#b4f079" stroke-width="1.5"/><ellipse cx="301" cy="655" rx="67" ry="10" fill="url(#crosshatch)" stroke="#b4f079" stroke-width="1.5"/><path d="M234,751 A67,10 0 0,0 368,751" fill="url(#crosshatch)" stroke="#b4f079" stroke-width="1.5"/><rect x="253" y="683.9" width="96" height="22.2" fill="#000000" rx="2"/><text x="301" y="695" font-family="'JetBrains Mono', 'Fira Code', 'SF Mono', 'Cascadia Code', monospace" font-size="13" fill="#b4f079" text-anchor="middle" dominant-baseline="central" letter-spacing="0.12em">US REPLICA</text><rect x="245" y="703.6" width="112" height="39.599999999999994" fill="#000000" rx="2"/><text x="301" y="706.6" font-family="'JetBrains Mono', 'Fira Code', 'SF Mono', 'Cascadia Code', monospace" font-size="12" fill="#b4f079" opacity="0.6" text-anchor="middle" dominant-baseline="central" letter-spacing="0.12em">Read replica</text><text x="301" y="723.4" font-family="'JetBrains Mono', 'Fira Code', 'SF Mono', 'Cascadia Code', monospace" font-size="12" fill="#b4f079" opacity="0.6" text-anchor="middle" dominant-baseline="central" letter-spacing="0.12em">us-east-1b</text>
<rect x="324.5" y="230" width="172" height="82" rx="12" fill="none" stroke="#b4f079" stroke-width="2"/><rect x="329.5" y="235" width="162" height="72" rx="8" fill="url(#hero)" stroke="#b4f079" stroke-width="1"/><rect x="346.5" y="251.9" width="128" height="22.2" fill="#000000" rx="2"/><text x="410.5" y="263" font-family="'JetBrains Mono', 'Fira Code', 'SF Mono', 'Cascadia Code', monospace" font-size="13" fill="#b4f079" text-anchor="middle" dominant-baseline="central" letter-spacing="0.12em">EU API GATEWAY</text><rect x="366.5" y="271.6" width="88" height="22.799999999999997" fill="#000000" rx="2"/><text x="410.5" y="283" font-family="'JetBrains Mono', 'Fira Code', 'SF Mono', 'Cascadia Code', monospace" font-size="12" fill="#b4f079" opacity="0.6" text-anchor="middle" dominant-baseline="central" letter-spacing="0.12em">eu-west-1</text>
<rect x="239.39999999999998" y="405" width="106" height="40" rx="12" fill="url(#dotgrid)" stroke="#b4f079" stroke-width="1.5"/><rect x="256.4" y="413.9" width="72" height="22.2" fill="#000000" rx="2"/><text x="292.4" y="425" font-family="'JetBrains Mono', 'Fira Code', 'SF Mono', 'Cascadia Code', monospace" font-size="13" fill="#b4f079" text-anchor="middle" dominant-baseline="central" letter-spacing="0.12em">EU AUTH</text>
<rect x="333.7" y="559" width="143" height="40" rx="12" fill="url(#dotgrid)" stroke="#b4f079" stroke-width="1.5"/><rect x="353.2" y="567.9" width="104" height="22.2" fill="#000000" rx="2"/><text x="405.2" y="579" font-family="'JetBrains Mono', 'Fira Code', 'SF Mono', 'Cascadia Code', monospace" font-size="13" fill="#b4f079" text-anchor="middle" dominant-baseline="central" letter-spacing="0.12em">EU APP TIER</text>
<rect x="388" y="675" width="198.4" height="116" rx="12" fill="url(#crosshatch)" stroke="#b4f079" stroke-width="1.5"/><rect x="431.2" y="713.9" width="112" height="22.2" fill="#000000" rx="2"/><text x="487.2" y="725" font-family="'JetBrains Mono', 'Fira Code', 'SF Mono', 'Cascadia Code', monospace" font-size="13" fill="#b4f079" text-anchor="middle" dominant-baseline="central" letter-spacing="0.12em">EU PII VAULT</text><rect x="391.2" y="733.6" width="192" height="39.599999999999994" fill="#000000" rx="2"/><text x="487.2" y="736.6" font-family="'JetBrains Mono', 'Fira Code', 'SF Mono', 'Cascadia Code', monospace" font-size="12" fill="#b4f079" opacity="0.6" text-anchor="middle" dominant-baseline="central" letter-spacing="0.12em">Encrypted at rest</text><text x="487.2" y="753.4" font-family="'JetBrains Mono', 'Fira Code', 'SF Mono', 'Cascadia Code', monospace" font-size="12" fill="#b4f079" opacity="0.6" text-anchor="middle" dominant-baseline="central" letter-spacing="0.12em">Field-level encryption</text>
<rect x="606.4" y="685" width="162" height="96" fill="url(#crosshatch)" stroke="none"/><line x1="606.4" y1="685" x2="606.4" y2="781" stroke="#b4f079" stroke-width="1.5"/><line x1="768.4" y1="685" x2="768.4" y2="781" stroke="#b4f079" stroke-width="1.5"/><ellipse cx="687.4" cy="685" rx="81" ry="10" fill="url(#crosshatch)" stroke="#b4f079" stroke-width="1.5"/><path d="M606.4,781 A81,10 0 0,0 768.4,781" fill="url(#crosshatch)" stroke="#b4f079" stroke-width="1.5"/><rect x="627.4" y="713.9" width="120" height="22.2" fill="#000000" rx="2"/><text x="687.4" y="725" font-family="'JetBrains Mono', 'Fira Code', 'SF Mono', 'Cascadia Code', monospace" font-size="13" fill="#b4f079" text-anchor="middle" dominant-baseline="central" letter-spacing="0.12em">EU PRIMARY DB</text><rect x="627.4" y="733.6" width="120" height="39.599999999999994" fill="#000000" rx="2"/><text x="687.4" y="736.6" font-family="'JetBrains Mono', 'Fira Code', 'SF Mono', 'Cascadia Code', monospace" font-size="12" fill="#b4f079" opacity="0.6" text-anchor="middle" dominant-baseline="central" letter-spacing="0.12em">PostgreSQL 16</text><text x="687.4" y="753.4" font-family="'JetBrains Mono', 'Fira Code', 'SF Mono', 'Cascadia Code', monospace" font-size="12" fill="#b4f079" opacity="0.6" text-anchor="middle" dominant-baseline="central" letter-spacing="0.12em">eu-west-1a</text>
<rect x="516.5" y="230" width="190" height="82" rx="12" fill="none" stroke="#b4f079" stroke-width="2"/><rect x="521.5" y="235" width="180" height="72" rx="8" fill="url(#hero)" stroke="#b4f079" stroke-width="1"/><rect x="539.5" y="251.9" width="144" height="22.2" fill="#000000" rx="2"/><text x="611.5" y="263" font-family="'JetBrains Mono', 'Fira Code', 'SF Mono', 'Cascadia Code', monospace" font-size="13" fill="#b4f079" text-anchor="middle" dominant-baseline="central" letter-spacing="0.12em">APAC API GATEWAY</text><rect x="547.5" y="271.6" width="128" height="22.799999999999997" fill="#000000" rx="2"/><text x="611.5" y="283" font-family="'JetBrains Mono', 'Fira Code', 'SF Mono', 'Cascadia Code', monospace" font-size="12" fill="#b4f079" opacity="0.6" text-anchor="middle" dominant-baseline="central" letter-spacing="0.12em">ap-southeast-1</text>
<rect x="557.4" y="405" width="125" height="40" rx="12" fill="url(#dotgrid)" stroke="#b4f079" stroke-width="1.5"/><rect x="575.9" y="413.9" width="88" height="22.2" fill="#000000" rx="2"/><text x="619.9" y="425" font-family="'JetBrains Mono', 'Fira Code', 'SF Mono', 'Cascadia Code', monospace" font-size="13" fill="#b4f079" text-anchor="middle" dominant-baseline="central" letter-spacing="0.12em">APAC AUTH</text>
<rect x="688.7" y="559" width="162" height="40" rx="12" fill="url(#dotgrid)" stroke="#b4f079" stroke-width="1.5"/><rect x="709.7" y="567.9" width="120" height="22.2" fill="#000000" rx="2"/><text x="769.7" y="579" font-family="'JetBrains Mono', 'Fira Code', 'SF Mono', 'Cascadia Code', monospace" font-size="13" fill="#b4f079" text-anchor="middle" dominant-baseline="central" letter-spacing="0.12em">APAC APP TIER</text>
<rect x="788.4" y="685" width="181" height="96" fill="url(#crosshatch)" stroke="none"/><line x1="788.4" y1="685" x2="788.4" y2="781" stroke="#b4f079" stroke-width="1.5"/><line x1="969.4" y1="685" x2="969.4" y2="781" stroke="#b4f079" stroke-width="1.5"/><ellipse cx="878.9" cy="685" rx="90.5" ry="10" fill="url(#crosshatch)" stroke="#b4f079" stroke-width="1.5"/><path d="M788.4,781 A90.5,10 0 0,0 969.4,781" fill="url(#crosshatch)" stroke="#b4f079" stroke-width="1.5"/><rect x="810.9" y="713.9" width="136" height="22.2" fill="#000000" rx="2"/><text x="878.9" y="725" font-family="'JetBrains Mono', 'Fira Code', 'SF Mono', 'Cascadia Code', monospace" font-size="13" fill="#b4f079" text-anchor="middle" dominant-baseline="central" letter-spacing="0.12em">APAC PRIMARY DB</text><rect x="810.9" y="733.6" width="136" height="39.599999999999994" fill="#000000" rx="2"/><text x="878.9" y="736.6" font-family="'JetBrains Mono', 'Fira Code', 'SF Mono', 'Cascadia Code', monospace" font-size="12" fill="#b4f079" opacity="0.6" text-anchor="middle" dominant-baseline="central" letter-spacing="0.12em">PostgreSQL 16</text><text x="878.9" y="753.4" font-family="'JetBrains Mono', 'Fira Code', 'SF Mono', 'Cascadia Code', monospace" font-size="12" fill="#b4f079" opacity="0.6" text-anchor="middle" dominant-baseline="central" letter-spacing="0.12em">ap-southeast-1a</text>
<rect x="726.5" y="210" width="162.39999999999998" height="116" rx="12" fill="none" stroke="#b4f079" stroke-width="2"/><rect x="731.5" y="215" width="152.39999999999998" height="106" rx="8" fill="url(#hero)" stroke="#b4f079" stroke-width="1"/><rect x="747.7" y="248.9" width="120" height="22.2" fill="#000000" rx="2"/><text x="807.7" y="260" font-family="'JetBrains Mono', 'Fira Code', 'SF Mono', 'Cascadia Code', monospace" font-size="13" fill="#b4f079" text-anchor="middle" dominant-baseline="central" letter-spacing="0.12em">TENANT ROUTER</text><rect x="731.7" y="268.59999999999997" width="152" height="39.599999999999994" fill="#000000" rx="2"/><text x="807.7" y="271.6" font-family="'JetBrains Mono', 'Fira Code', 'SF Mono', 'Cascadia Code', monospace" font-size="12" fill="#b4f079" opacity="0.6" text-anchor="middle" dominant-baseline="central" letter-spacing="0.12em">DNS-based routing</text><text x="807.7" y="288.40000000000003" font-family="'JetBrains Mono', 'Fira Code', 'SF Mono', 'Cascadia Code', monospace" font-size="12" fill="#b4f079" opacity="0.6" text-anchor="middle" dominant-baseline="central" letter-spacing="0.12em">GeoIP → region</text>
<rect x="365.4" y="337" width="172" height="116" rx="12" fill="url(#dotgrid)" stroke="#b4f079" stroke-width="1.5"/><rect x="387.4" y="375.9" width="128" height="22.2" fill="#000000" rx="2"/><text x="451.4" y="387" font-family="'JetBrains Mono', 'Fira Code', 'SF Mono', 'Cascadia Code', monospace" font-size="13" fill="#b4f079" text-anchor="middle" dominant-baseline="central" letter-spacing="0.12em">CONFIG SERVICE</text><rect x="383.4" y="395.59999999999997" width="136" height="39.599999999999994" fill="#000000" rx="2"/><text x="451.4" y="398.6" font-family="'JetBrains Mono', 'Fira Code', 'SF Mono', 'Cascadia Code', monospace" font-size="12" fill="#b4f079" opacity="0.6" text-anchor="middle" dominant-baseline="central" letter-spacing="0.12em">Feature flags</text><text x="451.4" y="415.40000000000003" font-family="'JetBrains Mono', 'Fira Code', 'SF Mono', 'Cascadia Code', monospace" font-size="12" fill="#b4f079" opacity="0.6" text-anchor="middle" dominant-baseline="central" letter-spacing="0.12em">Tenant settings</text>
<rect x="496.7" y="491" width="172" height="116" rx="12" fill="url(#dotgrid)" stroke="#b4f079" stroke-width="1.5"/><rect x="518.7" y="529.9" width="128" height="22.2" fill="#000000" rx="2"/><text x="582.7" y="541" font-family="'JetBrains Mono', 'Fira Code', 'SF Mono', 'Cascadia Code', monospace" font-size="13" fill="#b4f079" text-anchor="middle" dominant-baseline="central" letter-spacing="0.12em">BILLING ENGINE</text><rect x="502.70000000000005" y="549.6" width="160" height="39.599999999999994" fill="#000000" rx="2"/><text x="582.7" y="552.6" font-family="'JetBrains Mono', 'Fira Code', 'SF Mono', 'Cascadia Code', monospace" font-size="12" fill="#b4f079" opacity="0.6" text-anchor="middle" dominant-baseline="central" letter-spacing="0.12em">Usage aggregation</text><text x="582.7" y="569.4" font-family="'JetBrains Mono', 'Fira Code', 'SF Mono', 'Cascadia Code', monospace" font-size="12" fill="#b4f079" opacity="0.6" text-anchor="middle" dominant-baseline="central" letter-spacing="0.12em">Stripe integration</text>
<rect x="702.4" y="364" width="205.6" height="62" fill="url(#crosshatch)" stroke="none"/><line x1="702.4" y1="364" x2="702.4" y2="426" stroke="#b4f079" stroke-width="1.5"/><line x1="908" y1="364" x2="908" y2="426" stroke="#b4f079" stroke-width="1.5"/><ellipse cx="805.1999999999999" cy="364" rx="102.8" ry="10" fill="url(#crosshatch)" stroke="#b4f079" stroke-width="1.5"/><path d="M702.4,426 A102.8,10 0 0,0 908,426" fill="url(#crosshatch)" stroke="#b4f079" stroke-width="1.5"/><rect x="737.1999999999999" y="375.9" width="136" height="22.2" fill="#000000" rx="2"/><text x="805.1999999999999" y="387" font-family="'JetBrains Mono', 'Fira Code', 'SF Mono', 'Cascadia Code', monospace" font-size="13" fill="#b4f079" text-anchor="middle" dominant-baseline="central" letter-spacing="0.12em">TENANT REGISTRY</text><rect x="705.1999999999999" y="395.6" width="200" height="22.799999999999997" fill="#000000" rx="2"/><text x="805.1999999999999" y="407" font-family="'JetBrains Mono', 'Fira Code', 'SF Mono', 'Cascadia Code', monospace" font-size="12" fill="#b4f079" opacity="0.6" text-anchor="middle" dominant-baseline="central" letter-spacing="0.12em">Tenant → region mapping</text>
<text x="192.45" y="332.5" font-family="'JetBrains Mono', 'Fira Code', 'SF Mono', 'Cascadia Code', monospace" font-size="12" fill="#b4f079" opacity="0.85" text-anchor="middle">JWT verify</text>
<text x="175.85000000000002" y="602.5" font-family="'JetBrains Mono', 'Fira Code', 'SF Mono', 'Cascadia Code', monospace" font-size="12" fill="#b4f079" opacity="0.85" text-anchor="middle">Write path</text>
<text x="268.35" y="606.75" font-family="'JetBrains Mono', 'Fira Code', 'SF Mono', 'Cascadia Code', monospace" font-size="12" fill="#b4f079" opacity="0.85" text-anchor="middle">Read path</text>
<text x="239" y="642.75" font-family="'JetBrains Mono', 'Fira Code', 'SF Mono', 'Cascadia Code', monospace" font-size="12" fill="#b4f079" opacity="0.85" text-anchor="middle">Streaming replication</text>
<text x="351.45" y="322" font-family="'JetBrains Mono', 'Fira Code', 'SF Mono', 'Cascadia Code', monospace" font-size="12" fill="#b4f079" opacity="0.85" text-anchor="middle">JWT verify</text>
<text x="431.2" y="641" font-family="'JetBrains Mono', 'Fira Code', 'SF Mono', 'Cascadia Code', monospace" font-size="12" fill="#b4f079" opacity="0.85" text-anchor="middle">PII operations</text>
<text x="561.3" y="641" font-family="'JetBrains Mono', 'Fira Code', 'SF Mono', 'Cascadia Code', monospace" font-size="12" fill="#b4f079" opacity="0.85" text-anchor="middle">Non-PII data</text>
<text x="615.7" y="362.5" font-family="'JetBrains Mono', 'Fira Code', 'SF Mono', 'Cascadia Code', monospace" font-size="12" fill="#b4f079" opacity="0.85" text-anchor="middle">JWT verify</text>
<text x="824.3" y="641" font-family="'JetBrains Mono', 'Fira Code', 'SF Mono', 'Cascadia Code', monospace" font-size="12" fill="#b4f079" opacity="0.85" text-anchor="middle">CRUD</text>
<text x="806.45" y="339" font-family="'JetBrains Mono', 'Fira Code', 'SF Mono', 'Cascadia Code', monospace" font-size="12" fill="#b4f079" opacity="0.85" text-anchor="middle">Lookup region</text>
<text x="517.05" y="476" font-family="'JetBrains Mono', 'Fira Code', 'SF Mono', 'Cascadia Code', monospace" font-size="12" fill="#b4f079" opacity="0.85" text-anchor="middle">Usage events</text>
<text x="132.5" y="74" font-family="'Inter', 'Helvetica Neue', Arial, sans-serif" font-size="14" fill="#ffffff" font-weight="700">No cross-region data flow:</text><text x="132.5" y="92" font-family="'JetBrains Mono', 'Fira Code', 'SF Mono', 'Cascadia Code', monospace" font-size="11" fill="#b4f079" opacity="0.7">each island is a complete</text><text x="132.5" y="110" font-family="'JetBrains Mono', 'Fira Code', 'SF Mono', 'Cascadia Code', monospace" font-size="11" fill="#b4f079" opacity="0.7">isolated deployment</text>
<text x="388" y="895" font-family="'Inter', 'Helvetica Neue', Arial, sans-serif" font-size="14" fill="#ffffff" font-weight="700">GDPR data residency:</text><text x="388" y="913" font-family="'JetBrains Mono', 'Fira Code', 'SF Mono', 'Cascadia Code', monospace" font-size="11" fill="#b4f079" opacity="0.7">PII never leaves EU region</text><text x="388" y="931" font-family="'JetBrains Mono', 'Fira Code', 'SF Mono', 'Cascadia Code', monospace" font-size="11" fill="#b4f079" opacity="0.7">Right to erasure supported</text>
<text x="900.9" y="94" font-family="'Inter', 'Helvetica Neue', Arial, sans-serif" font-size="14" fill="#ffffff" font-weight="700">Control plane is metadata only:</text><text x="900.9" y="112" font-family="'JetBrains Mono', 'Fira Code', 'SF Mono', 'Cascadia Code', monospace" font-size="11" fill="#b4f079" opacity="0.7">no customer data transits</text><text x="900.9" y="130" font-family="'JetBrains Mono', 'Fira Code', 'SF Mono', 'Cascadia Code', monospace" font-size="11" fill="#b4f079" opacity="0.7">through global services</text>
</g>
</svg>