<svg xmlns="http://www.w3.org/2000/svg" viewBox="0 0 1084 634" width="1084" height="634">
<defs>
  <pattern id="dotgrid" width="8" height="8" patternUnits="userSpaceOnUse">
    <rect width="8" height="8" fill="#000000"/>
    <circle cx="4" cy="4" r="0.8" fill="#b4f079" opacity="0.7"/>
  </pattern>
  <pattern id="crosshatch" width="8" height="8" patternUnits="userSpaceOnUse">
    <rect width="8" height="8" fill="#000000"/>
    <path d="M0 8L8 0M-1 1L1 -1M7 9L9 7" stroke="#b4f079" stroke-width="0.8" opacity="0.2"/>
  </pattern>
  <pattern id="hero" width="6" height="6" patternUnits="userSpaceOnUse">
    <rect width="6" height="6" fill="#3d6b23"/>
    <circle cx="3" cy="3" r="0.6" fill="#5a9a35" opacity="0.5"/>
  </pattern>
  <marker id="arrowhead" markerWidth="10" markerHeight="7" refX="9" refY="3.5" orient="auto" markerUnits="strokeWidth">
    <polygon points="0 0, 10 3.5, 0 7" fill="#b4f079"/>
  </marker>
  <marker id="arrowhead-reverse" markerWidth="10" markerHeight="7" refX="1" refY="3.5" orient="auto" markerUnits="strokeWidth">
    <polygon points="10 0, 0 3.5, 10 7" fill="#b4f079"/>
  </marker>
</defs>
<rect width="100%" height="100%" fill="#000000"/>
<g class="diagram">
<text x="30" y="34" font-family="'Inter', 'Helvetica Neue', Arial, sans-serif" font-size="15" fill="#ffffff" font-weight="700">Microservices deployment topology: same-rank tier alignment</text>
<line x1="231.56000000000003" y1="132" x2="204.73333333333332" y2="170" stroke="#b4f079" stroke-width="1.5" marker-end="url(#arrowhead)"/>
<line x1="498.16" y1="132" x2="421.9" y2="187" stroke="#b4f079" stroke-width="1.5" marker-end="url(#arrowhead)"/>
<polyline points="371.88000000000005,132 371.88000000000005,151 225.89999999999998,151 247.06666666666666,170" fill="none" stroke="#b4f079" stroke-width="1.5" marker-end="url(#arrowhead)"/>
<line x1="629.12" y1="132" x2="624" y2="187" stroke="#b4f079" stroke-width="1.5" marker-end="url(#arrowhead)"/>
<polyline points="225.89999999999998,320 225.89999999999998,339 112.5,339 112.5,358" fill="none" stroke="#b4f079" stroke-width="1.5" marker-end="url(#arrowhead)"/>
<line x1="225.89999999999998" y1="320" x2="265.6666666666667" y2="358" stroke="#b4f079" stroke-width="1.5" marker-end="url(#arrowhead)"/>
<polyline points="421.9,303 421.9,346 112.5,346 189,399.3333333333333" fill="none" stroke="#b4f079" stroke-width="1.5" marker-end="url(#arrowhead)"/>
<polyline points="421.9,303 421.9,332 290,332 314.3333333333333,358" fill="none" stroke="#b4f079" stroke-width="1.5" marker-end="url(#arrowhead)"/>
<line x1="421.9" y1="303" x2="454" y2="358" stroke="#b4f079" stroke-width="1.5" marker-end="url(#arrowhead)"/>
<polyline points="624,303 624,330.5 481.5,330.5 509,358" fill="none" stroke="#b4f079" stroke-width="1.5" marker-end="url(#arrowhead)"/>
<polyline points="624,303 624,330.5 706,330.5 706,358" fill="none" stroke="#b4f079" stroke-width="1.5" marker-end="url(#arrowhead)"/>
<line x1="112.5" y1="474" x2="159.7" y2="512" stroke="#b4f079" stroke-width="1.5" marker-end="url(#arrowhead)"/>
<line x1="290" y1="474" x2="313.29999999999995" y2="512" stroke="#b4f079" stroke-width="1.5" marker-end="url(#arrowhead)"/>
<line x1="481.5" y1="474" x2="467.09999999999997" y2="512" stroke="#b4f079" stroke-width="1.5" marker-end="url(#arrowhead)"/>
<line x1="706" y1="474" x2="658.5999999999999" y2="512" stroke="#b4f079" stroke-width="1.5" marker-end="url(#arrowhead)"/>
<line x1="209" y1="416" x2="189" y2="432.6666666666667" stroke="#b4f079" stroke-width="1.5" marker-end="url(#arrowhead)"/>
<line x1="371" y1="416" x2="592" y2="399.3333333333333" stroke="#b4f079" stroke-width="1.5" stroke-dasharray="6 4" marker-end="url(#arrowhead)"/>
<line x1="572" y1="416" x2="592" y2="432.6666666666667" stroke="#b4f079" stroke-width="1.5" stroke-dasharray="6 4" marker-end="url(#arrowhead)"/>
<rect x="193.73000000000002" y="144" width="40" height="22" rx="4" fill="#000000"/>
<rect x="429.53" y="148.5" width="61" height="22" rx="4" fill="#000000"/>
<rect x="286.89" y="144" width="54" height="22" rx="4" fill="#000000"/>
<rect x="606.56" y="148.5" width="40" height="22" rx="4" fill="#000000"/>
<rect x="218.2" y="328" width="68" height="22" rx="4" fill="#000000"/>
<rect x="306.95" y="319.5" width="68" height="22" rx="4" fill="#000000"/>
<rect x="432.7" y="305.75" width="68" height="22" rx="4" fill="#000000"/>
<rect x="166" y="482" width="96" height="22" rx="4" fill="#000000"/>
<rect x="418.5" y="341.75" width="96" height="22" rx="4" fill="#000000"/>
<rect x="549" y="482" width="96" height="22" rx="4" fill="#000000"/>
<circle cx="231.56000000000003" cy="67" r="7" fill="none" stroke="#b4f079" stroke-width="1.5"/><line x1="231.56000000000003" y1="74" x2="231.56000000000003" y2="96" stroke="#b4f079" stroke-width="1.5"/><line x1="217.56000000000003" y1="80" x2="245.56000000000003" y2="80" stroke="#b4f079" stroke-width="1.5"/><line x1="231.56000000000003" y1="96" x2="221.56000000000003" y2="112" stroke="#b4f079" stroke-width="1.5"/><line x1="231.56000000000003" y1="96" x2="241.56000000000003" y2="112" stroke="#b4f079" stroke-width="1.5"/><text x="231.56000000000003" y="126" font-family="'JetBrains Mono', 'Fira Code', 'SF Mono', 'Cascadia Code', monospace" font-size="13" fill="#b4f079" text-anchor="middle" letter-spacing="0.12em">MOBILE CLIENT</text>
<circle cx="498.16" cy="67" r="7" fill="none" stroke="#b4f079" stroke-width="1.5"/><line x1="498.16" y1="74" x2="498.16" y2="96" stroke="#b4f079" stroke-width="1.5"/><line x1="484.16" y1="80" x2="512.1600000000001" y2="80" stroke="#b4f079" stroke-width="1.5"/><line x1="498.16" y1="96" x2="488.16" y2="112" stroke="#b4f079" stroke-width="1.5"/><line x1="498.16" y1="96" x2="508.16" y2="112" stroke="#b4f079" stroke-width="1.5"/><text x="498.16" y="126" font-family="'JetBrains Mono', 'Fira Code', 'SF Mono', 'Cascadia Code', monospace" font-size="13" fill="#b4f079" text-anchor="middle" letter-spacing="0.12em">WEB CLIENT</text>
<circle cx="371.88000000000005" cy="67" r="7" fill="none" stroke="#b4f079" stroke-width="1.5"/><line x1="371.88000000000005" y1="74" x2="371.88000000000005" y2="96" stroke="#b4f079" stroke-width="1.5"/><line x1="357.88000000000005" y1="80" x2="385.88000000000005" y2="80" stroke="#b4f079" stroke-width="1.5"/><line x1="371.88000000000005" y1="96" x2="361.88000000000005" y2="112" stroke="#b4f079" stroke-width="1.5"/><line x1="371.88000000000005" y1="96" x2="381.88000000000005" y2="112" stroke="#b4f079" stroke-width="1.5"/><text x="371.88000000000005" y="126" font-family="'JetBrains Mono', 'Fira Code', 'SF Mono', 'Cascadia Code', monospace" font-size="13" fill="#b4f079" text-anchor="middle" letter-spacing="0.12em">PARTNER API</text>
<circle cx="629.12" cy="67" r="7" fill="none" stroke="#b4f079" stroke-width="1.5"/><line x1="629.12" y1="74" x2="629.12" y2="96" stroke="#b4f079" stroke-width="1.5"/><line x1="615.12" y1="80" x2="643.12" y2="80" stroke="#b4f079" stroke-width="1.5"/><line x1="629.12" y1="96" x2="619.12" y2="112" stroke="#b4f079" stroke-width="1.5"/><line x1="629.12" y1="96" x2="639.12" y2="112" stroke="#b4f079" stroke-width="1.5"/><text x="629.12" y="126" font-family="'JetBrains Mono', 'Fira Code', 'SF Mono', 'Cascadia Code', monospace" font-size="13" fill="#b4f079" text-anchor="middle" letter-spacing="0.12em">INTERNAL CLI</text>
<rect x="154.39999999999998" y="170" width="143" height="150" rx="12" fill="none" stroke="#b4f079" stroke-width="1.5"/><rect x="159.14999999999998" y="174.75" width="133.5" height="140.5" rx="8" fill="url(#hero)" stroke="#b4f079" stroke-width="1"/><rect x="173.89999999999998" y="225.9" width="104" height="22.2" fill="#000000" rx="2"/><text x="225.89999999999998" y="237" font-family="'JetBrains Mono', 'Fira Code', 'SF Mono', 'Cascadia Code', monospace" font-size="13" fill="#b4f079" text-anchor="middle" dominant-baseline="central" letter-spacing="0.12em">API GATEWAY</text><rect x="161.89999999999998" y="245.60000000000002" width="128" height="56.39999999999999" fill="#000000" rx="2"/><text x="225.89999999999998" y="240.2" font-family="'JetBrains Mono', 'Fira Code', 'SF Mono', 'Cascadia Code', monospace" font-size="12" fill="#b4f079" opacity="0.6" text-anchor="middle" dominant-baseline="central" letter-spacing="0.12em">Kong</text><text x="225.89999999999998" y="257" font-family="'JetBrains Mono', 'Fira Code', 'SF Mono', 'Cascadia Code', monospace" font-size="12" fill="#b4f079" opacity="0.6" text-anchor="middle" dominant-baseline="central" letter-spacing="0.12em">Rate limiting</text><text x="225.89999999999998" y="273.79999999999995" font-family="'JetBrains Mono', 'Fira Code', 'SF Mono', 'Cascadia Code', monospace" font-size="12" fill="#b4f079" opacity="0.6" text-anchor="middle" dominant-baseline="central" letter-spacing="0.12em">JWT validation</text>
<rect x="317.4" y="187" width="209" height="116" rx="12" fill="none" stroke="#b4f079" stroke-width="1.5"/><rect x="322.15" y="191.75" width="199.5" height="106.5" rx="8" fill="url(#hero)" stroke="#b4f079" stroke-width="1"/><rect x="341.9" y="225.9" width="160" height="22.2" fill="#000000" rx="2"/><text x="421.9" y="237" font-family="'JetBrains Mono', 'Fira Code', 'SF Mono', 'Cascadia Code', monospace" font-size="13" fill="#b4f079" text-anchor="middle" dominant-baseline="central" letter-spacing="0.12em">GRAPHQL FEDERATION</text><rect x="333.9" y="245.59999999999997" width="176" height="39.599999999999994" fill="#000000" rx="2"/><text x="421.9" y="248.6" font-family="'JetBrains Mono', 'Fira Code', 'SF Mono', 'Cascadia Code', monospace" font-size="12" fill="#b4f079" opacity="0.6" text-anchor="middle" dominant-baseline="central" letter-spacing="0.12em">Apollo Router</text><text x="421.9" y="265.4" font-family="'JetBrains Mono', 'Fira Code', 'SF Mono', 'Cascadia Code', monospace" font-size="12" fill="#b4f079" opacity="0.6" text-anchor="middle" dominant-baseline="central" letter-spacing="0.12em">Subgraph composition</text>
<rect x="546.4" y="187" width="155.2" height="116" rx="12" fill="none" stroke="#b4f079" stroke-width="1.5"/><rect x="551.15" y="191.75" width="145.7" height="106.5" rx="8" fill="url(#hero)" stroke="#b4f079" stroke-width="1"/><rect x="568" y="225.9" width="112" height="22.2" fill="#000000" rx="2"/><text x="624" y="237" font-family="'JetBrains Mono', 'Fira Code', 'SF Mono', 'Cascadia Code', monospace" font-size="13" fill="#b4f079" text-anchor="middle" dominant-baseline="central" letter-spacing="0.12em">GRPC GATEWAY</text><rect x="552" y="245.59999999999997" width="144" height="39.599999999999994" fill="#000000" rx="2"/><text x="624" y="248.6" font-family="'JetBrains Mono', 'Fira Code', 'SF Mono', 'Cascadia Code', monospace" font-size="12" fill="#b4f079" opacity="0.6" text-anchor="middle" dominant-baseline="central" letter-spacing="0.12em">Envoy</text><text x="624" y="265.4" font-family="'JetBrains Mono', 'Fira Code', 'SF Mono', 'Cascadia Code', monospace" font-size="12" fill="#b4f079" opacity="0.6" text-anchor="middle" dominant-baseline="central" letter-spacing="0.12em">mTLS termination</text>
<rect x="36" y="358" width="153" height="116" rx="12" fill="url(#dotgrid)" stroke="#b4f079" stroke-width="1.5"/><rect x="56.5" y="396.9" width="112" height="22.2" fill="#000000" rx="2"/><text x="112.5" y="408" font-family="'JetBrains Mono', 'Fira Code', 'SF Mono', 'Cascadia Code', monospace" font-size="13" fill="#b4f079" text-anchor="middle" dominant-baseline="central" letter-spacing="0.12em">USER SERVICE</text><rect x="68.5" y="416.59999999999997" width="88" height="39.599999999999994" fill="#000000" rx="2"/><text x="112.5" y="419.6" font-family="'JetBrains Mono', 'Fira Code', 'SF Mono', 'Cascadia Code', monospace" font-size="12" fill="#b4f079" opacity="0.6" text-anchor="middle" dominant-baseline="central" letter-spacing="0.12em">Go</text><text x="112.5" y="436.40000000000003" font-family="'JetBrains Mono', 'Fira Code', 'SF Mono', 'Cascadia Code', monospace" font-size="12" fill="#b4f079" opacity="0.6" text-anchor="middle" dominant-baseline="central" letter-spacing="0.12em">Port 8001</text>
<rect x="209" y="358" width="162" height="116" rx="12" fill="url(#dotgrid)" stroke="#b4f079" stroke-width="1.5"/><rect x="230" y="396.9" width="120" height="22.2" fill="#000000" rx="2"/><text x="290" y="408" font-family="'JetBrains Mono', 'Fira Code', 'SF Mono', 'Cascadia Code', monospace" font-size="13" fill="#b4f079" text-anchor="middle" dominant-baseline="central" letter-spacing="0.12em">ORDER SERVICE</text><rect x="246" y="416.59999999999997" width="88" height="39.599999999999994" fill="#000000" rx="2"/><text x="290" y="419.6" font-family="'JetBrains Mono', 'Fira Code', 'SF Mono', 'Cascadia Code', monospace" font-size="12" fill="#b4f079" opacity="0.6" text-anchor="middle" dominant-baseline="central" letter-spacing="0.12em">Go</text><text x="290" y="436.40000000000003" font-family="'JetBrains Mono', 'Fira Code', 'SF Mono', 'Cascadia Code', monospace" font-size="12" fill="#b4f079" opacity="0.6" text-anchor="middle" dominant-baseline="central" letter-spacing="0.12em">Port 8002</text>
<rect x="391" y="358" width="181" height="116" rx="12" fill="url(#dotgrid)" stroke="#b4f079" stroke-width="1.5"/><rect x="413.5" y="396.9" width="136" height="22.2" fill="#000000" rx="2"/><text x="481.5" y="408" font-family="'JetBrains Mono', 'Fira Code', 'SF Mono', 'Cascadia Code', monospace" font-size="13" fill="#b4f079" text-anchor="middle" dominant-baseline="central" letter-spacing="0.12em">CATALOG SERVICE</text><rect x="437.5" y="416.59999999999997" width="88" height="39.599999999999994" fill="#000000" rx="2"/><text x="481.5" y="419.6" font-family="'JetBrains Mono', 'Fira Code', 'SF Mono', 'Cascadia Code', monospace" font-size="12" fill="#b4f079" opacity="0.6" text-anchor="middle" dominant-baseline="central" letter-spacing="0.12em">Rust</text><text x="481.5" y="436.40000000000003" font-family="'JetBrains Mono', 'Fira Code', 'SF Mono', 'Cascadia Code', monospace" font-size="12" fill="#b4f079" opacity="0.6" text-anchor="middle" dominant-baseline="central" letter-spacing="0.12em">Port 8003</text>
<rect x="592" y="358" width="228" height="116" rx="12" fill="url(#dotgrid)" stroke="#b4f079" stroke-width="1.5"/><rect x="618" y="396.9" width="176" height="22.2" fill="#000000" rx="2"/><text x="706" y="408" font-family="'JetBrains Mono', 'Fira Code', 'SF Mono', 'Cascadia Code', monospace" font-size="13" fill="#b4f079" text-anchor="middle" dominant-baseline="central" letter-spacing="0.12em">NOTIFICATION SERVICE</text><rect x="662" y="416.59999999999997" width="88" height="39.599999999999994" fill="#000000" rx="2"/><text x="706" y="419.6" font-family="'JetBrains Mono', 'Fira Code', 'SF Mono', 'Cascadia Code', monospace" font-size="12" fill="#b4f079" opacity="0.6" text-anchor="middle" dominant-baseline="central" letter-spacing="0.12em">Python</text><text x="706" y="436.40000000000003" font-family="'JetBrains Mono', 'Fira Code', 'SF Mono', 'Cascadia Code', monospace" font-size="12" fill="#b4f079" opacity="0.6" text-anchor="middle" dominant-baseline="central" letter-spacing="0.12em">Port 8004</text>
<rect x="92.89999999999998" y="522" width="133.6" height="62" fill="url(#crosshatch)" stroke="none"/><line x1="92.89999999999998" y1="522" x2="92.89999999999998" y2="584" stroke="#b4f079" stroke-width="1.5"/><line x1="226.49999999999997" y1="522" x2="226.49999999999997" y2="584" stroke="#b4f079" stroke-width="1.5"/><ellipse cx="159.7" cy="522" rx="66.8" ry="10" fill="url(#crosshatch)" stroke="#b4f079" stroke-width="1.5"/><path d="M92.89999999999998,584 A66.8,10 0 0,0 226.49999999999997,584" fill="url(#crosshatch)" stroke="#b4f079" stroke-width="1.5"/><rect x="123.69999999999999" y="533.9" width="72" height="22.2" fill="#000000" rx="2"/><text x="159.7" y="545" font-family="'JetBrains Mono', 'Fira Code', 'SF Mono', 'Cascadia Code', monospace" font-size="13" fill="#b4f079" text-anchor="middle" dominant-baseline="central" letter-spacing="0.12em">USER DB</text><rect x="99.69999999999999" y="553.6" width="120" height="22.799999999999997" fill="#000000" rx="2"/><text x="159.7" y="565" font-family="'JetBrains Mono', 'Fira Code', 'SF Mono', 'Cascadia Code', monospace" font-size="12" fill="#b4f079" opacity="0.6" text-anchor="middle" dominant-baseline="central" letter-spacing="0.12em">PostgreSQL 16</text>
<rect x="246.49999999999997" y="522" width="133.6" height="62" fill="url(#crosshatch)" stroke="none"/><line x1="246.49999999999997" y1="522" x2="246.49999999999997" y2="584" stroke="#b4f079" stroke-width="1.5"/><line x1="380.09999999999997" y1="522" x2="380.09999999999997" y2="584" stroke="#b4f079" stroke-width="1.5"/><ellipse cx="313.29999999999995" cy="522" rx="66.8" ry="10" fill="url(#crosshatch)" stroke="#b4f079" stroke-width="1.5"/><path d="M246.49999999999997,584 A66.8,10 0 0,0 380.09999999999997,584" fill="url(#crosshatch)" stroke="#b4f079" stroke-width="1.5"/><rect x="273.29999999999995" y="533.9" width="80" height="22.2" fill="#000000" rx="2"/><text x="313.29999999999995" y="545" font-family="'JetBrains Mono', 'Fira Code', 'SF Mono', 'Cascadia Code', monospace" font-size="13" fill="#b4f079" text-anchor="middle" dominant-baseline="central" letter-spacing="0.12em">ORDER DB</text><rect x="253.29999999999995" y="553.6" width="120" height="22.799999999999997" fill="#000000" rx="2"/><text x="313.29999999999995" y="565" font-family="'JetBrains Mono', 'Fira Code', 'SF Mono', 'Cascadia Code', monospace" font-size="12" fill="#b4f079" opacity="0.6" text-anchor="middle" dominant-baseline="central" letter-spacing="0.12em">PostgreSQL 16</text>
<rect x="400.09999999999997" y="522" width="134" height="62" fill="url(#crosshatch)" stroke="none"/><line x1="400.09999999999997" y1="522" x2="400.09999999999997" y2="584" stroke="#b4f079" stroke-width="1.5"/><line x1="534.0999999999999" y1="522" x2="534.0999999999999" y2="584" stroke="#b4f079" stroke-width="1.5"/><ellipse cx="467.09999999999997" cy="522" rx="67" ry="10" fill="url(#crosshatch)" stroke="#b4f079" stroke-width="1.5"/><path d="M400.09999999999997,584 A67,10 0 0,0 534.0999999999999,584" fill="url(#crosshatch)" stroke="#b4f079" stroke-width="1.5"/><rect x="419.09999999999997" y="533.9" width="96" height="22.2" fill="#000000" rx="2"/><text x="467.09999999999997" y="545" font-family="'JetBrains Mono', 'Fira Code', 'SF Mono', 'Cascadia Code', monospace" font-size="13" fill="#b4f079" text-anchor="middle" dominant-baseline="central" letter-spacing="0.12em">CATALOG DB</text><rect x="423.09999999999997" y="553.6" width="88" height="22.799999999999997" fill="#000000" rx="2"/><text x="467.09999999999997" y="565" font-family="'JetBrains Mono', 'Fira Code', 'SF Mono', 'Cascadia Code', monospace" font-size="12" fill="#b4f079" opacity="0.6" text-anchor="middle" dominant-baseline="central" letter-spacing="0.12em">MongoDB 7</text>
<rect x="554.0999999999999" y="522" width="209" height="62" fill="url(#crosshatch)" stroke="none"/><line x1="554.0999999999999" y1="522" x2="554.0999999999999" y2="584" stroke="#b4f079" stroke-width="1.5"/><line x1="763.0999999999999" y1="522" x2="763.0999999999999" y2="584" stroke="#b4f079" stroke-width="1.5"/><ellipse cx="658.5999999999999" cy="522" rx="104.5" ry="10" fill="url(#crosshatch)" stroke="#b4f079" stroke-width="1.5"/><path d="M554.0999999999999,584 A104.5,10 0 0,0 763.0999999999999,584" fill="url(#crosshatch)" stroke="#b4f079" stroke-width="1.5"/><rect x="578.5999999999999" y="533.9" width="160" height="22.2" fill="#000000" rx="2"/><text x="658.5999999999999" y="545" font-family="'JetBrains Mono', 'Fira Code', 'SF Mono', 'Cascadia Code', monospace" font-size="13" fill="#b4f079" text-anchor="middle" dominant-baseline="central" letter-spacing="0.12em">NOTIFICATION QUEUE</text><rect x="618.5999999999999" y="553.6" width="80" height="22.799999999999997" fill="#000000" rx="2"/><text x="658.5999999999999" y="565" font-family="'JetBrains Mono', 'Fira Code', 'SF Mono', 'Cascadia Code', monospace" font-size="12" fill="#b4f079" opacity="0.6" text-anchor="middle" dominant-baseline="central" letter-spacing="0.12em">RabbitMQ</text>
<text x="213.73000000000002" y="159" font-family="'JetBrains Mono', 'Fira Code', 'SF Mono', 'Cascadia Code', monospace" font-size="12" fill="#b4f079" opacity="0.85" text-anchor="middle">REST</text>
<text x="460.03" y="163.5" font-family="'JetBrains Mono', 'Fira Code', 'SF Mono', 'Cascadia Code', monospace" font-size="12" fill="#b4f079" opacity="0.85" text-anchor="middle">GraphQL</text>
<text x="313.89" y="159" font-family="'JetBrains Mono', 'Fira Code', 'SF Mono', 'Cascadia Code', monospace" font-size="12" fill="#b4f079" opacity="0.85" text-anchor="middle">OAuth2</text>
<text x="626.56" y="163.5" font-family="'JetBrains Mono', 'Fira Code', 'SF Mono', 'Cascadia Code', monospace" font-size="12" fill="#b4f079" opacity="0.85" text-anchor="middle">gRPC</text>
<text x="252.2" y="343" font-family="'JetBrains Mono', 'Fira Code', 'SF Mono', 'Cascadia Code', monospace" font-size="12" fill="#b4f079" opacity="0.85" text-anchor="middle">Subgraph</text>
<text x="340.95" y="334.5" font-family="'JetBrains Mono', 'Fira Code', 'SF Mono', 'Cascadia Code', monospace" font-size="12" fill="#b4f079" opacity="0.85" text-anchor="middle">Subgraph</text>
<text x="466.7" y="320.75" font-family="'JetBrains Mono', 'Fira Code', 'SF Mono', 'Cascadia Code', monospace" font-size="12" fill="#b4f079" opacity="0.85" text-anchor="middle">Subgraph</text>
<text x="214" y="497" font-family="'JetBrains Mono', 'Fira Code', 'SF Mono', 'Cascadia Code', monospace" font-size="12" fill="#b4f079" opacity="0.85" text-anchor="middle">Lookup buyer</text>
<text x="466.5" y="356.75" font-family="'JetBrains Mono', 'Fira Code', 'SF Mono', 'Cascadia Code', monospace" font-size="12" fill="#b4f079" opacity="0.85" text-anchor="middle">Order events</text>
<text x="597" y="497" font-family="'JetBrains Mono', 'Fira Code', 'SF Mono', 'Cascadia Code', monospace" font-size="12" fill="#b4f079" opacity="0.85" text-anchor="middle">Stock alerts</text>
<text x="836" y="350" font-family="'Inter', 'Helvetica Neue', Arial, sans-serif" font-size="14" fill="#ffffff" font-weight="700">Same-rank constraint:</text><text x="836" y="368" font-family="'JetBrains Mono', 'Fira Code', 'SF Mono', 'Cascadia Code', monospace" font-size="11" fill="#b4f079" opacity="0.7">4 tiers aligned horizontally</text><text x="836" y="386" font-family="'JetBrains Mono', 'Fira Code', 'SF Mono', 'Cascadia Code', monospace" font-size="11" fill="#b4f079" opacity="0.7">testing layout alignment</text>
<text x="844" y="430" font-family="'Inter', 'Helvetica Neue', Arial, sans-serif" font-size="14" fill="#ffffff" font-weight="700">Cross-tier calls:</text><text x="844" y="448" font-family="'JetBrains Mono', 'Fira Code', 'SF Mono', 'Cascadia Code', monospace" font-size="11" fill="#b4f079" opacity="0.7">services communicate</text><text x="844" y="466" font-family="'JetBrains Mono', 'Fira Code', 'SF Mono', 'Cascadia Code', monospace" font-size="11" fill="#b4f079" opacity="0.7">via gRPC internally</text>
</g>
</svg>