<svg xmlns="http://www.w3.org/2000/svg" viewBox="0 0 1515.4 666" width="1515.4" height="666">
<defs>
  <pattern id="dotgrid" width="8" height="8" patternUnits="userSpaceOnUse">
    <rect width="8" height="8" fill="#000000"/>
    <circle cx="4" cy="4" r="0.8" fill="#b4f079" opacity="0.7"/>
  </pattern>
  <pattern id="crosshatch" width="8" height="8" patternUnits="userSpaceOnUse">
    <rect width="8" height="8" fill="#000000"/>
    <path d="M0 8L8 0M-1 1L1 -1M7 9L9 7" stroke="#b4f079" stroke-width="0.8" opacity="0.2"/>
  </pattern>
  <pattern id="hero" width="6" height="6" patternUnits="userSpaceOnUse">
    <rect width="6" height="6" fill="#3d6b23"/>
    <circle cx="3" cy="3" r="0.6" fill="#5a9a35" opacity="0.5"/>
  </pattern>
  <marker id="arrowhead" markerWidth="10" markerHeight="7" refX="9" refY="3.5" orient="auto" markerUnits="strokeWidth">
    <polygon points="0 0, 10 3.5, 0 7" fill="#b4f079"/>
  </marker>
  <marker id="arrowhead-reverse" markerWidth="10" markerHeight="7" refX="1" refY="3.5" orient="auto" markerUnits="strokeWidth">
    <polygon points="10 0, 0 3.5, 10 7" fill="#b4f079"/>
  </marker>
</defs>
<rect width="100%" height="100%" fill="#000000"/>
<g class="diagram">
<text x="30" y="34" font-family="'Inter', 'Helvetica Neue', Arial, sans-serif" font-size="15" fill="#ffffff" font-weight="700">Data mesh: domain-owned data products with consumer-producer contracts</text>
<polyline points="345.66,132 345.66,170.5 545.8,170.5 545.8,209" fill="none" stroke="#b4f079" stroke-width="1.5" marker-end="url(#arrowhead)"/>
<polyline points="190.66000000000005,132 190.66000000000005,170.5 545.8,170.5 545.8,209" fill="none" stroke="#b4f079" stroke-width="1.5" marker-end="url(#arrowhead)"/>
<line x1="519.3800000000001" y1="132" x2="545.8" y2="209" stroke="#b4f079" stroke-width="1.5" marker-end="url(#arrowhead)"/>
<polyline points="683.74,132 683.74,170.5 545.8,170.5 545.8,209" fill="none" stroke="#b4f079" stroke-width="1.5" marker-end="url(#arrowhead)"/>
<polyline points="1077.98,132 1077.98,170.5 545.8,170.5 545.8,209" fill="none" stroke="#b4f079" stroke-width="1.5" marker-end="url(#arrowhead)"/>
<line x1="468.19999999999993" y1="284" x2="217" y2="284" stroke="#b4f079" stroke-width="1.5" stroke-dasharray="6 4" marker-end="url(#arrowhead)"/>
<line x1="623.4" y1="284" x2="653.4" y2="284" stroke="#b4f079" stroke-width="1.5" stroke-dasharray="6 4" marker-end="url(#arrowhead)"/>
<line x1="623.4" y1="284" x2="867.4" y2="284" stroke="#b4f079" stroke-width="1.5" stroke-dasharray="6 4" marker-end="url(#arrowhead)"/>
<polyline points="545.8,359 545.8,397.5 760.7,397.5 760.7,436" fill="none" stroke="#b4f079" stroke-width="1.5" stroke-dasharray="6 4" marker-end="url(#arrowhead)"/>
<line x1="623.4" y1="284" x2="1081.4" y2="284" stroke="#b4f079" stroke-width="1.5" stroke-dasharray="6 4" marker-end="url(#arrowhead)"/>
<line x1="468.19999999999993" y1="284" x2="438.20000000000005" y2="284" stroke="#b4f079" stroke-width="1.5" stroke-dasharray="6 4" marker-end="url(#arrowhead)"/>
<line x1="545.8" y1="359" x2="535.7" y2="436" stroke="#b4f079" stroke-width="1.5" stroke-dasharray="6 4" marker-end="url(#arrowhead)"/>
<line x1="345.66" y1="132" x2="342.6" y2="192" stroke="#b4f079" stroke-width="1.5" marker-end="url(#arrowhead)"/>
<polyline points="345.66,132 345.66,388 535.7,388 535.7,436" fill="none" stroke="#b4f079" stroke-width="1.5" marker-end="url(#arrowhead)"/>
<polyline points="190.66000000000005,132 190.66000000000005,388 535.7,388 535.7,436" fill="none" stroke="#b4f079" stroke-width="1.5" marker-end="url(#arrowhead)"/>
<line x1="190.66000000000005" y1="132" x2="126.5" y2="192" stroke="#b4f079" stroke-width="1.5" marker-end="url(#arrowhead)"/>
<polyline points="519.3800000000001,132 519.3800000000001,162 745.4,162 745.4,192" fill="none" stroke="#b4f079" stroke-width="1.5" marker-end="url(#arrowhead)"/>
<polyline points="519.3800000000001,132 519.3800000000001,162 342.6,162 342.6,192" fill="none" stroke="#b4f079" stroke-width="1.5" marker-end="url(#arrowhead)"/>
<polyline points="683.74,132 683.74,162 959.4,162 959.4,192" fill="none" stroke="#b4f079" stroke-width="1.5" marker-end="url(#arrowhead)"/>
<line x1="683.74" y1="132" x2="745.4" y2="192" stroke="#b4f079" stroke-width="1.5" marker-end="url(#arrowhead)"/>
<polyline points="1077.98,132 1077.98,162 1173.4,162 1173.4,192" fill="none" stroke="#b4f079" stroke-width="1.5" marker-end="url(#arrowhead)"/>
<polyline points="1077.98,132 1077.98,162 959.4,162 959.4,192" fill="none" stroke="#b4f079" stroke-width="1.5" marker-end="url(#arrowhead)"/>
<polyline points="866.82,132 866.82,162 745.4,162 745.4,192" fill="none" stroke="#b4f079" stroke-width="1.5" marker-end="url(#arrowhead)"/>
<line x1="217" y1="284" x2="653.4" y2="284" stroke="#b4f079" stroke-width="1.5" marker-end="url(#arrowhead)"/>
<polyline points="126.5,376 126.5,406 535.7,406 535.7,436" fill="none" stroke="#b4f079" stroke-width="1.5" marker-end="url(#arrowhead)"/>
<line x1="837.4" y1="284" x2="867.4" y2="284" stroke="#b4f079" stroke-width="1.5" marker-end="url(#arrowhead)"/>
<polyline points="342.6,376 342.6,406 535.7,406 535.7,436" fill="none" stroke="#b4f079" stroke-width="1.5" marker-end="url(#arrowhead)"/>
<rect x="320.23" y="51.66283357073553" width="131" height="22" rx="4" fill="#000000"/>
<rect x="272.73" y="186.92104262998328" width="131" height="22" rx="4" fill="#000000"/>
<rect x="485.10749999999996" y="161.93515503406525" width="110" height="22" rx="4" fill="#000000"/>
<rect x="606.925" y="159.1015625" width="96" height="22" rx="4" fill="#000000"/>
<rect x="813.39" y="92.0649185180664" width="117" height="22" rx="4" fill="#000000"/>
<rect x="252.10000000000002" y="138.1374225616455" width="103" height="22" rx="4" fill="#000000"/>
<rect x="526.9" y="228.0281298160553" width="103" height="22" rx="4" fill="#000000"/>
<rect x="641.7349999999999" y="191.8203125" width="103" height="22" rx="4" fill="#000000"/>
<rect x="601.75" y="386.5" width="103" height="22" rx="4" fill="#000000"/>
<rect x="785.9000000000001" y="226.5672197341919" width="103" height="22" rx="4" fill="#000000"/>
<rect x="368.10749999999996" y="153.8496095520677" width="103" height="22" rx="4" fill="#000000"/>
<rect x="436.675" y="372.75" width="103" height="22" rx="4" fill="#000000"/>
<rect x="289.13" y="252.7296579736285" width="110" height="22" rx="4" fill="#000000"/>
<rect x="369.1" y="84.77817647415213" width="103" height="22" rx="4" fill="#000000"/>
<rect x="284.19000000000005" y="219.94856588239782" width="145" height="22" rx="4" fill="#000000"/>
<rect x="108.08000000000004" y="151" width="131" height="22" rx="4" fill="#000000"/>
<rect x="561.3900000000001" y="118.90625" width="82" height="22" rx="4" fill="#000000"/>
<rect x="402.49000000000007" y="117.8496095520677" width="117" height="22" rx="4" fill="#000000"/>
<rect x="758.7349999999999" y="193.5013484954834" width="110" height="22" rx="4" fill="#000000"/>
<rect x="656.0699999999999" y="123.1015625" width="117" height="22" rx="4" fill="#000000"/>
<rect x="1103.19" y="151" width="75" height="22" rx="4" fill="#000000"/>
<rect x="996.19" y="151" width="75" height="22" rx="4" fill="#000000"/>
<rect x="791.61" y="124.4354772567749" width="89" height="22" rx="4" fill="#000000"/>
<rect x="443.19000000000005" y="195.6597969532013" width="117" height="22" rx="4" fill="#000000"/>
<rect x="279.6625" y="395" width="138" height="22" rx="4" fill="#000000"/>
<rect x="821.4" y="157.5013484954834" width="152" height="22" rx="4" fill="#000000"/>
<rect x="431.6625" y="408.75" width="145" height="22" rx="4" fill="#000000"/>
<circle cx="345.66" cy="67" r="7" fill="none" stroke="#b4f079" stroke-width="1.5"/><line x1="345.66" y1="74" x2="345.66" y2="96" stroke="#b4f079" stroke-width="1.5"/><line x1="331.66" y1="80" x2="359.66" y2="80" stroke="#b4f079" stroke-width="1.5"/><line x1="345.66" y1="96" x2="335.66" y2="112" stroke="#b4f079" stroke-width="1.5"/><line x1="345.66" y1="96" x2="355.66" y2="112" stroke="#b4f079" stroke-width="1.5"/><text x="345.66" y="126" font-family="'JetBrains Mono', 'Fira Code', 'SF Mono', 'Cascadia Code', monospace" font-size="13" fill="#b4f079" text-anchor="middle" letter-spacing="0.12em">DATA SCIENTIST</text>
<circle cx="190.66000000000005" cy="67" r="7" fill="none" stroke="#b4f079" stroke-width="1.5"/><line x1="190.66000000000005" y1="74" x2="190.66000000000005" y2="96" stroke="#b4f079" stroke-width="1.5"/><line x1="176.66000000000005" y1="80" x2="204.66000000000005" y2="80" stroke="#b4f079" stroke-width="1.5"/><line x1="190.66000000000005" y1="96" x2="180.66000000000005" y2="112" stroke="#b4f079" stroke-width="1.5"/><line x1="190.66000000000005" y1="96" x2="200.66000000000005" y2="112" stroke="#b4f079" stroke-width="1.5"/><text x="190.66000000000005" y="126" font-family="'JetBrains Mono', 'Fira Code', 'SF Mono', 'Cascadia Code', monospace" font-size="13" fill="#b4f079" text-anchor="middle" letter-spacing="0.12em">ML ENGINEER</text>
<circle cx="519.3800000000001" cy="67" r="7" fill="none" stroke="#b4f079" stroke-width="1.5"/><line x1="519.3800000000001" y1="74" x2="519.3800000000001" y2="96" stroke="#b4f079" stroke-width="1.5"/><line x1="505.3800000000001" y1="80" x2="533.3800000000001" y2="80" stroke="#b4f079" stroke-width="1.5"/><line x1="519.3800000000001" y1="96" x2="509.3800000000001" y2="112" stroke="#b4f079" stroke-width="1.5"/><line x1="519.3800000000001" y1="96" x2="529.3800000000001" y2="112" stroke="#b4f079" stroke-width="1.5"/><text x="519.3800000000001" y="126" font-family="'JetBrains Mono', 'Fira Code', 'SF Mono', 'Cascadia Code', monospace" font-size="13" fill="#b4f079" text-anchor="middle" letter-spacing="0.12em">PRODUCT ANALYST</text>
<circle cx="683.74" cy="67" r="7" fill="none" stroke="#b4f079" stroke-width="1.5"/><line x1="683.74" y1="74" x2="683.74" y2="96" stroke="#b4f079" stroke-width="1.5"/><line x1="669.74" y1="80" x2="697.74" y2="80" stroke="#b4f079" stroke-width="1.5"/><line x1="683.74" y1="96" x2="673.74" y2="112" stroke="#b4f079" stroke-width="1.5"/><line x1="683.74" y1="96" x2="693.74" y2="112" stroke="#b4f079" stroke-width="1.5"/><text x="683.74" y="126" font-family="'JetBrains Mono', 'Fira Code', 'SF Mono', 'Cascadia Code', monospace" font-size="13" fill="#b4f079" text-anchor="middle" letter-spacing="0.12em">FINANCE TEAM</text>
<circle cx="1077.98" cy="67" r="7" fill="none" stroke="#b4f079" stroke-width="1.5"/><line x1="1077.98" y1="74" x2="1077.98" y2="96" stroke="#b4f079" stroke-width="1.5"/><line x1="1063.98" y1="80" x2="1091.98" y2="80" stroke="#b4f079" stroke-width="1.5"/><line x1="1077.98" y1="96" x2="1067.98" y2="112" stroke="#b4f079" stroke-width="1.5"/><line x1="1077.98" y1="96" x2="1087.98" y2="112" stroke="#b4f079" stroke-width="1.5"/><text x="1077.98" y="126" font-family="'JetBrains Mono', 'Fira Code', 'SF Mono', 'Cascadia Code', monospace" font-size="13" fill="#b4f079" text-anchor="middle" letter-spacing="0.12em">COMPLIANCE OFFICER</text>
<circle cx="866.82" cy="67" r="7" fill="none" stroke="#b4f079" stroke-width="1.5"/><line x1="866.82" y1="74" x2="866.82" y2="96" stroke="#b4f079" stroke-width="1.5"/><line x1="852.82" y1="80" x2="880.82" y2="80" stroke="#b4f079" stroke-width="1.5"/><line x1="866.82" y1="96" x2="856.82" y2="112" stroke="#b4f079" stroke-width="1.5"/><line x1="866.82" y1="96" x2="876.82" y2="112" stroke="#b4f079" stroke-width="1.5"/><text x="866.82" y="126" font-family="'JetBrains Mono', 'Fira Code', 'SF Mono', 'Cascadia Code', monospace" font-size="13" fill="#b4f079" text-anchor="middle" letter-spacing="0.12em">EXECUTIVE DASHBOARD</text>
<rect x="468.2" y="209" width="155.2" height="150" rx="12" fill="none" stroke="#b4f079" stroke-width="2"/><rect x="473.2" y="214" width="145.2" height="140" rx="8" fill="url(#hero)" stroke="#b4f079" stroke-width="1"/><rect x="489.79999999999995" y="264.9" width="112" height="22.2" fill="#000000" rx="2"/><text x="545.8" y="276" font-family="'JetBrains Mono', 'Fira Code', 'SF Mono', 'Cascadia Code', monospace" font-size="13" fill="#b4f079" text-anchor="middle" dominant-baseline="central" letter-spacing="0.12em">DATA CATALOG</text><rect x="473.79999999999995" y="284.6" width="144" height="56.39999999999999" fill="#000000" rx="2"/><text x="545.8" y="279.2" font-family="'JetBrains Mono', 'Fira Code', 'SF Mono', 'Cascadia Code', monospace" font-size="12" fill="#b4f079" opacity="0.6" text-anchor="middle" dominant-baseline="central" letter-spacing="0.12em">Apache DataHub</text><text x="545.8" y="296" font-family="'JetBrains Mono', 'Fira Code', 'SF Mono', 'Cascadia Code', monospace" font-size="12" fill="#b4f079" opacity="0.6" text-anchor="middle" dominant-baseline="central" letter-spacing="0.12em">Schema registry</text><text x="545.8" y="312.79999999999995" font-family="'JetBrains Mono', 'Fira Code', 'SF Mono', 'Cascadia Code', monospace" font-size="12" fill="#b4f079" opacity="0.6" text-anchor="middle" dominant-baseline="central" letter-spacing="0.12em">Lineage tracking</text>
<rect x="36" y="202" width="181" height="164" fill="url(#crosshatch)" stroke="none"/><line x1="36" y1="202" x2="36" y2="366" stroke="#b4f079" stroke-width="1.5"/><line x1="217" y1="202" x2="217" y2="366" stroke="#b4f079" stroke-width="1.5"/><ellipse cx="126.5" cy="202" rx="90.5" ry="10" fill="url(#crosshatch)" stroke="#b4f079" stroke-width="1.5"/><path d="M36,366 A90.5,10 0 0,0 217,366" fill="url(#crosshatch)" stroke="#b4f079" stroke-width="1.5"/><rect x="58.5" y="264.9" width="136" height="22.2" fill="#000000" rx="2"/><text x="126.5" y="276" font-family="'JetBrains Mono', 'Fira Code', 'SF Mono', 'Cascadia Code', monospace" font-size="13" fill="#b4f079" text-anchor="middle" dominant-baseline="central" letter-spacing="0.12em">CUSTOMER EVENTS</text><rect x="46.5" y="284.6" width="160" height="73.19999999999999" fill="#000000" rx="2"/><text x="126.5" y="270.8" font-family="'JetBrains Mono', 'Fira Code', 'SF Mono', 'Cascadia Code', monospace" font-size="12" fill="#b4f079" opacity="0.6" text-anchor="middle" dominant-baseline="central" letter-spacing="0.12em">Kafka topic</text><text x="126.5" y="287.6" font-family="'JetBrains Mono', 'Fira Code', 'SF Mono', 'Cascadia Code', monospace" font-size="12" fill="#b4f079" opacity="0.6" text-anchor="middle" dominant-baseline="central" letter-spacing="0.12em">Avro schema v3</text><text x="126.5" y="304.4" font-family="'JetBrains Mono', 'Fira Code', 'SF Mono', 'Cascadia Code', monospace" font-size="12" fill="#b4f079" opacity="0.6" text-anchor="middle" dominant-baseline="central" letter-spacing="0.12em">Retention: 90 days</text><text x="126.5" y="321.2" font-family="'JetBrains Mono', 'Fira Code', 'SF Mono', 'Cascadia Code', monospace" font-size="12" fill="#b4f079" opacity="0.6" text-anchor="middle" dominant-baseline="central" letter-spacing="0.12em">Owner: Growth team</text>
<rect x="653.4" y="202" width="184" height="164" fill="url(#crosshatch)" stroke="none"/><line x1="653.4" y1="202" x2="653.4" y2="366" stroke="#b4f079" stroke-width="1.5"/><line x1="837.4" y1="202" x2="837.4" y2="366" stroke="#b4f079" stroke-width="1.5"/><ellipse cx="745.4" cy="202" rx="92" ry="10" fill="url(#crosshatch)" stroke="#b4f079" stroke-width="1.5"/><path d="M653.4,366 A92,10 0 0,0 837.4,366" fill="url(#crosshatch)" stroke="#b4f079" stroke-width="1.5"/><rect x="693.4" y="264.9" width="104" height="22.2" fill="#000000" rx="2"/><text x="745.4" y="276" font-family="'JetBrains Mono', 'Fira Code', 'SF Mono', 'Cascadia Code', monospace" font-size="13" fill="#b4f079" text-anchor="middle" dominant-baseline="central" letter-spacing="0.12em">ORDER FACTS</text><rect x="657.4" y="284.6" width="176" height="73.19999999999999" fill="#000000" rx="2"/><text x="745.4" y="270.8" font-family="'JetBrains Mono', 'Fira Code', 'SF Mono', 'Cascadia Code', monospace" font-size="12" fill="#b4f079" opacity="0.6" text-anchor="middle" dominant-baseline="central" letter-spacing="0.12em">Iceberg table</text><text x="745.4" y="287.6" font-family="'JetBrains Mono', 'Fira Code', 'SF Mono', 'Cascadia Code', monospace" font-size="12" fill="#b4f079" opacity="0.6" text-anchor="middle" dominant-baseline="central" letter-spacing="0.12em">Partitioned by date</text><text x="745.4" y="304.4" font-family="'JetBrains Mono', 'Fira Code', 'SF Mono', 'Cascadia Code', monospace" font-size="12" fill="#b4f079" opacity="0.6" text-anchor="middle" dominant-baseline="central" letter-spacing="0.12em">2.3B rows</text><text x="745.4" y="321.2" font-family="'JetBrains Mono', 'Fira Code', 'SF Mono', 'Cascadia Code', monospace" font-size="12" fill="#b4f079" opacity="0.6" text-anchor="middle" dominant-baseline="central" letter-spacing="0.12em">Owner: Commerce team</text>
<rect x="867.4" y="202" width="184" height="164" fill="url(#crosshatch)" stroke="none"/><line x1="867.4" y1="202" x2="867.4" y2="366" stroke="#b4f079" stroke-width="1.5"/><line x1="1051.4" y1="202" x2="1051.4" y2="366" stroke="#b4f079" stroke-width="1.5"/><ellipse cx="959.4" cy="202" rx="92" ry="10" fill="url(#crosshatch)" stroke="#b4f079" stroke-width="1.5"/><path d="M867.4,366 A92,10 0 0,0 1051.4,366" fill="url(#crosshatch)" stroke="#b4f079" stroke-width="1.5"/><rect x="895.4" y="264.9" width="128" height="22.2" fill="#000000" rx="2"/><text x="959.4" y="276" font-family="'JetBrains Mono', 'Fira Code', 'SF Mono', 'Cascadia Code', monospace" font-size="13" fill="#b4f079" text-anchor="middle" dominant-baseline="central" letter-spacing="0.12em">PAYMENT LEDGER</text><rect x="871.4" y="284.6" width="176" height="73.19999999999999" fill="#000000" rx="2"/><text x="959.4" y="270.8" font-family="'JetBrains Mono', 'Fira Code', 'SF Mono', 'Cascadia Code', monospace" font-size="12" fill="#b4f079" opacity="0.6" text-anchor="middle" dominant-baseline="central" letter-spacing="0.12em">PostgreSQL</text><text x="959.4" y="287.6" font-family="'JetBrains Mono', 'Fira Code', 'SF Mono', 'Cascadia Code', monospace" font-size="12" fill="#b4f079" opacity="0.6" text-anchor="middle" dominant-baseline="central" letter-spacing="0.12em">Append-only</text><text x="959.4" y="304.4" font-family="'JetBrains Mono', 'Fira Code', 'SF Mono', 'Cascadia Code', monospace" font-size="12" fill="#b4f079" opacity="0.6" text-anchor="middle" dominant-baseline="central" letter-spacing="0.12em">PCI-DSS scoped</text><text x="959.4" y="321.2" font-family="'JetBrains Mono', 'Fira Code', 'SF Mono', 'Cascadia Code', monospace" font-size="12" fill="#b4f079" opacity="0.6" text-anchor="middle" dominant-baseline="central" letter-spacing="0.12em">Owner: Payments team</text>
<rect x="660.7" y="446" width="200" height="164" fill="url(#crosshatch)" stroke="none"/><line x1="660.7" y1="446" x2="660.7" y2="610" stroke="#b4f079" stroke-width="1.5"/><line x1="860.7" y1="446" x2="860.7" y2="610" stroke="#b4f079" stroke-width="1.5"/><ellipse cx="760.7" cy="446" rx="100" ry="10" fill="url(#crosshatch)" stroke="#b4f079" stroke-width="1.5"/><path d="M660.7,610 A100,10 0 0,0 860.7,610" fill="url(#crosshatch)" stroke="#b4f079" stroke-width="1.5"/><rect x="684.7" y="508.9" width="152" height="22.2" fill="#000000" rx="2"/><text x="760.7" y="520" font-family="'JetBrains Mono', 'Fira Code', 'SF Mono', 'Cascadia Code', monospace" font-size="13" fill="#b4f079" text-anchor="middle" dominant-baseline="central" letter-spacing="0.12em">PRODUCT INVENTORY</text><rect x="668.7" y="528.6" width="184" height="73.19999999999999" fill="#000000" rx="2"/><text x="760.7" y="514.8" font-family="'JetBrains Mono', 'Fira Code', 'SF Mono', 'Cascadia Code', monospace" font-size="12" fill="#b4f079" opacity="0.6" text-anchor="middle" dominant-baseline="central" letter-spacing="0.12em">DynamoDB</text><text x="760.7" y="531.5999999999999" font-family="'JetBrains Mono', 'Fira Code', 'SF Mono', 'Cascadia Code', monospace" font-size="12" fill="#b4f079" opacity="0.6" text-anchor="middle" dominant-baseline="central" letter-spacing="0.12em">GSI on SKU + region</text><text x="760.7" y="548.4" font-family="'JetBrains Mono', 'Fira Code', 'SF Mono', 'Cascadia Code', monospace" font-size="12" fill="#b4f079" opacity="0.6" text-anchor="middle" dominant-baseline="central" letter-spacing="0.12em">Eventually consistent</text><text x="760.7" y="565.1999999999999" font-family="'JetBrains Mono', 'Fira Code', 'SF Mono', 'Cascadia Code', monospace" font-size="12" fill="#b4f079" opacity="0.6" text-anchor="middle" dominant-baseline="central" letter-spacing="0.12em">Owner: Supply chain</text>
<rect x="1081.4" y="202" width="184" height="164" fill="url(#crosshatch)" stroke="none"/><line x1="1081.4" y1="202" x2="1081.4" y2="366" stroke="#b4f079" stroke-width="1.5"/><line x1="1265.4" y1="202" x2="1265.4" y2="366" stroke="#b4f079" stroke-width="1.5"/><ellipse cx="1173.4" cy="202" rx="92" ry="10" fill="url(#crosshatch)" stroke="#b4f079" stroke-width="1.5"/><path d="M1081.4,366 A92,10 0 0,0 1265.4,366" fill="url(#crosshatch)" stroke="#b4f079" stroke-width="1.5"/><rect x="1113.4" y="264.9" width="120" height="22.2" fill="#000000" rx="2"/><text x="1173.4" y="276" font-family="'JetBrains Mono', 'Fira Code', 'SF Mono', 'Cascadia Code', monospace" font-size="13" fill="#b4f079" text-anchor="middle" dominant-baseline="central" letter-spacing="0.12em">USER PROFILES</text><rect x="1085.4" y="284.6" width="176" height="73.19999999999999" fill="#000000" rx="2"/><text x="1173.4" y="270.8" font-family="'JetBrains Mono', 'Fira Code', 'SF Mono', 'Cascadia Code', monospace" font-size="12" fill="#b4f079" opacity="0.6" text-anchor="middle" dominant-baseline="central" letter-spacing="0.12em">MongoDB</text><text x="1173.4" y="287.6" font-family="'JetBrains Mono', 'Fira Code', 'SF Mono', 'Cascadia Code', monospace" font-size="12" fill="#b4f079" opacity="0.6" text-anchor="middle" dominant-baseline="central" letter-spacing="0.12em">PII encrypted</text><text x="1173.4" y="304.4" font-family="'JetBrains Mono', 'Fira Code', 'SF Mono', 'Cascadia Code', monospace" font-size="12" fill="#b4f079" opacity="0.6" text-anchor="middle" dominant-baseline="central" letter-spacing="0.12em">GDPR compliant</text><text x="1173.4" y="321.2" font-family="'JetBrains Mono', 'Fira Code', 'SF Mono', 'Cascadia Code', monospace" font-size="12" fill="#b4f079" opacity="0.6" text-anchor="middle" dominant-baseline="central" letter-spacing="0.12em">Owner: Identity team</text>
<rect x="247" y="202" width="191.2" height="164" fill="url(#crosshatch)" stroke="none"/><line x1="247" y1="202" x2="247" y2="366" stroke="#b4f079" stroke-width="1.5"/><line x1="438.2" y1="202" x2="438.2" y2="366" stroke="#b4f079" stroke-width="1.5"/><ellipse cx="342.6" cy="202" rx="95.6" ry="10" fill="url(#crosshatch)" stroke="#b4f079" stroke-width="1.5"/><path d="M247,366 A95.6,10 0 0,0 438.2,366" fill="url(#crosshatch)" stroke="#b4f079" stroke-width="1.5"/><rect x="290.6" y="264.9" width="104" height="22.2" fill="#000000" rx="2"/><text x="342.6" y="276" font-family="'JetBrains Mono', 'Fira Code', 'SF Mono', 'Cascadia Code', monospace" font-size="13" fill="#b4f079" text-anchor="middle" dominant-baseline="central" letter-spacing="0.12em">CLICKSTREAM</text><rect x="250.60000000000002" y="284.6" width="184" height="73.19999999999999" fill="#000000" rx="2"/><text x="342.6" y="270.8" font-family="'JetBrains Mono', 'Fira Code', 'SF Mono', 'Cascadia Code', monospace" font-size="12" fill="#b4f079" opacity="0.6" text-anchor="middle" dominant-baseline="central" letter-spacing="0.12em">S3 Parquet</text><text x="342.6" y="287.6" font-family="'JetBrains Mono', 'Fira Code', 'SF Mono', 'Cascadia Code', monospace" font-size="12" fill="#b4f079" opacity="0.6" text-anchor="middle" dominant-baseline="central" letter-spacing="0.12em">Hourly partitions</text><text x="342.6" y="304.4" font-family="'JetBrains Mono', 'Fira Code', 'SF Mono', 'Cascadia Code', monospace" font-size="12" fill="#b4f079" opacity="0.6" text-anchor="middle" dominant-baseline="central" letter-spacing="0.12em">50TB compressed</text><text x="342.6" y="321.2" font-family="'JetBrains Mono', 'Fira Code', 'SF Mono', 'Cascadia Code', monospace" font-size="12" fill="#b4f079" opacity="0.6" text-anchor="middle" dominant-baseline="central" letter-spacing="0.12em">Owner: Analytics team</text>
<rect x="440.70000000000005" y="446" width="190" height="164" fill="url(#crosshatch)" stroke="none"/><line x1="440.70000000000005" y1="446" x2="440.70000000000005" y2="610" stroke="#b4f079" stroke-width="1.5"/><line x1="630.7" y1="446" x2="630.7" y2="610" stroke="#b4f079" stroke-width="1.5"/><ellipse cx="535.7" cy="446" rx="95" ry="10" fill="url(#crosshatch)" stroke="#b4f079" stroke-width="1.5"/><path d="M440.70000000000005,610 A95,10 0 0,0 630.7,610" fill="url(#crosshatch)" stroke="#b4f079" stroke-width="1.5"/><rect x="463.70000000000005" y="508.9" width="144" height="22.2" fill="#000000" rx="2"/><text x="535.7" y="520" font-family="'JetBrains Mono', 'Fira Code', 'SF Mono', 'Cascadia Code', monospace" font-size="13" fill="#b4f079" text-anchor="middle" dominant-baseline="central" letter-spacing="0.12em">ML FEATURE STORE</text><rect x="455.70000000000005" y="528.6" width="160" height="73.19999999999999" fill="#000000" rx="2"/><text x="535.7" y="514.8" font-family="'JetBrains Mono', 'Fira Code', 'SF Mono', 'Cascadia Code', monospace" font-size="12" fill="#b4f079" opacity="0.6" text-anchor="middle" dominant-baseline="central" letter-spacing="0.12em">Feast + Redis</text><text x="535.7" y="531.5999999999999" font-family="'JetBrains Mono', 'Fira Code', 'SF Mono', 'Cascadia Code', monospace" font-size="12" fill="#b4f079" opacity="0.6" text-anchor="middle" dominant-baseline="central" letter-spacing="0.12em">Online + offline</text><text x="535.7" y="548.4" font-family="'JetBrains Mono', 'Fira Code', 'SF Mono', 'Cascadia Code', monospace" font-size="12" fill="#b4f079" opacity="0.6" text-anchor="middle" dominant-baseline="central" letter-spacing="0.12em">1200 features</text><text x="535.7" y="565.1999999999999" font-family="'JetBrains Mono', 'Fira Code', 'SF Mono', 'Cascadia Code', monospace" font-size="12" fill="#b4f079" opacity="0.6" text-anchor="middle" dominant-baseline="central" letter-spacing="0.12em">Owner: ML Platform</text>
<text x="385.73" y="66.66283357073553" font-family="'JetBrains Mono', 'Fira Code', 'SF Mono', 'Cascadia Code', monospace" font-size="12" fill="#b4f079" opacity="0.85" text-anchor="middle">Discover datasets</text>
<text x="338.23" y="201.92104262998328" font-family="'JetBrains Mono', 'Fira Code', 'SF Mono', 'Cascadia Code', monospace" font-size="12" fill="#b4f079" opacity="0.85" text-anchor="middle">Register features</text>
<text x="540.1075" y="176.93515503406525" font-family="'JetBrains Mono', 'Fira Code', 'SF Mono', 'Cascadia Code', monospace" font-size="12" fill="#b4f079" opacity="0.85" text-anchor="middle">Search lineage</text>
<text x="654.925" y="174.1015625" font-family="'JetBrains Mono', 'Fira Code', 'SF Mono', 'Cascadia Code', monospace" font-size="12" fill="#b4f079" opacity="0.85" text-anchor="middle">Audit access</text>
<text x="871.89" y="107.0649185180664" font-family="'JetBrains Mono', 'Fira Code', 'SF Mono', 'Cascadia Code', monospace" font-size="12" fill="#b4f079" opacity="0.85" text-anchor="middle">Review PII tags</text>
<text x="303.6" y="153.1374225616455" font-family="'JetBrains Mono', 'Fira Code', 'SF Mono', 'Cascadia Code', monospace" font-size="12" fill="#b4f079" opacity="0.85" text-anchor="middle">Metadata sync</text>
<text x="578.4" y="243.0281298160553" font-family="'JetBrains Mono', 'Fira Code', 'SF Mono', 'Cascadia Code', monospace" font-size="12" fill="#b4f079" opacity="0.85" text-anchor="middle">Metadata sync</text>
<text x="693.2349999999999" y="206.8203125" font-family="'JetBrains Mono', 'Fira Code', 'SF Mono', 'Cascadia Code', monospace" font-size="12" fill="#b4f079" opacity="0.85" text-anchor="middle">Metadata sync</text>
<text x="653.25" y="401.5" font-family="'JetBrains Mono', 'Fira Code', 'SF Mono', 'Cascadia Code', monospace" font-size="12" fill="#b4f079" opacity="0.85" text-anchor="middle">Metadata sync</text>
<text x="837.4000000000001" y="241.5672197341919" font-family="'JetBrains Mono', 'Fira Code', 'SF Mono', 'Cascadia Code', monospace" font-size="12" fill="#b4f079" opacity="0.85" text-anchor="middle">Metadata sync</text>
<text x="419.60749999999996" y="168.8496095520677" font-family="'JetBrains Mono', 'Fira Code', 'SF Mono', 'Cascadia Code', monospace" font-size="12" fill="#b4f079" opacity="0.85" text-anchor="middle">Metadata sync</text>
<text x="488.175" y="387.75" font-family="'JetBrains Mono', 'Fira Code', 'SF Mono', 'Cascadia Code', monospace" font-size="12" fill="#b4f079" opacity="0.85" text-anchor="middle">Metadata sync</text>
<text x="344.13" y="267.7296579736285" font-family="'JetBrains Mono', 'Fira Code', 'SF Mono', 'Cascadia Code', monospace" font-size="12" fill="#b4f079" opacity="0.85" text-anchor="middle">Ad-hoc queries</text>
<text x="420.6" y="99.77817647415213" font-family="'JetBrains Mono', 'Fira Code', 'SF Mono', 'Cascadia Code', monospace" font-size="12" fill="#b4f079" opacity="0.85" text-anchor="middle">Training data</text>
<text x="356.69000000000005" y="234.94856588239782" font-family="'JetBrains Mono', 'Fira Code', 'SF Mono', 'Cascadia Code', monospace" font-size="12" fill="#b4f079" opacity="0.85" text-anchor="middle">Feature engineering</text>
<text x="173.58000000000004" y="166" font-family="'JetBrains Mono', 'Fira Code', 'SF Mono', 'Cascadia Code', monospace" font-size="12" fill="#b4f079" opacity="0.85" text-anchor="middle">Stream processing</text>
<text x="602.3900000000001" y="133.90625" font-family="'JetBrains Mono', 'Fira Code', 'SF Mono', 'Cascadia Code', monospace" font-size="12" fill="#b4f079" opacity="0.85" text-anchor="middle">BI queries</text>
<text x="460.99000000000007" y="132.8496095520677" font-family="'JetBrains Mono', 'Fira Code', 'SF Mono', 'Cascadia Code', monospace" font-size="12" fill="#b4f079" opacity="0.85" text-anchor="middle">Funnel analysis</text>
<text x="813.7349999999999" y="208.5013484954834" font-family="'JetBrains Mono', 'Fira Code', 'SF Mono', 'Cascadia Code', monospace" font-size="12" fill="#b4f079" opacity="0.85" text-anchor="middle">Reconciliation</text>
<text x="714.5699999999999" y="138.1015625" font-family="'JetBrains Mono', 'Fira Code', 'SF Mono', 'Cascadia Code', monospace" font-size="12" fill="#b4f079" opacity="0.85" text-anchor="middle">Revenue reports</text>
<text x="1140.69" y="166" font-family="'JetBrains Mono', 'Fira Code', 'SF Mono', 'Cascadia Code', monospace" font-size="12" fill="#b4f079" opacity="0.85" text-anchor="middle">PII audit</text>
<text x="1033.69" y="166" font-family="'JetBrains Mono', 'Fira Code', 'SF Mono', 'Cascadia Code', monospace" font-size="12" fill="#b4f079" opacity="0.85" text-anchor="middle">PCI audit</text>
<text x="836.11" y="139.4354772567749" font-family="'JetBrains Mono', 'Fira Code', 'SF Mono', 'Cascadia Code', monospace" font-size="12" fill="#b4f079" opacity="0.85" text-anchor="middle">KPI metrics</text>
<text x="501.69000000000005" y="210.6597969532013" font-family="'JetBrains Mono', 'Fira Code', 'SF Mono', 'Cascadia Code', monospace" font-size="12" fill="#b4f079" opacity="0.85" text-anchor="middle">Join enrichment</text>
<text x="348.6625" y="410" font-family="'JetBrains Mono', 'Fira Code', 'SF Mono', 'Cascadia Code', monospace" font-size="12" fill="#b4f079" opacity="0.85" text-anchor="middle">Real-time features</text>
<text x="897.4" y="172.5013484954834" font-family="'JetBrains Mono', 'Fira Code', 'SF Mono', 'Cascadia Code', monospace" font-size="12" fill="#b4f079" opacity="0.85" text-anchor="middle">Reconciliation check</text>
<text x="504.1625" y="423.75" font-family="'JetBrains Mono', 'Fira Code', 'SF Mono', 'Cascadia Code', monospace" font-size="12" fill="#b4f079" opacity="0.85" text-anchor="middle">Behavioral features</text>
<text x="1289.4" y="298" font-family="'Inter', 'Helvetica Neue', Arial, sans-serif" font-size="14" fill="#ffffff" font-weight="700">6 consumer personas:</text><text x="1289.4" y="316" font-family="'JetBrains Mono', 'Fira Code', 'SF Mono', 'Cascadia Code', monospace" font-size="11" fill="#b4f079" opacity="0.7">each has different</text><text x="1289.4" y="334" font-family="'JetBrains Mono', 'Fira Code', 'SF Mono', 'Cascadia Code', monospace" font-size="11" fill="#b4f079" opacity="0.7">access patterns and SLAs</text>
<text x="876.7" y="414" font-family="'Inter', 'Helvetica Neue', Arial, sans-serif" font-size="14" fill="#ffffff" font-weight="700">PCI-DSS boundary:</text><text x="876.7" y="432" font-family="'JetBrains Mono', 'Fira Code', 'SF Mono', 'Cascadia Code', monospace" font-size="11" fill="#b4f079" opacity="0.7">payment data access</text><text x="876.7" y="450" font-family="'JetBrains Mono', 'Fira Code', 'SF Mono', 'Cascadia Code', monospace" font-size="11" fill="#b4f079" opacity="0.7">requires SOC2 attestation</text>
<text x="1081.4" y="414" font-family="'Inter', 'Helvetica Neue', Arial, sans-serif" font-size="14" fill="#ffffff" font-weight="700">GDPR boundary:</text><text x="1081.4" y="432" font-family="'JetBrains Mono', 'Fira Code', 'SF Mono', 'Cascadia Code', monospace" font-size="11" fill="#b4f079" opacity="0.7">PII data products require</text><text x="1081.4" y="450" font-family="'JetBrains Mono', 'Fira Code', 'SF Mono', 'Cascadia Code', monospace" font-size="11" fill="#b4f079" opacity="0.7">DPIA before consumption</text>
</g>
</svg>