<svg xmlns="http://www.w3.org/2000/svg" viewBox="0 0 1175.9 1655.5" width="1175.9" height="1655.5">
<defs>
  <pattern id="dotgrid" width="8" height="8" patternUnits="userSpaceOnUse">
    <rect width="8" height="8" fill="#000000"/>
    <circle cx="4" cy="4" r="0.8" fill="#b4f079" opacity="0.7"/>
  </pattern>
  <pattern id="crosshatch" width="8" height="8" patternUnits="userSpaceOnUse">
    <rect width="8" height="8" fill="#000000"/>
    <path d="M0 8L8 0M-1 1L1 -1M7 9L9 7" stroke="#b4f079" stroke-width="0.8" opacity="0.2"/>
  </pattern>
  <pattern id="hero" width="6" height="6" patternUnits="userSpaceOnUse">
    <rect width="6" height="6" fill="#3d6b23"/>
    <circle cx="3" cy="3" r="0.6" fill="#5a9a35" opacity="0.5"/>
  </pattern>
  <marker id="arrowhead" markerWidth="10" markerHeight="7" refX="9" refY="3.5" orient="auto" markerUnits="strokeWidth">
    <polygon points="0 0, 10 3.5, 0 7" fill="#b4f079"/>
  </marker>
  <marker id="arrowhead-reverse" markerWidth="10" markerHeight="7" refX="1" refY="3.5" orient="auto" markerUnits="strokeWidth">
    <polygon points="10 0, 0 3.5, 10 7" fill="#b4f079"/>
  </marker>
</defs>
<rect width="100%" height="100%" fill="#000000"/>
<g class="diagram">
<text x="30" y="34" font-family="'Inter', 'Helvetica Neue', Arial, sans-serif" font-size="15" fill="#ffffff" font-weight="700">Multi-tenant SaaS platform: isolated deployment islands</text>
<rect x="36" y="60" width="348" height="633" rx="12" fill="url(#dotgrid)" stroke="#b4f079" stroke-width="1" opacity="0.35"/><rect x="36" y="60" width="348" height="633" rx="12" fill="none" stroke="#b4f079" stroke-width="1" opacity="0.5"/>
<rect x="223.39999999999998" y="994.5" width="561" height="633" rx="12" fill="url(#dotgrid)" stroke="#b4f079" stroke-width="1" opacity="0.35"/><rect x="223.39999999999998" y="994.5" width="561" height="633" rx="12" fill="none" stroke="#b4f079" stroke-width="1" opacity="0.5"/>
<rect x="500.5" y="120" width="484.9" height="692.5" rx="12" fill="url(#dotgrid)" stroke="#b4f079" stroke-width="1" opacity="0.35"/><rect x="500.5" y="120" width="484.9" height="692.5" rx="12" fill="none" stroke="#b4f079" stroke-width="1" opacity="0.5"/>
<rect x="349.4" y="828.5" width="574.6" height="469" rx="12" fill="url(#hero)" stroke="#b4f079" stroke-width="1" opacity="0.35"/><rect x="349.4" y="828.5" width="574.6" height="469" rx="12" fill="none" stroke="#b4f079" stroke-width="1" opacity="0.5"/>
<line x1="218.5" y1="198" x2="166.39999999999998" y2="291" stroke="#b4f079" stroke-width="1.5" marker-end="url(#arrowhead)"/>
<line x1="166.39999999999998" y1="331" x2="242.2" y2="445" stroke="#b4f079" stroke-width="1.5" marker-end="url(#arrowhead)"/>
<polyline points="242.2,485 242.2,523 133,523 133,561" fill="none" stroke="#b4f079" stroke-width="1.5" marker-end="url(#arrowhead)"/>
<line x1="242.2" y1="485" x2="301" y2="561" stroke="#b4f079" stroke-width="1.5" marker-end="url(#arrowhead)"/>
<line x1="214" y1="619" x2="234" y2="619" stroke="#b4f079" stroke-width="1.5" marker-end="url(#arrowhead)"/>
<polyline points="410.5,1145.7 410.5,1185.6 292.4,1185.6 292.4,1225.5" fill="none" stroke="#b4f079" stroke-width="1.5" marker-end="url(#arrowhead)"/>
<polyline points="292.4,1265.5 292.4,1322.5 405.2,1322.5 405.2,1379.5" fill="none" stroke="#b4f079" stroke-width="1.5" marker-end="url(#arrowhead)"/>
<polyline points="405.2,1419.5 405.2,1457.5 487.2,1457.5 487.2,1495.5" fill="none" stroke="#b4f079" stroke-width="1.5" marker-end="url(#arrowhead)"/>
<polyline points="405.2,1419.5 405.2,1457.5 687.4,1457.5 687.4,1495.5" fill="none" stroke="#b4f079" stroke-width="1.5" marker-end="url(#arrowhead)"/>
<line x1="611.5" y1="258" x2="619.9" y2="351" stroke="#b4f079" stroke-width="1.5" marker-end="url(#arrowhead)"/>
<polyline points="619.9,391 619.9,448 769.7,448 769.7,505" fill="none" stroke="#b4f079" stroke-width="1.5" marker-end="url(#arrowhead)"/>
<polyline points="769.7,545 769.7,583 878.9,583 878.9,621" fill="none" stroke="#b4f079" stroke-width="1.5" marker-end="url(#arrowhead)"/>
<polyline points="807.7,1016.4 807.7,1016.5 451.4,1016.5 451.4,1011.5" fill="none" stroke="#b4f079" stroke-width="1.5" marker-end="url(#arrowhead)"/>
<line x1="807.7" y1="1016.4" x2="805.1999999999999" y2="1028.5" stroke="#b4f079" stroke-width="1.5" marker-end="url(#arrowhead)"/>
<polyline points="451.4,1155.7 451.4,1160.6 582.7,1160.6 582.7,1165.5" fill="none" stroke="#b4f079" stroke-width="1.5" marker-end="url(#arrowhead)"/>
<rect x="151.45" y="233.5" width="82" height="22" rx="4" fill="#000000"/>
<rect x="134.85000000000002" y="528.1" width="82" height="22" rx="4" fill="#000000"/>
<rect x="230.85000000000002" y="537.1" width="75" height="22" rx="4" fill="#000000"/>
<rect x="159.5" y="573.1" width="159" height="22" rx="4" fill="#000000"/>
<rect x="310.45" y="1174.6" width="82" height="22" rx="4" fill="#000000"/>
<rect x="376.2" y="1446.5" width="110" height="22" rx="4" fill="#000000"/>
<rect x="513.3" y="1446.5" width="96" height="22" rx="4" fill="#000000"/>
<rect x="574.7" y="293.5" width="82" height="22" rx="4" fill="#000000"/>
<rect x="804.3" y="572" width="40" height="22" rx="4" fill="#000000"/>
<rect x="754.95" y="998.5" width="103" height="22" rx="4" fill="#000000"/>
<rect x="469.04999999999995" y="1135.5" width="96" height="22" rx="4" fill="#000000"/>
<rect x="147.5" y="73" width="125" height="24" fill="#000000" rx="3"/><text x="210" y="86" font-family="'Inter', 'Helvetica Neue', Arial, sans-serif" font-size="14" fill="#ffffff" opacity="0.9" text-anchor="middle">US-East Region</text>
<rect x="415.15" y="1007.5" width="177.5" height="24" fill="#000000" rx="3"/><text x="503.9" y="1020.5" font-family="'Inter', 'Helvetica Neue', Arial, sans-serif" font-size="14" fill="#ffffff" opacity="0.9" text-anchor="middle">EU-West Region (GDPR)</text>
<rect x="691.7" y="133" width="102.5" height="24" fill="#000000" rx="3"/><text x="742.95" y="146" font-family="'Inter', 'Helvetica Neue', Arial, sans-serif" font-size="14" fill="#ffffff" opacity="0.9" text-anchor="middle">APAC Region</text>
<rect x="551.7" y="841.5" width="170" height="24" fill="#000000" rx="3"/><text x="636.7" y="854.5" font-family="'Inter', 'Helvetica Neue', Arial, sans-serif" font-size="14" fill="#ffffff" opacity="0.9" text-anchor="middle">Global Control Plane</text>
<rect x="132.5" y="116" width="172" height="82" rx="12" fill="none" stroke="#b4f079" stroke-width="2"/><rect x="137.5" y="121" width="162" height="72" rx="8" fill="url(#hero)" stroke="#b4f079" stroke-width="1"/><rect x="154.5" y="137.9" width="128" height="22.2" fill="#000000" rx="2"/><text x="218.5" y="149" font-family="'JetBrains Mono', 'Fira Code', 'SF Mono', 'Cascadia Code', monospace" font-size="13" fill="#b4f079" text-anchor="middle" dominant-baseline="central" letter-spacing="0.12em">US API GATEWAY</text><rect x="174.5" y="157.6" width="88" height="22.799999999999997" fill="#000000" rx="2"/><text x="218.5" y="169" font-family="'JetBrains Mono', 'Fira Code', 'SF Mono', 'Cascadia Code', monospace" font-size="12" fill="#b4f079" opacity="0.6" text-anchor="middle" dominant-baseline="central" letter-spacing="0.12em">us-east-1</text>
<rect x="113.39999999999998" y="291" width="106" height="40" rx="12" fill="url(#dotgrid)" stroke="#b4f079" stroke-width="1.5"/><rect x="130.39999999999998" y="299.9" width="72" height="22.2" fill="#000000" rx="2"/><text x="166.39999999999998" y="311" font-family="'JetBrains Mono', 'Fira Code', 'SF Mono', 'Cascadia Code', monospace" font-size="13" fill="#b4f079" text-anchor="middle" dominant-baseline="central" letter-spacing="0.12em">US AUTH</text>
<rect x="170.7" y="445" width="143" height="40" rx="12" fill="url(#dotgrid)" stroke="#b4f079" stroke-width="1.5"/><rect x="190.2" y="453.9" width="104" height="22.2" fill="#000000" rx="2"/><text x="242.2" y="465" font-family="'JetBrains Mono', 'Fira Code', 'SF Mono', 'Cascadia Code', monospace" font-size="13" fill="#b4f079" text-anchor="middle" dominant-baseline="central" letter-spacing="0.12em">US APP TIER</text>
<rect x="52" y="571" width="162" height="96" fill="url(#crosshatch)" stroke="none"/><line x1="52" y1="571" x2="52" y2="667" stroke="#b4f079" stroke-width="1.5"/><line x1="214" y1="571" x2="214" y2="667" stroke="#b4f079" stroke-width="1.5"/><ellipse cx="133" cy="571" rx="81" ry="10" fill="url(#crosshatch)" stroke="#b4f079" stroke-width="1.5"/><path d="M52,667 A81,10 0 0,0 214,667" fill="url(#crosshatch)" stroke="#b4f079" stroke-width="1.5"/><rect x="73" y="599.9" width="120" height="22.2" fill="#000000" rx="2"/><text x="133" y="611" font-family="'JetBrains Mono', 'Fira Code', 'SF Mono', 'Cascadia Code', monospace" font-size="13" fill="#b4f079" text-anchor="middle" dominant-baseline="central" letter-spacing="0.12em">US PRIMARY DB</text><rect x="73" y="619.6" width="120" height="39.599999999999994" fill="#000000" rx="2"/><text x="133" y="622.6" font-family="'JetBrains Mono', 'Fira Code', 'SF Mono', 'Cascadia Code', monospace" font-size="12" fill="#b4f079" opacity="0.6" text-anchor="middle" dominant-baseline="central" letter-spacing="0.12em">PostgreSQL 16</text><text x="133" y="639.4" font-family="'JetBrains Mono', 'Fira Code', 'SF Mono', 'Cascadia Code', monospace" font-size="12" fill="#b4f079" opacity="0.6" text-anchor="middle" dominant-baseline="central" letter-spacing="0.12em">us-east-1a</text>
<rect x="234" y="571" width="134" height="96" fill="url(#crosshatch)" stroke="none"/><line x1="234" y1="571" x2="234" y2="667" stroke="#b4f079" stroke-width="1.5"/><line x1="368" y1="571" x2="368" y2="667" stroke="#b4f079" stroke-width="1.5"/><ellipse cx="301" cy="571" rx="67" ry="10" fill="url(#crosshatch)" stroke="#b4f079" stroke-width="1.5"/><path d="M234,667 A67,10 0 0,0 368,667" fill="url(#crosshatch)" stroke="#b4f079" stroke-width="1.5"/><rect x="253" y="599.9" width="96" height="22.2" fill="#000000" rx="2"/><text x="301" y="611" font-family="'JetBrains Mono', 'Fira Code', 'SF Mono', 'Cascadia Code', monospace" font-size="13" fill="#b4f079" text-anchor="middle" dominant-baseline="central" letter-spacing="0.12em">US REPLICA</text><rect x="245" y="619.6" width="112" height="39.599999999999994" fill="#000000" rx="2"/><text x="301" y="622.6" font-family="'JetBrains Mono', 'Fira Code', 'SF Mono', 'Cascadia Code', monospace" font-size="12" fill="#b4f079" opacity="0.6" text-anchor="middle" dominant-baseline="central" letter-spacing="0.12em">Read replica</text><text x="301" y="639.4" font-family="'JetBrains Mono', 'Fira Code', 'SF Mono', 'Cascadia Code', monospace" font-size="12" fill="#b4f079" opacity="0.6" text-anchor="middle" dominant-baseline="central" letter-spacing="0.12em">us-east-1b</text>
<rect x="324.5" y="1050.5" width="172" height="95.20000000000005" rx="12" fill="none" stroke="#b4f079" stroke-width="2"/><rect x="329.5" y="1055.5" width="162" height="85.20000000000005" rx="8" fill="url(#hero)" stroke="#b4f079" stroke-width="1"/><rect x="346.5" y="1079" width="128" height="22.2" fill="#000000" rx="2"/><text x="410.5" y="1090.1" font-family="'JetBrains Mono', 'Fira Code', 'SF Mono', 'Cascadia Code', monospace" font-size="13" fill="#b4f079" text-anchor="middle" dominant-baseline="central" letter-spacing="0.12em">EU API GATEWAY</text><rect x="366.5" y="1098.6999999999998" width="88" height="22.799999999999997" fill="#000000" rx="2"/><text x="410.5" y="1110.1" font-family="'JetBrains Mono', 'Fira Code', 'SF Mono', 'Cascadia Code', monospace" font-size="12" fill="#b4f079" opacity="0.6" text-anchor="middle" dominant-baseline="central" letter-spacing="0.12em">eu-west-1</text>
<rect x="239.39999999999998" y="1225.5" width="106" height="40" rx="12" fill="url(#dotgrid)" stroke="#b4f079" stroke-width="1.5"/><rect x="256.4" y="1234.4" width="72" height="22.2" fill="#000000" rx="2"/><text x="292.4" y="1245.5" font-family="'JetBrains Mono', 'Fira Code', 'SF Mono', 'Cascadia Code', monospace" font-size="13" fill="#b4f079" text-anchor="middle" dominant-baseline="central" letter-spacing="0.12em">EU AUTH</text>
<rect x="333.7" y="1379.5" width="143" height="40" rx="12" fill="url(#dotgrid)" stroke="#b4f079" stroke-width="1.5"/><rect x="353.2" y="1388.4" width="104" height="22.2" fill="#000000" rx="2"/><text x="405.2" y="1399.5" font-family="'JetBrains Mono', 'Fira Code', 'SF Mono', 'Cascadia Code', monospace" font-size="13" fill="#b4f079" text-anchor="middle" dominant-baseline="central" letter-spacing="0.12em">EU APP TIER</text>
<rect x="388" y="1495.5" width="198.4" height="116" rx="12" fill="url(#crosshatch)" stroke="#b4f079" stroke-width="1.5"/><rect x="431.2" y="1534.4" width="112" height="22.2" fill="#000000" rx="2"/><text x="487.2" y="1545.5" font-family="'JetBrains Mono', 'Fira Code', 'SF Mono', 'Cascadia Code', monospace" font-size="13" fill="#b4f079" text-anchor="middle" dominant-baseline="central" letter-spacing="0.12em">EU PII VAULT</text><rect x="391.2" y="1554.1000000000001" width="192" height="39.599999999999994" fill="#000000" rx="2"/><text x="487.2" y="1557.1" font-family="'JetBrains Mono', 'Fira Code', 'SF Mono', 'Cascadia Code', monospace" font-size="12" fill="#b4f079" opacity="0.6" text-anchor="middle" dominant-baseline="central" letter-spacing="0.12em">Encrypted at rest</text><text x="487.2" y="1573.8999999999999" font-family="'JetBrains Mono', 'Fira Code', 'SF Mono', 'Cascadia Code', monospace" font-size="12" fill="#b4f079" opacity="0.6" text-anchor="middle" dominant-baseline="central" letter-spacing="0.12em">Field-level encryption</text>
<rect x="606.4" y="1505.5" width="162" height="96" fill="url(#crosshatch)" stroke="none"/><line x1="606.4" y1="1505.5" x2="606.4" y2="1601.5" stroke="#b4f079" stroke-width="1.5"/><line x1="768.4" y1="1505.5" x2="768.4" y2="1601.5" stroke="#b4f079" stroke-width="1.5"/><ellipse cx="687.4" cy="1505.5" rx="81" ry="10" fill="url(#crosshatch)" stroke="#b4f079" stroke-width="1.5"/><path d="M606.4,1601.5 A81,10 0 0,0 768.4,1601.5" fill="url(#crosshatch)" stroke="#b4f079" stroke-width="1.5"/><rect x="627.4" y="1534.4" width="120" height="22.2" fill="#000000" rx="2"/><text x="687.4" y="1545.5" font-family="'JetBrains Mono', 'Fira Code', 'SF Mono', 'Cascadia Code', monospace" font-size="13" fill="#b4f079" text-anchor="middle" dominant-baseline="central" letter-spacing="0.12em">EU PRIMARY DB</text><rect x="627.4" y="1554.1000000000001" width="120" height="39.599999999999994" fill="#000000" rx="2"/><text x="687.4" y="1557.1" font-family="'JetBrains Mono', 'Fira Code', 'SF Mono', 'Cascadia Code', monospace" font-size="12" fill="#b4f079" opacity="0.6" text-anchor="middle" dominant-baseline="central" letter-spacing="0.12em">PostgreSQL 16</text><text x="687.4" y="1573.8999999999999" font-family="'JetBrains Mono', 'Fira Code', 'SF Mono', 'Cascadia Code', monospace" font-size="12" fill="#b4f079" opacity="0.6" text-anchor="middle" dominant-baseline="central" letter-spacing="0.12em">eu-west-1a</text>
<rect x="516.5" y="176" width="190" height="82" rx="12" fill="none" stroke="#b4f079" stroke-width="2"/><rect x="521.5" y="181" width="180" height="72" rx="8" fill="url(#hero)" stroke="#b4f079" stroke-width="1"/><rect x="539.5" y="197.9" width="144" height="22.2" fill="#000000" rx="2"/><text x="611.5" y="209" font-family="'JetBrains Mono', 'Fira Code', 'SF Mono', 'Cascadia Code', monospace" font-size="13" fill="#b4f079" text-anchor="middle" dominant-baseline="central" letter-spacing="0.12em">APAC API GATEWAY</text><rect x="547.5" y="217.6" width="128" height="22.799999999999997" fill="#000000" rx="2"/><text x="611.5" y="229" font-family="'JetBrains Mono', 'Fira Code', 'SF Mono', 'Cascadia Code', monospace" font-size="12" fill="#b4f079" opacity="0.6" text-anchor="middle" dominant-baseline="central" letter-spacing="0.12em">ap-southeast-1</text>
<rect x="557.4" y="351" width="125" height="40" rx="12" fill="url(#dotgrid)" stroke="#b4f079" stroke-width="1.5"/><rect x="575.9" y="359.9" width="88" height="22.2" fill="#000000" rx="2"/><text x="619.9" y="371" font-family="'JetBrains Mono', 'Fira Code', 'SF Mono', 'Cascadia Code', monospace" font-size="13" fill="#b4f079" text-anchor="middle" dominant-baseline="central" letter-spacing="0.12em">APAC AUTH</text>
<rect x="688.7" y="505" width="162" height="40" rx="12" fill="url(#dotgrid)" stroke="#b4f079" stroke-width="1.5"/><rect x="709.7" y="513.9" width="120" height="22.2" fill="#000000" rx="2"/><text x="769.7" y="525" font-family="'JetBrains Mono', 'Fira Code', 'SF Mono', 'Cascadia Code', monospace" font-size="13" fill="#b4f079" text-anchor="middle" dominant-baseline="central" letter-spacing="0.12em">APAC APP TIER</text>
<rect x="788.4" y="631" width="181" height="155.5" fill="url(#crosshatch)" stroke="none"/><line x1="788.4" y1="631" x2="788.4" y2="786.5" stroke="#b4f079" stroke-width="1.5"/><line x1="969.4" y1="631" x2="969.4" y2="786.5" stroke="#b4f079" stroke-width="1.5"/><ellipse cx="878.9" cy="631" rx="90.5" ry="10" fill="url(#crosshatch)" stroke="#b4f079" stroke-width="1.5"/><path d="M788.4,786.5 A90.5,10 0 0,0 969.4,786.5" fill="url(#crosshatch)" stroke="#b4f079" stroke-width="1.5"/><rect x="810.9" y="689.65" width="136" height="22.2" fill="#000000" rx="2"/><text x="878.9" y="700.75" font-family="'JetBrains Mono', 'Fira Code', 'SF Mono', 'Cascadia Code', monospace" font-size="13" fill="#b4f079" text-anchor="middle" dominant-baseline="central" letter-spacing="0.12em">APAC PRIMARY DB</text><rect x="810.9" y="709.35" width="136" height="39.599999999999994" fill="#000000" rx="2"/><text x="878.9" y="712.35" font-family="'JetBrains Mono', 'Fira Code', 'SF Mono', 'Cascadia Code', monospace" font-size="12" fill="#b4f079" opacity="0.6" text-anchor="middle" dominant-baseline="central" letter-spacing="0.12em">PostgreSQL 16</text><text x="878.9" y="729.15" font-family="'JetBrains Mono', 'Fira Code', 'SF Mono', 'Cascadia Code', monospace" font-size="12" fill="#b4f079" opacity="0.6" text-anchor="middle" dominant-baseline="central" letter-spacing="0.12em">ap-southeast-1a</text>
<rect x="726.5" y="884.5" width="162.39999999999998" height="131.9" rx="12" fill="none" stroke="#b4f079" stroke-width="2"/><rect x="731.5" y="889.5" width="152.39999999999998" height="121.9" rx="8" fill="url(#hero)" stroke="#b4f079" stroke-width="1"/><rect x="747.7" y="931.35" width="120" height="22.2" fill="#000000" rx="2"/><text x="807.7" y="942.45" font-family="'JetBrains Mono', 'Fira Code', 'SF Mono', 'Cascadia Code', monospace" font-size="13" fill="#b4f079" text-anchor="middle" dominant-baseline="central" letter-spacing="0.12em">TENANT ROUTER</text><rect x="731.7" y="951.0500000000001" width="152" height="39.599999999999994" fill="#000000" rx="2"/><text x="807.7" y="954.0500000000001" font-family="'JetBrains Mono', 'Fira Code', 'SF Mono', 'Cascadia Code', monospace" font-size="12" fill="#b4f079" opacity="0.6" text-anchor="middle" dominant-baseline="central" letter-spacing="0.12em">DNS-based routing</text><text x="807.7" y="970.85" font-family="'JetBrains Mono', 'Fira Code', 'SF Mono', 'Cascadia Code', monospace" font-size="12" fill="#b4f079" opacity="0.6" text-anchor="middle" dominant-baseline="central" letter-spacing="0.12em">GeoIP → region</text>
<rect x="365.4" y="1011.5" width="172" height="144.20000000000005" rx="12" fill="url(#dotgrid)" stroke="#b4f079" stroke-width="1.5"/><rect x="387.4" y="1064.5" width="128" height="22.2" fill="#000000" rx="2"/><text x="451.4" y="1075.6" font-family="'JetBrains Mono', 'Fira Code', 'SF Mono', 'Cascadia Code', monospace" font-size="13" fill="#b4f079" text-anchor="middle" dominant-baseline="central" letter-spacing="0.12em">CONFIG SERVICE</text><rect x="383.4" y="1084.2" width="136" height="39.599999999999994" fill="#000000" rx="2"/><text x="451.4" y="1087.1999999999998" font-family="'JetBrains Mono', 'Fira Code', 'SF Mono', 'Cascadia Code', monospace" font-size="12" fill="#b4f079" opacity="0.6" text-anchor="middle" dominant-baseline="central" letter-spacing="0.12em">Feature flags</text><text x="451.4" y="1103.9999999999998" font-family="'JetBrains Mono', 'Fira Code', 'SF Mono', 'Cascadia Code', monospace" font-size="12" fill="#b4f079" opacity="0.6" text-anchor="middle" dominant-baseline="central" letter-spacing="0.12em">Tenant settings</text>
<rect x="496.7" y="1165.5" width="172" height="116" rx="12" fill="url(#dotgrid)" stroke="#b4f079" stroke-width="1.5"/><rect x="518.7" y="1204.4" width="128" height="22.2" fill="#000000" rx="2"/><text x="582.7" y="1215.5" font-family="'JetBrains Mono', 'Fira Code', 'SF Mono', 'Cascadia Code', monospace" font-size="13" fill="#b4f079" text-anchor="middle" dominant-baseline="central" letter-spacing="0.12em">BILLING ENGINE</text><rect x="502.70000000000005" y="1224.1000000000001" width="160" height="39.599999999999994" fill="#000000" rx="2"/><text x="582.7" y="1227.1" font-family="'JetBrains Mono', 'Fira Code', 'SF Mono', 'Cascadia Code', monospace" font-size="12" fill="#b4f079" opacity="0.6" text-anchor="middle" dominant-baseline="central" letter-spacing="0.12em">Usage aggregation</text><text x="582.7" y="1243.8999999999999" font-family="'JetBrains Mono', 'Fira Code', 'SF Mono', 'Cascadia Code', monospace" font-size="12" fill="#b4f079" opacity="0.6" text-anchor="middle" dominant-baseline="central" letter-spacing="0.12em">Stripe integration</text>
<rect x="702.4" y="1038.5" width="205.6" height="62" fill="url(#crosshatch)" stroke="none"/><line x1="702.4" y1="1038.5" x2="702.4" y2="1100.5" stroke="#b4f079" stroke-width="1.5"/><line x1="908" y1="1038.5" x2="908" y2="1100.5" stroke="#b4f079" stroke-width="1.5"/><ellipse cx="805.1999999999999" cy="1038.5" rx="102.8" ry="10" fill="url(#crosshatch)" stroke="#b4f079" stroke-width="1.5"/><path d="M702.4,1100.5 A102.8,10 0 0,0 908,1100.5" fill="url(#crosshatch)" stroke="#b4f079" stroke-width="1.5"/><rect x="737.1999999999999" y="1050.4" width="136" height="22.2" fill="#000000" rx="2"/><text x="805.1999999999999" y="1061.5" font-family="'JetBrains Mono', 'Fira Code', 'SF Mono', 'Cascadia Code', monospace" font-size="13" fill="#b4f079" text-anchor="middle" dominant-baseline="central" letter-spacing="0.12em">TENANT REGISTRY</text><rect x="705.1999999999999" y="1070.1" width="200" height="22.799999999999997" fill="#000000" rx="2"/><text x="805.1999999999999" y="1081.5" font-family="'JetBrains Mono', 'Fira Code', 'SF Mono', 'Cascadia Code', monospace" font-size="12" fill="#b4f079" opacity="0.6" text-anchor="middle" dominant-baseline="central" letter-spacing="0.12em">Tenant → region mapping</text>
<text x="192.45" y="248.5" font-family="'JetBrains Mono', 'Fira Code', 'SF Mono', 'Cascadia Code', monospace" font-size="12" fill="#b4f079" opacity="0.85" text-anchor="middle">JWT verify</text>
<text x="175.85000000000002" y="543.1" font-family="'JetBrains Mono', 'Fira Code', 'SF Mono', 'Cascadia Code', monospace" font-size="12" fill="#b4f079" opacity="0.85" text-anchor="middle">Write path</text>
<text x="268.35" y="552.1" font-family="'JetBrains Mono', 'Fira Code', 'SF Mono', 'Cascadia Code', monospace" font-size="12" fill="#b4f079" opacity="0.85" text-anchor="middle">Read path</text>
<text x="239" y="588.1" font-family="'JetBrains Mono', 'Fira Code', 'SF Mono', 'Cascadia Code', monospace" font-size="12" fill="#b4f079" opacity="0.85" text-anchor="middle">Streaming replication</text>
<text x="351.45" y="1189.6" font-family="'JetBrains Mono', 'Fira Code', 'SF Mono', 'Cascadia Code', monospace" font-size="12" fill="#b4f079" opacity="0.85" text-anchor="middle">JWT verify</text>
<text x="431.2" y="1461.5" font-family="'JetBrains Mono', 'Fira Code', 'SF Mono', 'Cascadia Code', monospace" font-size="12" fill="#b4f079" opacity="0.85" text-anchor="middle">PII operations</text>
<text x="561.3" y="1461.5" font-family="'JetBrains Mono', 'Fira Code', 'SF Mono', 'Cascadia Code', monospace" font-size="12" fill="#b4f079" opacity="0.85" text-anchor="middle">Non-PII data</text>
<text x="615.7" y="308.5" font-family="'JetBrains Mono', 'Fira Code', 'SF Mono', 'Cascadia Code', monospace" font-size="12" fill="#b4f079" opacity="0.85" text-anchor="middle">JWT verify</text>
<text x="824.3" y="587" font-family="'JetBrains Mono', 'Fira Code', 'SF Mono', 'Cascadia Code', monospace" font-size="12" fill="#b4f079" opacity="0.85" text-anchor="middle">CRUD</text>
<text x="806.45" y="1013.5" font-family="'JetBrains Mono', 'Fira Code', 'SF Mono', 'Cascadia Code', monospace" font-size="12" fill="#b4f079" opacity="0.85" text-anchor="middle">Lookup region</text>
<text x="517.05" y="1150.5" font-family="'JetBrains Mono', 'Fira Code', 'SF Mono', 'Cascadia Code', monospace" font-size="12" fill="#b4f079" opacity="0.85" text-anchor="middle">Usage events</text>
<text x="132.5" y="480.1" font-family="'Inter', 'Helvetica Neue', Arial, sans-serif" font-size="14" fill="#ffffff" font-weight="700">No cross-region data flow:</text><text x="132.5" y="498.1" font-family="'JetBrains Mono', 'Fira Code', 'SF Mono', 'Cascadia Code', monospace" font-size="11" fill="#b4f079" opacity="0.7">each island is a complete</text><text x="132.5" y="516.1" font-family="'JetBrains Mono', 'Fira Code', 'SF Mono', 'Cascadia Code', monospace" font-size="11" fill="#b4f079" opacity="0.7">isolated deployment</text>
<text x="388" y="1315.4" font-family="'Inter', 'Helvetica Neue', Arial, sans-serif" font-size="14" fill="#ffffff" font-weight="700">GDPR data residency:</text><text x="388" y="1333.4" font-family="'JetBrains Mono', 'Fira Code', 'SF Mono', 'Cascadia Code', monospace" font-size="11" fill="#b4f079" opacity="0.7">PII never leaves EU region</text><text x="388" y="1351.4" font-family="'JetBrains Mono', 'Fira Code', 'SF Mono', 'Cascadia Code', monospace" font-size="11" fill="#b4f079" opacity="0.7">Right to erasure supported</text>
<text x="900.9" y="505" font-family="'Inter', 'Helvetica Neue', Arial, sans-serif" font-size="14" fill="#ffffff" font-weight="700">Control plane is metadata only:</text><text x="900.9" y="523" font-family="'JetBrains Mono', 'Fira Code', 'SF Mono', 'Cascadia Code', monospace" font-size="11" fill="#b4f079" opacity="0.7">no customer data transits</text><text x="900.9" y="541" font-family="'JetBrains Mono', 'Fira Code', 'SF Mono', 'Cascadia Code', monospace" font-size="11" fill="#b4f079" opacity="0.7">through global services</text>
</g>
</svg>