<svg xmlns="http://www.w3.org/2000/svg" viewBox="0 0 1514.2 660" width="1514.2" height="660">
<defs>
  <pattern id="dotgrid" width="8" height="8" patternUnits="userSpaceOnUse">
    <rect width="8" height="8" fill="#000000"/>
    <circle cx="4" cy="4" r="0.8" fill="#b4f079" opacity="0.7"/>
  </pattern>
  <pattern id="crosshatch" width="8" height="8" patternUnits="userSpaceOnUse">
    <rect width="8" height="8" fill="#000000"/>
    <path d="M0 8L8 0M-1 1L1 -1M7 9L9 7" stroke="#b4f079" stroke-width="0.8" opacity="0.2"/>
  </pattern>
  <pattern id="hero" width="6" height="6" patternUnits="userSpaceOnUse">
    <rect width="6" height="6" fill="#3d6b23"/>
    <circle cx="3" cy="3" r="0.6" fill="#5a9a35" opacity="0.5"/>
  </pattern>
  <marker id="arrowhead" markerWidth="10" markerHeight="7" refX="9" refY="3.5" orient="auto" markerUnits="strokeWidth">
    <polygon points="0 0, 10 3.5, 0 7" fill="#b4f079"/>
  </marker>
  <marker id="arrowhead-reverse" markerWidth="10" markerHeight="7" refX="1" refY="3.5" orient="auto" markerUnits="strokeWidth">
    <polygon points="10 0, 0 3.5, 10 7" fill="#b4f079"/>
  </marker>
</defs>
<rect width="100%" height="100%" fill="#000000"/>
<g class="diagram">
<text x="30" y="34" font-family="'Inter', 'Helvetica Neue', Arial, sans-serif" font-size="15" fill="#ffffff" font-weight="700">Data mesh: domain-owned data products with consumer-producer contracts</text>
<polyline points="348.06,132 348.06,180 548.2,180 468.2,260" fill="none" stroke="#b4f079" stroke-width="1.5" marker-end="url(#arrowhead)"/>
<polyline points="193.06000000000003,132 193.06000000000003,180 548.2,180 468.2,308" fill="none" stroke="#b4f079" stroke-width="1.5" marker-end="url(#arrowhead)"/>
<line x1="521.7800000000001" y1="132" x2="524.2" y2="204" stroke="#b4f079" stroke-width="1.5" marker-end="url(#arrowhead)"/>
<polyline points="686.14,132 686.14,168 548.2,168 572.2,204" fill="none" stroke="#b4f079" stroke-width="1.5" marker-end="url(#arrowhead)"/>
<polyline points="1080.3799999999999,132 1080.3799999999999,168 548.2,168 548.2,204" fill="none" stroke="#b4f079" stroke-width="1.5" marker-end="url(#arrowhead)"/>
<line x1="468.20000000000005" y1="284" x2="217" y2="284" stroke="#b4f079" stroke-width="1.5" stroke-dasharray="6 4" marker-end="url(#arrowhead)"/>
<line x1="628.2" y1="284" x2="658.2" y2="284" stroke="#b4f079" stroke-width="1.5" stroke-dasharray="6 4" marker-end="url(#arrowhead)"/>
<line x1="628.2" y1="284" x2="872.2" y2="284" stroke="#b4f079" stroke-width="1.5" stroke-dasharray="6 4" marker-end="url(#arrowhead)"/>
<polyline points="548.2,364 548.2,400 763.1,400 763.1,436" fill="none" stroke="#b4f079" stroke-width="1.5" stroke-dasharray="6 4" marker-end="url(#arrowhead)"/>
<line x1="628.2" y1="284" x2="1086.2" y2="284" stroke="#b4f079" stroke-width="1.5" stroke-dasharray="6 4" marker-end="url(#arrowhead)"/>
<line x1="468.20000000000005" y1="284" x2="438.20000000000005" y2="284" stroke="#b4f079" stroke-width="1.5" stroke-dasharray="6 4" marker-end="url(#arrowhead)"/>
<line x1="548.2" y1="364" x2="590.3" y2="436" stroke="#b4f079" stroke-width="1.5" stroke-dasharray="6 4" marker-end="url(#arrowhead)"/>
<line x1="348.06" y1="132" x2="313.4" y2="192" stroke="#b4f079" stroke-width="1.5" marker-end="url(#arrowhead)"/>
<polyline points="348.06,132 348.06,388 538.1,388 555.5,436" fill="none" stroke="#b4f079" stroke-width="1.5" marker-end="url(#arrowhead)"/>
<polyline points="193.06000000000003,132 193.06000000000003,388 538.1,388 485.90000000000003,436" fill="none" stroke="#b4f079" stroke-width="1.5" marker-end="url(#arrowhead)"/>
<line x1="193.06000000000003" y1="132" x2="126.5" y2="192" stroke="#b4f079" stroke-width="1.5" marker-end="url(#arrowhead)"/>
<polyline points="521.7800000000001,132 521.7800000000001,187 750.2,187 658.2,242" fill="none" stroke="#b4f079" stroke-width="1.5" marker-end="url(#arrowhead)"/>
<polyline points="521.7800000000001,132 521.7800000000001,162 342.6,162 371.8,192" fill="none" stroke="#b4f079" stroke-width="1.5" marker-end="url(#arrowhead)"/>
<polyline points="686.14,132 686.14,180 964.2,180 872.2,242" fill="none" stroke="#b4f079" stroke-width="1.5" marker-end="url(#arrowhead)"/>
<line x1="686.14" y1="132" x2="722.2" y2="192" stroke="#b4f079" stroke-width="1.5" marker-end="url(#arrowhead)"/>
<polyline points="1080.3799999999999,132 1080.3799999999999,162 1178.2,162 1178.2,192" fill="none" stroke="#b4f079" stroke-width="1.5" marker-end="url(#arrowhead)"/>
<polyline points="1080.3799999999999,132 1080.3799999999999,162 964.2,162 964.2,192" fill="none" stroke="#b4f079" stroke-width="1.5" marker-end="url(#arrowhead)"/>
<polyline points="869.2199999999999,132 869.2199999999999,162 750.2,162 778.2,192" fill="none" stroke="#b4f079" stroke-width="1.5" marker-end="url(#arrowhead)"/>
<line x1="217" y1="284" x2="658.2" y2="326" stroke="#b4f079" stroke-width="1.5" marker-end="url(#arrowhead)"/>
<polyline points="126.5,376 126.5,406 538.1,406 538.1,436" fill="none" stroke="#b4f079" stroke-width="1.5" marker-end="url(#arrowhead)"/>
<line x1="842.2" y1="284" x2="872.2" y2="326" stroke="#b4f079" stroke-width="1.5" marker-end="url(#arrowhead)"/>
<polyline points="342.6,376 342.6,406 538.1,406 520.7,436" fill="none" stroke="#b4f079" stroke-width="1.5" marker-end="url(#arrowhead)"/>
<rect x="322.63" y="77.20324969291687" width="131" height="22" rx="4" fill="#000000"/>
<rect x="266.9100000000001" y="176.18984985351562" width="131" height="22" rx="4" fill="#000000"/>
<rect x="486.4575" y="128.70849609375" width="110" height="22" rx="4" fill="#000000"/>
<rect x="610.4575" y="121.078125" width="96" height="22" rx="4" fill="#000000"/>
<rect x="815.79" y="106.3984375" width="117" height="22" rx="4" fill="#000000"/>
<rect x="251.56750000000005" y="139.525146484375" width="103" height="22" rx="4" fill="#000000"/>
<rect x="531.7" y="211.11651754379272" width="103" height="22" rx="4" fill="#000000"/>
<rect x="652.55125" y="190.0859375" width="103" height="22" rx="4" fill="#000000"/>
<rect x="604.1500000000001" y="389" width="103" height="22" rx="4" fill="#000000"/>
<rect x="790.7" y="209.6015625" width="103" height="22" rx="4" fill="#000000"/>
<rect x="371.49000000000007" y="109.9854086637497" width="103" height="22" rx="4" fill="#000000"/>
<rect x="438.475" y="423.4375" width="103" height="22" rx="4" fill="#000000"/>
<rect x="290.33000000000004" y="243.6496868133545" width="110" height="22" rx="4" fill="#000000"/>
<rect x="368.56750000000005" y="142.5509631037712" width="103" height="22" rx="4" fill="#000000"/>
<rect x="293.08000000000004" y="210.76971864700317" width="145" height="22" rx="4" fill="#000000"/>
<rect x="109.28000000000003" y="151" width="131" height="22" rx="4" fill="#000000"/>
<rect x="553.6325" y="165.5" width="82" height="22" rx="4" fill="#000000"/>
<rect x="411.9100000000001" y="178.5509631037712" width="117" height="22" rx="4" fill="#000000"/>
<rect x="777.7137500000001" y="140" width="110" height="22" rx="4" fill="#000000"/>
<rect x="649.6325" y="154.0859375" width="117" height="22" rx="4" fill="#000000"/>
<rect x="1106.79" y="151" width="75" height="22" rx="4" fill="#000000"/>
<rect x="999.79" y="151" width="75" height="22" rx="4" fill="#000000"/>
<rect x="795.21" y="176" width="89" height="22" rx="4" fill="#000000"/>
<rect x="439.1" y="354.28125" width="117" height="22" rx="4" fill="#000000"/>
<rect x="281.1625" y="395" width="138" height="22" rx="4" fill="#000000"/>
<rect x="826.2" y="370" width="152" height="22" rx="4" fill="#000000"/>
<rect x="433.1625" y="390.28125" width="145" height="22" rx="4" fill="#000000"/>
<circle cx="348.06" cy="67" r="7" fill="none" stroke="#b4f079" stroke-width="1.5"/><line x1="348.06" y1="74" x2="348.06" y2="96" stroke="#b4f079" stroke-width="1.5"/><line x1="334.06" y1="80" x2="362.06" y2="80" stroke="#b4f079" stroke-width="1.5"/><line x1="348.06" y1="96" x2="338.06" y2="112" stroke="#b4f079" stroke-width="1.5"/><line x1="348.06" y1="96" x2="358.06" y2="112" stroke="#b4f079" stroke-width="1.5"/><text x="348.06" y="126" font-family="'JetBrains Mono', 'Fira Code', 'SF Mono', 'Cascadia Code', monospace" font-size="13" fill="#b4f079" text-anchor="middle" letter-spacing="0.12em">DATA SCIENTIST</text>
<circle cx="193.06000000000003" cy="67" r="7" fill="none" stroke="#b4f079" stroke-width="1.5"/><line x1="193.06000000000003" y1="74" x2="193.06000000000003" y2="96" stroke="#b4f079" stroke-width="1.5"/><line x1="179.06000000000003" y1="80" x2="207.06000000000003" y2="80" stroke="#b4f079" stroke-width="1.5"/><line x1="193.06000000000003" y1="96" x2="183.06000000000003" y2="112" stroke="#b4f079" stroke-width="1.5"/><line x1="193.06000000000003" y1="96" x2="203.06000000000003" y2="112" stroke="#b4f079" stroke-width="1.5"/><text x="193.06000000000003" y="126" font-family="'JetBrains Mono', 'Fira Code', 'SF Mono', 'Cascadia Code', monospace" font-size="13" fill="#b4f079" text-anchor="middle" letter-spacing="0.12em">ML ENGINEER</text>
<circle cx="521.7800000000001" cy="67" r="7" fill="none" stroke="#b4f079" stroke-width="1.5"/><line x1="521.7800000000001" y1="74" x2="521.7800000000001" y2="96" stroke="#b4f079" stroke-width="1.5"/><line x1="507.7800000000001" y1="80" x2="535.7800000000001" y2="80" stroke="#b4f079" stroke-width="1.5"/><line x1="521.7800000000001" y1="96" x2="511.7800000000001" y2="112" stroke="#b4f079" stroke-width="1.5"/><line x1="521.7800000000001" y1="96" x2="531.7800000000001" y2="112" stroke="#b4f079" stroke-width="1.5"/><text x="521.7800000000001" y="126" font-family="'JetBrains Mono', 'Fira Code', 'SF Mono', 'Cascadia Code', monospace" font-size="13" fill="#b4f079" text-anchor="middle" letter-spacing="0.12em">PRODUCT ANALYST</text>
<circle cx="686.14" cy="67" r="7" fill="none" stroke="#b4f079" stroke-width="1.5"/><line x1="686.14" y1="74" x2="686.14" y2="96" stroke="#b4f079" stroke-width="1.5"/><line x1="672.14" y1="80" x2="700.14" y2="80" stroke="#b4f079" stroke-width="1.5"/><line x1="686.14" y1="96" x2="676.14" y2="112" stroke="#b4f079" stroke-width="1.5"/><line x1="686.14" y1="96" x2="696.14" y2="112" stroke="#b4f079" stroke-width="1.5"/><text x="686.14" y="126" font-family="'JetBrains Mono', 'Fira Code', 'SF Mono', 'Cascadia Code', monospace" font-size="13" fill="#b4f079" text-anchor="middle" letter-spacing="0.12em">FINANCE TEAM</text>
<circle cx="1080.3799999999999" cy="67" r="7" fill="none" stroke="#b4f079" stroke-width="1.5"/><line x1="1080.3799999999999" y1="74" x2="1080.3799999999999" y2="96" stroke="#b4f079" stroke-width="1.5"/><line x1="1066.3799999999999" y1="80" x2="1094.3799999999999" y2="80" stroke="#b4f079" stroke-width="1.5"/><line x1="1080.3799999999999" y1="96" x2="1070.3799999999999" y2="112" stroke="#b4f079" stroke-width="1.5"/><line x1="1080.3799999999999" y1="96" x2="1090.3799999999999" y2="112" stroke="#b4f079" stroke-width="1.5"/><text x="1080.3799999999999" y="126" font-family="'JetBrains Mono', 'Fira Code', 'SF Mono', 'Cascadia Code', monospace" font-size="13" fill="#b4f079" text-anchor="middle" letter-spacing="0.12em">COMPLIANCE OFFICER</text>
<circle cx="869.2199999999999" cy="67" r="7" fill="none" stroke="#b4f079" stroke-width="1.5"/><line x1="869.2199999999999" y1="74" x2="869.2199999999999" y2="96" stroke="#b4f079" stroke-width="1.5"/><line x1="855.2199999999999" y1="80" x2="883.2199999999999" y2="80" stroke="#b4f079" stroke-width="1.5"/><line x1="869.2199999999999" y1="96" x2="859.2199999999999" y2="112" stroke="#b4f079" stroke-width="1.5"/><line x1="869.2199999999999" y1="96" x2="879.2199999999999" y2="112" stroke="#b4f079" stroke-width="1.5"/><text x="869.2199999999999" y="126" font-family="'JetBrains Mono', 'Fira Code', 'SF Mono', 'Cascadia Code', monospace" font-size="13" fill="#b4f079" text-anchor="middle" letter-spacing="0.12em">EXECUTIVE DASHBOARD</text>
<rect x="468.2" y="204" width="160" height="160" rx="12" fill="none" stroke="#b4f079" stroke-width="1.5"/><rect x="472.95" y="208.75" width="150.5" height="150.5" rx="8" fill="url(#hero)" stroke="#b4f079" stroke-width="1"/><rect x="492.20000000000005" y="264.9" width="112" height="22.2" fill="#000000" rx="2"/><text x="548.2" y="276" font-family="'JetBrains Mono', 'Fira Code', 'SF Mono', 'Cascadia Code', monospace" font-size="13" fill="#b4f079" text-anchor="middle" dominant-baseline="central" letter-spacing="0.12em">DATA CATALOG</text><rect x="476.20000000000005" y="284.6" width="144" height="56.39999999999999" fill="#000000" rx="2"/><text x="548.2" y="279.2" font-family="'JetBrains Mono', 'Fira Code', 'SF Mono', 'Cascadia Code', monospace" font-size="12" fill="#b4f079" opacity="0.6" text-anchor="middle" dominant-baseline="central" letter-spacing="0.12em">Apache DataHub</text><text x="548.2" y="296" font-family="'JetBrains Mono', 'Fira Code', 'SF Mono', 'Cascadia Code', monospace" font-size="12" fill="#b4f079" opacity="0.6" text-anchor="middle" dominant-baseline="central" letter-spacing="0.12em">Schema registry</text><text x="548.2" y="312.79999999999995" font-family="'JetBrains Mono', 'Fira Code', 'SF Mono', 'Cascadia Code', monospace" font-size="12" fill="#b4f079" opacity="0.6" text-anchor="middle" dominant-baseline="central" letter-spacing="0.12em">Lineage tracking</text>
<rect x="36" y="202" width="181" height="164" fill="url(#crosshatch)" stroke="none"/><line x1="36" y1="202" x2="36" y2="366" stroke="#b4f079" stroke-width="1.5"/><line x1="217" y1="202" x2="217" y2="366" stroke="#b4f079" stroke-width="1.5"/><ellipse cx="126.5" cy="202" rx="90.5" ry="10" fill="url(#crosshatch)" stroke="#b4f079" stroke-width="1.5"/><path d="M36,366 A90.5,10 0 0,0 217,366" fill="url(#crosshatch)" stroke="#b4f079" stroke-width="1.5"/><rect x="58.5" y="264.9" width="136" height="22.2" fill="#000000" rx="2"/><text x="126.5" y="276" font-family="'JetBrains Mono', 'Fira Code', 'SF Mono', 'Cascadia Code', monospace" font-size="13" fill="#b4f079" text-anchor="middle" dominant-baseline="central" letter-spacing="0.12em">CUSTOMER EVENTS</text><rect x="46.5" y="284.6" width="160" height="73.19999999999999" fill="#000000" rx="2"/><text x="126.5" y="270.8" font-family="'JetBrains Mono', 'Fira Code', 'SF Mono', 'Cascadia Code', monospace" font-size="12" fill="#b4f079" opacity="0.6" text-anchor="middle" dominant-baseline="central" letter-spacing="0.12em">Kafka topic</text><text x="126.5" y="287.6" font-family="'JetBrains Mono', 'Fira Code', 'SF Mono', 'Cascadia Code', monospace" font-size="12" fill="#b4f079" opacity="0.6" text-anchor="middle" dominant-baseline="central" letter-spacing="0.12em">Avro schema v3</text><text x="126.5" y="304.4" font-family="'JetBrains Mono', 'Fira Code', 'SF Mono', 'Cascadia Code', monospace" font-size="12" fill="#b4f079" opacity="0.6" text-anchor="middle" dominant-baseline="central" letter-spacing="0.12em">Retention: 90 days</text><text x="126.5" y="321.2" font-family="'JetBrains Mono', 'Fira Code', 'SF Mono', 'Cascadia Code', monospace" font-size="12" fill="#b4f079" opacity="0.6" text-anchor="middle" dominant-baseline="central" letter-spacing="0.12em">Owner: Growth team</text>
<rect x="658.2" y="202" width="184" height="164" fill="url(#crosshatch)" stroke="none"/><line x1="658.2" y1="202" x2="658.2" y2="366" stroke="#b4f079" stroke-width="1.5"/><line x1="842.2" y1="202" x2="842.2" y2="366" stroke="#b4f079" stroke-width="1.5"/><ellipse cx="750.2" cy="202" rx="92" ry="10" fill="url(#crosshatch)" stroke="#b4f079" stroke-width="1.5"/><path d="M658.2,366 A92,10 0 0,0 842.2,366" fill="url(#crosshatch)" stroke="#b4f079" stroke-width="1.5"/><rect x="698.2" y="264.9" width="104" height="22.2" fill="#000000" rx="2"/><text x="750.2" y="276" font-family="'JetBrains Mono', 'Fira Code', 'SF Mono', 'Cascadia Code', monospace" font-size="13" fill="#b4f079" text-anchor="middle" dominant-baseline="central" letter-spacing="0.12em">ORDER FACTS</text><rect x="662.2" y="284.6" width="176" height="73.19999999999999" fill="#000000" rx="2"/><text x="750.2" y="270.8" font-family="'JetBrains Mono', 'Fira Code', 'SF Mono', 'Cascadia Code', monospace" font-size="12" fill="#b4f079" opacity="0.6" text-anchor="middle" dominant-baseline="central" letter-spacing="0.12em">Iceberg table</text><text x="750.2" y="287.6" font-family="'JetBrains Mono', 'Fira Code', 'SF Mono', 'Cascadia Code', monospace" font-size="12" fill="#b4f079" opacity="0.6" text-anchor="middle" dominant-baseline="central" letter-spacing="0.12em">Partitioned by date</text><text x="750.2" y="304.4" font-family="'JetBrains Mono', 'Fira Code', 'SF Mono', 'Cascadia Code', monospace" font-size="12" fill="#b4f079" opacity="0.6" text-anchor="middle" dominant-baseline="central" letter-spacing="0.12em">2.3B rows</text><text x="750.2" y="321.2" font-family="'JetBrains Mono', 'Fira Code', 'SF Mono', 'Cascadia Code', monospace" font-size="12" fill="#b4f079" opacity="0.6" text-anchor="middle" dominant-baseline="central" letter-spacing="0.12em">Owner: Commerce team</text>
<rect x="872.2" y="202" width="184" height="164" fill="url(#crosshatch)" stroke="none"/><line x1="872.2" y1="202" x2="872.2" y2="366" stroke="#b4f079" stroke-width="1.5"/><line x1="1056.2" y1="202" x2="1056.2" y2="366" stroke="#b4f079" stroke-width="1.5"/><ellipse cx="964.2" cy="202" rx="92" ry="10" fill="url(#crosshatch)" stroke="#b4f079" stroke-width="1.5"/><path d="M872.2,366 A92,10 0 0,0 1056.2,366" fill="url(#crosshatch)" stroke="#b4f079" stroke-width="1.5"/><rect x="900.2" y="264.9" width="128" height="22.2" fill="#000000" rx="2"/><text x="964.2" y="276" font-family="'JetBrains Mono', 'Fira Code', 'SF Mono', 'Cascadia Code', monospace" font-size="13" fill="#b4f079" text-anchor="middle" dominant-baseline="central" letter-spacing="0.12em">PAYMENT LEDGER</text><rect x="876.2" y="284.6" width="176" height="73.19999999999999" fill="#000000" rx="2"/><text x="964.2" y="270.8" font-family="'JetBrains Mono', 'Fira Code', 'SF Mono', 'Cascadia Code', monospace" font-size="12" fill="#b4f079" opacity="0.6" text-anchor="middle" dominant-baseline="central" letter-spacing="0.12em">PostgreSQL</text><text x="964.2" y="287.6" font-family="'JetBrains Mono', 'Fira Code', 'SF Mono', 'Cascadia Code', monospace" font-size="12" fill="#b4f079" opacity="0.6" text-anchor="middle" dominant-baseline="central" letter-spacing="0.12em">Append-only</text><text x="964.2" y="304.4" font-family="'JetBrains Mono', 'Fira Code', 'SF Mono', 'Cascadia Code', monospace" font-size="12" fill="#b4f079" opacity="0.6" text-anchor="middle" dominant-baseline="central" letter-spacing="0.12em">PCI-DSS scoped</text><text x="964.2" y="321.2" font-family="'JetBrains Mono', 'Fira Code', 'SF Mono', 'Cascadia Code', monospace" font-size="12" fill="#b4f079" opacity="0.6" text-anchor="middle" dominant-baseline="central" letter-spacing="0.12em">Owner: Payments team</text>
<rect x="663.1" y="446" width="200" height="164" fill="url(#crosshatch)" stroke="none"/><line x1="663.1" y1="446" x2="663.1" y2="610" stroke="#b4f079" stroke-width="1.5"/><line x1="863.1" y1="446" x2="863.1" y2="610" stroke="#b4f079" stroke-width="1.5"/><ellipse cx="763.1" cy="446" rx="100" ry="10" fill="url(#crosshatch)" stroke="#b4f079" stroke-width="1.5"/><path d="M663.1,610 A100,10 0 0,0 863.1,610" fill="url(#crosshatch)" stroke="#b4f079" stroke-width="1.5"/><rect x="687.1" y="508.9" width="152" height="22.2" fill="#000000" rx="2"/><text x="763.1" y="520" font-family="'JetBrains Mono', 'Fira Code', 'SF Mono', 'Cascadia Code', monospace" font-size="13" fill="#b4f079" text-anchor="middle" dominant-baseline="central" letter-spacing="0.12em">PRODUCT INVENTORY</text><rect x="671.1" y="528.6" width="184" height="73.19999999999999" fill="#000000" rx="2"/><text x="763.1" y="514.8" font-family="'JetBrains Mono', 'Fira Code', 'SF Mono', 'Cascadia Code', monospace" font-size="12" fill="#b4f079" opacity="0.6" text-anchor="middle" dominant-baseline="central" letter-spacing="0.12em">DynamoDB</text><text x="763.1" y="531.5999999999999" font-family="'JetBrains Mono', 'Fira Code', 'SF Mono', 'Cascadia Code', monospace" font-size="12" fill="#b4f079" opacity="0.6" text-anchor="middle" dominant-baseline="central" letter-spacing="0.12em">GSI on SKU + region</text><text x="763.1" y="548.4" font-family="'JetBrains Mono', 'Fira Code', 'SF Mono', 'Cascadia Code', monospace" font-size="12" fill="#b4f079" opacity="0.6" text-anchor="middle" dominant-baseline="central" letter-spacing="0.12em">Eventually consistent</text><text x="763.1" y="565.1999999999999" font-family="'JetBrains Mono', 'Fira Code', 'SF Mono', 'Cascadia Code', monospace" font-size="12" fill="#b4f079" opacity="0.6" text-anchor="middle" dominant-baseline="central" letter-spacing="0.12em">Owner: Supply chain</text>
<rect x="1086.2" y="202" width="184" height="164" fill="url(#crosshatch)" stroke="none"/><line x1="1086.2" y1="202" x2="1086.2" y2="366" stroke="#b4f079" stroke-width="1.5"/><line x1="1270.2" y1="202" x2="1270.2" y2="366" stroke="#b4f079" stroke-width="1.5"/><ellipse cx="1178.2" cy="202" rx="92" ry="10" fill="url(#crosshatch)" stroke="#b4f079" stroke-width="1.5"/><path d="M1086.2,366 A92,10 0 0,0 1270.2,366" fill="url(#crosshatch)" stroke="#b4f079" stroke-width="1.5"/><rect x="1118.2" y="264.9" width="120" height="22.2" fill="#000000" rx="2"/><text x="1178.2" y="276" font-family="'JetBrains Mono', 'Fira Code', 'SF Mono', 'Cascadia Code', monospace" font-size="13" fill="#b4f079" text-anchor="middle" dominant-baseline="central" letter-spacing="0.12em">USER PROFILES</text><rect x="1090.2" y="284.6" width="176" height="73.19999999999999" fill="#000000" rx="2"/><text x="1178.2" y="270.8" font-family="'JetBrains Mono', 'Fira Code', 'SF Mono', 'Cascadia Code', monospace" font-size="12" fill="#b4f079" opacity="0.6" text-anchor="middle" dominant-baseline="central" letter-spacing="0.12em">MongoDB</text><text x="1178.2" y="287.6" font-family="'JetBrains Mono', 'Fira Code', 'SF Mono', 'Cascadia Code', monospace" font-size="12" fill="#b4f079" opacity="0.6" text-anchor="middle" dominant-baseline="central" letter-spacing="0.12em">PII encrypted</text><text x="1178.2" y="304.4" font-family="'JetBrains Mono', 'Fira Code', 'SF Mono', 'Cascadia Code', monospace" font-size="12" fill="#b4f079" opacity="0.6" text-anchor="middle" dominant-baseline="central" letter-spacing="0.12em">GDPR compliant</text><text x="1178.2" y="321.2" font-family="'JetBrains Mono', 'Fira Code', 'SF Mono', 'Cascadia Code', monospace" font-size="12" fill="#b4f079" opacity="0.6" text-anchor="middle" dominant-baseline="central" letter-spacing="0.12em">Owner: Identity team</text>
<rect x="247" y="202" width="191.2" height="164" fill="url(#crosshatch)" stroke="none"/><line x1="247" y1="202" x2="247" y2="366" stroke="#b4f079" stroke-width="1.5"/><line x1="438.2" y1="202" x2="438.2" y2="366" stroke="#b4f079" stroke-width="1.5"/><ellipse cx="342.6" cy="202" rx="95.6" ry="10" fill="url(#crosshatch)" stroke="#b4f079" stroke-width="1.5"/><path d="M247,366 A95.6,10 0 0,0 438.2,366" fill="url(#crosshatch)" stroke="#b4f079" stroke-width="1.5"/><rect x="290.6" y="264.9" width="104" height="22.2" fill="#000000" rx="2"/><text x="342.6" y="276" font-family="'JetBrains Mono', 'Fira Code', 'SF Mono', 'Cascadia Code', monospace" font-size="13" fill="#b4f079" text-anchor="middle" dominant-baseline="central" letter-spacing="0.12em">CLICKSTREAM</text><rect x="250.60000000000002" y="284.6" width="184" height="73.19999999999999" fill="#000000" rx="2"/><text x="342.6" y="270.8" font-family="'JetBrains Mono', 'Fira Code', 'SF Mono', 'Cascadia Code', monospace" font-size="12" fill="#b4f079" opacity="0.6" text-anchor="middle" dominant-baseline="central" letter-spacing="0.12em">S3 Parquet</text><text x="342.6" y="287.6" font-family="'JetBrains Mono', 'Fira Code', 'SF Mono', 'Cascadia Code', monospace" font-size="12" fill="#b4f079" opacity="0.6" text-anchor="middle" dominant-baseline="central" letter-spacing="0.12em">Hourly partitions</text><text x="342.6" y="304.4" font-family="'JetBrains Mono', 'Fira Code', 'SF Mono', 'Cascadia Code', monospace" font-size="12" fill="#b4f079" opacity="0.6" text-anchor="middle" dominant-baseline="central" letter-spacing="0.12em">50TB compressed</text><text x="342.6" y="321.2" font-family="'JetBrains Mono', 'Fira Code', 'SF Mono', 'Cascadia Code', monospace" font-size="12" fill="#b4f079" opacity="0.6" text-anchor="middle" dominant-baseline="central" letter-spacing="0.12em">Owner: Analytics team</text>
<rect x="443.1" y="446" width="190" height="164" fill="url(#crosshatch)" stroke="none"/><line x1="443.1" y1="446" x2="443.1" y2="610" stroke="#b4f079" stroke-width="1.5"/><line x1="633.1" y1="446" x2="633.1" y2="610" stroke="#b4f079" stroke-width="1.5"/><ellipse cx="538.1" cy="446" rx="95" ry="10" fill="url(#crosshatch)" stroke="#b4f079" stroke-width="1.5"/><path d="M443.1,610 A95,10 0 0,0 633.1,610" fill="url(#crosshatch)" stroke="#b4f079" stroke-width="1.5"/><rect x="466.1" y="508.9" width="144" height="22.2" fill="#000000" rx="2"/><text x="538.1" y="520" font-family="'JetBrains Mono', 'Fira Code', 'SF Mono', 'Cascadia Code', monospace" font-size="13" fill="#b4f079" text-anchor="middle" dominant-baseline="central" letter-spacing="0.12em">ML FEATURE STORE</text><rect x="458.1" y="528.6" width="160" height="73.19999999999999" fill="#000000" rx="2"/><text x="538.1" y="514.8" font-family="'JetBrains Mono', 'Fira Code', 'SF Mono', 'Cascadia Code', monospace" font-size="12" fill="#b4f079" opacity="0.6" text-anchor="middle" dominant-baseline="central" letter-spacing="0.12em">Feast + Redis</text><text x="538.1" y="531.5999999999999" font-family="'JetBrains Mono', 'Fira Code', 'SF Mono', 'Cascadia Code', monospace" font-size="12" fill="#b4f079" opacity="0.6" text-anchor="middle" dominant-baseline="central" letter-spacing="0.12em">Online + offline</text><text x="538.1" y="548.4" font-family="'JetBrains Mono', 'Fira Code', 'SF Mono', 'Cascadia Code', monospace" font-size="12" fill="#b4f079" opacity="0.6" text-anchor="middle" dominant-baseline="central" letter-spacing="0.12em">1200 features</text><text x="538.1" y="565.1999999999999" font-family="'JetBrains Mono', 'Fira Code', 'SF Mono', 'Cascadia Code', monospace" font-size="12" fill="#b4f079" opacity="0.6" text-anchor="middle" dominant-baseline="central" letter-spacing="0.12em">Owner: ML Platform</text>
<text x="388.13" y="92.20324969291687" font-family="'JetBrains Mono', 'Fira Code', 'SF Mono', 'Cascadia Code', monospace" font-size="12" fill="#b4f079" opacity="0.85" text-anchor="middle">Discover datasets</text>
<text x="332.4100000000001" y="191.18984985351562" font-family="'JetBrains Mono', 'Fira Code', 'SF Mono', 'Cascadia Code', monospace" font-size="12" fill="#b4f079" opacity="0.85" text-anchor="middle">Register features</text>
<text x="541.4575" y="143.70849609375" font-family="'JetBrains Mono', 'Fira Code', 'SF Mono', 'Cascadia Code', monospace" font-size="12" fill="#b4f079" opacity="0.85" text-anchor="middle">Search lineage</text>
<text x="658.4575" y="136.078125" font-family="'JetBrains Mono', 'Fira Code', 'SF Mono', 'Cascadia Code', monospace" font-size="12" fill="#b4f079" opacity="0.85" text-anchor="middle">Audit access</text>
<text x="874.29" y="121.3984375" font-family="'JetBrains Mono', 'Fira Code', 'SF Mono', 'Cascadia Code', monospace" font-size="12" fill="#b4f079" opacity="0.85" text-anchor="middle">Review PII tags</text>
<text x="303.06750000000005" y="154.525146484375" font-family="'JetBrains Mono', 'Fira Code', 'SF Mono', 'Cascadia Code', monospace" font-size="12" fill="#b4f079" opacity="0.85" text-anchor="middle">Metadata sync</text>
<text x="583.2" y="226.11651754379272" font-family="'JetBrains Mono', 'Fira Code', 'SF Mono', 'Cascadia Code', monospace" font-size="12" fill="#b4f079" opacity="0.85" text-anchor="middle">Metadata sync</text>
<text x="704.05125" y="205.0859375" font-family="'JetBrains Mono', 'Fira Code', 'SF Mono', 'Cascadia Code', monospace" font-size="12" fill="#b4f079" opacity="0.85" text-anchor="middle">Metadata sync</text>
<text x="655.6500000000001" y="404" font-family="'JetBrains Mono', 'Fira Code', 'SF Mono', 'Cascadia Code', monospace" font-size="12" fill="#b4f079" opacity="0.85" text-anchor="middle">Metadata sync</text>
<text x="842.2" y="224.6015625" font-family="'JetBrains Mono', 'Fira Code', 'SF Mono', 'Cascadia Code', monospace" font-size="12" fill="#b4f079" opacity="0.85" text-anchor="middle">Metadata sync</text>
<text x="422.99000000000007" y="124.9854086637497" font-family="'JetBrains Mono', 'Fira Code', 'SF Mono', 'Cascadia Code', monospace" font-size="12" fill="#b4f079" opacity="0.85" text-anchor="middle">Metadata sync</text>
<text x="489.975" y="438.4375" font-family="'JetBrains Mono', 'Fira Code', 'SF Mono', 'Cascadia Code', monospace" font-size="12" fill="#b4f079" opacity="0.85" text-anchor="middle">Metadata sync</text>
<text x="345.33000000000004" y="258.6496868133545" font-family="'JetBrains Mono', 'Fira Code', 'SF Mono', 'Cascadia Code', monospace" font-size="12" fill="#b4f079" opacity="0.85" text-anchor="middle">Ad-hoc queries</text>
<text x="420.06750000000005" y="157.5509631037712" font-family="'JetBrains Mono', 'Fira Code', 'SF Mono', 'Cascadia Code', monospace" font-size="12" fill="#b4f079" opacity="0.85" text-anchor="middle">Training data</text>
<text x="365.58000000000004" y="225.76971864700317" font-family="'JetBrains Mono', 'Fira Code', 'SF Mono', 'Cascadia Code', monospace" font-size="12" fill="#b4f079" opacity="0.85" text-anchor="middle">Feature engineering</text>
<text x="174.78000000000003" y="166" font-family="'JetBrains Mono', 'Fira Code', 'SF Mono', 'Cascadia Code', monospace" font-size="12" fill="#b4f079" opacity="0.85" text-anchor="middle">Stream processing</text>
<text x="594.6325" y="180.5" font-family="'JetBrains Mono', 'Fira Code', 'SF Mono', 'Cascadia Code', monospace" font-size="12" fill="#b4f079" opacity="0.85" text-anchor="middle">BI queries</text>
<text x="470.4100000000001" y="193.5509631037712" font-family="'JetBrains Mono', 'Fira Code', 'SF Mono', 'Cascadia Code', monospace" font-size="12" fill="#b4f079" opacity="0.85" text-anchor="middle">Funnel analysis</text>
<text x="832.7137500000001" y="155" font-family="'JetBrains Mono', 'Fira Code', 'SF Mono', 'Cascadia Code', monospace" font-size="12" fill="#b4f079" opacity="0.85" text-anchor="middle">Reconciliation</text>
<text x="708.1325" y="169.0859375" font-family="'JetBrains Mono', 'Fira Code', 'SF Mono', 'Cascadia Code', monospace" font-size="12" fill="#b4f079" opacity="0.85" text-anchor="middle">Revenue reports</text>
<text x="1144.29" y="166" font-family="'JetBrains Mono', 'Fira Code', 'SF Mono', 'Cascadia Code', monospace" font-size="12" fill="#b4f079" opacity="0.85" text-anchor="middle">PII audit</text>
<text x="1037.29" y="166" font-family="'JetBrains Mono', 'Fira Code', 'SF Mono', 'Cascadia Code', monospace" font-size="12" fill="#b4f079" opacity="0.85" text-anchor="middle">PCI audit</text>
<text x="839.71" y="191" font-family="'JetBrains Mono', 'Fira Code', 'SF Mono', 'Cascadia Code', monospace" font-size="12" fill="#b4f079" opacity="0.85" text-anchor="middle">KPI metrics</text>
<text x="497.6" y="369.28125" font-family="'JetBrains Mono', 'Fira Code', 'SF Mono', 'Cascadia Code', monospace" font-size="12" fill="#b4f079" opacity="0.85" text-anchor="middle">Join enrichment</text>
<text x="350.1625" y="410" font-family="'JetBrains Mono', 'Fira Code', 'SF Mono', 'Cascadia Code', monospace" font-size="12" fill="#b4f079" opacity="0.85" text-anchor="middle">Real-time features</text>
<text x="902.2" y="385" font-family="'JetBrains Mono', 'Fira Code', 'SF Mono', 'Cascadia Code', monospace" font-size="12" fill="#b4f079" opacity="0.85" text-anchor="middle">Reconciliation check</text>
<text x="505.6625" y="405.28125" font-family="'JetBrains Mono', 'Fira Code', 'SF Mono', 'Cascadia Code', monospace" font-size="12" fill="#b4f079" opacity="0.85" text-anchor="middle">Behavioral features</text>
<text x="1294.2" y="298" font-family="'Inter', 'Helvetica Neue', Arial, sans-serif" font-size="14" fill="#ffffff" font-weight="700">6 consumer personas:</text><text x="1294.2" y="316" font-family="'JetBrains Mono', 'Fira Code', 'SF Mono', 'Cascadia Code', monospace" font-size="11" fill="#b4f079" opacity="0.7">each has different</text><text x="1294.2" y="334" font-family="'JetBrains Mono', 'Fira Code', 'SF Mono', 'Cascadia Code', monospace" font-size="11" fill="#b4f079" opacity="0.7">access patterns and SLAs</text>
<text x="879.1" y="414" font-family="'Inter', 'Helvetica Neue', Arial, sans-serif" font-size="14" fill="#ffffff" font-weight="700">PCI-DSS boundary:</text><text x="879.1" y="432" font-family="'JetBrains Mono', 'Fira Code', 'SF Mono', 'Cascadia Code', monospace" font-size="11" fill="#b4f079" opacity="0.7">payment data access</text><text x="879.1" y="450" font-family="'JetBrains Mono', 'Fira Code', 'SF Mono', 'Cascadia Code', monospace" font-size="11" fill="#b4f079" opacity="0.7">requires SOC2 attestation</text>
<text x="1086.2" y="414" font-family="'Inter', 'Helvetica Neue', Arial, sans-serif" font-size="14" fill="#ffffff" font-weight="700">GDPR boundary:</text><text x="1086.2" y="432" font-family="'JetBrains Mono', 'Fira Code', 'SF Mono', 'Cascadia Code', monospace" font-size="11" fill="#b4f079" opacity="0.7">PII data products require</text><text x="1086.2" y="450" font-family="'JetBrains Mono', 'Fira Code', 'SF Mono', 'Cascadia Code', monospace" font-size="11" fill="#b4f079" opacity="0.7">DPIA before consumption</text>
</g>
</svg>