<svg xmlns="http://www.w3.org/2000/svg" viewBox="0 0 766 620" width="766" height="620">
<defs>
  <pattern id="dotgrid" width="8" height="8" patternUnits="userSpaceOnUse">
    <rect width="8" height="8" fill="#000000"/>
    <circle cx="4" cy="4" r="0.8" fill="#b4f079" opacity="0.7"/>
  </pattern>
  <pattern id="crosshatch" width="8" height="8" patternUnits="userSpaceOnUse">
    <rect width="8" height="8" fill="#000000"/>
    <path d="M0 8L8 0M-1 1L1 -1M7 9L9 7" stroke="#b4f079" stroke-width="0.8" opacity="0.2"/>
  </pattern>
  <pattern id="hero" width="6" height="6" patternUnits="userSpaceOnUse">
    <rect width="6" height="6" fill="#3d6b23"/>
    <circle cx="3" cy="3" r="0.6" fill="#5a9a35" opacity="0.5"/>
  </pattern>
  <marker id="arrowhead" markerWidth="10" markerHeight="7" refX="9" refY="3.5" orient="auto" markerUnits="strokeWidth">
    <polygon points="0 0, 10 3.5, 0 7" fill="#b4f079"/>
  </marker>
  <marker id="arrowhead-reverse" markerWidth="10" markerHeight="7" refX="1" refY="3.5" orient="auto" markerUnits="strokeWidth">
    <polygon points="10 0, 0 3.5, 10 7" fill="#b4f079"/>
  </marker>
</defs>
<rect width="100%" height="100%" fill="#000000"/>
<g class="diagram">
<text x="30" y="34" font-family="'Inter', 'Helvetica Neue', Arial, sans-serif" font-size="15" fill="#ffffff" font-weight="700">Card layout edges: edge_in, hanging, and inter-card edges</text>
<line x1="179" y1="382" x2="383" y2="260" stroke="#b4f079" stroke-width="1.5" marker-end="url(#arrowhead)"/><rect x="250.5" y="306" width="61" height="20" rx="4" fill="#000000" opacity="0.9"/><text x="281" y="321" font-family="'JetBrains Mono', 'Fira Code', 'SF Mono', 'Cascadia Code', monospace" font-size="12" fill="#b4f079" opacity="0.85" text-anchor="middle">promote</text>
<line x1="383" y1="382" x2="587" y2="260" stroke="#b4f079" stroke-width="1.5" marker-end="url(#arrowhead)"/><rect x="454.5" y="306" width="61" height="20" rx="4" fill="#000000" opacity="0.9"/><text x="485" y="321" font-family="'JetBrains Mono', 'Fira Code', 'SF Mono', 'Cascadia Code', monospace" font-size="12" fill="#b4f079" opacity="0.85" text-anchor="middle">release</text>
<line x1="179" y1="536" x2="179" y2="260" stroke="#b4f079" stroke-width="1.5" marker-end="url(#arrowhead)"/><rect x="120.5" y="383" width="117" height="20" rx="4" fill="#000000" opacity="0.9"/><text x="179" y="398" font-family="'JetBrains Mono', 'Fira Code', 'SF Mono', 'Cascadia Code', monospace" font-size="12" fill="#b4f079" opacity="0.85" text-anchor="middle">rollback signal</text>
<line x1="179" y1="536" x2="383" y2="430" stroke="#b4f079" stroke-width="1.5" marker-end="url(#arrowhead)"/><rect x="219" y="468" width="124" height="20" rx="4" fill="#000000" opacity="0.9"/><text x="281" y="483" font-family="'JetBrains Mono', 'Fira Code', 'SF Mono', 'Cascadia Code', monospace" font-size="12" fill="#b4f079" opacity="0.85" text-anchor="middle">threshold breach</text>
<line x1="383" y1="536" x2="587" y2="430" stroke="#b4f079" stroke-width="1.5" marker-end="url(#arrowhead)"/><rect x="409" y="468" width="152" height="20" rx="4" fill="#000000" opacity="0.9"/><text x="485" y="483" font-family="'JetBrains Mono', 'Fira Code', 'SF Mono', 'Cascadia Code', monospace" font-size="12" fill="#b4f079" opacity="0.85" text-anchor="middle">incident correlation</text>
<line x1="383" y1="0" x2="383" y2="100" stroke="#b4f079" stroke-width="1.5" marker-end="url(#arrowhead)"/><text x="383" y="-10" font-family="'Inter', 'Helvetica Neue', Arial, sans-serif" font-size="12" fill="#ffffff" opacity="0.8" text-anchor="start">team requests</text>
<line x1="-16" y1="321" x2="84" y2="321" stroke="#b4f079" stroke-width="1.5" marker-end="url(#arrowhead)"/><text x="-26" y="321" font-family="'Inter', 'Helvetica Neue', Arial, sans-serif" font-size="12" fill="#ffffff" opacity="0.8" text-anchor="start">deploy trigger</text>
<line x1="374" y1="483" x2="274" y2="483" stroke="#b4f079" stroke-width="1.5" marker-end="url(#arrowhead)"/><text x="384" y="483" font-family="'Inter', 'Helvetica Neue', Arial, sans-serif" font-size="12" fill="#ffffff" opacity="0.8" text-anchor="start">metrics feed</text>
<rect x="60" y="236" width="646" height="170" rx="12" fill="transparent" stroke="none" opacity="0.5"/><rect x="60" y="236" width="646" height="170" rx="12" fill="none" stroke="#b4f079" stroke-width="1.5" opacity="0.35"/><rect x="84" y="260" width="190" height="122" rx="10" fill="#111111" stroke="#333333" stroke-width="1"/><g transform="translate(98, 272)"><svg viewBox="0 0 24 24" width="24" height="24" fill="none" stroke="#ffffff" stroke-width="1.5" stroke-linecap="round" stroke-linejoin="round"><path d="M12 2a5 5 0 014.8 3.6A4 4 0 0120 9.5a4 4 0 01-1.5 7.8A5 5 0 0112 22a5 5 0 01-6.5-4.7A4 4 0 014 9.5a4 4 0 013.2-3.9A5 5 0 0112 2z"/><path d="M12 2v20"/><path d="M8 8h8"/><path d="M7 13h10"/></svg></g><text x="130" y="286" font-family="'Inter', 'Helvetica Neue', Arial, sans-serif" font-size="13" fill="#ffffff" font-weight="600">Build And Test</text><text x="130" y="304" font-family="'Inter', 'Helvetica Neue', Arial, sans-serif" font-size="11" fill="#ffffff" opacity="0.7">GitHub Actions</text><text x="130" y="320" font-family="'Inter', 'Helvetica Neue', Arial, sans-serif" font-size="11" fill="#ffffff" opacity="0.7">Unit + integration tests</text><text x="130" y="336" font-family="'Inter', 'Helvetica Neue', Arial, sans-serif" font-size="11" fill="#ffffff" opacity="0.7">Docker build</text><text x="130" y="352" font-family="'Inter', 'Helvetica Neue', Arial, sans-serif" font-size="11" fill="#ffffff" opacity="0.7">Security scan</text><rect x="288" y="260" width="190" height="122" rx="10" fill="#111111" stroke="#333333" stroke-width="1"/><g transform="translate(302, 272)"><svg viewBox="0 0 24 24" width="24" height="24" fill="none" stroke="#ffffff" stroke-width="1.5" stroke-linecap="round" stroke-linejoin="round"><path d="M14 2H6a2 2 0 00-2 2v16a2 2 0 002 2h12a2 2 0 002-2V8z"/><polyline points="14 2 14 8 20 8"/><line x1="9" y1="13" x2="15" y2="13"/><line x1="9" y1="17" x2="13" y2="17"/></svg></g><text x="334" y="286" font-family="'Inter', 'Helvetica Neue', Arial, sans-serif" font-size="13" fill="#ffffff" font-weight="600">Staging Deploy</text><text x="334" y="304" font-family="'Inter', 'Helvetica Neue', Arial, sans-serif" font-size="11" fill="#ffffff" opacity="0.7">Canary rollout</text><text x="334" y="320" font-family="'Inter', 'Helvetica Neue', Arial, sans-serif" font-size="11" fill="#ffffff" opacity="0.7">Smoke tests</text><text x="334" y="336" font-family="'Inter', 'Helvetica Neue', Arial, sans-serif" font-size="11" fill="#ffffff" opacity="0.7">Perf benchmarks</text><rect x="492" y="260" width="190" height="122" rx="10" fill="#111111" stroke="#333333" stroke-width="1"/><g transform="translate(506, 272)"><svg viewBox="0 0 24 24" width="24" height="24" fill="none" stroke="#ffffff" stroke-width="1.5" stroke-linecap="round" stroke-linejoin="round"><path d="M12 2a5 5 0 014.8 3.6A4 4 0 0120 9.5a4 4 0 01-1.5 7.8A5 5 0 0112 22a5 5 0 01-6.5-4.7A4 4 0 014 9.5a4 4 0 013.2-3.9A5 5 0 0112 2z"/><path d="M12 2v20"/><path d="M8 8h8"/><path d="M7 13h10"/></svg></g><text x="538" y="286" font-family="'Inter', 'Helvetica Neue', Arial, sans-serif" font-size="13" fill="#ffffff" font-weight="600">Production</text><text x="538" y="304" font-family="'Inter', 'Helvetica Neue', Arial, sans-serif" font-size="11" fill="#ffffff" opacity="0.7">Blue-green deploy</text><text x="538" y="320" font-family="'Inter', 'Helvetica Neue', Arial, sans-serif" font-size="11" fill="#ffffff" opacity="0.7">Health checks</text><text x="538" y="336" font-family="'Inter', 'Helvetica Neue', Arial, sans-serif" font-size="11" fill="#ffffff" opacity="0.7">Rollback ready</text>
<rect x="60" y="406" width="646" height="154" rx="12" fill="transparent" stroke="none" opacity="0.5"/><rect x="60" y="406" width="646" height="154" rx="12" fill="none" stroke="#b4f079" stroke-width="1.5" opacity="0.35"/><rect x="84" y="430" width="190" height="106" rx="10" fill="#111111" stroke="#333333" stroke-width="1"/><g transform="translate(98, 442)"><svg viewBox="0 0 24 24" width="24" height="24" fill="none" stroke="#ffffff" stroke-width="1.5" stroke-linecap="round" stroke-linejoin="round"><path d="M12 2a5 5 0 014.8 3.6A4 4 0 0120 9.5a4 4 0 01-1.5 7.8A5 5 0 0112 22a5 5 0 01-6.5-4.7A4 4 0 014 9.5a4 4 0 013.2-3.9A5 5 0 0112 2z"/><path d="M12 2v20"/><path d="M8 8h8"/><path d="M7 13h10"/></svg></g><text x="130" y="456" font-family="'Inter', 'Helvetica Neue', Arial, sans-serif" font-size="13" fill="#ffffff" font-weight="600">Monitoring</text><text x="130" y="474" font-family="'Inter', 'Helvetica Neue', Arial, sans-serif" font-size="11" fill="#ffffff" opacity="0.7">Prometheus + Grafana</text><text x="130" y="490" font-family="'Inter', 'Helvetica Neue', Arial, sans-serif" font-size="11" fill="#ffffff" opacity="0.7">Custom dashboards</text><text x="130" y="506" font-family="'Inter', 'Helvetica Neue', Arial, sans-serif" font-size="11" fill="#ffffff" opacity="0.7">SLA tracking</text><rect x="288" y="430" width="190" height="106" rx="10" fill="#111111" stroke="#333333" stroke-width="1"/><g transform="translate(302, 442)"><svg viewBox="0 0 24 24" width="24" height="24" fill="none" stroke="#ffffff" stroke-width="1.5" stroke-linecap="round" stroke-linejoin="round"><path d="M14 2H6a2 2 0 00-2 2v16a2 2 0 002 2h12a2 2 0 002-2V8z"/><polyline points="14 2 14 8 20 8"/><line x1="9" y1="13" x2="15" y2="13"/><line x1="9" y1="17" x2="13" y2="17"/></svg></g><text x="334" y="456" font-family="'Inter', 'Helvetica Neue', Arial, sans-serif" font-size="13" fill="#ffffff" font-weight="600">Alerting</text><text x="334" y="474" font-family="'Inter', 'Helvetica Neue', Arial, sans-serif" font-size="11" fill="#ffffff" opacity="0.7">PagerDuty integration</text><text x="334" y="490" font-family="'Inter', 'Helvetica Neue', Arial, sans-serif" font-size="11" fill="#ffffff" opacity="0.7">Escalation policies</text><text x="334" y="506" font-family="'Inter', 'Helvetica Neue', Arial, sans-serif" font-size="11" fill="#ffffff" opacity="0.7">Runbook links</text><rect x="492" y="430" width="190" height="106" rx="10" fill="#111111" stroke="#333333" stroke-width="1"/><g transform="translate(506, 442)"><svg viewBox="0 0 24 24" width="24" height="24" fill="none" stroke="#ffffff" stroke-width="1.5" stroke-linecap="round" stroke-linejoin="round"><path d="M14 2H6a2 2 0 00-2 2v16a2 2 0 002 2h12a2 2 0 002-2V8z"/><polyline points="14 2 14 8 20 8"/><line x1="9" y1="13" x2="15" y2="13"/><line x1="9" y1="17" x2="13" y2="17"/></svg></g><text x="538" y="456" font-family="'Inter', 'Helvetica Neue', Arial, sans-serif" font-size="13" fill="#ffffff" font-weight="600">Logging</text><text x="538" y="474" font-family="'Inter', 'Helvetica Neue', Arial, sans-serif" font-size="11" fill="#ffffff" opacity="0.7">ELK stack</text><text x="538" y="490" font-family="'Inter', 'Helvetica Neue', Arial, sans-serif" font-size="11" fill="#ffffff" opacity="0.7">Structured logs</text><text x="538" y="506" font-family="'Inter', 'Helvetica Neue', Arial, sans-serif" font-size="11" fill="#ffffff" opacity="0.7">Retention: 30 days</text>
<rect x="261" y="100" width="244" height="56" rx="12" fill="transparent" stroke="#b4f079" stroke-width="1.5"/><text x="383" y="128" font-family="'JetBrains Mono', 'Fira Code', 'SF Mono', 'Cascadia Code', monospace" font-size="13" fill="#b4f079" text-anchor="middle" dominant-baseline="central" letter-spacing="0.12em">PLATFORM ENGINEERING</text>
</g>
</svg>