<svg xmlns="http://www.w3.org/2000/svg" viewBox="0 0 804 347" width="804" height="347">
<defs>
  <pattern id="dotgrid" width="8" height="8" patternUnits="userSpaceOnUse">
    <rect width="8" height="8" fill="#000000"/>
    <circle cx="4" cy="4" r="0.8" fill="#b4f079" opacity="0.7"/>
  </pattern>
  <pattern id="crosshatch" width="8" height="8" patternUnits="userSpaceOnUse">
    <rect width="8" height="8" fill="#000000"/>
    <path d="M0 8L8 0M-1 1L1 -1M7 9L9 7" stroke="#b4f079" stroke-width="0.8" opacity="0.2"/>
  </pattern>
  <pattern id="hero" width="6" height="6" patternUnits="userSpaceOnUse">
    <rect width="6" height="6" fill="#3d6b23"/>
    <circle cx="3" cy="3" r="0.6" fill="#5a9a35" opacity="0.5"/>
  </pattern>
  <marker id="arrowhead" markerWidth="10" markerHeight="7" refX="9" refY="3.5" orient="auto" markerUnits="strokeWidth">
    <polygon points="0 0, 10 3.5, 0 7" fill="#b4f079"/>
  </marker>
  <marker id="arrowhead-reverse" markerWidth="10" markerHeight="7" refX="1" refY="3.5" orient="auto" markerUnits="strokeWidth">
    <polygon points="10 0, 0 3.5, 10 7" fill="#b4f079"/>
  </marker>
</defs>
<rect width="100%" height="100%" fill="#000000"/>
<g class="diagram">
<text x="30" y="34" font-family="'Inter', 'Helvetica Neue', Arial, sans-serif" font-size="18" fill="#ffffff" font-weight="700">Responses API orchestrates agent loop</text>
<line x1="119" y1="194.45794392523365" x2="230" y2="198.08878504672896" stroke="#b4f079" stroke-width="1.5" marker-end="url(#arrowhead)"/>
<line x1="408" y1="105" x2="564.5" y2="89" stroke="#b4f079" stroke-width="1.5" marker-end="url(#arrowhead)"/>
<line x1="564.5" y1="137" x2="408" y2="161" stroke="#b4f079" stroke-width="1.5" marker-end="url(#arrowhead)"/>
<line x1="408" y1="241" x2="508" y2="265" stroke="#b4f079" stroke-width="1.5" marker-end="url(#arrowhead)"/>
<line x1="508" y1="313" x2="408" y2="297" stroke="#b4f079" stroke-width="1.5" marker-end="url(#arrowhead)"/>
<circle cx="105" cy="173" r="7" fill="none" stroke="#b4f079" stroke-width="1.5"/><line x1="105" y1="180" x2="105" y2="202" stroke="#b4f079" stroke-width="1.5"/><line x1="91" y1="186" x2="119" y2="186" stroke="#b4f079" stroke-width="1.5"/><line x1="105" y1="202" x2="95" y2="218" stroke="#b4f079" stroke-width="1.5"/><line x1="105" y1="202" x2="115" y2="218" stroke="#b4f079" stroke-width="1.5"/><text x="105" y="232" font-family="'JetBrains Mono', 'Fira Code', 'SF Mono', 'Cascadia Code', monospace" font-size="13" fill="#b4f079" text-anchor="middle" letter-spacing="0.12em">USER</text>
<rect x="230" y="101" width="178" height="200" rx="12" fill="none" stroke="#b4f079" stroke-width="2"/><rect x="235" y="106" width="168" height="190" rx="8" fill="url(#hero)" stroke="#b4f079" stroke-width="1"/><text x="319" y="201" font-family="'JetBrains Mono', 'Fira Code', 'SF Mono', 'Cascadia Code', monospace" font-size="13" fill="#b4f079" text-anchor="middle" dominant-baseline="central" letter-spacing="0.12em">RESPONSES API</text>
<rect x="564.5" y="85" width="103" height="56" rx="12" fill="url(#dotgrid)" stroke="#b4f079" stroke-width="1.5"/><text x="616" y="113" font-family="'JetBrains Mono', 'Fira Code', 'SF Mono', 'Cascadia Code', monospace" font-size="13" fill="#b4f079" text-anchor="middle" dominant-baseline="central" letter-spacing="0.12em">MODEL</text>
<rect x="508" y="261" width="216" height="56" rx="12" fill="url(#crosshatch)" stroke="#b4f079" stroke-width="1.5"/><text x="616" y="289" font-family="'JetBrains Mono', 'Fira Code', 'SF Mono', 'Cascadia Code', monospace" font-size="13" fill="#b4f079" text-anchor="middle" dominant-baseline="central" letter-spacing="0.12em">RUNTIME CONTAINER</text>
<rect x="149" y="185.7733644859813" width="51" height="21" rx="4" fill="#000000"/><text x="174.5" y="199.7733644859813" font-family="'JetBrains Mono', 'Fira Code', 'SF Mono', 'Cascadia Code', monospace" font-size="11" fill="#b4f079" opacity="0.85" text-anchor="middle">PROMPT</text>
<rect x="389.25" y="79" width="194" height="36" rx="4" fill="#000000"/><text x="486.25" y="93" font-family="'JetBrains Mono', 'Fira Code', 'SF Mono', 'Cascadia Code', monospace" font-size="11" fill="#b4f079" opacity="0.85" text-anchor="middle">PROMPT + SHELL INSTRUCTION +</text><text x="486.25" y="108" font-family="'JetBrains Mono', 'Fira Code', 'SF Mono', 'Cascadia Code', monospace" font-size="11" fill="#b4f079" opacity="0.85" text-anchor="middle">STDOUT/STDERR</text>
<rect x="434.75" y="138.5" width="103" height="21" rx="4" fill="#000000"/><text x="486.25" y="152.5" font-family="'JetBrains Mono', 'Fira Code', 'SF Mono', 'Cascadia Code', monospace" font-size="11" fill="#b4f079" opacity="0.85" text-anchor="middle">SHELL COMMANDS</text>
<rect x="400" y="242.5" width="116" height="21" rx="4" fill="#000000"/><text x="458" y="256.5" font-family="'JetBrains Mono', 'Fira Code', 'SF Mono', 'Cascadia Code', monospace" font-size="11" fill="#b4f079" opacity="0.85" text-anchor="middle">EXECUTE COMMANDS</text>
<rect x="409.75" y="294.5" width="96.5" height="21" rx="4" fill="#000000"/><text x="458" y="308.5" font-family="'JetBrains Mono', 'Fira Code', 'SF Mono', 'Cascadia Code', monospace" font-size="11" fill="#b4f079" opacity="0.85" text-anchor="middle">STDOUT/STDERR</text>
<text x="428" y="205" font-family="'Inter', 'Helvetica Neue', Arial, sans-serif" font-size="12" fill="#b4f079" opacity="0.6" font-style="italic">Feedback loop (until complete)</text>
</g>
</svg>