<svg xmlns="http://www.w3.org/2000/svg" viewBox="0 0 1020 732" width="1020" height="732">
<defs>
  <pattern id="dotgrid" width="8" height="8" patternUnits="userSpaceOnUse">
    <rect width="8" height="8" fill="#000000"/>
    <circle cx="4" cy="4" r="0.8" fill="#b4f079" opacity="0.7"/>
  </pattern>
  <pattern id="crosshatch" width="8" height="8" patternUnits="userSpaceOnUse">
    <rect width="8" height="8" fill="#000000"/>
    <path d="M0 8L8 0M-1 1L1 -1M7 9L9 7" stroke="#b4f079" stroke-width="0.8" opacity="0.2"/>
  </pattern>
  <pattern id="hero" width="6" height="6" patternUnits="userSpaceOnUse">
    <rect width="6" height="6" fill="#3d6b23"/>
    <circle cx="3" cy="3" r="0.6" fill="#5a9a35" opacity="0.5"/>
  </pattern>
  <marker id="arrowhead" markerWidth="10" markerHeight="7" refX="9" refY="3.5" orient="auto" markerUnits="strokeWidth">
    <polygon points="0 0, 10 3.5, 0 7" fill="#b4f079"/>
  </marker>
  <marker id="arrowhead-reverse" markerWidth="10" markerHeight="7" refX="1" refY="3.5" orient="auto" markerUnits="strokeWidth">
    <polygon points="10 0, 0 3.5, 10 7" fill="#b4f079"/>
  </marker>
</defs>
<rect width="100%" height="100%" fill="#000000"/>
<g class="diagram">
<text x="30" y="34" font-family="'Inter', 'Helvetica Neue', Arial, sans-serif" font-size="15" fill="#ffffff" font-weight="700">API surface area: REST, GraphQL, gRPC, and WebSocket endpoints</text>
<line x1="510" y1="156" x2="510" y2="380" stroke="#b4f079" stroke-width="1.5" marker-end="url(#arrowhead)"/>
<line x1="510" y1="156" x2="510" y2="534" stroke="#b4f079" stroke-width="1.5" marker-end="url(#arrowhead)"/>
<line x1="510" y1="0" x2="510" y2="100" stroke="#b4f079" stroke-width="1.5" marker-end="url(#arrowhead)"/><text x="510" y="-10" font-family="'Inter', 'Helvetica Neue', Arial, sans-serif" font-size="11" fill="#ffffff" opacity="0.8" text-anchor="start">Clients connect here</text>
<line x1="330.5" y1="128" x2="430.5" y2="128" stroke="#b4f079" stroke-width="1.5" marker-end="url(#arrowhead)"/><text x="320.5" y="128" font-family="'Inter', 'Helvetica Neue', Arial, sans-serif" font-size="11" fill="#ffffff" opacity="0.8" text-anchor="start">Internal services</text>
<line x1="689.5" y1="128" x2="589.5" y2="128" stroke="#b4f079" stroke-width="1.5" marker-end="url(#arrowhead)"/><text x="699.5" y="128" font-family="'Inter', 'Helvetica Neue', Arial, sans-serif" font-size="11" fill="#ffffff" opacity="0.8" text-anchor="start">Partner integrations</text>
<rect x="85" y="226" width="850" height="154" rx="12" fill="url(#dotgrid)" stroke="none" opacity="0.5"/><rect x="85" y="226" width="850" height="154" rx="12" fill="none" stroke="#b4f079" stroke-width="1.5" opacity="0.35"/><rect x="109" y="250" width="190" height="106" rx="10" fill="#111111" stroke="#333333" stroke-width="1"/><g transform="translate(123, 262)"><svg viewBox="0 0 24 24" width="24" height="24" fill="none" stroke="#ffffff" stroke-width="1.5" stroke-linecap="round" stroke-linejoin="round"><circle cx="12" cy="7" r="4"/><path d="M5.5 21a6.5 6.5 0 0113 0"/></svg></g><text x="155" y="276" font-family="'Inter', 'Helvetica Neue', Arial, sans-serif" font-size="13" fill="#ffffff" font-weight="600">POST /users</text><text x="155" y="294" font-family="'Inter', 'Helvetica Neue', Arial, sans-serif" font-size="11" fill="#ffffff" opacity="0.7">Create user account Rate</text><text x="155" y="310" font-family="'Inter', 'Helvetica Neue', Arial, sans-serif" font-size="11" fill="#ffffff" opacity="0.7">limit: 10/min Auth: API key</text><rect x="313" y="250" width="190" height="106" rx="10" fill="#111111" stroke="#333333" stroke-width="1"/><g transform="translate(327, 262)"><svg viewBox="0 0 24 24" width="24" height="24" fill="none" stroke="#ffffff" stroke-width="1.5" stroke-linecap="round" stroke-linejoin="round"><circle cx="12" cy="7" r="4"/><path d="M5.5 21a6.5 6.5 0 0113 0"/></svg></g><text x="359" y="276" font-family="'Inter', 'Helvetica Neue', Arial, sans-serif" font-size="13" fill="#ffffff" font-weight="600">GET /users/:id</text><text x="359" y="294" font-family="'Inter', 'Helvetica Neue', Arial, sans-serif" font-size="11" fill="#ffffff" opacity="0.7">Retrieve user profile Cache:</text><text x="359" y="310" font-family="'Inter', 'Helvetica Neue', Arial, sans-serif" font-size="11" fill="#ffffff" opacity="0.7">60s TTL Auth: Bearer token</text><rect x="517" y="250" width="190" height="106" rx="10" fill="#111111" stroke="#333333" stroke-width="1"/><g transform="translate(531, 262)"><svg viewBox="0 0 24 24" width="24" height="24" fill="none" stroke="#ffffff" stroke-width="1.5" stroke-linecap="round" stroke-linejoin="round"><path d="M14 2H6a2 2 0 00-2 2v16a2 2 0 002 2h12a2 2 0 002-2V8z"/><polyline points="14 2 14 8 20 8"/><line x1="9" y1="13" x2="15" y2="13"/><line x1="9" y1="17" x2="13" y2="17"/></svg></g><text x="563" y="276" font-family="'Inter', 'Helvetica Neue', Arial, sans-serif" font-size="13" fill="#ffffff" font-weight="600">PUT /orders/:id</text><text x="563" y="294" font-family="'Inter', 'Helvetica Neue', Arial, sans-serif" font-size="11" fill="#ffffff" opacity="0.7">Update order status</text><text x="563" y="310" font-family="'Inter', 'Helvetica Neue', Arial, sans-serif" font-size="11" fill="#ffffff" opacity="0.7">Idempotency key required</text><text x="563" y="326" font-family="'Inter', 'Helvetica Neue', Arial, sans-serif" font-size="11" fill="#ffffff" opacity="0.7">Auth: Service token</text><rect x="721" y="250" width="190" height="106" rx="10" fill="#111111" stroke="#333333" stroke-width="1"/><g transform="translate(735, 262)"><svg viewBox="0 0 24 24" width="24" height="24" fill="none" stroke="#ffffff" stroke-width="1.5" stroke-linecap="round" stroke-linejoin="round"><path d="M10 13a5 5 0 007.5.5l2-2a5 5 0 00-7-7l-1 1"/><path d="M14 11a5 5 0 00-7.5-.5l-2 2a5 5 0 007 7l1-1"/><line x1="18" y1="2" x2="22" y2="6"/><line x1="2" y1="18" x2="6" y2="22"/></svg></g><text x="767" y="276" font-family="'Inter', 'Helvetica Neue', Arial, sans-serif" font-size="13" fill="#ffffff" font-weight="600">DELETE /sessions</text><text x="767" y="294" font-family="'Inter', 'Helvetica Neue', Arial, sans-serif" font-size="11" fill="#ffffff" opacity="0.7">Revoke all sessions Audit</text><text x="767" y="310" font-family="'Inter', 'Helvetica Neue', Arial, sans-serif" font-size="11" fill="#ffffff" opacity="0.7">logged Auth: Admin only</text>
<rect x="131.5" y="380" width="757" height="154" rx="12" fill="url(#dotgrid)" stroke="none" opacity="0.5"/><rect x="131.5" y="380" width="757" height="154" rx="12" fill="none" stroke="#b4f079" stroke-width="1.5" opacity="0.35"/><rect x="155.5" y="404" width="190" height="106" rx="10" fill="#111111" stroke="#333333" stroke-width="1"/><g transform="translate(169.5, 416)"><svg viewBox="0 0 24 24" width="24" height="24" fill="none" stroke="#ffffff" stroke-width="1.5" stroke-linecap="round" stroke-linejoin="round"><circle cx="12" cy="7" r="4"/><path d="M5.5 21a6.5 6.5 0 0113 0"/></svg></g><text x="201.5" y="430" font-family="'Inter', 'Helvetica Neue', Arial, sans-serif" font-size="13" fill="#ffffff" font-weight="600">Query.user</text><text x="201.5" y="448" font-family="'Inter', 'Helvetica Neue', Arial, sans-serif" font-size="11" fill="#ffffff" opacity="0.7">Federated subgraph</text><text x="201.5" y="464" font-family="'Inter', 'Helvetica Neue', Arial, sans-serif" font-size="11" fill="#ffffff" opacity="0.7">DataLoader batching</text><text x="201.5" y="480" font-family="'Inter', 'Helvetica Neue', Arial, sans-serif" font-size="11" fill="#ffffff" opacity="0.7">Complexity limit: 100</text><rect x="359.5" y="404" width="190" height="106" rx="10" fill="#111111" stroke="#333333" stroke-width="1"/><g transform="translate(373.5, 416)"><svg viewBox="0 0 24 24" width="24" height="24" fill="none" stroke="#ffffff" stroke-width="1.5" stroke-linecap="round" stroke-linejoin="round"><path d="M14 2H6a2 2 0 00-2 2v16a2 2 0 002 2h12a2 2 0 002-2V8z"/><polyline points="14 2 14 8 20 8"/><line x1="9" y1="13" x2="15" y2="13"/><line x1="9" y1="17" x2="13" y2="17"/></svg></g><text x="405.5" y="430" font-family="'Inter', 'Helvetica Neue', Arial, sans-serif" font-size="13" fill="#ffffff" font-weight="600">Mutation.checkout</text><text x="405.5" y="448" font-family="'Inter', 'Helvetica Neue', Arial, sans-serif" font-size="11" fill="#ffffff" opacity="0.7">Transactional mutation Saga</text><text x="405.5" y="464" font-family="'Inter', 'Helvetica Neue', Arial, sans-serif" font-size="11" fill="#ffffff" opacity="0.7">orchestration Max depth: 5</text><rect x="563.5" y="404" width="227" height="106" rx="10" fill="#111111" stroke="#333333" stroke-width="1"/><g transform="translate(577.5, 416)"><svg viewBox="0 0 24 24" width="24" height="24" fill="none" stroke="#ffffff" stroke-width="1.5" stroke-linecap="round" stroke-linejoin="round"><path d="M12 2a5 5 0 014.8 3.6A4 4 0 0120 9.5a4 4 0 01-1.5 7.8A5 5 0 0112 22a5 5 0 01-6.5-4.7A4 4 0 014 9.5a4 4 0 013.2-3.9A5 5 0 0112 2z"/><path d="M12 2v20"/><path d="M8 8h8"/><path d="M7 13h10"/></svg></g><text x="609.5" y="430" font-family="'Inter', 'Helvetica Neue', Arial, sans-serif" font-size="13" fill="#ffffff" font-weight="600">Subscription.orderStatus</text><text x="609.5" y="448" font-family="'Inter', 'Helvetica Neue', Arial, sans-serif" font-size="11" fill="#ffffff" opacity="0.7">WebSocket transport Heartbeat: 30s</text><text x="609.5" y="464" font-family="'Inter', 'Helvetica Neue', Arial, sans-serif" font-size="11" fill="#ffffff" opacity="0.7">Reconnect: exponential backoff</text>
<rect x="60" y="534" width="900" height="138" rx="12" fill="url(#crosshatch)" stroke="none" opacity="0.5"/><rect x="60" y="534" width="900" height="138" rx="12" fill="none" stroke="#b4f079" stroke-width="1.5" opacity="0.35"/><rect x="84" y="558" width="199" height="90" rx="10" fill="#111111" stroke="#333333" stroke-width="1"/><g transform="translate(98, 570)"><svg viewBox="0 0 24 24" width="24" height="24" fill="none" stroke="#ffffff" stroke-width="1.5" stroke-linecap="round" stroke-linejoin="round"><circle cx="12" cy="7" r="4"/><path d="M5.5 21a6.5 6.5 0 0113 0"/></svg></g><text x="130" y="584" font-family="'Inter', 'Helvetica Neue', Arial, sans-serif" font-size="13" fill="#ffffff" font-weight="600">UserService.GetUser</text><text x="130" y="602" font-family="'Inter', 'Helvetica Neue', Arial, sans-serif" font-size="11" fill="#ffffff" opacity="0.7">Unary RPC Protobuf v3</text><text x="130" y="618" font-family="'Inter', 'Helvetica Neue', Arial, sans-serif" font-size="11" fill="#ffffff" opacity="0.7">Deadline: 500ms</text><rect x="297" y="558" width="252" height="90" rx="10" fill="#111111" stroke="#333333" stroke-width="1"/><g transform="translate(311, 570)"><svg viewBox="0 0 24 24" width="24" height="24" fill="none" stroke="#ffffff" stroke-width="1.5" stroke-linecap="round" stroke-linejoin="round"><path d="M14 2H6a2 2 0 00-2 2v16a2 2 0 002 2h12a2 2 0 002-2V8z"/><polyline points="14 2 14 8 20 8"/><line x1="9" y1="13" x2="15" y2="13"/><line x1="9" y1="17" x2="13" y2="17"/></svg></g><text x="343" y="584" font-family="'Inter', 'Helvetica Neue', Arial, sans-serif" font-size="13" fill="#ffffff" font-weight="600">OrderService.StreamUpdates</text><text x="343" y="602" font-family="'Inter', 'Helvetica Neue', Arial, sans-serif" font-size="11" fill="#ffffff" opacity="0.7">Server streaming Backpressure via flow</text><text x="343" y="618" font-family="'Inter', 'Helvetica Neue', Arial, sans-serif" font-size="11" fill="#ffffff" opacity="0.7">control Keep-alive: 20s</text><rect x="563" y="558" width="258" height="90" rx="10" fill="#111111" stroke="#333333" stroke-width="1"/><g transform="translate(577, 570)"><svg viewBox="0 0 24 24" width="24" height="24" fill="none" stroke="#ffffff" stroke-width="1.5" stroke-linecap="round" stroke-linejoin="round"><path d="M12 2a5 5 0 014.8 3.6A4 4 0 0120 9.5a4 4 0 01-1.5 7.8A5 5 0 0112 22a5 5 0 01-6.5-4.7A4 4 0 014 9.5a4 4 0 013.2-3.9A5 5 0 0112 2z"/><path d="M12 2v20"/><path d="M8 8h8"/><path d="M7 13h10"/></svg></g><text x="609" y="584" font-family="'Inter', 'Helvetica Neue', Arial, sans-serif" font-size="13" fill="#ffffff" font-weight="600">AnalyticsService.IngestBatch</text><text x="609" y="602" font-family="'Inter', 'Helvetica Neue', Arial, sans-serif" font-size="11" fill="#ffffff" opacity="0.7">Client streaming Batch size: 1000</text><text x="609" y="618" font-family="'Inter', 'Helvetica Neue', Arial, sans-serif" font-size="11" fill="#ffffff" opacity="0.7">Compression: gzip</text><circle cx="837" cy="603" r="3" fill="#ffffff" opacity="0.5"/><circle cx="845" cy="603" r="3" fill="#ffffff" opacity="0.5"/><circle cx="853" cy="603" r="3" fill="#ffffff" opacity="0.5"/>
<rect x="430.5" y="100" width="159" height="56" rx="12" fill="url(#hero)" stroke="#b4f079" stroke-width="1.5"/><text x="510" y="128" font-family="'JetBrains Mono', 'Fira Code', 'SF Mono', 'Cascadia Code', monospace" font-size="13" fill="#b4f079" text-anchor="middle" dominant-baseline="central" letter-spacing="0.12em">API GATEWAY</text>
<line x1="510" y1="156" x2="510" y2="186" stroke="#b4f079" stroke-width="1.5" opacity="0.5"/><g transform="translate(365.71000000000004, 190)"><svg viewBox="0 0 24 24" width="24" height="24" fill="none" stroke="#ffffff" stroke-width="1.5" stroke-linecap="round" stroke-linejoin="round"><path d="M10 13a5 5 0 007.5.5l2-2a5 5 0 00-7-7l-1 1"/><path d="M14 11a5 5 0 00-7.5-.5l-2 2a5 5 0 007 7l1-1"/><line x1="18" y1="2" x2="22" y2="6"/><line x1="2" y1="18" x2="6" y2="22"/></svg></g><text x="395.71000000000004" y="204" font-family="'Inter', 'Helvetica Neue', Arial, sans-serif" font-size="14" fill="#ffffff" opacity="0.85">Deprecation: v1 endpoints sunset 2025-03-01</text>
</g>
</svg>