<svg xmlns="http://www.w3.org/2000/svg" viewBox="0 0 3565.4 817" width="3565.4" height="817">
<defs>
  <pattern id="dotgrid" width="8" height="8" patternUnits="userSpaceOnUse">
    <rect width="8" height="8" fill="#000000"/>
    <circle cx="4" cy="4" r="0.8" fill="#b4f079" opacity="0.7"/>
  </pattern>
  <pattern id="crosshatch" width="8" height="8" patternUnits="userSpaceOnUse">
    <rect width="8" height="8" fill="#000000"/>
    <path d="M0 8L8 0M-1 1L1 -1M7 9L9 7" stroke="#b4f079" stroke-width="0.8" opacity="0.2"/>
  </pattern>
  <pattern id="hero" width="6" height="6" patternUnits="userSpaceOnUse">
    <rect width="6" height="6" fill="#3d6b23"/>
    <circle cx="3" cy="3" r="0.6" fill="#5a9a35" opacity="0.5"/>
  </pattern>
  <marker id="arrowhead" markerWidth="10" markerHeight="7" refX="9" refY="3.5" orient="auto" markerUnits="strokeWidth">
    <polygon points="0 0, 10 3.5, 0 7" fill="#b4f079"/>
  </marker>
  <marker id="arrowhead-reverse" markerWidth="10" markerHeight="7" refX="1" refY="3.5" orient="auto" markerUnits="strokeWidth">
    <polygon points="10 0, 0 3.5, 10 7" fill="#b4f079"/>
  </marker>
</defs>
<rect width="100%" height="100%" fill="#000000"/>
<g class="diagram">
<text x="30" y="34" font-family="'Inter', 'Helvetica Neue', Arial, sans-serif" font-size="15" fill="#ffffff" font-weight="700">Platform engineering: cross-team service mesh dependencies</text>
<rect x="36" y="121" width="795.4000000000001" height="352" rx="12" fill="url(#dotgrid)" stroke="#b4f079" stroke-width="1" opacity="0.35"/><rect x="36" y="121" width="795.4000000000001" height="352" rx="12" fill="none" stroke="#b4f079" stroke-width="1" opacity="0.5"/>
<rect x="775.5" y="134" width="789.5" height="426" rx="12" fill="url(#dotgrid)" stroke="#b4f079" stroke-width="1" opacity="0.35"/><rect x="775.5" y="134" width="789.5" height="426" rx="12" fill="none" stroke="#b4f079" stroke-width="1" opacity="0.5"/>
<rect x="1581" y="380" width="1375" height="308" rx="12" fill="url(#dotgrid)" stroke="#b4f079" stroke-width="1" opacity="0.35"/><rect x="1581" y="380" width="1375" height="308" rx="12" fill="none" stroke="#b4f079" stroke-width="1" opacity="0.5"/>
<rect x="2972" y="360" width="553.4000000000001" height="341" rx="12" fill="url(#hero)" stroke="#b4f079" stroke-width="1" opacity="0.35"/><rect x="2972" y="360" width="553.4000000000001" height="341" rx="12" fill="none" stroke="#b4f079" stroke-width="1" opacity="0.5"/>
<polyline points="1004,460.5351187468418 1004,469 167,469 167,350" fill="none" stroke="#b4f079" stroke-width="1.5" marker-end="url(#arrowhead)"/>
<polyline points="1194,480.92782909930713 1194,482 2722,482 2722,648" fill="none" stroke="#b4f079" stroke-width="1.5" marker-end="url(#arrowhead)"/>
<polyline points="944.5,442.6714285714286 944.5,415 1377,415 1377,214" fill="none" stroke="#b4f079" stroke-width="1.5" marker-end="url(#arrowhead)"/>
<polyline points="791.5,449.5625294950448 791.5,469 499.96315789473687,469 499.96315789473687,345" fill="none" stroke="#b4f079" stroke-width="1.5" marker-end="url(#arrowhead)"/>
<polyline points="1597,468.2161300605674 1597,469 167,469 167,374" fill="none" stroke="#b4f079" stroke-width="1.5" marker-end="url(#arrowhead)"/>
<polyline points="1809,474.28818443804033 1809,527 944.5,527 944.5,476.77953890489914" fill="none" stroke="#b4f079" stroke-width="1.5" marker-end="url(#arrowhead)"/>
<line x1="167" y1="364.14974797209334" x2="3028.7" y2="457.5" stroke="#b4f079" stroke-width="1.5" marker-end="url(#arrowhead)"/>
<polyline points="944.5,476.89741641337383 944.5,527 3028.7,527 3028.7,490.5" fill="none" stroke="#b4f079" stroke-width="1.5" marker-end="url(#arrowhead)"/>
<polyline points="1759,474 1759,506 3028.7,506 3028.7,474" fill="none" stroke="#b4f079" stroke-width="1.5" marker-end="url(#arrowhead)"/>
<line x1="3181.7" y1="464.8642363293526" x2="3342.4" y2="445.6731615336266" stroke="#b4f079" stroke-width="1.5" marker-end="url(#arrowhead)"/>
<line x1="3181.7" y1="481.69327467001887" x2="3337.4" y2="497.35135135135135" stroke="#b4f079" stroke-width="1.5" marker-end="url(#arrowhead)"/>
<polyline points="167,367.4127582868779 167,395 2988,395 2988,624.2" fill="none" stroke="#b4f079" stroke-width="1.5" stroke-dasharray="6 4" marker-end="url(#arrowhead)"/>
<polyline points="944.5,482.71048632218844 944.5,527 2988,527 2988,663.8" fill="none" stroke="#b4f079" stroke-width="1.5" stroke-dasharray="6 4" marker-end="url(#arrowhead)"/>
<polyline points="1759,483.64826233183857 1759,506 2988,506 2988,650.6" fill="none" stroke="#b4f079" stroke-width="1.5" stroke-dasharray="6 4" marker-end="url(#arrowhead)"/>
<polyline points="1194,479.19210447612403 1194,482 2988,482 2988,637.4" fill="none" stroke="#b4f079" stroke-width="1.5" stroke-dasharray="6 4" marker-end="url(#arrowhead)"/>
<line x1="167" y1="333.653719749029" x2="403.6303030303031" y2="217" stroke="#b4f079" stroke-width="1.5" marker-end="url(#arrowhead)"/>
<line x1="167" y1="355.6435613982671" x2="335.20000000000005" y2="337.04959665371973" stroke="#b4f079" stroke-width="1.5" marker-end="url(#arrowhead)"/>
<polyline points="471.28085106382986,217 471.28085106382986,293 709.4000000000001,293 709.4000000000001,426.3333333333333" fill="none" stroke="#b4f079" stroke-width="1.5" marker-end="url(#arrowhead)"/>
<line x1="503.67663551401876" y1="345" x2="709.4000000000001" y2="437.6666666666667" stroke="#b4f079" stroke-width="1.5" marker-end="url(#arrowhead)"/>
<line x1="944.5" y1="475.012987012987" x2="1004" y2="473.46753246753246" stroke="#b4f079" stroke-width="1.5" marker-end="url(#arrowhead)"/>
<line x1="1160.3639846743295" y1="427" x2="1377" y2="206" stroke="#b4f079" stroke-width="1.5" marker-end="url(#arrowhead)"/>
<polyline points="944.5,482.4 944.5,527 1391.5,527 1391.5,524.6666666666666" fill="none" stroke="#b4f079" stroke-width="1.5" marker-end="url(#arrowhead)"/>
<line x1="1194" y1="483.5274725274725" x2="1391.5" y2="513.3333333333334" stroke="#b4f079" stroke-width="1.5" marker-end="url(#arrowhead)"/>
<line x1="1759" y1="474" x2="1809" y2="474" stroke="#b4f079" stroke-width="1.5" marker-end="url(#arrowhead)"/>
<polyline points="1759,486.5047701647875 1759,506 2722,506 2722,656" fill="none" stroke="#b4f079" stroke-width="1.5" marker-end="url(#arrowhead)"/>
<line x1="2009" y1="480.72782874617735" x2="2150" y2="490.2140672782875" stroke="#b4f079" stroke-width="1.5" marker-end="url(#arrowhead)"/>
<rect x="502.5" y="396.13377968671045" width="166" height="22" rx="4" fill="#000000"/>
<rect x="1892.5" y="568.3595788553739" width="131" height="22" rx="4" fill="#000000"/>
<rect x="1095.25" y="302.3357142857143" width="131" height="22" rx="4" fill="#000000"/>
<rect x="587.2315789473685" y="360.13377968671045" width="117" height="22" rx="4" fill="#000000"/>
<rect x="792" y="397" width="180" height="22" rx="4" fill="#000000"/>
<rect x="1307.75" y="464" width="138" height="22" rx="4" fill="#000000"/>
<rect x="1546.35" y="369.82487398604667" width="103" height="22" rx="4" fill="#000000"/>
<rect x="1935.1" y="499.17978942768696" width="103" height="22" rx="4" fill="#000000"/>
<rect x="2342.35" y="493" width="103" height="22" rx="4" fill="#000000"/>
<rect x="3207.05" y="429.2686989314896" width="110" height="22" rx="4" fill="#000000"/>
<rect x="3218.55" y="493.52231301068514" width="82" height="22" rx="4" fill="#000000"/>
<rect x="1540" y="406" width="75" height="22" rx="4" fill="#000000"/>
<rect x="1928.75" y="535.179789427687" width="75" height="22" rx="4" fill="#000000"/>
<rect x="2336" y="571.1241311659193" width="75" height="22" rx="4" fill="#000000"/>
<rect x="2053.5" y="592.296052238062" width="75" height="22" rx="4" fill="#000000"/>
<rect x="333.70000000000005" y="134" width="200" height="24" fill="#000000" rx="3"/><text x="433.70000000000005" y="147" font-family="'Inter', 'Helvetica Neue', Arial, sans-serif" font-size="14" fill="#ffffff" opacity="0.9" text-anchor="middle">Team Alpha — User Domain</text>
<rect x="1059" y="147" width="222.5" height="24" fill="#000000" rx="3"/><text x="1170.25" y="160" font-family="'Inter', 'Helvetica Neue', Arial, sans-serif" font-size="14" fill="#ffffff" opacity="0.9" text-anchor="middle">Team Beta — Commerce Domain</text>
<rect x="2142.25" y="393" width="252.5" height="24" fill="#000000" rx="3"/><text x="2268.5" y="406" font-family="'Inter', 'Helvetica Neue', Arial, sans-serif" font-size="14" fill="#ffffff" opacity="0.9" text-anchor="middle">Team Gamma — Fulfillment Domain</text>
<rect x="3099.95" y="373" width="297.5" height="24" fill="#000000" rx="3"/><text x="3248.7" y="386" font-family="'Inter', 'Helvetica Neue', Arial, sans-serif" font-size="14" fill="#ffffff" opacity="0.9" text-anchor="middle">Platform Team — Shared Infrastructure</text>
<rect x="52" y="318" width="115" height="88" rx="12" fill="url(#dotgrid)" stroke="#b4f079" stroke-width="1.5"/><rect x="69.5" y="350.9" width="80" height="22.2" fill="#000000" rx="2"/><text x="109.5" y="362" font-family="'JetBrains Mono', 'Fira Code', 'SF Mono', 'Cascadia Code', monospace" font-size="13" fill="#b4f079" text-anchor="middle" dominant-baseline="central" letter-spacing="0.12em">USER API</text>
<rect x="353.70000000000005" y="177" width="181" height="40" rx="12" fill="url(#dotgrid)" stroke="#b4f079" stroke-width="1.5"/><rect x="376.20000000000005" y="185.9" width="136" height="22.2" fill="#000000" rx="2"/><text x="444.20000000000005" y="197" font-family="'JetBrains Mono', 'Fira Code', 'SF Mono', 'Cascadia Code', monospace" font-size="13" fill="#b4f079" text-anchor="middle" dominant-baseline="central" letter-spacing="0.12em">PROFILE SERVICE</text>
<rect x="335.20000000000005" y="305" width="218" height="40" rx="12" fill="url(#dotgrid)" stroke="#b4f079" stroke-width="1.5"/><rect x="360.20000000000005" y="313.9" width="168" height="22.2" fill="#000000" rx="2"/><text x="444.20000000000005" y="325" font-family="'JetBrains Mono', 'Fira Code', 'SF Mono', 'Cascadia Code', monospace" font-size="13" fill="#b4f079" text-anchor="middle" dominant-baseline="central" letter-spacing="0.12em">PREFERENCES SERVICE</text>
<rect x="709.4000000000001" y="417" width="106" height="30" fill="url(#crosshatch)" stroke="none"/><line x1="709.4000000000001" y1="417" x2="709.4000000000001" y2="447" stroke="#b4f079" stroke-width="1.5"/><line x1="815.4000000000001" y1="417" x2="815.4000000000001" y2="447" stroke="#b4f079" stroke-width="1.5"/><ellipse cx="762.4000000000001" cy="417" rx="53" ry="10" fill="url(#crosshatch)" stroke="#b4f079" stroke-width="1.5"/><path d="M709.4000000000001,447 A53,10 0 0,0 815.4000000000001,447" fill="url(#crosshatch)" stroke="#b4f079" stroke-width="1.5"/><rect x="726.4000000000001" y="420.9" width="72" height="22.2" fill="#000000" rx="2"/><text x="762.4000000000001" y="432" font-family="'JetBrains Mono', 'Fira Code', 'SF Mono', 'Cascadia Code', monospace" font-size="13" fill="#b4f079" text-anchor="middle" dominant-baseline="central" letter-spacing="0.12em">USER DB</text>
<rect x="791.5" y="427" width="153" height="100" rx="12" fill="url(#dotgrid)" stroke="#b4f079" stroke-width="1.5"/><rect x="812" y="465.9" width="112" height="22.2" fill="#000000" rx="2"/><text x="868" y="477" font-family="'JetBrains Mono', 'Fira Code', 'SF Mono', 'Cascadia Code', monospace" font-size="13" fill="#b4f079" text-anchor="middle" dominant-baseline="central" letter-spacing="0.12em">CART SERVICE</text>
<rect x="1004" y="427" width="190" height="88" rx="12" fill="url(#dotgrid)" stroke="#b4f079" stroke-width="1.5"/><rect x="1027" y="459.9" width="144" height="22.2" fill="#000000" rx="2"/><text x="1099" y="471" font-family="'JetBrains Mono', 'Fira Code', 'SF Mono', 'Cascadia Code', monospace" font-size="13" fill="#b4f079" text-anchor="middle" dominant-baseline="central" letter-spacing="0.12em">CHECKOUT SERVICE</text>
<rect x="1377" y="190" width="172" height="40" rx="12" fill="url(#dotgrid)" stroke="#b4f079" stroke-width="1.5"/><rect x="1399" y="198.9" width="128" height="22.2" fill="#000000" rx="2"/><text x="1463" y="210" font-family="'JetBrains Mono', 'Fira Code', 'SF Mono', 'Cascadia Code', monospace" font-size="13" fill="#b4f079" text-anchor="middle" dominant-baseline="central" letter-spacing="0.12em">PRICING ENGINE</text>
<rect x="1391.5" y="504" width="143" height="30" fill="url(#crosshatch)" stroke="none"/><line x1="1391.5" y1="504" x2="1391.5" y2="534" stroke="#b4f079" stroke-width="1.5"/><line x1="1534.5" y1="504" x2="1534.5" y2="534" stroke="#b4f079" stroke-width="1.5"/><ellipse cx="1463" cy="504" rx="71.5" ry="10" fill="url(#crosshatch)" stroke="#b4f079" stroke-width="1.5"/><path d="M1391.5,534 A71.5,10 0 0,0 1534.5,534" fill="url(#crosshatch)" stroke="#b4f079" stroke-width="1.5"/><rect x="1411" y="507.9" width="104" height="22.2" fill="#000000" rx="2"/><text x="1463" y="519" font-family="'JetBrains Mono', 'Fira Code', 'SF Mono', 'Cascadia Code', monospace" font-size="13" fill="#b4f079" text-anchor="middle" dominant-baseline="central" letter-spacing="0.12em">COMMERCE DB</text>
<rect x="1597" y="436" width="162" height="76" rx="12" fill="url(#dotgrid)" stroke="#b4f079" stroke-width="1.5"/><rect x="1618" y="462.9" width="120" height="22.2" fill="#000000" rx="2"/><text x="1678" y="474" font-family="'JetBrains Mono', 'Fira Code', 'SF Mono', 'Cascadia Code', monospace" font-size="13" fill="#b4f079" text-anchor="middle" dominant-baseline="central" letter-spacing="0.12em">ORDER TRACKER</text>
<rect x="1809" y="454" width="200" height="40" rx="12" fill="url(#dotgrid)" stroke="#b4f079" stroke-width="1.5"/><rect x="1833" y="462.9" width="152" height="22.2" fill="#000000" rx="2"/><text x="1909" y="474" font-family="'JetBrains Mono', 'Fira Code', 'SF Mono', 'Cascadia Code', monospace" font-size="13" fill="#b4f079" text-anchor="middle" dominant-baseline="central" letter-spacing="0.12em">WAREHOUSE SERVICE</text>
<rect x="2722" y="632" width="218" height="40" rx="12" fill="url(#dotgrid)" stroke="#b4f079" stroke-width="1.5"/><rect x="2747" y="640.9" width="168" height="22.2" fill="#000000" rx="2"/><text x="2831" y="652" font-family="'JetBrains Mono', 'Fira Code', 'SF Mono', 'Cascadia Code', monospace" font-size="13" fill="#b4f079" text-anchor="middle" dominant-baseline="central" letter-spacing="0.12em">SHIPPING CALCULATOR</text>
<rect x="2150" y="481" width="172" height="30" fill="url(#crosshatch)" stroke="none"/><line x1="2150" y1="481" x2="2150" y2="511" stroke="#b4f079" stroke-width="1.5"/><line x1="2322" y1="481" x2="2322" y2="511" stroke="#b4f079" stroke-width="1.5"/><ellipse cx="2236" cy="481" rx="86" ry="10" fill="url(#crosshatch)" stroke="#b4f079" stroke-width="1.5"/><path d="M2150,511 A86,10 0 0,0 2322,511" fill="url(#crosshatch)" stroke="#b4f079" stroke-width="1.5"/><rect x="2172" y="484.9" width="128" height="22.2" fill="#000000" rx="2"/><text x="2236" y="496" font-family="'JetBrains Mono', 'Fira Code', 'SF Mono', 'Cascadia Code', monospace" font-size="13" fill="#b4f079" text-anchor="middle" dominant-baseline="central" letter-spacing="0.12em">FULFILLMENT DB</text>
<rect x="3028.7" y="433" width="153" height="82" rx="12" fill="none" stroke="#b4f079" stroke-width="1.5"/><rect x="3033.45" y="437.75" width="143.5" height="72.5" rx="8" fill="url(#hero)" stroke="#b4f079" stroke-width="1"/><rect x="3049.2" y="454.9" width="112" height="22.2" fill="#000000" rx="2"/><text x="3105.2" y="466" font-family="'JetBrains Mono', 'Fira Code', 'SF Mono', 'Cascadia Code', monospace" font-size="13" fill="#b4f079" text-anchor="middle" dominant-baseline="central" letter-spacing="0.12em">SERVICE MESH</text><rect x="3077.2" y="474.6" width="56" height="22.799999999999997" fill="#000000" rx="2"/><text x="3105.2" y="486" font-family="'JetBrains Mono', 'Fira Code', 'SF Mono', 'Cascadia Code', monospace" font-size="12" fill="#b4f079" opacity="0.6" text-anchor="middle" dominant-baseline="central" letter-spacing="0.12em">Istio</text>
<rect x="3342.4" y="416" width="162" height="40" rx="12" fill="url(#dotgrid)" stroke="#b4f079" stroke-width="1.5"/><rect x="3363.4" y="424.9" width="120" height="22.2" fill="#000000" rx="2"/><text x="3423.4" y="436" font-family="'JetBrains Mono', 'Fira Code', 'SF Mono', 'Cascadia Code', monospace" font-size="13" fill="#b4f079" text-anchor="middle" dominant-baseline="central" letter-spacing="0.12em">CONFIG SERVER</text>
<rect x="3337.4" y="486" width="172" height="40" rx="12" fill="url(#dotgrid)" stroke="#b4f079" stroke-width="1.5"/><rect x="3359.4" y="494.9" width="128" height="22.2" fill="#000000" rx="2"/><text x="3423.4" y="506" font-family="'JetBrains Mono', 'Fira Code', 'SF Mono', 'Cascadia Code', monospace" font-size="13" fill="#b4f079" text-anchor="middle" dominant-baseline="central" letter-spacing="0.12em">SECRET MANAGER</text>
<rect x="2988" y="613" width="234.4" height="62" fill="url(#crosshatch)" stroke="none"/><line x1="2988" y1="613" x2="2988" y2="675" stroke="#b4f079" stroke-width="1.5"/><line x1="3222.4" y1="613" x2="3222.4" y2="675" stroke="#b4f079" stroke-width="1.5"/><ellipse cx="3105.2" cy="613" rx="117.2" ry="10" fill="url(#crosshatch)" stroke="#b4f079" stroke-width="1.5"/><path d="M2988,675 A117.2,10 0 0,0 3222.4,675" fill="url(#crosshatch)" stroke="#b4f079" stroke-width="1.5"/><rect x="3021.2" y="624.9" width="168" height="22.2" fill="#000000" rx="2"/><text x="3105.2" y="636" font-family="'JetBrains Mono', 'Fira Code', 'SF Mono', 'Cascadia Code', monospace" font-size="13" fill="#b4f079" text-anchor="middle" dominant-baseline="central" letter-spacing="0.12em">OBSERVABILITY STACK</text><rect x="2989.2" y="644.6" width="232" height="22.799999999999997" fill="#000000" rx="2"/><text x="3105.2" y="656" font-family="'JetBrains Mono', 'Fira Code', 'SF Mono', 'Cascadia Code', monospace" font-size="12" fill="#b4f079" opacity="0.6" text-anchor="middle" dominant-baseline="central" letter-spacing="0.12em">Prometheus + Grafana + Loki</text>
<text x="585.5" y="411.13377968671045" font-family="'JetBrains Mono', 'Fira Code', 'SF Mono', 'Cascadia Code', monospace" font-size="12" fill="#b4f079" opacity="0.85" text-anchor="middle">Lookup billing address</text>
<text x="1958" y="583.3595788553739" font-family="'JetBrains Mono', 'Fira Code', 'SF Mono', 'Cascadia Code', monospace" font-size="12" fill="#b4f079" opacity="0.85" text-anchor="middle">Get shipping cost</text>
<text x="1160.75" y="317.3357142857143" font-family="'JetBrains Mono', 'Fira Code', 'SF Mono', 'Cascadia Code', monospace" font-size="12" fill="#b4f079" opacity="0.85" text-anchor="middle">Get current price</text>
<text x="645.7315789473685" y="375.13377968671045" font-family="'JetBrains Mono', 'Fira Code', 'SF Mono', 'Cascadia Code', monospace" font-size="12" fill="#b4f079" opacity="0.85" text-anchor="middle">Personalization</text>
<text x="882" y="412" font-family="'JetBrains Mono', 'Fira Code', 'SF Mono', 'Cascadia Code', monospace" font-size="12" fill="#b4f079" opacity="0.85" text-anchor="middle">Notification preferences</text>
<text x="1376.75" y="479" font-family="'JetBrains Mono', 'Fira Code', 'SF Mono', 'Cascadia Code', monospace" font-size="12" fill="#b4f079" opacity="0.85" text-anchor="middle">Availability check</text>
<text x="1597.85" y="384.82487398604667" font-family="'JetBrains Mono', 'Fira Code', 'SF Mono', 'Cascadia Code', monospace" font-size="12" fill="#b4f079" opacity="0.85" text-anchor="middle">Sidecar proxy</text>
<text x="1986.6" y="514.179789427687" font-family="'JetBrains Mono', 'Fira Code', 'SF Mono', 'Cascadia Code', monospace" font-size="12" fill="#b4f079" opacity="0.85" text-anchor="middle">Sidecar proxy</text>
<text x="2393.85" y="508" font-family="'JetBrains Mono', 'Fira Code', 'SF Mono', 'Cascadia Code', monospace" font-size="12" fill="#b4f079" opacity="0.85" text-anchor="middle">Sidecar proxy</text>
<text x="3262.05" y="444.2686989314896" font-family="'JetBrains Mono', 'Fira Code', 'SF Mono', 'Cascadia Code', monospace" font-size="12" fill="#b4f079" opacity="0.85" text-anchor="middle">Dynamic config</text>
<text x="3259.55" y="508.52231301068514" font-family="'JetBrains Mono', 'Fira Code', 'SF Mono', 'Cascadia Code', monospace" font-size="12" fill="#b4f079" opacity="0.85" text-anchor="middle">mTLS certs</text>
<text x="1577.5" y="421" font-family="'JetBrains Mono', 'Fira Code', 'SF Mono', 'Cascadia Code', monospace" font-size="12" fill="#b4f079" opacity="0.85" text-anchor="middle">Telemetry</text>
<text x="1966.25" y="550.179789427687" font-family="'JetBrains Mono', 'Fira Code', 'SF Mono', 'Cascadia Code', monospace" font-size="12" fill="#b4f079" opacity="0.85" text-anchor="middle">Telemetry</text>
<text x="2373.5" y="586.1241311659193" font-family="'JetBrains Mono', 'Fira Code', 'SF Mono', 'Cascadia Code', monospace" font-size="12" fill="#b4f079" opacity="0.85" text-anchor="middle">Telemetry</text>
<text x="2091" y="607.296052238062" font-family="'JetBrains Mono', 'Fira Code', 'SF Mono', 'Cascadia Code', monospace" font-size="12" fill="#b4f079" opacity="0.85" text-anchor="middle">Telemetry</text>
<text x="1832.5" y="74" font-family="'Inter', 'Helvetica Neue', Arial, sans-serif" font-size="14" fill="#ffffff" font-weight="700">6 cross-team API calls</text><text x="1832.5" y="92" font-family="'JetBrains Mono', 'Fira Code', 'SF Mono', 'Cascadia Code', monospace" font-size="11" fill="#b4f079" opacity="0.7">create tight coupling</text><text x="1832.5" y="110" font-family="'JetBrains Mono', 'Fira Code', 'SF Mono', 'Cascadia Code', monospace" font-size="11" fill="#b4f079" opacity="0.7">Candidate for async events</text>
<text x="2751.2" y="300" font-family="'Inter', 'Helvetica Neue', Arial, sans-serif" font-size="14" fill="#ffffff" font-weight="700">Service mesh handles:</text><text x="2751.2" y="318" font-family="'JetBrains Mono', 'Fira Code', 'SF Mono', 'Cascadia Code', monospace" font-size="11" fill="#b4f079" opacity="0.7">mTLS, retry, circuit break</text><text x="2751.2" y="336" font-family="'JetBrains Mono', 'Fira Code', 'SF Mono', 'Cascadia Code', monospace" font-size="11" fill="#b4f079" opacity="0.7">rate limiting, tracing</text>
<text x="2375" y="725" font-family="'Inter', 'Helvetica Neue', Arial, sans-serif" font-size="14" fill="#ffffff" font-weight="700">Shared DB anti-pattern</text><text x="2375" y="743" font-family="'JetBrains Mono', 'Fira Code', 'SF Mono', 'Cascadia Code', monospace" font-size="11" fill="#b4f079" opacity="0.7">avoided: each team</text><text x="2375" y="761" font-family="'JetBrains Mono', 'Fira Code', 'SF Mono', 'Cascadia Code', monospace" font-size="11" fill="#b4f079" opacity="0.7">owns its data store</text>
</g>
</svg>