<svg xmlns="http://www.w3.org/2000/svg" viewBox="0 0 2086.9 752" width="2086.9" height="752">
<defs>
  <pattern id="dotgrid" width="8" height="8" patternUnits="userSpaceOnUse">
    <rect width="8" height="8" fill="#000000"/>
    <circle cx="4" cy="4" r="0.8" fill="#b4f079" opacity="0.7"/>
  </pattern>
  <pattern id="crosshatch" width="8" height="8" patternUnits="userSpaceOnUse">
    <rect width="8" height="8" fill="#000000"/>
    <path d="M0 8L8 0M-1 1L1 -1M7 9L9 7" stroke="#b4f079" stroke-width="0.8" opacity="0.2"/>
  </pattern>
  <pattern id="hero" width="6" height="6" patternUnits="userSpaceOnUse">
    <rect width="6" height="6" fill="#3d6b23"/>
    <circle cx="3" cy="3" r="0.6" fill="#5a9a35" opacity="0.5"/>
  </pattern>
  <marker id="arrowhead" markerWidth="10" markerHeight="7" refX="9" refY="3.5" orient="auto" markerUnits="strokeWidth">
    <polygon points="0 0, 10 3.5, 0 7" fill="#b4f079"/>
  </marker>
  <marker id="arrowhead-reverse" markerWidth="10" markerHeight="7" refX="1" refY="3.5" orient="auto" markerUnits="strokeWidth">
    <polygon points="10 0, 0 3.5, 10 7" fill="#b4f079"/>
  </marker>
</defs>
<rect width="100%" height="100%" fill="#000000"/>
<g class="diagram">
<text x="30" y="34" font-family="'Inter', 'Helvetica Neue', Arial, sans-serif" font-size="15" fill="#ffffff" font-weight="700">Platform engineering: cross-team service mesh dependencies</text>
<rect x="1212.5" y="92" width="795.4000000000001" height="337" rx="12" fill="url(#dotgrid)" stroke="#b4f079" stroke-width="1" opacity="0.35"/><rect x="1212.5" y="92" width="795.4000000000001" height="337" rx="12" fill="none" stroke="#b4f079" stroke-width="1" opacity="0.5"/>
<rect x="598.5" y="134" width="789.5" height="368" rx="12" fill="url(#dotgrid)" stroke="#b4f079" stroke-width="1" opacity="0.35"/><rect x="598.5" y="134" width="789.5" height="368" rx="12" fill="none" stroke="#b4f079" stroke-width="1" opacity="0.5"/>
<rect x="36" y="361" width="1375" height="269" rx="12" fill="url(#dotgrid)" stroke="#b4f079" stroke-width="1" opacity="0.35"/><rect x="36" y="361" width="1375" height="269" rx="12" fill="none" stroke="#b4f079" stroke-width="1" opacity="0.5"/>
<rect x="1487.5" y="326" width="553.4000000000001" height="346" rx="12" fill="url(#hero)" stroke="#b4f079" stroke-width="1" opacity="0.35"/><rect x="1487.5" y="326" width="553.4000000000001" height="346" rx="12" fill="none" stroke="#b4f079" stroke-width="1" opacity="0.5"/>
<line x1="1002.8888888888889" y1="408" x2="1228.5" y2="352.217032967033" stroke="#b4f079" stroke-width="1.5" marker-end="url(#arrowhead)"/>
<line x1="965.855421686747" y1="448" x2="1242.144578313253" y2="574" stroke="#b4f079" stroke-width="1.5" marker-end="url(#arrowhead)"/>
<polyline points="745.5871559633027,408 745.5871559633027,405 1231.4128440366972,405 1231.4128440366972,230" fill="none" stroke="#b4f079" stroke-width="1.5" marker-end="url(#arrowhead)"/>
<polyline points="767.5,417.1384317521781 767.5,370 1511.7,370 1511.7,311.4759599870926" fill="none" stroke="#b4f079" stroke-width="1.5" marker-end="url(#arrowhead)"/>
<polyline points="214,437.48308759757157 214,460 1228.5,460 1228.5,343.33607979184734" fill="none" stroke="#b4f079" stroke-width="1.5" marker-end="url(#arrowhead)"/>
<polyline points="464,434.2477064220183 464,405 614.5,405 614.5,430.10550458715596" fill="none" stroke="#b4f079" stroke-width="1.5" marker-end="url(#arrowhead)"/>
<line x1="1343.5" y1="356.38213325366" x2="1544.2" y2="420.5437705407828" stroke="#b4f079" stroke-width="1.5" marker-end="url(#arrowhead)"/>
<polyline points="767.5,429.39883833494673 767.5,460 1544.2,460 1544.2,443.60116166505327" fill="none" stroke="#b4f079" stroke-width="1.5" marker-end="url(#arrowhead)"/>
<polyline points="214,445 214,460 1544.2,460 1544.2,445" fill="none" stroke="#b4f079" stroke-width="1.5" marker-end="url(#arrowhead)"/>
<line x1="1697.2" y1="434.6621621621622" x2="1857.9" y2="412.94594594594594" stroke="#b4f079" stroke-width="1.5" marker-end="url(#arrowhead)"/>
<line x1="1697.2" y1="451.4912005028284" x2="1852.9" y2="464.7027027027027" stroke="#b4f079" stroke-width="1.5" marker-end="url(#arrowhead)"/>
<line x1="1310.1660649819494" y1="358" x2="1571.1595667870035" y2="574" stroke="#b4f079" stroke-width="1.5" stroke-dasharray="6 4" marker-end="url(#arrowhead)"/>
<polyline points="767.5,443.3872216844143 767.5,460 1503.5,460 1503.5,591.4263740991718" fill="none" stroke="#b4f079" stroke-width="1.5" stroke-dasharray="6 4" marker-end="url(#arrowhead)"/>
<polyline points="214,454.2558983666062 214,469 1503.5,469 1503.5,601.6075149559723" fill="none" stroke="#b4f079" stroke-width="1.5" stroke-dasharray="6 4" marker-end="url(#arrowhead)"/>
<line x1="996.7272727272727" y1="448" x2="1503.5" y2="583.632603406326" stroke="#b4f079" stroke-width="1.5" stroke-dasharray="6 4" marker-end="url(#arrowhead)"/>
<line x1="1325.3764705882354" y1="318" x2="1581.3235294117646" y2="188" stroke="#b4f079" stroke-width="1.5" marker-end="url(#arrowhead)"/>
<line x1="1343.5" y1="330.78458320884374" x2="1511.7" y2="309.67792052584406" stroke="#b4f079" stroke-width="1.5" marker-end="url(#arrowhead)"/>
<polyline points="1648.9844444444445,188 1648.9844444444445,370 1910.6155555555556,370 1910.6155555555556,373" fill="none" stroke="#b4f079" stroke-width="1.5" marker-end="url(#arrowhead)"/>
<polyline points="1686.3082474226806,316 1686.3082474226806,370 1885.9,370 1885.9,376.84349465744816" fill="none" stroke="#b4f079" stroke-width="1.5" marker-end="url(#arrowhead)"/>
<polyline points="767.5,428 767.5,405 827,405 827,428" fill="none" stroke="#b4f079" stroke-width="1.5" marker-end="url(#arrowhead)"/>
<line x1="955.394495412844" y1="408" x2="1252.605504587156" y2="230" stroke="#b4f079" stroke-width="1.5" marker-end="url(#arrowhead)"/>
<polyline points="767.5,432.8857142857143 767.5,460 1214.5,460 1214.5,461.43361344537817" fill="none" stroke="#b4f079" stroke-width="1.5" marker-end="url(#arrowhead)"/>
<line x1="1017" y1="437.9175824175824" x2="1214.5" y2="458.5357142857143" stroke="#b4f079" stroke-width="1.5" marker-end="url(#arrowhead)"/>
<line x1="214" y1="442.1948051948052" x2="264" y2="440.46320346320346" stroke="#b4f079" stroke-width="1.5" marker-end="url(#arrowhead)"/>
<polyline points="214,455.46747614917604 214,469 1177,469 1177,579.9141370338248" fill="none" stroke="#b4f079" stroke-width="1.5" marker-end="url(#arrowhead)"/>
<polyline points="464,437 464,460 605,460 605,437" fill="none" stroke="#b4f079" stroke-width="1.5" marker-end="url(#arrowhead)"/>
<rect x="1032.6944444444443" y="343.20785617657594" width="166" height="22" rx="4" fill="#000000"/>
<rect x="1038.5" y="513.7033989458965" width="131" height="22" rx="4" fill="#000000"/>
<rect x="923" y="293" width="131" height="22" rx="4" fill="#000000"/>
<rect x="1081.1" y="379.20785617657594" width="117" height="22" rx="4" fill="#000000"/>
<rect x="631.25" y="406" width="180" height="22" rx="4" fill="#000000"/>
<rect x="470.25" y="465" width="138" height="22" rx="4" fill="#000000"/>
<rect x="1392.35" y="347.4629518972214" width="103" height="22" rx="4" fill="#000000"/>
<rect x="1104.35" y="416" width="103" height="22" rx="4" fill="#000000"/>
<rect x="827.6" y="464" width="103" height="22" rx="4" fill="#000000"/>
<rect x="1722.5500000000002" y="397.80405405405406" width="110" height="22" rx="4" fill="#000000"/>
<rect x="1734.0500000000002" y="462.09695160276556" width="82" height="22" rx="4" fill="#000000"/>
<rect x="1403.1628158844765" y="410" width="75" height="22" rx="4" fill="#000000"/>
<rect x="1098" y="477.70339894589654" width="75" height="22" rx="4" fill="#000000"/>
<rect x="821.25" y="531.9317066612892" width="75" height="22" rx="4" fill="#000000"/>
<rect x="1212.6136363636365" y="544" width="75" height="22" rx="4" fill="#000000"/>
<rect x="1510.2" y="105" width="200" height="24" fill="#000000" rx="3"/><text x="1610.2" y="118" font-family="'Inter', 'Helvetica Neue', Arial, sans-serif" font-size="14" fill="#ffffff" opacity="0.9" text-anchor="middle">Team Alpha — User Domain</text>
<rect x="882" y="147" width="222.5" height="24" fill="#000000" rx="3"/><text x="993.25" y="160" font-family="'Inter', 'Helvetica Neue', Arial, sans-serif" font-size="14" fill="#ffffff" opacity="0.9" text-anchor="middle">Team Beta — Commerce Domain</text>
<rect x="597.25" y="374" width="252.5" height="24" fill="#000000" rx="3"/><text x="723.5" y="387" font-family="'Inter', 'Helvetica Neue', Arial, sans-serif" font-size="14" fill="#ffffff" opacity="0.9" text-anchor="middle">Team Gamma — Fulfillment Domain</text>
<rect x="1615.45" y="339" width="297.5" height="24" fill="#000000" rx="3"/><text x="1764.2" y="352" font-family="'Inter', 'Helvetica Neue', Arial, sans-serif" font-size="14" fill="#ffffff" opacity="0.9" text-anchor="middle">Platform Team — Shared Infrastructure</text>
<rect x="1228.5" y="318" width="115" height="40" rx="12" fill="url(#dotgrid)" stroke="#b4f079" stroke-width="1.5"/><rect x="1246" y="326.9" width="80" height="22.2" fill="#000000" rx="2"/><text x="1286" y="338" font-family="'JetBrains Mono', 'Fira Code', 'SF Mono', 'Cascadia Code', monospace" font-size="13" fill="#b4f079" text-anchor="middle" dominant-baseline="central" letter-spacing="0.12em">USER API</text>
<rect x="1530.2" y="148" width="181" height="40" rx="12" fill="url(#dotgrid)" stroke="#b4f079" stroke-width="1.5"/><rect x="1552.7" y="156.9" width="136" height="22.2" fill="#000000" rx="2"/><text x="1620.7" y="168" font-family="'JetBrains Mono', 'Fira Code', 'SF Mono', 'Cascadia Code', monospace" font-size="13" fill="#b4f079" text-anchor="middle" dominant-baseline="central" letter-spacing="0.12em">PROFILE SERVICE</text>
<rect x="1511.7" y="276" width="218" height="40" rx="12" fill="url(#dotgrid)" stroke="#b4f079" stroke-width="1.5"/><rect x="1536.7" y="284.9" width="168" height="22.2" fill="#000000" rx="2"/><text x="1620.7" y="296" font-family="'JetBrains Mono', 'Fira Code', 'SF Mono', 'Cascadia Code', monospace" font-size="13" fill="#b4f079" text-anchor="middle" dominant-baseline="central" letter-spacing="0.12em">PREFERENCES SERVICE</text>
<rect x="1885.9" y="383" width="106" height="20" fill="url(#crosshatch)" stroke="none"/><line x1="1885.9" y1="383" x2="1885.9" y2="403" stroke="#b4f079" stroke-width="1.5"/><line x1="1991.9" y1="383" x2="1991.9" y2="403" stroke="#b4f079" stroke-width="1.5"/><ellipse cx="1938.9" cy="383" rx="53" ry="10" fill="url(#crosshatch)" stroke="#b4f079" stroke-width="1.5"/><path d="M1885.9,403 A53,10 0 0,0 1991.9,403" fill="url(#crosshatch)" stroke="#b4f079" stroke-width="1.5"/><rect x="1902.9" y="381.9" width="72" height="22.2" fill="#000000" rx="2"/><text x="1938.9" y="393" font-family="'JetBrains Mono', 'Fira Code', 'SF Mono', 'Cascadia Code', monospace" font-size="13" fill="#b4f079" text-anchor="middle" dominant-baseline="central" letter-spacing="0.12em">USER DB</text>
<rect x="614.5" y="408" width="153" height="40" rx="12" fill="url(#dotgrid)" stroke="#b4f079" stroke-width="1.5"/><rect x="635" y="416.9" width="112" height="22.2" fill="#000000" rx="2"/><text x="691" y="428" font-family="'JetBrains Mono', 'Fira Code', 'SF Mono', 'Cascadia Code', monospace" font-size="13" fill="#b4f079" text-anchor="middle" dominant-baseline="central" letter-spacing="0.12em">CART SERVICE</text>
<rect x="827" y="408" width="190" height="40" rx="12" fill="url(#dotgrid)" stroke="#b4f079" stroke-width="1.5"/><rect x="850" y="416.9" width="144" height="22.2" fill="#000000" rx="2"/><text x="922" y="428" font-family="'JetBrains Mono', 'Fira Code', 'SF Mono', 'Cascadia Code', monospace" font-size="13" fill="#b4f079" text-anchor="middle" dominant-baseline="central" letter-spacing="0.12em">CHECKOUT SERVICE</text>
<rect x="1200" y="190" width="172" height="40" rx="12" fill="url(#dotgrid)" stroke="#b4f079" stroke-width="1.5"/><rect x="1222" y="198.9" width="128" height="22.2" fill="#000000" rx="2"/><text x="1286" y="210" font-family="'JetBrains Mono', 'Fira Code', 'SF Mono', 'Cascadia Code', monospace" font-size="13" fill="#b4f079" text-anchor="middle" dominant-baseline="central" letter-spacing="0.12em">PRICING ENGINE</text>
<rect x="1214.5" y="456" width="143" height="20" fill="url(#crosshatch)" stroke="none"/><line x1="1214.5" y1="456" x2="1214.5" y2="476" stroke="#b4f079" stroke-width="1.5"/><line x1="1357.5" y1="456" x2="1357.5" y2="476" stroke="#b4f079" stroke-width="1.5"/><ellipse cx="1286" cy="456" rx="71.5" ry="10" fill="url(#crosshatch)" stroke="#b4f079" stroke-width="1.5"/><path d="M1214.5,476 A71.5,10 0 0,0 1357.5,476" fill="url(#crosshatch)" stroke="#b4f079" stroke-width="1.5"/><rect x="1234" y="454.9" width="104" height="22.2" fill="#000000" rx="2"/><text x="1286" y="466" font-family="'JetBrains Mono', 'Fira Code', 'SF Mono', 'Cascadia Code', monospace" font-size="13" fill="#b4f079" text-anchor="middle" dominant-baseline="central" letter-spacing="0.12em">COMMERCE DB</text>
<rect x="52" y="425" width="162" height="40" rx="12" fill="url(#dotgrid)" stroke="#b4f079" stroke-width="1.5"/><rect x="73" y="433.9" width="120" height="22.2" fill="#000000" rx="2"/><text x="133" y="445" font-family="'JetBrains Mono', 'Fira Code', 'SF Mono', 'Cascadia Code', monospace" font-size="13" fill="#b4f079" text-anchor="middle" dominant-baseline="central" letter-spacing="0.12em">ORDER TRACKER</text>
<rect x="264" y="417" width="200" height="40" rx="12" fill="url(#dotgrid)" stroke="#b4f079" stroke-width="1.5"/><rect x="288" y="425.9" width="152" height="22.2" fill="#000000" rx="2"/><text x="364" y="437" font-family="'JetBrains Mono', 'Fira Code', 'SF Mono', 'Cascadia Code', monospace" font-size="13" fill="#b4f079" text-anchor="middle" dominant-baseline="central" letter-spacing="0.12em">WAREHOUSE SERVICE</text>
<rect x="1177" y="574" width="218" height="40" rx="12" fill="url(#dotgrid)" stroke="#b4f079" stroke-width="1.5"/><rect x="1202" y="582.9" width="168" height="22.2" fill="#000000" rx="2"/><text x="1286" y="594" font-family="'JetBrains Mono', 'Fira Code', 'SF Mono', 'Cascadia Code', monospace" font-size="13" fill="#b4f079" text-anchor="middle" dominant-baseline="central" letter-spacing="0.12em">SHIPPING CALCULATOR</text>
<rect x="605" y="427" width="172" height="20" fill="url(#crosshatch)" stroke="none"/><line x1="605" y1="427" x2="605" y2="447" stroke="#b4f079" stroke-width="1.5"/><line x1="777" y1="427" x2="777" y2="447" stroke="#b4f079" stroke-width="1.5"/><ellipse cx="691" cy="427" rx="86" ry="10" fill="url(#crosshatch)" stroke="#b4f079" stroke-width="1.5"/><path d="M605,447 A86,10 0 0,0 777,447" fill="url(#crosshatch)" stroke="#b4f079" stroke-width="1.5"/><rect x="627" y="425.9" width="128" height="22.2" fill="#000000" rx="2"/><text x="691" y="437" font-family="'JetBrains Mono', 'Fira Code', 'SF Mono', 'Cascadia Code', monospace" font-size="13" fill="#b4f079" text-anchor="middle" dominant-baseline="central" letter-spacing="0.12em">FULFILLMENT DB</text>
<rect x="1544.2" y="404" width="153" height="82" rx="12" fill="none" stroke="#b4f079" stroke-width="2"/><rect x="1549.2" y="409" width="143" height="72" rx="8" fill="url(#hero)" stroke="#b4f079" stroke-width="1"/><rect x="1564.7" y="425.9" width="112" height="22.2" fill="#000000" rx="2"/><text x="1620.7" y="437" font-family="'JetBrains Mono', 'Fira Code', 'SF Mono', 'Cascadia Code', monospace" font-size="13" fill="#b4f079" text-anchor="middle" dominant-baseline="central" letter-spacing="0.12em">SERVICE MESH</text><rect x="1592.7" y="445.6" width="56" height="22.799999999999997" fill="#000000" rx="2"/><text x="1620.7" y="457" font-family="'JetBrains Mono', 'Fira Code', 'SF Mono', 'Cascadia Code', monospace" font-size="12" fill="#b4f079" opacity="0.6" text-anchor="middle" dominant-baseline="central" letter-spacing="0.12em">Istio</text>
<rect x="1857.9" y="382" width="162" height="40" rx="12" fill="url(#dotgrid)" stroke="#b4f079" stroke-width="1.5"/><rect x="1878.9" y="390.9" width="120" height="22.2" fill="#000000" rx="2"/><text x="1938.9" y="402" font-family="'JetBrains Mono', 'Fira Code', 'SF Mono', 'Cascadia Code', monospace" font-size="13" fill="#b4f079" text-anchor="middle" dominant-baseline="central" letter-spacing="0.12em">CONFIG SERVER</text>
<rect x="1852.9" y="452" width="172" height="40" rx="12" fill="url(#dotgrid)" stroke="#b4f079" stroke-width="1.5"/><rect x="1874.9" y="460.9" width="128" height="22.2" fill="#000000" rx="2"/><text x="1938.9" y="472" font-family="'JetBrains Mono', 'Fira Code', 'SF Mono', 'Cascadia Code', monospace" font-size="13" fill="#b4f079" text-anchor="middle" dominant-baseline="central" letter-spacing="0.12em">SECRET MANAGER</text>
<rect x="1503.5" y="584" width="234.4" height="62" fill="url(#crosshatch)" stroke="none"/><line x1="1503.5" y1="584" x2="1503.5" y2="646" stroke="#b4f079" stroke-width="1.5"/><line x1="1737.9" y1="584" x2="1737.9" y2="646" stroke="#b4f079" stroke-width="1.5"/><ellipse cx="1620.7" cy="584" rx="117.2" ry="10" fill="url(#crosshatch)" stroke="#b4f079" stroke-width="1.5"/><path d="M1503.5,646 A117.2,10 0 0,0 1737.9,646" fill="url(#crosshatch)" stroke="#b4f079" stroke-width="1.5"/><rect x="1536.7" y="595.9" width="168" height="22.2" fill="#000000" rx="2"/><text x="1620.7" y="607" font-family="'JetBrains Mono', 'Fira Code', 'SF Mono', 'Cascadia Code', monospace" font-size="13" fill="#b4f079" text-anchor="middle" dominant-baseline="central" letter-spacing="0.12em">OBSERVABILITY STACK</text><rect x="1504.7" y="615.6" width="232" height="22.799999999999997" fill="#000000" rx="2"/><text x="1620.7" y="627" font-family="'JetBrains Mono', 'Fira Code', 'SF Mono', 'Cascadia Code', monospace" font-size="12" fill="#b4f079" opacity="0.6" text-anchor="middle" dominant-baseline="central" letter-spacing="0.12em">Prometheus + Grafana + Loki</text>
<text x="1115.6944444444443" y="358.20785617657594" font-family="'JetBrains Mono', 'Fira Code', 'SF Mono', 'Cascadia Code', monospace" font-size="12" fill="#b4f079" opacity="0.85" text-anchor="middle">Lookup billing address</text>
<text x="1104" y="528.7033989458965" font-family="'JetBrains Mono', 'Fira Code', 'SF Mono', 'Cascadia Code', monospace" font-size="12" fill="#b4f079" opacity="0.85" text-anchor="middle">Get shipping cost</text>
<text x="988.5" y="308" font-family="'JetBrains Mono', 'Fira Code', 'SF Mono', 'Cascadia Code', monospace" font-size="12" fill="#b4f079" opacity="0.85" text-anchor="middle">Get current price</text>
<text x="1139.6" y="394.20785617657594" font-family="'JetBrains Mono', 'Fira Code', 'SF Mono', 'Cascadia Code', monospace" font-size="12" fill="#b4f079" opacity="0.85" text-anchor="middle">Personalization</text>
<text x="721.25" y="421" font-family="'JetBrains Mono', 'Fira Code', 'SF Mono', 'Cascadia Code', monospace" font-size="12" fill="#b4f079" opacity="0.85" text-anchor="middle">Notification preferences</text>
<text x="539.25" y="480" font-family="'JetBrains Mono', 'Fira Code', 'SF Mono', 'Cascadia Code', monospace" font-size="12" fill="#b4f079" opacity="0.85" text-anchor="middle">Availability check</text>
<text x="1443.85" y="362.4629518972214" font-family="'JetBrains Mono', 'Fira Code', 'SF Mono', 'Cascadia Code', monospace" font-size="12" fill="#b4f079" opacity="0.85" text-anchor="middle">Sidecar proxy</text>
<text x="1155.85" y="431" font-family="'JetBrains Mono', 'Fira Code', 'SF Mono', 'Cascadia Code', monospace" font-size="12" fill="#b4f079" opacity="0.85" text-anchor="middle">Sidecar proxy</text>
<text x="879.1" y="479" font-family="'JetBrains Mono', 'Fira Code', 'SF Mono', 'Cascadia Code', monospace" font-size="12" fill="#b4f079" opacity="0.85" text-anchor="middle">Sidecar proxy</text>
<text x="1777.5500000000002" y="412.80405405405406" font-family="'JetBrains Mono', 'Fira Code', 'SF Mono', 'Cascadia Code', monospace" font-size="12" fill="#b4f079" opacity="0.85" text-anchor="middle">Dynamic config</text>
<text x="1775.0500000000002" y="477.09695160276556" font-family="'JetBrains Mono', 'Fira Code', 'SF Mono', 'Cascadia Code', monospace" font-size="12" fill="#b4f079" opacity="0.85" text-anchor="middle">mTLS certs</text>
<text x="1440.6628158844765" y="425" font-family="'JetBrains Mono', 'Fira Code', 'SF Mono', 'Cascadia Code', monospace" font-size="12" fill="#b4f079" opacity="0.85" text-anchor="middle">Telemetry</text>
<text x="1135.5" y="492.70339894589654" font-family="'JetBrains Mono', 'Fira Code', 'SF Mono', 'Cascadia Code', monospace" font-size="12" fill="#b4f079" opacity="0.85" text-anchor="middle">Telemetry</text>
<text x="858.75" y="546.9317066612892" font-family="'JetBrains Mono', 'Fira Code', 'SF Mono', 'Cascadia Code', monospace" font-size="12" fill="#b4f079" opacity="0.85" text-anchor="middle">Telemetry</text>
<text x="1250.1136363636365" y="559" font-family="'JetBrains Mono', 'Fira Code', 'SF Mono', 'Cascadia Code', monospace" font-size="12" fill="#b4f079" opacity="0.85" text-anchor="middle">Telemetry</text>
<text x="827" y="74" font-family="'Inter', 'Helvetica Neue', Arial, sans-serif" font-size="14" fill="#ffffff" font-weight="700">6 cross-team API calls</text><text x="827" y="92" font-family="'JetBrains Mono', 'Fira Code', 'SF Mono', 'Cascadia Code', monospace" font-size="11" fill="#b4f079" opacity="0.7">create tight coupling</text><text x="827" y="110" font-family="'JetBrains Mono', 'Fira Code', 'SF Mono', 'Cascadia Code', monospace" font-size="11" fill="#b4f079" opacity="0.7">Candidate for async events</text>
<text x="1745.7" y="266" font-family="'Inter', 'Helvetica Neue', Arial, sans-serif" font-size="14" fill="#ffffff" font-weight="700">Service mesh handles:</text><text x="1745.7" y="284" font-family="'JetBrains Mono', 'Fira Code', 'SF Mono', 'Cascadia Code', monospace" font-size="11" fill="#b4f079" opacity="0.7">mTLS, retry, circuit break</text><text x="1745.7" y="302" font-family="'JetBrains Mono', 'Fira Code', 'SF Mono', 'Cascadia Code', monospace" font-size="11" fill="#b4f079" opacity="0.7">rate limiting, tracing</text>
<text x="1068.02" y="654" font-family="'Inter', 'Helvetica Neue', Arial, sans-serif" font-size="14" fill="#ffffff" font-weight="700">Shared DB anti-pattern</text><text x="1068.02" y="672" font-family="'JetBrains Mono', 'Fira Code', 'SF Mono', 'Cascadia Code', monospace" font-size="11" fill="#b4f079" opacity="0.7">avoided: each team</text><text x="1068.02" y="690" font-family="'JetBrains Mono', 'Fira Code', 'SF Mono', 'Cascadia Code', monospace" font-size="11" fill="#b4f079" opacity="0.7">owns its data store</text>
</g>
</svg>