<svg xmlns="http://www.w3.org/2000/svg" viewBox="0 0 2258.5 880" width="2258.5" height="880">
<defs>
  <pattern id="dotgrid" width="8" height="8" patternUnits="userSpaceOnUse">
    <rect width="8" height="8" fill="#000000"/>
    <circle cx="4" cy="4" r="0.8" fill="#b4f079" opacity="0.7"/>
  </pattern>
  <pattern id="crosshatch" width="8" height="8" patternUnits="userSpaceOnUse">
    <rect width="8" height="8" fill="#000000"/>
    <path d="M0 8L8 0M-1 1L1 -1M7 9L9 7" stroke="#b4f079" stroke-width="0.8" opacity="0.2"/>
  </pattern>
  <pattern id="hero" width="6" height="6" patternUnits="userSpaceOnUse">
    <rect width="6" height="6" fill="#3d6b23"/>
    <circle cx="3" cy="3" r="0.6" fill="#5a9a35" opacity="0.5"/>
  </pattern>
  <marker id="arrowhead" markerWidth="10" markerHeight="7" refX="9" refY="3.5" orient="auto" markerUnits="strokeWidth">
    <polygon points="0 0, 10 3.5, 0 7" fill="#b4f079"/>
  </marker>
  <marker id="arrowhead-reverse" markerWidth="10" markerHeight="7" refX="1" refY="3.5" orient="auto" markerUnits="strokeWidth">
    <polygon points="10 0, 0 3.5, 10 7" fill="#b4f079"/>
  </marker>
</defs>
<rect width="100%" height="100%" fill="#000000"/>
<g class="diagram">
<text x="30" y="34" font-family="'Inter', 'Helvetica Neue', Arial, sans-serif" font-size="15" fill="#ffffff" font-weight="700">Event mesh: sync, async, and bidirectional communication patterns</text>
<rect x="210.4" y="406" width="782" height="214" rx="12" fill="url(#dotgrid)" stroke="#b4f079" stroke-width="1" opacity="0.35"/><rect x="210.4" y="406" width="782" height="214" rx="12" fill="none" stroke="#b4f079" stroke-width="1" opacity="0.5"/>
<rect x="1120.4" y="385" width="555.5" height="335" rx="12" fill="url(#hero)" stroke="#b4f079" stroke-width="1" opacity="0.35"/><rect x="1120.4" y="385" width="555.5" height="335" rx="12" fill="none" stroke="#b4f079" stroke-width="1" opacity="0.5"/>
<rect x="1429.9" y="176" width="260" height="674" rx="12" fill="url(#dotgrid)" stroke="#b4f079" stroke-width="1" opacity="0.35"/><rect x="1429.9" y="176" width="260" height="674" rx="12" fill="none" stroke="#b4f079" stroke-width="1" opacity="0.5"/>
<line x1="340.40000000000003" y1="321.0295857988166" x2="910.4" y2="403.66272189349115" stroke="#b4f079" stroke-width="1.5" marker-end="url(#arrowhead)"/>
<line x1="124.2" y1="420.9372338040798" x2="910.4" y2="417.4124635731899" stroke="#b4f079" stroke-width="1.5" marker-end="url(#arrowhead)"/>
<line x1="934.9076923076923" y1="458" x2="928.3230769230769" y2="462" stroke="#b4f079" stroke-width="1.5" marker-end="url(#arrowhead)"/>
<polyline points="1094.4,389.7713004484305 1094.4,359 1492.3242424242426,359 1492.3242424242426,272" fill="none" stroke="#b4f079" stroke-width="1.5" marker-end="url(#arrowhead)"/>
<polyline points="976.4,482 976.4,466 1136.4,466 1136.4,482" fill="none" stroke="#b4f079" stroke-width="1.5" stroke-dasharray="6 4" marker-end="url(#arrowhead)"/>
<polyline points="426.4,572.5521885521886 426.4,530 1136.4,530 1136.4,491.27272727272725" fill="none" stroke="#b4f079" stroke-width="1.5" stroke-dasharray="6 4" marker-end="url(#arrowhead)"/>
<polyline points="416.9,510.7497194163861 416.9,530 1136.4,530 1136.4,484.90909090909093" fill="none" stroke="#b4f079" stroke-width="1.5" stroke-dasharray="6 4" marker-end="url(#arrowhead)"/>
<line x1="1278.454347826087" y1="441" x2="1530.1173913043478" y2="272" stroke="#b4f079" stroke-width="1.5" stroke-dasharray="6 4" marker-end="url(#arrowhead)"/>
<line x1="1298.4" y1="474.9051094890511" x2="1459.9" y2="460.75912408759126" stroke="#b4f079" stroke-width="1.5" stroke-dasharray="6 4" marker-end="url(#arrowhead)"/>
<polyline points="1259.696686746988,523 1259.696686746988,652 1539.267469879518,652 1539.267469879518,794" fill="none" stroke="#b4f079" stroke-width="1.5" stroke-dasharray="6 4" marker-end="url(#arrowhead)"/>
<line x1="1286.9173267326732" y1="523" x2="1525.9891089108912" y2="664" stroke="#b4f079" stroke-width="1.5" stroke-dasharray="6 4" marker-end="url(#arrowhead)"/>
<polyline points="416.9,511.9874913134121 416.9,514 997.4000000000001,514 997.4000000000001,499.07852675469076" fill="none" stroke="#b4f079" stroke-width="1.5" marker-start="url(#arrowhead-reverse)" marker-end="url(#arrowhead)"/>
<polyline points="928.4769230769231,462 928.4769230769231,470 1012.823076923077,470 1012.823076923077,411" fill="none" stroke="#b4f079" stroke-width="1.5" marker-start="url(#arrowhead-reverse)" marker-end="url(#arrowhead)"/>
<line x1="1298.4" y1="494.0613138686131" x2="1469.4" y2="519.5240875912409" stroke="#b4f079" stroke-width="1.5" marker-start="url(#arrowhead-reverse)" marker-end="url(#arrowhead)"/>
<line x1="1652.4538461538461" y1="272" x2="1775.9" y2="298.6755319148936" stroke="#b4f079" stroke-width="1.5" marker-end="url(#arrowhead)"/>
<line x1="1604.462962962963" y1="432" x2="1775.9" y2="355.0585106382979" stroke="#b4f079" stroke-width="1.5" marker-end="url(#arrowhead)"/>
<polyline points="1254.2569553805774,441 1452.9,441 1452.9,142 1523.0430446194227,142" fill="none" stroke="#b4f079" stroke-width="1.5" marker-end="url(#arrowhead)"/>
<line x1="426.4" y1="566.0738137082601" x2="814.4" y2="496.5202108963093" stroke="#b4f079" stroke-width="1.5" marker-end="url(#arrowhead)"/>
<line x1="416.9" y1="508.9103690685413" x2="814.4" y2="486.5553602811951" stroke="#b4f079" stroke-width="1.5" marker-end="url(#arrowhead)"/>
<rect x="549.4000000000001" y="336.34615384615387" width="152" height="22" rx="4" fill="#000000"/>
<rect x="476.29999999999995" y="451" width="82" height="22" rx="4" fill="#000000"/>
<rect x="911.6153846153845" y="430.40000000000003" width="40" height="22" rx="4" fill="#000000"/>
<rect x="1252.3621212121213" y="293.3008688340807" width="82" height="22" rx="4" fill="#000000"/>
<rect x="990.9000000000001" y="439.40000000000003" width="131" height="22" rx="4" fill="#000000"/>
<rect x="708.9000000000001" y="544.2864509117115" width="145" height="22" rx="4" fill="#000000"/>
<rect x="697.1500000000001" y="511.9942105987682" width="159" height="22" rx="4" fill="#000000"/>
<rect x="1338.7858695652176" y="361.4714125560538" width="131" height="22" rx="4" fill="#000000"/>
<rect x="1320.65" y="393.6419562780269" width="117" height="22" rx="4" fill="#000000"/>
<rect x="1326.9820783132532" y="617.5" width="145" height="22" rx="4" fill="#000000"/>
<rect x="1347.9532178217823" y="582.5" width="117" height="22" rx="4" fill="#000000"/>
<rect x="645.1500000000001" y="470.25457454367233" width="124" height="22" rx="4" fill="#000000"/>
<rect x="870.1500000000001" y="475.40000000000003" width="201" height="22" rx="4" fill="#000000"/>
<rect x="1318.4" y="525.792700729927" width="131" height="22" rx="4" fill="#000000"/>
<rect x="1666.1769230769232" y="259.3377659574468" width="96" height="22" rx="4" fill="#000000"/>
<rect x="1642.1814814814816" y="397.52925531914894" width="96" height="22" rx="4" fill="#000000"/>
<rect x="1319.65" y="325.4714125560538" width="138" height="22" rx="4" fill="#000000"/>
<rect x="568.9" y="539.3847565161244" width="103" height="22" rx="4" fill="#000000"/>
<rect x="564.15" y="503.3847565161244" width="103" height="22" rx="4" fill="#000000"/>
<rect x="516.4" y="419" width="170" height="24" fill="#000000" rx="3"/><text x="601.4" y="432" font-family="'Inter', 'Helvetica Neue', Arial, sans-serif" font-size="14" fill="#ffffff" opacity="0.9" text-anchor="middle">Command Side (Write)</text>
<rect x="1335.65" y="398" width="125" height="24" fill="#000000" rx="3"/><text x="1398.15" y="411" font-family="'Inter', 'Helvetica Neue', Arial, sans-serif" font-size="14" fill="#ffffff" opacity="0.9" text-anchor="middle">Event Backbone</text>
<rect x="1486.15" y="189" width="147.5" height="24" fill="#000000" rx="3"/><text x="1559.9" y="202" font-family="'Inter', 'Helvetica Neue', Arial, sans-serif" font-size="14" fill="#ffffff" opacity="0.9" text-anchor="middle">Query Side (Read)</text>
<circle cx="326.40000000000003" cy="297" r="7" fill="none" stroke="#b4f079" stroke-width="1.5"/><line x1="326.40000000000003" y1="304" x2="326.40000000000003" y2="326" stroke="#b4f079" stroke-width="1.5"/><line x1="312.40000000000003" y1="310" x2="340.40000000000003" y2="310" stroke="#b4f079" stroke-width="1.5"/><line x1="326.40000000000003" y1="326" x2="316.40000000000003" y2="342" stroke="#b4f079" stroke-width="1.5"/><line x1="326.40000000000003" y1="326" x2="336.40000000000003" y2="342" stroke="#b4f079" stroke-width="1.5"/><text x="326.40000000000003" y="356" font-family="'JetBrains Mono', 'Fira Code', 'SF Mono', 'Cascadia Code', monospace" font-size="13" fill="#b4f079" text-anchor="middle" letter-spacing="0.12em">MOBILE APP</text>
<circle cx="110.2" cy="399" r="7" fill="none" stroke="#b4f079" stroke-width="1.5"/><line x1="110.2" y1="406" x2="110.2" y2="428" stroke="#b4f079" stroke-width="1.5"/><line x1="96.2" y1="412" x2="124.2" y2="412" stroke="#b4f079" stroke-width="1.5"/><line x1="110.2" y1="428" x2="100.2" y2="444" stroke="#b4f079" stroke-width="1.5"/><line x1="110.2" y1="428" x2="120.2" y2="444" stroke="#b4f079" stroke-width="1.5"/><text x="110.2" y="458" font-family="'JetBrains Mono', 'Fira Code', 'SF Mono', 'Cascadia Code', monospace" font-size="13" fill="#b4f079" text-anchor="middle" letter-spacing="0.12em">ADMIN DASHBOARD</text>
<rect x="910.4" y="376" width="184" height="82" rx="12" fill="none" stroke="#b4f079" stroke-width="2"/><rect x="915.4" y="381" width="174" height="72" rx="8" fill="url(#hero)" stroke="#b4f079" stroke-width="1"/><rect x="950.4" y="397.9" width="104" height="22.2" fill="#000000" rx="2"/><text x="1002.4" y="409" font-family="'JetBrains Mono', 'Fira Code', 'SF Mono', 'Cascadia Code', monospace" font-size="13" fill="#b4f079" text-anchor="middle" dominant-baseline="central" letter-spacing="0.12em">BFF GATEWAY</text><rect x="914.4" y="417.6" width="176" height="22.799999999999997" fill="#000000" rx="2"/><text x="1002.4" y="429" font-family="'JetBrains Mono', 'Fira Code', 'SF Mono', 'Cascadia Code', monospace" font-size="12" fill="#b4f079" opacity="0.6" text-anchor="middle" dominant-baseline="central" letter-spacing="0.12em">Backend for Frontend</text>
<rect x="1485.9" y="70" width="148" height="62" fill="url(#crosshatch)" stroke="none"/><line x1="1485.9" y1="70" x2="1485.9" y2="132" stroke="#b4f079" stroke-width="1.5"/><line x1="1633.9" y1="70" x2="1633.9" y2="132" stroke="#b4f079" stroke-width="1.5"/><ellipse cx="1559.9" cy="70" rx="74" ry="10" fill="url(#crosshatch)" stroke="#b4f079" stroke-width="1.5"/><path d="M1485.9,132 A74,10 0 0,0 1633.9,132" fill="url(#crosshatch)" stroke="#b4f079" stroke-width="1.5"/><rect x="1507.9" y="81.9" width="104" height="22.2" fill="#000000" rx="2"/><text x="1559.9" y="93" font-family="'JetBrains Mono', 'Fira Code', 'SF Mono', 'Cascadia Code', monospace" font-size="13" fill="#b4f079" text-anchor="middle" dominant-baseline="central" letter-spacing="0.12em">EVENT STORE</text><rect x="1491.9" y="101.6" width="136" height="22.799999999999997" fill="#000000" rx="2"/><text x="1559.9" y="113" font-family="'JetBrains Mono', 'Fira Code', 'SF Mono', 'Cascadia Code', monospace" font-size="12" fill="#b4f079" opacity="0.6" text-anchor="middle" dominant-baseline="central" letter-spacing="0.12em">Append-only log</text>
<rect x="1775.9" y="286" width="169.6" height="62" fill="url(#crosshatch)" stroke="none"/><line x1="1775.9" y1="286" x2="1775.9" y2="348" stroke="#b4f079" stroke-width="1.5"/><line x1="1945.5" y1="286" x2="1945.5" y2="348" stroke="#b4f079" stroke-width="1.5"/><ellipse cx="1860.7" cy="286" rx="84.8" ry="10" fill="url(#crosshatch)" stroke="#b4f079" stroke-width="1.5"/><path d="M1775.9,348 A84.8,10 0 0,0 1945.5,348" fill="url(#crosshatch)" stroke="#b4f079" stroke-width="1.5"/><rect x="1824.7" y="297.9" width="72" height="22.2" fill="#000000" rx="2"/><text x="1860.7" y="309" font-family="'JetBrains Mono', 'Fira Code', 'SF Mono', 'Cascadia Code', monospace" font-size="13" fill="#b4f079" text-anchor="middle" dominant-baseline="central" letter-spacing="0.12em">READ DB</text><rect x="1780.7" y="317.6" width="160" height="22.799999999999997" fill="#000000" rx="2"/><text x="1860.7" y="329" font-family="'JetBrains Mono', 'Fira Code', 'SF Mono', 'Cascadia Code', monospace" font-size="12" fill="#b4f079" opacity="0.6" text-anchor="middle" dominant-baseline="central" letter-spacing="0.12em">Denormalized views</text>
<rect x="997.4" y="478" width="97" height="40" rx="12" fill="#000000" stroke="#b4f079" stroke-width="1.5"/><text x="1045.9" y="498" font-family="'JetBrains Mono', 'Fira Code', 'SF Mono', 'Cascadia Code', monospace" font-size="13" fill="#b4f079" text-anchor="middle" dominant-baseline="central" letter-spacing="0.12em">STRIPE</text>
<rect x="997.4" y="371" width="97" height="40" rx="12" fill="#000000" stroke="#b4f079" stroke-width="1.5"/><text x="1045.9" y="391" font-family="'JetBrains Mono', 'Fira Code', 'SF Mono', 'Cascadia Code', monospace" font-size="13" fill="#b4f079" text-anchor="middle" dominant-baseline="central" letter-spacing="0.12em">TWILIO</text>
<rect x="814.4" y="462" width="162" height="40" rx="12" fill="url(#dotgrid)" stroke="#b4f079" stroke-width="1.5"/><rect x="835.4" y="470.9" width="120" height="22.2" fill="#000000" rx="2"/><text x="895.4" y="482" font-family="'JetBrains Mono', 'Fira Code', 'SF Mono', 'Cascadia Code', monospace" font-size="13" fill="#b4f079" text-anchor="middle" dominant-baseline="central" letter-spacing="0.12em">ORDER COMMAND</text>
<rect x="226.4" y="564" width="200" height="40" rx="12" fill="url(#dotgrid)" stroke="#b4f079" stroke-width="1.5"/><rect x="250.39999999999998" y="572.9" width="152" height="22.2" fill="#000000" rx="2"/><text x="326.4" y="584" font-family="'JetBrains Mono', 'Fira Code', 'SF Mono', 'Cascadia Code', monospace" font-size="13" fill="#b4f079" text-anchor="middle" dominant-baseline="central" letter-spacing="0.12em">INVENTORY COMMAND</text>
<rect x="235.9" y="494" width="181" height="40" rx="12" fill="url(#dotgrid)" stroke="#b4f079" stroke-width="1.5"/><rect x="258.4" y="502.9" width="136" height="22.2" fill="#000000" rx="2"/><text x="326.4" y="514" font-family="'JetBrains Mono', 'Fira Code', 'SF Mono', 'Cascadia Code', monospace" font-size="13" fill="#b4f079" text-anchor="middle" dominant-baseline="central" letter-spacing="0.12em">PAYMENT COMMAND</text>
<rect x="1136.4" y="441" width="162" height="82" rx="12" fill="url(#hero)" stroke="#b4f079" stroke-width="1.5"/><rect x="1157.4" y="462.9" width="120" height="22.2" fill="#000000" rx="2"/><text x="1217.4" y="474" font-family="'JetBrains Mono', 'Fira Code', 'SF Mono', 'Cascadia Code', monospace" font-size="13" fill="#b4f079" text-anchor="middle" dominant-baseline="central" letter-spacing="0.12em">KAFKA CLUSTER</text><rect x="1149.4" y="482.6" width="136" height="22.799999999999997" fill="#000000" rx="2"/><text x="1217.4" y="494" font-family="'JetBrains Mono', 'Fira Code', 'SF Mono', 'Cascadia Code', monospace" font-size="12" fill="#b4f079" opacity="0.6" text-anchor="middle" dominant-baseline="central" letter-spacing="0.12em">3 brokers, RF=3</text>
<rect x="1469.4" y="492" width="181" height="82" rx="12" fill="url(#dotgrid)" stroke="#b4f079" stroke-width="1.5"/><rect x="1491.9" y="513.9" width="136" height="22.2" fill="#000000" rx="2"/><text x="1559.9" y="525" font-family="'JetBrains Mono', 'Fira Code', 'SF Mono', 'Cascadia Code', monospace" font-size="13" fill="#b4f079" text-anchor="middle" dominant-baseline="central" letter-spacing="0.12em">SCHEMA REGISTRY</text><rect x="1503.9" y="533.6" width="112" height="22.799999999999997" fill="#000000" rx="2"/><text x="1559.9" y="545" font-family="'JetBrains Mono', 'Fira Code', 'SF Mono', 'Cascadia Code', monospace" font-size="12" fill="#b4f079" opacity="0.6" text-anchor="middle" dominant-baseline="central" letter-spacing="0.12em">Avro schemas</text>
<rect x="1459.9" y="664" width="200" height="40" rx="12" fill="url(#crosshatch)" stroke="#b4f079" stroke-width="1.5"/><rect x="1483.9" y="672.9" width="152" height="22.2" fill="#000000" rx="2"/><text x="1559.9" y="684" font-family="'JetBrains Mono', 'Fira Code', 'SF Mono', 'Cascadia Code', monospace" font-size="13" fill="#b4f079" text-anchor="middle" dominant-baseline="central" letter-spacing="0.12em">DEAD LETTER TOPIC</text>
<rect x="1464.9" y="232" width="190" height="40" rx="12" fill="url(#dotgrid)" stroke="#b4f079" stroke-width="1.5"/><rect x="1487.9" y="240.9" width="144" height="22.2" fill="#000000" rx="2"/><text x="1559.9" y="252" font-family="'JetBrains Mono', 'Fira Code', 'SF Mono', 'Cascadia Code', monospace" font-size="13" fill="#b4f079" text-anchor="middle" dominant-baseline="central" letter-spacing="0.12em">ORDER PROJECTION</text>
<rect x="1459.9" y="432" width="200" height="40" rx="12" fill="url(#dotgrid)" stroke="#b4f079" stroke-width="1.5"/><rect x="1483.9" y="440.9" width="152" height="22.2" fill="#000000" rx="2"/><text x="1559.9" y="452" font-family="'JetBrains Mono', 'Fira Code', 'SF Mono', 'Cascadia Code', monospace" font-size="13" fill="#b4f079" text-anchor="middle" dominant-baseline="central" letter-spacing="0.12em">SEARCH PROJECTION</text>
<rect x="1445.9" y="794" width="228" height="40" rx="12" fill="url(#dotgrid)" stroke="#b4f079" stroke-width="1.5"/><rect x="1471.9" y="802.9" width="176" height="22.2" fill="#000000" rx="2"/><text x="1559.9" y="814" font-family="'JetBrains Mono', 'Fira Code', 'SF Mono', 'Cascadia Code', monospace" font-size="13" fill="#b4f079" text-anchor="middle" dominant-baseline="central" letter-spacing="0.12em">ANALYTICS PROJECTION</text>
<text x="625.4000000000001" y="351.34615384615387" font-family="'JetBrains Mono', 'Fira Code', 'SF Mono', 'Cascadia Code', monospace" font-size="12" fill="#b4f079" opacity="0.85" text-anchor="middle">GraphQL subscription</text>
<text x="517.3" y="466" font-family="'JetBrains Mono', 'Fira Code', 'SF Mono', 'Cascadia Code', monospace" font-size="12" fill="#b4f079" opacity="0.85" text-anchor="middle">REST + SSE</text>
<text x="931.6153846153845" y="445.40000000000003" font-family="'JetBrains Mono', 'Fira Code', 'SF Mono', 'Cascadia Code', monospace" font-size="12" fill="#b4f079" opacity="0.85" text-anchor="middle">gRPC</text>
<text x="1293.3621212121213" y="308.3008688340807" font-family="'JetBrains Mono', 'Fira Code', 'SF Mono', 'Cascadia Code', monospace" font-size="12" fill="#b4f079" opacity="0.85" text-anchor="middle">gRPC query</text>
<text x="1056.4" y="454.40000000000003" font-family="'JetBrains Mono', 'Fira Code', 'SF Mono', 'Cascadia Code', monospace" font-size="12" fill="#b4f079" opacity="0.85" text-anchor="middle">OrderPlaced event</text>
<text x="781.4000000000001" y="559.2864509117115" font-family="'JetBrains Mono', 'Fira Code', 'SF Mono', 'Cascadia Code', monospace" font-size="12" fill="#b4f079" opacity="0.85" text-anchor="middle">StockReserved event</text>
<text x="776.6500000000001" y="526.9942105987682" font-family="'JetBrains Mono', 'Fira Code', 'SF Mono', 'Cascadia Code', monospace" font-size="12" fill="#b4f079" opacity="0.85" text-anchor="middle">PaymentCaptured event</text>
<text x="1404.2858695652176" y="376.4714125560538" font-family="'JetBrains Mono', 'Fira Code', 'SF Mono', 'Cascadia Code', monospace" font-size="12" fill="#b4f079" opacity="0.85" text-anchor="middle">Consume + project</text>
<text x="1379.15" y="408.6419562780269" font-family="'JetBrains Mono', 'Fira Code', 'SF Mono', 'Cascadia Code', monospace" font-size="12" fill="#b4f079" opacity="0.85" text-anchor="middle">Consume + index</text>
<text x="1399.4820783132532" y="632.5" font-family="'JetBrains Mono', 'Fira Code', 'SF Mono', 'Cascadia Code', monospace" font-size="12" fill="#b4f079" opacity="0.85" text-anchor="middle">Consume + aggregate</text>
<text x="1406.4532178217823" y="597.5" font-family="'JetBrains Mono', 'Fira Code', 'SF Mono', 'Cascadia Code', monospace" font-size="12" fill="#b4f079" opacity="0.85" text-anchor="middle">Poison messages</text>
<text x="707.1500000000001" y="485.25457454367233" font-family="'JetBrains Mono', 'Fira Code', 'SF Mono', 'Cascadia Code', monospace" font-size="12" fill="#b4f079" opacity="0.85" text-anchor="middle">Charge + webhook</text>
<text x="970.6500000000001" y="490.40000000000003" font-family="'JetBrains Mono', 'Fira Code', 'SF Mono', 'Cascadia Code', monospace" font-size="12" fill="#b4f079" opacity="0.85" text-anchor="middle">Send SMS + delivery receipt</text>
<text x="1383.9" y="540.792700729927" font-family="'JetBrains Mono', 'Fira Code', 'SF Mono', 'Cascadia Code', monospace" font-size="12" fill="#b4f079" opacity="0.85" text-anchor="middle">Validate + evolve</text>
<text x="1714.1769230769232" y="274.3377659574468" font-family="'JetBrains Mono', 'Fira Code', 'SF Mono', 'Cascadia Code', monospace" font-size="12" fill="#b4f079" opacity="0.85" text-anchor="middle">Upsert views</text>
<text x="1690.1814814814816" y="412.52925531914894" font-family="'JetBrains Mono', 'Fira Code', 'SF Mono', 'Cascadia Code', monospace" font-size="12" fill="#b4f079" opacity="0.85" text-anchor="middle">Update index</text>
<text x="1388.65" y="340.4714125560538" font-family="'JetBrains Mono', 'Fira Code', 'SF Mono', 'Cascadia Code', monospace" font-size="12" fill="#b4f079" opacity="0.85" text-anchor="middle">Persist all events</text>
<text x="620.4" y="554.3847565161244" font-family="'JetBrains Mono', 'Fira Code', 'SF Mono', 'Cascadia Code', monospace" font-size="12" fill="#b4f079" opacity="0.85" text-anchor="middle">Saga callback</text>
<text x="615.65" y="518.3847565161244" font-family="'JetBrains Mono', 'Fira Code', 'SF Mono', 'Cascadia Code', monospace" font-size="12" fill="#b4f079" opacity="0.85" text-anchor="middle">Saga callback</text>
<text x="1969.5" y="431" font-family="'Inter', 'Helvetica Neue', Arial, sans-serif" font-size="14" fill="#ffffff" font-weight="700">Solid: synchronous RPC</text><text x="1969.5" y="449" font-family="'JetBrains Mono', 'Fira Code', 'SF Mono', 'Cascadia Code', monospace" font-size="11" fill="#b4f079" opacity="0.7">Dashed: async events</text><text x="1969.5" y="467" font-family="'JetBrains Mono', 'Fira Code', 'SF Mono', 'Cascadia Code', monospace" font-size="11" fill="#b4f079" opacity="0.7">Bidirectional: request + callback</text>
<text x="1136.4" y="744" font-family="'Inter', 'Helvetica Neue', Arial, sans-serif" font-size="14" fill="#ffffff" font-weight="700">At-least-once delivery</text><text x="1136.4" y="762" font-family="'JetBrains Mono', 'Fira Code', 'SF Mono', 'Cascadia Code', monospace" font-size="11" fill="#b4f079" opacity="0.7">Consumer group rebalancing</text><text x="1136.4" y="780" font-family="'JetBrains Mono', 'Fira Code', 'SF Mono', 'Cascadia Code', monospace" font-size="11" fill="#b4f079" opacity="0.7">Exactly-once via transactions</text>
<text x="1670.9" y="172" font-family="'Inter', 'Helvetica Neue', Arial, sans-serif" font-size="14" fill="#ffffff" font-weight="700">CQRS boundary:</text><text x="1670.9" y="190" font-family="'JetBrains Mono', 'Fira Code', 'SF Mono', 'Cascadia Code', monospace" font-size="11" fill="#b4f079" opacity="0.7">write side never queries</text><text x="1670.9" y="208" font-family="'JetBrains Mono', 'Fira Code', 'SF Mono', 'Cascadia Code', monospace" font-size="11" fill="#b4f079" opacity="0.7">read side never mutates</text>
</g>
</svg>