<svg xmlns="http://www.w3.org/2000/svg" viewBox="0 0 2252.5 874" width="2252.5" height="874">
<defs>
  <pattern id="dotgrid" width="8" height="8" patternUnits="userSpaceOnUse">
    <rect width="8" height="8" fill="#000000"/>
    <circle cx="4" cy="4" r="0.8" fill="#b4f079" opacity="0.7"/>
  </pattern>
  <pattern id="crosshatch" width="8" height="8" patternUnits="userSpaceOnUse">
    <rect width="8" height="8" fill="#000000"/>
    <path d="M0 8L8 0M-1 1L1 -1M7 9L9 7" stroke="#b4f079" stroke-width="0.8" opacity="0.2"/>
  </pattern>
  <pattern id="hero" width="6" height="6" patternUnits="userSpaceOnUse">
    <rect width="6" height="6" fill="#3d6b23"/>
    <circle cx="3" cy="3" r="0.6" fill="#5a9a35" opacity="0.5"/>
  </pattern>
  <marker id="arrowhead" markerWidth="10" markerHeight="7" refX="9" refY="3.5" orient="auto" markerUnits="strokeWidth">
    <polygon points="0 0, 10 3.5, 0 7" fill="#b4f079"/>
  </marker>
  <marker id="arrowhead-reverse" markerWidth="10" markerHeight="7" refX="1" refY="3.5" orient="auto" markerUnits="strokeWidth">
    <polygon points="10 0, 0 3.5, 10 7" fill="#b4f079"/>
  </marker>
</defs>
<rect width="100%" height="100%" fill="#000000"/>
<g class="diagram">
<text x="30" y="34" font-family="'Inter', 'Helvetica Neue', Arial, sans-serif" font-size="15" fill="#ffffff" font-weight="700">Event mesh: sync, async, and bidirectional communication patterns</text>
<rect x="210.4" y="388" width="782" height="232" rx="12" fill="url(#dotgrid)" stroke="#b4f079" stroke-width="1" opacity="0.35"/><rect x="210.4" y="388" width="782" height="232" rx="12" fill="none" stroke="#b4f079" stroke-width="1" opacity="0.5"/>
<rect x="1120.4" y="364" width="555.5" height="356" rx="12" fill="url(#hero)" stroke="#b4f079" stroke-width="1" opacity="0.35"/><rect x="1120.4" y="364" width="555.5" height="356" rx="12" fill="none" stroke="#b4f079" stroke-width="1" opacity="0.5"/>
<rect x="1691.9" y="176" width="260" height="674" rx="12" fill="url(#dotgrid)" stroke="#b4f079" stroke-width="1" opacity="0.35"/><rect x="1691.9" y="176" width="260" height="674" rx="12" fill="none" stroke="#b4f079" stroke-width="1" opacity="0.5"/>
<line x1="340.40000000000003" y1="321.0295857988166" x2="910.4" y2="406" stroke="#b4f079" stroke-width="1.5" marker-end="url(#arrowhead)"/>
<line x1="124.2" y1="420.9372338040798" x2="910.4" y2="428" stroke="#b4f079" stroke-width="1.5" marker-end="url(#arrowhead)"/>
<line x1="934.9076923076923" y1="458" x2="957.9538461538461" y2="444" stroke="#b4f079" stroke-width="1.5" marker-end="url(#arrowhead)"/>
<polyline points="1094.4,398.4765100671141 1094.4,402 1726.9,402 1726.9,248" fill="none" stroke="#b4f079" stroke-width="1.5" marker-end="url(#arrowhead)"/>
<polyline points="976.4,482 976.4,470 1136.4,470 1136.4,455" fill="none" stroke="#b4f079" stroke-width="1.5" stroke-dasharray="6 4" marker-end="url(#arrowhead)"/>
<polyline points="426.4,572.5521885521886 426.4,530 1136.4,530 1136.4,509" fill="none" stroke="#b4f079" stroke-width="1.5" stroke-dasharray="6 4" marker-end="url(#arrowhead)"/>
<polyline points="416.9,510.7497194163861 416.9,530 1136.4,530 1136.4,482" fill="none" stroke="#b4f079" stroke-width="1.5" stroke-dasharray="6 4" marker-end="url(#arrowhead)"/>
<line x1="1298.4" y1="451.18114143920593" x2="1726.9" y2="256" stroke="#b4f079" stroke-width="1.5" stroke-dasharray="6 4" marker-end="url(#arrowhead)"/>
<line x1="1298.4" y1="475.16625310173697" x2="1721.9" y2="439.43672456575683" stroke="#b4f079" stroke-width="1.5" stroke-dasharray="6 4" marker-end="url(#arrowhead)"/>
<polyline points="1298.4,526.4863523573201 1298.4,652 1785.4843373493977,652 1785.4843373493977,794" fill="none" stroke="#b4f079" stroke-width="1.5" stroke-dasharray="6 4" marker-end="url(#arrowhead)"/>
<line x1="1298.4" y1="529.7722627737227" x2="1525.9891089108912" y2="664" stroke="#b4f079" stroke-width="1.5" stroke-dasharray="6 4" marker-end="url(#arrowhead)"/>
<polyline points="416.9,511.9874913134121 416.9,532 997.4000000000001,532 997.4000000000001,499.07852675469076" fill="none" stroke="#b4f079" stroke-width="1.5" marker-start="url(#arrowhead-reverse)" marker-end="url(#arrowhead)"/>
<polyline points="946.4625,444 946.4625,470 1019.0250000000001,470 1019.0250000000001,390" fill="none" stroke="#b4f079" stroke-width="1.5" marker-start="url(#arrowhead-reverse)" marker-end="url(#arrowhead)"/>
<line x1="1298.4" y1="494.0613138686131" x2="1469.4" y2="519.5240875912409" stroke="#b4f079" stroke-width="1.5" marker-start="url(#arrowhead-reverse)" marker-end="url(#arrowhead)"/>
<line x1="1833.8384615384616" y1="272" x2="1836.226153846154" y2="276" stroke="#b4f079" stroke-width="1.5" marker-end="url(#arrowhead)"/>
<line x1="1828.7070175438598" y1="411" x2="1846.7456140350878" y2="358" stroke="#b4f079" stroke-width="1.5" marker-end="url(#arrowhead)"/>
<line x1="1273.134908136483" y1="420" x2="1523.0430446194227" y2="142" stroke="#b4f079" stroke-width="1.5" marker-end="url(#arrowhead)"/>
<line x1="426.4" y1="566.0738137082601" x2="814.4" y2="492" stroke="#b4f079" stroke-width="1.5" marker-end="url(#arrowhead)"/>
<line x1="416.9" y1="508.9103690685413" x2="814.4" y2="472" stroke="#b4f079" stroke-width="1.5" marker-end="url(#arrowhead)"/>
<rect x="549.4000000000001" y="337.5147928994083" width="152" height="22" rx="4" fill="#000000"/>
<rect x="476.29999999999995" y="433" width="82" height="22" rx="4" fill="#000000"/>
<rect x="926.4307692307692" y="387.6" width="40" height="22" rx="4" fill="#000000"/>
<rect x="1369.65" y="290.8691275167785" width="82" height="22" rx="4" fill="#000000"/>
<rect x="990.9000000000001" y="448.40000000000003" width="131" height="22" rx="4" fill="#000000"/>
<rect x="708.9000000000001" y="551.7992876120481" width="145" height="22" rx="4" fill="#000000"/>
<rect x="697.1500000000001" y="515.7992876120481" width="159" height="22" rx="4" fill="#000000"/>
<rect x="1447.15" y="359.68456375838923" width="131" height="22" rx="4" fill="#000000"/>
<rect x="1451.65" y="409" width="117" height="22" rx="4" fill="#000000"/>
<rect x="1469.442168674699" y="619.2431761786601" width="145" height="22" rx="4" fill="#000000"/>
<rect x="1353.6945544554455" y="585.8861313868613" width="117" height="22" rx="4" fill="#000000"/>
<rect x="645.1500000000001" y="468.7559971051506" width="124" height="22" rx="4" fill="#000000"/>
<rect x="882.2437500000001" y="320" width="201" height="22" rx="4" fill="#000000"/>
<rect x="1318.4" y="525.792700729927" width="131" height="22" rx="4" fill="#000000"/>
<rect x="1787.0323076923078" y="280" width="96" height="22" rx="4" fill="#000000"/>
<rect x="1789.7263157894738" y="381" width="96" height="22" rx="4" fill="#000000"/>
<rect x="1329.0889763779528" y="323.68456375838923" width="138" height="22" rx="4" fill="#000000"/>
<rect x="568.9" y="538.6906252641487" width="103" height="22" rx="4" fill="#000000"/>
<rect x="564.15" y="504.7559971051505" width="103" height="22" rx="4" fill="#000000"/>
<rect x="516.4" y="401" width="170" height="24" fill="#000000" rx="3"/><text x="601.4" y="414" font-family="'Inter', 'Helvetica Neue', Arial, sans-serif" font-size="14" fill="#ffffff" opacity="0.9" text-anchor="middle">Command Side (Write)</text>
<rect x="1335.65" y="377" width="125" height="24" fill="#000000" rx="3"/><text x="1398.15" y="390" font-family="'Inter', 'Helvetica Neue', Arial, sans-serif" font-size="14" fill="#ffffff" opacity="0.9" text-anchor="middle">Event Backbone</text>
<rect x="1748.15" y="189" width="147.5" height="24" fill="#000000" rx="3"/><text x="1821.9" y="202" font-family="'Inter', 'Helvetica Neue', Arial, sans-serif" font-size="14" fill="#ffffff" opacity="0.9" text-anchor="middle">Query Side (Read)</text>
<circle cx="326.40000000000003" cy="297" r="7" fill="none" stroke="#b4f079" stroke-width="1.5"/><line x1="326.40000000000003" y1="304" x2="326.40000000000003" y2="326" stroke="#b4f079" stroke-width="1.5"/><line x1="312.40000000000003" y1="310" x2="340.40000000000003" y2="310" stroke="#b4f079" stroke-width="1.5"/><line x1="326.40000000000003" y1="326" x2="316.40000000000003" y2="342" stroke="#b4f079" stroke-width="1.5"/><line x1="326.40000000000003" y1="326" x2="336.40000000000003" y2="342" stroke="#b4f079" stroke-width="1.5"/><text x="326.40000000000003" y="356" font-family="'JetBrains Mono', 'Fira Code', 'SF Mono', 'Cascadia Code', monospace" font-size="13" fill="#b4f079" text-anchor="middle" letter-spacing="0.12em">MOBILE APP</text>
<circle cx="110.2" cy="399" r="7" fill="none" stroke="#b4f079" stroke-width="1.5"/><line x1="110.2" y1="406" x2="110.2" y2="428" stroke="#b4f079" stroke-width="1.5"/><line x1="96.2" y1="412" x2="124.2" y2="412" stroke="#b4f079" stroke-width="1.5"/><line x1="110.2" y1="428" x2="100.2" y2="444" stroke="#b4f079" stroke-width="1.5"/><line x1="110.2" y1="428" x2="120.2" y2="444" stroke="#b4f079" stroke-width="1.5"/><text x="110.2" y="458" font-family="'JetBrains Mono', 'Fira Code', 'SF Mono', 'Cascadia Code', monospace" font-size="13" fill="#b4f079" text-anchor="middle" letter-spacing="0.12em">ADMIN DASHBOARD</text>
<rect x="910.4" y="376" width="184" height="82" rx="12" fill="none" stroke="#b4f079" stroke-width="1.5"/><rect x="915.15" y="380.75" width="174.5" height="72.5" rx="8" fill="url(#hero)" stroke="#b4f079" stroke-width="1"/><rect x="950.4" y="397.9" width="104" height="22.2" fill="#000000" rx="2"/><text x="1002.4" y="409" font-family="'JetBrains Mono', 'Fira Code', 'SF Mono', 'Cascadia Code', monospace" font-size="13" fill="#b4f079" text-anchor="middle" dominant-baseline="central" letter-spacing="0.12em">BFF GATEWAY</text><rect x="914.4" y="417.6" width="176" height="22.799999999999997" fill="#000000" rx="2"/><text x="1002.4" y="429" font-family="'JetBrains Mono', 'Fira Code', 'SF Mono', 'Cascadia Code', monospace" font-size="12" fill="#b4f079" opacity="0.6" text-anchor="middle" dominant-baseline="central" letter-spacing="0.12em">Backend for Frontend</text>
<rect x="1485.9" y="70" width="148" height="62" fill="url(#crosshatch)" stroke="none"/><line x1="1485.9" y1="70" x2="1485.9" y2="132" stroke="#b4f079" stroke-width="1.5"/><line x1="1633.9" y1="70" x2="1633.9" y2="132" stroke="#b4f079" stroke-width="1.5"/><ellipse cx="1559.9" cy="70" rx="74" ry="10" fill="url(#crosshatch)" stroke="#b4f079" stroke-width="1.5"/><path d="M1485.9,132 A74,10 0 0,0 1633.9,132" fill="url(#crosshatch)" stroke="#b4f079" stroke-width="1.5"/><rect x="1507.9" y="81.9" width="104" height="22.2" fill="#000000" rx="2"/><text x="1559.9" y="93" font-family="'JetBrains Mono', 'Fira Code', 'SF Mono', 'Cascadia Code', monospace" font-size="13" fill="#b4f079" text-anchor="middle" dominant-baseline="central" letter-spacing="0.12em">EVENT STORE</text><rect x="1491.9" y="101.6" width="136" height="22.799999999999997" fill="#000000" rx="2"/><text x="1559.9" y="113" font-family="'JetBrains Mono', 'Fira Code', 'SF Mono', 'Cascadia Code', monospace" font-size="12" fill="#b4f079" opacity="0.6" text-anchor="middle" dominant-baseline="central" letter-spacing="0.12em">Append-only log</text>
<rect x="1775.9" y="286" width="169.6" height="62" fill="url(#crosshatch)" stroke="none"/><line x1="1775.9" y1="286" x2="1775.9" y2="348" stroke="#b4f079" stroke-width="1.5"/><line x1="1945.5" y1="286" x2="1945.5" y2="348" stroke="#b4f079" stroke-width="1.5"/><ellipse cx="1860.7" cy="286" rx="84.8" ry="10" fill="url(#crosshatch)" stroke="#b4f079" stroke-width="1.5"/><path d="M1775.9,348 A84.8,10 0 0,0 1945.5,348" fill="url(#crosshatch)" stroke="#b4f079" stroke-width="1.5"/><rect x="1824.7" y="297.9" width="72" height="22.2" fill="#000000" rx="2"/><text x="1860.7" y="309" font-family="'JetBrains Mono', 'Fira Code', 'SF Mono', 'Cascadia Code', monospace" font-size="13" fill="#b4f079" text-anchor="middle" dominant-baseline="central" letter-spacing="0.12em">READ DB</text><rect x="1780.7" y="317.6" width="160" height="22.799999999999997" fill="#000000" rx="2"/><text x="1860.7" y="329" font-family="'JetBrains Mono', 'Fira Code', 'SF Mono', 'Cascadia Code', monospace" font-size="12" fill="#b4f079" opacity="0.6" text-anchor="middle" dominant-baseline="central" letter-spacing="0.12em">Denormalized views</text>
<rect x="997.4" y="478" width="97" height="40" rx="12" fill="#000000" stroke="#b4f079" stroke-width="1.5"/><text x="1045.9" y="498" font-family="'JetBrains Mono', 'Fira Code', 'SF Mono', 'Cascadia Code', monospace" font-size="13" fill="#b4f079" text-anchor="middle" dominant-baseline="central" letter-spacing="0.12em">STRIPE</text>
<rect x="997.4" y="350" width="97" height="40" rx="12" fill="#000000" stroke="#b4f079" stroke-width="1.5"/><text x="1045.9" y="370" font-family="'JetBrains Mono', 'Fira Code', 'SF Mono', 'Cascadia Code', monospace" font-size="13" fill="#b4f079" text-anchor="middle" dominant-baseline="central" letter-spacing="0.12em">TWILIO</text>
<rect x="814.4" y="444" width="162" height="76" rx="12" fill="url(#dotgrid)" stroke="#b4f079" stroke-width="1.5"/><rect x="835.4" y="470.9" width="120" height="22.2" fill="#000000" rx="2"/><text x="895.4" y="482" font-family="'JetBrains Mono', 'Fira Code', 'SF Mono', 'Cascadia Code', monospace" font-size="13" fill="#b4f079" text-anchor="middle" dominant-baseline="central" letter-spacing="0.12em">ORDER COMMAND</text>
<rect x="226.4" y="564" width="200" height="40" rx="12" fill="url(#dotgrid)" stroke="#b4f079" stroke-width="1.5"/><rect x="250.39999999999998" y="572.9" width="152" height="22.2" fill="#000000" rx="2"/><text x="326.4" y="584" font-family="'JetBrains Mono', 'Fira Code', 'SF Mono', 'Cascadia Code', monospace" font-size="13" fill="#b4f079" text-anchor="middle" dominant-baseline="central" letter-spacing="0.12em">INVENTORY COMMAND</text>
<rect x="235.9" y="494" width="181" height="40" rx="12" fill="url(#dotgrid)" stroke="#b4f079" stroke-width="1.5"/><rect x="258.4" y="502.9" width="136" height="22.2" fill="#000000" rx="2"/><text x="326.4" y="514" font-family="'JetBrains Mono', 'Fira Code', 'SF Mono', 'Cascadia Code', monospace" font-size="13" fill="#b4f079" text-anchor="middle" dominant-baseline="central" letter-spacing="0.12em">PAYMENT COMMAND</text>
<rect x="1136.4" y="420" width="162" height="124" rx="12" fill="url(#hero)" stroke="#b4f079" stroke-width="1.5"/><rect x="1157.4" y="462.9" width="120" height="22.2" fill="#000000" rx="2"/><text x="1217.4" y="474" font-family="'JetBrains Mono', 'Fira Code', 'SF Mono', 'Cascadia Code', monospace" font-size="13" fill="#b4f079" text-anchor="middle" dominant-baseline="central" letter-spacing="0.12em">KAFKA CLUSTER</text><rect x="1149.4" y="482.6" width="136" height="22.799999999999997" fill="#000000" rx="2"/><text x="1217.4" y="494" font-family="'JetBrains Mono', 'Fira Code', 'SF Mono', 'Cascadia Code', monospace" font-size="12" fill="#b4f079" opacity="0.6" text-anchor="middle" dominant-baseline="central" letter-spacing="0.12em">3 brokers, RF=3</text>
<rect x="1469.4" y="492" width="181" height="82" rx="12" fill="url(#dotgrid)" stroke="#b4f079" stroke-width="1.5"/><rect x="1491.9" y="513.9" width="136" height="22.2" fill="#000000" rx="2"/><text x="1559.9" y="525" font-family="'JetBrains Mono', 'Fira Code', 'SF Mono', 'Cascadia Code', monospace" font-size="13" fill="#b4f079" text-anchor="middle" dominant-baseline="central" letter-spacing="0.12em">SCHEMA REGISTRY</text><rect x="1503.9" y="533.6" width="112" height="22.799999999999997" fill="#000000" rx="2"/><text x="1559.9" y="545" font-family="'JetBrains Mono', 'Fira Code', 'SF Mono', 'Cascadia Code', monospace" font-size="12" fill="#b4f079" opacity="0.6" text-anchor="middle" dominant-baseline="central" letter-spacing="0.12em">Avro schemas</text>
<rect x="1459.9" y="664" width="200" height="40" rx="12" fill="url(#crosshatch)" stroke="#b4f079" stroke-width="1.5"/><rect x="1483.9" y="672.9" width="152" height="22.2" fill="#000000" rx="2"/><text x="1559.9" y="684" font-family="'JetBrains Mono', 'Fira Code', 'SF Mono', 'Cascadia Code', monospace" font-size="13" fill="#b4f079" text-anchor="middle" dominant-baseline="central" letter-spacing="0.12em">DEAD LETTER TOPIC</text>
<rect x="1726.9" y="232" width="190" height="40" rx="12" fill="url(#dotgrid)" stroke="#b4f079" stroke-width="1.5"/><rect x="1749.9" y="240.9" width="144" height="22.2" fill="#000000" rx="2"/><text x="1821.9" y="252" font-family="'JetBrains Mono', 'Fira Code', 'SF Mono', 'Cascadia Code', monospace" font-size="13" fill="#b4f079" text-anchor="middle" dominant-baseline="central" letter-spacing="0.12em">ORDER PROJECTION</text>
<rect x="1721.9" y="411" width="200" height="40" rx="12" fill="url(#dotgrid)" stroke="#b4f079" stroke-width="1.5"/><rect x="1745.9" y="419.9" width="152" height="22.2" fill="#000000" rx="2"/><text x="1821.9" y="431" font-family="'JetBrains Mono', 'Fira Code', 'SF Mono', 'Cascadia Code', monospace" font-size="13" fill="#b4f079" text-anchor="middle" dominant-baseline="central" letter-spacing="0.12em">SEARCH PROJECTION</text>
<rect x="1707.9" y="794" width="228" height="40" rx="12" fill="url(#dotgrid)" stroke="#b4f079" stroke-width="1.5"/><rect x="1733.9" y="802.9" width="176" height="22.2" fill="#000000" rx="2"/><text x="1821.9" y="814" font-family="'JetBrains Mono', 'Fira Code', 'SF Mono', 'Cascadia Code', monospace" font-size="13" fill="#b4f079" text-anchor="middle" dominant-baseline="central" letter-spacing="0.12em">ANALYTICS PROJECTION</text>
<text x="625.4000000000001" y="352.5147928994083" font-family="'JetBrains Mono', 'Fira Code', 'SF Mono', 'Cascadia Code', monospace" font-size="12" fill="#b4f079" opacity="0.85" text-anchor="middle">GraphQL subscription</text>
<text x="517.3" y="448" font-family="'JetBrains Mono', 'Fira Code', 'SF Mono', 'Cascadia Code', monospace" font-size="12" fill="#b4f079" opacity="0.85" text-anchor="middle">REST + SSE</text>
<text x="946.4307692307692" y="402.6" font-family="'JetBrains Mono', 'Fira Code', 'SF Mono', 'Cascadia Code', monospace" font-size="12" fill="#b4f079" opacity="0.85" text-anchor="middle">gRPC</text>
<text x="1410.65" y="305.8691275167785" font-family="'JetBrains Mono', 'Fira Code', 'SF Mono', 'Cascadia Code', monospace" font-size="12" fill="#b4f079" opacity="0.85" text-anchor="middle">gRPC query</text>
<text x="1056.4" y="463.40000000000003" font-family="'JetBrains Mono', 'Fira Code', 'SF Mono', 'Cascadia Code', monospace" font-size="12" fill="#b4f079" opacity="0.85" text-anchor="middle">OrderPlaced event</text>
<text x="781.4000000000001" y="566.7992876120481" font-family="'JetBrains Mono', 'Fira Code', 'SF Mono', 'Cascadia Code', monospace" font-size="12" fill="#b4f079" opacity="0.85" text-anchor="middle">StockReserved event</text>
<text x="776.6500000000001" y="530.7992876120481" font-family="'JetBrains Mono', 'Fira Code', 'SF Mono', 'Cascadia Code', monospace" font-size="12" fill="#b4f079" opacity="0.85" text-anchor="middle">PaymentCaptured event</text>
<text x="1512.65" y="374.68456375838923" font-family="'JetBrains Mono', 'Fira Code', 'SF Mono', 'Cascadia Code', monospace" font-size="12" fill="#b4f079" opacity="0.85" text-anchor="middle">Consume + project</text>
<text x="1510.15" y="424" font-family="'JetBrains Mono', 'Fira Code', 'SF Mono', 'Cascadia Code', monospace" font-size="12" fill="#b4f079" opacity="0.85" text-anchor="middle">Consume + index</text>
<text x="1541.942168674699" y="634.2431761786601" font-family="'JetBrains Mono', 'Fira Code', 'SF Mono', 'Cascadia Code', monospace" font-size="12" fill="#b4f079" opacity="0.85" text-anchor="middle">Consume + aggregate</text>
<text x="1412.1945544554455" y="600.8861313868613" font-family="'JetBrains Mono', 'Fira Code', 'SF Mono', 'Cascadia Code', monospace" font-size="12" fill="#b4f079" opacity="0.85" text-anchor="middle">Poison messages</text>
<text x="707.1500000000001" y="483.7559971051506" font-family="'JetBrains Mono', 'Fira Code', 'SF Mono', 'Cascadia Code', monospace" font-size="12" fill="#b4f079" opacity="0.85" text-anchor="middle">Charge + webhook</text>
<text x="982.7437500000001" y="335" font-family="'JetBrains Mono', 'Fira Code', 'SF Mono', 'Cascadia Code', monospace" font-size="12" fill="#b4f079" opacity="0.85" text-anchor="middle">Send SMS + delivery receipt</text>
<text x="1383.9" y="540.792700729927" font-family="'JetBrains Mono', 'Fira Code', 'SF Mono', 'Cascadia Code', monospace" font-size="12" fill="#b4f079" opacity="0.85" text-anchor="middle">Validate + evolve</text>
<text x="1835.0323076923078" y="295" font-family="'JetBrains Mono', 'Fira Code', 'SF Mono', 'Cascadia Code', monospace" font-size="12" fill="#b4f079" opacity="0.85" text-anchor="middle">Upsert views</text>
<text x="1837.7263157894738" y="396" font-family="'JetBrains Mono', 'Fira Code', 'SF Mono', 'Cascadia Code', monospace" font-size="12" fill="#b4f079" opacity="0.85" text-anchor="middle">Update index</text>
<text x="1398.0889763779528" y="338.68456375838923" font-family="'JetBrains Mono', 'Fira Code', 'SF Mono', 'Cascadia Code', monospace" font-size="12" fill="#b4f079" opacity="0.85" text-anchor="middle">Persist all events</text>
<text x="620.4" y="553.6906252641487" font-family="'JetBrains Mono', 'Fira Code', 'SF Mono', 'Cascadia Code', monospace" font-size="12" fill="#b4f079" opacity="0.85" text-anchor="middle">Saga callback</text>
<text x="615.65" y="519.7559971051505" font-family="'JetBrains Mono', 'Fira Code', 'SF Mono', 'Cascadia Code', monospace" font-size="12" fill="#b4f079" opacity="0.85" text-anchor="middle">Saga callback</text>
<text x="1969.5" y="431" font-family="'Inter', 'Helvetica Neue', Arial, sans-serif" font-size="14" fill="#ffffff" font-weight="700">Solid: synchronous RPC</text><text x="1969.5" y="449" font-family="'JetBrains Mono', 'Fira Code', 'SF Mono', 'Cascadia Code', monospace" font-size="11" fill="#b4f079" opacity="0.7">Dashed: async events</text><text x="1969.5" y="467" font-family="'JetBrains Mono', 'Fira Code', 'SF Mono', 'Cascadia Code', monospace" font-size="11" fill="#b4f079" opacity="0.7">Bidirectional: request + callback</text>
<text x="1136.4" y="744" font-family="'Inter', 'Helvetica Neue', Arial, sans-serif" font-size="14" fill="#ffffff" font-weight="700">At-least-once delivery</text><text x="1136.4" y="762" font-family="'JetBrains Mono', 'Fira Code', 'SF Mono', 'Cascadia Code', monospace" font-size="11" fill="#b4f079" opacity="0.7">Consumer group rebalancing</text><text x="1136.4" y="780" font-family="'JetBrains Mono', 'Fira Code', 'SF Mono', 'Cascadia Code', monospace" font-size="11" fill="#b4f079" opacity="0.7">Exactly-once via transactions</text>
<text x="1670.9" y="141" font-family="'Inter', 'Helvetica Neue', Arial, sans-serif" font-size="14" fill="#ffffff" font-weight="700">CQRS boundary:</text><text x="1670.9" y="159" font-family="'JetBrains Mono', 'Fira Code', 'SF Mono', 'Cascadia Code', monospace" font-size="11" fill="#b4f079" opacity="0.7">write side never queries</text><text x="1670.9" y="177" font-family="'JetBrains Mono', 'Fira Code', 'SF Mono', 'Cascadia Code', monospace" font-size="11" fill="#b4f079" opacity="0.7">read side never mutates</text>
</g>
</svg>