<svg xmlns="http://www.w3.org/2000/svg" viewBox="0 0 2128.7 832" width="2128.7" height="832">
<defs>
  <pattern id="dotgrid" width="8" height="8" patternUnits="userSpaceOnUse">
    <rect width="8" height="8" fill="#000000"/>
    <circle cx="4" cy="4" r="0.8" fill="#b4f079" opacity="0.7"/>
  </pattern>
  <pattern id="crosshatch" width="8" height="8" patternUnits="userSpaceOnUse">
    <rect width="8" height="8" fill="#000000"/>
    <path d="M0 8L8 0M-1 1L1 -1M7 9L9 7" stroke="#b4f079" stroke-width="0.8" opacity="0.2"/>
  </pattern>
  <pattern id="hero" width="6" height="6" patternUnits="userSpaceOnUse">
    <rect width="6" height="6" fill="#3d6b23"/>
    <circle cx="3" cy="3" r="0.6" fill="#5a9a35" opacity="0.5"/>
  </pattern>
  <marker id="arrowhead" markerWidth="10" markerHeight="7" refX="9" refY="3.5" orient="auto" markerUnits="strokeWidth">
    <polygon points="0 0, 10 3.5, 0 7" fill="#b4f079"/>
  </marker>
  <marker id="arrowhead-reverse" markerWidth="10" markerHeight="7" refX="1" refY="3.5" orient="auto" markerUnits="strokeWidth">
    <polygon points="10 0, 0 3.5, 10 7" fill="#b4f079"/>
  </marker>
</defs>
<rect width="100%" height="100%" fill="#000000"/>
<g class="diagram">
<text x="30" y="34" font-family="'Inter', 'Helvetica Neue', Arial, sans-serif" font-size="15" fill="#ffffff" font-weight="700">Event mesh: sync, async, and bidirectional communication patterns</text>
<rect x="202.4" y="388" width="770" height="208" rx="12" fill="url(#dotgrid)" stroke="#b4f079" stroke-width="1" opacity="0.35"/><rect x="202.4" y="388" width="770" height="208" rx="12" fill="none" stroke="#b4f079" stroke-width="1" opacity="0.5"/>
<rect x="1100.4" y="379" width="555.5" height="293" rx="12" fill="url(#hero)" stroke="#b4f079" stroke-width="1" opacity="0.35"/><rect x="1100.4" y="379" width="555.5" height="293" rx="12" fill="none" stroke="#b4f079" stroke-width="1" opacity="0.5"/>
<rect x="1409.9" y="158" width="260" height="644" rx="12" fill="url(#dotgrid)" stroke="#b4f079" stroke-width="1" opacity="0.35"/><rect x="1409.9" y="158" width="260" height="644" rx="12" fill="none" stroke="#b4f079" stroke-width="1" opacity="0.5"/>
<line x1="332.40000000000003" y1="297.0477611940299" x2="902.4" y2="380.42089552238804" stroke="#b4f079" stroke-width="1.5" marker-end="url(#arrowhead)"/>
<line x1="116.2" y1="396.93680884676144" x2="902.4" y2="393.3881742270368" stroke="#b4f079" stroke-width="1.5" marker-end="url(#arrowhead)"/>
<line x1="931.9" y1="425.5" x2="910.1692307692308" y2="438" stroke="#b4f079" stroke-width="1.5" marker-end="url(#arrowhead)"/>
<polyline points="1074.4,367.2701722574796 1074.4,347 1473.0515151515153,347 1473.0515151515153,248" fill="none" stroke="#b4f079" stroke-width="1.5" marker-end="url(#arrowhead)"/>
<polyline points="956.4,458 956.4,433.5 1116.4,433.5 1116.4,458" fill="none" stroke="#b4f079" stroke-width="1.5" stroke-dasharray="6 4" marker-end="url(#arrowhead)"/>
<polyline points="418.4,548.3959044368601 418.4,497.5 1116.4,497.5 1116.4,467.3993174061433" fill="none" stroke="#b4f079" stroke-width="1.5" stroke-dasharray="6 4" marker-end="url(#arrowhead)"/>
<polyline points="408.9,486.70534698521044 408.9,497.5 1116.4,497.5 1116.4,460.94880546075086" fill="none" stroke="#b4f079" stroke-width="1.5" stroke-dasharray="6 4" marker-end="url(#arrowhead)"/>
<line x1="1240.5847826086958" y1="429" x2="1510.1173913043478" y2="248" stroke="#b4f079" stroke-width="1.5" stroke-dasharray="6 4" marker-end="url(#arrowhead)"/>
<line x1="1278.4" y1="434.35036496350364" x2="1471.4" y2="378" stroke="#b4f079" stroke-width="1.5" stroke-dasharray="6 4" marker-end="url(#arrowhead)"/>
<polyline points="1229.6483766233766,487 1229.6483766233766,604 1517.6597402597404,604 1517.6597402597404,746" fill="none" stroke="#b4f079" stroke-width="1.5" stroke-dasharray="6 4" marker-end="url(#arrowhead)"/>
<line x1="1253.200561797753" y1="487" x2="1501.4168539325844" y2="616" stroke="#b4f079" stroke-width="1.5" stroke-dasharray="6 4" marker-end="url(#arrowhead)"/>
<polyline points="408.9,486.8660777385159 408.9,490 977.4000000000001,490 977.4000000000001,467.17950530035336" fill="none" stroke="#b4f079" stroke-width="1.5" marker-start="url(#arrowhead-reverse)" marker-end="url(#arrowhead)"/>
<polyline points="913.5012658227848,438 913.5012658227848,437.5 987.7987341772152,437.5 987.7987341772152,399" fill="none" stroke="#b4f079" stroke-width="1.5" marker-start="url(#arrowhead-reverse)" marker-end="url(#arrowhead)"/>
<line x1="1278.4" y1="467.22335766423356" x2="1449.4" y2="486.6948905109489" stroke="#b4f079" stroke-width="1.5" marker-start="url(#arrowhead-reverse)" marker-end="url(#arrowhead)"/>
<line x1="1630.7923076923078" y1="248" x2="1755.9" y2="275.52877454299255" stroke="#b4f079" stroke-width="1.5" marker-end="url(#arrowhead)"/>
<line x1="1630.7923076923078" y1="338" x2="1755.9" y2="310.47122545700745" stroke="#b4f079" stroke-width="1.5" marker-end="url(#arrowhead)"/>
<polyline points="1224.3173441734418,429 1432.9,429 1432.9,118 1512.9826558265584,118" fill="none" stroke="#b4f079" stroke-width="1.5" marker-end="url(#arrowhead)"/>
<line x1="418.4" y1="541.6876122082585" x2="794.4" y2="472.8330341113106" stroke="#b4f079" stroke-width="1.5" marker-end="url(#arrowhead)"/>
<line x1="408.9" y1="484.80071813285457" x2="794.4" y2="462.65350089766605" stroke="#b4f079" stroke-width="1.5" marker-end="url(#arrowhead)"/>
<rect x="546.4000000000001" y="328.2343283582089" width="142" height="21" rx="4" fill="#000000"/>
<rect x="470.79999999999995" y="384.6624915368991" width="77" height="21" rx="4" fill="#000000"/>
<rect x="902.0346153846153" y="394.5" width="38" height="21" rx="4" fill="#000000"/>
<rect x="1235.2257575757576" y="297.1350861287398" width="77" height="21" rx="4" fill="#000000"/>
<rect x="975.1500000000001" y="405.5" width="122.5" height="21" rx="4" fill="#000000"/>
<rect x="699.6500000000001" y="510.77980197542183" width="135.5" height="21" rx="4" fill="#000000"/>
<rect x="688.4000000000001" y="481.77980197542183" width="148.5" height="21" rx="4" fill="#000000"/>
<rect x="1314.1010869565218" y="309" width="122.5" height="21" rx="4" fill="#000000"/>
<rect x="1320.15" y="395.6751824817518" width="109.5" height="21" rx="4" fill="#000000"/>
<rect x="1305.9040584415584" y="587" width="135.5" height="21" rx="4" fill="#000000"/>
<rect x="1322.5587078651688" y="541" width="109.5" height="21" rx="4" fill="#000000"/>
<rect x="635.1500000000001" y="445.7939540026765" width="116" height="21" rx="4" fill="#000000"/>
<rect x="856.9000000000001" y="434.5" width="187.5" height="21" rx="4" fill="#000000"/>
<rect x="1302.65" y="466.45912408759125" width="122.5" height="21" rx="4" fill="#000000"/>
<rect x="1648.3461538461538" y="251.26438727149628" width="90" height="21" rx="4" fill="#000000"/>
<rect x="1648.3461538461538" y="313.7356127285037" width="90" height="21" rx="4" fill="#000000"/>
<rect x="1304.15" y="263" width="129" height="21" rx="4" fill="#000000"/>
<rect x="558.15" y="496.76032315978455" width="96.5" height="21" rx="4" fill="#000000"/>
<rect x="553.4" y="474.7939540026765" width="96.5" height="21" rx="4" fill="#000000"/>
<rect x="502.4" y="401" width="170" height="24" fill="#000000" rx="3"/><text x="587.4" y="414" font-family="'Inter', 'Helvetica Neue', Arial, sans-serif" font-size="14" fill="#ffffff" opacity="0.9" text-anchor="middle">Command Side (Write)</text>
<rect x="1315.65" y="392" width="125" height="24" fill="#000000" rx="3"/><text x="1378.15" y="405" font-family="'Inter', 'Helvetica Neue', Arial, sans-serif" font-size="14" fill="#ffffff" opacity="0.9" text-anchor="middle">Event Backbone</text>
<rect x="1466.15" y="171" width="147.5" height="24" fill="#000000" rx="3"/><text x="1539.9" y="184" font-family="'Inter', 'Helvetica Neue', Arial, sans-serif" font-size="14" fill="#ffffff" opacity="0.9" text-anchor="middle">Query Side (Read)</text>
<circle cx="318.40000000000003" cy="273" r="7" fill="none" stroke="#b4f079" stroke-width="1.5"/><line x1="318.40000000000003" y1="280" x2="318.40000000000003" y2="302" stroke="#b4f079" stroke-width="1.5"/><line x1="304.40000000000003" y1="286" x2="332.40000000000003" y2="286" stroke="#b4f079" stroke-width="1.5"/><line x1="318.40000000000003" y1="302" x2="308.40000000000003" y2="318" stroke="#b4f079" stroke-width="1.5"/><line x1="318.40000000000003" y1="302" x2="328.40000000000003" y2="318" stroke="#b4f079" stroke-width="1.5"/><text x="318.40000000000003" y="332" font-family="'JetBrains Mono', 'Fira Code', 'SF Mono', 'Cascadia Code', monospace" font-size="13" fill="#b4f079" text-anchor="middle" letter-spacing="0.12em">MOBILE APP</text>
<circle cx="102.2" cy="375" r="7" fill="none" stroke="#b4f079" stroke-width="1.5"/><line x1="102.2" y1="382" x2="102.2" y2="404" stroke="#b4f079" stroke-width="1.5"/><line x1="88.2" y1="388" x2="116.2" y2="388" stroke="#b4f079" stroke-width="1.5"/><line x1="102.2" y1="404" x2="92.2" y2="420" stroke="#b4f079" stroke-width="1.5"/><line x1="102.2" y1="404" x2="112.2" y2="420" stroke="#b4f079" stroke-width="1.5"/><text x="102.2" y="434" font-family="'JetBrains Mono', 'Fira Code', 'SF Mono', 'Cascadia Code', monospace" font-size="13" fill="#b4f079" text-anchor="middle" letter-spacing="0.12em">ADMIN DASHBOARD</text>
<rect x="902.4" y="360.5" width="172" height="65" rx="12" fill="none" stroke="#b4f079" stroke-width="2"/><rect x="907.4" y="365.5" width="162" height="55" rx="8" fill="url(#hero)" stroke="#b4f079" stroke-width="1"/><text x="988.4" y="385" font-family="'JetBrains Mono', 'Fira Code', 'SF Mono', 'Cascadia Code', monospace" font-size="13" fill="#b4f079" text-anchor="middle" dominant-baseline="central" letter-spacing="0.12em">BFF GATEWAY</text><text x="988.4" y="405" font-family="'JetBrains Mono', 'Fira Code', 'SF Mono', 'Cascadia Code', monospace" font-size="11" fill="#b4f079" opacity="0.6" text-anchor="middle" dominant-baseline="central" letter-spacing="0.12em">Backend for Frontend</text>
<rect x="1468.4" y="70" width="143" height="38" fill="url(#crosshatch)" stroke="none"/><line x1="1468.4" y1="70" x2="1468.4" y2="108" stroke="#b4f079" stroke-width="1.5"/><line x1="1611.4" y1="70" x2="1611.4" y2="108" stroke="#b4f079" stroke-width="1.5"/><ellipse cx="1539.9" cy="70" rx="71.5" ry="10" fill="url(#crosshatch)" stroke="#b4f079" stroke-width="1.5"/><path d="M1468.4,108 A71.5,10 0 0,0 1611.4,108" fill="url(#crosshatch)" stroke="#b4f079" stroke-width="1.5"/><text x="1539.9" y="89" font-family="'JetBrains Mono', 'Fira Code', 'SF Mono', 'Cascadia Code', monospace" font-size="13" fill="#b4f079" text-anchor="middle" dominant-baseline="central" letter-spacing="0.12em">EVENT STORE</text>
<rect x="1755.9" y="274" width="158.8" height="38" fill="url(#crosshatch)" stroke="none"/><line x1="1755.9" y1="274" x2="1755.9" y2="312" stroke="#b4f079" stroke-width="1.5"/><line x1="1914.7" y1="274" x2="1914.7" y2="312" stroke="#b4f079" stroke-width="1.5"/><ellipse cx="1835.3000000000002" cy="274" rx="79.4" ry="10" fill="url(#crosshatch)" stroke="#b4f079" stroke-width="1.5"/><path d="M1755.9,312 A79.4,10 0 0,0 1914.7,312" fill="url(#crosshatch)" stroke="#b4f079" stroke-width="1.5"/><text x="1835.3000000000002" y="293" font-family="'JetBrains Mono', 'Fira Code', 'SF Mono', 'Cascadia Code', monospace" font-size="13" fill="#b4f079" text-anchor="middle" dominant-baseline="central" letter-spacing="0.12em">READ DB</text>
<rect x="977.4" y="445.5" width="97" height="40" rx="12" fill="#000000" stroke="#b4f079" stroke-width="1.5"/><text x="1025.9" y="465.5" font-family="'JetBrains Mono', 'Fira Code', 'SF Mono', 'Cascadia Code', monospace" font-size="13" fill="#b4f079" text-anchor="middle" dominant-baseline="central" letter-spacing="0.12em">STRIPE</text>
<rect x="977.4" y="359" width="97" height="40" rx="12" fill="#000000" stroke="#b4f079" stroke-width="1.5"/><text x="1025.9" y="379" font-family="'JetBrains Mono', 'Fira Code', 'SF Mono', 'Cascadia Code', monospace" font-size="13" fill="#b4f079" text-anchor="middle" dominant-baseline="central" letter-spacing="0.12em">TWILIO</text>
<rect x="794.4" y="438" width="162" height="40" rx="12" fill="url(#dotgrid)" stroke="#b4f079" stroke-width="1.5"/><rect x="815.4" y="446.9" width="120" height="22.2" fill="#000000" rx="2"/><text x="875.4" y="458" font-family="'JetBrains Mono', 'Fira Code', 'SF Mono', 'Cascadia Code', monospace" font-size="13" fill="#b4f079" text-anchor="middle" dominant-baseline="central" letter-spacing="0.12em">ORDER COMMAND</text>
<rect x="218.4" y="540" width="200" height="40" rx="12" fill="url(#dotgrid)" stroke="#b4f079" stroke-width="1.5"/><rect x="242.39999999999998" y="548.9" width="152" height="22.2" fill="#000000" rx="2"/><text x="318.4" y="560" font-family="'JetBrains Mono', 'Fira Code', 'SF Mono', 'Cascadia Code', monospace" font-size="13" fill="#b4f079" text-anchor="middle" dominant-baseline="central" letter-spacing="0.12em">INVENTORY COMMAND</text>
<rect x="227.9" y="470" width="181" height="40" rx="12" fill="url(#dotgrid)" stroke="#b4f079" stroke-width="1.5"/><rect x="250.39999999999998" y="478.9" width="136" height="22.2" fill="#000000" rx="2"/><text x="318.4" y="490" font-family="'JetBrains Mono', 'Fira Code', 'SF Mono', 'Cascadia Code', monospace" font-size="13" fill="#b4f079" text-anchor="middle" dominant-baseline="central" letter-spacing="0.12em">PAYMENT COMMAND</text>
<rect x="1116.4" y="429" width="162" height="58" rx="12" fill="url(#hero)" stroke="#b4f079" stroke-width="1.5"/><rect x="1137.4" y="438.9" width="120" height="22.2" fill="#000000" rx="2"/><text x="1197.4" y="450" font-family="'JetBrains Mono', 'Fira Code', 'SF Mono', 'Cascadia Code', monospace" font-size="13" fill="#b4f079" text-anchor="middle" dominant-baseline="central" letter-spacing="0.12em">KAFKA CLUSTER</text><rect x="1129.4" y="461.5" width="136" height="17" fill="#000000" rx="2"/><text x="1197.4" y="470" font-family="'JetBrains Mono', 'Fira Code', 'SF Mono', 'Cascadia Code', monospace" font-size="11" fill="#b4f079" opacity="0.6" text-anchor="middle" dominant-baseline="central" letter-spacing="0.12em">3 brokers, RF=3</text>
<rect x="1449.4" y="468" width="181" height="58" rx="12" fill="url(#dotgrid)" stroke="#b4f079" stroke-width="1.5"/><rect x="1471.9" y="477.9" width="136" height="22.2" fill="#000000" rx="2"/><text x="1539.9" y="489" font-family="'JetBrains Mono', 'Fira Code', 'SF Mono', 'Cascadia Code', monospace" font-size="13" fill="#b4f079" text-anchor="middle" dominant-baseline="central" letter-spacing="0.12em">SCHEMA REGISTRY</text><rect x="1483.9" y="500.5" width="112" height="17" fill="#000000" rx="2"/><text x="1539.9" y="509" font-family="'JetBrains Mono', 'Fira Code', 'SF Mono', 'Cascadia Code', monospace" font-size="11" fill="#b4f079" opacity="0.6" text-anchor="middle" dominant-baseline="central" letter-spacing="0.12em">Avro schemas</text>
<rect x="1439.9" y="616" width="200" height="40" rx="12" fill="url(#crosshatch)" stroke="#b4f079" stroke-width="1.5"/><rect x="1463.9" y="624.9" width="152" height="22.2" fill="#000000" rx="2"/><text x="1539.9" y="636" font-family="'JetBrains Mono', 'Fira Code', 'SF Mono', 'Cascadia Code', monospace" font-size="13" fill="#b4f079" text-anchor="middle" dominant-baseline="central" letter-spacing="0.12em">DEAD LETTER TOPIC</text>
<rect x="1444.9" y="208" width="190" height="40" rx="12" fill="url(#dotgrid)" stroke="#b4f079" stroke-width="1.5"/><rect x="1467.9" y="216.9" width="144" height="22.2" fill="#000000" rx="2"/><text x="1539.9" y="228" font-family="'JetBrains Mono', 'Fira Code', 'SF Mono', 'Cascadia Code', monospace" font-size="13" fill="#b4f079" text-anchor="middle" dominant-baseline="central" letter-spacing="0.12em">ORDER PROJECTION</text>
<rect x="1439.9" y="338" width="200" height="40" rx="12" fill="url(#dotgrid)" stroke="#b4f079" stroke-width="1.5"/><rect x="1463.9" y="346.9" width="152" height="22.2" fill="#000000" rx="2"/><text x="1539.9" y="358" font-family="'JetBrains Mono', 'Fira Code', 'SF Mono', 'Cascadia Code', monospace" font-size="13" fill="#b4f079" text-anchor="middle" dominant-baseline="central" letter-spacing="0.12em">SEARCH PROJECTION</text>
<rect x="1425.9" y="746" width="228" height="40" rx="12" fill="url(#dotgrid)" stroke="#b4f079" stroke-width="1.5"/><rect x="1451.9" y="754.9" width="176" height="22.2" fill="#000000" rx="2"/><text x="1539.9" y="766" font-family="'JetBrains Mono', 'Fira Code', 'SF Mono', 'Cascadia Code', monospace" font-size="13" fill="#b4f079" text-anchor="middle" dominant-baseline="central" letter-spacing="0.12em">ANALYTICS PROJECTION</text>
<text x="617.4000000000001" y="342.2343283582089" font-family="'JetBrains Mono', 'Fira Code', 'SF Mono', 'Cascadia Code', monospace" font-size="11" fill="#b4f079" opacity="0.85" text-anchor="middle">GraphQL subscription</text>
<text x="509.29999999999995" y="398.6624915368991" font-family="'JetBrains Mono', 'Fira Code', 'SF Mono', 'Cascadia Code', monospace" font-size="11" fill="#b4f079" opacity="0.85" text-anchor="middle">REST + SSE</text>
<text x="921.0346153846153" y="408.5" font-family="'JetBrains Mono', 'Fira Code', 'SF Mono', 'Cascadia Code', monospace" font-size="11" fill="#b4f079" opacity="0.85" text-anchor="middle">gRPC</text>
<text x="1273.7257575757576" y="311.1350861287398" font-family="'JetBrains Mono', 'Fira Code', 'SF Mono', 'Cascadia Code', monospace" font-size="11" fill="#b4f079" opacity="0.85" text-anchor="middle">gRPC query</text>
<text x="1036.4" y="419.5" font-family="'JetBrains Mono', 'Fira Code', 'SF Mono', 'Cascadia Code', monospace" font-size="11" fill="#b4f079" opacity="0.85" text-anchor="middle">OrderPlaced event</text>
<text x="767.4000000000001" y="524.7798019754218" font-family="'JetBrains Mono', 'Fira Code', 'SF Mono', 'Cascadia Code', monospace" font-size="11" fill="#b4f079" opacity="0.85" text-anchor="middle">StockReserved event</text>
<text x="762.6500000000001" y="495.77980197542183" font-family="'JetBrains Mono', 'Fira Code', 'SF Mono', 'Cascadia Code', monospace" font-size="11" fill="#b4f079" opacity="0.85" text-anchor="middle">PaymentCaptured event</text>
<text x="1375.3510869565218" y="323" font-family="'JetBrains Mono', 'Fira Code', 'SF Mono', 'Cascadia Code', monospace" font-size="11" fill="#b4f079" opacity="0.85" text-anchor="middle">Consume + project</text>
<text x="1374.9" y="409.6751824817518" font-family="'JetBrains Mono', 'Fira Code', 'SF Mono', 'Cascadia Code', monospace" font-size="11" fill="#b4f079" opacity="0.85" text-anchor="middle">Consume + index</text>
<text x="1373.6540584415584" y="601" font-family="'JetBrains Mono', 'Fira Code', 'SF Mono', 'Cascadia Code', monospace" font-size="11" fill="#b4f079" opacity="0.85" text-anchor="middle">Consume + aggregate</text>
<text x="1377.3087078651688" y="555" font-family="'JetBrains Mono', 'Fira Code', 'SF Mono', 'Cascadia Code', monospace" font-size="11" fill="#b4f079" opacity="0.85" text-anchor="middle">Poison messages</text>
<text x="693.1500000000001" y="459.7939540026765" font-family="'JetBrains Mono', 'Fira Code', 'SF Mono', 'Cascadia Code', monospace" font-size="11" fill="#b4f079" opacity="0.85" text-anchor="middle">Charge + webhook</text>
<text x="950.6500000000001" y="448.5" font-family="'JetBrains Mono', 'Fira Code', 'SF Mono', 'Cascadia Code', monospace" font-size="11" fill="#b4f079" opacity="0.85" text-anchor="middle">Send SMS + delivery receipt</text>
<text x="1363.9" y="480.45912408759125" font-family="'JetBrains Mono', 'Fira Code', 'SF Mono', 'Cascadia Code', monospace" font-size="11" fill="#b4f079" opacity="0.85" text-anchor="middle">Validate + evolve</text>
<text x="1693.3461538461538" y="265.2643872714963" font-family="'JetBrains Mono', 'Fira Code', 'SF Mono', 'Cascadia Code', monospace" font-size="11" fill="#b4f079" opacity="0.85" text-anchor="middle">Upsert views</text>
<text x="1693.3461538461538" y="327.7356127285037" font-family="'JetBrains Mono', 'Fira Code', 'SF Mono', 'Cascadia Code', monospace" font-size="11" fill="#b4f079" opacity="0.85" text-anchor="middle">Update index</text>
<text x="1368.65" y="277" font-family="'JetBrains Mono', 'Fira Code', 'SF Mono', 'Cascadia Code', monospace" font-size="11" fill="#b4f079" opacity="0.85" text-anchor="middle">Persist all events</text>
<text x="606.4" y="510.76032315978455" font-family="'JetBrains Mono', 'Fira Code', 'SF Mono', 'Cascadia Code', monospace" font-size="11" fill="#b4f079" opacity="0.85" text-anchor="middle">Saga callback</text>
<text x="601.65" y="488.7939540026765" font-family="'JetBrains Mono', 'Fira Code', 'SF Mono', 'Cascadia Code', monospace" font-size="11" fill="#b4f079" opacity="0.85" text-anchor="middle">Saga callback</text>
<text x="902.4" y="294.5" font-family="'Inter', 'Helvetica Neue', Arial, sans-serif" font-size="14" fill="#ffffff" font-weight="700">Solid: synchronous RPC</text><text x="902.4" y="312.5" font-family="'JetBrains Mono', 'Fira Code', 'SF Mono', 'Cascadia Code', monospace" font-size="11" fill="#b4f079" opacity="0.7">Dashed: async events</text><text x="902.4" y="330.5" font-family="'JetBrains Mono', 'Fira Code', 'SF Mono', 'Cascadia Code', monospace" font-size="11" fill="#b4f079" opacity="0.7">Bidirectional: request + callback</text>
<text x="1116.4" y="696" font-family="'Inter', 'Helvetica Neue', Arial, sans-serif" font-size="14" fill="#ffffff" font-weight="700">At-least-once delivery</text><text x="1116.4" y="714" font-family="'JetBrains Mono', 'Fira Code', 'SF Mono', 'Cascadia Code', monospace" font-size="11" fill="#b4f079" opacity="0.7">Consumer group rebalancing</text><text x="1116.4" y="732" font-family="'JetBrains Mono', 'Fira Code', 'SF Mono', 'Cascadia Code', monospace" font-size="11" fill="#b4f079" opacity="0.7">Exactly-once via transactions</text>
<text x="1938.7" y="212" font-family="'Inter', 'Helvetica Neue', Arial, sans-serif" font-size="14" fill="#ffffff" font-weight="700">CQRS boundary:</text><text x="1938.7" y="230" font-family="'JetBrains Mono', 'Fira Code', 'SF Mono', 'Cascadia Code', monospace" font-size="11" fill="#b4f079" opacity="0.7">write side never queries</text><text x="1938.7" y="248" font-family="'JetBrains Mono', 'Fira Code', 'SF Mono', 'Cascadia Code', monospace" font-size="11" fill="#b4f079" opacity="0.7">read side never mutates</text>
</g>
</svg>