<svg xmlns="http://www.w3.org/2000/svg" viewBox="0 0 739.5 397" width="739.5" height="397">
<defs>
  <pattern id="dotgrid" width="8" height="8" patternUnits="userSpaceOnUse">
    <rect width="8" height="8" fill="#000000"/>
    <circle cx="4" cy="4" r="0.8" fill="#b4f079" opacity="0.7"/>
  </pattern>
  <pattern id="crosshatch" width="8" height="8" patternUnits="userSpaceOnUse">
    <rect width="8" height="8" fill="#000000"/>
    <path d="M0 8L8 0M-1 1L1 -1M7 9L9 7" stroke="#b4f079" stroke-width="0.8" opacity="0.2"/>
  </pattern>
  <pattern id="hero" width="6" height="6" patternUnits="userSpaceOnUse">
    <rect width="6" height="6" fill="#3d6b23"/>
    <circle cx="3" cy="3" r="0.6" fill="#5a9a35" opacity="0.5"/>
  </pattern>
  <marker id="arrowhead" markerWidth="10" markerHeight="7" refX="9" refY="3.5" orient="auto" markerUnits="strokeWidth">
    <polygon points="0 0, 10 3.5, 0 7" fill="#b4f079"/>
  </marker>
  <marker id="arrowhead-reverse" markerWidth="10" markerHeight="7" refX="1" refY="3.5" orient="auto" markerUnits="strokeWidth">
    <polygon points="10 0, 0 3.5, 10 7" fill="#b4f079"/>
  </marker>
</defs>
<rect width="100%" height="100%" fill="#000000"/>
<g class="diagram">
<text x="30" y="34" font-family="'Inter', 'Helvetica Neue', Arial, sans-serif" font-size="15" fill="#ffffff" font-weight="700">ADR-0042: Migration from monolithic PostgreSQL to</text><text x="30" y="55" font-family="'Inter', 'Helvetica Neue', Arial, sans-serif" font-size="15" fill="#ffffff" font-weight="700">event-sourced CQRS architecture with Apache Kafka as the</text><text x="30" y="76" font-family="'Inter', 'Helvetica Neue', Arial, sans-serif" font-size="15" fill="#ffffff" font-weight="700">backbone — approved by architecture review board on</text><text x="30" y="97" font-family="'Inter', 'Helvetica Neue', Arial, sans-serif" font-size="15" fill="#ffffff" font-weight="700">2024-11-15, supersedes ADR-0031</text>
<line x1="217" y1="244" x2="306" y2="244" stroke="#b4f079" stroke-width="1.5" marker-end="url(#arrowhead)"/>
<line x1="431" y1="244" x2="565.5" y2="244" stroke="#b4f079" stroke-width="1.5" marker-end="url(#arrowhead)"/>
<rect x="220.5" y="173" width="82" height="22" rx="4" fill="#000000"/>
<rect x="432.75" y="173" width="131" height="22" rx="4" fill="#000000"/>
<rect x="36" y="203" width="181" height="82" rx="12" fill="url(#crosshatch)" stroke="#b4f079" stroke-width="1.5"/><rect x="58.5" y="224.9" width="136" height="22.2" fill="#000000" rx="2"/><text x="126.5" y="236" font-family="'JetBrains Mono', 'Fira Code', 'SF Mono', 'Cascadia Code', monospace" font-size="13" fill="#b4f079" text-anchor="middle" dominant-baseline="central" letter-spacing="0.12em">LEGACY MONOLITH</text><rect x="78.5" y="244.6" width="96" height="22.799999999999997" fill="#000000" rx="2"/><text x="126.5" y="256" font-family="'JetBrains Mono', 'Fira Code', 'SF Mono', 'Cascadia Code', monospace" font-size="12" fill="#b4f079" opacity="0.6" text-anchor="middle" dominant-baseline="central" letter-spacing="0.12em">Deprecated</text>
<rect x="306" y="203" width="125" height="82" rx="12" fill="url(#hero)" stroke="#b4f079" stroke-width="1.5"/><rect x="324.5" y="224.9" width="88" height="22.2" fill="#000000" rx="2"/><text x="368.5" y="236" font-family="'JetBrains Mono', 'Fira Code', 'SF Mono', 'Cascadia Code', monospace" font-size="13" fill="#b4f079" text-anchor="middle" dominant-baseline="central" letter-spacing="0.12em">EVENT BUS</text><rect x="340.5" y="244.6" width="56" height="22.799999999999997" fill="#000000" rx="2"/><text x="368.5" y="256" font-family="'JetBrains Mono', 'Fira Code', 'SF Mono', 'Cascadia Code', monospace" font-size="12" fill="#b4f079" opacity="0.6" text-anchor="middle" dominant-baseline="central" letter-spacing="0.12em">Kafka</text>
<rect x="565.5" y="224" width="134" height="40" rx="12" fill="url(#dotgrid)" stroke="#b4f079" stroke-width="1.5"/><rect x="584.5" y="232.9" width="96" height="22.2" fill="#000000" rx="2"/><text x="632.5" y="244" font-family="'JetBrains Mono', 'Fira Code', 'SF Mono', 'Cascadia Code', monospace" font-size="13" fill="#b4f079" text-anchor="middle" dominant-baseline="central" letter-spacing="0.12em">READ MODEL</text>
<text x="261.5" y="188" font-family="'JetBrains Mono', 'Fira Code', 'SF Mono', 'Cascadia Code', monospace" font-size="12" fill="#b4f079" opacity="0.85" text-anchor="middle">CDC stream</text>
<text x="498.25" y="188" font-family="'JetBrains Mono', 'Fira Code', 'SF Mono', 'Cascadia Code', monospace" font-size="12" fill="#b4f079" opacity="0.85" text-anchor="middle">Materialized view</text>
<text x="36" y="137" font-family="'Inter', 'Helvetica Neue', Arial, sans-serif" font-size="14" fill="#ffffff" font-weight="700">Strangler fig pattern:</text><text x="36" y="155" font-family="'JetBrains Mono', 'Fira Code', 'SF Mono', 'Cascadia Code', monospace" font-size="11" fill="#b4f079" opacity="0.7">gradual decomposition</text><text x="36" y="173" font-family="'JetBrains Mono', 'Fira Code', 'SF Mono', 'Cascadia Code', monospace" font-size="11" fill="#b4f079" opacity="0.7">over 6 sprint cycles</text>
<text x="306" y="323" font-family="'Inter', 'Helvetica Neue', Arial, sans-serif" font-size="14" fill="#ffffff" font-weight="700">Exactly-once semantics</text><text x="306" y="341" font-family="'JetBrains Mono', 'Fira Code', 'SF Mono', 'Cascadia Code', monospace" font-size="11" fill="#b4f079" opacity="0.7">via idempotent consumers</text>
</g>
</svg>