<svg xmlns="http://www.w3.org/2000/svg" viewBox="0 0 1220.4 645" width="1220.4" height="645">
<defs>
  <pattern id="dotgrid" width="8" height="8" patternUnits="userSpaceOnUse">
    <rect width="8" height="8" fill="#000000"/>
    <circle cx="4" cy="4" r="0.8" fill="#b4f079" opacity="0.7"/>
  </pattern>
  <pattern id="crosshatch" width="8" height="8" patternUnits="userSpaceOnUse">
    <rect width="8" height="8" fill="#000000"/>
    <path d="M0 8L8 0M-1 1L1 -1M7 9L9 7" stroke="#b4f079" stroke-width="0.8" opacity="0.2"/>
  </pattern>
  <pattern id="hero" width="6" height="6" patternUnits="userSpaceOnUse">
    <rect width="6" height="6" fill="#3d6b23"/>
    <circle cx="3" cy="3" r="0.6" fill="#5a9a35" opacity="0.5"/>
  </pattern>
  <marker id="arrowhead" markerWidth="10" markerHeight="7" refX="9" refY="3.5" orient="auto" markerUnits="strokeWidth">
    <polygon points="0 0, 10 3.5, 0 7" fill="#b4f079"/>
  </marker>
  <marker id="arrowhead-reverse" markerWidth="10" markerHeight="7" refX="1" refY="3.5" orient="auto" markerUnits="strokeWidth">
    <polygon points="10 0, 0 3.5, 10 7" fill="#b4f079"/>
  </marker>
</defs>
<rect width="100%" height="100%" fill="#000000"/>
<g class="diagram">
<text x="30" y="34" font-family="'Inter', 'Helvetica Neue', Arial, sans-serif" font-size="15" fill="#ffffff" font-weight="700">Multi-cloud disaster recovery with active-active-passive topology</text>
<rect x="28" y="163" width="414.2" height="426" rx="12" fill="url(#hero)" stroke="#b4f079" stroke-width="1" opacity="0.35"/><rect x="28" y="163" width="414.2" height="426" rx="12" fill="none" stroke="#b4f079" stroke-width="1" opacity="0.5"/>
<rect x="364.20000000000005" y="163" width="406" height="426" rx="12" fill="url(#dotgrid)" stroke="#b4f079" stroke-width="1" opacity="0.35"/><rect x="364.20000000000005" y="163" width="406" height="426" rx="12" fill="none" stroke="#b4f079" stroke-width="1" opacity="0.5"/>
<rect x="519.2" y="191" width="433.20000000000005" height="426" rx="12" fill="url(#crosshatch)" stroke="#b4f079" stroke-width="1" opacity="0.35"/><rect x="519.2" y="191" width="433.20000000000005" height="426" rx="12" fill="none" stroke="#b4f079" stroke-width="1" opacity="0.5"/>
<polyline points="497.70000000000005,132 497.70000000000005,201 251.20000000000005,201 251.20000000000005,213" fill="none" stroke="#b4f079" stroke-width="1.5" marker-end="url(#arrowhead)"/>
<line x1="497.70000000000005" y1="132" x2="497.70000000000005" y2="213" stroke="#b4f079" stroke-width="1.5" marker-end="url(#arrowhead)"/>
<polyline points="497.70000000000005,132 497.70000000000005,201 736.7,201 736.7,241" fill="none" stroke="#b4f079" stroke-width="1.5" stroke-dasharray="6 4" marker-end="url(#arrowhead)"/>
<line x1="244" y1="533" x2="456.20000000000005" y2="533" stroke="#b4f079" stroke-width="1.5" marker-end="url(#arrowhead)"/>
<line x1="244" y1="536.9089766857462" x2="784.2" y2="558.0252687421471" stroke="#b4f079" stroke-width="1.5" marker-end="url(#arrowhead)"/>
<line x1="426.20000000000005" y1="533" x2="611.2" y2="533" stroke="#b4f079" stroke-width="1.5" marker-start="url(#arrowhead-reverse)" marker-end="url(#arrowhead)"/>
<line x1="251.20000000000005" y1="293" x2="278.70000000000005" y2="353" stroke="#b4f079" stroke-width="1.5" marker-end="url(#arrowhead)"/>
<polyline points="278.70000000000005,433 278.70000000000005,463 144,463 144,493" fill="none" stroke="#b4f079" stroke-width="1.5" marker-end="url(#arrowhead)"/>
<line x1="278.70000000000005" y1="433" x2="350.1" y2="493" stroke="#b4f079" stroke-width="1.5" marker-end="url(#arrowhead)"/>
<line x1="497.70000000000005" y1="293" x2="442.70000000000005" y2="353" stroke="#b4f079" stroke-width="1.5" marker-end="url(#arrowhead)"/>
<line x1="442.70000000000005" y1="433" x2="518.7" y2="493" stroke="#b4f079" stroke-width="1.5" marker-end="url(#arrowhead)"/>
<polyline points="442.70000000000005,433 442.70000000000005,473 682.7,473 682.7,493" fill="none" stroke="#b4f079" stroke-width="1.5" marker-end="url(#arrowhead)"/>
<polyline points="736.7,321 736.7,351 654.2,351 654.2,381" fill="none" stroke="#b4f079" stroke-width="1.5" marker-end="url(#arrowhead)"/>
<polyline points="654.2,461 654.2,481 860.3000000000001,481 860.3000000000001,521" fill="none" stroke="#b4f079" stroke-width="1.5" marker-end="url(#arrowhead)"/>
<rect x="332.70000000000005" y="184" width="83.5" height="21" rx="4" fill="#000000"/>
<rect x="455.95000000000005" y="184" width="83.5" height="21" rx="4" fill="#000000"/>
<rect x="568.95" y="184" width="96.5" height="21" rx="4" fill="#000000"/>
<rect x="282.35" y="464" width="135.5" height="21" rx="4" fill="#000000"/>
<rect x="449.6" y="581" width="129" height="21" rx="4" fill="#000000"/>
<rect x="463.95000000000005" y="469" width="109.5" height="21" rx="4" fill="#000000"/>
<rect x="112.6" y="176" width="245" height="24" fill="#000000" rx="3"/><text x="235.1" y="189" font-family="'Inter', 'Helvetica Neue', Arial, sans-serif" font-size="14" fill="#ffffff" opacity="0.9" text-anchor="middle">AWS us-east-1 (Active Primary)</text>
<rect x="372.20000000000005" y="176" width="275" height="24" fill="#000000" rx="3"/><text x="382.20000000000005" y="189" font-family="'Inter', 'Helvetica Neue', Arial, sans-serif" font-size="14" fill="#ffffff" opacity="0.9" text-anchor="start">GCP us-central1 (Active Secondary)</text>
<rect x="527.2" y="204" width="237.5" height="24" fill="#000000" rx="3"/><text x="537.2" y="217" font-family="'Inter', 'Helvetica Neue', Arial, sans-serif" font-size="14" fill="#ffffff" opacity="0.9" text-anchor="start">Azure westeurope (Passive DR)</text>
<circle cx="497.70000000000005" cy="67" r="7" fill="none" stroke="#b4f079" stroke-width="1.5"/><line x1="497.70000000000005" y1="74" x2="497.70000000000005" y2="96" stroke="#b4f079" stroke-width="1.5"/><line x1="483.70000000000005" y1="80" x2="511.70000000000005" y2="80" stroke="#b4f079" stroke-width="1.5"/><line x1="497.70000000000005" y1="96" x2="487.70000000000005" y2="112" stroke="#b4f079" stroke-width="1.5"/><line x1="497.70000000000005" y1="96" x2="507.70000000000005" y2="112" stroke="#b4f079" stroke-width="1.5"/><text x="497.70000000000005" y="126" font-family="'JetBrains Mono', 'Fira Code', 'SF Mono', 'Cascadia Code', monospace" font-size="13" fill="#b4f079" text-anchor="middle" letter-spacing="0.12em">TRAFFIC MANAGER</text>
<rect x="148.70000000000005" y="213" width="205" height="80" rx="12" fill="url(#dotgrid)" stroke="#b4f079" stroke-width="1.5"/><rect x="231.20000000000005" y="233.9" width="40" height="22.2" fill="#000000" rx="2"/><text x="251.20000000000005" y="245" font-family="'JetBrains Mono', 'Fira Code', 'SF Mono', 'Cascadia Code', monospace" font-size="13" fill="#b4f079" text-anchor="middle" dominant-baseline="central" letter-spacing="0.12em">ALB</text><rect x="143.20000000000005" y="256.5" width="216" height="17" fill="#000000" rx="2"/><text x="251.20000000000005" y="265" font-family="'JetBrains Mono', 'Fira Code', 'SF Mono', 'Cascadia Code', monospace" font-size="11" fill="#b4f079" opacity="0.6" text-anchor="middle" dominant-baseline="central" letter-spacing="0.12em">Application Load Balancer</text>
<rect x="207.20000000000005" y="353" width="143" height="80" rx="12" fill="url(#dotgrid)" stroke="#b4f079" stroke-width="1.5"/><rect x="226.70000000000005" y="373.9" width="104" height="22.2" fill="#000000" rx="2"/><text x="278.70000000000005" y="385" font-family="'JetBrains Mono', 'Fira Code', 'SF Mono', 'Cascadia Code', monospace" font-size="13" fill="#b4f079" text-anchor="middle" dominant-baseline="central" letter-spacing="0.12em">ECS FARGATE</text><rect x="242.70000000000005" y="396.5" width="72" height="17" fill="#000000" rx="2"/><text x="278.70000000000005" y="405" font-family="'JetBrains Mono', 'Fira Code', 'SF Mono', 'Cascadia Code', monospace" font-size="11" fill="#b4f079" opacity="0.6" text-anchor="middle" dominant-baseline="central" letter-spacing="0.12em">8 tasks</text>
<rect x="44" y="503" width="200" height="60" fill="url(#crosshatch)" stroke="none"/><line x1="44" y1="503" x2="44" y2="563" stroke="#b4f079" stroke-width="1.5"/><line x1="244" y1="503" x2="244" y2="563" stroke="#b4f079" stroke-width="1.5"/><ellipse cx="144" cy="503" rx="100" ry="10" fill="url(#crosshatch)" stroke="#b4f079" stroke-width="1.5"/><path d="M44,563 A100,10 0 0,0 244,563" fill="url(#crosshatch)" stroke="#b4f079" stroke-width="1.5"/><text x="144" y="533" font-family="'JetBrains Mono', 'Fira Code', 'SF Mono', 'Cascadia Code', monospace" font-size="13" fill="#b4f079" text-anchor="middle" dominant-baseline="central" letter-spacing="0.12em">AURORA POSTGRESQL</text>
<rect x="274" y="493" width="152.2" height="80" rx="12" fill="url(#dotgrid)" stroke="#b4f079" stroke-width="1.5"/><rect x="298.1" y="513.9" width="104" height="22.2" fill="#000000" rx="2"/><text x="350.1" y="525" font-family="'JetBrains Mono', 'Fira Code', 'SF Mono', 'Cascadia Code', monospace" font-size="13" fill="#b4f079" text-anchor="middle" dominant-baseline="central" letter-spacing="0.12em">ELASTICACHE</text><rect x="274.1" y="536.5" width="152" height="17" fill="#000000" rx="2"/><text x="350.1" y="545" font-family="'JetBrains Mono', 'Fira Code', 'SF Mono', 'Cascadia Code', monospace" font-size="11" fill="#b4f079" opacity="0.6" text-anchor="middle" dominant-baseline="central" letter-spacing="0.12em">Redis 7.x cluster</text>
<rect x="383.70000000000005" y="213" width="228" height="80" rx="12" fill="url(#dotgrid)" stroke="#b4f079" stroke-width="1.5"/><rect x="409.70000000000005" y="233.9" width="176" height="22.2" fill="#000000" rx="2"/><text x="497.70000000000005" y="245" font-family="'JetBrains Mono', 'Fira Code', 'SF Mono', 'Cascadia Code', monospace" font-size="13" fill="#b4f079" text-anchor="middle" dominant-baseline="central" letter-spacing="0.12em">CLOUD LOAD BALANCING</text><rect x="429.70000000000005" y="256.5" width="136" height="17" fill="#000000" rx="2"/><text x="497.70000000000005" y="265" font-family="'JetBrains Mono', 'Fira Code', 'SF Mono', 'Cascadia Code', monospace" font-size="11" fill="#b4f079" opacity="0.6" text-anchor="middle" dominant-baseline="central" letter-spacing="0.12em">Global HTTPS LB</text>
<rect x="380.20000000000005" y="353" width="125" height="80" rx="12" fill="url(#dotgrid)" stroke="#b4f079" stroke-width="1.5"/><rect x="398.70000000000005" y="373.9" width="88" height="22.2" fill="#000000" rx="2"/><text x="442.70000000000005" y="385" font-family="'JetBrains Mono', 'Fira Code', 'SF Mono', 'Cascadia Code', monospace" font-size="13" fill="#b4f079" text-anchor="middle" dominant-baseline="central" letter-spacing="0.12em">CLOUD RUN</text><rect x="390.70000000000005" y="396.5" width="104" height="17" fill="#000000" rx="2"/><text x="442.70000000000005" y="405" font-family="'JetBrains Mono', 'Fira Code', 'SF Mono', 'Cascadia Code', monospace" font-size="11" fill="#b4f079" opacity="0.6" text-anchor="middle" dominant-baseline="central" letter-spacing="0.12em">6 instances</text>
<rect x="456.2" y="503" width="125" height="60" fill="url(#crosshatch)" stroke="none"/><line x1="456.2" y1="503" x2="456.2" y2="563" stroke="#b4f079" stroke-width="1.5"/><line x1="581.2" y1="503" x2="581.2" y2="563" stroke="#b4f079" stroke-width="1.5"/><ellipse cx="518.7" cy="503" rx="62.5" ry="10" fill="url(#crosshatch)" stroke="#b4f079" stroke-width="1.5"/><path d="M456.2,563 A62.5,10 0 0,0 581.2,563" fill="url(#crosshatch)" stroke="#b4f079" stroke-width="1.5"/><text x="518.7" y="533" font-family="'JetBrains Mono', 'Fira Code', 'SF Mono', 'Cascadia Code', monospace" font-size="13" fill="#b4f079" text-anchor="middle" dominant-baseline="central" letter-spacing="0.12em">CLOUD SQL</text>
<rect x="611.2" y="493" width="143" height="80" rx="12" fill="url(#dotgrid)" stroke="#b4f079" stroke-width="1.5"/><rect x="630.7" y="513.9" width="104" height="22.2" fill="#000000" rx="2"/><text x="682.7" y="525" font-family="'JetBrains Mono', 'Fira Code', 'SF Mono', 'Cascadia Code', monospace" font-size="13" fill="#b4f079" text-anchor="middle" dominant-baseline="central" letter-spacing="0.12em">MEMORYSTORE</text><rect x="638.7" y="536.5" width="88" height="17" fill="#000000" rx="2"/><text x="682.7" y="545" font-family="'JetBrains Mono', 'Fira Code', 'SF Mono', 'Cascadia Code', monospace" font-size="11" fill="#b4f079" opacity="0.6" text-anchor="middle" dominant-baseline="central" letter-spacing="0.12em">Redis 7.x</text>
<rect x="641.7" y="241" width="190" height="80" rx="12" fill="url(#dotgrid)" stroke="#b4f079" stroke-width="1.5"/><rect x="664.7" y="261.9" width="144" height="22.2" fill="#000000" rx="2"/><text x="736.7" y="273" font-family="'JetBrains Mono', 'Fira Code', 'SF Mono', 'Cascadia Code', monospace" font-size="13" fill="#b4f079" text-anchor="middle" dominant-baseline="central" letter-spacing="0.12em">AZURE FRONT DOOR</text><rect x="700.7" y="284.5" width="72" height="17" fill="#000000" rx="2"/><text x="736.7" y="293" font-family="'JetBrains Mono', 'Fira Code', 'SF Mono', 'Cascadia Code', monospace" font-size="11" fill="#b4f079" opacity="0.6" text-anchor="middle" dominant-baseline="central" letter-spacing="0.12em">Standby</text>
<rect x="535.2" y="381" width="238" height="80" rx="12" fill="url(#dotgrid)" stroke="#b4f079" stroke-width="1.5"/><rect x="590.2" y="401.9" width="128" height="22.2" fill="#000000" rx="2"/><text x="654.2" y="413" font-family="'JetBrains Mono', 'Fira Code', 'SF Mono', 'Cascadia Code', monospace" font-size="13" fill="#b4f079" text-anchor="middle" dominant-baseline="central" letter-spacing="0.12em">CONTAINER APPS</text><rect x="526.2" y="424.5" width="256" height="17" fill="#000000" rx="2"/><text x="654.2" y="433" font-family="'JetBrains Mono', 'Fira Code', 'SF Mono', 'Cascadia Code', monospace" font-size="11" fill="#b4f079" opacity="0.6" text-anchor="middle" dominant-baseline="central" letter-spacing="0.12em">0 replicas — scale on failover</text>
<rect x="784.2" y="531" width="152.2" height="60" fill="url(#crosshatch)" stroke="none"/><line x1="784.2" y1="531" x2="784.2" y2="591" stroke="#b4f079" stroke-width="1.5"/><line x1="936.4000000000001" y1="531" x2="936.4000000000001" y2="591" stroke="#b4f079" stroke-width="1.5"/><ellipse cx="860.3000000000001" cy="531" rx="76.1" ry="10" fill="url(#crosshatch)" stroke="#b4f079" stroke-width="1.5"/><path d="M784.2,591 A76.1,10 0 0,0 936.4000000000001,591" fill="url(#crosshatch)" stroke="#b4f079" stroke-width="1.5"/><text x="860.3000000000001" y="561" font-family="'JetBrains Mono', 'Fira Code', 'SF Mono', 'Cascadia Code', monospace" font-size="13" fill="#b4f079" text-anchor="middle" dominant-baseline="central" letter-spacing="0.12em">AZURE SQL</text>
<text x="374.45000000000005" y="198" font-family="'JetBrains Mono', 'Fira Code', 'SF Mono', 'Cascadia Code', monospace" font-size="11" fill="#b4f079" opacity="0.85" text-anchor="middle">60% traffic</text>
<text x="497.70000000000005" y="198" font-family="'JetBrains Mono', 'Fira Code', 'SF Mono', 'Cascadia Code', monospace" font-size="11" fill="#b4f079" opacity="0.85" text-anchor="middle">40% traffic</text>
<text x="617.2" y="198" font-family="'JetBrains Mono', 'Fira Code', 'SF Mono', 'Cascadia Code', monospace" font-size="11" fill="#b4f079" opacity="0.85" text-anchor="middle">Failover only</text>
<text x="350.1" y="478" font-family="'JetBrains Mono', 'Fira Code', 'SF Mono', 'Cascadia Code', monospace" font-size="11" fill="#b4f079" opacity="0.85" text-anchor="middle">Logical replication</text>
<text x="514.1" y="595" font-family="'JetBrains Mono', 'Fira Code', 'SF Mono', 'Cascadia Code', monospace" font-size="11" fill="#b4f079" opacity="0.85" text-anchor="middle">Async WAL shipping</text>
<text x="518.7" y="483" font-family="'JetBrains Mono', 'Fira Code', 'SF Mono', 'Cascadia Code', monospace" font-size="11" fill="#b4f079" opacity="0.85" text-anchor="middle">CRDT-based sync</text>
<text x="148.70000000000005" y="93" font-family="'Inter', 'Helvetica Neue', Arial, sans-serif" font-size="14" fill="#ffffff" font-weight="700">RPO: 0 seconds</text><text x="148.70000000000005" y="111" font-family="'JetBrains Mono', 'Fira Code', 'SF Mono', 'Cascadia Code', monospace" font-size="11" fill="#b4f079" opacity="0.7">RTO: &lt; 30 seconds</text><text x="148.70000000000005" y="129" font-family="'JetBrains Mono', 'Fira Code', 'SF Mono', 'Cascadia Code', monospace" font-size="11" fill="#b4f079" opacity="0.7">Active-active read/write</text>
<text x="960.4000000000001" y="217" font-family="'Inter', 'Helvetica Neue', Arial, sans-serif" font-size="14" fill="#ffffff" font-weight="700">RPO: &lt; 5 seconds</text><text x="960.4000000000001" y="235" font-family="'JetBrains Mono', 'Fira Code', 'SF Mono', 'Cascadia Code', monospace" font-size="11" fill="#b4f079" opacity="0.7">RTO: &lt; 60 seconds</text><text x="960.4000000000001" y="253" font-family="'JetBrains Mono', 'Fira Code', 'SF Mono', 'Cascadia Code', monospace" font-size="11" fill="#b4f079" opacity="0.7">Read-write via conflict resolution</text>
<text x="641.7" y="103" font-family="'Inter', 'Helvetica Neue', Arial, sans-serif" font-size="14" fill="#ffffff" font-weight="700">RPO: &lt; 30 seconds</text><text x="641.7" y="121" font-family="'JetBrains Mono', 'Fira Code', 'SF Mono', 'Cascadia Code', monospace" font-size="11" fill="#b4f079" opacity="0.7">RTO: &lt; 5 minutes</text><text x="641.7" y="139" font-family="'JetBrains Mono', 'Fira Code', 'SF Mono', 'Cascadia Code', monospace" font-size="11" fill="#b4f079" opacity="0.7">Manual promotion required</text>
<text x="627.7" y="175" font-family="'Inter', 'Helvetica Neue', Arial, sans-serif" font-size="14" fill="#ffffff" font-weight="700">Global traffic split</text><text x="627.7" y="193" font-family="'JetBrains Mono', 'Fira Code', 'SF Mono', 'Cascadia Code', monospace" font-size="11" fill="#b4f079" opacity="0.7">via latency-based routing</text><text x="627.7" y="211" font-family="'JetBrains Mono', 'Fira Code', 'SF Mono', 'Cascadia Code', monospace" font-size="11" fill="#b4f079" opacity="0.7">with health checks every 10s</text>
</g>
</svg>