<svg xmlns="http://www.w3.org/2000/svg" viewBox="0 0 1280.1999999999998 954" width="1280.1999999999998" height="954">
<defs>
  <pattern id="dotgrid" width="8" height="8" patternUnits="userSpaceOnUse">
    <rect width="8" height="8" fill="#000000"/>
    <circle cx="4" cy="4" r="0.8" fill="#b4f079" opacity="0.7"/>
  </pattern>
  <pattern id="crosshatch" width="8" height="8" patternUnits="userSpaceOnUse">
    <rect width="8" height="8" fill="#000000"/>
    <path d="M0 8L8 0M-1 1L1 -1M7 9L9 7" stroke="#b4f079" stroke-width="0.8" opacity="0.2"/>
  </pattern>
  <pattern id="hero" width="6" height="6" patternUnits="userSpaceOnUse">
    <rect width="6" height="6" fill="#3d6b23"/>
    <circle cx="3" cy="3" r="0.6" fill="#5a9a35" opacity="0.5"/>
  </pattern>
  <marker id="arrowhead" markerWidth="10" markerHeight="7" refX="9" refY="3.5" orient="auto" markerUnits="strokeWidth">
    <polygon points="0 0, 10 3.5, 0 7" fill="#b4f079"/>
  </marker>
  <marker id="arrowhead-reverse" markerWidth="10" markerHeight="7" refX="1" refY="3.5" orient="auto" markerUnits="strokeWidth">
    <polygon points="10 0, 0 3.5, 10 7" fill="#b4f079"/>
  </marker>
</defs>
<rect width="100%" height="100%" fill="#000000"/>
<g class="diagram">
<text x="30" y="34" font-family="'Inter', 'Helvetica Neue', Arial, sans-serif" font-size="15" fill="#ffffff" font-weight="700">Multi-cloud disaster recovery with active-active-passive topology</text>
<rect x="36" y="163" width="424.4" height="438" rx="12" fill="url(#hero)" stroke="#b4f079" stroke-width="1" opacity="0.35"/><rect x="36" y="163" width="424.4" height="438" rx="12" fill="none" stroke="#b4f079" stroke-width="1" opacity="0.5"/>
<rect x="374.09999999999997" y="551" width="415.7" height="381" rx="12" fill="url(#dotgrid)" stroke="#b4f079" stroke-width="1" opacity="0.35"/><rect x="374.09999999999997" y="551" width="415.7" height="381" rx="12" fill="none" stroke="#b4f079" stroke-width="1" opacity="0.5"/>
<rect x="529.0999999999999" y="229" width="453.1" height="438" rx="12" fill="url(#crosshatch)" stroke="#b4f079" stroke-width="1" opacity="0.35"/><rect x="529.0999999999999" y="229" width="453.1" height="438" rx="12" fill="none" stroke="#b4f079" stroke-width="1" opacity="0.5"/>
<polyline points="524.1,132 524.1,205 270.09999999999997,205 270.09999999999997,219" fill="none" stroke="#b4f079" stroke-width="1.5" marker-end="url(#arrowhead)"/>
<line x1="524.1" y1="132" x2="524.0999999999999" y2="607" stroke="#b4f079" stroke-width="1.5" marker-end="url(#arrowhead)"/>
<polyline points="524.1,132 524.1,208.5 763.0999999999999,208.5 763.0999999999999,285" fill="none" stroke="#b4f079" stroke-width="1.5" stroke-dasharray="6 4" marker-end="url(#arrowhead)"/>
<polyline points="152,585 152,680 537.6,680 537.6,834" fill="none" stroke="#b4f079" stroke-width="1.5" marker-end="url(#arrowhead)"/>
<line x1="252" y1="553.0040927694406" x2="803.8" y2="621" stroke="#b4f079" stroke-width="1.5" marker-end="url(#arrowhead)"/>
<polyline points="363.2,585 363.2,680 702.3,680 630.8,864" fill="none" stroke="#b4f079" stroke-width="1.5" marker-end="url(#arrowhead)"/>
<line x1="270.09999999999997" y1="301" x2="288.59999999999997" y2="361" stroke="#b4f079" stroke-width="1.5" marker-end="url(#arrowhead)"/>
<polyline points="288.59999999999997,443 288.59999999999997,473 152,473 152,503" fill="none" stroke="#b4f079" stroke-width="1.5" marker-end="url(#arrowhead)"/>
<line x1="288.59999999999997" y1="443" x2="363.2" y2="503" stroke="#b4f079" stroke-width="1.5" marker-end="url(#arrowhead)"/>
<line x1="524.0999999999999" y1="689" x2="452.59999999999997" y2="692" stroke="#b4f079" stroke-width="1.5" marker-end="url(#arrowhead)"/>
<polyline points="452.59999999999997,774 452.59999999999997,804 537.6,804 537.6,834" fill="none" stroke="#b4f079" stroke-width="1.5" marker-end="url(#arrowhead)"/>
<polyline points="452.59999999999997,774 452.59999999999997,822 702.3,822 630.8,886" fill="none" stroke="#b4f079" stroke-width="1.5" marker-end="url(#arrowhead)"/>
<polyline points="763.0999999999999,367 763.0999999999999,397 673.0999999999999,397 673.0999999999999,427" fill="none" stroke="#b4f079" stroke-width="1.5" marker-end="url(#arrowhead)"/>
<polyline points="673.0999999999999,509 673.0999999999999,593 885,593 803.8,599" fill="none" stroke="#b4f079" stroke-width="1.5" marker-end="url(#arrowhead)"/>
<rect x="322.6" y="208" width="89" height="22" rx="4" fill="#000000"/>
<rect x="479.5999999999999" y="358.5" width="89" height="22" rx="4" fill="#000000"/>
<rect x="622.0999999999999" y="226" width="103" height="22" rx="4" fill="#000000"/>
<rect x="257.3" y="662" width="145" height="22" rx="4" fill="#000000"/>
<rect x="473.9" y="596" width="138" height="22" rx="4" fill="#000000"/>
<rect x="474.25" y="679.4" width="117" height="22" rx="4" fill="#000000"/>
<rect x="125.69999999999999" y="176" width="245" height="24" fill="#000000" rx="3"/><text x="248.2" y="189" font-family="'Inter', 'Helvetica Neue', Arial, sans-serif" font-size="14" fill="#ffffff" opacity="0.9" text-anchor="middle">AWS us-east-1 (Active Primary)</text>
<rect x="444.44999999999993" y="564" width="275" height="24" fill="#000000" rx="3"/><text x="581.9499999999999" y="577" font-family="'Inter', 'Helvetica Neue', Arial, sans-serif" font-size="14" fill="#ffffff" opacity="0.9" text-anchor="middle">GCP us-central1 (Active Secondary)</text>
<rect x="636.8999999999999" y="242" width="237.5" height="24" fill="#000000" rx="3"/><text x="755.6499999999999" y="255" font-family="'Inter', 'Helvetica Neue', Arial, sans-serif" font-size="14" fill="#ffffff" opacity="0.9" text-anchor="middle">Azure westeurope (Passive DR)</text>
<circle cx="524.1" cy="67" r="7" fill="none" stroke="#b4f079" stroke-width="1.5"/><line x1="524.1" y1="74" x2="524.1" y2="96" stroke="#b4f079" stroke-width="1.5"/><line x1="510.1" y1="80" x2="538.1" y2="80" stroke="#b4f079" stroke-width="1.5"/><line x1="524.1" y1="96" x2="514.1" y2="112" stroke="#b4f079" stroke-width="1.5"/><line x1="524.1" y1="96" x2="534.1" y2="112" stroke="#b4f079" stroke-width="1.5"/><text x="524.1" y="126" font-family="'JetBrains Mono', 'Fira Code', 'SF Mono', 'Cascadia Code', monospace" font-size="13" fill="#b4f079" text-anchor="middle" letter-spacing="0.12em">TRAFFIC MANAGER</text>
<rect x="160.09999999999997" y="219" width="220" height="82" rx="12" fill="url(#dotgrid)" stroke="#b4f079" stroke-width="1.5"/><rect x="250.09999999999997" y="240.9" width="40" height="22.2" fill="#000000" rx="2"/><text x="270.09999999999997" y="252" font-family="'JetBrains Mono', 'Fira Code', 'SF Mono', 'Cascadia Code', monospace" font-size="13" fill="#b4f079" text-anchor="middle" dominant-baseline="central" letter-spacing="0.12em">ALB</text><rect x="162.09999999999997" y="260.6" width="216" height="22.799999999999997" fill="#000000" rx="2"/><text x="270.09999999999997" y="272" font-family="'JetBrains Mono', 'Fira Code', 'SF Mono', 'Cascadia Code', monospace" font-size="12" fill="#b4f079" opacity="0.6" text-anchor="middle" dominant-baseline="central" letter-spacing="0.12em">Application Load Balancer</text>
<rect x="217.09999999999997" y="361" width="143" height="82" rx="12" fill="url(#dotgrid)" stroke="#b4f079" stroke-width="1.5"/><rect x="236.59999999999997" y="382.9" width="104" height="22.2" fill="#000000" rx="2"/><text x="288.59999999999997" y="394" font-family="'JetBrains Mono', 'Fira Code', 'SF Mono', 'Cascadia Code', monospace" font-size="13" fill="#b4f079" text-anchor="middle" dominant-baseline="central" letter-spacing="0.12em">ECS FARGATE</text><rect x="252.59999999999997" y="402.6" width="72" height="22.799999999999997" fill="#000000" rx="2"/><text x="288.59999999999997" y="414" font-family="'JetBrains Mono', 'Fira Code', 'SF Mono', 'Cascadia Code', monospace" font-size="12" fill="#b4f079" opacity="0.6" text-anchor="middle" dominant-baseline="central" letter-spacing="0.12em">8 tasks</text>
<rect x="52" y="513" width="200" height="62" fill="url(#crosshatch)" stroke="none"/><line x1="52" y1="513" x2="52" y2="575" stroke="#b4f079" stroke-width="1.5"/><line x1="252" y1="513" x2="252" y2="575" stroke="#b4f079" stroke-width="1.5"/><ellipse cx="152" cy="513" rx="100" ry="10" fill="url(#crosshatch)" stroke="#b4f079" stroke-width="1.5"/><path d="M52,575 A100,10 0 0,0 252,575" fill="url(#crosshatch)" stroke="#b4f079" stroke-width="1.5"/><rect x="76" y="524.9" width="152" height="22.2" fill="#000000" rx="2"/><text x="152" y="536" font-family="'JetBrains Mono', 'Fira Code', 'SF Mono', 'Cascadia Code', monospace" font-size="13" fill="#b4f079" text-anchor="middle" dominant-baseline="central" letter-spacing="0.12em">AURORA POSTGRESQL</text><rect x="84" y="544.6" width="136" height="22.799999999999997" fill="#000000" rx="2"/><text x="152" y="556" font-family="'JetBrains Mono', 'Fira Code', 'SF Mono', 'Cascadia Code', monospace" font-size="12" fill="#b4f079" opacity="0.6" text-anchor="middle" dominant-baseline="central" letter-spacing="0.12em">Writer instance</text>
<rect x="282" y="503" width="162.39999999999998" height="82" rx="12" fill="url(#dotgrid)" stroke="#b4f079" stroke-width="1.5"/><rect x="311.2" y="524.9" width="104" height="22.2" fill="#000000" rx="2"/><text x="363.2" y="536" font-family="'JetBrains Mono', 'Fira Code', 'SF Mono', 'Cascadia Code', monospace" font-size="13" fill="#b4f079" text-anchor="middle" dominant-baseline="central" letter-spacing="0.12em">ELASTICACHE</text><rect x="287.2" y="544.6" width="152" height="22.799999999999997" fill="#000000" rx="2"/><text x="363.2" y="556" font-family="'JetBrains Mono', 'Fira Code', 'SF Mono', 'Cascadia Code', monospace" font-size="12" fill="#b4f079" opacity="0.6" text-anchor="middle" dominant-baseline="central" letter-spacing="0.12em">Redis 7.x cluster</text>
<rect x="410.09999999999997" y="607" width="228" height="82" rx="12" fill="url(#dotgrid)" stroke="#b4f079" stroke-width="1.5"/><rect x="436.0999999999999" y="628.9" width="176" height="22.2" fill="#000000" rx="2"/><text x="524.0999999999999" y="640" font-family="'JetBrains Mono', 'Fira Code', 'SF Mono', 'Cascadia Code', monospace" font-size="13" fill="#b4f079" text-anchor="middle" dominant-baseline="central" letter-spacing="0.12em">CLOUD LOAD BALANCING</text><rect x="456.0999999999999" y="648.6" width="136" height="22.799999999999997" fill="#000000" rx="2"/><text x="524.0999999999999" y="660" font-family="'JetBrains Mono', 'Fira Code', 'SF Mono', 'Cascadia Code', monospace" font-size="12" fill="#b4f079" opacity="0.6" text-anchor="middle" dominant-baseline="central" letter-spacing="0.12em">Global HTTPS LB</text>
<rect x="390.09999999999997" y="692" width="125" height="82" rx="12" fill="url(#dotgrid)" stroke="#b4f079" stroke-width="1.5"/><rect x="408.59999999999997" y="713.9" width="88" height="22.2" fill="#000000" rx="2"/><text x="452.59999999999997" y="725" font-family="'JetBrains Mono', 'Fira Code', 'SF Mono', 'Cascadia Code', monospace" font-size="13" fill="#b4f079" text-anchor="middle" dominant-baseline="central" letter-spacing="0.12em">CLOUD RUN</text><rect x="400.59999999999997" y="733.6" width="104" height="22.799999999999997" fill="#000000" rx="2"/><text x="452.59999999999997" y="745" font-family="'JetBrains Mono', 'Fira Code', 'SF Mono', 'Cascadia Code', monospace" font-size="12" fill="#b4f079" opacity="0.6" text-anchor="middle" dominant-baseline="central" letter-spacing="0.12em">6 instances</text>
<rect x="474.4" y="844" width="126.39999999999999" height="62" fill="url(#crosshatch)" stroke="none"/><line x1="474.4" y1="844" x2="474.4" y2="906" stroke="#b4f079" stroke-width="1.5"/><line x1="600.8" y1="844" x2="600.8" y2="906" stroke="#b4f079" stroke-width="1.5"/><ellipse cx="537.6" cy="844" rx="63.199999999999996" ry="10" fill="url(#crosshatch)" stroke="#b4f079" stroke-width="1.5"/><path d="M474.4,906 A63.199999999999996,10 0 0,0 600.8,906" fill="url(#crosshatch)" stroke="#b4f079" stroke-width="1.5"/><rect x="493.6" y="855.9" width="88" height="22.2" fill="#000000" rx="2"/><text x="537.6" y="867" font-family="'JetBrains Mono', 'Fira Code', 'SF Mono', 'Cascadia Code', monospace" font-size="13" fill="#b4f079" text-anchor="middle" dominant-baseline="central" letter-spacing="0.12em">CLOUD SQL</text><rect x="481.6" y="875.6" width="112" height="22.799999999999997" fill="#000000" rx="2"/><text x="537.6" y="887" font-family="'JetBrains Mono', 'Fira Code', 'SF Mono', 'Cascadia Code', monospace" font-size="12" fill="#b4f079" opacity="0.6" text-anchor="middle" dominant-baseline="central" letter-spacing="0.12em">Read replica</text>
<rect x="630.8" y="834" width="143" height="82" rx="12" fill="url(#dotgrid)" stroke="#b4f079" stroke-width="1.5"/><rect x="650.3" y="855.9" width="104" height="22.2" fill="#000000" rx="2"/><text x="702.3" y="867" font-family="'JetBrains Mono', 'Fira Code', 'SF Mono', 'Cascadia Code', monospace" font-size="13" fill="#b4f079" text-anchor="middle" dominant-baseline="central" letter-spacing="0.12em">MEMORYSTORE</text><rect x="658.3" y="875.6" width="88" height="22.799999999999997" fill="#000000" rx="2"/><text x="702.3" y="887" font-family="'JetBrains Mono', 'Fira Code', 'SF Mono', 'Cascadia Code', monospace" font-size="12" fill="#b4f079" opacity="0.6" text-anchor="middle" dominant-baseline="central" letter-spacing="0.12em">Redis 7.x</text>
<rect x="668.0999999999999" y="285" width="190" height="82" rx="12" fill="url(#dotgrid)" stroke="#b4f079" stroke-width="1.5"/><rect x="691.0999999999999" y="306.9" width="144" height="22.2" fill="#000000" rx="2"/><text x="763.0999999999999" y="318" font-family="'JetBrains Mono', 'Fira Code', 'SF Mono', 'Cascadia Code', monospace" font-size="13" fill="#b4f079" text-anchor="middle" dominant-baseline="central" letter-spacing="0.12em">AZURE FRONT DOOR</text><rect x="727.0999999999999" y="326.6" width="72" height="22.799999999999997" fill="#000000" rx="2"/><text x="763.0999999999999" y="338" font-family="'JetBrains Mono', 'Fira Code', 'SF Mono', 'Cascadia Code', monospace" font-size="12" fill="#b4f079" opacity="0.6" text-anchor="middle" dominant-baseline="central" letter-spacing="0.12em">Standby</text>
<rect x="545.0999999999999" y="427" width="256" height="82" rx="12" fill="url(#dotgrid)" stroke="#b4f079" stroke-width="1.5"/><rect x="609.0999999999999" y="448.9" width="128" height="22.2" fill="#000000" rx="2"/><text x="673.0999999999999" y="460" font-family="'JetBrains Mono', 'Fira Code', 'SF Mono', 'Cascadia Code', monospace" font-size="13" fill="#b4f079" text-anchor="middle" dominant-baseline="central" letter-spacing="0.12em">CONTAINER APPS</text><rect x="545.0999999999999" y="468.6" width="256" height="22.799999999999997" fill="#000000" rx="2"/><text x="673.0999999999999" y="480" font-family="'JetBrains Mono', 'Fira Code', 'SF Mono', 'Cascadia Code', monospace" font-size="12" fill="#b4f079" opacity="0.6" text-anchor="middle" dominant-baseline="central" letter-spacing="0.12em">0 replicas — scale on failover</text>
<rect x="803.8" y="579" width="162.39999999999998" height="62" fill="url(#crosshatch)" stroke="none"/><line x1="803.8" y1="579" x2="803.8" y2="641" stroke="#b4f079" stroke-width="1.5"/><line x1="966.1999999999999" y1="579" x2="966.1999999999999" y2="641" stroke="#b4f079" stroke-width="1.5"/><ellipse cx="885" cy="579" rx="81.19999999999999" ry="10" fill="url(#crosshatch)" stroke="#b4f079" stroke-width="1.5"/><path d="M803.8,641 A81.19999999999999,10 0 0,0 966.1999999999999,641" fill="url(#crosshatch)" stroke="#b4f079" stroke-width="1.5"/><rect x="841" y="590.9" width="88" height="22.2" fill="#000000" rx="2"/><text x="885" y="602" font-family="'JetBrains Mono', 'Fira Code', 'SF Mono', 'Cascadia Code', monospace" font-size="13" fill="#b4f079" text-anchor="middle" dominant-baseline="central" letter-spacing="0.12em">AZURE SQL</text><rect x="809" y="610.6" width="152" height="22.799999999999997" fill="#000000" rx="2"/><text x="885" y="622" font-family="'JetBrains Mono', 'Fira Code', 'SF Mono', 'Cascadia Code', monospace" font-size="12" fill="#b4f079" opacity="0.6" text-anchor="middle" dominant-baseline="central" letter-spacing="0.12em">Async geo-replica</text>
<text x="367.1" y="223" font-family="'JetBrains Mono', 'Fira Code', 'SF Mono', 'Cascadia Code', monospace" font-size="12" fill="#b4f079" opacity="0.85" text-anchor="middle">60% traffic</text>
<text x="524.0999999999999" y="373.5" font-family="'JetBrains Mono', 'Fira Code', 'SF Mono', 'Cascadia Code', monospace" font-size="12" fill="#b4f079" opacity="0.85" text-anchor="middle">40% traffic</text>
<text x="673.5999999999999" y="241" font-family="'JetBrains Mono', 'Fira Code', 'SF Mono', 'Cascadia Code', monospace" font-size="12" fill="#b4f079" opacity="0.85" text-anchor="middle">Failover only</text>
<text x="329.8" y="677" font-family="'JetBrains Mono', 'Fira Code', 'SF Mono', 'Cascadia Code', monospace" font-size="12" fill="#b4f079" opacity="0.85" text-anchor="middle">Logical replication</text>
<text x="542.9" y="611" font-family="'JetBrains Mono', 'Fira Code', 'SF Mono', 'Cascadia Code', monospace" font-size="12" fill="#b4f079" opacity="0.85" text-anchor="middle">Async WAL shipping</text>
<text x="532.75" y="694.4" font-family="'JetBrains Mono', 'Fira Code', 'SF Mono', 'Cascadia Code', monospace" font-size="12" fill="#b4f079" opacity="0.85" text-anchor="middle">CRDT-based sync</text>
<text x="160.09999999999997" y="93" font-family="'Inter', 'Helvetica Neue', Arial, sans-serif" font-size="14" fill="#ffffff" font-weight="700">RPO: 0 seconds</text><text x="160.09999999999997" y="111" font-family="'JetBrains Mono', 'Fira Code', 'SF Mono', 'Cascadia Code', monospace" font-size="11" fill="#b4f079" opacity="0.7">RTO: &lt; 30 seconds</text><text x="160.09999999999997" y="129" font-family="'JetBrains Mono', 'Fira Code', 'SF Mono', 'Cascadia Code', monospace" font-size="11" fill="#b4f079" opacity="0.7">Active-active read/write</text>
<text x="990.1999999999999" y="331" font-family="'Inter', 'Helvetica Neue', Arial, sans-serif" font-size="14" fill="#ffffff" font-weight="700">RPO: &lt; 5 seconds</text><text x="990.1999999999999" y="349" font-family="'JetBrains Mono', 'Fira Code', 'SF Mono', 'Cascadia Code', monospace" font-size="11" fill="#b4f079" opacity="0.7">RTO: &lt; 60 seconds</text><text x="990.1999999999999" y="367" font-family="'JetBrains Mono', 'Fira Code', 'SF Mono', 'Cascadia Code', monospace" font-size="11" fill="#b4f079" opacity="0.7">Read-write via conflict resolution</text>
<text x="668.0999999999999" y="288" font-family="'Inter', 'Helvetica Neue', Arial, sans-serif" font-size="14" fill="#ffffff" font-weight="700">RPO: &lt; 30 seconds</text><text x="668.0999999999999" y="306" font-family="'JetBrains Mono', 'Fira Code', 'SF Mono', 'Cascadia Code', monospace" font-size="11" fill="#b4f079" opacity="0.7">RTO: &lt; 5 minutes</text><text x="668.0999999999999" y="324" font-family="'JetBrains Mono', 'Fira Code', 'SF Mono', 'Cascadia Code', monospace" font-size="11" fill="#b4f079" opacity="0.7">Manual promotion required</text>
<text x="610.3" y="178" font-family="'Inter', 'Helvetica Neue', Arial, sans-serif" font-size="14" fill="#ffffff" font-weight="700">Global traffic split</text><text x="610.3" y="196" font-family="'JetBrains Mono', 'Fira Code', 'SF Mono', 'Cascadia Code', monospace" font-size="11" fill="#b4f079" opacity="0.7">via latency-based routing</text><text x="610.3" y="214" font-family="'JetBrains Mono', 'Fira Code', 'SF Mono', 'Cascadia Code', monospace" font-size="11" fill="#b4f079" opacity="0.7">with health checks every 10s</text>
</g>
</svg>