<svg xmlns="http://www.w3.org/2000/svg" viewBox="0 0 1852.1200000000001 613.52" width="1852.1200000000001" height="613.52">
<defs>
  <pattern id="dotgrid" width="8" height="8" patternUnits="userSpaceOnUse">
    <rect width="8" height="8" fill="#000000"/>
    <circle cx="4" cy="4" r="0.8" fill="#b4f079" opacity="0.7"/>
  </pattern>
  <pattern id="crosshatch" width="8" height="8" patternUnits="userSpaceOnUse">
    <rect width="8" height="8" fill="#000000"/>
    <path d="M0 8L8 0M-1 1L1 -1M7 9L9 7" stroke="#b4f079" stroke-width="0.8" opacity="0.2"/>
  </pattern>
  <pattern id="hero" width="6" height="6" patternUnits="userSpaceOnUse">
    <rect width="6" height="6" fill="#3d6b23"/>
    <circle cx="3" cy="3" r="0.6" fill="#5a9a35" opacity="0.5"/>
  </pattern>
  <marker id="arrowhead" markerWidth="10" markerHeight="7" refX="9" refY="3.5" orient="auto" markerUnits="strokeWidth">
    <polygon points="0 0, 10 3.5, 0 7" fill="#b4f079"/>
  </marker>
  <marker id="arrowhead-reverse" markerWidth="10" markerHeight="7" refX="1" refY="3.5" orient="auto" markerUnits="strokeWidth">
    <polygon points="10 0, 0 3.5, 10 7" fill="#b4f079"/>
  </marker>
</defs>
<rect width="100%" height="100%" fill="#000000"/>
<g class="diagram">
<text x="30" y="34" font-family="'Inter', 'Helvetica Neue', Arial, sans-serif" font-size="15" fill="#ffffff" font-weight="700">Order saga orchestration with compensation diamond</text>
<line x1="91.44" y1="307.16589794565937" x2="214.38" y2="310.7302617627568" stroke="#b4f079" stroke-width="1.5" marker-end="url(#arrowhead)"/>
<line x1="404.43333333333334" y1="272.76" x2="590.1466666666666" y2="183.76" stroke="#b4f079" stroke-width="1.5" marker-end="url(#arrowhead)"/>
<line x1="423.38" y1="297.0667092651757" x2="541.38" y2="278.2168690095846" stroke="#b4f079" stroke-width="1.5" marker-end="url(#arrowhead)"/>
<line x1="423.38" y1="330.4532907348243" x2="541.38" y2="349.30313099041535" stroke="#b4f079" stroke-width="1.5" marker-end="url(#arrowhead)"/>
<line x1="697.78" y1="183.76" x2="895.48" y2="243.76" stroke="#b4f079" stroke-width="1.5" marker-end="url(#arrowhead)"/>
<line x1="722.38" y1="263.76" x2="866.38" y2="263.76" stroke="#b4f079" stroke-width="1.5" marker-end="url(#arrowhead)"/>
<line x1="697.78" y1="343.76" x2="895.48" y2="283.76" stroke="#b4f079" stroke-width="1.5" marker-end="url(#arrowhead)"/>
<line x1="989.3267680608365" y1="283.76" x2="1295.73356690718" y2="503.0388791743899" stroke="#b4f079" stroke-width="1.5" marker-end="url(#arrowhead)"/>
<line x1="1006.5385156058" y1="243.76" x2="1236.3050430081103" y2="142" stroke="#b4f079" stroke-width="1.5" stroke-dasharray="6 4" marker-end="url(#arrowhead)"/>
<line x1="1056.38" y1="258.3934693877551" x2="1219.88" y2="249.15738775510204" stroke="#b4f079" stroke-width="1.5" stroke-dasharray="6 4" marker-end="url(#arrowhead)"/>
<line x1="1022.0035565819861" y1="283.76" x2="1219.88" y2="349.04038095238093" stroke="#b4f079" stroke-width="1.5" stroke-dasharray="6 4" marker-end="url(#arrowhead)"/>
<polyline points="1384.7142015180832,142 1384.7142015180832,205 1662.026349450288,205 1662.026349450288,345.6350078640966" fill="none" stroke="#b4f079" stroke-width="1.5" stroke-dasharray="6 4" marker-end="url(#arrowhead)"/>
<line x1="1437.88" y1="280.7509289617486" x2="1656.3645701497924" y2="356.4206123283816" stroke="#b4f079" stroke-width="1.5" stroke-dasharray="6 4" marker-end="url(#arrowhead)"/>
<line x1="1437.88" y1="380.46131147540984" x2="1654.1552896738797" y2="371.4557502332516" stroke="#b4f079" stroke-width="1.5" stroke-dasharray="6 4" marker-end="url(#arrowhead)"/>
<line x1="404.43333333333334" y1="354.76" x2="590.1466666666666" y2="443.76" stroke="#b4f079" stroke-width="1.5" marker-end="url(#arrowhead)"/>
<line x1="1424.459617834395" y1="142" x2="1599.3003821656052" y2="217" stroke="#b4f079" stroke-width="1.5" stroke-dasharray="6 4" marker-end="url(#arrowhead)"/>
<line x1="1437.88" y1="247.4672131147541" x2="1594.88" y2="253.9016393442623" stroke="#b4f079" stroke-width="1.5" stroke-dasharray="6 4" marker-end="url(#arrowhead)"/>
<rect x="108.41" y="361.76" width="89" height="22" rx="4" fill="#000000"/>
<rect x="445.78999999999996" y="191.76" width="103" height="22" rx="4" fill="#000000"/>
<rect x="437.88" y="261.64178913738016" width="89" height="22" rx="4" fill="#000000"/>
<rect x="434.38" y="343.8782108626198" width="96" height="22" rx="4" fill="#000000"/>
<rect x="738.13" y="191.76" width="117" height="22" rx="4" fill="#000000"/>
<rect x="728.88" y="225.76" width="131" height="22" rx="4" fill="#000000"/>
<rect x="741.63" y="332.76" width="110" height="22" rx="4" fill="#000000"/>
<rect x="1066.5301674840082" y="314" width="152" height="22" rx="4" fill="#000000"/>
<rect x="1062.9217793069552" y="166.88" width="117" height="22" rx="4" fill="#000000"/>
<rect x="1079.63" y="257.77542857142856" width="117" height="22" rx="4" fill="#000000"/>
<rect x="1062.4417782909932" y="350.40019047619046" width="117" height="22" rx="4" fill="#000000"/>
<rect x="1478.8702754841856" y="202.8175039320483" width="89" height="22" rx="4" fill="#000000"/>
<rect x="1502.6222850748964" y="325.2928853225326" width="89" height="22" rx="4" fill="#000000"/>
<rect x="1501.5176448369398" y="394.9585308543307" width="89" height="22" rx="4" fill="#000000"/>
<rect x="449.28999999999996" y="433.26" width="96" height="22" rx="4" fill="#000000"/>
<rect x="1439.38" y="153.5" width="145" height="22" rx="4" fill="#000000"/>
<rect x="1443.88" y="289.2928853225326" width="145" height="22" rx="4" fill="#000000"/>
<circle cx="77.44" cy="284.76" r="7" fill="none" stroke="#b4f079" stroke-width="1.5"/><line x1="77.44" y1="291.76" x2="77.44" y2="313.76" stroke="#b4f079" stroke-width="1.5"/><line x1="63.44" y1="297.76" x2="91.44" y2="297.76" stroke="#b4f079" stroke-width="1.5"/><line x1="77.44" y1="313.76" x2="67.44" y2="329.76" stroke="#b4f079" stroke-width="1.5"/><line x1="77.44" y1="313.76" x2="87.44" y2="329.76" stroke="#b4f079" stroke-width="1.5"/><text x="77.44" y="343.76" font-family="'JetBrains Mono', 'Fira Code', 'SF Mono', 'Cascadia Code', monospace" font-size="13" fill="#b4f079" text-anchor="middle" letter-spacing="0.12em">CUSTOMER</text>
<rect x="214.38" y="272.76" width="209" height="82" rx="12" fill="none" stroke="#b4f079" stroke-width="2"/><rect x="219.38" y="277.76" width="199" height="72" rx="8" fill="url(#hero)" stroke="#b4f079" stroke-width="1"/><rect x="238.88" y="294.65999999999997" width="160" height="22.2" fill="#000000" rx="2"/><text x="318.88" y="305.76" font-family="'JetBrains Mono', 'Fira Code', 'SF Mono', 'Cascadia Code', monospace" font-size="13" fill="#b4f079" text-anchor="middle" dominant-baseline="central" letter-spacing="0.12em">ORDER ORCHESTRATOR</text><rect x="246.88" y="314.36" width="144" height="22.799999999999997" fill="#000000" rx="2"/><text x="318.88" y="325.76" font-family="'JetBrains Mono', 'Fira Code', 'SF Mono', 'Cascadia Code', monospace" font-size="12" fill="#b4f079" opacity="0.6" text-anchor="middle" dominant-baseline="central" letter-spacing="0.12em">Saga coordinator</text>
<rect x="531.88" y="143.76" width="200" height="40" rx="12" fill="url(#dotgrid)" stroke="#b4f079" stroke-width="1.5"/><rect x="555.88" y="152.66" width="152" height="22.2" fill="#000000" rx="2"/><text x="631.88" y="163.76" font-family="'JetBrains Mono', 'Fira Code', 'SF Mono', 'Cascadia Code', monospace" font-size="13" fill="#b4f079" text-anchor="middle" dominant-baseline="central" letter-spacing="0.12em">INVENTORY SERVICE</text>
<rect x="541.38" y="243.76" width="181" height="40" rx="12" fill="url(#dotgrid)" stroke="#b4f079" stroke-width="1.5"/><rect x="563.88" y="252.66" width="136" height="22.2" fill="#000000" rx="2"/><text x="631.88" y="263.76" font-family="'JetBrains Mono', 'Fira Code', 'SF Mono', 'Cascadia Code', monospace" font-size="13" fill="#b4f079" text-anchor="middle" dominant-baseline="central" letter-spacing="0.12em">PAYMENT SERVICE</text>
<rect x="866.38" y="243.76" width="190" height="40" rx="12" fill="url(#dotgrid)" stroke="#b4f079" stroke-width="1.5"/><rect x="889.38" y="252.66" width="144" height="22.2" fill="#000000" rx="2"/><text x="961.38" y="263.76" font-family="'JetBrains Mono', 'Fira Code', 'SF Mono', 'Cascadia Code', monospace" font-size="13" fill="#b4f079" text-anchor="middle" dominant-baseline="central" letter-spacing="0.12em">SHIPPING SERVICE</text>
<rect x="541.38" y="343.76" width="181" height="40" rx="12" fill="url(#dotgrid)" stroke="#b4f079" stroke-width="1.5"/><rect x="563.88" y="352.65999999999997" width="136" height="22.2" fill="#000000" rx="2"/><text x="631.88" y="363.76" font-family="'JetBrains Mono', 'Fira Code', 'SF Mono', 'Cascadia Code', monospace" font-size="13" fill="#b4f079" text-anchor="middle" dominant-baseline="central" letter-spacing="0.12em">LOYALTY SERVICE</text>
<rect x="1210.38" y="60" width="237" height="82" rx="12" fill="url(#crosshatch)" stroke="#b4f079" stroke-width="1.5"/><rect x="1236.88" y="81.9" width="184" height="22.2" fill="#000000" rx="2"/><text x="1328.88" y="93" font-family="'JetBrains Mono', 'Fira Code', 'SF Mono', 'Cascadia Code', monospace" font-size="13" fill="#b4f079" text-anchor="middle" dominant-baseline="central" letter-spacing="0.12em">INVENTORY COMPENSATOR</text><rect x="1232.88" y="101.6" width="192" height="22.799999999999997" fill="#000000" rx="2"/><text x="1328.88" y="113" font-family="'JetBrains Mono', 'Fira Code', 'SF Mono', 'Cascadia Code', monospace" font-size="12" fill="#b4f079" opacity="0.6" text-anchor="middle" dominant-baseline="central" letter-spacing="0.12em">Release reserved stock</text>
<rect x="1219.88" y="202" width="218" height="82" rx="12" fill="url(#crosshatch)" stroke="#b4f079" stroke-width="1.5"/><rect x="1244.88" y="223.9" width="168" height="22.2" fill="#000000" rx="2"/><text x="1328.88" y="235" font-family="'JetBrains Mono', 'Fira Code', 'SF Mono', 'Cascadia Code', monospace" font-size="13" fill="#b4f079" text-anchor="middle" dominant-baseline="central" letter-spacing="0.12em">PAYMENT COMPENSATOR</text><rect x="1272.88" y="243.6" width="112" height="22.799999999999997" fill="#000000" rx="2"/><text x="1328.88" y="255" font-family="'JetBrains Mono', 'Fira Code', 'SF Mono', 'Cascadia Code', monospace" font-size="12" fill="#b4f079" opacity="0.6" text-anchor="middle" dominant-baseline="central" letter-spacing="0.12em">Issue refund</text>
<rect x="1219.88" y="344" width="218" height="82" rx="12" fill="url(#crosshatch)" stroke="#b4f079" stroke-width="1.5"/><rect x="1244.88" y="365.9" width="168" height="22.2" fill="#000000" rx="2"/><text x="1328.88" y="377" font-family="'JetBrains Mono', 'Fira Code', 'SF Mono', 'Cascadia Code', monospace" font-size="13" fill="#b4f079" text-anchor="middle" dominant-baseline="central" letter-spacing="0.12em">LOYALTY COMPENSATOR</text><rect x="1268.88" y="385.6" width="120" height="22.799999999999997" fill="#000000" rx="2"/><text x="1328.88" y="397" font-family="'JetBrains Mono', 'Fira Code', 'SF Mono', 'Cascadia Code', monospace" font-size="12" fill="#b4f079" opacity="0.6" text-anchor="middle" dominant-baseline="central" letter-spacing="0.12em">Revoke points</text>
<rect x="574.38" y="453.76" width="115" height="20" fill="url(#crosshatch)" stroke="none"/><line x1="574.38" y1="453.76" x2="574.38" y2="473.76" stroke="#b4f079" stroke-width="1.5"/><line x1="689.38" y1="453.76" x2="689.38" y2="473.76" stroke="#b4f079" stroke-width="1.5"/><ellipse cx="631.88" cy="453.76" rx="57.5" ry="10" fill="url(#crosshatch)" stroke="#b4f079" stroke-width="1.5"/><path d="M574.38,473.76 A57.5,10 0 0,0 689.38,473.76" fill="url(#crosshatch)" stroke="#b4f079" stroke-width="1.5"/><rect x="591.88" y="452.65999999999997" width="80" height="22.2" fill="#000000" rx="2"/><text x="631.88" y="463.76" font-family="'JetBrains Mono', 'Fira Code', 'SF Mono', 'Cascadia Code', monospace" font-size="13" fill="#b4f079" text-anchor="middle" dominant-baseline="central" letter-spacing="0.12em">SAGA LOG</text>
<rect x="1594.88" y="217" width="200" height="82" rx="12" fill="url(#crosshatch)" stroke="#b4f079" stroke-width="1.5"/><rect x="1618.88" y="238.9" width="152" height="22.2" fill="#000000" rx="2"/><text x="1694.88" y="250" font-family="'JetBrains Mono', 'Fira Code', 'SF Mono', 'Cascadia Code', monospace" font-size="13" fill="#b4f079" text-anchor="middle" dominant-baseline="central" letter-spacing="0.12em">DEAD LETTER QUEUE</text><rect x="1606.88" y="258.6" width="176" height="22.799999999999997" fill="#000000" rx="2"/><text x="1694.88" y="270" font-family="'JetBrains Mono', 'Fira Code', 'SF Mono', 'Cascadia Code', monospace" font-size="12" fill="#b4f079" opacity="0.6" text-anchor="middle" dominant-baseline="central" letter-spacing="0.12em">Failed compensations</text>
<circle cx="1328.88" cy="526.76" r="40.76" fill="#000000" stroke="#b4f079" stroke-width="1.5"/><text x="1328.88" y="526.76" font-family="'JetBrains Mono', 'Fira Code', 'SF Mono', 'Cascadia Code', monospace" font-size="13" fill="#b4f079" text-anchor="middle" dominant-baseline="central" letter-spacing="0.12em">SUCCESS</text>
<circle cx="1694.88" cy="369.76" r="40.76" fill="#000000" stroke="#b4f079" stroke-width="1.5"/><text x="1694.88" y="369.76" font-family="'JetBrains Mono', 'Fira Code', 'SF Mono', 'Cascadia Code', monospace" font-size="13" fill="#b4f079" text-anchor="middle" dominant-baseline="central" letter-spacing="0.12em">FAILURE</text>
<text x="152.91" y="376.76" font-family="'JetBrains Mono', 'Fira Code', 'SF Mono', 'Cascadia Code', monospace" font-size="12" fill="#b4f079" opacity="0.85" text-anchor="middle">Place order</text>
<text x="497.28999999999996" y="206.76" font-family="'JetBrains Mono', 'Fira Code', 'SF Mono', 'Cascadia Code', monospace" font-size="12" fill="#b4f079" opacity="0.85" text-anchor="middle">Reserve stock</text>
<text x="482.38" y="276.64178913738016" font-family="'JetBrains Mono', 'Fira Code', 'SF Mono', 'Cascadia Code', monospace" font-size="12" fill="#b4f079" opacity="0.85" text-anchor="middle">Charge card</text>
<text x="482.38" y="358.8782108626198" font-family="'JetBrains Mono', 'Fira Code', 'SF Mono', 'Cascadia Code', monospace" font-size="12" fill="#b4f079" opacity="0.85" text-anchor="middle">Award points</text>
<text x="796.63" y="206.76" font-family="'JetBrains Mono', 'Fira Code', 'SF Mono', 'Cascadia Code', monospace" font-size="12" fill="#b4f079" opacity="0.85" text-anchor="middle">Stock confirmed</text>
<text x="794.38" y="240.76" font-family="'JetBrains Mono', 'Fira Code', 'SF Mono', 'Cascadia Code', monospace" font-size="12" fill="#b4f079" opacity="0.85" text-anchor="middle">Payment confirmed</text>
<text x="796.63" y="347.76" font-family="'JetBrains Mono', 'Fira Code', 'SF Mono', 'Cascadia Code', monospace" font-size="12" fill="#b4f079" opacity="0.85" text-anchor="middle">Points awarded</text>
<text x="1142.5301674840082" y="329" font-family="'JetBrains Mono', 'Fira Code', 'SF Mono', 'Cascadia Code', monospace" font-size="12" fill="#b4f079" opacity="0.85" text-anchor="middle">Fulfillment complete</text>
<text x="1121.4217793069552" y="181.88" font-family="'JetBrains Mono', 'Fira Code', 'SF Mono', 'Cascadia Code', monospace" font-size="12" fill="#b4f079" opacity="0.85" text-anchor="middle">Shipping failed</text>
<text x="1138.13" y="272.77542857142856" font-family="'JetBrains Mono', 'Fira Code', 'SF Mono', 'Cascadia Code', monospace" font-size="12" fill="#b4f079" opacity="0.85" text-anchor="middle">Shipping failed</text>
<text x="1120.9417782909932" y="365.40019047619046" font-family="'JetBrains Mono', 'Fira Code', 'SF Mono', 'Cascadia Code', monospace" font-size="12" fill="#b4f079" opacity="0.85" text-anchor="middle">Shipping failed</text>
<text x="1523.3702754841856" y="217.8175039320483" font-family="'JetBrains Mono', 'Fira Code', 'SF Mono', 'Cascadia Code', monospace" font-size="12" fill="#b4f079" opacity="0.85" text-anchor="middle">Compensated</text>
<text x="1547.1222850748964" y="340.2928853225326" font-family="'JetBrains Mono', 'Fira Code', 'SF Mono', 'Cascadia Code', monospace" font-size="12" fill="#b4f079" opacity="0.85" text-anchor="middle">Compensated</text>
<text x="1546.0176448369398" y="409.9585308543307" font-family="'JetBrains Mono', 'Fira Code', 'SF Mono', 'Cascadia Code', monospace" font-size="12" fill="#b4f079" opacity="0.85" text-anchor="middle">Compensated</text>
<text x="497.28999999999996" y="448.26" font-family="'JetBrains Mono', 'Fira Code', 'SF Mono', 'Cascadia Code', monospace" font-size="12" fill="#b4f079" opacity="0.85" text-anchor="middle">Persist step</text>
<text x="1511.88" y="168.5" font-family="'JetBrains Mono', 'Fira Code', 'SF Mono', 'Cascadia Code', monospace" font-size="12" fill="#b4f079" opacity="0.85" text-anchor="middle">Compensation failed</text>
<text x="1516.38" y="304.2928853225326" font-family="'JetBrains Mono', 'Fira Code', 'SF Mono', 'Cascadia Code', monospace" font-size="12" fill="#b4f079" opacity="0.85" text-anchor="middle">Compensation failed</text>
<text x="866.38" y="177.76" font-family="'Inter', 'Helvetica Neue', Arial, sans-serif" font-size="14" fill="#ffffff" font-weight="700">Diamond convergence:</text><text x="866.38" y="195.76" font-family="'JetBrains Mono', 'Fira Code', 'SF Mono', 'Cascadia Code', monospace" font-size="11" fill="#b4f079" opacity="0.7">3 services must all</text><text x="866.38" y="213.76" font-family="'JetBrains Mono', 'Fira Code', 'SF Mono', 'Cascadia Code', monospace" font-size="11" fill="#b4f079" opacity="0.7">succeed before shipping</text>
<text x="1654.1200000000001" y="448.52" font-family="'Inter', 'Helvetica Neue', Arial, sans-serif" font-size="14" fill="#ffffff" font-weight="700">Mirror diamond:</text><text x="1654.1200000000001" y="466.52" font-family="'JetBrains Mono', 'Fira Code', 'SF Mono', 'Cascadia Code', monospace" font-size="11" fill="#b4f079" opacity="0.7">compensation fan-out</text><text x="1654.1200000000001" y="484.52" font-family="'JetBrains Mono', 'Fira Code', 'SF Mono', 'Cascadia Code', monospace" font-size="11" fill="#b4f079" opacity="0.7">and re-convergence</text>
<text x="214.38" y="392.76" font-family="'Inter', 'Helvetica Neue', Arial, sans-serif" font-size="14" fill="#ffffff" font-weight="700">Idempotent operations</text><text x="214.38" y="410.76" font-family="'JetBrains Mono', 'Fira Code', 'SF Mono', 'Cascadia Code', monospace" font-size="11" fill="#b4f079" opacity="0.7">with dedup keys</text>
</g>
</svg>