<svg xmlns="http://www.w3.org/2000/svg" viewBox="0 0 1846.1200000000001 607.52" width="1846.1200000000001" height="607.52">
<defs>
  <pattern id="dotgrid" width="8" height="8" patternUnits="userSpaceOnUse">
    <rect width="8" height="8" fill="#000000"/>
    <circle cx="4" cy="4" r="0.8" fill="#b4f079" opacity="0.7"/>
  </pattern>
  <pattern id="crosshatch" width="8" height="8" patternUnits="userSpaceOnUse">
    <rect width="8" height="8" fill="#000000"/>
    <path d="M0 8L8 0M-1 1L1 -1M7 9L9 7" stroke="#b4f079" stroke-width="0.8" opacity="0.2"/>
  </pattern>
  <pattern id="hero" width="6" height="6" patternUnits="userSpaceOnUse">
    <rect width="6" height="6" fill="#3d6b23"/>
    <circle cx="3" cy="3" r="0.6" fill="#5a9a35" opacity="0.5"/>
  </pattern>
  <marker id="arrowhead" markerWidth="10" markerHeight="7" refX="9" refY="3.5" orient="auto" markerUnits="strokeWidth">
    <polygon points="0 0, 10 3.5, 0 7" fill="#b4f079"/>
  </marker>
  <marker id="arrowhead-reverse" markerWidth="10" markerHeight="7" refX="1" refY="3.5" orient="auto" markerUnits="strokeWidth">
    <polygon points="10 0, 0 3.5, 10 7" fill="#b4f079"/>
  </marker>
</defs>
<rect width="100%" height="100%" fill="#000000"/>
<g class="diagram">
<text x="30" y="34" font-family="'Inter', 'Helvetica Neue', Arial, sans-serif" font-size="15" fill="#ffffff" font-weight="700">Order saga orchestration with compensation diamond</text>
<line x1="91.44" y1="307.16589794565937" x2="214.38" y2="310.7302617627568" stroke="#b4f079" stroke-width="1.5" marker-end="url(#arrowhead)"/>
<line x1="401.6735483870968" y1="272.76" x2="591.4929032258065" y2="178.76" stroke="#b4f079" stroke-width="1.5" marker-end="url(#arrowhead)"/>
<line x1="423.38" y1="295.3973801916933" x2="541.38" y2="274.6625559105431" stroke="#b4f079" stroke-width="1.5" marker-end="url(#arrowhead)"/>
<line x1="423.38" y1="328.78396166134183" x2="541.38" y2="345.7488178913738" stroke="#b4f079" stroke-width="1.5" marker-end="url(#arrowhead)"/>
<line x1="697.78" y1="178.76" x2="866.38" y2="237.76" stroke="#b4f079" stroke-width="1.5" marker-end="url(#arrowhead)"/>
<line x1="722.38" y1="258.76" x2="866.38" y2="258.76" stroke="#b4f079" stroke-width="1.5" marker-end="url(#arrowhead)"/>
<line x1="697.78" y1="338.76" x2="866.38" y2="279.76" stroke="#b4f079" stroke-width="1.5" marker-end="url(#arrowhead)"/>
<line x1="1029.9434328358209" y1="308.76" x2="1295.9469462792208" y2="502.7435145655269" stroke="#b4f079" stroke-width="1.5" marker-end="url(#arrowhead)"/>
<line x1="1056.38" y1="217.97850340136057" x2="1233.3709989858012" y2="142" stroke="#b4f079" stroke-width="1.5" stroke-dasharray="6 4" marker-end="url(#arrowhead)"/>
<line x1="1056.38" y1="254.68598639455783" x2="1219.88" y2="247.67439455782312" stroke="#b4f079" stroke-width="1.5" stroke-dasharray="6 4" marker-end="url(#arrowhead)"/>
<line x1="1056.38" y1="291.3934693877551" x2="1219.88" y2="347.55738775510207" stroke="#b4f079" stroke-width="1.5" stroke-dasharray="6 4" marker-end="url(#arrowhead)"/>
<polyline points="1384.7142015180832,142 1384.7142015180832,190 1654.1200000000001,190 1654.1200000000001,353.38" fill="none" stroke="#b4f079" stroke-width="1.5" stroke-dasharray="6 4" marker-end="url(#arrowhead)"/>
<line x1="1437.88" y1="280.7509289617486" x2="1654.1200000000001" y2="369.76" stroke="#b4f079" stroke-width="1.5" stroke-dasharray="6 4" marker-end="url(#arrowhead)"/>
<line x1="1437.88" y1="380.46131147540984" x2="1654.1200000000001" y2="386.14" stroke="#b4f079" stroke-width="1.5" stroke-dasharray="6 4" marker-end="url(#arrowhead)"/>
<line x1="404.43333333333334" y1="354.76" x2="579.7133333333334" y2="438.76" stroke="#b4f079" stroke-width="1.5" marker-end="url(#arrowhead)"/>
<line x1="1424.459617834395" y1="142" x2="1594.88" y2="247" stroke="#b4f079" stroke-width="1.5" stroke-dasharray="6 4" marker-end="url(#arrowhead)"/>
<line x1="1437.88" y1="247.4672131147541" x2="1594.88" y2="269" stroke="#b4f079" stroke-width="1.5" stroke-dasharray="6 4" marker-end="url(#arrowhead)"/>
<rect x="108.41" y="361.76" width="89" height="22" rx="4" fill="#000000"/>
<rect x="445.08322580645165" y="186.76" width="103" height="22" rx="4" fill="#000000"/>
<rect x="437.88" y="259.0299680511182" width="89" height="22" rx="4" fill="#000000"/>
<rect x="434.38" y="341.2663897763578" width="96" height="22" rx="4" fill="#000000"/>
<rect x="723.5799999999999" y="170.76" width="117" height="22" rx="4" fill="#000000"/>
<rect x="728.88" y="206.76" width="131" height="22" rx="4" fill="#000000"/>
<rect x="727.0799999999999" y="308.76" width="110" height="22" rx="4" fill="#000000"/>
<rect x="1086.9451895575207" y="314" width="152" height="22" rx="4" fill="#000000"/>
<rect x="1086.3754994929006" y="153.98925170068028" width="117" height="22" rx="4" fill="#000000"/>
<rect x="1079.63" y="255.1801904761905" width="117" height="22" rx="4" fill="#000000"/>
<rect x="1079.63" y="353.47542857142855" width="117" height="22" rx="4" fill="#000000"/>
<rect x="1474.9171007590417" y="206.69" width="89" height="22" rx="4" fill="#000000"/>
<rect x="1501.5" y="328.6277322404371" width="89" height="22" rx="4" fill="#000000"/>
<rect x="1501.5" y="402.3006557377049" width="89" height="22" rx="4" fill="#000000"/>
<rect x="444.0733333333334" y="430.76" width="96" height="22" rx="4" fill="#000000"/>
<rect x="1437.1698089171975" y="168.5" width="145" height="22" rx="4" fill="#000000"/>
<rect x="1443.88" y="292.6277322404371" width="145" height="22" rx="4" fill="#000000"/>
<circle cx="77.44" cy="284.76" r="7" fill="none" stroke="#b4f079" stroke-width="1.5"/><line x1="77.44" y1="291.76" x2="77.44" y2="313.76" stroke="#b4f079" stroke-width="1.5"/><line x1="63.44" y1="297.76" x2="91.44" y2="297.76" stroke="#b4f079" stroke-width="1.5"/><line x1="77.44" y1="313.76" x2="67.44" y2="329.76" stroke="#b4f079" stroke-width="1.5"/><line x1="77.44" y1="313.76" x2="87.44" y2="329.76" stroke="#b4f079" stroke-width="1.5"/><text x="77.44" y="343.76" font-family="'JetBrains Mono', 'Fira Code', 'SF Mono', 'Cascadia Code', monospace" font-size="13" fill="#b4f079" text-anchor="middle" letter-spacing="0.12em">CUSTOMER</text>
<rect x="214.38" y="272.76" width="209" height="82" rx="12" fill="none" stroke="#b4f079" stroke-width="1.5"/><rect x="219.13" y="277.51" width="199.5" height="72.5" rx="8" fill="url(#hero)" stroke="#b4f079" stroke-width="1"/><rect x="238.88" y="294.65999999999997" width="160" height="22.2" fill="#000000" rx="2"/><text x="318.88" y="305.76" font-family="'JetBrains Mono', 'Fira Code', 'SF Mono', 'Cascadia Code', monospace" font-size="13" fill="#b4f079" text-anchor="middle" dominant-baseline="central" letter-spacing="0.12em">ORDER ORCHESTRATOR</text><rect x="246.88" y="314.36" width="144" height="22.799999999999997" fill="#000000" rx="2"/><text x="318.88" y="325.76" font-family="'JetBrains Mono', 'Fira Code', 'SF Mono', 'Cascadia Code', monospace" font-size="12" fill="#b4f079" opacity="0.6" text-anchor="middle" dominant-baseline="central" letter-spacing="0.12em">Saga coordinator</text>
<rect x="531.88" y="138.76" width="200" height="40" rx="12" fill="url(#dotgrid)" stroke="#b4f079" stroke-width="1.5"/><rect x="555.88" y="147.66" width="152" height="22.2" fill="#000000" rx="2"/><text x="631.88" y="158.76" font-family="'JetBrains Mono', 'Fira Code', 'SF Mono', 'Cascadia Code', monospace" font-size="13" fill="#b4f079" text-anchor="middle" dominant-baseline="central" letter-spacing="0.12em">INVENTORY SERVICE</text>
<rect x="541.38" y="238.76" width="181" height="40" rx="12" fill="url(#dotgrid)" stroke="#b4f079" stroke-width="1.5"/><rect x="563.88" y="247.66" width="136" height="22.2" fill="#000000" rx="2"/><text x="631.88" y="258.76" font-family="'JetBrains Mono', 'Fira Code', 'SF Mono', 'Cascadia Code', monospace" font-size="13" fill="#b4f079" text-anchor="middle" dominant-baseline="central" letter-spacing="0.12em">PAYMENT SERVICE</text>
<rect x="866.38" y="208.76" width="190" height="100" rx="12" fill="url(#dotgrid)" stroke="#b4f079" stroke-width="1.5"/><rect x="889.38" y="247.66" width="144" height="22.2" fill="#000000" rx="2"/><text x="961.38" y="258.76" font-family="'JetBrains Mono', 'Fira Code', 'SF Mono', 'Cascadia Code', monospace" font-size="13" fill="#b4f079" text-anchor="middle" dominant-baseline="central" letter-spacing="0.12em">SHIPPING SERVICE</text>
<rect x="541.38" y="338.76" width="181" height="40" rx="12" fill="url(#dotgrid)" stroke="#b4f079" stroke-width="1.5"/><rect x="563.88" y="347.65999999999997" width="136" height="22.2" fill="#000000" rx="2"/><text x="631.88" y="358.76" font-family="'JetBrains Mono', 'Fira Code', 'SF Mono', 'Cascadia Code', monospace" font-size="13" fill="#b4f079" text-anchor="middle" dominant-baseline="central" letter-spacing="0.12em">LOYALTY SERVICE</text>
<rect x="1210.38" y="60" width="237" height="82" rx="12" fill="url(#crosshatch)" stroke="#b4f079" stroke-width="1.5"/><rect x="1236.88" y="81.9" width="184" height="22.2" fill="#000000" rx="2"/><text x="1328.88" y="93" font-family="'JetBrains Mono', 'Fira Code', 'SF Mono', 'Cascadia Code', monospace" font-size="13" fill="#b4f079" text-anchor="middle" dominant-baseline="central" letter-spacing="0.12em">INVENTORY COMPENSATOR</text><rect x="1232.88" y="101.6" width="192" height="22.799999999999997" fill="#000000" rx="2"/><text x="1328.88" y="113" font-family="'JetBrains Mono', 'Fira Code', 'SF Mono', 'Cascadia Code', monospace" font-size="12" fill="#b4f079" opacity="0.6" text-anchor="middle" dominant-baseline="central" letter-spacing="0.12em">Release reserved stock</text>
<rect x="1219.88" y="202" width="218" height="82" rx="12" fill="url(#crosshatch)" stroke="#b4f079" stroke-width="1.5"/><rect x="1244.88" y="223.9" width="168" height="22.2" fill="#000000" rx="2"/><text x="1328.88" y="235" font-family="'JetBrains Mono', 'Fira Code', 'SF Mono', 'Cascadia Code', monospace" font-size="13" fill="#b4f079" text-anchor="middle" dominant-baseline="central" letter-spacing="0.12em">PAYMENT COMPENSATOR</text><rect x="1272.88" y="243.6" width="112" height="22.799999999999997" fill="#000000" rx="2"/><text x="1328.88" y="255" font-family="'JetBrains Mono', 'Fira Code', 'SF Mono', 'Cascadia Code', monospace" font-size="12" fill="#b4f079" opacity="0.6" text-anchor="middle" dominant-baseline="central" letter-spacing="0.12em">Issue refund</text>
<rect x="1219.88" y="344" width="218" height="82" rx="12" fill="url(#crosshatch)" stroke="#b4f079" stroke-width="1.5"/><rect x="1244.88" y="365.9" width="168" height="22.2" fill="#000000" rx="2"/><text x="1328.88" y="377" font-family="'JetBrains Mono', 'Fira Code', 'SF Mono', 'Cascadia Code', monospace" font-size="13" fill="#b4f079" text-anchor="middle" dominant-baseline="central" letter-spacing="0.12em">LOYALTY COMPENSATOR</text><rect x="1268.88" y="385.6" width="120" height="22.799999999999997" fill="#000000" rx="2"/><text x="1328.88" y="397" font-family="'JetBrains Mono', 'Fira Code', 'SF Mono', 'Cascadia Code', monospace" font-size="12" fill="#b4f079" opacity="0.6" text-anchor="middle" dominant-baseline="central" letter-spacing="0.12em">Revoke points</text>
<rect x="574.38" y="448.76" width="115" height="30" fill="url(#crosshatch)" stroke="none"/><line x1="574.38" y1="448.76" x2="574.38" y2="478.76" stroke="#b4f079" stroke-width="1.5"/><line x1="689.38" y1="448.76" x2="689.38" y2="478.76" stroke="#b4f079" stroke-width="1.5"/><ellipse cx="631.88" cy="448.76" rx="57.5" ry="10" fill="url(#crosshatch)" stroke="#b4f079" stroke-width="1.5"/><path d="M574.38,478.76 A57.5,10 0 0,0 689.38,478.76" fill="url(#crosshatch)" stroke="#b4f079" stroke-width="1.5"/><rect x="591.88" y="452.65999999999997" width="80" height="22.2" fill="#000000" rx="2"/><text x="631.88" y="463.76" font-family="'JetBrains Mono', 'Fira Code', 'SF Mono', 'Cascadia Code', monospace" font-size="13" fill="#b4f079" text-anchor="middle" dominant-baseline="central" letter-spacing="0.12em">SAGA LOG</text>
<rect x="1594.88" y="217" width="200" height="82" rx="12" fill="url(#crosshatch)" stroke="#b4f079" stroke-width="1.5"/><rect x="1618.88" y="238.9" width="152" height="22.2" fill="#000000" rx="2"/><text x="1694.88" y="250" font-family="'JetBrains Mono', 'Fira Code', 'SF Mono', 'Cascadia Code', monospace" font-size="13" fill="#b4f079" text-anchor="middle" dominant-baseline="central" letter-spacing="0.12em">DEAD LETTER QUEUE</text><rect x="1606.88" y="258.6" width="176" height="22.799999999999997" fill="#000000" rx="2"/><text x="1694.88" y="270" font-family="'JetBrains Mono', 'Fira Code', 'SF Mono', 'Cascadia Code', monospace" font-size="12" fill="#b4f079" opacity="0.6" text-anchor="middle" dominant-baseline="central" letter-spacing="0.12em">Failed compensations</text>
<circle cx="1328.88" cy="526.76" r="40.76" fill="#000000" stroke="#b4f079" stroke-width="1.5"/><text x="1328.88" y="526.76" font-family="'JetBrains Mono', 'Fira Code', 'SF Mono', 'Cascadia Code', monospace" font-size="13" fill="#b4f079" opacity="1" text-anchor="middle" dominant-baseline="central" letter-spacing="0.12em">SUCCESS</text>
<circle cx="1694.88" cy="369.76" r="40.76" fill="#000000" stroke="#b4f079" stroke-width="1.5"/><text x="1694.88" y="369.76" font-family="'JetBrains Mono', 'Fira Code', 'SF Mono', 'Cascadia Code', monospace" font-size="13" fill="#b4f079" opacity="1" text-anchor="middle" dominant-baseline="central" letter-spacing="0.12em">FAILURE</text>
<text x="152.91" y="376.76" font-family="'JetBrains Mono', 'Fira Code', 'SF Mono', 'Cascadia Code', monospace" font-size="12" fill="#b4f079" opacity="0.85" text-anchor="middle">Place order</text>
<text x="496.58322580645165" y="201.76" font-family="'JetBrains Mono', 'Fira Code', 'SF Mono', 'Cascadia Code', monospace" font-size="12" fill="#b4f079" opacity="0.85" text-anchor="middle">Reserve stock</text>
<text x="482.38" y="274.0299680511182" font-family="'JetBrains Mono', 'Fira Code', 'SF Mono', 'Cascadia Code', monospace" font-size="12" fill="#b4f079" opacity="0.85" text-anchor="middle">Charge card</text>
<text x="482.38" y="356.2663897763578" font-family="'JetBrains Mono', 'Fira Code', 'SF Mono', 'Cascadia Code', monospace" font-size="12" fill="#b4f079" opacity="0.85" text-anchor="middle">Award points</text>
<text x="782.0799999999999" y="185.76" font-family="'JetBrains Mono', 'Fira Code', 'SF Mono', 'Cascadia Code', monospace" font-size="12" fill="#b4f079" opacity="0.85" text-anchor="middle">Stock confirmed</text>
<text x="794.38" y="221.76" font-family="'JetBrains Mono', 'Fira Code', 'SF Mono', 'Cascadia Code', monospace" font-size="12" fill="#b4f079" opacity="0.85" text-anchor="middle">Payment confirmed</text>
<text x="782.0799999999999" y="323.76" font-family="'JetBrains Mono', 'Fira Code', 'SF Mono', 'Cascadia Code', monospace" font-size="12" fill="#b4f079" opacity="0.85" text-anchor="middle">Points awarded</text>
<text x="1162.9451895575207" y="329" font-family="'JetBrains Mono', 'Fira Code', 'SF Mono', 'Cascadia Code', monospace" font-size="12" fill="#b4f079" opacity="0.85" text-anchor="middle">Fulfillment complete</text>
<text x="1144.8754994929006" y="168.98925170068028" font-family="'JetBrains Mono', 'Fira Code', 'SF Mono', 'Cascadia Code', monospace" font-size="12" fill="#b4f079" opacity="0.85" text-anchor="middle">Shipping failed</text>
<text x="1138.13" y="270.1801904761905" font-family="'JetBrains Mono', 'Fira Code', 'SF Mono', 'Cascadia Code', monospace" font-size="12" fill="#b4f079" opacity="0.85" text-anchor="middle">Shipping failed</text>
<text x="1138.13" y="368.47542857142855" font-family="'JetBrains Mono', 'Fira Code', 'SF Mono', 'Cascadia Code', monospace" font-size="12" fill="#b4f079" opacity="0.85" text-anchor="middle">Shipping failed</text>
<text x="1519.4171007590417" y="221.69" font-family="'JetBrains Mono', 'Fira Code', 'SF Mono', 'Cascadia Code', monospace" font-size="12" fill="#b4f079" opacity="0.85" text-anchor="middle">Compensated</text>
<text x="1546" y="343.6277322404371" font-family="'JetBrains Mono', 'Fira Code', 'SF Mono', 'Cascadia Code', monospace" font-size="12" fill="#b4f079" opacity="0.85" text-anchor="middle">Compensated</text>
<text x="1546" y="417.3006557377049" font-family="'JetBrains Mono', 'Fira Code', 'SF Mono', 'Cascadia Code', monospace" font-size="12" fill="#b4f079" opacity="0.85" text-anchor="middle">Compensated</text>
<text x="492.0733333333334" y="445.76" font-family="'JetBrains Mono', 'Fira Code', 'SF Mono', 'Cascadia Code', monospace" font-size="12" fill="#b4f079" opacity="0.85" text-anchor="middle">Persist step</text>
<text x="1509.6698089171975" y="183.5" font-family="'JetBrains Mono', 'Fira Code', 'SF Mono', 'Cascadia Code', monospace" font-size="12" fill="#b4f079" opacity="0.85" text-anchor="middle">Compensation failed</text>
<text x="1516.38" y="307.6277322404371" font-family="'JetBrains Mono', 'Fira Code', 'SF Mono', 'Cascadia Code', monospace" font-size="12" fill="#b4f079" opacity="0.85" text-anchor="middle">Compensation failed</text>
<text x="866.38" y="142.76" font-family="'Inter', 'Helvetica Neue', Arial, sans-serif" font-size="14" fill="#ffffff" font-weight="700">Diamond convergence:</text><text x="866.38" y="160.76" font-family="'JetBrains Mono', 'Fira Code', 'SF Mono', 'Cascadia Code', monospace" font-size="11" fill="#b4f079" opacity="0.7">3 services must all</text><text x="866.38" y="178.76" font-family="'JetBrains Mono', 'Fira Code', 'SF Mono', 'Cascadia Code', monospace" font-size="11" fill="#b4f079" opacity="0.7">succeed before shipping</text>
<text x="1654.1200000000001" y="448.52" font-family="'Inter', 'Helvetica Neue', Arial, sans-serif" font-size="14" fill="#ffffff" font-weight="700">Mirror diamond:</text><text x="1654.1200000000001" y="466.52" font-family="'JetBrains Mono', 'Fira Code', 'SF Mono', 'Cascadia Code', monospace" font-size="11" fill="#b4f079" opacity="0.7">compensation fan-out</text><text x="1654.1200000000001" y="484.52" font-family="'JetBrains Mono', 'Fira Code', 'SF Mono', 'Cascadia Code', monospace" font-size="11" fill="#b4f079" opacity="0.7">and re-convergence</text>
<text x="214.38" y="392.76" font-family="'Inter', 'Helvetica Neue', Arial, sans-serif" font-size="14" fill="#ffffff" font-weight="700">Idempotent operations</text><text x="214.38" y="410.76" font-family="'JetBrains Mono', 'Fira Code', 'SF Mono', 'Cascadia Code', monospace" font-size="11" fill="#b4f079" opacity="0.7">with dedup keys</text>
</g>
</svg>