<svg xmlns="http://www.w3.org/2000/svg" viewBox="0 0 1244.6 650" width="1244.6" height="650">
<defs>
  <pattern id="dotgrid" width="8" height="8" patternUnits="userSpaceOnUse">
    <rect width="8" height="8" fill="#000000"/>
    <circle cx="4" cy="4" r="0.8" fill="#b4f079" opacity="0.7"/>
  </pattern>
  <pattern id="crosshatch" width="8" height="8" patternUnits="userSpaceOnUse">
    <rect width="8" height="8" fill="#000000"/>
    <path d="M0 8L8 0M-1 1L1 -1M7 9L9 7" stroke="#b4f079" stroke-width="0.8" opacity="0.2"/>
  </pattern>
  <pattern id="hero" width="6" height="6" patternUnits="userSpaceOnUse">
    <rect width="6" height="6" fill="#3d6b23"/>
    <circle cx="3" cy="3" r="0.6" fill="#5a9a35" opacity="0.5"/>
  </pattern>
  <marker id="arrowhead" markerWidth="10" markerHeight="7" refX="9" refY="3.5" orient="auto" markerUnits="strokeWidth">
    <polygon points="0 0, 10 3.5, 0 7" fill="#b4f079"/>
  </marker>
  <marker id="arrowhead-reverse" markerWidth="10" markerHeight="7" refX="1" refY="3.5" orient="auto" markerUnits="strokeWidth">
    <polygon points="10 0, 0 3.5, 10 7" fill="#b4f079"/>
  </marker>
</defs>
<rect width="100%" height="100%" fill="#000000"/>
<g class="diagram">
<text x="30" y="34" font-family="'Inter', 'Helvetica Neue', Arial, sans-serif" font-size="15" fill="#ffffff" font-weight="700">System context: extreme node size variance</text>
<polyline points="253.38,132 253.38,158 150.3,158 150.3,247" fill="none" stroke="#b4f079" stroke-width="1.5" marker-end="url(#arrowhead)"/>
<line x1="182.3" y1="279" x2="202.3" y2="279" stroke="#b4f079" stroke-width="1.5" marker-end="url(#arrowhead)"/>
<polyline points="351.58,132 351.58,158 578.3,158 525.3,275" fill="none" stroke="#b4f079" stroke-width="1.5" marker-end="url(#arrowhead)"/>
<line x1="351.58" y1="132" x2="353.8" y2="170" stroke="#b4f079" stroke-width="1.5" marker-end="url(#arrowhead)"/>
<polyline points="468.5,132 468.5,158 783.8,158 651.3,237" fill="none" stroke="#b4f079" stroke-width="1.5" marker-end="url(#arrowhead)"/>
<polyline points="353.8,388 353.8,407 178.8,407 178.8,426" fill="none" stroke="#b4f079" stroke-width="1.5" marker-end="url(#arrowhead)"/>
<line x1="353.8" y1="388" x2="357.1" y2="501" stroke="#b4f079" stroke-width="1.5" marker-end="url(#arrowhead)"/>
<line x1="505.3" y1="279" x2="651.3" y2="279" stroke="#b4f079" stroke-width="1.5" marker-end="url(#arrowhead)"/>
<polyline points="353.8,388 353.8,443 569.6,443 569.6,498" fill="none" stroke="#b4f079" stroke-width="1.5" marker-end="url(#arrowhead)"/>
<polyline points="353.8,388 353.8,443 901.1,443 901.1,498" fill="none" stroke="#b4f079" stroke-width="1.5" marker-end="url(#arrowhead)"/>
<polyline points="353.8,388 353.8,443 775.1,443 775.1,498" fill="none" stroke="#b4f079" stroke-width="1.5" marker-end="url(#arrowhead)"/>
<line x1="505.3" y1="279" x2="525.3" y2="283" stroke="#b4f079" stroke-width="1.5" marker-end="url(#arrowhead)"/>
<polyline points="76,518 36,518 36,386 783.8,386 651.3,321" fill="none" stroke="#b4f079" stroke-width="1.5" marker-end="url(#arrowhead)"/>
<rect x="178.34" y="144" width="47" height="22" rx="4" fill="#000000"/>
<rect x="419.43999999999994" y="144" width="61" height="22" rx="4" fill="#000000"/>
<rect x="301.19" y="144" width="103" height="22" rx="4" fill="#000000"/>
<rect x="520.15" y="157" width="152" height="22" rx="4" fill="#000000"/>
<rect x="158.3" y="396" width="96" height="22" rx="4" fill="#000000"/>
<rect x="291.45000000000005" y="433.5" width="68" height="22" rx="4" fill="#000000"/>
<rect x="558.3" y="229" width="40" height="22" rx="4" fill="#000000"/>
<rect x="431.20000000000005" y="432" width="61" height="22" rx="4" fill="#000000"/>
<rect x="584.95" y="420.75" width="145" height="22" rx="4" fill="#000000"/>
<rect x="569.45" y="454.5" width="110" height="22" rx="4" fill="#000000"/>
<rect x="468.29999999999995" y="384.75" width="124" height="22" rx="4" fill="#000000"/>
<rect x="25" y="396" width="82" height="22" rx="4" fill="#000000"/>
<circle cx="253.38" cy="67" r="7" fill="none" stroke="#b4f079" stroke-width="1.5"/><line x1="253.38" y1="74" x2="253.38" y2="96" stroke="#b4f079" stroke-width="1.5"/><line x1="239.38" y1="80" x2="267.38" y2="80" stroke="#b4f079" stroke-width="1.5"/><line x1="253.38" y1="96" x2="243.38" y2="112" stroke="#b4f079" stroke-width="1.5"/><line x1="253.38" y1="96" x2="263.38" y2="112" stroke="#b4f079" stroke-width="1.5"/><text x="253.38" y="126" font-family="'JetBrains Mono', 'Fira Code', 'SF Mono', 'Cascadia Code', monospace" font-size="13" fill="#b4f079" text-anchor="middle" letter-spacing="0.12em">END USER</text>
<circle cx="351.58" cy="67" r="7" fill="none" stroke="#b4f079" stroke-width="1.5"/><line x1="351.58" y1="74" x2="351.58" y2="96" stroke="#b4f079" stroke-width="1.5"/><line x1="337.58" y1="80" x2="365.58" y2="80" stroke="#b4f079" stroke-width="1.5"/><line x1="351.58" y1="96" x2="341.58" y2="112" stroke="#b4f079" stroke-width="1.5"/><line x1="351.58" y1="96" x2="361.58" y2="112" stroke="#b4f079" stroke-width="1.5"/><text x="351.58" y="126" font-family="'JetBrains Mono', 'Fira Code', 'SF Mono', 'Cascadia Code', monospace" font-size="13" fill="#b4f079" text-anchor="middle" letter-spacing="0.12em">OPS SRE</text>
<circle cx="468.5" cy="67" r="7" fill="none" stroke="#b4f079" stroke-width="1.5"/><line x1="468.5" y1="74" x2="468.5" y2="96" stroke="#b4f079" stroke-width="1.5"/><line x1="454.5" y1="80" x2="482.5" y2="80" stroke="#b4f079" stroke-width="1.5"/><line x1="468.5" y1="96" x2="458.5" y2="112" stroke="#b4f079" stroke-width="1.5"/><line x1="468.5" y1="96" x2="478.5" y2="112" stroke="#b4f079" stroke-width="1.5"/><text x="468.5" y="126" font-family="'JetBrains Mono', 'Fira Code', 'SF Mono', 'Cascadia Code', monospace" font-size="13" fill="#b4f079" text-anchor="middle" letter-spacing="0.12em">DATA ANALYST</text>
<rect x="202.3" y="170" width="303" height="218" rx="12" fill="none" stroke="#b4f079" stroke-width="1.5"/><rect x="207.05" y="174.75" width="293.5" height="208.5" rx="8" fill="url(#hero)" stroke="#b4f079" stroke-width="1"/><rect x="233.8" y="259.9" width="240" height="22.2" fill="#000000" rx="2"/><text x="353.8" y="271" font-family="'JetBrains Mono', 'Fira Code', 'SF Mono', 'Cascadia Code', monospace" font-size="13" fill="#b4f079" text-anchor="middle" dominant-baseline="central" letter-spacing="0.12em">PRIMARY APPLICATION PLATFORM</text><rect x="217.8" y="279.6" width="272" height="89.99999999999999" fill="#000000" rx="2"/><text x="353.8" y="257.4" font-family="'JetBrains Mono', 'Fira Code', 'SF Mono', 'Cascadia Code', monospace" font-size="12" fill="#b4f079" opacity="0.6" text-anchor="middle" dominant-baseline="central" letter-spacing="0.12em">Monorepo: 14 microservices, 2.3M</text><text x="353.8" y="274.2" font-family="'JetBrains Mono', 'Fira Code', 'SF Mono', 'Cascadia Code', monospace" font-size="12" fill="#b4f079" opacity="0.6" text-anchor="middle" dominant-baseline="central" letter-spacing="0.12em">LoC</text><text x="353.8" y="291" font-family="'JetBrains Mono', 'Fira Code', 'SF Mono', 'Cascadia Code', monospace" font-size="12" fill="#b4f079" opacity="0.6" text-anchor="middle" dominant-baseline="central" letter-spacing="0.12em">Deployed across 3 regions</text><text x="353.8" y="307.79999999999995" font-family="'JetBrains Mono', 'Fira Code', 'SF Mono', 'Cascadia Code', monospace" font-size="12" fill="#b4f079" opacity="0.6" text-anchor="middle" dominant-baseline="central" letter-spacing="0.12em">Serving 50M monthly active users</text><text x="353.8" y="324.59999999999997" font-family="'JetBrains Mono', 'Fira Code', 'SF Mono', 'Cascadia Code', monospace" font-size="12" fill="#b4f079" opacity="0.6" text-anchor="middle" dominant-baseline="central" letter-spacing="0.12em">99.95% SLA target</text>
<circle cx="150.3" cy="279" r="32" fill="#000000" stroke="#b4f079" stroke-width="1.5"/><text x="150.3" y="279" font-family="'JetBrains Mono', 'Fira Code', 'SF Mono', 'Cascadia Code', monospace" font-size="13" fill="#b4f079" opacity="1" text-anchor="middle" dominant-baseline="central" letter-spacing="0.12em">LB</text>
<rect x="548.66" y="76" width="274" height="40" rx="12" fill="#000000" stroke="#b4f079" stroke-width="1.5"/><text x="685.66" y="96" font-family="'JetBrains Mono', 'Fira Code', 'SF Mono', 'Cascadia Code', monospace" font-size="13" fill="#b4f079" text-anchor="middle" dominant-baseline="central" letter-spacing="0.12em">--- INTERNAL BOUNDARY ---</text>
<rect x="76" y="426" width="205.6" height="184" rx="12" fill="url(#dotgrid)" stroke="#b4f079" stroke-width="1.5"/><rect x="102.80000000000001" y="498.9" width="152" height="22.2" fill="#000000" rx="2"/><text x="178.8" y="510" font-family="'JetBrains Mono', 'Fira Code', 'SF Mono', 'Cascadia Code', monospace" font-size="13" fill="#b4f079" text-anchor="middle" dominant-baseline="central" letter-spacing="0.12em">IDENTITY PROVIDER</text><rect x="78.80000000000001" y="518.6" width="200" height="73.19999999999999" fill="#000000" rx="2"/><text x="178.8" y="504.8" font-family="'JetBrains Mono', 'Fira Code', 'SF Mono', 'Cascadia Code', monospace" font-size="12" fill="#b4f079" opacity="0.6" text-anchor="middle" dominant-baseline="central" letter-spacing="0.12em">SAML 2.0 + OIDC</text><text x="178.8" y="521.6" font-family="'JetBrains Mono', 'Fira Code', 'SF Mono', 'Cascadia Code', monospace" font-size="12" fill="#b4f079" opacity="0.6" text-anchor="middle" dominant-baseline="central" letter-spacing="0.12em">Multi-tenant federation</text><text x="178.8" y="538.4" font-family="'JetBrains Mono', 'Fira Code', 'SF Mono', 'Cascadia Code', monospace" font-size="12" fill="#b4f079" opacity="0.6" text-anchor="middle" dominant-baseline="central" letter-spacing="0.12em">Device trust evaluation</text><text x="178.8" y="555.2" font-family="'JetBrains Mono', 'Fira Code', 'SF Mono', 'Cascadia Code', monospace" font-size="12" fill="#b4f079" opacity="0.6" text-anchor="middle" dominant-baseline="central" letter-spacing="0.12em">Step-up authentication</text>
<rect x="301.6" y="501" width="111" height="34" rx="17" fill="url(#dotgrid)" stroke="#b4f079" stroke-width="1.5"/><rect x="329.1" y="506.9" width="56" height="22.2" fill="#000000" rx="2"/><text x="357.1" y="518" font-family="'JetBrains Mono', 'Fira Code', 'SF Mono', 'Cascadia Code', monospace" font-size="13" fill="#b4f079" text-anchor="middle" dominant-baseline="central" letter-spacing="0.12em">CACHE</text>
<rect x="651.3" y="197" width="265" height="164" fill="url(#crosshatch)" stroke="none"/><line x1="651.3" y1="197" x2="651.3" y2="361" stroke="#b4f079" stroke-width="1.5"/><line x1="916.3" y1="197" x2="916.3" y2="361" stroke="#b4f079" stroke-width="1.5"/><ellipse cx="783.8" cy="197" rx="132.5" ry="10" fill="url(#crosshatch)" stroke="#b4f079" stroke-width="1.5"/><path d="M651.3,361 A132.5,10 0 0,0 916.3,361" fill="url(#crosshatch)" stroke="#b4f079" stroke-width="1.5"/><rect x="679.8" y="259.9" width="208" height="22.2" fill="#000000" rx="2"/><text x="783.8" y="271" font-family="'JetBrains Mono', 'Fira Code', 'SF Mono', 'Cascadia Code', monospace" font-size="13" fill="#b4f079" text-anchor="middle" dominant-baseline="central" letter-spacing="0.12em">PRIMARY DATABASE CLUSTER</text><rect x="651.8" y="279.6" width="264" height="73.19999999999999" fill="#000000" rx="2"/><text x="783.8" y="265.8" font-family="'JetBrains Mono', 'Fira Code', 'SF Mono', 'Cascadia Code', monospace" font-size="12" fill="#b4f079" opacity="0.6" text-anchor="middle" dominant-baseline="central" letter-spacing="0.12em">PostgreSQL 16</text><text x="783.8" y="282.6" font-family="'JetBrains Mono', 'Fira Code', 'SF Mono', 'Cascadia Code', monospace" font-size="12" fill="#b4f079" opacity="0.6" text-anchor="middle" dominant-baseline="central" letter-spacing="0.12em">Patroni HA with 3 replicas</text><text x="783.8" y="299.4" font-family="'JetBrains Mono', 'Fira Code', 'SF Mono', 'Cascadia Code', monospace" font-size="12" fill="#b4f079" opacity="0.6" text-anchor="middle" dominant-baseline="central" letter-spacing="0.12em">12TB data, 500k TPS peak</text><text x="783.8" y="316.2" font-family="'JetBrains Mono', 'Fira Code', 'SF Mono', 'Cascadia Code', monospace" font-size="12" fill="#b4f079" opacity="0.6" text-anchor="middle" dominant-baseline="central" letter-spacing="0.12em">Point-in-time recovery: 30 days</text>
<rect x="432.6" y="498" width="274" height="40" rx="12" fill="#000000" stroke="#b4f079" stroke-width="1.5"/><text x="569.6" y="518" font-family="'JetBrains Mono', 'Fira Code', 'SF Mono', 'Cascadia Code', monospace" font-size="13" fill="#b4f079" text-anchor="middle" dominant-baseline="central" letter-spacing="0.12em">STRIPE PAYMENT PROCESSING</text>
<rect x="525.3" y="259" width="106" height="40" rx="12" fill="#000000" stroke="#b4f079" stroke-width="1.5"/><text x="578.3" y="279" font-family="'JetBrains Mono', 'Fira Code', 'SF Mono', 'Cascadia Code', monospace" font-size="13" fill="#b4f079" text-anchor="middle" dominant-baseline="central" letter-spacing="0.12em">DATADOG</text>
<rect x="726.6" y="498" width="97" height="40" rx="12" fill="#000000" stroke="#b4f079" stroke-width="1.5"/><text x="775.1" y="518" font-family="'JetBrains Mono', 'Fira Code', 'SF Mono', 'Cascadia Code', monospace" font-size="13" fill="#b4f079" text-anchor="middle" dominant-baseline="central" letter-spacing="0.12em">AWS S3</text>
<rect x="843.6" y="498" width="115" height="40" rx="12" fill="#000000" stroke="#b4f079" stroke-width="1.5"/><text x="901.1" y="518" font-family="'JetBrains Mono', 'Fira Code', 'SF Mono', 'Cascadia Code', monospace" font-size="13" fill="#b4f079" text-anchor="middle" dominant-baseline="central" letter-spacing="0.12em">SENDGRID</text>
<text x="201.84" y="159" font-family="'JetBrains Mono', 'Fira Code', 'SF Mono', 'Cascadia Code', monospace" font-size="12" fill="#b4f079" opacity="0.85" text-anchor="middle">HTTPS</text>
<text x="449.93999999999994" y="159" font-family="'JetBrains Mono', 'Fira Code', 'SF Mono', 'Cascadia Code', monospace" font-size="12" fill="#b4f079" opacity="0.85" text-anchor="middle">Monitor</text>
<text x="352.69" y="159" font-family="'JetBrains Mono', 'Fira Code', 'SF Mono', 'Cascadia Code', monospace" font-size="12" fill="#b4f079" opacity="0.85" text-anchor="middle">SSH + kubectl</text>
<text x="596.15" y="172" font-family="'JetBrains Mono', 'Fira Code', 'SF Mono', 'Cascadia Code', monospace" font-size="12" fill="#b4f079" opacity="0.85" text-anchor="middle">Read replica queries</text>
<text x="206.3" y="411" font-family="'JetBrains Mono', 'Fira Code', 'SF Mono', 'Cascadia Code', monospace" font-size="12" fill="#b4f079" opacity="0.85" text-anchor="middle">Authenticate</text>
<text x="325.45000000000005" y="448.5" font-family="'JetBrains Mono', 'Fira Code', 'SF Mono', 'Cascadia Code', monospace" font-size="12" fill="#b4f079" opacity="0.85" text-anchor="middle">Hot data</text>
<text x="578.3" y="244" font-family="'JetBrains Mono', 'Fira Code', 'SF Mono', 'Cascadia Code', monospace" font-size="12" fill="#b4f079" opacity="0.85" text-anchor="middle">CRUD</text>
<text x="461.70000000000005" y="447" font-family="'JetBrains Mono', 'Fira Code', 'SF Mono', 'Cascadia Code', monospace" font-size="12" fill="#b4f079" opacity="0.85" text-anchor="middle">Charges</text>
<text x="657.45" y="435.75" font-family="'JetBrains Mono', 'Fira Code', 'SF Mono', 'Cascadia Code', monospace" font-size="12" fill="#b4f079" opacity="0.85" text-anchor="middle">Transactional email</text>
<text x="624.45" y="469.5" font-family="'JetBrains Mono', 'Fira Code', 'SF Mono', 'Cascadia Code', monospace" font-size="12" fill="#b4f079" opacity="0.85" text-anchor="middle">Object storage</text>
<text x="530.3" y="399.75" font-family="'JetBrains Mono', 'Fira Code', 'SF Mono', 'Cascadia Code', monospace" font-size="12" fill="#b4f079" opacity="0.85" text-anchor="middle">Metrics + traces</text>
<text x="66" y="411" font-family="'JetBrains Mono', 'Fira Code', 'SF Mono', 'Cascadia Code', monospace" font-size="12" fill="#b4f079" opacity="0.85" text-anchor="middle">User store</text>
<text x="982.6" y="293" font-family="'Inter', 'Helvetica Neue', Arial, sans-serif" font-size="14" fill="#ffffff" font-weight="700">Tiny actors vs large services:</text><text x="982.6" y="311" font-family="'JetBrains Mono', 'Fira Code', 'SF Mono', 'Cascadia Code', monospace" font-size="11" fill="#b4f079" opacity="0.7">tests node size variance</text><text x="982.6" y="329" font-family="'JetBrains Mono', 'Fira Code', 'SF Mono', 'Cascadia Code', monospace" font-size="11" fill="#b4f079" opacity="0.7">in layout algorithm</text>
</g>
</svg>