<svg xmlns="http://www.w3.org/2000/svg" viewBox="0 0 1245.4 574" width="1245.4" height="574">
<defs>
  <pattern id="dotgrid" width="8" height="8" patternUnits="userSpaceOnUse">
    <rect width="8" height="8" fill="#000000"/>
    <circle cx="4" cy="4" r="0.8" fill="#b4f079" opacity="0.7"/>
  </pattern>
  <pattern id="crosshatch" width="8" height="8" patternUnits="userSpaceOnUse">
    <rect width="8" height="8" fill="#000000"/>
    <path d="M0 8L8 0M-1 1L1 -1M7 9L9 7" stroke="#b4f079" stroke-width="0.8" opacity="0.2"/>
  </pattern>
  <pattern id="hero" width="6" height="6" patternUnits="userSpaceOnUse">
    <rect width="6" height="6" fill="#3d6b23"/>
    <circle cx="3" cy="3" r="0.6" fill="#5a9a35" opacity="0.5"/>
  </pattern>
  <marker id="arrowhead" markerWidth="10" markerHeight="7" refX="9" refY="3.5" orient="auto" markerUnits="strokeWidth">
    <polygon points="0 0, 10 3.5, 0 7" fill="#b4f079"/>
  </marker>
  <marker id="arrowhead-reverse" markerWidth="10" markerHeight="7" refX="1" refY="3.5" orient="auto" markerUnits="strokeWidth">
    <polygon points="10 0, 0 3.5, 10 7" fill="#b4f079"/>
  </marker>
</defs>
<rect width="100%" height="100%" fill="#000000"/>
<g class="diagram">
<text x="30" y="34" font-family="'Inter', 'Helvetica Neue', Arial, sans-serif" font-size="15" fill="#ffffff" font-weight="700">System context: extreme node size variance</text>
<polyline points="264.78,132 264.78,158 161.7,158 161.7,226" fill="none" stroke="#b4f079" stroke-width="1.5" marker-end="url(#arrowhead)"/>
<line x1="193.7" y1="258" x2="213.7" y2="258" stroke="#b4f079" stroke-width="1.5" marker-end="url(#arrowhead)"/>
<polyline points="362.97999999999996,132 362.97999999999996,158 589.7,158 589.7,238" fill="none" stroke="#b4f079" stroke-width="1.5" marker-end="url(#arrowhead)"/>
<line x1="362.97999999999996" y1="132" x2="365.2" y2="170" stroke="#b4f079" stroke-width="1.5" marker-end="url(#arrowhead)"/>
<polyline points="479.9,132 479.9,158 795.2,158 795.2,186" fill="none" stroke="#b4f079" stroke-width="1.5" marker-end="url(#arrowhead)"/>
<polyline points="365.2,346 365.2,365 200.2,365 200.2,384" fill="none" stroke="#b4f079" stroke-width="1.5" marker-end="url(#arrowhead)"/>
<line x1="365.2" y1="346" x2="397.9" y2="439" stroke="#b4f079" stroke-width="1.5" marker-end="url(#arrowhead)"/>
<line x1="516.7" y1="258" x2="662.7" y2="258" stroke="#b4f079" stroke-width="1.5" marker-end="url(#arrowhead)"/>
<polyline points="365.2,346 365.2,391 600.4,391 600.4,436" fill="none" stroke="#b4f079" stroke-width="1.5" marker-end="url(#arrowhead)"/>
<polyline points="365.2,346 365.2,391 931.9,391 931.9,436" fill="none" stroke="#b4f079" stroke-width="1.5" marker-end="url(#arrowhead)"/>
<polyline points="365.2,346 365.2,391 805.9,391 805.9,436" fill="none" stroke="#b4f079" stroke-width="1.5" marker-end="url(#arrowhead)"/>
<line x1="516.7" y1="258" x2="536.7" y2="258" stroke="#b4f079" stroke-width="1.5" marker-end="url(#arrowhead)"/>
<polyline points="68,456 28,456 28,345 795.2,345 795.2,330" fill="none" stroke="#b4f079" stroke-width="1.5" marker-end="url(#arrowhead)"/>
<rect x="190.98999999999998" y="141" width="44.5" height="21" rx="4" fill="#000000"/>
<rect x="435.59000000000003" y="126.5" width="57.5" height="21" rx="4" fill="#000000"/>
<rect x="315.84" y="140.5" width="96.5" height="21" rx="4" fill="#000000"/>
<rect x="542.55" y="137.5" width="142" height="21" rx="4" fill="#000000"/>
<rect x="237.7" y="354.5" width="90" height="21" rx="4" fill="#000000"/>
<rect x="349.54999999999995" y="382" width="64" height="21" rx="4" fill="#000000"/>
<rect x="570.7" y="209" width="38" height="21" rx="4" fill="#000000"/>
<rect x="454.04999999999995" y="380.5" width="57.5" height="21" rx="4" fill="#000000"/>
<rect x="580.8" y="366" width="135.5" height="21" rx="4" fill="#000000"/>
<rect x="534.05" y="395" width="103" height="21" rx="4" fill="#000000"/>
<rect x="480.70000000000005" y="166.5" width="116" height="21" rx="4" fill="#000000"/>
<rect x="13.5" y="355" width="77" height="21" rx="4" fill="#000000"/>
<circle cx="264.78" cy="67" r="7" fill="none" stroke="#b4f079" stroke-width="1.5"/><line x1="264.78" y1="74" x2="264.78" y2="96" stroke="#b4f079" stroke-width="1.5"/><line x1="250.77999999999997" y1="80" x2="278.78" y2="80" stroke="#b4f079" stroke-width="1.5"/><line x1="264.78" y1="96" x2="254.77999999999997" y2="112" stroke="#b4f079" stroke-width="1.5"/><line x1="264.78" y1="96" x2="274.78" y2="112" stroke="#b4f079" stroke-width="1.5"/><text x="264.78" y="126" font-family="'JetBrains Mono', 'Fira Code', 'SF Mono', 'Cascadia Code', monospace" font-size="13" fill="#b4f079" text-anchor="middle" letter-spacing="0.12em">END USER</text>
<circle cx="362.97999999999996" cy="67" r="7" fill="none" stroke="#b4f079" stroke-width="1.5"/><line x1="362.97999999999996" y1="74" x2="362.97999999999996" y2="96" stroke="#b4f079" stroke-width="1.5"/><line x1="348.97999999999996" y1="80" x2="376.97999999999996" y2="80" stroke="#b4f079" stroke-width="1.5"/><line x1="362.97999999999996" y1="96" x2="352.97999999999996" y2="112" stroke="#b4f079" stroke-width="1.5"/><line x1="362.97999999999996" y1="96" x2="372.97999999999996" y2="112" stroke="#b4f079" stroke-width="1.5"/><text x="362.97999999999996" y="126" font-family="'JetBrains Mono', 'Fira Code', 'SF Mono', 'Cascadia Code', monospace" font-size="13" fill="#b4f079" text-anchor="middle" letter-spacing="0.12em">OPS SRE</text>
<circle cx="479.9" cy="67" r="7" fill="none" stroke="#b4f079" stroke-width="1.5"/><line x1="479.9" y1="74" x2="479.9" y2="96" stroke="#b4f079" stroke-width="1.5"/><line x1="465.9" y1="80" x2="493.9" y2="80" stroke="#b4f079" stroke-width="1.5"/><line x1="479.9" y1="96" x2="469.9" y2="112" stroke="#b4f079" stroke-width="1.5"/><line x1="479.9" y1="96" x2="489.9" y2="112" stroke="#b4f079" stroke-width="1.5"/><text x="479.9" y="126" font-family="'JetBrains Mono', 'Fira Code', 'SF Mono', 'Cascadia Code', monospace" font-size="13" fill="#b4f079" text-anchor="middle" letter-spacing="0.12em">DATA ANALYST</text>
<rect x="213.7" y="170" width="303" height="176" rx="12" fill="none" stroke="#b4f079" stroke-width="2"/><rect x="218.7" y="175" width="293" height="166" rx="8" fill="url(#hero)" stroke="#b4f079" stroke-width="1"/><text x="365.2" y="250" font-family="'JetBrains Mono', 'Fira Code', 'SF Mono', 'Cascadia Code', monospace" font-size="13" fill="#b4f079" text-anchor="middle" dominant-baseline="central" letter-spacing="0.12em">PRIMARY APPLICATION PLATFORM</text><text x="365.2" y="270" font-family="'JetBrains Mono', 'Fira Code', 'SF Mono', 'Cascadia Code', monospace" font-size="11" fill="#b4f079" opacity="0.6" text-anchor="middle" dominant-baseline="central" letter-spacing="0.12em">Monorepo: 14 microservices, 2.3M</text><text x="365.2" y="285.4" font-family="'JetBrains Mono', 'Fira Code', 'SF Mono', 'Cascadia Code', monospace" font-size="11" fill="#b4f079" opacity="0.6" text-anchor="middle" dominant-baseline="central" letter-spacing="0.12em">LoC Deployed across 3 regions</text><text x="365.2" y="300.8" font-family="'JetBrains Mono', 'Fira Code', 'SF Mono', 'Cascadia Code', monospace" font-size="11" fill="#b4f079" opacity="0.6" text-anchor="middle" dominant-baseline="central" letter-spacing="0.12em">Serving 50M monthly active users</text><text x="365.2" y="316.2" font-family="'JetBrains Mono', 'Fira Code', 'SF Mono', 'Cascadia Code', monospace" font-size="11" fill="#b4f079" opacity="0.6" text-anchor="middle" dominant-baseline="central" letter-spacing="0.12em">99.95% SLA target</text>
<circle cx="161.7" cy="258" r="32" fill="#000000" stroke="#b4f079" stroke-width="1.5"/><text x="161.7" y="258" font-family="'JetBrains Mono', 'Fira Code', 'SF Mono', 'Cascadia Code', monospace" font-size="13" fill="#b4f079" text-anchor="middle" dominant-baseline="central" letter-spacing="0.12em">LB</text>
<rect x="560.06" y="76" width="274" height="40" rx="12" fill="#000000" stroke="#b4f079" stroke-width="1.5"/><text x="697.06" y="96" font-family="'JetBrains Mono', 'Fira Code', 'SF Mono', 'Cascadia Code', monospace" font-size="13" fill="#b4f079" text-anchor="middle" dominant-baseline="central" letter-spacing="0.12em">--- INTERNAL BOUNDARY ---</text>
<rect x="68" y="384" width="264.4" height="144" rx="12" fill="url(#dotgrid)" stroke="#b4f079" stroke-width="1.5"/><rect x="124.19999999999999" y="436.9" width="152" height="22.2" fill="#000000" rx="2"/><text x="200.2" y="448" font-family="'JetBrains Mono', 'Fira Code', 'SF Mono', 'Cascadia Code', monospace" font-size="13" fill="#b4f079" text-anchor="middle" dominant-baseline="central" letter-spacing="0.12em">IDENTITY PROVIDER</text><rect x="-151.8" y="459.5" width="704" height="17" fill="#000000" rx="2"/><text x="200.2" y="468" font-family="'JetBrains Mono', 'Fira Code', 'SF Mono', 'Cascadia Code', monospace" font-size="11" fill="#b4f079" opacity="0.6" text-anchor="middle" dominant-baseline="central" letter-spacing="0.12em">SAML 2.0 + OIDC Multi-tenant</text><text x="200.2" y="483.4" font-family="'JetBrains Mono', 'Fira Code', 'SF Mono', 'Cascadia Code', monospace" font-size="11" fill="#b4f079" opacity="0.6" text-anchor="middle" dominant-baseline="central" letter-spacing="0.12em">federation Device trust evaluation</text><text x="200.2" y="498.8" font-family="'JetBrains Mono', 'Fira Code', 'SF Mono', 'Cascadia Code', monospace" font-size="11" fill="#b4f079" opacity="0.6" text-anchor="middle" dominant-baseline="central" letter-spacing="0.12em">Step-up authentication</text>
<rect x="352.4" y="439" width="91" height="34" rx="17" fill="url(#dotgrid)" stroke="#b4f079" stroke-width="1.5"/><rect x="369.9" y="444.9" width="56" height="22.2" fill="#000000" rx="2"/><text x="397.9" y="456" font-family="'JetBrains Mono', 'Fira Code', 'SF Mono', 'Cascadia Code', monospace" font-size="13" fill="#b4f079" text-anchor="middle" dominant-baseline="central" letter-spacing="0.12em">CACHE</text>
<rect x="662.7" y="196" width="265" height="124" fill="url(#crosshatch)" stroke="none"/><line x1="662.7" y1="196" x2="662.7" y2="320" stroke="#b4f079" stroke-width="1.5"/><line x1="927.7" y1="196" x2="927.7" y2="320" stroke="#b4f079" stroke-width="1.5"/><ellipse cx="795.2" cy="196" rx="132.5" ry="10" fill="url(#crosshatch)" stroke="#b4f079" stroke-width="1.5"/><path d="M662.7,320 A132.5,10 0 0,0 927.7,320" fill="url(#crosshatch)" stroke="#b4f079" stroke-width="1.5"/><text x="795.2" y="258" font-family="'JetBrains Mono', 'Fira Code', 'SF Mono', 'Cascadia Code', monospace" font-size="13" fill="#b4f079" text-anchor="middle" dominant-baseline="central" letter-spacing="0.12em">PRIMARY DATABASE CLUSTER</text>
<rect x="463.4" y="436" width="274" height="40" rx="12" fill="#000000" stroke="#b4f079" stroke-width="1.5"/><text x="600.4" y="456" font-family="'JetBrains Mono', 'Fira Code', 'SF Mono', 'Cascadia Code', monospace" font-size="13" fill="#b4f079" text-anchor="middle" dominant-baseline="central" letter-spacing="0.12em">STRIPE PAYMENT PROCESSING</text>
<rect x="536.7" y="238" width="106" height="40" rx="12" fill="#000000" stroke="#b4f079" stroke-width="1.5"/><text x="589.7" y="258" font-family="'JetBrains Mono', 'Fira Code', 'SF Mono', 'Cascadia Code', monospace" font-size="13" fill="#b4f079" text-anchor="middle" dominant-baseline="central" letter-spacing="0.12em">DATADOG</text>
<rect x="757.4" y="436" width="97" height="40" rx="12" fill="#000000" stroke="#b4f079" stroke-width="1.5"/><text x="805.9" y="456" font-family="'JetBrains Mono', 'Fira Code', 'SF Mono', 'Cascadia Code', monospace" font-size="13" fill="#b4f079" text-anchor="middle" dominant-baseline="central" letter-spacing="0.12em">AWS S3</text>
<rect x="874.4" y="436" width="115" height="40" rx="12" fill="#000000" stroke="#b4f079" stroke-width="1.5"/><text x="931.9" y="456" font-family="'JetBrains Mono', 'Fira Code', 'SF Mono', 'Cascadia Code', monospace" font-size="13" fill="#b4f079" text-anchor="middle" dominant-baseline="central" letter-spacing="0.12em">SENDGRID</text>
<text x="213.23999999999998" y="155" font-family="'JetBrains Mono', 'Fira Code', 'SF Mono', 'Cascadia Code', monospace" font-size="11" fill="#b4f079" opacity="0.85" text-anchor="middle">HTTPS</text>
<text x="464.34000000000003" y="140.5" font-family="'JetBrains Mono', 'Fira Code', 'SF Mono', 'Cascadia Code', monospace" font-size="11" fill="#b4f079" opacity="0.85" text-anchor="middle">Monitor</text>
<text x="364.09" y="154.5" font-family="'JetBrains Mono', 'Fira Code', 'SF Mono', 'Cascadia Code', monospace" font-size="11" fill="#b4f079" opacity="0.85" text-anchor="middle">SSH + kubectl</text>
<text x="613.55" y="151.5" font-family="'JetBrains Mono', 'Fira Code', 'SF Mono', 'Cascadia Code', monospace" font-size="11" fill="#b4f079" opacity="0.85" text-anchor="middle">Read replica queries</text>
<text x="282.7" y="368.5" font-family="'JetBrains Mono', 'Fira Code', 'SF Mono', 'Cascadia Code', monospace" font-size="11" fill="#b4f079" opacity="0.85" text-anchor="middle">Authenticate</text>
<text x="381.54999999999995" y="396" font-family="'JetBrains Mono', 'Fira Code', 'SF Mono', 'Cascadia Code', monospace" font-size="11" fill="#b4f079" opacity="0.85" text-anchor="middle">Hot data</text>
<text x="589.7" y="223" font-family="'JetBrains Mono', 'Fira Code', 'SF Mono', 'Cascadia Code', monospace" font-size="11" fill="#b4f079" opacity="0.85" text-anchor="middle">CRUD</text>
<text x="482.79999999999995" y="394.5" font-family="'JetBrains Mono', 'Fira Code', 'SF Mono', 'Cascadia Code', monospace" font-size="11" fill="#b4f079" opacity="0.85" text-anchor="middle">Charges</text>
<text x="648.55" y="380" font-family="'JetBrains Mono', 'Fira Code', 'SF Mono', 'Cascadia Code', monospace" font-size="11" fill="#b4f079" opacity="0.85" text-anchor="middle">Transactional email</text>
<text x="585.55" y="409" font-family="'JetBrains Mono', 'Fira Code', 'SF Mono', 'Cascadia Code', monospace" font-size="11" fill="#b4f079" opacity="0.85" text-anchor="middle">Object storage</text>
<text x="538.7" y="180.5" font-family="'JetBrains Mono', 'Fira Code', 'SF Mono', 'Cascadia Code', monospace" font-size="11" fill="#b4f079" opacity="0.85" text-anchor="middle">Metrics + traces</text>
<text x="52" y="369" font-family="'JetBrains Mono', 'Fira Code', 'SF Mono', 'Cascadia Code', monospace" font-size="11" fill="#b4f079" opacity="0.85" text-anchor="middle">User store</text>
<text x="1013.4" y="174" font-family="'Inter', 'Helvetica Neue', Arial, sans-serif" font-size="14" fill="#ffffff" font-weight="700">Tiny actors vs large services:</text><text x="1013.4" y="192" font-family="'JetBrains Mono', 'Fira Code', 'SF Mono', 'Cascadia Code', monospace" font-size="11" fill="#b4f079" opacity="0.7">tests node size variance</text><text x="1013.4" y="210" font-family="'JetBrains Mono', 'Fira Code', 'SF Mono', 'Cascadia Code', monospace" font-size="11" fill="#b4f079" opacity="0.7">in layout algorithm</text>
</g>
</svg>