<svg xmlns="http://www.w3.org/2000/svg" viewBox="0 0 1273.8 588" width="1273.8" height="588">
<defs>
  <pattern id="dotgrid" width="8" height="8" patternUnits="userSpaceOnUse">
    <rect width="8" height="8" fill="#000000"/>
    <circle cx="4" cy="4" r="0.8" fill="#b4f079" opacity="0.7"/>
  </pattern>
  <pattern id="crosshatch" width="8" height="8" patternUnits="userSpaceOnUse">
    <rect width="8" height="8" fill="#000000"/>
    <path d="M0 8L8 0M-1 1L1 -1M7 9L9 7" stroke="#b4f079" stroke-width="0.8" opacity="0.2"/>
  </pattern>
  <pattern id="hero" width="6" height="6" patternUnits="userSpaceOnUse">
    <rect width="6" height="6" fill="#3d6b23"/>
    <circle cx="3" cy="3" r="0.6" fill="#5a9a35" opacity="0.5"/>
  </pattern>
  <marker id="arrowhead" markerWidth="10" markerHeight="7" refX="9" refY="3.5" orient="auto" markerUnits="strokeWidth">
    <polygon points="0 0, 10 3.5, 0 7" fill="#b4f079"/>
  </marker>
  <marker id="arrowhead-reverse" markerWidth="10" markerHeight="7" refX="1" refY="3.5" orient="auto" markerUnits="strokeWidth">
    <polygon points="10 0, 0 3.5, 10 7" fill="#b4f079"/>
  </marker>
</defs>
<rect width="100%" height="100%" fill="#000000"/>
<g class="diagram">
<text x="30" y="34" font-family="'Inter', 'Helvetica Neue', Arial, sans-serif" font-size="15" fill="#ffffff" font-weight="700">System context: extreme node size variance</text>
<polyline points="282.97999999999996,132 282.97999999999996,158 173.59999999999997,158 173.59999999999997,230" fill="none" stroke="#b4f079" stroke-width="1.5" marker-end="url(#arrowhead)"/>
<line x1="205.59999999999997" y1="262" x2="225.59999999999997" y2="262" stroke="#b4f079" stroke-width="1.5" marker-end="url(#arrowhead)"/>
<polyline points="381.17999999999995,132 381.17999999999995,158 601.5999999999999,158 601.5999999999999,242" fill="none" stroke="#b4f079" stroke-width="1.5" marker-end="url(#arrowhead)"/>
<line x1="381.17999999999995" y1="132" x2="377.09999999999997" y2="170" stroke="#b4f079" stroke-width="1.5" marker-end="url(#arrowhead)"/>
<polyline points="498.0999999999999,132 498.0999999999999,158 813.3999999999999,158 813.3999999999999,187" fill="none" stroke="#b4f079" stroke-width="1.5" marker-end="url(#arrowhead)"/>
<polyline points="377.09999999999997,354 377.09999999999997,373 218.39999999999998,373 218.39999999999998,392" fill="none" stroke="#b4f079" stroke-width="1.5" marker-end="url(#arrowhead)"/>
<line x1="377.09999999999997" y1="354" x2="426.29999999999995" y2="450" stroke="#b4f079" stroke-width="1.5" marker-end="url(#arrowhead)"/>
<line x1="528.5999999999999" y1="262" x2="674.5999999999999" y2="262" stroke="#b4f079" stroke-width="1.5" marker-end="url(#arrowhead)"/>
<polyline points="377.09999999999997,354 377.09999999999997,400.5 628.8,400.5 628.8,447" fill="none" stroke="#b4f079" stroke-width="1.5" marker-end="url(#arrowhead)"/>
<polyline points="377.09999999999997,354 377.09999999999997,400.5 960.3,400.5 960.3,447" fill="none" stroke="#b4f079" stroke-width="1.5" marker-end="url(#arrowhead)"/>
<polyline points="377.09999999999997,354 377.09999999999997,400.5 834.3,400.5 834.3,447" fill="none" stroke="#b4f079" stroke-width="1.5" marker-end="url(#arrowhead)"/>
<line x1="528.5999999999999" y1="262" x2="548.5999999999999" y2="262" stroke="#b4f079" stroke-width="1.5" marker-end="url(#arrowhead)"/>
<polyline points="76,467 36,467 36,352 813.3999999999999,352 813.3999999999999,337" fill="none" stroke="#b4f079" stroke-width="1.5" marker-end="url(#arrowhead)"/>
<rect x="204.78999999999996" y="140" width="47" height="22" rx="4" fill="#000000"/>
<rect x="434.2449999999999" y="140" width="61" height="22" rx="4" fill="#000000"/>
<rect x="327.64" y="140" width="103" height="22" rx="4" fill="#000000"/>
<rect x="549.7499999999999" y="159.25" width="152" height="22" rx="4" fill="#000000"/>
<rect x="189.75" y="362" width="96" height="22" rx="4" fill="#000000"/>
<rect x="337.69999999999993" y="362" width="68" height="22" rx="4" fill="#000000"/>
<rect x="581.5999999999999" y="212" width="40" height="22" rx="4" fill="#000000"/>
<rect x="472.44999999999993" y="389.5" width="61" height="22" rx="4" fill="#000000"/>
<rect x="626.1999999999999" y="374.5" width="145" height="22" rx="4" fill="#000000"/>
<rect x="610.6999999999999" y="404.5" width="110" height="22" rx="4" fill="#000000"/>
<rect x="503.2449999999999" y="129.25" width="124" height="22" rx="4" fill="#000000"/>
<rect x="25" y="362" width="82" height="22" rx="4" fill="#000000"/>
<circle cx="282.97999999999996" cy="67" r="7" fill="none" stroke="#b4f079" stroke-width="1.5"/><line x1="282.97999999999996" y1="74" x2="282.97999999999996" y2="96" stroke="#b4f079" stroke-width="1.5"/><line x1="268.97999999999996" y1="80" x2="296.97999999999996" y2="80" stroke="#b4f079" stroke-width="1.5"/><line x1="282.97999999999996" y1="96" x2="272.97999999999996" y2="112" stroke="#b4f079" stroke-width="1.5"/><line x1="282.97999999999996" y1="96" x2="292.97999999999996" y2="112" stroke="#b4f079" stroke-width="1.5"/><text x="282.97999999999996" y="126" font-family="'JetBrains Mono', 'Fira Code', 'SF Mono', 'Cascadia Code', monospace" font-size="13" fill="#b4f079" text-anchor="middle" letter-spacing="0.12em">END USER</text>
<circle cx="381.17999999999995" cy="67" r="7" fill="none" stroke="#b4f079" stroke-width="1.5"/><line x1="381.17999999999995" y1="74" x2="381.17999999999995" y2="96" stroke="#b4f079" stroke-width="1.5"/><line x1="367.17999999999995" y1="80" x2="395.17999999999995" y2="80" stroke="#b4f079" stroke-width="1.5"/><line x1="381.17999999999995" y1="96" x2="371.17999999999995" y2="112" stroke="#b4f079" stroke-width="1.5"/><line x1="381.17999999999995" y1="96" x2="391.17999999999995" y2="112" stroke="#b4f079" stroke-width="1.5"/><text x="381.17999999999995" y="126" font-family="'JetBrains Mono', 'Fira Code', 'SF Mono', 'Cascadia Code', monospace" font-size="13" fill="#b4f079" text-anchor="middle" letter-spacing="0.12em">OPS SRE</text>
<circle cx="498.0999999999999" cy="67" r="7" fill="none" stroke="#b4f079" stroke-width="1.5"/><line x1="498.0999999999999" y1="74" x2="498.0999999999999" y2="96" stroke="#b4f079" stroke-width="1.5"/><line x1="484.0999999999999" y1="80" x2="512.0999999999999" y2="80" stroke="#b4f079" stroke-width="1.5"/><line x1="498.0999999999999" y1="96" x2="488.0999999999999" y2="112" stroke="#b4f079" stroke-width="1.5"/><line x1="498.0999999999999" y1="96" x2="508.0999999999999" y2="112" stroke="#b4f079" stroke-width="1.5"/><text x="498.0999999999999" y="126" font-family="'JetBrains Mono', 'Fira Code', 'SF Mono', 'Cascadia Code', monospace" font-size="13" fill="#b4f079" text-anchor="middle" letter-spacing="0.12em">DATA ANALYST</text>
<rect x="225.59999999999997" y="170" width="303" height="184" rx="12" fill="none" stroke="#b4f079" stroke-width="2"/><rect x="230.59999999999997" y="175" width="293" height="174" rx="8" fill="url(#hero)" stroke="#b4f079" stroke-width="1"/><rect x="257.09999999999997" y="242.9" width="240" height="22.2" fill="#000000" rx="2"/><text x="377.09999999999997" y="254" font-family="'JetBrains Mono', 'Fira Code', 'SF Mono', 'Cascadia Code', monospace" font-size="13" fill="#b4f079" text-anchor="middle" dominant-baseline="central" letter-spacing="0.12em">PRIMARY APPLICATION PLATFORM</text><rect x="241.09999999999997" y="262.6" width="272" height="73.19999999999999" fill="#000000" rx="2"/><text x="377.09999999999997" y="274" font-family="'JetBrains Mono', 'Fira Code', 'SF Mono', 'Cascadia Code', monospace" font-size="12" fill="#b4f079" opacity="0.6" text-anchor="middle" dominant-baseline="central" letter-spacing="0.12em">Monorepo: 14 microservices, 2.3M</text><text x="377.09999999999997" y="290.8" font-family="'JetBrains Mono', 'Fira Code', 'SF Mono', 'Cascadia Code', monospace" font-size="12" fill="#b4f079" opacity="0.6" text-anchor="middle" dominant-baseline="central" letter-spacing="0.12em">LoC Deployed across 3 regions</text><text x="377.09999999999997" y="307.6" font-family="'JetBrains Mono', 'Fira Code', 'SF Mono', 'Cascadia Code', monospace" font-size="12" fill="#b4f079" opacity="0.6" text-anchor="middle" dominant-baseline="central" letter-spacing="0.12em">Serving 50M monthly active users</text><text x="377.09999999999997" y="324.4" font-family="'JetBrains Mono', 'Fira Code', 'SF Mono', 'Cascadia Code', monospace" font-size="12" fill="#b4f079" opacity="0.6" text-anchor="middle" dominant-baseline="central" letter-spacing="0.12em">99.95% SLA target</text>
<circle cx="173.59999999999997" cy="262" r="32" fill="#000000" stroke="#b4f079" stroke-width="1.5"/><text x="173.59999999999997" y="262" font-family="'JetBrains Mono', 'Fira Code', 'SF Mono', 'Cascadia Code', monospace" font-size="13" fill="#b4f079" text-anchor="middle" dominant-baseline="central" letter-spacing="0.12em">LB</text>
<rect x="578.26" y="76" width="274" height="40" rx="12" fill="#000000" stroke="#b4f079" stroke-width="1.5"/><text x="715.26" y="96" font-family="'JetBrains Mono', 'Fira Code', 'SF Mono', 'Cascadia Code', monospace" font-size="13" fill="#b4f079" text-anchor="middle" dominant-baseline="central" letter-spacing="0.12em">--- INTERNAL BOUNDARY ---</text>
<rect x="76" y="392" width="284.79999999999995" height="150" rx="12" fill="url(#dotgrid)" stroke="#b4f079" stroke-width="1.5"/><rect x="142.39999999999998" y="447.9" width="152" height="22.2" fill="#000000" rx="2"/><text x="218.39999999999998" y="459" font-family="'JetBrains Mono', 'Fira Code', 'SF Mono', 'Cascadia Code', monospace" font-size="13" fill="#b4f079" text-anchor="middle" dominant-baseline="central" letter-spacing="0.12em">IDENTITY PROVIDER</text><rect x="74.39999999999998" y="467.6" width="288" height="56.39999999999999" fill="#000000" rx="2"/><text x="218.39999999999998" y="479" font-family="'JetBrains Mono', 'Fira Code', 'SF Mono', 'Cascadia Code', monospace" font-size="12" fill="#b4f079" opacity="0.6" text-anchor="middle" dominant-baseline="central" letter-spacing="0.12em">SAML 2.0 + OIDC Multi-tenant</text><text x="218.39999999999998" y="495.8" font-family="'JetBrains Mono', 'Fira Code', 'SF Mono', 'Cascadia Code', monospace" font-size="12" fill="#b4f079" opacity="0.6" text-anchor="middle" dominant-baseline="central" letter-spacing="0.12em">federation Device trust evaluation</text><text x="218.39999999999998" y="512.6" font-family="'JetBrains Mono', 'Fira Code', 'SF Mono', 'Cascadia Code', monospace" font-size="12" fill="#b4f079" opacity="0.6" text-anchor="middle" dominant-baseline="central" letter-spacing="0.12em">Step-up authentication</text>
<rect x="380.79999999999995" y="450" width="91" height="34" rx="17" fill="url(#dotgrid)" stroke="#b4f079" stroke-width="1.5"/><rect x="398.29999999999995" y="455.9" width="56" height="22.2" fill="#000000" rx="2"/><text x="426.29999999999995" y="467" font-family="'JetBrains Mono', 'Fira Code', 'SF Mono', 'Cascadia Code', monospace" font-size="13" fill="#b4f079" text-anchor="middle" dominant-baseline="central" letter-spacing="0.12em">CACHE</text>
<rect x="674.5999999999999" y="197" width="277.6" height="130" fill="url(#crosshatch)" stroke="none"/><line x1="674.5999999999999" y1="197" x2="674.5999999999999" y2="327" stroke="#b4f079" stroke-width="1.5"/><line x1="952.1999999999999" y1="197" x2="952.1999999999999" y2="327" stroke="#b4f079" stroke-width="1.5"/><ellipse cx="813.3999999999999" cy="197" rx="138.8" ry="10" fill="url(#crosshatch)" stroke="#b4f079" stroke-width="1.5"/><path d="M674.5999999999999,327 A138.8,10 0 0,0 952.1999999999999,327" fill="url(#crosshatch)" stroke="#b4f079" stroke-width="1.5"/><rect x="709.3999999999999" y="242.9" width="208" height="22.2" fill="#000000" rx="2"/><text x="813.3999999999999" y="254" font-family="'JetBrains Mono', 'Fira Code', 'SF Mono', 'Cascadia Code', monospace" font-size="13" fill="#b4f079" text-anchor="middle" dominant-baseline="central" letter-spacing="0.12em">PRIMARY DATABASE CLUSTER</text><rect x="673.3999999999999" y="262.6" width="280" height="56.39999999999999" fill="#000000" rx="2"/><text x="813.3999999999999" y="274" font-family="'JetBrains Mono', 'Fira Code', 'SF Mono', 'Cascadia Code', monospace" font-size="12" fill="#b4f079" opacity="0.6" text-anchor="middle" dominant-baseline="central" letter-spacing="0.12em">PostgreSQL 16 Patroni HA with 3</text><text x="813.3999999999999" y="290.8" font-family="'JetBrains Mono', 'Fira Code', 'SF Mono', 'Cascadia Code', monospace" font-size="12" fill="#b4f079" opacity="0.6" text-anchor="middle" dominant-baseline="central" letter-spacing="0.12em">replicas 12TB data, 500k TPS peak</text><text x="813.3999999999999" y="307.6" font-family="'JetBrains Mono', 'Fira Code', 'SF Mono', 'Cascadia Code', monospace" font-size="12" fill="#b4f079" opacity="0.6" text-anchor="middle" dominant-baseline="central" letter-spacing="0.12em">Point-in-time recovery: 30 days</text>
<rect x="491.79999999999995" y="447" width="274" height="40" rx="12" fill="#000000" stroke="#b4f079" stroke-width="1.5"/><text x="628.8" y="467" font-family="'JetBrains Mono', 'Fira Code', 'SF Mono', 'Cascadia Code', monospace" font-size="13" fill="#b4f079" text-anchor="middle" dominant-baseline="central" letter-spacing="0.12em">STRIPE PAYMENT PROCESSING</text>
<rect x="548.5999999999999" y="242" width="106" height="40" rx="12" fill="#000000" stroke="#b4f079" stroke-width="1.5"/><text x="601.5999999999999" y="262" font-family="'JetBrains Mono', 'Fira Code', 'SF Mono', 'Cascadia Code', monospace" font-size="13" fill="#b4f079" text-anchor="middle" dominant-baseline="central" letter-spacing="0.12em">DATADOG</text>
<rect x="785.8" y="447" width="97" height="40" rx="12" fill="#000000" stroke="#b4f079" stroke-width="1.5"/><text x="834.3" y="467" font-family="'JetBrains Mono', 'Fira Code', 'SF Mono', 'Cascadia Code', monospace" font-size="13" fill="#b4f079" text-anchor="middle" dominant-baseline="central" letter-spacing="0.12em">AWS S3</text>
<rect x="902.8" y="447" width="115" height="40" rx="12" fill="#000000" stroke="#b4f079" stroke-width="1.5"/><text x="960.3" y="467" font-family="'JetBrains Mono', 'Fira Code', 'SF Mono', 'Cascadia Code', monospace" font-size="13" fill="#b4f079" text-anchor="middle" dominant-baseline="central" letter-spacing="0.12em">SENDGRID</text>
<text x="228.28999999999996" y="155" font-family="'JetBrains Mono', 'Fira Code', 'SF Mono', 'Cascadia Code', monospace" font-size="12" fill="#b4f079" opacity="0.85" text-anchor="middle">HTTPS</text>
<text x="464.7449999999999" y="155" font-family="'JetBrains Mono', 'Fira Code', 'SF Mono', 'Cascadia Code', monospace" font-size="12" fill="#b4f079" opacity="0.85" text-anchor="middle">Monitor</text>
<text x="379.14" y="155" font-family="'JetBrains Mono', 'Fira Code', 'SF Mono', 'Cascadia Code', monospace" font-size="12" fill="#b4f079" opacity="0.85" text-anchor="middle">SSH + kubectl</text>
<text x="625.7499999999999" y="174.25" font-family="'JetBrains Mono', 'Fira Code', 'SF Mono', 'Cascadia Code', monospace" font-size="12" fill="#b4f079" opacity="0.85" text-anchor="middle">Read replica queries</text>
<text x="237.75" y="377" font-family="'JetBrains Mono', 'Fira Code', 'SF Mono', 'Cascadia Code', monospace" font-size="12" fill="#b4f079" opacity="0.85" text-anchor="middle">Authenticate</text>
<text x="371.69999999999993" y="377" font-family="'JetBrains Mono', 'Fira Code', 'SF Mono', 'Cascadia Code', monospace" font-size="12" fill="#b4f079" opacity="0.85" text-anchor="middle">Hot data</text>
<text x="601.5999999999999" y="227" font-family="'JetBrains Mono', 'Fira Code', 'SF Mono', 'Cascadia Code', monospace" font-size="12" fill="#b4f079" opacity="0.85" text-anchor="middle">CRUD</text>
<text x="502.94999999999993" y="404.5" font-family="'JetBrains Mono', 'Fira Code', 'SF Mono', 'Cascadia Code', monospace" font-size="12" fill="#b4f079" opacity="0.85" text-anchor="middle">Charges</text>
<text x="698.6999999999999" y="389.5" font-family="'JetBrains Mono', 'Fira Code', 'SF Mono', 'Cascadia Code', monospace" font-size="12" fill="#b4f079" opacity="0.85" text-anchor="middle">Transactional email</text>
<text x="665.6999999999999" y="419.5" font-family="'JetBrains Mono', 'Fira Code', 'SF Mono', 'Cascadia Code', monospace" font-size="12" fill="#b4f079" opacity="0.85" text-anchor="middle">Object storage</text>
<text x="565.2449999999999" y="144.25" font-family="'JetBrains Mono', 'Fira Code', 'SF Mono', 'Cascadia Code', monospace" font-size="12" fill="#b4f079" opacity="0.85" text-anchor="middle">Metrics + traces</text>
<text x="66" y="377" font-family="'JetBrains Mono', 'Fira Code', 'SF Mono', 'Cascadia Code', monospace" font-size="12" fill="#b4f079" opacity="0.85" text-anchor="middle">User store</text>
<text x="1041.8" y="174" font-family="'Inter', 'Helvetica Neue', Arial, sans-serif" font-size="14" fill="#ffffff" font-weight="700">Tiny actors vs large services:</text><text x="1041.8" y="192" font-family="'JetBrains Mono', 'Fira Code', 'SF Mono', 'Cascadia Code', monospace" font-size="11" fill="#b4f079" opacity="0.7">tests node size variance</text><text x="1041.8" y="210" font-family="'JetBrains Mono', 'Fira Code', 'SF Mono', 'Cascadia Code', monospace" font-size="11" fill="#b4f079" opacity="0.7">in layout algorithm</text>
</g>
</svg>