<svg xmlns="http://www.w3.org/2000/svg" viewBox="0 0 548 494" width="548" height="494">
<defs>
  <pattern id="dotgrid" width="8" height="8" patternUnits="userSpaceOnUse">
    <rect width="8" height="8" fill="#000000"/>
    <circle cx="4" cy="4" r="0.8" fill="#ffffff" opacity="0.7"/>
  </pattern>
  <pattern id="crosshatch" width="8" height="8" patternUnits="userSpaceOnUse">
    <rect width="8" height="8" fill="#000000"/>
    <path d="M0 8L8 0M-1 1L1 -1M7 9L9 7" stroke="#ffffff" stroke-width="0.8" opacity="0.2"/>
  </pattern>
  <pattern id="hero" width="6" height="6" patternUnits="userSpaceOnUse">
    <rect width="6" height="6" fill="#222222"/>
    <circle cx="3" cy="3" r="0.6" fill="#444444" opacity="0.5"/>
  </pattern>
  <marker id="arrowhead" markerWidth="10" markerHeight="7" refX="9" refY="3.5" orient="auto" markerUnits="strokeWidth">
    <polygon points="0 0, 10 3.5, 0 7" fill="#ffffff"/>
  </marker>
  <marker id="arrowhead-reverse" markerWidth="10" markerHeight="7" refX="1" refY="3.5" orient="auto" markerUnits="strokeWidth">
    <polygon points="10 0, 0 3.5, 10 7" fill="#ffffff"/>
  </marker>
</defs>
<rect width="100%" height="100%" fill="#000000"/>
<g class="diagram">
<text x="30" y="34" font-family="'Inter', 'Helvetica Neue', Arial, sans-serif" font-size="18" fill="#ffffff" font-weight="700">Layered domain architecture with</text><text x="30" y="58" font-family="'Inter', 'Helvetica Neue', Arial, sans-serif" font-size="18" fill="#ffffff" font-weight="700">explicit cross-cutting boundaries</text>
<rect x="30" y="169" width="488" height="330" rx="12" fill="url(#dotgrid)" stroke="#ffffff" stroke-width="1.5" opacity="0.5"/><rect x="30" y="169" width="488" height="330" rx="12" fill="none" stroke="#ffffff" stroke-width="1.5" opacity="0.4"/><text x="48" y="195" font-family="'Inter', 'Helvetica Neue', Arial, sans-serif" font-size="14" fill="#ffffff" opacity="0.9">Business logic domain</text>
<line x1="154.5" y1="139" x2="154.5" y2="209" stroke="#ffffff" stroke-width="1.5" marker-end="url(#arrowhead)"/>
<polyline points="154.5,139 154.5,174 365.5,174 365.5,209" fill="none" stroke="#ffffff" stroke-width="1.5" marker-end="url(#arrowhead)"/>
<line x1="231" y1="229" x2="261" y2="229" stroke="#ffffff" stroke-width="1.5" marker-end="url(#arrowhead)"/>
<polyline points="154.5,249 154.5,284 127,284 127,319" fill="none" stroke="#ffffff" stroke-width="1.5" marker-end="url(#arrowhead)"/>
<polyline points="154.5,249 154.5,284 291,284 291,319" fill="none" stroke="#ffffff" stroke-width="1.5" marker-end="url(#arrowhead)"/>
<polyline points="365.5,249 365.5,284 438,284 438,319" fill="none" stroke="#ffffff" stroke-width="1.5" marker-end="url(#arrowhead)"/>
<line x1="194" y1="339" x2="224" y2="339" stroke="#ffffff" stroke-width="1.5" marker-end="url(#arrowhead)"/>
<line x1="358" y1="339" x2="388" y2="339" stroke="#ffffff" stroke-width="1.5" marker-end="url(#arrowhead)"/>
<line x1="127" y1="359" x2="128.5" y2="429" stroke="#ffffff" stroke-width="1.5" marker-end="url(#arrowhead)"/>
<polyline points="291,359 291,394 278.5,394 278.5,429" fill="none" stroke="#ffffff" stroke-width="1.5" marker-end="url(#arrowhead)"/>
<polyline points="438,359 438,394 424,394 424,429" fill="none" stroke="#ffffff" stroke-width="1.5" marker-end="url(#arrowhead)"/>
<line x1="186" y1="449" x2="216" y2="449" stroke="#ffffff" stroke-width="1.5" marker-end="url(#arrowhead)"/>
<line x1="341" y1="449" x2="371" y2="449" stroke="#ffffff" stroke-width="1.5" marker-end="url(#arrowhead)"/>
<polyline points="71,449 30,449 30,154 154.5,154 154.5,139" fill="none" stroke="#ffffff" stroke-width="1.5" marker-end="url(#arrowhead)"/>
<rect x="97" y="99" width="115" height="40" rx="20" fill="transparent" stroke="#ffffff" stroke-width="1.5"/><text x="154.5" y="119" font-family="'JetBrains Mono', 'Fira Code', 'SF Mono', 'Cascadia Code', monospace" font-size="13" fill="#ffffff" text-anchor="middle" dominant-baseline="central" letter-spacing="0.12em">Utils</text>
<rect x="78" y="209" width="153" height="40" rx="20" fill="transparent" stroke="#ffffff" stroke-width="1.5"/><text x="154.5" y="229" font-family="'JetBrains Mono', 'Fira Code', 'SF Mono', 'Cascadia Code', monospace" font-size="13" fill="#ffffff" text-anchor="middle" dominant-baseline="central" letter-spacing="0.12em">Providers</text>
<rect x="261" y="209" width="209" height="40" rx="20" fill="transparent" stroke="#ffffff" stroke-width="1.5"/><text x="365.5" y="229" font-family="'JetBrains Mono', 'Fira Code', 'SF Mono', 'Cascadia Code', monospace" font-size="13" fill="#ffffff" text-anchor="middle" dominant-baseline="central" letter-spacing="0.12em">App Wiring + UI</text>
<rect x="60" y="319" width="134" height="40" rx="20" fill="transparent" stroke="#ffffff" stroke-width="1.5"/><text x="127" y="339" font-family="'JetBrains Mono', 'Fira Code', 'SF Mono', 'Cascadia Code', monospace" font-size="13" fill="#ffffff" text-anchor="middle" dominant-baseline="central" letter-spacing="0.12em">Service</text>
<rect x="224" y="319" width="134" height="40" rx="20" fill="transparent" stroke="#ffffff" stroke-width="1.5"/><text x="291" y="339" font-family="'JetBrains Mono', 'Fira Code', 'SF Mono', 'Cascadia Code', monospace" font-size="13" fill="#ffffff" text-anchor="middle" dominant-baseline="central" letter-spacing="0.12em">Runtime</text>
<rect x="388" y="319" width="100" height="40" rx="20" fill="transparent" stroke="#ffffff" stroke-width="1.5"/><text x="438" y="339" font-family="'JetBrains Mono', 'Fira Code', 'SF Mono', 'Cascadia Code', monospace" font-size="13" fill="#ffffff" text-anchor="middle" dominant-baseline="central" letter-spacing="0.12em">UI</text>
<rect x="71" y="429" width="115" height="40" rx="20" fill="transparent" stroke="#ffffff" stroke-width="1.5"/><text x="128.5" y="449" font-family="'JetBrains Mono', 'Fira Code', 'SF Mono', 'Cascadia Code', monospace" font-size="13" fill="#ffffff" text-anchor="middle" dominant-baseline="central" letter-spacing="0.12em">Types</text>
<rect x="216" y="429" width="125" height="40" rx="20" fill="transparent" stroke="#ffffff" stroke-width="1.5"/><text x="278.5" y="449" font-family="'JetBrains Mono', 'Fira Code', 'SF Mono', 'Cascadia Code', monospace" font-size="13" fill="#ffffff" text-anchor="middle" dominant-baseline="central" letter-spacing="0.12em">Config</text>
<rect x="371" y="429" width="106" height="40" rx="20" fill="transparent" stroke="#ffffff" stroke-width="1.5"/><text x="424" y="449" font-family="'JetBrains Mono', 'Fira Code', 'SF Mono', 'Cascadia Code', monospace" font-size="13" fill="#ffffff" text-anchor="middle" dominant-baseline="central" letter-spacing="0.12em">Repo</text>

</g>
</svg>