<svg xmlns="http://www.w3.org/2000/svg" viewBox="0 0 704 322" width="704" height="322">
<defs>
  <pattern id="dotgrid" width="8" height="8" patternUnits="userSpaceOnUse">
    <rect width="8" height="8" fill="#000000"/>
    <circle cx="4" cy="4" r="0.8" fill="#b4f079" opacity="0.7"/>
  </pattern>
  <pattern id="crosshatch" width="8" height="8" patternUnits="userSpaceOnUse">
    <rect width="8" height="8" fill="#000000"/>
    <path d="M0 8L8 0M-1 1L1 -1M7 9L9 7" stroke="#b4f079" stroke-width="0.8" opacity="0.2"/>
  </pattern>
  <pattern id="hero" width="6" height="6" patternUnits="userSpaceOnUse">
    <rect width="6" height="6" fill="#3d6b23"/>
    <circle cx="3" cy="3" r="0.6" fill="#5a9a35" opacity="0.5"/>
  </pattern>
  <marker id="arrowhead" markerWidth="10" markerHeight="7" refX="9" refY="3.5" orient="auto" markerUnits="strokeWidth">
    <polygon points="0 0, 10 3.5, 0 7" fill="#b4f079"/>
  </marker>
  <marker id="arrowhead-reverse" markerWidth="10" markerHeight="7" refX="1" refY="3.5" orient="auto" markerUnits="strokeWidth">
    <polygon points="10 0, 0 3.5, 10 7" fill="#b4f079"/>
  </marker>
</defs>
<rect width="100%" height="100%" fill="#000000"/>
<g class="diagram">
<text x="30" y="34" font-family="'Inter', 'Helvetica Neue', Arial, sans-serif" font-size="18" fill="#ffffff" font-weight="700">Responses API orchestrates agent loop</text>
<line x1="99" y1="179.5326086956522" x2="180" y2="182.6141304347826" stroke="#b4f079" stroke-width="1.5" marker-end="url(#arrowhead)"/>
<line x1="358" y1="90" x2="484.5" y2="79" stroke="#b4f079" stroke-width="1.5" marker-end="url(#arrowhead)"/>
<line x1="484.5" y1="127" x2="358" y2="148.5" stroke="#b4f079" stroke-width="1.5" marker-end="url(#arrowhead)"/>
<line x1="358" y1="223.5" x2="428" y2="245" stroke="#b4f079" stroke-width="1.5" marker-end="url(#arrowhead)"/>
<line x1="428" y1="293" x2="358" y2="282" stroke="#b4f079" stroke-width="1.5" marker-end="url(#arrowhead)"/>
<circle cx="85" cy="158" r="7" fill="none" stroke="#b4f079" stroke-width="1.5"/><line x1="85" y1="165" x2="85" y2="187" stroke="#b4f079" stroke-width="1.5"/><line x1="71" y1="171" x2="99" y2="171" stroke="#b4f079" stroke-width="1.5"/><line x1="85" y1="187" x2="75" y2="203" stroke="#b4f079" stroke-width="1.5"/><line x1="85" y1="187" x2="95" y2="203" stroke="#b4f079" stroke-width="1.5"/><text x="85" y="217" font-family="'JetBrains Mono', 'Fira Code', 'SF Mono', 'Cascadia Code', monospace" font-size="13" fill="#b4f079" text-anchor="middle" letter-spacing="0.12em">USER</text>
<rect x="180" y="86" width="178" height="200" rx="12" fill="none" stroke="#b4f079" stroke-width="2"/><rect x="185" y="91" width="168" height="190" rx="8" fill="url(#hero)" stroke="#b4f079" stroke-width="1"/><text x="269" y="186" font-family="'JetBrains Mono', 'Fira Code', 'SF Mono', 'Cascadia Code', monospace" font-size="13" fill="#b4f079" text-anchor="middle" dominant-baseline="central" letter-spacing="0.12em">RESPONSES API</text>
<rect x="484.5" y="75" width="103" height="56" rx="12" fill="url(#dotgrid)" stroke="#b4f079" stroke-width="1.5"/><text x="536" y="103" font-family="'JetBrains Mono', 'Fira Code', 'SF Mono', 'Cascadia Code', monospace" font-size="13" fill="#b4f079" text-anchor="middle" dominant-baseline="central" letter-spacing="0.12em">MODEL</text>
<rect x="428" y="241" width="216" height="56" rx="12" fill="url(#crosshatch)" stroke="#b4f079" stroke-width="1.5"/><text x="536" y="269" font-family="'JetBrains Mono', 'Fira Code', 'SF Mono', 'Cascadia Code', monospace" font-size="13" fill="#b4f079" text-anchor="middle" dominant-baseline="central" letter-spacing="0.12em">RUNTIME CONTAINER</text>
<rect x="114" y="170.57336956521738" width="51" height="21" rx="4" fill="#000000"/><text x="139.5" y="184.57336956521738" font-family="'JetBrains Mono', 'Fira Code', 'SF Mono', 'Cascadia Code', monospace" font-size="11" fill="#b4f079" opacity="0.85" text-anchor="middle">PROMPT</text>
<rect x="324.25" y="66.5" width="194" height="36" rx="4" fill="#000000"/><text x="421.25" y="80.5" font-family="'JetBrains Mono', 'Fira Code', 'SF Mono', 'Cascadia Code', monospace" font-size="11" fill="#b4f079" opacity="0.85" text-anchor="middle">PROMPT + SHELL INSTRUCTION +</text><text x="421.25" y="95.5" font-family="'JetBrains Mono', 'Fira Code', 'SF Mono', 'Cascadia Code', monospace" font-size="11" fill="#b4f079" opacity="0.85" text-anchor="middle">STDOUT/STDERR</text>
<rect x="369.75" y="127.25" width="103" height="21" rx="4" fill="#000000"/><text x="421.25" y="141.25" font-family="'JetBrains Mono', 'Fira Code', 'SF Mono', 'Cascadia Code', monospace" font-size="11" fill="#b4f079" opacity="0.85" text-anchor="middle">SHELL COMMANDS</text>
<rect x="335" y="223.75" width="116" height="21" rx="4" fill="#000000"/><text x="393" y="237.75" font-family="'JetBrains Mono', 'Fira Code', 'SF Mono', 'Cascadia Code', monospace" font-size="11" fill="#b4f079" opacity="0.85" text-anchor="middle">EXECUTE COMMANDS</text>
<rect x="344.75" y="277" width="96.5" height="21" rx="4" fill="#000000"/><text x="393" y="291" font-family="'JetBrains Mono', 'Fira Code', 'SF Mono', 'Cascadia Code', monospace" font-size="11" fill="#b4f079" opacity="0.85" text-anchor="middle">STDOUT/STDERR</text>
<text x="378" y="190" font-family="'Inter', 'Helvetica Neue', Arial, sans-serif" font-size="12" fill="#b4f079" opacity="0.6" font-style="italic">Feedback loop (until complete)</text>
</g>
</svg>