<svg xmlns="http://www.w3.org/2000/svg" viewBox="0 0 707.8 343" width="707.8" height="343">
<defs>
  <pattern id="dotgrid" width="8" height="8" patternUnits="userSpaceOnUse">
    <rect width="8" height="8" fill="#000000"/>
    <circle cx="4" cy="4" r="0.8" fill="#b4f079" opacity="0.7"/>
  </pattern>
  <pattern id="crosshatch" width="8" height="8" patternUnits="userSpaceOnUse">
    <rect width="8" height="8" fill="#000000"/>
    <path d="M0 8L8 0M-1 1L1 -1M7 9L9 7" stroke="#b4f079" stroke-width="0.8" opacity="0.2"/>
  </pattern>
  <pattern id="hero" width="6" height="6" patternUnits="userSpaceOnUse">
    <rect width="6" height="6" fill="#3d6b23"/>
    <circle cx="3" cy="3" r="0.6" fill="#5a9a35" opacity="0.5"/>
  </pattern>
  <marker id="arrowhead" markerWidth="10" markerHeight="7" refX="9" refY="3.5" orient="auto" markerUnits="strokeWidth">
    <polygon points="0 0, 10 3.5, 0 7" fill="#b4f079"/>
  </marker>
  <marker id="arrowhead-reverse" markerWidth="10" markerHeight="7" refX="1" refY="3.5" orient="auto" markerUnits="strokeWidth">
    <polygon points="10 0, 0 3.5, 10 7" fill="#b4f079"/>
  </marker>
</defs>
<rect width="100%" height="100%" fill="#000000"/>
<g class="diagram">
<text x="30" y="34" font-family="'Inter', 'Helvetica Neue', Arial, sans-serif" font-size="18" fill="#ffffff" font-weight="700">Language models use tools</text>
<rect x="203" y="42.5" width="229" height="298" rx="12" fill="url(#crosshatch)" stroke="#b4f079" stroke-width="1.5" opacity="0.5"/><rect x="203" y="42.5" width="229" height="298" rx="12" fill="none" stroke="#b4f079" stroke-width="1.5" opacity="0.4"/><text x="221" y="68.5" font-family="'Inter', 'Helvetica Neue', Arial, sans-serif" font-size="14" fill="#ffffff" opacity="0.9">Tools</text>
<line x1="163" y1="175" x2="266" y2="132" stroke="#b4f079" stroke-width="1.5" marker-end="url(#arrowhead)"/>
<line x1="163" y1="196.5" x2="252" y2="196.5" stroke="#b4f079" stroke-width="1.5" marker-end="url(#arrowhead)"/>
<line x1="163" y1="218" x2="250.43023255813955" y2="254.5" stroke="#b4f079" stroke-width="1.5" marker-end="url(#arrowhead)"/>
<line x1="369" y1="108.8003300330033" x2="495.09999999999997" y2="104.63861386138613" stroke="#b4f079" stroke-width="1.5" marker-end="url(#arrowhead)"/>
<line x1="383" y1="196.5" x2="475.29999999999995" y2="196.5" stroke="#b4f079" stroke-width="1.5" marker-end="url(#arrowhead)"/>
<line x1="402" y1="285.2887788778878" x2="472" y2="287.5990099009901" stroke="#b4f079" stroke-width="1.5" marker-end="url(#arrowhead)"/>
<rect x="60" y="168.5" width="103" height="56" rx="12" fill="url(#dotgrid)" stroke="#b4f079" stroke-width="1.5"/><text x="111.5" y="196.5" font-family="'JetBrains Mono', 'Fira Code', 'SF Mono', 'Cascadia Code', monospace" font-size="13" fill="#b4f079" text-anchor="middle" dominant-baseline="central" letter-spacing="0.12em">MODEL</text>
<rect x="266" y="82.5" width="103" height="56" rx="12" fill="none" stroke="#b4f079" stroke-width="2"/><rect x="271" y="87.5" width="93" height="46" rx="8" fill="transparent" stroke="#b4f079" stroke-width="1"/><text x="317.5" y="110.5" font-family="'JetBrains Mono', 'Fira Code', 'SF Mono', 'Cascadia Code', monospace" font-size="13" fill="#b4f079" text-anchor="middle" dominant-baseline="central" letter-spacing="0.12em">SHELL</text>
<rect x="252" y="168.5" width="131" height="56" rx="12" fill="none" stroke="#b4f079" stroke-width="2"/><rect x="257" y="173.5" width="121" height="46" rx="8" fill="transparent" stroke="#b4f079" stroke-width="1"/><text x="317.5" y="196.5" font-family="'JetBrains Mono', 'Fira Code', 'SF Mono', 'Cascadia Code', monospace" font-size="13" fill="#b4f079" text-anchor="middle" dominant-baseline="central" letter-spacing="0.12em">FUNCTION</text>
<rect x="233" y="254.5" width="169" height="56" rx="12" fill="none" stroke="#b4f079" stroke-width="2"/><rect x="238" y="259.5" width="159" height="46" rx="8" fill="transparent" stroke="#b4f079" stroke-width="1"/><text x="317.5" y="282.5" font-family="'JetBrains Mono', 'Fira Code', 'SF Mono', 'Cascadia Code', monospace" font-size="13" fill="#b4f079" text-anchor="middle" dominant-baseline="central" letter-spacing="0.12em">COMPUTER USE</text>

<text x="495.1" y="88" font-family="'JetBrains Mono', 'Fira Code', 'SF Mono', 'Cascadia Code', monospace" font-size="13" fill="#b4f079" font-weight="700" letter-spacing="0.12em">COMMAND</text><text x="499.1" y="104" font-family="'JetBrains Mono', 'Fira Code', 'SF Mono', 'Cascadia Code', monospace" font-size="11" fill="#b4f079" opacity="0.7">ls -l /home/user</text>
<text x="475.3" y="173" font-family="'JetBrains Mono', 'Fira Code', 'SF Mono', 'Cascadia Code', monospace" font-size="13" fill="#b4f079" font-weight="700" letter-spacing="0.12em">JSON</text><text x="479.3" y="189" font-family="'JetBrains Mono', 'Fira Code', 'SF Mono', 'Cascadia Code', monospace" font-size="11" fill="#b4f079" opacity="0.7">{&quot;name&quot;:&quot;get_weather&quot;,</text><text x="479.3" y="207" font-family="'JetBrains Mono', 'Fira Code', 'SF Mono', 'Cascadia Code', monospace" font-size="11" fill="#b4f079" opacity="0.7">&quot;description&quot;:&quot;...&quot;}</text>
<text x="472" y="276" font-family="'JetBrains Mono', 'Fira Code', 'SF Mono', 'Cascadia Code', monospace" font-size="13" fill="#b4f079" font-weight="700" letter-spacing="0.12em">ACTION</text><text x="476" y="292" font-family="'JetBrains Mono', 'Fira Code', 'SF Mono', 'Cascadia Code', monospace" font-size="11" fill="#b4f079" opacity="0.7">click(&quot;left&quot;, 100, 200)</text>
<circle cx="305.5" cy="153.5" r="3" fill="#b4f079"/><circle cx="317.5" cy="153.5" r="3" fill="#b4f079"/><circle cx="329.5" cy="153.5" r="3" fill="#b4f079"/>
</g>
</svg>