<svg xmlns="http://www.w3.org/2000/svg" viewBox="0 0 530.4 344" width="530.4" height="344">
<defs>
  <pattern id="dotgrid" width="8" height="8" patternUnits="userSpaceOnUse">
    <rect width="8" height="8" fill="#000000"/>
    <circle cx="4" cy="4" r="0.8" fill="#b4f079" opacity="0.7"/>
  </pattern>
  <pattern id="crosshatch" width="8" height="8" patternUnits="userSpaceOnUse">
    <rect width="8" height="8" fill="#000000"/>
    <path d="M0 8L8 0M-1 1L1 -1M7 9L9 7" stroke="#b4f079" stroke-width="0.8" opacity="0.2"/>
  </pattern>
  <pattern id="hero" width="6" height="6" patternUnits="userSpaceOnUse">
    <rect width="6" height="6" fill="#3d6b23"/>
    <circle cx="3" cy="3" r="0.6" fill="#5a9a35" opacity="0.5"/>
  </pattern>
  <marker id="arrowhead" markerWidth="10" markerHeight="7" refX="9" refY="3.5" orient="auto" markerUnits="strokeWidth">
    <polygon points="0 0, 10 3.5, 0 7" fill="#b4f079"/>
  </marker>
  <marker id="arrowhead-reverse" markerWidth="10" markerHeight="7" refX="1" refY="3.5" orient="auto" markerUnits="strokeWidth">
    <polygon points="10 0, 0 3.5, 10 7" fill="#b4f079"/>
  </marker>
</defs>
<rect width="100%" height="100%" fill="#000000"/>
<g class="diagram">
<text x="30" y="34" font-family="'Inter', 'Helvetica Neue', Arial, sans-serif" font-size="15" fill="#ffffff" font-weight="700">The Responses API executes commands asynchronous</text>
<rect x="297.4" y="60" width="205" height="282" rx="12" fill="url(#crosshatch)" stroke="#b4f079" stroke-width="1" opacity="0.35"/><rect x="297.4" y="60" width="205" height="282" rx="12" fill="none" stroke="#b4f079" stroke-width="1" opacity="0.5"/><text x="399.9" y="86" font-family="'Inter', 'Helvetica Neue', Arial, sans-serif" font-size="14" fill="#ffffff" opacity="0.9" text-anchor="middle">Runtime container</text>
<line x1="185.39999999999998" y1="166" x2="313.4" y2="131" stroke="#b4f079" stroke-width="1.5" marker-end="url(#arrowhead)"/>
<line x1="313.4" y1="132" x2="185.39999999999998" y2="196" stroke="#b4f079" stroke-width="1.5" marker-end="url(#arrowhead)"/>
<line x1="185.39999999999998" y1="226" x2="313.4" y2="290" stroke="#b4f079" stroke-width="1.5" marker-end="url(#arrowhead)"/>
<line x1="313.4" y1="291" x2="185.39999999999998" y2="256" stroke="#b4f079" stroke-width="1.5" marker-end="url(#arrowhead)"/>
<rect x="203.39999999999998" y="129.9" width="90" height="36" rx="4" fill="#000000"/>
<rect x="203.39999999999998" y="173.9" width="64" height="21" rx="4" fill="#000000"/>
<rect x="175.54999999999998" y="278" width="96.5" height="36" rx="4" fill="#000000"/>
<rect x="203.39999999999998" y="256" width="64" height="21" rx="4" fill="#000000"/>
<rect x="28" y="162" width="157.39999999999998" height="98" rx="12" fill="none" stroke="#b4f079" stroke-width="2"/><rect x="33" y="167" width="147.39999999999998" height="88" rx="8" fill="url(#hero)" stroke="#b4f079" stroke-width="1"/><text x="106.69999999999999" y="203" font-family="'JetBrains Mono', 'Fira Code', 'SF Mono', 'Cascadia Code', monospace" font-size="13" fill="#b4f079" text-anchor="middle" dominant-baseline="central" letter-spacing="0.12em">RESPONSES API</text><text x="106.69999999999999" y="223" font-family="'JetBrains Mono', 'Fira Code', 'SF Mono', 'Cascadia Code', monospace" font-size="11" fill="#b4f079" opacity="0.6" text-anchor="middle" dominant-baseline="central" letter-spacing="0.12em">SESSION MULTIPLEXER</text>
<rect x="313.4" y="96" width="173" height="40" rx="12" fill="none" stroke="#b4f079" stroke-width="2"/><rect x="318.4" y="101" width="163" height="30" rx="8" fill="#000000" stroke="#b4f079" stroke-width="1"/><text x="399.9" y="116" font-family="'JetBrains Mono', 'Fira Code', 'SF Mono', 'Cascadia Code', monospace" font-size="13" fill="#b4f079" text-anchor="middle" dominant-baseline="central" letter-spacing="0.12em">SESSION ID: 101</text>
<rect x="313.4" y="286" width="173" height="40" rx="12" fill="none" stroke="#b4f079" stroke-width="2"/><rect x="318.4" y="291" width="163" height="30" rx="8" fill="#000000" stroke="#b4f079" stroke-width="1"/><text x="399.9" y="306" font-family="'JetBrains Mono', 'Fira Code', 'SF Mono', 'Cascadia Code', monospace" font-size="13" fill="#b4f079" text-anchor="middle" dominant-baseline="central" letter-spacing="0.12em">SESSION ID: 102</text>
<text x="248.39999999999998" y="143.9" font-family="'JetBrains Mono', 'Fira Code', 'SF Mono', 'Cascadia Code', monospace" font-size="11" fill="#b4f079" opacity="0.85" text-anchor="middle">&quot;python</text><text x="248.39999999999998" y="158.9" font-family="'JetBrains Mono', 'Fira Code', 'SF Mono', 'Cascadia Code', monospace" font-size="11" fill="#b4f079" opacity="0.85" text-anchor="middle">a.py&quot;</text>
<text x="235.39999999999998" y="187.9" font-family="'JetBrains Mono', 'Fira Code', 'SF Mono', 'Cascadia Code', monospace" font-size="11" fill="#b4f079" opacity="0.85" text-anchor="middle">OUTPUT 1</text>
<text x="223.79999999999998" y="292" font-family="'JetBrains Mono', 'Fira Code', 'SF Mono', 'Cascadia Code', monospace" font-size="11" fill="#b4f079" opacity="0.85" text-anchor="middle">&quot;go run</text><text x="223.79999999999998" y="307" font-family="'JetBrains Mono', 'Fira Code', 'SF Mono', 'Cascadia Code', monospace" font-size="11" fill="#b4f079" opacity="0.85" text-anchor="middle">test.go&quot;</text>
<text x="235.39999999999998" y="270" font-family="'JetBrains Mono', 'Fira Code', 'SF Mono', 'Cascadia Code', monospace" font-size="11" fill="#b4f079" opacity="0.85" text-anchor="middle">OUTPUT 2</text>
</g>
</svg>