<svg xmlns="http://www.w3.org/2000/svg" viewBox="0 0 472.99999999999983 277" width="472.99999999999983" height="277">
<defs>
  <pattern id="dotgrid" width="8" height="8" patternUnits="userSpaceOnUse">
    <rect width="8" height="8" fill="#000000"/>
    <circle cx="4" cy="4" r="0.8" fill="#b4f079" opacity="0.7"/>
  </pattern>
  <pattern id="crosshatch" width="8" height="8" patternUnits="userSpaceOnUse">
    <rect width="8" height="8" fill="#000000"/>
    <path d="M0 8L8 0M-1 1L1 -1M7 9L9 7" stroke="#b4f079" stroke-width="0.8" opacity="0.2"/>
  </pattern>
  <pattern id="hero" width="6" height="6" patternUnits="userSpaceOnUse">
    <rect width="6" height="6" fill="#3d6b23"/>
    <circle cx="3" cy="3" r="0.6" fill="#5a9a35" opacity="0.5"/>
  </pattern>
  <marker id="arrowhead" markerWidth="10" markerHeight="7" refX="9" refY="3.5" orient="auto" markerUnits="strokeWidth">
    <polygon points="0 0, 10 3.5, 0 7" fill="#b4f079"/>
  </marker>
  <marker id="arrowhead-reverse" markerWidth="10" markerHeight="7" refX="1" refY="3.5" orient="auto" markerUnits="strokeWidth">
    <polygon points="10 0, 0 3.5, 10 7" fill="#b4f079"/>
  </marker>
</defs>
<rect width="100%" height="100%" fill="#000000"/>
<g class="diagram">
<text x="30" y="34" font-family="'Inter', 'Helvetica Neue', Arial, sans-serif" font-size="15" fill="#ffffff" font-weight="700">The Responses API executes commands asynchronous</text>
<rect x="190" y="60" width="205" height="215" rx="12" fill="url(#crosshatch)" stroke="#b4f079" stroke-width="1" opacity="0.35"/><rect x="190" y="60" width="205" height="215" rx="12" fill="none" stroke="#b4f079" stroke-width="1" opacity="0.5"/><text x="292.5" y="86" font-family="'Inter', 'Helvetica Neue', Arial, sans-serif" font-size="14" fill="#ffffff" opacity="0.9" text-anchor="middle">Runtime container</text>
<line x1="182" y1="194" x2="206" y2="132" stroke="#b4f079" stroke-width="1.5" marker-end="url(#arrowhead)"/>
<line x1="206" y1="132" x2="182" y2="210" stroke="#b4f079" stroke-width="1.5" marker-end="url(#arrowhead)"/>
<line x1="182" y1="206.5" x2="206" y2="223" stroke="#b4f079" stroke-width="1.5" marker-end="url(#arrowhead)"/>
<line x1="206" y1="255" x2="182" y2="271.5" stroke="#b4f079" stroke-width="1.5" marker-end="url(#arrowhead)"/>
<rect x="149" y="145" width="90" height="36" rx="4" fill="#000000"/>
<rect x="162" y="160.5" width="64" height="21" rx="4" fill="#000000"/>
<rect x="145.75" y="148" width="96.5" height="36" rx="4" fill="#000000"/>
<rect x="162" y="294" width="64" height="21" rx="4" fill="#000000"/>
<rect x="28" y="190" width="154" height="98" rx="12" fill="none" stroke="#b4f079" stroke-width="2"/><rect x="33" y="195" width="144" height="88" rx="8" fill="url(#hero)" stroke="#b4f079" stroke-width="1"/><text x="105" y="231" font-family="'JetBrains Mono', 'Fira Code', 'SF Mono', 'Cascadia Code', monospace" font-size="13" fill="#b4f079" text-anchor="middle" dominant-baseline="central" letter-spacing="0.12em">RESPONSES API</text><text x="105" y="251" font-family="'JetBrains Mono', 'Fira Code', 'SF Mono', 'Cascadia Code', monospace" font-size="11" fill="#b4f079" opacity="0.6" text-anchor="middle" dominant-baseline="central" letter-spacing="0.12em">SESSION MULTIPLEXER</text>
<rect x="206" y="96" width="173" height="40" rx="12" fill="none" stroke="#b4f079" stroke-width="2"/><rect x="211" y="101" width="163" height="30" rx="8" fill="#000000" stroke="#b4f079" stroke-width="1"/><text x="292.5" y="116" font-family="'JetBrains Mono', 'Fira Code', 'SF Mono', 'Cascadia Code', monospace" font-size="13" fill="#b4f079" text-anchor="middle" dominant-baseline="central" letter-spacing="0.12em">SESSION ID: 101</text>
<rect x="206" y="219" width="173" height="40" rx="12" fill="none" stroke="#b4f079" stroke-width="2"/><rect x="211" y="224" width="163" height="30" rx="8" fill="#000000" stroke="#b4f079" stroke-width="1"/><text x="292.5" y="239" font-family="'JetBrains Mono', 'Fira Code', 'SF Mono', 'Cascadia Code', monospace" font-size="13" fill="#b4f079" text-anchor="middle" dominant-baseline="central" letter-spacing="0.12em">SESSION ID: 102</text>
<text x="194" y="159" font-family="'JetBrains Mono', 'Fira Code', 'SF Mono', 'Cascadia Code', monospace" font-size="11" fill="#b4f079" opacity="0.85" text-anchor="middle">&quot;python</text><text x="194" y="174" font-family="'JetBrains Mono', 'Fira Code', 'SF Mono', 'Cascadia Code', monospace" font-size="11" fill="#b4f079" opacity="0.85" text-anchor="middle">a.py&quot;</text>
<text x="194" y="174.5" font-family="'JetBrains Mono', 'Fira Code', 'SF Mono', 'Cascadia Code', monospace" font-size="11" fill="#b4f079" opacity="0.85" text-anchor="middle">OUTPUT 1</text>
<text x="194" y="162" font-family="'JetBrains Mono', 'Fira Code', 'SF Mono', 'Cascadia Code', monospace" font-size="11" fill="#b4f079" opacity="0.85" text-anchor="middle">&quot;go run</text><text x="194" y="177" font-family="'JetBrains Mono', 'Fira Code', 'SF Mono', 'Cascadia Code', monospace" font-size="11" fill="#b4f079" opacity="0.85" text-anchor="middle">test.go&quot;</text>
<text x="194" y="308" font-family="'JetBrains Mono', 'Fira Code', 'SF Mono', 'Cascadia Code', monospace" font-size="11" fill="#b4f079" opacity="0.85" text-anchor="middle">OUTPUT 2</text>
</g>
</svg>