<svg xmlns="http://www.w3.org/2000/svg" viewBox="0 0 2191.7 876" width="2191.7" height="876">
<defs>
  <pattern id="dotgrid" width="8" height="8" patternUnits="userSpaceOnUse">
    <rect width="8" height="8" fill="#000000"/>
    <circle cx="4" cy="4" r="0.8" fill="#b4f079" opacity="0.7"/>
  </pattern>
  <pattern id="crosshatch" width="8" height="8" patternUnits="userSpaceOnUse">
    <rect width="8" height="8" fill="#000000"/>
    <path d="M0 8L8 0M-1 1L1 -1M7 9L9 7" stroke="#b4f079" stroke-width="0.8" opacity="0.2"/>
  </pattern>
  <pattern id="hero" width="6" height="6" patternUnits="userSpaceOnUse">
    <rect width="6" height="6" fill="#3d6b23"/>
    <circle cx="3" cy="3" r="0.6" fill="#5a9a35" opacity="0.5"/>
  </pattern>
  <marker id="arrowhead" markerWidth="10" markerHeight="7" refX="9" refY="3.5" orient="auto" markerUnits="strokeWidth">
    <polygon points="0 0, 10 3.5, 0 7" fill="#b4f079"/>
  </marker>
  <marker id="arrowhead-reverse" markerWidth="10" markerHeight="7" refX="1" refY="3.5" orient="auto" markerUnits="strokeWidth">
    <polygon points="10 0, 0 3.5, 10 7" fill="#b4f079"/>
  </marker>
</defs>
<rect width="100%" height="100%" fill="#000000"/>
<g class="diagram">
<text x="30" y="34" font-family="'Inter', 'Helvetica Neue', Arial, sans-serif" font-size="15" fill="#ffffff" font-weight="700">Event mesh: sync, async, and bidirectional communication patterns</text>
<rect x="202.4" y="410" width="770" height="208" rx="12" fill="url(#dotgrid)" stroke="#b4f079" stroke-width="1" opacity="0.35"/><rect x="202.4" y="410" width="770" height="208" rx="12" fill="none" stroke="#b4f079" stroke-width="1" opacity="0.5"/>
<rect x="1100.4" y="390" width="555.5" height="326" rx="12" fill="url(#hero)" stroke="#b4f079" stroke-width="1" opacity="0.35"/><rect x="1100.4" y="390" width="555.5" height="326" rx="12" fill="none" stroke="#b4f079" stroke-width="1" opacity="0.5"/>
<rect x="1409.9" y="180" width="260" height="666" rx="12" fill="url(#dotgrid)" stroke="#b4f079" stroke-width="1" opacity="0.35"/><rect x="1409.9" y="180" width="260" height="666" rx="12" fill="none" stroke="#b4f079" stroke-width="1" opacity="0.5"/>
<line x1="332.40000000000003" y1="319.0477611940299" x2="902.4" y2="402.42089552238804" stroke="#b4f079" stroke-width="1.5" marker-end="url(#arrowhead)"/>
<line x1="116.2" y1="418.93680884676144" x2="902.4" y2="415.3881742270368" stroke="#b4f079" stroke-width="1.5" marker-end="url(#arrowhead)"/>
<line x1="918.8615384615384" y1="455" x2="910.1692307692308" y2="460" stroke="#b4f079" stroke-width="1.5" marker-end="url(#arrowhead)"/>
<polyline points="1074.4,389.2701722574796 1074.4,358 1473.0515151515153,358 1473.0515151515153,270" fill="none" stroke="#b4f079" stroke-width="1.5" marker-end="url(#arrowhead)"/>
<polyline points="956.4,480 956.4,463 1116.4,463 1116.4,480" fill="none" stroke="#b4f079" stroke-width="1.5" stroke-dasharray="6 4" marker-end="url(#arrowhead)"/>
<polyline points="418.4,570.3959044368601 418.4,527 1116.4,527 1116.4,489.3993174061433" fill="none" stroke="#b4f079" stroke-width="1.5" stroke-dasharray="6 4" marker-end="url(#arrowhead)"/>
<polyline points="408.9,508.70534698521044 408.9,527 1116.4,527 1116.4,482.94880546075086" fill="none" stroke="#b4f079" stroke-width="1.5" stroke-dasharray="6 4" marker-end="url(#arrowhead)"/>
<line x1="1256.9652173913043" y1="440" x2="1510.1173913043478" y2="270" stroke="#b4f079" stroke-width="1.5" stroke-dasharray="6 4" marker-end="url(#arrowhead)"/>
<line x1="1278.4" y1="456.35036496350364" x2="1471.4" y2="400" stroke="#b4f079" stroke-width="1.5" stroke-dasharray="6 4" marker-end="url(#arrowhead)"/>
<polyline points="1238.9151515151516,520 1238.9151515151516,648 1519.1424242424243,648 1519.1424242424243,790" fill="none" stroke="#b4f079" stroke-width="1.5" stroke-dasharray="6 4" marker-end="url(#arrowhead)"/>
<line x1="1265.9" y1="520" x2="1505.65" y2="660" stroke="#b4f079" stroke-width="1.5" stroke-dasharray="6 4" marker-end="url(#arrowhead)"/>
<polyline points="408.9,509.8254416961131 408.9,512 977.4000000000001,512 977.4000000000001,496.165371024735" fill="none" stroke="#b4f079" stroke-width="1.5" marker-start="url(#arrowhead-reverse)" marker-end="url(#arrowhead)"/>
<polyline points="908.8444444444444,460 908.8444444444444,467 992.4555555555556,467 992.4555555555556,410" fill="none" stroke="#b4f079" stroke-width="1.5" marker-start="url(#arrowhead-reverse)" marker-end="url(#arrowhead)"/>
<line x1="1278.4" y1="491.82481751824815" x2="1449.4" y2="516.7883211678832" stroke="#b4f079" stroke-width="1.5" marker-start="url(#arrowhead-reverse)" marker-end="url(#arrowhead)"/>
<line x1="1630.7923076923078" y1="270" x2="1755.9" y2="297.52877454299255" stroke="#b4f079" stroke-width="1.5" marker-end="url(#arrowhead)"/>
<line x1="1630.7923076923078" y1="360" x2="1755.9" y2="332.47122545700745" stroke="#b4f079" stroke-width="1.5" marker-end="url(#arrowhead)"/>
<polyline points="1233.4526315789474,440 1432.9,440 1432.9,140 1503.8473684210528,140" fill="none" stroke="#b4f079" stroke-width="1.5" marker-end="url(#arrowhead)"/>
<line x1="418.4" y1="563.6876122082585" x2="794.4" y2="494.8330341113106" stroke="#b4f079" stroke-width="1.5" marker-end="url(#arrowhead)"/>
<line x1="408.9" y1="506.80071813285457" x2="794.4" y2="484.65350089766605" stroke="#b4f079" stroke-width="1.5" marker-end="url(#arrowhead)"/>
<rect x="546.4000000000001" y="338.2343283582089" width="142" height="21" rx="4" fill="#000000"/>
<rect x="470.79999999999995" y="394" width="77" height="21" rx="4" fill="#000000"/>
<rect x="895.5153846153846" y="409.375" width="38" height="21" rx="4" fill="#000000"/>
<rect x="1235.2257575757576" y="307.1350861287398" width="77" height="21" rx="4" fill="#000000"/>
<rect x="975.1500000000001" y="460.25" width="122.5" height="21" rx="4" fill="#000000"/>
<rect x="699.6500000000001" y="534.2706092692869" width="135.5" height="21" rx="4" fill="#000000"/>
<rect x="688.4000000000001" y="505.27060926928687" width="148.5" height="21" rx="4" fill="#000000"/>
<rect x="1322.291304347826" y="331" width="122.5" height="21" rx="4" fill="#000000"/>
<rect x="1320.15" y="435" width="109.5" height="21" rx="4" fill="#000000"/>
<rect x="1311.278787878788" y="631" width="135.5" height="21" rx="4" fill="#000000"/>
<rect x="1331.025" y="579.5" width="109.5" height="21" rx="4" fill="#000000"/>
<rect x="635.1500000000001" y="476.0862956519275" width="116" height="21" rx="4" fill="#000000"/>
<rect x="856.9000000000001" y="438.375" width="187.5" height="21" rx="4" fill="#000000"/>
<rect x="1302.65" y="493.8065693430657" width="122.5" height="21" rx="4" fill="#000000"/>
<rect x="1648.3461538461538" y="261.2643872714963" width="90" height="21" rx="4" fill="#000000"/>
<rect x="1648.3461538461538" y="347.7356127285037" width="90" height="21" rx="4" fill="#000000"/>
<rect x="1304.15" y="279.5" width="129" height="21" rx="4" fill="#000000"/>
<rect x="558.15" y="528.4937163375224" width="96.5" height="21" rx="4" fill="#000000"/>
<rect x="553.4" y="505.08629565192746" width="96.5" height="21" rx="4" fill="#000000"/>
<rect x="502.4" y="423" width="170" height="24" fill="#000000" rx="3"/><text x="587.4" y="436" font-family="'Inter', 'Helvetica Neue', Arial, sans-serif" font-size="14" fill="#ffffff" opacity="0.9" text-anchor="middle">Command Side (Write)</text>
<rect x="1315.65" y="403" width="125" height="24" fill="#000000" rx="3"/><text x="1378.15" y="416" font-family="'Inter', 'Helvetica Neue', Arial, sans-serif" font-size="14" fill="#ffffff" opacity="0.9" text-anchor="middle">Event Backbone</text>
<rect x="1466.15" y="193" width="147.5" height="24" fill="#000000" rx="3"/><text x="1539.9" y="206" font-family="'Inter', 'Helvetica Neue', Arial, sans-serif" font-size="14" fill="#ffffff" opacity="0.9" text-anchor="middle">Query Side (Read)</text>
<circle cx="318.40000000000003" cy="295" r="7" fill="none" stroke="#b4f079" stroke-width="1.5"/><line x1="318.40000000000003" y1="302" x2="318.40000000000003" y2="324" stroke="#b4f079" stroke-width="1.5"/><line x1="304.40000000000003" y1="308" x2="332.40000000000003" y2="308" stroke="#b4f079" stroke-width="1.5"/><line x1="318.40000000000003" y1="324" x2="308.40000000000003" y2="340" stroke="#b4f079" stroke-width="1.5"/><line x1="318.40000000000003" y1="324" x2="328.40000000000003" y2="340" stroke="#b4f079" stroke-width="1.5"/><text x="318.40000000000003" y="354" font-family="'JetBrains Mono', 'Fira Code', 'SF Mono', 'Cascadia Code', monospace" font-size="13" fill="#b4f079" text-anchor="middle" letter-spacing="0.12em">MOBILE APP</text>
<circle cx="102.2" cy="397" r="7" fill="none" stroke="#b4f079" stroke-width="1.5"/><line x1="102.2" y1="404" x2="102.2" y2="426" stroke="#b4f079" stroke-width="1.5"/><line x1="88.2" y1="410" x2="116.2" y2="410" stroke="#b4f079" stroke-width="1.5"/><line x1="102.2" y1="426" x2="92.2" y2="442" stroke="#b4f079" stroke-width="1.5"/><line x1="102.2" y1="426" x2="112.2" y2="442" stroke="#b4f079" stroke-width="1.5"/><text x="102.2" y="456" font-family="'JetBrains Mono', 'Fira Code', 'SF Mono', 'Cascadia Code', monospace" font-size="13" fill="#b4f079" text-anchor="middle" letter-spacing="0.12em">ADMIN DASHBOARD</text>
<rect x="902.4" y="375" width="172" height="80" rx="12" fill="none" stroke="#b4f079" stroke-width="2"/><rect x="907.4" y="380" width="162" height="70" rx="8" fill="url(#hero)" stroke="#b4f079" stroke-width="1"/><rect x="936.4" y="395.9" width="104" height="22.2" fill="#000000" rx="2"/><text x="988.4" y="407" font-family="'JetBrains Mono', 'Fira Code', 'SF Mono', 'Cascadia Code', monospace" font-size="13" fill="#b4f079" text-anchor="middle" dominant-baseline="central" letter-spacing="0.12em">BFF GATEWAY</text><rect x="900.4" y="416.3" width="176" height="21.4" fill="#000000" rx="2"/><text x="988.4" y="427" font-family="'JetBrains Mono', 'Fira Code', 'SF Mono', 'Cascadia Code', monospace" font-size="11" fill="#b4f079" opacity="0.6" text-anchor="middle" dominant-baseline="central" letter-spacing="0.12em">Backend for Frontend</text>
<rect x="1468.4" y="70" width="143" height="60" fill="url(#crosshatch)" stroke="none"/><line x1="1468.4" y1="70" x2="1468.4" y2="130" stroke="#b4f079" stroke-width="1.5"/><line x1="1611.4" y1="70" x2="1611.4" y2="130" stroke="#b4f079" stroke-width="1.5"/><ellipse cx="1539.9" cy="70" rx="71.5" ry="10" fill="url(#crosshatch)" stroke="#b4f079" stroke-width="1.5"/><path d="M1468.4,130 A71.5,10 0 0,0 1611.4,130" fill="url(#crosshatch)" stroke="#b4f079" stroke-width="1.5"/><rect x="1487.9" y="80.9" width="104" height="22.2" fill="#000000" rx="2"/><text x="1539.9" y="92" font-family="'JetBrains Mono', 'Fira Code', 'SF Mono', 'Cascadia Code', monospace" font-size="13" fill="#b4f079" text-anchor="middle" dominant-baseline="central" letter-spacing="0.12em">EVENT STORE</text><rect x="1471.9" y="101.3" width="136" height="21.4" fill="#000000" rx="2"/><text x="1539.9" y="112" font-family="'JetBrains Mono', 'Fira Code', 'SF Mono', 'Cascadia Code', monospace" font-size="11" fill="#b4f079" opacity="0.6" text-anchor="middle" dominant-baseline="central" letter-spacing="0.12em">Append-only log</text>
<rect x="1755.9" y="285" width="158.8" height="60" fill="url(#crosshatch)" stroke="none"/><line x1="1755.9" y1="285" x2="1755.9" y2="345" stroke="#b4f079" stroke-width="1.5"/><line x1="1914.7" y1="285" x2="1914.7" y2="345" stroke="#b4f079" stroke-width="1.5"/><ellipse cx="1835.3000000000002" cy="285" rx="79.4" ry="10" fill="url(#crosshatch)" stroke="#b4f079" stroke-width="1.5"/><path d="M1755.9,345 A79.4,10 0 0,0 1914.7,345" fill="url(#crosshatch)" stroke="#b4f079" stroke-width="1.5"/><rect x="1799.3000000000002" y="295.9" width="72" height="22.2" fill="#000000" rx="2"/><text x="1835.3000000000002" y="307" font-family="'JetBrains Mono', 'Fira Code', 'SF Mono', 'Cascadia Code', monospace" font-size="13" fill="#b4f079" text-anchor="middle" dominant-baseline="central" letter-spacing="0.12em">READ DB</text><rect x="1755.3000000000002" y="316.3" width="160" height="21.4" fill="#000000" rx="2"/><text x="1835.3000000000002" y="327" font-family="'JetBrains Mono', 'Fira Code', 'SF Mono', 'Cascadia Code', monospace" font-size="11" fill="#b4f079" opacity="0.6" text-anchor="middle" dominant-baseline="central" letter-spacing="0.12em">Denormalized views</text>
<rect x="977.4" y="475" width="97" height="40" rx="12" fill="#000000" stroke="#b4f079" stroke-width="1.5"/><text x="1025.9" y="495" font-family="'JetBrains Mono', 'Fira Code', 'SF Mono', 'Cascadia Code', monospace" font-size="13" fill="#b4f079" text-anchor="middle" dominant-baseline="central" letter-spacing="0.12em">STRIPE</text>
<rect x="977.4" y="370" width="97" height="40" rx="12" fill="#000000" stroke="#b4f079" stroke-width="1.5"/><text x="1025.9" y="390" font-family="'JetBrains Mono', 'Fira Code', 'SF Mono', 'Cascadia Code', monospace" font-size="13" fill="#b4f079" text-anchor="middle" dominant-baseline="central" letter-spacing="0.12em">TWILIO</text>
<rect x="794.4" y="460" width="162" height="40" rx="12" fill="url(#dotgrid)" stroke="#b4f079" stroke-width="1.5"/><rect x="815.4" y="468.9" width="120" height="22.2" fill="#000000" rx="2"/><text x="875.4" y="480" font-family="'JetBrains Mono', 'Fira Code', 'SF Mono', 'Cascadia Code', monospace" font-size="13" fill="#b4f079" text-anchor="middle" dominant-baseline="central" letter-spacing="0.12em">ORDER COMMAND</text>
<rect x="218.4" y="562" width="200" height="40" rx="12" fill="url(#dotgrid)" stroke="#b4f079" stroke-width="1.5"/><rect x="242.39999999999998" y="570.9" width="152" height="22.2" fill="#000000" rx="2"/><text x="318.4" y="582" font-family="'JetBrains Mono', 'Fira Code', 'SF Mono', 'Cascadia Code', monospace" font-size="13" fill="#b4f079" text-anchor="middle" dominant-baseline="central" letter-spacing="0.12em">INVENTORY COMMAND</text>
<rect x="227.9" y="492" width="181" height="40" rx="12" fill="url(#dotgrid)" stroke="#b4f079" stroke-width="1.5"/><rect x="250.39999999999998" y="500.9" width="136" height="22.2" fill="#000000" rx="2"/><text x="318.4" y="512" font-family="'JetBrains Mono', 'Fira Code', 'SF Mono', 'Cascadia Code', monospace" font-size="13" fill="#b4f079" text-anchor="middle" dominant-baseline="central" letter-spacing="0.12em">PAYMENT COMMAND</text>
<rect x="1116.4" y="440" width="162" height="80" rx="12" fill="url(#hero)" stroke="#b4f079" stroke-width="1.5"/><rect x="1137.4" y="460.9" width="120" height="22.2" fill="#000000" rx="2"/><text x="1197.4" y="472" font-family="'JetBrains Mono', 'Fira Code', 'SF Mono', 'Cascadia Code', monospace" font-size="13" fill="#b4f079" text-anchor="middle" dominant-baseline="central" letter-spacing="0.12em">KAFKA CLUSTER</text><rect x="1129.4" y="481.3" width="136" height="21.4" fill="#000000" rx="2"/><text x="1197.4" y="492" font-family="'JetBrains Mono', 'Fira Code', 'SF Mono', 'Cascadia Code', monospace" font-size="11" fill="#b4f079" opacity="0.6" text-anchor="middle" dominant-baseline="central" letter-spacing="0.12em">3 brokers, RF=3</text>
<rect x="1449.4" y="490" width="181" height="80" rx="12" fill="url(#dotgrid)" stroke="#b4f079" stroke-width="1.5"/><rect x="1471.9" y="510.9" width="136" height="22.2" fill="#000000" rx="2"/><text x="1539.9" y="522" font-family="'JetBrains Mono', 'Fira Code', 'SF Mono', 'Cascadia Code', monospace" font-size="13" fill="#b4f079" text-anchor="middle" dominant-baseline="central" letter-spacing="0.12em">SCHEMA REGISTRY</text><rect x="1483.9" y="531.3" width="112" height="21.4" fill="#000000" rx="2"/><text x="1539.9" y="542" font-family="'JetBrains Mono', 'Fira Code', 'SF Mono', 'Cascadia Code', monospace" font-size="11" fill="#b4f079" opacity="0.6" text-anchor="middle" dominant-baseline="central" letter-spacing="0.12em">Avro schemas</text>
<rect x="1439.9" y="660" width="200" height="40" rx="12" fill="url(#crosshatch)" stroke="#b4f079" stroke-width="1.5"/><rect x="1463.9" y="668.9" width="152" height="22.2" fill="#000000" rx="2"/><text x="1539.9" y="680" font-family="'JetBrains Mono', 'Fira Code', 'SF Mono', 'Cascadia Code', monospace" font-size="13" fill="#b4f079" text-anchor="middle" dominant-baseline="central" letter-spacing="0.12em">DEAD LETTER TOPIC</text>
<rect x="1444.9" y="230" width="190" height="40" rx="12" fill="url(#dotgrid)" stroke="#b4f079" stroke-width="1.5"/><rect x="1467.9" y="238.9" width="144" height="22.2" fill="#000000" rx="2"/><text x="1539.9" y="250" font-family="'JetBrains Mono', 'Fira Code', 'SF Mono', 'Cascadia Code', monospace" font-size="13" fill="#b4f079" text-anchor="middle" dominant-baseline="central" letter-spacing="0.12em">ORDER PROJECTION</text>
<rect x="1439.9" y="360" width="200" height="40" rx="12" fill="url(#dotgrid)" stroke="#b4f079" stroke-width="1.5"/><rect x="1463.9" y="368.9" width="152" height="22.2" fill="#000000" rx="2"/><text x="1539.9" y="380" font-family="'JetBrains Mono', 'Fira Code', 'SF Mono', 'Cascadia Code', monospace" font-size="13" fill="#b4f079" text-anchor="middle" dominant-baseline="central" letter-spacing="0.12em">SEARCH PROJECTION</text>
<rect x="1425.9" y="790" width="228" height="40" rx="12" fill="url(#dotgrid)" stroke="#b4f079" stroke-width="1.5"/><rect x="1451.9" y="798.9" width="176" height="22.2" fill="#000000" rx="2"/><text x="1539.9" y="810" font-family="'JetBrains Mono', 'Fira Code', 'SF Mono', 'Cascadia Code', monospace" font-size="13" fill="#b4f079" text-anchor="middle" dominant-baseline="central" letter-spacing="0.12em">ANALYTICS PROJECTION</text>
<text x="617.4000000000001" y="352.2343283582089" font-family="'JetBrains Mono', 'Fira Code', 'SF Mono', 'Cascadia Code', monospace" font-size="11" fill="#b4f079" opacity="0.85" text-anchor="middle">GraphQL subscription</text>
<text x="509.29999999999995" y="408" font-family="'JetBrains Mono', 'Fira Code', 'SF Mono', 'Cascadia Code', monospace" font-size="11" fill="#b4f079" opacity="0.85" text-anchor="middle">REST + SSE</text>
<text x="914.5153846153846" y="423.375" font-family="'JetBrains Mono', 'Fira Code', 'SF Mono', 'Cascadia Code', monospace" font-size="11" fill="#b4f079" opacity="0.85" text-anchor="middle">gRPC</text>
<text x="1273.7257575757576" y="321.1350861287398" font-family="'JetBrains Mono', 'Fira Code', 'SF Mono', 'Cascadia Code', monospace" font-size="11" fill="#b4f079" opacity="0.85" text-anchor="middle">gRPC query</text>
<text x="1036.4" y="474.25" font-family="'JetBrains Mono', 'Fira Code', 'SF Mono', 'Cascadia Code', monospace" font-size="11" fill="#b4f079" opacity="0.85" text-anchor="middle">OrderPlaced event</text>
<text x="767.4000000000001" y="548.2706092692869" font-family="'JetBrains Mono', 'Fira Code', 'SF Mono', 'Cascadia Code', monospace" font-size="11" fill="#b4f079" opacity="0.85" text-anchor="middle">StockReserved event</text>
<text x="762.6500000000001" y="519.2706092692869" font-family="'JetBrains Mono', 'Fira Code', 'SF Mono', 'Cascadia Code', monospace" font-size="11" fill="#b4f079" opacity="0.85" text-anchor="middle">PaymentCaptured event</text>
<text x="1383.541304347826" y="345" font-family="'JetBrains Mono', 'Fira Code', 'SF Mono', 'Cascadia Code', monospace" font-size="11" fill="#b4f079" opacity="0.85" text-anchor="middle">Consume + project</text>
<text x="1374.9" y="449" font-family="'JetBrains Mono', 'Fira Code', 'SF Mono', 'Cascadia Code', monospace" font-size="11" fill="#b4f079" opacity="0.85" text-anchor="middle">Consume + index</text>
<text x="1379.028787878788" y="645" font-family="'JetBrains Mono', 'Fira Code', 'SF Mono', 'Cascadia Code', monospace" font-size="11" fill="#b4f079" opacity="0.85" text-anchor="middle">Consume + aggregate</text>
<text x="1385.775" y="593.5" font-family="'JetBrains Mono', 'Fira Code', 'SF Mono', 'Cascadia Code', monospace" font-size="11" fill="#b4f079" opacity="0.85" text-anchor="middle">Poison messages</text>
<text x="693.1500000000001" y="490.0862956519275" font-family="'JetBrains Mono', 'Fira Code', 'SF Mono', 'Cascadia Code', monospace" font-size="11" fill="#b4f079" opacity="0.85" text-anchor="middle">Charge + webhook</text>
<text x="950.6500000000001" y="452.375" font-family="'JetBrains Mono', 'Fira Code', 'SF Mono', 'Cascadia Code', monospace" font-size="11" fill="#b4f079" opacity="0.85" text-anchor="middle">Send SMS + delivery receipt</text>
<text x="1363.9" y="507.8065693430657" font-family="'JetBrains Mono', 'Fira Code', 'SF Mono', 'Cascadia Code', monospace" font-size="11" fill="#b4f079" opacity="0.85" text-anchor="middle">Validate + evolve</text>
<text x="1693.3461538461538" y="275.2643872714963" font-family="'JetBrains Mono', 'Fira Code', 'SF Mono', 'Cascadia Code', monospace" font-size="11" fill="#b4f079" opacity="0.85" text-anchor="middle">Upsert views</text>
<text x="1693.3461538461538" y="361.7356127285037" font-family="'JetBrains Mono', 'Fira Code', 'SF Mono', 'Cascadia Code', monospace" font-size="11" fill="#b4f079" opacity="0.85" text-anchor="middle">Update index</text>
<text x="1368.65" y="293.5" font-family="'JetBrains Mono', 'Fira Code', 'SF Mono', 'Cascadia Code', monospace" font-size="11" fill="#b4f079" opacity="0.85" text-anchor="middle">Persist all events</text>
<text x="606.4" y="542.4937163375224" font-family="'JetBrains Mono', 'Fira Code', 'SF Mono', 'Cascadia Code', monospace" font-size="11" fill="#b4f079" opacity="0.85" text-anchor="middle">Saga callback</text>
<text x="601.65" y="519.0862956519275" font-family="'JetBrains Mono', 'Fira Code', 'SF Mono', 'Cascadia Code', monospace" font-size="11" fill="#b4f079" opacity="0.85" text-anchor="middle">Saga callback</text>
<text x="1938.7" y="379" font-family="'Inter', 'Helvetica Neue', Arial, sans-serif" font-size="14" fill="#ffffff" font-weight="700">Solid: synchronous RPC</text><text x="1938.7" y="397" font-family="'JetBrains Mono', 'Fira Code', 'SF Mono', 'Cascadia Code', monospace" font-size="11" fill="#b4f079" opacity="0.7">Dashed: async events</text><text x="1938.7" y="415" font-family="'JetBrains Mono', 'Fira Code', 'SF Mono', 'Cascadia Code', monospace" font-size="11" fill="#b4f079" opacity="0.7">Bidirectional: request + callback</text>
<text x="1116.4" y="740" font-family="'Inter', 'Helvetica Neue', Arial, sans-serif" font-size="14" fill="#ffffff" font-weight="700">At-least-once delivery</text><text x="1116.4" y="758" font-family="'JetBrains Mono', 'Fira Code', 'SF Mono', 'Cascadia Code', monospace" font-size="11" fill="#b4f079" opacity="0.7">Consumer group rebalancing</text><text x="1116.4" y="776" font-family="'JetBrains Mono', 'Fira Code', 'SF Mono', 'Cascadia Code', monospace" font-size="11" fill="#b4f079" opacity="0.7">Exactly-once via transactions</text>
<text x="1938.7" y="234" font-family="'Inter', 'Helvetica Neue', Arial, sans-serif" font-size="14" fill="#ffffff" font-weight="700">CQRS boundary:</text><text x="1938.7" y="252" font-family="'JetBrains Mono', 'Fira Code', 'SF Mono', 'Cascadia Code', monospace" font-size="11" fill="#b4f079" opacity="0.7">write side never queries</text><text x="1938.7" y="270" font-family="'JetBrains Mono', 'Fira Code', 'SF Mono', 'Cascadia Code', monospace" font-size="11" fill="#b4f079" opacity="0.7">read side never mutates</text>
</g>
</svg>