<svg xmlns="http://www.w3.org/2000/svg" viewBox="0 0 422 338" width="422" height="338">
<defs>
  <pattern id="dotgrid" width="8" height="8" patternUnits="userSpaceOnUse">
    <rect width="8" height="8" fill="#000000"/>
    <circle cx="4" cy="4" r="0.8" fill="#ffffff" opacity="0.7"/>
  </pattern>
  <pattern id="crosshatch" width="8" height="8" patternUnits="userSpaceOnUse">
    <rect width="8" height="8" fill="#000000"/>
    <path d="M0 8L8 0M-1 1L1 -1M7 9L9 7" stroke="#ffffff" stroke-width="0.8" opacity="0.2"/>
  </pattern>
  <pattern id="hero" width="6" height="6" patternUnits="userSpaceOnUse">
    <rect width="6" height="6" fill="#222222"/>
    <circle cx="3" cy="3" r="0.6" fill="#444444" opacity="0.5"/>
  </pattern>
  <marker id="arrowhead" markerWidth="10" markerHeight="7" refX="9" refY="3.5" orient="auto" markerUnits="strokeWidth">
    <polygon points="0 0, 10 3.5, 0 7" fill="#ffffff"/>
  </marker>
  <marker id="arrowhead-reverse" markerWidth="10" markerHeight="7" refX="1" refY="3.5" orient="auto" markerUnits="strokeWidth">
    <polygon points="10 0, 0 3.5, 10 7" fill="#ffffff"/>
  </marker>
</defs>
<rect width="100%" height="100%" fill="#000000"/>
<g class="diagram">
<text x="30" y="34" font-family="'Inter', 'Helvetica Neue', Arial, sans-serif" font-size="18" fill="#ffffff" font-weight="700">Layered domain architecture with</text><text x="30" y="58" font-family="'Inter', 'Helvetica Neue', Arial, sans-serif" font-size="18" fill="#ffffff" font-weight="700">explicit cross-cutting boundaries</text>
<rect x="19" y="114" width="368" height="222" rx="12" fill="url(#dotgrid)" stroke="#ffffff" stroke-width="1" opacity="0.35"/><rect x="19" y="114" width="368" height="222" rx="12" fill="none" stroke="#ffffff" stroke-width="1" opacity="0.5"/><text x="203" y="140" font-family="'Inter', 'Helvetica Neue', Arial, sans-serif" font-size="14" fill="#ffffff" opacity="0.9" text-anchor="middle">Business logic domain</text>
<line x1="99.5" y1="116" x2="99.5" y2="150" stroke="#ffffff" stroke-width="1.5" marker-end="url(#arrowhead)"/>
<polyline points="99.5,116 99.5,158 278.5,158 278.5,150" fill="none" stroke="#ffffff" stroke-width="1.5" marker-end="url(#arrowhead)"/>
<line x1="164" y1="167" x2="186" y2="167" stroke="#ffffff" stroke-width="1.5" marker-end="url(#arrowhead)"/>
<line x1="99.5" y1="184" x2="90" y2="218" stroke="#ffffff" stroke-width="1.5" marker-end="url(#arrowhead)"/>
<polyline points="99.5,184 99.5,201 222,201 222,218" fill="none" stroke="#ffffff" stroke-width="1.5" marker-end="url(#arrowhead)"/>
<line x1="278.5" y1="184" x2="335" y2="218" stroke="#ffffff" stroke-width="1.5" marker-end="url(#arrowhead)"/>
<line x1="145" y1="235" x2="167" y2="235" stroke="#ffffff" stroke-width="1.5" marker-end="url(#arrowhead)"/>
<line x1="277" y1="235" x2="299" y2="235" stroke="#ffffff" stroke-width="1.5" marker-end="url(#arrowhead)"/>
<line x1="90" y1="252" x2="89.5" y2="286" stroke="#ffffff" stroke-width="1.5" marker-end="url(#arrowhead)"/>
<line x1="222" y1="252" x2="207.5" y2="286" stroke="#ffffff" stroke-width="1.5" marker-end="url(#arrowhead)"/>
<line x1="335" y1="252" x2="321" y2="286" stroke="#ffffff" stroke-width="1.5" marker-end="url(#arrowhead)"/>
<line x1="135" y1="303" x2="157" y2="303" stroke="#ffffff" stroke-width="1.5" marker-end="url(#arrowhead)"/>
<line x1="258" y1="303" x2="280" y2="303" stroke="#ffffff" stroke-width="1.5" marker-end="url(#arrowhead)"/>
<polyline points="44,303 5,303 5,131 99.5,131 99.5,116" fill="none" stroke="#ffffff" stroke-width="1.5" marker-end="url(#arrowhead)"/>

<rect x="54" y="82" width="91" height="34" rx="17" fill="#000000" stroke="#ffffff" stroke-width="1.5"/><text x="99.5" y="99" font-family="'JetBrains Mono', 'Fira Code', 'SF Mono', 'Cascadia Code', monospace" font-size="13" fill="#ffffff" text-anchor="middle" dominant-baseline="central" letter-spacing="0.12em">Utils</text>
<rect x="35" y="150" width="129" height="34" rx="17" fill="#000000" stroke="#ffffff" stroke-width="1.5"/><text x="99.5" y="167" font-family="'JetBrains Mono', 'Fira Code', 'SF Mono', 'Cascadia Code', monospace" font-size="13" fill="#ffffff" text-anchor="middle" dominant-baseline="central" letter-spacing="0.12em">Providers</text>
<rect x="186" y="150" width="185" height="34" rx="17" fill="#000000" stroke="#ffffff" stroke-width="1.5"/><text x="278.5" y="167" font-family="'JetBrains Mono', 'Fira Code', 'SF Mono', 'Cascadia Code', monospace" font-size="13" fill="#ffffff" text-anchor="middle" dominant-baseline="central" letter-spacing="0.12em">App Wiring + UI</text>
<rect x="35" y="218" width="110" height="34" rx="17" fill="#000000" stroke="#ffffff" stroke-width="1.5"/><text x="90" y="235" font-family="'JetBrains Mono', 'Fira Code', 'SF Mono', 'Cascadia Code', monospace" font-size="13" fill="#ffffff" text-anchor="middle" dominant-baseline="central" letter-spacing="0.12em">Service</text>
<rect x="167" y="218" width="110" height="34" rx="17" fill="#000000" stroke="#ffffff" stroke-width="1.5"/><text x="222" y="235" font-family="'JetBrains Mono', 'Fira Code', 'SF Mono', 'Cascadia Code', monospace" font-size="13" fill="#ffffff" text-anchor="middle" dominant-baseline="central" letter-spacing="0.12em">Runtime</text>
<rect x="299" y="218" width="72" height="34" rx="17" fill="#000000" stroke="#ffffff" stroke-width="1.5"/><text x="335" y="235" font-family="'JetBrains Mono', 'Fira Code', 'SF Mono', 'Cascadia Code', monospace" font-size="13" fill="#ffffff" text-anchor="middle" dominant-baseline="central" letter-spacing="0.12em">UI</text>
<rect x="44" y="286" width="91" height="34" rx="17" fill="#000000" stroke="#ffffff" stroke-width="1.5"/><text x="89.5" y="303" font-family="'JetBrains Mono', 'Fira Code', 'SF Mono', 'Cascadia Code', monospace" font-size="13" fill="#ffffff" text-anchor="middle" dominant-baseline="central" letter-spacing="0.12em">Types</text>
<rect x="157" y="286" width="101" height="34" rx="17" fill="#000000" stroke="#ffffff" stroke-width="1.5"/><text x="207.5" y="303" font-family="'JetBrains Mono', 'Fira Code', 'SF Mono', 'Cascadia Code', monospace" font-size="13" fill="#ffffff" text-anchor="middle" dominant-baseline="central" letter-spacing="0.12em">Config</text>
<rect x="280" y="286" width="82" height="34" rx="17" fill="#000000" stroke="#ffffff" stroke-width="1.5"/><text x="321" y="303" font-family="'JetBrains Mono', 'Fira Code', 'SF Mono', 'Cascadia Code', monospace" font-size="13" fill="#ffffff" text-anchor="middle" dominant-baseline="central" letter-spacing="0.12em">Repo</text>

</g>
</svg>