<svg xmlns="http://www.w3.org/2000/svg" viewBox="0 0 466 414" width="466" height="414">
<defs>
  <pattern id="dotgrid" width="8" height="8" patternUnits="userSpaceOnUse">
    <rect width="8" height="8" fill="#000000"/>
    <circle cx="4" cy="4" r="0.8" fill="#ffffff" opacity="0.7"/>
  </pattern>
  <pattern id="crosshatch" width="8" height="8" patternUnits="userSpaceOnUse">
    <rect width="8" height="8" fill="#000000"/>
    <path d="M0 8L8 0M-1 1L1 -1M7 9L9 7" stroke="#ffffff" stroke-width="0.8" opacity="0.2"/>
  </pattern>
  <pattern id="hero" width="6" height="6" patternUnits="userSpaceOnUse">
    <rect width="6" height="6" fill="#222222"/>
    <circle cx="3" cy="3" r="0.6" fill="#444444" opacity="0.5"/>
  </pattern>
  <marker id="arrowhead" markerWidth="10" markerHeight="7" refX="9" refY="3.5" orient="auto" markerUnits="strokeWidth">
    <polygon points="0 0, 10 3.5, 0 7" fill="#ffffff"/>
  </marker>
  <marker id="arrowhead-reverse" markerWidth="10" markerHeight="7" refX="1" refY="3.5" orient="auto" markerUnits="strokeWidth">
    <polygon points="10 0, 0 3.5, 10 7" fill="#ffffff"/>
  </marker>
</defs>
<rect width="100%" height="100%" fill="#000000"/>
<g class="diagram">
<text x="30" y="34" font-family="'Inter', 'Helvetica Neue', Arial, sans-serif" font-size="18" fill="#ffffff" font-weight="700">Layered domain architecture with</text><text x="30" y="58" font-family="'Inter', 'Helvetica Neue', Arial, sans-serif" font-size="18" fill="#ffffff" font-weight="700">explicit cross-cutting boundaries</text>
<rect x="23" y="148" width="398" height="266" rx="12" fill="url(#dotgrid)" stroke="#ffffff" stroke-width="1.5" opacity="0.5"/><rect x="23" y="148" width="398" height="266" rx="12" fill="none" stroke="#ffffff" stroke-width="1.5" opacity="0.4"/><text x="41" y="174" font-family="'Inter', 'Helvetica Neue', Arial, sans-serif" font-size="14" fill="#ffffff" opacity="0.9">Business logic domain</text>
<line x1="118.5" y1="125" x2="118.5" y2="180" stroke="#ffffff" stroke-width="1.5" marker-end="url(#arrowhead)"/>
<polyline points="118.5,125 118.5,152.5 297.5,152.5 297.5,180" fill="none" stroke="#ffffff" stroke-width="1.5" marker-end="url(#arrowhead)"/>
<line x1="183" y1="197" x2="205" y2="197" stroke="#ffffff" stroke-width="1.5" marker-end="url(#arrowhead)"/>
<polyline points="118.5,214 118.5,241.5 100,241.5 100,269" fill="none" stroke="#ffffff" stroke-width="1.5" marker-end="url(#arrowhead)"/>
<polyline points="118.5,214 118.5,241.5 232,241.5 232,269" fill="none" stroke="#ffffff" stroke-width="1.5" marker-end="url(#arrowhead)"/>
<polyline points="297.5,214 297.5,241.5 354,241.5 354,269" fill="none" stroke="#ffffff" stroke-width="1.5" marker-end="url(#arrowhead)"/>
<line x1="155" y1="286" x2="177" y2="286" stroke="#ffffff" stroke-width="1.5" marker-end="url(#arrowhead)"/>
<line x1="287" y1="286" x2="309" y2="286" stroke="#ffffff" stroke-width="1.5" marker-end="url(#arrowhead)"/>
<line x1="100" y1="303" x2="104.5" y2="358" stroke="#ffffff" stroke-width="1.5" marker-end="url(#arrowhead)"/>
<line x1="232" y1="303" x2="222.5" y2="358" stroke="#ffffff" stroke-width="1.5" marker-end="url(#arrowhead)"/>
<polyline points="354,303 354,330.5 340,330.5 340,358" fill="none" stroke="#ffffff" stroke-width="1.5" marker-end="url(#arrowhead)"/>
<line x1="150" y1="375" x2="172" y2="375" stroke="#ffffff" stroke-width="1.5" marker-end="url(#arrowhead)"/>
<line x1="273" y1="375" x2="295" y2="375" stroke="#ffffff" stroke-width="1.5" marker-end="url(#arrowhead)"/>
<polyline points="59,375 15,375 15,140 118.5,140 118.5,125" fill="none" stroke="#ffffff" stroke-width="1.5" marker-end="url(#arrowhead)"/>

<rect x="73" y="91" width="91" height="34" rx="17" fill="transparent" stroke="#ffffff" stroke-width="1.5"/><text x="118.5" y="108" font-family="'JetBrains Mono', 'Fira Code', 'SF Mono', 'Cascadia Code', monospace" font-size="13" fill="#ffffff" text-anchor="middle" dominant-baseline="central" letter-spacing="0.12em">Utils</text>
<rect x="54" y="180" width="129" height="34" rx="17" fill="transparent" stroke="#ffffff" stroke-width="1.5"/><text x="118.5" y="197" font-family="'JetBrains Mono', 'Fira Code', 'SF Mono', 'Cascadia Code', monospace" font-size="13" fill="#ffffff" text-anchor="middle" dominant-baseline="central" letter-spacing="0.12em">Providers</text>
<rect x="205" y="180" width="185" height="34" rx="17" fill="transparent" stroke="#ffffff" stroke-width="1.5"/><text x="297.5" y="197" font-family="'JetBrains Mono', 'Fira Code', 'SF Mono', 'Cascadia Code', monospace" font-size="13" fill="#ffffff" text-anchor="middle" dominant-baseline="central" letter-spacing="0.12em">App Wiring + UI</text>
<rect x="45" y="269" width="110" height="34" rx="17" fill="transparent" stroke="#ffffff" stroke-width="1.5"/><text x="100" y="286" font-family="'JetBrains Mono', 'Fira Code', 'SF Mono', 'Cascadia Code', monospace" font-size="13" fill="#ffffff" text-anchor="middle" dominant-baseline="central" letter-spacing="0.12em">Service</text>
<rect x="177" y="269" width="110" height="34" rx="17" fill="transparent" stroke="#ffffff" stroke-width="1.5"/><text x="232" y="286" font-family="'JetBrains Mono', 'Fira Code', 'SF Mono', 'Cascadia Code', monospace" font-size="13" fill="#ffffff" text-anchor="middle" dominant-baseline="central" letter-spacing="0.12em">Runtime</text>
<rect x="309" y="269" width="90" height="34" rx="17" fill="transparent" stroke="#ffffff" stroke-width="1.5"/><text x="354" y="286" font-family="'JetBrains Mono', 'Fira Code', 'SF Mono', 'Cascadia Code', monospace" font-size="13" fill="#ffffff" text-anchor="middle" dominant-baseline="central" letter-spacing="0.12em">UI</text>
<rect x="59" y="358" width="91" height="34" rx="17" fill="transparent" stroke="#ffffff" stroke-width="1.5"/><text x="104.5" y="375" font-family="'JetBrains Mono', 'Fira Code', 'SF Mono', 'Cascadia Code', monospace" font-size="13" fill="#ffffff" text-anchor="middle" dominant-baseline="central" letter-spacing="0.12em">Types</text>
<rect x="172" y="358" width="101" height="34" rx="17" fill="transparent" stroke="#ffffff" stroke-width="1.5"/><text x="222.5" y="375" font-family="'JetBrains Mono', 'Fira Code', 'SF Mono', 'Cascadia Code', monospace" font-size="13" fill="#ffffff" text-anchor="middle" dominant-baseline="central" letter-spacing="0.12em">Config</text>
<rect x="295" y="358" width="90" height="34" rx="17" fill="transparent" stroke="#ffffff" stroke-width="1.5"/><text x="340" y="375" font-family="'JetBrains Mono', 'Fira Code', 'SF Mono', 'Cascadia Code', monospace" font-size="13" fill="#ffffff" text-anchor="middle" dominant-baseline="central" letter-spacing="0.12em">Repo</text>

</g>
</svg>