<svg xmlns="http://www.w3.org/2000/svg" viewBox="0 0 608 599" width="608" height="599">
<defs>
  <pattern id="dotgrid" width="8" height="8" patternUnits="userSpaceOnUse">
    <rect width="8" height="8" fill="#000000"/>
    <circle cx="4" cy="4" r="0.8" fill="#ffffff" opacity="0.7"/>
  </pattern>
  <pattern id="crosshatch" width="8" height="8" patternUnits="userSpaceOnUse">
    <rect width="8" height="8" fill="#000000"/>
    <path d="M0 8L8 0M-1 1L1 -1M7 9L9 7" stroke="#ffffff" stroke-width="0.8" opacity="0.2"/>
  </pattern>
  <pattern id="hero" width="6" height="6" patternUnits="userSpaceOnUse">
    <rect width="6" height="6" fill="#222222"/>
    <circle cx="3" cy="3" r="0.6" fill="#444444" opacity="0.5"/>
  </pattern>
  <marker id="arrowhead" markerWidth="10" markerHeight="7" refX="9" refY="3.5" orient="auto" markerUnits="strokeWidth">
    <polygon points="0 0, 10 3.5, 0 7" fill="#ffffff"/>
  </marker>
  <marker id="arrowhead-reverse" markerWidth="10" markerHeight="7" refX="1" refY="3.5" orient="auto" markerUnits="strokeWidth">
    <polygon points="10 0, 0 3.5, 10 7" fill="#ffffff"/>
  </marker>
</defs>
<rect width="100%" height="100%" fill="#000000"/>
<g class="diagram">
<text x="30" y="34" font-family="'Inter', 'Helvetica Neue', Arial, sans-serif" font-size="18" fill="#ffffff" font-weight="700">Layered domain architecture with</text><text x="30" y="58" font-family="'Inter', 'Helvetica Neue', Arial, sans-serif" font-size="18" fill="#ffffff" font-weight="700">explicit cross-cutting boundaries</text>
<rect x="40" y="199" width="528" height="410" rx="12" fill="url(#dotgrid)" stroke="#ffffff" stroke-width="1.5" opacity="0.5"/><rect x="40" y="199" width="528" height="410" rx="12" fill="none" stroke="#ffffff" stroke-width="1.5" opacity="0.4"/><text x="58" y="225" font-family="'Inter', 'Helvetica Neue', Arial, sans-serif" font-size="14" fill="#ffffff" opacity="0.9">Business logic domain</text>
<line x1="179.5" y1="149" x2="179.5" y2="249" stroke="#ffffff" stroke-width="1.5" marker-end="url(#arrowhead)"/>
<polyline points="179.5,149 179.5,199 400.5,199 400.5,249" fill="none" stroke="#ffffff" stroke-width="1.5" marker-end="url(#arrowhead)"/>
<line x1="256" y1="269" x2="296" y2="269" stroke="#ffffff" stroke-width="1.5" marker-end="url(#arrowhead)"/>
<polyline points="179.5,289 179.5,339 147,339 147,389" fill="none" stroke="#ffffff" stroke-width="1.5" marker-end="url(#arrowhead)"/>
<polyline points="179.5,289 179.5,339 321,339 321,389" fill="none" stroke="#ffffff" stroke-width="1.5" marker-end="url(#arrowhead)"/>
<polyline points="400.5,289 400.5,339 478,339 478,389" fill="none" stroke="#ffffff" stroke-width="1.5" marker-end="url(#arrowhead)"/>
<line x1="214" y1="409" x2="254" y2="409" stroke="#ffffff" stroke-width="1.5" marker-end="url(#arrowhead)"/>
<line x1="388" y1="409" x2="428" y2="409" stroke="#ffffff" stroke-width="1.5" marker-end="url(#arrowhead)"/>
<line x1="147" y1="429" x2="148.5" y2="529" stroke="#ffffff" stroke-width="1.5" marker-end="url(#arrowhead)"/>
<polyline points="321,429 321,479 308.5,479 308.5,529" fill="none" stroke="#ffffff" stroke-width="1.5" marker-end="url(#arrowhead)"/>
<polyline points="478,429 478,479 464,479 464,529" fill="none" stroke="#ffffff" stroke-width="1.5" marker-end="url(#arrowhead)"/>
<line x1="206" y1="549" x2="246" y2="549" stroke="#ffffff" stroke-width="1.5" marker-end="url(#arrowhead)"/>
<line x1="371" y1="549" x2="411" y2="549" stroke="#ffffff" stroke-width="1.5" marker-end="url(#arrowhead)"/>
<polyline points="91,549 50,549 50,164 179.5,164 179.5,149" fill="none" stroke="#ffffff" stroke-width="1.5" marker-end="url(#arrowhead)"/>
<rect x="122" y="109" width="115" height="40" rx="20" fill="transparent" stroke="#ffffff" stroke-width="1.5"/><text x="179.5" y="129" font-family="'JetBrains Mono', 'Fira Code', 'SF Mono', 'Cascadia Code', monospace" font-size="13" fill="#ffffff" text-anchor="middle" dominant-baseline="central" letter-spacing="0.12em">Utils</text>
<rect x="103" y="249" width="153" height="40" rx="20" fill="transparent" stroke="#ffffff" stroke-width="1.5"/><text x="179.5" y="269" font-family="'JetBrains Mono', 'Fira Code', 'SF Mono', 'Cascadia Code', monospace" font-size="13" fill="#ffffff" text-anchor="middle" dominant-baseline="central" letter-spacing="0.12em">Providers</text>
<rect x="296" y="249" width="209" height="40" rx="20" fill="transparent" stroke="#ffffff" stroke-width="1.5"/><text x="400.5" y="269" font-family="'JetBrains Mono', 'Fira Code', 'SF Mono', 'Cascadia Code', monospace" font-size="13" fill="#ffffff" text-anchor="middle" dominant-baseline="central" letter-spacing="0.12em">App Wiring + UI</text>
<rect x="80" y="389" width="134" height="40" rx="20" fill="transparent" stroke="#ffffff" stroke-width="1.5"/><text x="147" y="409" font-family="'JetBrains Mono', 'Fira Code', 'SF Mono', 'Cascadia Code', monospace" font-size="13" fill="#ffffff" text-anchor="middle" dominant-baseline="central" letter-spacing="0.12em">Service</text>
<rect x="254" y="389" width="134" height="40" rx="20" fill="transparent" stroke="#ffffff" stroke-width="1.5"/><text x="321" y="409" font-family="'JetBrains Mono', 'Fira Code', 'SF Mono', 'Cascadia Code', monospace" font-size="13" fill="#ffffff" text-anchor="middle" dominant-baseline="central" letter-spacing="0.12em">Runtime</text>
<rect x="428" y="389" width="100" height="40" rx="20" fill="transparent" stroke="#ffffff" stroke-width="1.5"/><text x="478" y="409" font-family="'JetBrains Mono', 'Fira Code', 'SF Mono', 'Cascadia Code', monospace" font-size="13" fill="#ffffff" text-anchor="middle" dominant-baseline="central" letter-spacing="0.12em">UI</text>
<rect x="91" y="529" width="115" height="40" rx="20" fill="transparent" stroke="#ffffff" stroke-width="1.5"/><text x="148.5" y="549" font-family="'JetBrains Mono', 'Fira Code', 'SF Mono', 'Cascadia Code', monospace" font-size="13" fill="#ffffff" text-anchor="middle" dominant-baseline="central" letter-spacing="0.12em">Types</text>
<rect x="246" y="529" width="125" height="40" rx="20" fill="transparent" stroke="#ffffff" stroke-width="1.5"/><text x="308.5" y="549" font-family="'JetBrains Mono', 'Fira Code', 'SF Mono', 'Cascadia Code', monospace" font-size="13" fill="#ffffff" text-anchor="middle" dominant-baseline="central" letter-spacing="0.12em">Config</text>
<rect x="411" y="529" width="106" height="40" rx="20" fill="transparent" stroke="#ffffff" stroke-width="1.5"/><text x="464" y="549" font-family="'JetBrains Mono', 'Fira Code', 'SF Mono', 'Cascadia Code', monospace" font-size="13" fill="#ffffff" text-anchor="middle" dominant-baseline="central" letter-spacing="0.12em">Repo</text>

</g>
</svg>