<svg xmlns="http://www.w3.org/2000/svg" viewBox="0 0 531 475" width="531" height="475">
<defs>
  <pattern id="dotgrid" width="8" height="8" patternUnits="userSpaceOnUse">
    <rect width="8" height="8" fill="#ffffff"/>
    <circle cx="4" cy="4" r="0.8" fill="#1a7a1a" opacity="0.7"/>
  </pattern>
  <pattern id="crosshatch" width="8" height="8" patternUnits="userSpaceOnUse">
    <rect width="8" height="8" fill="#ffffff"/>
    <path d="M0 8L8 0M-1 1L1 -1M7 9L9 7" stroke="#1a7a1a" stroke-width="0.8" opacity="0.2"/>
  </pattern>
  <pattern id="hero" width="6" height="6" patternUnits="userSpaceOnUse">
    <rect width="6" height="6" fill="#d4ecd4"/>
    <circle cx="3" cy="3" r="0.6" fill="#b0d8b0" opacity="0.5"/>
  </pattern>
  <marker id="arrowhead" markerWidth="10" markerHeight="7" refX="9" refY="3.5" orient="auto" markerUnits="strokeWidth">
    <polygon points="0 0, 10 3.5, 0 7" fill="#1a7a1a"/>
  </marker>
  <marker id="arrowhead-reverse" markerWidth="10" markerHeight="7" refX="1" refY="3.5" orient="auto" markerUnits="strokeWidth">
    <polygon points="10 0, 0 3.5, 10 7" fill="#1a7a1a"/>
  </marker>
</defs>
<rect width="100%" height="100%" fill="#ffffff"/>
<g class="diagram">
<text x="30" y="34" font-family="'Inter', 'Helvetica Neue', Arial, sans-serif" font-size="15" fill="#222222" font-weight="700">Layered domain architecture with</text><text x="30" y="55" font-family="'Inter', 'Helvetica Neue', Arial, sans-serif" font-size="15" fill="#222222" font-weight="700">explicit cross-cutting boundaries</text>
<rect x="76" y="141" width="415" height="310" rx="12" fill="url(#dotgrid)" stroke="#1a7a1a" stroke-width="1" opacity="0.35"/><rect x="76" y="141" width="415" height="310" rx="12" fill="none" stroke="#1a7a1a" stroke-width="1" opacity="0.5"/>
<line x1="171" y1="115" x2="171" y2="197" stroke="#1a7a1a" stroke-width="1.5" marker-end="url(#arrowhead)"/>
<polyline points="171,115 171,183 368,183 265.5,226" fill="none" stroke="#1a7a1a" stroke-width="1.5" marker-end="url(#arrowhead)"/>
<line x1="245.5" y1="229" x2="265.5" y2="232" stroke="#1a7a1a" stroke-width="1.5" marker-end="url(#arrowhead)"/>
<line x1="171" y1="261" x2="157" y2="314" stroke="#1a7a1a" stroke-width="1.5" marker-end="url(#arrowhead)"/>
<polyline points="171,261 171,292 307,292 242,323" fill="none" stroke="#1a7a1a" stroke-width="1.5" marker-end="url(#arrowhead)"/>
<polyline points="368,246 368,280 433.5,280 433.5,314" fill="none" stroke="#1a7a1a" stroke-width="1.5" marker-end="url(#arrowhead)"/>
<line x1="222" y1="331" x2="242" y2="339" stroke="#1a7a1a" stroke-width="1.5" marker-end="url(#arrowhead)"/>
<line x1="372" y1="331" x2="392" y2="331" stroke="#1a7a1a" stroke-width="1.5" marker-end="url(#arrowhead)"/>
<line x1="157" y1="348" x2="152" y2="401" stroke="#1a7a1a" stroke-width="1.5" marker-end="url(#arrowhead)"/>
<line x1="307" y1="363" x2="288" y2="401" stroke="#1a7a1a" stroke-width="1.5" marker-end="url(#arrowhead)"/>
<line x1="433.5" y1="348" x2="419.5" y2="401" stroke="#1a7a1a" stroke-width="1.5" marker-end="url(#arrowhead)"/>
<line x1="207.5" y1="418" x2="227.5" y2="418" stroke="#1a7a1a" stroke-width="1.5" marker-end="url(#arrowhead)"/>
<line x1="348.5" y1="418" x2="368.5" y2="418" stroke="#1a7a1a" stroke-width="1.5" marker-end="url(#arrowhead)"/>
<polyline points="96.5,418 36,418 36,130 171,130 171,115" fill="none" stroke="#1a7a1a" stroke-width="1.5" marker-end="url(#arrowhead)"/>

<rect x="194.75" y="154" width="177.5" height="24" fill="#ffffff" rx="3"/><text x="283.5" y="167" font-family="'Inter', 'Helvetica Neue', Arial, sans-serif" font-size="14" fill="#222222" opacity="0.9" text-anchor="middle">Business logic domain</text>
<rect x="115.5" y="81" width="111" height="34" rx="17" fill="#ffffff" stroke="#1a7a1a" stroke-width="1.5"/><text x="171" y="98" font-family="'JetBrains Mono', 'Fira Code', 'SF Mono', 'Cascadia Code', monospace" font-size="13" fill="#1a7a1a" text-anchor="middle" dominant-baseline="central" letter-spacing="0.12em">Utils</text>
<rect x="96.5" y="197" width="149" height="64" rx="32" fill="#ffffff" stroke="#1a7a1a" stroke-width="1.5"/><text x="171" y="229" font-family="'JetBrains Mono', 'Fira Code', 'SF Mono', 'Cascadia Code', monospace" font-size="13" fill="#1a7a1a" text-anchor="middle" dominant-baseline="central" letter-spacing="0.12em">Providers</text>
<rect x="265.5" y="212" width="205" height="34" rx="17" fill="#ffffff" stroke="#1a7a1a" stroke-width="1.5"/><text x="368" y="229" font-family="'JetBrains Mono', 'Fira Code', 'SF Mono', 'Cascadia Code', monospace" font-size="13" fill="#1a7a1a" text-anchor="middle" dominant-baseline="central" letter-spacing="0.12em">App Wiring + UI</text>
<rect x="92" y="314" width="130" height="34" rx="17" fill="#ffffff" stroke="#1a7a1a" stroke-width="1.5"/><text x="157" y="331" font-family="'JetBrains Mono', 'Fira Code', 'SF Mono', 'Cascadia Code', monospace" font-size="13" fill="#1a7a1a" text-anchor="middle" dominant-baseline="central" letter-spacing="0.12em">Service</text>
<rect x="242" y="299" width="130" height="64" rx="32" fill="#ffffff" stroke="#1a7a1a" stroke-width="1.5"/><text x="307" y="331" font-family="'JetBrains Mono', 'Fira Code', 'SF Mono', 'Cascadia Code', monospace" font-size="13" fill="#1a7a1a" text-anchor="middle" dominant-baseline="central" letter-spacing="0.12em">Runtime</text>
<rect x="392" y="314" width="83" height="34" rx="17" fill="#ffffff" stroke="#1a7a1a" stroke-width="1.5"/><text x="433.5" y="331" font-family="'JetBrains Mono', 'Fira Code', 'SF Mono', 'Cascadia Code', monospace" font-size="13" fill="#1a7a1a" text-anchor="middle" dominant-baseline="central" letter-spacing="0.12em">UI</text>
<rect x="96.5" y="401" width="111" height="34" rx="17" fill="#ffffff" stroke="#1a7a1a" stroke-width="1.5"/><text x="152" y="418" font-family="'JetBrains Mono', 'Fira Code', 'SF Mono', 'Cascadia Code', monospace" font-size="13" fill="#1a7a1a" text-anchor="middle" dominant-baseline="central" letter-spacing="0.12em">Types</text>
<rect x="227.5" y="401" width="121" height="34" rx="17" fill="#ffffff" stroke="#1a7a1a" stroke-width="1.5"/><text x="288" y="418" font-family="'JetBrains Mono', 'Fira Code', 'SF Mono', 'Cascadia Code', monospace" font-size="13" fill="#1a7a1a" text-anchor="middle" dominant-baseline="central" letter-spacing="0.12em">Config</text>
<rect x="368.5" y="401" width="102" height="34" rx="17" fill="#ffffff" stroke="#1a7a1a" stroke-width="1.5"/><text x="419.5" y="418" font-family="'JetBrains Mono', 'Fira Code', 'SF Mono', 'Cascadia Code', monospace" font-size="13" fill="#1a7a1a" text-anchor="middle" dominant-baseline="central" letter-spacing="0.12em">Repo</text>

</g>
</svg>