<svg xmlns="http://www.w3.org/2000/svg" viewBox="0 0 614 663" width="614" height="663">
<defs>
  <pattern id="dotgrid" width="8" height="8" patternUnits="userSpaceOnUse">
    <rect width="8" height="8" fill="#000000"/>
    <circle cx="4" cy="4" r="0.8" fill="#ffffff" opacity="0.7"/>
  </pattern>
  <pattern id="crosshatch" width="8" height="8" patternUnits="userSpaceOnUse">
    <rect width="8" height="8" fill="#000000"/>
    <path d="M0 8L8 0M-1 1L1 -1M7 9L9 7" stroke="#ffffff" stroke-width="0.8" opacity="0.2"/>
  </pattern>
  <pattern id="hero" width="6" height="6" patternUnits="userSpaceOnUse">
    <rect width="6" height="6" fill="#222222"/>
    <circle cx="3" cy="3" r="0.6" fill="#444444" opacity="0.5"/>
  </pattern>
  <marker id="arrowhead" markerWidth="10" markerHeight="7" refX="9" refY="3.5" orient="auto" markerUnits="strokeWidth">
    <polygon points="0 0, 10 3.5, 0 7" fill="#ffffff"/>
  </marker>
  <marker id="arrowhead-reverse" markerWidth="10" markerHeight="7" refX="1" refY="3.5" orient="auto" markerUnits="strokeWidth">
    <polygon points="10 0, 0 3.5, 10 7" fill="#ffffff"/>
  </marker>
</defs>
<rect width="100%" height="100%" fill="#000000"/>
<g class="diagram">
<text x="30" y="34" font-family="'Inter', 'Helvetica Neue', Arial, sans-serif" font-size="18" fill="#ffffff" font-weight="700">Layered domain architecture with</text><text x="30" y="58" font-family="'Inter', 'Helvetica Neue', Arial, sans-serif" font-size="18" fill="#ffffff" font-weight="700">explicit cross-cutting boundaries</text>
<rect x="40" y="215" width="534" height="458" rx="12" fill="transparent" stroke="#ffffff" stroke-width="1.5" opacity="0.5"/><rect x="40" y="215" width="534" height="458" rx="12" fill="none" stroke="#ffffff" stroke-width="1.5" opacity="0.4"/><text x="58" y="241" font-family="'Inter', 'Helvetica Neue', Arial, sans-serif" font-size="14" fill="#ffffff" opacity="0.9">Business logic domain</text>
<line x1="181" y1="165" x2="181" y2="265" stroke="#ffffff" stroke-width="1.5" marker-end="url(#arrowhead)"/>
<polyline points="181,165 181,215 405,215 405,265" fill="none" stroke="#ffffff" stroke-width="1.5" marker-end="url(#arrowhead)"/>
<line x1="251.5" y1="293" x2="306.5" y2="293" stroke="#ffffff" stroke-width="1.5" marker-end="url(#arrowhead)"/>
<polyline points="181,321 181,371 141,371 141,421" fill="none" stroke="#ffffff" stroke-width="1.5" marker-end="url(#arrowhead)"/>
<polyline points="181,321 181,371 318,371 318,421" fill="none" stroke="#ffffff" stroke-width="1.5" marker-end="url(#arrowhead)"/>
<polyline points="405,321 405,371 484,371 484,421" fill="none" stroke="#ffffff" stroke-width="1.5" marker-end="url(#arrowhead)"/>
<line x1="202" y1="449" x2="257" y2="449" stroke="#ffffff" stroke-width="1.5" marker-end="url(#arrowhead)"/>
<line x1="379" y1="449" x2="434" y2="449" stroke="#ffffff" stroke-width="1.5" marker-end="url(#arrowhead)"/>
<line x1="141" y1="477" x2="145.5" y2="577" stroke="#ffffff" stroke-width="1.5" marker-end="url(#arrowhead)"/>
<line x1="318" y1="477" x2="308.5" y2="577" stroke="#ffffff" stroke-width="1.5" marker-end="url(#arrowhead)"/>
<polyline points="484,477 484,527 470,527 470,577" fill="none" stroke="#ffffff" stroke-width="1.5" marker-end="url(#arrowhead)"/>
<line x1="197" y1="605" x2="252" y2="605" stroke="#ffffff" stroke-width="1.5" marker-end="url(#arrowhead)"/>
<line x1="365" y1="605" x2="420" y2="605" stroke="#ffffff" stroke-width="1.5" marker-end="url(#arrowhead)"/>
<polyline points="94,605 50,605 50,137 129.5,137" fill="none" stroke="#ffffff" stroke-width="1.5" marker-end="url(#arrowhead)"/>
<rect x="129.5" y="109" width="103" height="56" rx="999" fill="transparent" stroke="#ffffff" stroke-width="1.5"/><text x="181" y="137" font-family="'JetBrains Mono', 'Fira Code', 'SF Mono', 'Cascadia Code', monospace" font-size="13" fill="#ffffff" text-anchor="middle" dominant-baseline="central" letter-spacing="0.12em">UTILS</text>
<rect x="110.5" y="265" width="141" height="56" rx="999" fill="transparent" stroke="#ffffff" stroke-width="1.5"/><text x="181" y="293" font-family="'JetBrains Mono', 'Fira Code', 'SF Mono', 'Cascadia Code', monospace" font-size="13" fill="#ffffff" text-anchor="middle" dominant-baseline="central" letter-spacing="0.12em">PROVIDERS</text>
<rect x="306.5" y="265" width="197" height="56" rx="999" fill="transparent" stroke="#ffffff" stroke-width="1.5"/><text x="405" y="293" font-family="'JetBrains Mono', 'Fira Code', 'SF Mono', 'Cascadia Code', monospace" font-size="13" fill="#ffffff" text-anchor="middle" dominant-baseline="central" letter-spacing="0.12em">APP WIRING + UI</text>
<rect x="80" y="421" width="122" height="56" rx="999" fill="transparent" stroke="#ffffff" stroke-width="1.5"/><text x="141" y="449" font-family="'JetBrains Mono', 'Fira Code', 'SF Mono', 'Cascadia Code', monospace" font-size="13" fill="#ffffff" text-anchor="middle" dominant-baseline="central" letter-spacing="0.12em">SERVICE</text>
<rect x="257" y="421" width="122" height="56" rx="999" fill="transparent" stroke="#ffffff" stroke-width="1.5"/><text x="318" y="449" font-family="'JetBrains Mono', 'Fira Code', 'SF Mono', 'Cascadia Code', monospace" font-size="13" fill="#ffffff" text-anchor="middle" dominant-baseline="central" letter-spacing="0.12em">RUNTIME</text>
<rect x="434" y="421" width="100" height="56" rx="999" fill="transparent" stroke="#ffffff" stroke-width="1.5"/><text x="484" y="449" font-family="'JetBrains Mono', 'Fira Code', 'SF Mono', 'Cascadia Code', monospace" font-size="13" fill="#ffffff" text-anchor="middle" dominant-baseline="central" letter-spacing="0.12em">UI</text>
<rect x="94" y="577" width="103" height="56" rx="999" fill="transparent" stroke="#ffffff" stroke-width="1.5"/><text x="145.5" y="605" font-family="'JetBrains Mono', 'Fira Code', 'SF Mono', 'Cascadia Code', monospace" font-size="13" fill="#ffffff" text-anchor="middle" dominant-baseline="central" letter-spacing="0.12em">TYPES</text>
<rect x="252" y="577" width="113" height="56" rx="999" fill="transparent" stroke="#ffffff" stroke-width="1.5"/><text x="308.5" y="605" font-family="'JetBrains Mono', 'Fira Code', 'SF Mono', 'Cascadia Code', monospace" font-size="13" fill="#ffffff" text-anchor="middle" dominant-baseline="central" letter-spacing="0.12em">CONFIG</text>
<rect x="420" y="577" width="100" height="56" rx="999" fill="transparent" stroke="#ffffff" stroke-width="1.5"/><text x="470" y="605" font-family="'JetBrains Mono', 'Fira Code', 'SF Mono', 'Cascadia Code', monospace" font-size="13" fill="#ffffff" text-anchor="middle" dominant-baseline="central" letter-spacing="0.12em">REPO</text>
</g>
</svg>