<svg xmlns="http://www.w3.org/2000/svg" viewBox="0 0 664 663" width="664" height="663">
<defs>
  <pattern id="dotgrid" width="8" height="8" patternUnits="userSpaceOnUse">
    <rect width="8" height="8" fill="#000000"/>
    <circle cx="4" cy="4" r="0.8" fill="#ffffff" opacity="0.7"/>
  </pattern>
  <pattern id="crosshatch" width="8" height="8" patternUnits="userSpaceOnUse">
    <rect width="8" height="8" fill="#000000"/>
    <path d="M0 8L8 0M-1 1L1 -1M7 9L9 7" stroke="#ffffff" stroke-width="0.8" opacity="0.2"/>
  </pattern>
  <pattern id="hero" width="6" height="6" patternUnits="userSpaceOnUse">
    <rect width="6" height="6" fill="#222222"/>
    <circle cx="3" cy="3" r="0.6" fill="#444444" opacity="0.5"/>
  </pattern>
  <marker id="arrowhead" markerWidth="10" markerHeight="7" refX="9" refY="3.5" orient="auto" markerUnits="strokeWidth">
    <polygon points="0 0, 10 3.5, 0 7" fill="#ffffff"/>
  </marker>
  <marker id="arrowhead-reverse" markerWidth="10" markerHeight="7" refX="1" refY="3.5" orient="auto" markerUnits="strokeWidth">
    <polygon points="10 0, 0 3.5, 10 7" fill="#ffffff"/>
  </marker>
</defs>
<rect width="100%" height="100%" fill="#000000"/>
<g class="diagram">
<text x="30" y="34" font-family="'Inter', 'Helvetica Neue', Arial, sans-serif" font-size="18" fill="#ffffff" font-weight="700">Layered domain architecture with</text><text x="30" y="58" font-family="'Inter', 'Helvetica Neue', Arial, sans-serif" font-size="18" fill="#ffffff" font-weight="700">explicit cross-cutting boundaries</text>
<rect x="40" y="215" width="584" height="458" rx="12" fill="transparent" stroke="#ffffff" stroke-width="1.5" opacity="0.5"/><rect x="40" y="215" width="584" height="458" rx="12" fill="none" stroke="#ffffff" stroke-width="1.5" opacity="0.4"/><text x="58" y="241" font-family="'Inter', 'Helvetica Neue', Arial, sans-serif" font-size="14" fill="#ffffff" opacity="0.9">Business logic domain</text>
<line x1="193.5" y1="165" x2="193.5" y2="265" stroke="#ffffff" stroke-width="1.5" marker-end="url(#arrowhead)"/>
<line x1="238.19230769230768" y1="165" x2="397.8076923076923" y2="265" stroke="#ffffff" stroke-width="1.5" marker-end="url(#arrowhead)"/>
<line x1="184.07692307692307" y1="321" x2="150.42307692307693" y2="421" stroke="#ffffff" stroke-width="1.5" marker-end="url(#arrowhead)"/>
<line x1="220.33333333333334" y1="321" x2="316.1666666666667" y2="421" stroke="#ffffff" stroke-width="1.5" marker-end="url(#arrowhead)"/>
<line x1="458.9230769230769" y1="321" x2="517.5769230769231" y2="421" stroke="#ffffff" stroke-width="1.5" marker-end="url(#arrowhead)"/>
<line x1="141.80769230769232" y1="477" x2="144.69230769230768" y2="577" stroke="#ffffff" stroke-width="1.5" marker-end="url(#arrowhead)"/>
<line x1="341.29487179487177" y1="477" x2="335.20512820512823" y2="577" stroke="#ffffff" stroke-width="1.5" marker-end="url(#arrowhead)"/>
<line x1="531.4871794871794" y1="477" x2="522.5128205128206" y2="577" stroke="#ffffff" stroke-width="1.5" marker-end="url(#arrowhead)"/>
<line x1="148.37179487179486" y1="577" x2="190.62820512820514" y2="165" stroke="#ffffff" stroke-width="1.5" marker-end="url(#arrowhead)"/>
<rect x="142" y="109" width="103" height="56" rx="999" fill="transparent" stroke="#ffffff" stroke-width="1.5"/><text x="193.5" y="137" font-family="'JetBrains Mono', 'Fira Code', 'SF Mono', 'Cascadia Code', monospace" font-size="13" fill="#ffffff" text-anchor="middle" dominant-baseline="central" letter-spacing="0.12em">UTILS</text>
<rect x="123" y="265" width="141" height="56" rx="999" fill="transparent" stroke="#ffffff" stroke-width="1.5"/><text x="193.5" y="293" font-family="'JetBrains Mono', 'Fira Code', 'SF Mono', 'Cascadia Code', monospace" font-size="13" fill="#ffffff" text-anchor="middle" dominant-baseline="central" letter-spacing="0.12em">PROVIDERS</text>
<rect x="344" y="265" width="197" height="56" rx="999" fill="transparent" stroke="#ffffff" stroke-width="1.5"/><text x="442.5" y="293" font-family="'JetBrains Mono', 'Fira Code', 'SF Mono', 'Cascadia Code', monospace" font-size="13" fill="#ffffff" text-anchor="middle" dominant-baseline="central" letter-spacing="0.12em">APP WIRING + UI</text>
<rect x="80" y="421" width="122" height="56" rx="999" fill="transparent" stroke="#ffffff" stroke-width="1.5"/><text x="141" y="449" font-family="'JetBrains Mono', 'Fira Code', 'SF Mono', 'Cascadia Code', monospace" font-size="13" fill="#ffffff" text-anchor="middle" dominant-baseline="central" letter-spacing="0.12em">SERVICE</text>
<rect x="282" y="421" width="122" height="56" rx="999" fill="transparent" stroke="#ffffff" stroke-width="1.5"/><text x="343" y="449" font-family="'JetBrains Mono', 'Fira Code', 'SF Mono', 'Cascadia Code', monospace" font-size="13" fill="#ffffff" text-anchor="middle" dominant-baseline="central" letter-spacing="0.12em">RUNTIME</text>
<rect x="484" y="421" width="100" height="56" rx="999" fill="transparent" stroke="#ffffff" stroke-width="1.5"/><text x="534" y="449" font-family="'JetBrains Mono', 'Fira Code', 'SF Mono', 'Cascadia Code', monospace" font-size="13" fill="#ffffff" text-anchor="middle" dominant-baseline="central" letter-spacing="0.12em">UI</text>
<rect x="94" y="577" width="103" height="56" rx="999" fill="transparent" stroke="#ffffff" stroke-width="1.5"/><text x="145.5" y="605" font-family="'JetBrains Mono', 'Fira Code', 'SF Mono', 'Cascadia Code', monospace" font-size="13" fill="#ffffff" text-anchor="middle" dominant-baseline="central" letter-spacing="0.12em">TYPES</text>
<rect x="277" y="577" width="113" height="56" rx="999" fill="transparent" stroke="#ffffff" stroke-width="1.5"/><text x="333.5" y="605" font-family="'JetBrains Mono', 'Fira Code', 'SF Mono', 'Cascadia Code', monospace" font-size="13" fill="#ffffff" text-anchor="middle" dominant-baseline="central" letter-spacing="0.12em">CONFIG</text>
<rect x="470" y="577" width="100" height="56" rx="999" fill="transparent" stroke="#ffffff" stroke-width="1.5"/><text x="520" y="605" font-family="'JetBrains Mono', 'Fira Code', 'SF Mono', 'Cascadia Code', monospace" font-size="13" fill="#ffffff" text-anchor="middle" dominant-baseline="central" letter-spacing="0.12em">REPO</text>
</g>
</svg>