<svg xmlns="http://www.w3.org/2000/svg" viewBox="0 0 470 355" width="470" height="355">
<defs>
  <pattern id="dotgrid" width="8" height="8" patternUnits="userSpaceOnUse">
    <rect width="8" height="8" fill="#000000"/>
    <circle cx="4" cy="4" r="0.8" fill="#ffffff" opacity="0.7"/>
  </pattern>
  <pattern id="crosshatch" width="8" height="8" patternUnits="userSpaceOnUse">
    <rect width="8" height="8" fill="#000000"/>
    <path d="M0 8L8 0M-1 1L1 -1M7 9L9 7" stroke="#ffffff" stroke-width="0.8" opacity="0.2"/>
  </pattern>
  <pattern id="hero" width="6" height="6" patternUnits="userSpaceOnUse">
    <rect width="6" height="6" fill="#222222"/>
    <circle cx="3" cy="3" r="0.6" fill="#444444" opacity="0.5"/>
  </pattern>
  <marker id="arrowhead" markerWidth="10" markerHeight="7" refX="9" refY="3.5" orient="auto" markerUnits="strokeWidth">
    <polygon points="0 0, 10 3.5, 0 7" fill="#ffffff"/>
  </marker>
  <marker id="arrowhead-reverse" markerWidth="10" markerHeight="7" refX="1" refY="3.5" orient="auto" markerUnits="strokeWidth">
    <polygon points="10 0, 0 3.5, 10 7" fill="#ffffff"/>
  </marker>
</defs>
<rect width="100%" height="100%" fill="#000000"/>
<g class="diagram">
<text x="30" y="34" font-family="'Inter', 'Helvetica Neue', Arial, sans-serif" font-size="15" fill="#ffffff" font-weight="700">Layered domain architecture with</text><text x="30" y="55" font-family="'Inter', 'Helvetica Neue', Arial, sans-serif" font-size="15" fill="#ffffff" font-weight="700">explicit cross-cutting boundaries</text>
<rect x="68" y="103" width="364" height="222" rx="12" fill="url(#dotgrid)" stroke="#ffffff" stroke-width="1" opacity="0.35"/><rect x="68" y="103" width="364" height="222" rx="12" fill="none" stroke="#ffffff" stroke-width="1" opacity="0.5"/>
<line x1="148.5" y1="78" x2="148.5" y2="139" stroke="#ffffff" stroke-width="1.5" marker-end="url(#arrowhead)"/>
<polyline points="148.5,78 148.5,127 323.5,127 323.5,139" fill="none" stroke="#ffffff" stroke-width="1.5" marker-end="url(#arrowhead)"/>
<line x1="213" y1="156" x2="231" y2="156" stroke="#ffffff" stroke-width="1.5" marker-end="url(#arrowhead)"/>
<line x1="148.5" y1="173" x2="145.5" y2="207" stroke="#ffffff" stroke-width="1.5" marker-end="url(#arrowhead)"/>
<polyline points="148.5,173 148.5,190 273.5,190 273.5,207" fill="none" stroke="#ffffff" stroke-width="1.5" marker-end="url(#arrowhead)"/>
<line x1="323.5" y1="173" x2="378" y2="207" stroke="#ffffff" stroke-width="1.5" marker-end="url(#arrowhead)"/>
<line x1="200.5" y1="224" x2="218.5" y2="224" stroke="#ffffff" stroke-width="1.5" marker-end="url(#arrowhead)"/>
<line x1="328.5" y1="224" x2="346.5" y2="224" stroke="#ffffff" stroke-width="1.5" marker-end="url(#arrowhead)"/>
<line x1="145.5" y1="241" x2="140.5" y2="275" stroke="#ffffff" stroke-width="1.5" marker-end="url(#arrowhead)"/>
<line x1="273.5" y1="241" x2="254.5" y2="275" stroke="#ffffff" stroke-width="1.5" marker-end="url(#arrowhead)"/>
<line x1="378" y1="241" x2="364" y2="275" stroke="#ffffff" stroke-width="1.5" marker-end="url(#arrowhead)"/>
<line x1="186" y1="292" x2="204" y2="292" stroke="#ffffff" stroke-width="1.5" marker-end="url(#arrowhead)"/>
<line x1="305" y1="292" x2="323" y2="292" stroke="#ffffff" stroke-width="1.5" marker-end="url(#arrowhead)"/>
<polyline points="95,292 28,292 28,93 148.5,93 148.5,78" fill="none" stroke="#ffffff" stroke-width="1.5" marker-end="url(#arrowhead)"/>

<rect x="161.25" y="116" width="177.5" height="24" fill="#000000" rx="3"/><text x="250" y="129" font-family="'Inter', 'Helvetica Neue', Arial, sans-serif" font-size="14" fill="#ffffff" opacity="0.9" text-anchor="middle">Business logic domain</text>
<rect x="103" y="44" width="91" height="34" rx="17" fill="#000000" stroke="#ffffff" stroke-width="1.5"/><text x="148.5" y="61" font-family="'JetBrains Mono', 'Fira Code', 'SF Mono', 'Cascadia Code', monospace" font-size="13" fill="#ffffff" text-anchor="middle" dominant-baseline="central" letter-spacing="0.12em">Utils</text>
<rect x="84" y="139" width="129" height="34" rx="17" fill="#000000" stroke="#ffffff" stroke-width="1.5"/><text x="148.5" y="156" font-family="'JetBrains Mono', 'Fira Code', 'SF Mono', 'Cascadia Code', monospace" font-size="13" fill="#ffffff" text-anchor="middle" dominant-baseline="central" letter-spacing="0.12em">Providers</text>
<rect x="231" y="139" width="185" height="34" rx="17" fill="#000000" stroke="#ffffff" stroke-width="1.5"/><text x="323.5" y="156" font-family="'JetBrains Mono', 'Fira Code', 'SF Mono', 'Cascadia Code', monospace" font-size="13" fill="#ffffff" text-anchor="middle" dominant-baseline="central" letter-spacing="0.12em">App Wiring + UI</text>
<rect x="90.5" y="207" width="110" height="34" rx="17" fill="#000000" stroke="#ffffff" stroke-width="1.5"/><text x="145.5" y="224" font-family="'JetBrains Mono', 'Fira Code', 'SF Mono', 'Cascadia Code', monospace" font-size="13" fill="#ffffff" text-anchor="middle" dominant-baseline="central" letter-spacing="0.12em">Service</text>
<rect x="218.5" y="207" width="110" height="34" rx="17" fill="#000000" stroke="#ffffff" stroke-width="1.5"/><text x="273.5" y="224" font-family="'JetBrains Mono', 'Fira Code', 'SF Mono', 'Cascadia Code', monospace" font-size="13" fill="#ffffff" text-anchor="middle" dominant-baseline="central" letter-spacing="0.12em">Runtime</text>
<rect x="346.5" y="207" width="63" height="34" rx="17" fill="#000000" stroke="#ffffff" stroke-width="1.5"/><text x="378" y="224" font-family="'JetBrains Mono', 'Fira Code', 'SF Mono', 'Cascadia Code', monospace" font-size="13" fill="#ffffff" text-anchor="middle" dominant-baseline="central" letter-spacing="0.12em">UI</text>
<rect x="95" y="275" width="91" height="34" rx="17" fill="#000000" stroke="#ffffff" stroke-width="1.5"/><text x="140.5" y="292" font-family="'JetBrains Mono', 'Fira Code', 'SF Mono', 'Cascadia Code', monospace" font-size="13" fill="#ffffff" text-anchor="middle" dominant-baseline="central" letter-spacing="0.12em">Types</text>
<rect x="204" y="275" width="101" height="34" rx="17" fill="#000000" stroke="#ffffff" stroke-width="1.5"/><text x="254.5" y="292" font-family="'JetBrains Mono', 'Fira Code', 'SF Mono', 'Cascadia Code', monospace" font-size="13" fill="#ffffff" text-anchor="middle" dominant-baseline="central" letter-spacing="0.12em">Config</text>
<rect x="323" y="275" width="82" height="34" rx="17" fill="#000000" stroke="#ffffff" stroke-width="1.5"/><text x="364" y="292" font-family="'JetBrains Mono', 'Fira Code', 'SF Mono', 'Cascadia Code', monospace" font-size="13" fill="#ffffff" text-anchor="middle" dominant-baseline="central" letter-spacing="0.12em">Repo</text>

</g>
</svg>