<svg xmlns="http://www.w3.org/2000/svg" viewBox="0 0 416 350" width="416" height="350">
<defs>
  <pattern id="dotgrid" width="8" height="8" patternUnits="userSpaceOnUse">
    <rect width="8" height="8" fill="#000000"/>
    <circle cx="4" cy="4" r="0.8" fill="#ffffff" opacity="0.7"/>
  </pattern>
  <pattern id="crosshatch" width="8" height="8" patternUnits="userSpaceOnUse">
    <rect width="8" height="8" fill="#000000"/>
    <path d="M0 8L8 0M-1 1L1 -1M7 9L9 7" stroke="#ffffff" stroke-width="0.8" opacity="0.2"/>
  </pattern>
  <pattern id="hero" width="6" height="6" patternUnits="userSpaceOnUse">
    <rect width="6" height="6" fill="#222222"/>
    <circle cx="3" cy="3" r="0.6" fill="#444444" opacity="0.5"/>
  </pattern>
  <marker id="arrowhead" markerWidth="10" markerHeight="7" refX="9" refY="3.5" orient="auto" markerUnits="strokeWidth">
    <polygon points="0 0, 10 3.5, 0 7" fill="#ffffff"/>
  </marker>
  <marker id="arrowhead-reverse" markerWidth="10" markerHeight="7" refX="1" refY="3.5" orient="auto" markerUnits="strokeWidth">
    <polygon points="10 0, 0 3.5, 10 7" fill="#ffffff"/>
  </marker>
</defs>
<rect width="100%" height="100%" fill="#000000"/>
<g class="diagram">
<text x="30" y="34" font-family="'Inter', 'Helvetica Neue', Arial, sans-serif" font-size="18" fill="#ffffff" font-weight="700">Layered domain architecture with</text><text x="30" y="58" font-family="'Inter', 'Helvetica Neue', Arial, sans-serif" font-size="18" fill="#ffffff" font-weight="700">explicit cross-cutting boundaries</text>
<rect x="19" y="130" width="362" height="218" rx="12" fill="url(#dotgrid)" stroke="#ffffff" stroke-width="1.5" opacity="0.5"/><rect x="19" y="130" width="362" height="218" rx="12" fill="none" stroke="#ffffff" stroke-width="1.5" opacity="0.4"/><text x="37" y="156" font-family="'Inter', 'Helvetica Neue', Arial, sans-serif" font-size="14" fill="#ffffff" opacity="0.9">Business logic domain</text>
<line x1="99.5" y1="116" x2="99.5" y2="154" stroke="#ffffff" stroke-width="1.5" marker-end="url(#arrowhead)"/>
<polyline points="99.5,116 99.5,135 272.5,135 272.5,154" fill="none" stroke="#ffffff" stroke-width="1.5" marker-end="url(#arrowhead)"/>
<line x1="164" y1="171" x2="180" y2="171" stroke="#ffffff" stroke-width="1.5" marker-end="url(#arrowhead)"/>
<line x1="99.5" y1="188" x2="93" y2="226" stroke="#ffffff" stroke-width="1.5" marker-end="url(#arrowhead)"/>
<polyline points="99.5,188 99.5,207 219,207 219,226" fill="none" stroke="#ffffff" stroke-width="1.5" marker-end="url(#arrowhead)"/>
<polyline points="272.5,188 272.5,207 326,207 326,226" fill="none" stroke="#ffffff" stroke-width="1.5" marker-end="url(#arrowhead)"/>
<line x1="148" y1="243" x2="164" y2="243" stroke="#ffffff" stroke-width="1.5" marker-end="url(#arrowhead)"/>
<line x1="274" y1="243" x2="290" y2="243" stroke="#ffffff" stroke-width="1.5" marker-end="url(#arrowhead)"/>
<line x1="93" y1="260" x2="92.5" y2="298" stroke="#ffffff" stroke-width="1.5" marker-end="url(#arrowhead)"/>
<polyline points="219,260 219,279 204.5,279 204.5,298" fill="none" stroke="#ffffff" stroke-width="1.5" marker-end="url(#arrowhead)"/>
<polyline points="326,260 326,279 312,279 312,298" fill="none" stroke="#ffffff" stroke-width="1.5" marker-end="url(#arrowhead)"/>
<line x1="138" y1="315" x2="154" y2="315" stroke="#ffffff" stroke-width="1.5" marker-end="url(#arrowhead)"/>
<line x1="255" y1="315" x2="271" y2="315" stroke="#ffffff" stroke-width="1.5" marker-end="url(#arrowhead)"/>
<polyline points="47,315 5,315 5,131 99.5,131 99.5,116" fill="none" stroke="#ffffff" stroke-width="1.5" marker-end="url(#arrowhead)"/>

<rect x="54" y="82" width="91" height="34" rx="17" fill="transparent" stroke="#ffffff" stroke-width="1.5"/><text x="99.5" y="99" font-family="'JetBrains Mono', 'Fira Code', 'SF Mono', 'Cascadia Code', monospace" font-size="13" fill="#ffffff" text-anchor="middle" dominant-baseline="central" letter-spacing="0.12em">Utils</text>
<rect x="35" y="154" width="129" height="34" rx="17" fill="transparent" stroke="#ffffff" stroke-width="1.5"/><text x="99.5" y="171" font-family="'JetBrains Mono', 'Fira Code', 'SF Mono', 'Cascadia Code', monospace" font-size="13" fill="#ffffff" text-anchor="middle" dominant-baseline="central" letter-spacing="0.12em">Providers</text>
<rect x="180" y="154" width="185" height="34" rx="17" fill="transparent" stroke="#ffffff" stroke-width="1.5"/><text x="272.5" y="171" font-family="'JetBrains Mono', 'Fira Code', 'SF Mono', 'Cascadia Code', monospace" font-size="13" fill="#ffffff" text-anchor="middle" dominant-baseline="central" letter-spacing="0.12em">App Wiring + UI</text>
<rect x="38" y="226" width="110" height="34" rx="17" fill="transparent" stroke="#ffffff" stroke-width="1.5"/><text x="93" y="243" font-family="'JetBrains Mono', 'Fira Code', 'SF Mono', 'Cascadia Code', monospace" font-size="13" fill="#ffffff" text-anchor="middle" dominant-baseline="central" letter-spacing="0.12em">Service</text>
<rect x="164" y="226" width="110" height="34" rx="17" fill="transparent" stroke="#ffffff" stroke-width="1.5"/><text x="219" y="243" font-family="'JetBrains Mono', 'Fira Code', 'SF Mono', 'Cascadia Code', monospace" font-size="13" fill="#ffffff" text-anchor="middle" dominant-baseline="central" letter-spacing="0.12em">Runtime</text>
<rect x="290" y="226" width="72" height="34" rx="17" fill="transparent" stroke="#ffffff" stroke-width="1.5"/><text x="326" y="243" font-family="'JetBrains Mono', 'Fira Code', 'SF Mono', 'Cascadia Code', monospace" font-size="13" fill="#ffffff" text-anchor="middle" dominant-baseline="central" letter-spacing="0.12em">UI</text>
<rect x="47" y="298" width="91" height="34" rx="17" fill="transparent" stroke="#ffffff" stroke-width="1.5"/><text x="92.5" y="315" font-family="'JetBrains Mono', 'Fira Code', 'SF Mono', 'Cascadia Code', monospace" font-size="13" fill="#ffffff" text-anchor="middle" dominant-baseline="central" letter-spacing="0.12em">Types</text>
<rect x="154" y="298" width="101" height="34" rx="17" fill="transparent" stroke="#ffffff" stroke-width="1.5"/><text x="204.5" y="315" font-family="'JetBrains Mono', 'Fira Code', 'SF Mono', 'Cascadia Code', monospace" font-size="13" fill="#ffffff" text-anchor="middle" dominant-baseline="central" letter-spacing="0.12em">Config</text>
<rect x="271" y="298" width="82" height="34" rx="17" fill="transparent" stroke="#ffffff" stroke-width="1.5"/><text x="312" y="315" font-family="'JetBrains Mono', 'Fira Code', 'SF Mono', 'Cascadia Code', monospace" font-size="13" fill="#ffffff" text-anchor="middle" dominant-baseline="central" letter-spacing="0.12em">Repo</text>

</g>
</svg>