<svg xmlns="http://www.w3.org/2000/svg" viewBox="0 0 404 457" width="404" height="457">
<defs>
  <pattern id="dotgrid" width="8" height="8" patternUnits="userSpaceOnUse">
    <rect width="8" height="8" fill="#000000"/>
    <circle cx="4" cy="4" r="0.8" fill="#ffffff" opacity="0.7"/>
  </pattern>
  <pattern id="crosshatch" width="8" height="8" patternUnits="userSpaceOnUse">
    <rect width="8" height="8" fill="#000000"/>
    <path d="M0 8L8 0M-1 1L1 -1M7 9L9 7" stroke="#ffffff" stroke-width="0.8" opacity="0.2"/>
  </pattern>
  <pattern id="hero" width="6" height="6" patternUnits="userSpaceOnUse">
    <rect width="6" height="6" fill="#222222"/>
    <circle cx="3" cy="3" r="0.6" fill="#444444" opacity="0.5"/>
  </pattern>
  <marker id="arrowhead" markerWidth="10" markerHeight="7" refX="9" refY="3.5" orient="auto" markerUnits="strokeWidth">
    <polygon points="0 0, 10 3.5, 0 7" fill="#ffffff"/>
  </marker>
  <marker id="arrowhead-reverse" markerWidth="10" markerHeight="7" refX="1" refY="3.5" orient="auto" markerUnits="strokeWidth">
    <polygon points="10 0, 0 3.5, 10 7" fill="#ffffff"/>
  </marker>
</defs>
<rect width="100%" height="100%" fill="#000000"/>
<g class="diagram">
<text x="30" y="34" font-family="'Inter', 'Helvetica Neue', Arial, sans-serif" font-size="15" fill="#ffffff" font-weight="700">Layered domain architecture with</text><text x="30" y="55" font-family="'Inter', 'Helvetica Neue', Arial, sans-serif" font-size="15" fill="#ffffff" font-weight="700">explicit cross-cutting boundaries</text>
<rect x="12" y="146.15686274509804" width="364" height="308.31372549019613" rx="12" fill="url(#dotgrid)" stroke="#ffffff" stroke-width="1" opacity="0.35"/><rect x="12" y="146.15686274509804" width="364" height="308.31372549019613" rx="12" fill="none" stroke="#ffffff" stroke-width="1" opacity="0.5"/>
<line x1="92.5" y1="105" x2="92.5" y2="182.15686274509804" stroke="#ffffff" stroke-width="1.5" marker-end="url(#arrowhead)"/>
<polyline points="92.5,105 92.5,143.578431372549 267.5,143.578431372549 267.5,182.15686274509804" fill="none" stroke="#ffffff" stroke-width="1.5" marker-end="url(#arrowhead)"/>
<line x1="157" y1="199.15686274509804" x2="175" y2="199.15686274509804" stroke="#ffffff" stroke-width="1.5" marker-end="url(#arrowhead)"/>
<line x1="92.5" y1="216.15686274509804" x2="89.5" y2="293.3137254901961" stroke="#ffffff" stroke-width="1.5" marker-end="url(#arrowhead)"/>
<polyline points="92.5,216.15686274509804 92.5,254.73529411764707 217.5,254.73529411764707 217.5,293.3137254901961" fill="none" stroke="#ffffff" stroke-width="1.5" marker-end="url(#arrowhead)"/>
<line x1="267.5" y1="216.15686274509804" x2="322" y2="293.3137254901961" stroke="#ffffff" stroke-width="1.5" marker-end="url(#arrowhead)"/>
<line x1="144.5" y1="310.3137254901961" x2="162.5" y2="310.3137254901961" stroke="#ffffff" stroke-width="1.5" marker-end="url(#arrowhead)"/>
<line x1="272.5" y1="310.3137254901961" x2="290.5" y2="310.3137254901961" stroke="#ffffff" stroke-width="1.5" marker-end="url(#arrowhead)"/>
<line x1="89.5" y1="327.3137254901961" x2="84.5" y2="404.47058823529414" stroke="#ffffff" stroke-width="1.5" marker-end="url(#arrowhead)"/>
<line x1="217.5" y1="327.3137254901961" x2="198.5" y2="404.47058823529414" stroke="#ffffff" stroke-width="1.5" marker-end="url(#arrowhead)"/>
<line x1="322" y1="327.3137254901961" x2="308" y2="404.47058823529414" stroke="#ffffff" stroke-width="1.5" marker-end="url(#arrowhead)"/>
<line x1="130" y1="421.47058823529414" x2="148" y2="421.47058823529414" stroke="#ffffff" stroke-width="1.5" marker-end="url(#arrowhead)"/>
<line x1="249" y1="421.47058823529414" x2="267" y2="421.47058823529414" stroke="#ffffff" stroke-width="1.5" marker-end="url(#arrowhead)"/>
<polyline points="39,421.47058823529414 -2,421.47058823529414 -2,120 92.5,120 92.5,105" fill="none" stroke="#ffffff" stroke-width="1.5" marker-end="url(#arrowhead)"/>

<rect x="105.25" y="159.15686274509804" width="177.5" height="24" fill="#000000" rx="3"/><text x="194" y="172.15686274509804" font-family="'Inter', 'Helvetica Neue', Arial, sans-serif" font-size="14" fill="#ffffff" opacity="0.9" text-anchor="middle">Business logic domain</text>
<rect x="47" y="71" width="91" height="34" rx="17" fill="#000000" stroke="#ffffff" stroke-width="1.5"/><text x="92.5" y="88" font-family="'JetBrains Mono', 'Fira Code', 'SF Mono', 'Cascadia Code', monospace" font-size="13" fill="#ffffff" text-anchor="middle" dominant-baseline="central" letter-spacing="0.12em">Utils</text>
<rect x="28" y="182.15686274509804" width="129" height="34" rx="17" fill="#000000" stroke="#ffffff" stroke-width="1.5"/><text x="92.5" y="199.15686274509804" font-family="'JetBrains Mono', 'Fira Code', 'SF Mono', 'Cascadia Code', monospace" font-size="13" fill="#ffffff" text-anchor="middle" dominant-baseline="central" letter-spacing="0.12em">Providers</text>
<rect x="175" y="182.15686274509804" width="185" height="34" rx="17" fill="#000000" stroke="#ffffff" stroke-width="1.5"/><text x="267.5" y="199.15686274509804" font-family="'JetBrains Mono', 'Fira Code', 'SF Mono', 'Cascadia Code', monospace" font-size="13" fill="#ffffff" text-anchor="middle" dominant-baseline="central" letter-spacing="0.12em">App Wiring + UI</text>
<rect x="34.5" y="293.3137254901961" width="110" height="34" rx="17" fill="#000000" stroke="#ffffff" stroke-width="1.5"/><text x="89.5" y="310.3137254901961" font-family="'JetBrains Mono', 'Fira Code', 'SF Mono', 'Cascadia Code', monospace" font-size="13" fill="#ffffff" text-anchor="middle" dominant-baseline="central" letter-spacing="0.12em">Service</text>
<rect x="162.5" y="293.3137254901961" width="110" height="34" rx="17" fill="#000000" stroke="#ffffff" stroke-width="1.5"/><text x="217.5" y="310.3137254901961" font-family="'JetBrains Mono', 'Fira Code', 'SF Mono', 'Cascadia Code', monospace" font-size="13" fill="#ffffff" text-anchor="middle" dominant-baseline="central" letter-spacing="0.12em">Runtime</text>
<rect x="290.5" y="293.3137254901961" width="63" height="34" rx="17" fill="#000000" stroke="#ffffff" stroke-width="1.5"/><text x="322" y="310.3137254901961" font-family="'JetBrains Mono', 'Fira Code', 'SF Mono', 'Cascadia Code', monospace" font-size="13" fill="#ffffff" text-anchor="middle" dominant-baseline="central" letter-spacing="0.12em">UI</text>
<rect x="39" y="404.47058823529414" width="91" height="34" rx="17" fill="#000000" stroke="#ffffff" stroke-width="1.5"/><text x="84.5" y="421.47058823529414" font-family="'JetBrains Mono', 'Fira Code', 'SF Mono', 'Cascadia Code', monospace" font-size="13" fill="#ffffff" text-anchor="middle" dominant-baseline="central" letter-spacing="0.12em">Types</text>
<rect x="148" y="404.47058823529414" width="101" height="34" rx="17" fill="#000000" stroke="#ffffff" stroke-width="1.5"/><text x="198.5" y="421.47058823529414" font-family="'JetBrains Mono', 'Fira Code', 'SF Mono', 'Cascadia Code', monospace" font-size="13" fill="#ffffff" text-anchor="middle" dominant-baseline="central" letter-spacing="0.12em">Config</text>
<rect x="267" y="404.47058823529414" width="82" height="34" rx="17" fill="#000000" stroke="#ffffff" stroke-width="1.5"/><text x="308" y="421.47058823529414" font-family="'JetBrains Mono', 'Fira Code', 'SF Mono', 'Cascadia Code', monospace" font-size="13" fill="#ffffff" text-anchor="middle" dominant-baseline="central" letter-spacing="0.12em">Repo</text>

</g>
</svg>