<svg xmlns="http://www.w3.org/2000/svg" viewBox="0 0 470 327" width="470" height="327">
<defs>
  <pattern id="dotgrid" width="8" height="8" patternUnits="userSpaceOnUse">
    <rect width="8" height="8" fill="#000000"/>
    <circle cx="4" cy="4" r="0.8" fill="#ffffff" opacity="0.7"/>
  </pattern>
  <pattern id="crosshatch" width="8" height="8" patternUnits="userSpaceOnUse">
    <rect width="8" height="8" fill="#000000"/>
    <path d="M0 8L8 0M-1 1L1 -1M7 9L9 7" stroke="#ffffff" stroke-width="0.8" opacity="0.2"/>
  </pattern>
  <pattern id="hero" width="6" height="6" patternUnits="userSpaceOnUse">
    <rect width="6" height="6" fill="#222222"/>
    <circle cx="3" cy="3" r="0.6" fill="#444444" opacity="0.5"/>
  </pattern>
  <marker id="arrowhead" markerWidth="10" markerHeight="7" refX="9" refY="3.5" orient="auto" markerUnits="strokeWidth">
    <polygon points="0 0, 10 3.5, 0 7" fill="#ffffff"/>
  </marker>
  <marker id="arrowhead-reverse" markerWidth="10" markerHeight="7" refX="1" refY="3.5" orient="auto" markerUnits="strokeWidth">
    <polygon points="10 0, 0 3.5, 10 7" fill="#ffffff"/>
  </marker>
</defs>
<rect width="100%" height="100%" fill="#000000"/>
<g class="diagram">
<text x="30" y="34" font-family="'Inter', 'Helvetica Neue', Arial, sans-serif" font-size="15" fill="#ffffff" font-weight="700">Layered domain architecture with</text><text x="30" y="55" font-family="'Inter', 'Helvetica Neue', Arial, sans-serif" font-size="15" fill="#ffffff" font-weight="700">explicit cross-cutting boundaries</text>
<rect x="78" y="103" width="364" height="222" rx="12" fill="url(#dotgrid)" stroke="#ffffff" stroke-width="1" opacity="0.35"/><rect x="78" y="103" width="364" height="222" rx="12" fill="none" stroke="#ffffff" stroke-width="1" opacity="0.5"/>
<line x1="158.5" y1="105" x2="158.5" y2="139" stroke="#ffffff" stroke-width="1.5" marker-end="url(#arrowhead)"/>
<polyline points="158.5,105 158.5,141 333.5,141 333.5,139" fill="none" stroke="#ffffff" stroke-width="1.5" marker-end="url(#arrowhead)"/>
<line x1="223" y1="156" x2="241" y2="156" stroke="#ffffff" stroke-width="1.5" marker-end="url(#arrowhead)"/>
<line x1="158.5" y1="173" x2="155.5" y2="207" stroke="#ffffff" stroke-width="1.5" marker-end="url(#arrowhead)"/>
<polyline points="158.5,173 158.5,190 283.5,190 283.5,207" fill="none" stroke="#ffffff" stroke-width="1.5" marker-end="url(#arrowhead)"/>
<line x1="333.5" y1="173" x2="388" y2="207" stroke="#ffffff" stroke-width="1.5" marker-end="url(#arrowhead)"/>
<line x1="210.5" y1="224" x2="228.5" y2="224" stroke="#ffffff" stroke-width="1.5" marker-end="url(#arrowhead)"/>
<line x1="338.5" y1="224" x2="356.5" y2="224" stroke="#ffffff" stroke-width="1.5" marker-end="url(#arrowhead)"/>
<line x1="155.5" y1="241" x2="150.5" y2="275" stroke="#ffffff" stroke-width="1.5" marker-end="url(#arrowhead)"/>
<line x1="283.5" y1="241" x2="264.5" y2="275" stroke="#ffffff" stroke-width="1.5" marker-end="url(#arrowhead)"/>
<line x1="388" y1="241" x2="374" y2="275" stroke="#ffffff" stroke-width="1.5" marker-end="url(#arrowhead)"/>
<line x1="196" y1="292" x2="214" y2="292" stroke="#ffffff" stroke-width="1.5" marker-end="url(#arrowhead)"/>
<line x1="315" y1="292" x2="333" y2="292" stroke="#ffffff" stroke-width="1.5" marker-end="url(#arrowhead)"/>
<polyline points="105,292 64,292 64,120 158.5,120 158.5,105" fill="none" stroke="#ffffff" stroke-width="1.5" marker-end="url(#arrowhead)"/>

<rect x="171.25" y="116" width="177.5" height="24" fill="#000000" rx="3"/><text x="260" y="129" font-family="'Inter', 'Helvetica Neue', Arial, sans-serif" font-size="14" fill="#ffffff" opacity="0.9" text-anchor="middle">Business logic domain</text>
<rect x="113" y="71" width="91" height="34" rx="17" fill="#000000" stroke="#ffffff" stroke-width="1.5"/><text x="158.5" y="88" font-family="'JetBrains Mono', 'Fira Code', 'SF Mono', 'Cascadia Code', monospace" font-size="13" fill="#ffffff" text-anchor="middle" dominant-baseline="central" letter-spacing="0.12em">Utils</text>
<rect x="94" y="139" width="129" height="34" rx="17" fill="#000000" stroke="#ffffff" stroke-width="1.5"/><text x="158.5" y="156" font-family="'JetBrains Mono', 'Fira Code', 'SF Mono', 'Cascadia Code', monospace" font-size="13" fill="#ffffff" text-anchor="middle" dominant-baseline="central" letter-spacing="0.12em">Providers</text>
<rect x="241" y="139" width="185" height="34" rx="17" fill="#000000" stroke="#ffffff" stroke-width="1.5"/><text x="333.5" y="156" font-family="'JetBrains Mono', 'Fira Code', 'SF Mono', 'Cascadia Code', monospace" font-size="13" fill="#ffffff" text-anchor="middle" dominant-baseline="central" letter-spacing="0.12em">App Wiring + UI</text>
<rect x="100.5" y="207" width="110" height="34" rx="17" fill="#000000" stroke="#ffffff" stroke-width="1.5"/><text x="155.5" y="224" font-family="'JetBrains Mono', 'Fira Code', 'SF Mono', 'Cascadia Code', monospace" font-size="13" fill="#ffffff" text-anchor="middle" dominant-baseline="central" letter-spacing="0.12em">Service</text>
<rect x="228.5" y="207" width="110" height="34" rx="17" fill="#000000" stroke="#ffffff" stroke-width="1.5"/><text x="283.5" y="224" font-family="'JetBrains Mono', 'Fira Code', 'SF Mono', 'Cascadia Code', monospace" font-size="13" fill="#ffffff" text-anchor="middle" dominant-baseline="central" letter-spacing="0.12em">Runtime</text>
<rect x="356.5" y="207" width="63" height="34" rx="17" fill="#000000" stroke="#ffffff" stroke-width="1.5"/><text x="388" y="224" font-family="'JetBrains Mono', 'Fira Code', 'SF Mono', 'Cascadia Code', monospace" font-size="13" fill="#ffffff" text-anchor="middle" dominant-baseline="central" letter-spacing="0.12em">UI</text>
<rect x="105" y="275" width="91" height="34" rx="17" fill="#000000" stroke="#ffffff" stroke-width="1.5"/><text x="150.5" y="292" font-family="'JetBrains Mono', 'Fira Code', 'SF Mono', 'Cascadia Code', monospace" font-size="13" fill="#ffffff" text-anchor="middle" dominant-baseline="central" letter-spacing="0.12em">Types</text>
<rect x="214" y="275" width="101" height="34" rx="17" fill="#000000" stroke="#ffffff" stroke-width="1.5"/><text x="264.5" y="292" font-family="'JetBrains Mono', 'Fira Code', 'SF Mono', 'Cascadia Code', monospace" font-size="13" fill="#ffffff" text-anchor="middle" dominant-baseline="central" letter-spacing="0.12em">Config</text>
<rect x="333" y="275" width="82" height="34" rx="17" fill="#000000" stroke="#ffffff" stroke-width="1.5"/><text x="374" y="292" font-family="'JetBrains Mono', 'Fira Code', 'SF Mono', 'Cascadia Code', monospace" font-size="13" fill="#ffffff" text-anchor="middle" dominant-baseline="central" letter-spacing="0.12em">Repo</text>

</g>
</svg>