<svg xmlns="http://www.w3.org/2000/svg" viewBox="0 0 920.5 506" width="920.5" height="506">
<defs>
  <pattern id="dotgrid" width="8" height="8" patternUnits="userSpaceOnUse">
    <rect width="8" height="8" fill="#000000"/>
    <circle cx="4" cy="4" r="0.8" fill="#b4f079" opacity="0.7"/>
  </pattern>
  <pattern id="crosshatch" width="8" height="8" patternUnits="userSpaceOnUse">
    <rect width="8" height="8" fill="#000000"/>
    <path d="M0 8L8 0M-1 1L1 -1M7 9L9 7" stroke="#b4f079" stroke-width="0.8" opacity="0.2"/>
  </pattern>
  <pattern id="hero" width="6" height="6" patternUnits="userSpaceOnUse">
    <rect width="6" height="6" fill="#3d6b23"/>
    <circle cx="3" cy="3" r="0.6" fill="#5a9a35" opacity="0.5"/>
  </pattern>
  <marker id="arrowhead" markerWidth="10" markerHeight="7" refX="9" refY="3.5" orient="auto" markerUnits="strokeWidth">
    <polygon points="0 0, 10 3.5, 0 7" fill="#b4f079"/>
  </marker>
  <marker id="arrowhead-reverse" markerWidth="10" markerHeight="7" refX="1" refY="3.5" orient="auto" markerUnits="strokeWidth">
    <polygon points="10 0, 0 3.5, 10 7" fill="#b4f079"/>
  </marker>
</defs>
<rect width="100%" height="100%" fill="#000000"/>
<g class="diagram">
<text x="30" y="34" font-family="'Inter', 'Helvetica Neue', Arial, sans-serif" font-size="15" fill="#ffffff" font-weight="700">Giving Codex a full observability stack</text>
<rect x="237" y="101" width="437" height="214" rx="12" fill="transparent" stroke="#b4f079" stroke-width="1" opacity="0.35"/><rect x="237" y="101" width="437" height="214" rx="12" fill="none" stroke="#b4f079" stroke-width="1" opacity="0.5"/>
<line x1="108" y1="228" x2="114" y2="228" stroke="#b4f079" stroke-width="1.5" marker-end="url(#arrowhead)"/>
<polyline points="211,214.7392405063291 211,199 297.8240740740741,199 297.8240740740741,191" fill="none" stroke="#b4f079" stroke-width="1.5" marker-end="url(#arrowhead)"/>
<line x1="211" y1="228" x2="253" y2="228" stroke="#b4f079" stroke-width="1.5" marker-end="url(#arrowhead)"/>
<polyline points="211,241.2607594936709 211,257 297.8240740740741,257 297.8240740740741,265" fill="none" stroke="#b4f079" stroke-width="1.5" marker-end="url(#arrowhead)"/>
<line x1="649" y1="167.8284023668639" x2="700" y2="163.60355029585799" stroke="#b4f079" stroke-width="1.5" marker-end="url(#arrowhead)"/>
<polyline points="616.75,211 616.75,203 700,203 700,177.50295857988166" fill="none" stroke="#b4f079" stroke-width="1.5" marker-end="url(#arrowhead)"/>
<polyline points="598.0491803278688,265 598.0491803278688,257 715.7950819672132,257 715.7950819672132,180" fill="none" stroke="#b4f079" stroke-width="1.5" marker-end="url(#arrowhead)"/>
<line x1="729.5" y1="180" x2="729.5" y2="276" stroke="#b4f079" stroke-width="1.5" marker-end="url(#arrowhead)"/>
<line x1="757.5" y1="276" x2="757.5" y2="180" stroke="#b4f079" stroke-width="1.5" marker-end="url(#arrowhead)"/>
<line x1="453" y1="174" x2="500" y2="174" stroke="#b4f079" stroke-width="1.5" marker-end="url(#arrowhead)"/>
<line x1="467" y1="228" x2="495.5" y2="228" stroke="#b4f079" stroke-width="1.5" marker-end="url(#arrowhead)"/>
<line x1="462.5" y1="282" x2="491" y2="282" stroke="#b4f079" stroke-width="1.5" marker-end="url(#arrowhead)"/>

<rect x="340.5" y="114" width="230" height="24" fill="#000000" rx="3"/><text x="455.5" y="127" font-family="'Inter', 'Helvetica Neue', Arial, sans-serif" font-size="14" fill="#ffffff" opacity="0.9" text-anchor="middle">Observability stack services</text>
<rect x="36" y="208" width="72" height="40" rx="12" fill="url(#dotgrid)" stroke="#b4f079" stroke-width="1.5"/><rect x="52" y="216.9" width="40" height="22.2" fill="#000000" rx="2"/><text x="72" y="228" font-family="'JetBrains Mono', 'Fira Code', 'SF Mono', 'Cascadia Code', monospace" font-size="13" fill="#b4f079" text-anchor="middle" dominant-baseline="central" letter-spacing="0.12em">APP</text>
<rect x="114" y="208" width="97" height="40" rx="12" fill="url(#dotgrid)" stroke="#b4f079" stroke-width="1.5"/><rect x="130.5" y="216.9" width="64" height="22.2" fill="#000000" rx="2"/><text x="162.5" y="228" font-family="'JetBrains Mono', 'Fira Code', 'SF Mono', 'Cascadia Code', monospace" font-size="13" fill="#b4f079" text-anchor="middle" dominant-baseline="central" letter-spacing="0.12em">VECTOR</text>
<rect x="700" y="140" width="87" height="40" rx="12" fill="url(#dotgrid)" stroke="#b4f079" stroke-width="1.5"/><rect x="715.5" y="148.9" width="56" height="22.2" fill="#000000" rx="2"/><text x="743.5" y="160" font-family="'JetBrains Mono', 'Fira Code', 'SF Mono', 'Cascadia Code', monospace" font-size="13" fill="#b4f079" text-anchor="middle" dominant-baseline="central" letter-spacing="0.12em">CODEX</text>
<rect x="700" y="276" width="115" height="40" rx="12" fill="url(#dotgrid)" stroke="#b4f079" stroke-width="1.5"/><rect x="717.5" y="284.9" width="80" height="22.2" fill="#000000" rx="2"/><text x="757.5" y="296" font-family="'JetBrains Mono', 'Fira Code', 'SF Mono', 'Cascadia Code', monospace" font-size="13" fill="#b4f079" text-anchor="middle" dominant-baseline="central" letter-spacing="0.12em">CODEBASE</text>
<rect x="267" y="157" width="186" height="34" rx="17" fill="#000000" stroke="#b4f079" stroke-width="1.5"/><text x="360" y="174" font-family="'JetBrains Mono', 'Fira Code', 'SF Mono', 'Cascadia Code', monospace" font-size="13" fill="#b4f079" text-anchor="middle" dominant-baseline="central" letter-spacing="0.12em">VICTORIA LOGS</text>
<rect x="500" y="157" width="149" height="34" rx="17" fill="#000000" stroke="#b4f079" stroke-width="1.5"/><text x="574.5" y="174" font-family="'JetBrains Mono', 'Fira Code', 'SF Mono', 'Cascadia Code', monospace" font-size="13" fill="#b4f079" text-anchor="middle" dominant-baseline="central" letter-spacing="0.12em">LOGQL API</text>
<rect x="253" y="211" width="214" height="34" rx="17" fill="#000000" stroke="#b4f079" stroke-width="1.5"/><text x="360" y="228" font-family="'JetBrains Mono', 'Fira Code', 'SF Mono', 'Cascadia Code', monospace" font-size="13" fill="#b4f079" text-anchor="middle" dominant-baseline="central" letter-spacing="0.12em">VICTORIA METRICS</text>
<rect x="495.5" y="211" width="158" height="34" rx="17" fill="#000000" stroke="#b4f079" stroke-width="1.5"/><text x="574.5" y="228" font-family="'JetBrains Mono', 'Fira Code', 'SF Mono', 'Cascadia Code', monospace" font-size="13" fill="#b4f079" text-anchor="middle" dominant-baseline="central" letter-spacing="0.12em">PROMQL API</text>
<rect x="257.5" y="265" width="205" height="34" rx="17" fill="#000000" stroke="#b4f079" stroke-width="1.5"/><text x="360" y="282" font-family="'JetBrains Mono', 'Fira Code', 'SF Mono', 'Cascadia Code', monospace" font-size="13" fill="#b4f079" text-anchor="middle" dominant-baseline="central" letter-spacing="0.12em">VICTORIA TRACES</text>
<rect x="491" y="265" width="167" height="34" rx="17" fill="#000000" stroke="#b4f079" stroke-width="1.5"/><text x="574.5" y="282" font-family="'JetBrains Mono', 'Fira Code', 'SF Mono', 'Cascadia Code', monospace" font-size="13" fill="#b4f079" text-anchor="middle" dominant-baseline="central" letter-spacing="0.12em">TRACEQL API</text>

<text x="36" y="286" font-family="'Inter', 'Helvetica Neue', Arial, sans-serif" font-size="14" fill="#ffffff" font-weight="700">LOGS (HTTP)</text><text x="36" y="304" font-family="'JetBrains Mono', 'Fira Code', 'SF Mono', 'Cascadia Code', monospace" font-size="11" fill="#b4f079" opacity="0.7">OTLP METRICS</text><text x="36" y="322" font-family="'JetBrains Mono', 'Fira Code', 'SF Mono', 'Cascadia Code', monospace" font-size="11" fill="#b4f079" opacity="0.7">OTLP TRACES</text>
<text x="155.2" y="286" font-family="'Inter', 'Helvetica Neue', Arial, sans-serif" font-size="14" fill="#ffffff" font-weight="700">Fan out</text><text x="155.2" y="304" font-family="'JetBrains Mono', 'Fira Code', 'SF Mono', 'Cascadia Code', monospace" font-size="11" fill="#b4f079" opacity="0.7">(local)</text>
<text x="700" y="74" font-family="'Inter', 'Helvetica Neue', Arial, sans-serif" font-size="14" fill="#ffffff" font-weight="700">Query</text><text x="700" y="92" font-family="'JetBrains Mono', 'Fira Code', 'SF Mono', 'Cascadia Code', monospace" font-size="11" fill="#b4f079" opacity="0.7">Correlate</text><text x="700" y="110" font-family="'JetBrains Mono', 'Fira Code', 'SF Mono', 'Cascadia Code', monospace" font-size="11" fill="#b4f079" opacity="0.7">Reason</text>
<text x="700" y="218" font-family="'Inter', 'Helvetica Neue', Arial, sans-serif" font-size="14" fill="#ffffff" font-weight="700">Implement change (PR)</text><text x="700" y="236" font-family="'JetBrains Mono', 'Fira Code', 'SF Mono', 'Cascadia Code', monospace" font-size="11" fill="#b4f079" opacity="0.7">+ Restart app</text>
<text x="799" y="426" font-family="'Inter', 'Helvetica Neue', Arial, sans-serif" font-size="14" fill="#ffffff" font-weight="700">UI</text><text x="799" y="444" font-family="'JetBrains Mono', 'Fira Code', 'SF Mono', 'Cascadia Code', monospace" font-size="11" fill="#b4f079" opacity="0.7">Journey</text>
<text x="757.5" y="258.9" font-family="'Inter', 'Helvetica Neue', Arial, sans-serif" font-size="12" fill="#b4f079" opacity="0.6" font-style="italic">Re-run workload</text>
<text x="757.5" y="340" font-family="'Inter', 'Helvetica Neue', Arial, sans-serif" font-size="12" fill="#b4f079" opacity="0.6" font-style="italic">Feedback loop</text>
<text x="757.5" y="384" font-family="'Inter', 'Helvetica Neue', Arial, sans-serif" font-size="12" fill="#b4f079" opacity="0.6" font-style="italic">Test</text>
</g>
</svg>