<svg xmlns="http://www.w3.org/2000/svg" viewBox="0 0 939.24 416" width="939.24" height="416">
<defs>
  <pattern id="dotgrid" width="8" height="8" patternUnits="userSpaceOnUse">
    <rect width="8" height="8" fill="#000000"/>
    <circle cx="4" cy="4" r="0.8" fill="#b4f079" opacity="0.7"/>
  </pattern>
  <pattern id="crosshatch" width="8" height="8" patternUnits="userSpaceOnUse">
    <rect width="8" height="8" fill="#000000"/>
    <path d="M0 8L8 0M-1 1L1 -1M7 9L9 7" stroke="#b4f079" stroke-width="0.8" opacity="0.2"/>
  </pattern>
  <pattern id="hero" width="6" height="6" patternUnits="userSpaceOnUse">
    <rect width="6" height="6" fill="#3d6b23"/>
    <circle cx="3" cy="3" r="0.6" fill="#5a9a35" opacity="0.5"/>
  </pattern>
  <marker id="arrowhead" markerWidth="10" markerHeight="7" refX="9" refY="3.5" orient="auto" markerUnits="strokeWidth">
    <polygon points="0 0, 10 3.5, 0 7" fill="#b4f079"/>
  </marker>
  <marker id="arrowhead-reverse" markerWidth="10" markerHeight="7" refX="1" refY="3.5" orient="auto" markerUnits="strokeWidth">
    <polygon points="10 0, 0 3.5, 10 7" fill="#b4f079"/>
  </marker>
</defs>
<rect width="100%" height="100%" fill="#000000"/>
<g class="diagram">
<text x="30" y="34" font-family="'Inter', 'Helvetica Neue', Arial, sans-serif" font-size="15" fill="#ffffff" font-weight="700">Giving Codex a full observability stack</text>
<rect x="234" y="101" width="397" height="214" rx="12" fill="transparent" stroke="#b4f079" stroke-width="1" opacity="0.35"/><rect x="234" y="101" width="397" height="214" rx="12" fill="none" stroke="#b4f079" stroke-width="1" opacity="0.5"/>
<line x1="105" y1="228" x2="111" y2="228" stroke="#b4f079" stroke-width="1.5" marker-end="url(#arrowhead)"/>
<polyline points="208,214.032 208,199 287.97222222222223,199 287.97222222222223,191" fill="none" stroke="#b4f079" stroke-width="1.5" marker-end="url(#arrowhead)"/>
<line x1="208" y1="228" x2="250" y2="228" stroke="#b4f079" stroke-width="1.5" marker-end="url(#arrowhead)"/>
<polyline points="208,241.968 208,257 287.97222222222223,257 287.97222222222223,265" fill="none" stroke="#b4f079" stroke-width="1.5" marker-end="url(#arrowhead)"/>
<line x1="606" y1="168.32075471698113" x2="657" y2="163.83018867924528" stroke="#b4f079" stroke-width="1.5" marker-end="url(#arrowhead)"/>
<polyline points="581.25,211 581.25,203 657,203 657,178.60377358490567" fill="none" stroke="#b4f079" stroke-width="1.5" marker-end="url(#arrowhead)"/>
<polyline points="563.655737704918,265 563.655737704918,257 674.4344262295082,257 674.4344262295082,180" fill="none" stroke="#b4f079" stroke-width="1.5" marker-end="url(#arrowhead)"/>
<line x1="686.5" y1="180" x2="686.5" y2="276" stroke="#b4f079" stroke-width="1.5" marker-end="url(#arrowhead)"/>
<line x1="714.5" y1="276" x2="714.5" y2="180" stroke="#b4f079" stroke-width="1.5" marker-end="url(#arrowhead)"/>
<line x1="430" y1="174" x2="477" y2="174" stroke="#b4f079" stroke-width="1.5" marker-end="url(#arrowhead)"/>
<line x1="444" y1="228" x2="472.5" y2="228" stroke="#b4f079" stroke-width="1.5" marker-end="url(#arrowhead)"/>
<line x1="439.5" y1="282" x2="468" y2="282" stroke="#b4f079" stroke-width="1.5" marker-end="url(#arrowhead)"/>

<rect x="317.5" y="114" width="230" height="24" fill="#000000" rx="3"/><text x="432.5" y="127" font-family="'Inter', 'Helvetica Neue', Arial, sans-serif" font-size="14" fill="#ffffff" opacity="0.9" text-anchor="middle">Observability stack services</text>
<rect x="36" y="208" width="69" height="40" rx="12" fill="url(#dotgrid)" stroke="#b4f079" stroke-width="1.5"/><rect x="50.5" y="216.9" width="40" height="22.2" fill="#000000" rx="2"/><text x="70.5" y="228" font-family="'JetBrains Mono', 'Fira Code', 'SF Mono', 'Cascadia Code', monospace" font-size="13" fill="#b4f079" text-anchor="middle" dominant-baseline="central" letter-spacing="0.12em">APP</text>
<rect x="111" y="208" width="97" height="40" rx="12" fill="url(#dotgrid)" stroke="#b4f079" stroke-width="1.5"/><rect x="127.5" y="216.9" width="64" height="22.2" fill="#000000" rx="2"/><text x="159.5" y="228" font-family="'JetBrains Mono', 'Fira Code', 'SF Mono', 'Cascadia Code', monospace" font-size="13" fill="#b4f079" text-anchor="middle" dominant-baseline="central" letter-spacing="0.12em">VECTOR</text>
<rect x="657" y="140" width="87" height="40" rx="12" fill="url(#dotgrid)" stroke="#b4f079" stroke-width="1.5"/><rect x="672.5" y="148.9" width="56" height="22.2" fill="#000000" rx="2"/><text x="700.5" y="160" font-family="'JetBrains Mono', 'Fira Code', 'SF Mono', 'Cascadia Code', monospace" font-size="13" fill="#b4f079" text-anchor="middle" dominant-baseline="central" letter-spacing="0.12em">CODEX</text>
<rect x="657" y="276" width="115" height="40" rx="12" fill="url(#dotgrid)" stroke="#b4f079" stroke-width="1.5"/><rect x="674.5" y="284.9" width="80" height="22.2" fill="#000000" rx="2"/><text x="714.5" y="296" font-family="'JetBrains Mono', 'Fira Code', 'SF Mono', 'Cascadia Code', monospace" font-size="13" fill="#b4f079" text-anchor="middle" dominant-baseline="central" letter-spacing="0.12em">CODEBASE</text>
<rect x="264" y="157" width="166" height="34" rx="17" fill="#000000" stroke="#b4f079" stroke-width="1.5"/><text x="347" y="174" font-family="'JetBrains Mono', 'Fira Code', 'SF Mono', 'Cascadia Code', monospace" font-size="13" fill="#b4f079" text-anchor="middle" dominant-baseline="central" letter-spacing="0.12em">VICTORIA LOGS</text>
<rect x="477" y="157" width="129" height="34" rx="17" fill="#000000" stroke="#b4f079" stroke-width="1.5"/><text x="541.5" y="174" font-family="'JetBrains Mono', 'Fira Code', 'SF Mono', 'Cascadia Code', monospace" font-size="13" fill="#b4f079" text-anchor="middle" dominant-baseline="central" letter-spacing="0.12em">LOGQL API</text>
<rect x="250" y="211" width="194" height="34" rx="17" fill="#000000" stroke="#b4f079" stroke-width="1.5"/><text x="347" y="228" font-family="'JetBrains Mono', 'Fira Code', 'SF Mono', 'Cascadia Code', monospace" font-size="13" fill="#b4f079" text-anchor="middle" dominant-baseline="central" letter-spacing="0.12em">VICTORIA METRICS</text>
<rect x="472.5" y="211" width="138" height="34" rx="17" fill="#000000" stroke="#b4f079" stroke-width="1.5"/><text x="541.5" y="228" font-family="'JetBrains Mono', 'Fira Code', 'SF Mono', 'Cascadia Code', monospace" font-size="13" fill="#b4f079" text-anchor="middle" dominant-baseline="central" letter-spacing="0.12em">PROMQL API</text>
<rect x="254.5" y="265" width="185" height="34" rx="17" fill="#000000" stroke="#b4f079" stroke-width="1.5"/><text x="347" y="282" font-family="'JetBrains Mono', 'Fira Code', 'SF Mono', 'Cascadia Code', monospace" font-size="13" fill="#b4f079" text-anchor="middle" dominant-baseline="central" letter-spacing="0.12em">VICTORIA TRACES</text>
<rect x="468" y="265" width="147" height="34" rx="17" fill="#000000" stroke="#b4f079" stroke-width="1.5"/><text x="541.5" y="282" font-family="'JetBrains Mono', 'Fira Code', 'SF Mono', 'Cascadia Code', monospace" font-size="13" fill="#b4f079" text-anchor="middle" dominant-baseline="central" letter-spacing="0.12em">TRACEQL API</text>

<text x="36" y="286" font-family="'Inter', 'Helvetica Neue', Arial, sans-serif" font-size="14" fill="#ffffff" font-weight="700">LOGS (HTTP)</text><text x="36" y="304" font-family="'JetBrains Mono', 'Fira Code', 'SF Mono', 'Cascadia Code', monospace" font-size="11" fill="#b4f079" opacity="0.7">OTLP METRICS</text><text x="36" y="322" font-family="'JetBrains Mono', 'Fira Code', 'SF Mono', 'Cascadia Code', monospace" font-size="11" fill="#b4f079" opacity="0.7">OTLP TRACES</text>
<text x="155.2" y="286" font-family="'Inter', 'Helvetica Neue', Arial, sans-serif" font-size="14" fill="#ffffff" font-weight="700">Fan out</text><text x="155.2" y="304" font-family="'JetBrains Mono', 'Fira Code', 'SF Mono', 'Cascadia Code', monospace" font-size="11" fill="#b4f079" opacity="0.7">(local)</text>
<text x="657" y="74" font-family="'Inter', 'Helvetica Neue', Arial, sans-serif" font-size="14" fill="#ffffff" font-weight="700">Query</text><text x="657" y="92" font-family="'JetBrains Mono', 'Fira Code', 'SF Mono', 'Cascadia Code', monospace" font-size="11" fill="#b4f079" opacity="0.7">Correlate</text><text x="657" y="110" font-family="'JetBrains Mono', 'Fira Code', 'SF Mono', 'Cascadia Code', monospace" font-size="11" fill="#b4f079" opacity="0.7">Reason</text>
<text x="657" y="218" font-family="'Inter', 'Helvetica Neue', Arial, sans-serif" font-size="14" fill="#ffffff" font-weight="700">Implement change (PR)</text><text x="657" y="236" font-family="'JetBrains Mono', 'Fira Code', 'SF Mono', 'Cascadia Code', monospace" font-size="11" fill="#b4f079" opacity="0.7">+ Restart app</text>
<text x="832.24" y="218" font-family="'Inter', 'Helvetica Neue', Arial, sans-serif" font-size="14" fill="#ffffff" font-weight="700">UI</text><text x="832.24" y="236" font-family="'JetBrains Mono', 'Fira Code', 'SF Mono', 'Cascadia Code', monospace" font-size="11" fill="#b4f079" opacity="0.7">Journey</text>
<text x="714.5" y="266" font-family="'Inter', 'Helvetica Neue', Arial, sans-serif" font-size="12" fill="#b4f079" opacity="0.6" font-style="italic">Re-run workload</text>
<text x="714.5" y="340" font-family="'Inter', 'Helvetica Neue', Arial, sans-serif" font-size="12" fill="#b4f079" opacity="0.6" font-style="italic">Feedback loop</text>
<text x="835.7" y="340" font-family="'Inter', 'Helvetica Neue', Arial, sans-serif" font-size="12" fill="#b4f079" opacity="0.6" font-style="italic">Test</text>
</g>
</svg>