<svg xmlns="http://www.w3.org/2000/svg" viewBox="0 0 541 243" width="541" height="243">
<defs>
  <pattern id="dotgrid" width="8" height="8" patternUnits="userSpaceOnUse">
    <rect width="8" height="8" fill="#000000"/>
    <circle cx="4" cy="4" r="0.8" fill="#b4f079" opacity="0.7"/>
  </pattern>
  <pattern id="crosshatch" width="8" height="8" patternUnits="userSpaceOnUse">
    <rect width="8" height="8" fill="#000000"/>
    <path d="M0 8L8 0M-1 1L1 -1M7 9L9 7" stroke="#b4f079" stroke-width="0.8" opacity="0.2"/>
  </pattern>
  <pattern id="hero" width="6" height="6" patternUnits="userSpaceOnUse">
    <rect width="6" height="6" fill="#3d6b23"/>
    <circle cx="3" cy="3" r="0.6" fill="#5a9a35" opacity="0.5"/>
  </pattern>
  <marker id="arrowhead" markerWidth="10" markerHeight="7" refX="9" refY="3.5" orient="auto" markerUnits="strokeWidth">
    <polygon points="0 0, 10 3.5, 0 7" fill="#b4f079"/>
  </marker>
  <marker id="arrowhead-reverse" markerWidth="10" markerHeight="7" refX="1" refY="3.5" orient="auto" markerUnits="strokeWidth">
    <polygon points="10 0, 0 3.5, 10 7" fill="#b4f079"/>
  </marker>
</defs>
<rect width="100%" height="100%" fill="#000000"/>
<g class="diagram">
<text x="30" y="34" font-family="'Inter', 'Helvetica Neue', Arial, sans-serif" font-size="18" fill="#ffffff" font-weight="700">Responses API orchestrates agent loop</text>
<line x1="70" y1="135.265625" x2="107" y2="137.2890625" stroke="#b4f079" stroke-width="1.5" marker-end="url(#arrowhead)"/>
<line x1="261" y1="96.5" x2="347.5" y2="62.75" stroke="#b4f079" stroke-width="1.5" marker-end="url(#arrowhead)"/>
<line x1="347.5" y1="94" x2="261" y2="127.75" stroke="#b4f079" stroke-width="1.5" marker-end="url(#arrowhead)"/>
<line x1="261" y1="155.25" x2="291" y2="189" stroke="#b4f079" stroke-width="1.5" marker-end="url(#arrowhead)"/>
<line x1="291" y1="220.25" x2="261" y2="186.5" stroke="#b4f079" stroke-width="1.5" marker-end="url(#arrowhead)"/>
<rect x="63" y="125.77734375" width="51" height="21" rx="4" fill="#000000"/>
<rect x="207.25" y="61.625" width="194" height="36" rx="4" fill="#000000"/>
<rect x="252.75" y="100.375" width="103" height="21" rx="4" fill="#000000"/>
<rect x="218" y="161.625" width="116" height="21" rx="4" fill="#000000"/>
<rect x="227.75" y="192.875" width="96.5" height="21" rx="4" fill="#000000"/>
<circle cx="56" cy="119.5" r="7" fill="none" stroke="#b4f079" stroke-width="1.5"/><line x1="56" y1="126.5" x2="56" y2="148.5" stroke="#b4f079" stroke-width="1.5"/><line x1="42" y1="132.5" x2="70" y2="132.5" stroke="#b4f079" stroke-width="1.5"/><line x1="56" y1="148.5" x2="46" y2="164.5" stroke="#b4f079" stroke-width="1.5"/><line x1="56" y1="148.5" x2="66" y2="164.5" stroke="#b4f079" stroke-width="1.5"/><text x="56" y="178.5" font-family="'JetBrains Mono', 'Fira Code', 'SF Mono', 'Cascadia Code', monospace" font-size="13" fill="#b4f079" text-anchor="middle" letter-spacing="0.12em">USER</text>
<rect x="107" y="92.5" width="154" height="98" rx="12" fill="none" stroke="#b4f079" stroke-width="2"/><rect x="112" y="97.5" width="144" height="88" rx="8" fill="url(#hero)" stroke="#b4f079" stroke-width="1"/><text x="184" y="141.5" font-family="'JetBrains Mono', 'Fira Code', 'SF Mono', 'Cascadia Code', monospace" font-size="13" fill="#b4f079" text-anchor="middle" dominant-baseline="central" letter-spacing="0.12em">RESPONSES API</text>
<rect x="347.5" y="58" width="79" height="40" rx="12" fill="url(#dotgrid)" stroke="#b4f079" stroke-width="1.5"/><text x="387" y="78" font-family="'JetBrains Mono', 'Fira Code', 'SF Mono', 'Cascadia Code', monospace" font-size="13" fill="#b4f079" text-anchor="middle" dominant-baseline="central" letter-spacing="0.12em">MODEL</text>
<rect x="291" y="185" width="192" height="40" rx="12" fill="url(#crosshatch)" stroke="#b4f079" stroke-width="1.5"/><text x="387" y="205" font-family="'JetBrains Mono', 'Fira Code', 'SF Mono', 'Cascadia Code', monospace" font-size="13" fill="#b4f079" text-anchor="middle" dominant-baseline="central" letter-spacing="0.12em">RUNTIME CONTAINER</text>
<text x="88.5" y="139.77734375" font-family="'JetBrains Mono', 'Fira Code', 'SF Mono', 'Cascadia Code', monospace" font-size="11" fill="#b4f079" opacity="0.85" text-anchor="middle">PROMPT</text>
<text x="304.25" y="75.625" font-family="'JetBrains Mono', 'Fira Code', 'SF Mono', 'Cascadia Code', monospace" font-size="11" fill="#b4f079" opacity="0.85" text-anchor="middle">PROMPT + SHELL INSTRUCTION +</text><text x="304.25" y="90.625" font-family="'JetBrains Mono', 'Fira Code', 'SF Mono', 'Cascadia Code', monospace" font-size="11" fill="#b4f079" opacity="0.85" text-anchor="middle">STDOUT/STDERR</text>
<text x="304.25" y="114.375" font-family="'JetBrains Mono', 'Fira Code', 'SF Mono', 'Cascadia Code', monospace" font-size="11" fill="#b4f079" opacity="0.85" text-anchor="middle">SHELL COMMANDS</text>
<text x="276" y="175.625" font-family="'JetBrains Mono', 'Fira Code', 'SF Mono', 'Cascadia Code', monospace" font-size="11" fill="#b4f079" opacity="0.85" text-anchor="middle">EXECUTE COMMANDS</text>
<text x="276" y="206.875" font-family="'JetBrains Mono', 'Fira Code', 'SF Mono', 'Cascadia Code', monospace" font-size="11" fill="#b4f079" opacity="0.85" text-anchor="middle">STDOUT/STDERR</text>
<text x="281" y="145.5" font-family="'Inter', 'Helvetica Neue', Arial, sans-serif" font-size="12" fill="#b4f079" opacity="0.6" font-style="italic">Feedback loop (until complete)</text>
</g>
</svg>