<svg xmlns="http://www.w3.org/2000/svg" viewBox="0 0 606 256" width="606" height="256">
<defs>
  <pattern id="dotgrid" width="8" height="8" patternUnits="userSpaceOnUse">
    <rect width="8" height="8" fill="#000000"/>
    <circle cx="4" cy="4" r="0.8" fill="#b4f079" opacity="0.7"/>
  </pattern>
  <pattern id="crosshatch" width="8" height="8" patternUnits="userSpaceOnUse">
    <rect width="8" height="8" fill="#000000"/>
    <path d="M0 8L8 0M-1 1L1 -1M7 9L9 7" stroke="#b4f079" stroke-width="0.8" opacity="0.2"/>
  </pattern>
  <pattern id="hero" width="6" height="6" patternUnits="userSpaceOnUse">
    <rect width="6" height="6" fill="#3d6b23"/>
    <circle cx="3" cy="3" r="0.6" fill="#5a9a35" opacity="0.5"/>
  </pattern>
  <marker id="arrowhead" markerWidth="10" markerHeight="7" refX="9" refY="3.5" orient="auto" markerUnits="strokeWidth">
    <polygon points="0 0, 10 3.5, 0 7" fill="#b4f079"/>
  </marker>
  <marker id="arrowhead-reverse" markerWidth="10" markerHeight="7" refX="1" refY="3.5" orient="auto" markerUnits="strokeWidth">
    <polygon points="10 0, 0 3.5, 10 7" fill="#b4f079"/>
  </marker>
</defs>
<rect width="100%" height="100%" fill="#000000"/>
<g class="diagram">
<text x="30" y="34" font-family="'Inter', 'Helvetica Neue', Arial, sans-serif" font-size="18" fill="#ffffff" font-weight="700">Responses API orchestrates agent loop</text>
<line x1="84" y1="144.10493827160494" x2="155" y2="147.17283950617283" stroke="#b4f079" stroke-width="1.5" marker-end="url(#arrowhead)"/>
<line x1="309" y1="105.5" x2="420" y2="71.75" stroke="#b4f079" stroke-width="1.5" marker-end="url(#arrowhead)"/>
<line x1="420" y1="103" x2="309" y2="136.75" stroke="#b4f079" stroke-width="1.5" marker-end="url(#arrowhead)"/>
<line x1="309" y1="164.25" x2="369" y2="198" stroke="#b4f079" stroke-width="1.5" marker-end="url(#arrowhead)"/>
<line x1="369" y1="229.25" x2="309" y2="195.5" stroke="#b4f079" stroke-width="1.5" marker-end="url(#arrowhead)"/>
<rect x="94" y="135.13888888888889" width="51" height="21" rx="4" fill="#000000"/>
<rect x="267.5" y="70.625" width="194" height="36" rx="4" fill="#000000"/>
<rect x="313" y="109.375" width="103" height="21" rx="4" fill="#000000"/>
<rect x="281" y="170.625" width="116" height="21" rx="4" fill="#000000"/>
<rect x="290.75" y="201.875" width="96.5" height="21" rx="4" fill="#000000"/>
<circle cx="70" cy="122.5" r="7" fill="none" stroke="#b4f079" stroke-width="1.5"/><line x1="70" y1="129.5" x2="70" y2="151.5" stroke="#b4f079" stroke-width="1.5"/><line x1="56" y1="135.5" x2="84" y2="135.5" stroke="#b4f079" stroke-width="1.5"/><line x1="70" y1="151.5" x2="60" y2="167.5" stroke="#b4f079" stroke-width="1.5"/><line x1="70" y1="151.5" x2="80" y2="167.5" stroke="#b4f079" stroke-width="1.5"/><text x="70" y="181.5" font-family="'JetBrains Mono', 'Fira Code', 'SF Mono', 'Cascadia Code', monospace" font-size="13" fill="#b4f079" text-anchor="middle" letter-spacing="0.12em">USER</text>
<rect x="155" y="101.5" width="154" height="98" rx="12" fill="none" stroke="#b4f079" stroke-width="2"/><rect x="160" y="106.5" width="144" height="88" rx="8" fill="url(#hero)" stroke="#b4f079" stroke-width="1"/><text x="232" y="150.5" font-family="'JetBrains Mono', 'Fira Code', 'SF Mono', 'Cascadia Code', monospace" font-size="13" fill="#b4f079" text-anchor="middle" dominant-baseline="central" letter-spacing="0.12em">RESPONSES API</text>
<rect x="420" y="67" width="90" height="40" rx="12" fill="url(#dotgrid)" stroke="#b4f079" stroke-width="1.5"/><text x="465" y="87" font-family="'JetBrains Mono', 'Fira Code', 'SF Mono', 'Cascadia Code', monospace" font-size="13" fill="#b4f079" text-anchor="middle" dominant-baseline="central" letter-spacing="0.12em">MODEL</text>
<rect x="369" y="194" width="192" height="40" rx="12" fill="url(#crosshatch)" stroke="#b4f079" stroke-width="1.5"/><text x="465" y="214" font-family="'JetBrains Mono', 'Fira Code', 'SF Mono', 'Cascadia Code', monospace" font-size="13" fill="#b4f079" text-anchor="middle" dominant-baseline="central" letter-spacing="0.12em">RUNTIME CONTAINER</text>
<text x="119.5" y="149.13888888888889" font-family="'JetBrains Mono', 'Fira Code', 'SF Mono', 'Cascadia Code', monospace" font-size="11" fill="#b4f079" opacity="0.85" text-anchor="middle">PROMPT</text>
<text x="364.5" y="84.625" font-family="'JetBrains Mono', 'Fira Code', 'SF Mono', 'Cascadia Code', monospace" font-size="11" fill="#b4f079" opacity="0.85" text-anchor="middle">PROMPT + SHELL INSTRUCTION +</text><text x="364.5" y="99.625" font-family="'JetBrains Mono', 'Fira Code', 'SF Mono', 'Cascadia Code', monospace" font-size="11" fill="#b4f079" opacity="0.85" text-anchor="middle">STDOUT/STDERR</text>
<text x="364.5" y="123.375" font-family="'JetBrains Mono', 'Fira Code', 'SF Mono', 'Cascadia Code', monospace" font-size="11" fill="#b4f079" opacity="0.85" text-anchor="middle">SHELL COMMANDS</text>
<text x="339" y="184.625" font-family="'JetBrains Mono', 'Fira Code', 'SF Mono', 'Cascadia Code', monospace" font-size="11" fill="#b4f079" opacity="0.85" text-anchor="middle">EXECUTE COMMANDS</text>
<text x="339" y="215.875" font-family="'JetBrains Mono', 'Fira Code', 'SF Mono', 'Cascadia Code', monospace" font-size="11" fill="#b4f079" opacity="0.85" text-anchor="middle">STDOUT/STDERR</text>
<text x="329" y="154.5" font-family="'Inter', 'Helvetica Neue', Arial, sans-serif" font-size="12" fill="#b4f079" opacity="0.6" font-style="italic">Feedback loop (until complete)</text>
</g>
</svg>