<svg xmlns="http://www.w3.org/2000/svg" viewBox="0 0 884 267" width="884" height="267">
<defs>
  <pattern id="dotgrid" width="8" height="8" patternUnits="userSpaceOnUse">
    <rect width="8" height="8" fill="#000000"/>
    <circle cx="4" cy="4" r="0.8" fill="#b4f079" opacity="0.7"/>
  </pattern>
  <pattern id="crosshatch" width="8" height="8" patternUnits="userSpaceOnUse">
    <rect width="8" height="8" fill="#000000"/>
    <path d="M0 8L8 0M-1 1L1 -1M7 9L9 7" stroke="#b4f079" stroke-width="0.8" opacity="0.2"/>
  </pattern>
  <pattern id="hero" width="6" height="6" patternUnits="userSpaceOnUse">
    <rect width="6" height="6" fill="#3d6b23"/>
    <circle cx="3" cy="3" r="0.6" fill="#5a9a35" opacity="0.5"/>
  </pattern>
  <marker id="arrowhead" markerWidth="10" markerHeight="7" refX="9" refY="3.5" orient="auto" markerUnits="strokeWidth">
    <polygon points="0 0, 10 3.5, 0 7" fill="#b4f079"/>
  </marker>
  <marker id="arrowhead-reverse" markerWidth="10" markerHeight="7" refX="1" refY="3.5" orient="auto" markerUnits="strokeWidth">
    <polygon points="10 0, 0 3.5, 10 7" fill="#b4f079"/>
  </marker>
</defs>
<rect width="100%" height="100%" fill="#000000"/>
<g class="diagram">
<text x="30" y="34" font-family="'Inter', 'Helvetica Neue', Arial, sans-serif" font-size="18" fill="#ffffff" font-weight="700">Responses API orchestrates agent loop</text>
<line x1="119" y1="154.38582677165354" x2="270" y2="158.54724409448818" stroke="#b4f079" stroke-width="1.5" marker-end="url(#arrowhead)"/>
<rect x="169" y="145.96653543307087" width="51" height="21" rx="4" fill="#000000"/><text x="194.5" y="159.96653543307087" font-family="'JetBrains Mono', 'Fira Code', 'SF Mono', 'Cascadia Code', monospace" font-size="11" fill="#b4f079" opacity="0.85" text-anchor="middle">PROMPT</text>
<line x1="448" y1="137" x2="644.5" y2="119.5" stroke="#b4f079" stroke-width="1.5" marker-end="url(#arrowhead)"/>
<rect x="449.25" y="110.25" width="194" height="36" rx="4" fill="#000000"/><text x="546.25" y="124.25" font-family="'JetBrains Mono', 'Fira Code', 'SF Mono', 'Cascadia Code', monospace" font-size="11" fill="#b4f079" opacity="0.85" text-anchor="middle">PROMPT + SHELL INSTRUCTION +</text><text x="546.25" y="139.25" font-family="'JetBrains Mono', 'Fira Code', 'SF Mono', 'Cascadia Code', monospace" font-size="11" fill="#b4f079" opacity="0.85" text-anchor="middle">STDOUT/STDERR</text>
<line x1="644.5" y1="137" x2="448" y2="154.5" stroke="#b4f079" stroke-width="1.5" marker-end="url(#arrowhead)"/>
<rect x="494.75" y="135.25" width="103" height="21" rx="4" fill="#000000"/><text x="546.25" y="149.25" font-family="'JetBrains Mono', 'Fira Code', 'SF Mono', 'Cascadia Code', monospace" font-size="11" fill="#b4f079" opacity="0.85" text-anchor="middle">SHELL COMMANDS</text>
<line x1="448" y1="167.5" x2="588" y2="185" stroke="#b4f079" stroke-width="1.5" marker-end="url(#arrowhead)"/>
<rect x="460" y="165.75" width="116" height="21" rx="4" fill="#000000"/><text x="518" y="179.75" font-family="'JetBrains Mono', 'Fira Code', 'SF Mono', 'Cascadia Code', monospace" font-size="11" fill="#b4f079" opacity="0.85" text-anchor="middle">EXECUTE COMMANDS</text>
<line x1="588" y1="202.5" x2="448" y2="185" stroke="#b4f079" stroke-width="1.5" marker-end="url(#arrowhead)"/>
<rect x="469.75" y="183.25" width="96.5" height="21" rx="4" fill="#000000"/><text x="518" y="197.25" font-family="'JetBrains Mono', 'Fira Code', 'SF Mono', 'Cascadia Code', monospace" font-size="11" fill="#b4f079" opacity="0.85" text-anchor="middle">STDOUT/STDERR</text>
<circle cx="105" cy="133" r="7" fill="none" stroke="#b4f079" stroke-width="1.5"/><line x1="105" y1="140" x2="105" y2="162" stroke="#b4f079" stroke-width="1.5"/><line x1="91" y1="146" x2="119" y2="146" stroke="#b4f079" stroke-width="1.5"/><line x1="105" y1="162" x2="95" y2="178" stroke="#b4f079" stroke-width="1.5"/><line x1="105" y1="162" x2="115" y2="178" stroke="#b4f079" stroke-width="1.5"/><text x="105" y="192" font-family="'JetBrains Mono', 'Fira Code', 'SF Mono', 'Cascadia Code', monospace" font-size="13" fill="#b4f079" text-anchor="middle" letter-spacing="0.12em">USER</text>
<rect x="270" y="133" width="178" height="56" rx="12" fill="none" stroke="#b4f079" stroke-width="2"/><rect x="275" y="138" width="168" height="46" rx="8" fill="url(#hero)" stroke="#b4f079" stroke-width="1"/><text x="359" y="161" font-family="'JetBrains Mono', 'Fira Code', 'SF Mono', 'Cascadia Code', monospace" font-size="13" fill="#b4f079" text-anchor="middle" dominant-baseline="central" letter-spacing="0.12em">RESPONSES API</text>
<rect x="644.5" y="85" width="103" height="56" rx="12" fill="url(#dotgrid)" stroke="#b4f079" stroke-width="1.5"/><text x="696" y="113" font-family="'JetBrains Mono', 'Fira Code', 'SF Mono', 'Cascadia Code', monospace" font-size="13" fill="#b4f079" text-anchor="middle" dominant-baseline="central" letter-spacing="0.12em">MODEL</text>
<rect x="588" y="181" width="216" height="56" rx="12" fill="url(#crosshatch)" stroke="#b4f079" stroke-width="1.5"/><text x="696" y="209" font-family="'JetBrains Mono', 'Fira Code', 'SF Mono', 'Cascadia Code', monospace" font-size="13" fill="#b4f079" text-anchor="middle" dominant-baseline="central" letter-spacing="0.12em">RUNTIME CONTAINER</text>
<text x="468" y="165" font-family="'Inter', 'Helvetica Neue', Arial, sans-serif" font-size="12" fill="#b4f079" opacity="0.6" font-style="italic">Feedback loop (until complete)</text>
</g>
</svg>