<svg xmlns="http://www.w3.org/2000/svg" viewBox="0 0 924 307" width="924" height="307">
<defs>
  <pattern id="dotgrid" width="8" height="8" patternUnits="userSpaceOnUse">
    <rect width="8" height="8" fill="#000000"/>
    <circle cx="4" cy="4" r="0.8" fill="#b4f079" opacity="0.7"/>
  </pattern>
  <pattern id="crosshatch" width="8" height="8" patternUnits="userSpaceOnUse">
    <rect width="8" height="8" fill="#000000"/>
    <path d="M0 8L8 0M-1 1L1 -1M7 9L9 7" stroke="#b4f079" stroke-width="0.8" opacity="0.2"/>
  </pattern>
  <pattern id="hero" width="6" height="6" patternUnits="userSpaceOnUse">
    <rect width="6" height="6" fill="#3d6b23"/>
    <circle cx="3" cy="3" r="0.6" fill="#5a9a35" opacity="0.5"/>
  </pattern>
  <marker id="arrowhead" markerWidth="10" markerHeight="7" refX="9" refY="3.5" orient="auto" markerUnits="strokeWidth">
    <polygon points="0 0, 10 3.5, 0 7" fill="#b4f079"/>
  </marker>
  <marker id="arrowhead-reverse" markerWidth="10" markerHeight="7" refX="1" refY="3.5" orient="auto" markerUnits="strokeWidth">
    <polygon points="10 0, 0 3.5, 10 7" fill="#b4f079"/>
  </marker>
</defs>
<rect width="100%" height="100%" fill="#000000"/>
<g class="diagram">
<text x="30" y="34" font-family="'Inter', 'Helvetica Neue', Arial, sans-serif" font-size="18" fill="#ffffff" font-weight="700">Responses API orchestrates agent loop</text>
<line x1="119" y1="174.35766423357666" x2="290" y2="178.72627737226279" stroke="#b4f079" stroke-width="1.5" marker-end="url(#arrowhead)"/>
<rect x="179" y="166.0419708029197" width="51" height="21" rx="4" fill="#000000"/><text x="204.5" y="180.0419708029197" font-family="'JetBrains Mono', 'Fira Code', 'SF Mono', 'Cascadia Code', monospace" font-size="11" fill="#b4f079" opacity="0.85" text-anchor="middle">PROMPT</text>
<line x1="468" y1="125" x2="684.5" y2="91" stroke="#b4f079" stroke-width="1.5" marker-end="url(#arrowhead)"/>
<rect x="479.25" y="90" width="194" height="36" rx="4" fill="#000000"/><text x="576.25" y="104" font-family="'JetBrains Mono', 'Fira Code', 'SF Mono', 'Cascadia Code', monospace" font-size="11" fill="#b4f079" opacity="0.85" text-anchor="middle">PROMPT + SHELL INSTRUCTION +</text><text x="576.25" y="119" font-family="'JetBrains Mono', 'Fira Code', 'SF Mono', 'Cascadia Code', monospace" font-size="11" fill="#b4f079" opacity="0.85" text-anchor="middle">STDOUT/STDERR</text>
<line x1="684.5" y1="137" x2="468" y2="171" stroke="#b4f079" stroke-width="1.5" marker-end="url(#arrowhead)"/>
<rect x="524.75" y="143.5" width="103" height="21" rx="4" fill="#000000"/><text x="576.25" y="157.5" font-family="'JetBrains Mono', 'Fira Code', 'SF Mono', 'Cascadia Code', monospace" font-size="11" fill="#b4f079" opacity="0.85" text-anchor="middle">SHELL COMMANDS</text>
<line x1="468" y1="191" x2="628" y2="225" stroke="#b4f079" stroke-width="1.5" marker-end="url(#arrowhead)"/>
<rect x="490" y="197.5" width="116" height="21" rx="4" fill="#000000"/><text x="548" y="211.5" font-family="'JetBrains Mono', 'Fira Code', 'SF Mono', 'Cascadia Code', monospace" font-size="11" fill="#b4f079" opacity="0.85" text-anchor="middle">EXECUTE COMMANDS</text>
<line x1="628" y1="271" x2="468" y2="237" stroke="#b4f079" stroke-width="1.5" marker-end="url(#arrowhead)"/>
<rect x="499.75" y="243.5" width="96.5" height="21" rx="4" fill="#000000"/><text x="548" y="257.5" font-family="'JetBrains Mono', 'Fira Code', 'SF Mono', 'Cascadia Code', monospace" font-size="11" fill="#b4f079" opacity="0.85" text-anchor="middle">STDOUT/STDERR</text>
<circle cx="105" cy="153" r="7" fill="none" stroke="#b4f079" stroke-width="1.5"/><line x1="105" y1="160" x2="105" y2="182" stroke="#b4f079" stroke-width="1.5"/><line x1="91" y1="166" x2="119" y2="166" stroke="#b4f079" stroke-width="1.5"/><line x1="105" y1="182" x2="95" y2="198" stroke="#b4f079" stroke-width="1.5"/><line x1="105" y1="182" x2="115" y2="198" stroke="#b4f079" stroke-width="1.5"/><text x="105" y="212" font-family="'JetBrains Mono', 'Fira Code', 'SF Mono', 'Cascadia Code', monospace" font-size="13" fill="#b4f079" text-anchor="middle" letter-spacing="0.12em">USER</text>
<rect x="290" y="121" width="178" height="120" rx="12" fill="none" stroke="#b4f079" stroke-width="2"/><rect x="295" y="126" width="168" height="110" rx="8" fill="url(#hero)" stroke="#b4f079" stroke-width="1"/><text x="379" y="181" font-family="'JetBrains Mono', 'Fira Code', 'SF Mono', 'Cascadia Code', monospace" font-size="13" fill="#b4f079" text-anchor="middle" dominant-baseline="central" letter-spacing="0.12em">RESPONSES API</text>
<rect x="684.5" y="85" width="103" height="56" rx="12" fill="url(#dotgrid)" stroke="#b4f079" stroke-width="1.5"/><text x="736" y="113" font-family="'JetBrains Mono', 'Fira Code', 'SF Mono', 'Cascadia Code', monospace" font-size="13" fill="#b4f079" text-anchor="middle" dominant-baseline="central" letter-spacing="0.12em">MODEL</text>
<rect x="628" y="221" width="216" height="56" rx="12" fill="url(#crosshatch)" stroke="#b4f079" stroke-width="1.5"/><text x="736" y="249" font-family="'JetBrains Mono', 'Fira Code', 'SF Mono', 'Cascadia Code', monospace" font-size="13" fill="#b4f079" text-anchor="middle" dominant-baseline="central" letter-spacing="0.12em">RUNTIME CONTAINER</text>
<text x="488" y="185" font-family="'Inter', 'Helvetica Neue', Arial, sans-serif" font-size="12" fill="#b4f079" opacity="0.6" font-style="italic">Feedback loop (until complete)</text>
</g>
</svg>