<svg xmlns="http://www.w3.org/2000/svg" viewBox="0 0 844 362" width="844" height="362">
<defs>
  <pattern id="dotgrid" width="8" height="8" patternUnits="userSpaceOnUse">
    <rect width="8" height="8" fill="#000000"/>
    <circle cx="4" cy="4" r="0.8" fill="#b4f079" opacity="0.7"/>
  </pattern>
  <pattern id="crosshatch" width="8" height="8" patternUnits="userSpaceOnUse">
    <rect width="8" height="8" fill="#000000"/>
    <path d="M0 8L8 0M-1 1L1 -1M7 9L9 7" stroke="#b4f079" stroke-width="0.8" opacity="0.2"/>
  </pattern>
  <pattern id="hero" width="6" height="6" patternUnits="userSpaceOnUse">
    <rect width="6" height="6" fill="#3d6b23"/>
    <circle cx="3" cy="3" r="0.6" fill="#5a9a35" opacity="0.5"/>
  </pattern>
  <marker id="arrowhead" markerWidth="10" markerHeight="7" refX="9" refY="3.5" orient="auto" markerUnits="strokeWidth">
    <polygon points="0 0, 10 3.5, 0 7" fill="#b4f079"/>
  </marker>
  <marker id="arrowhead-reverse" markerWidth="10" markerHeight="7" refX="1" refY="3.5" orient="auto" markerUnits="strokeWidth">
    <polygon points="10 0, 0 3.5, 10 7" fill="#b4f079"/>
  </marker>
</defs>
<rect width="100%" height="100%" fill="#000000"/>
<g class="diagram">
<text x="30" y="34" font-family="'Inter', 'Helvetica Neue', Arial, sans-serif" font-size="18" fill="#ffffff" font-weight="700">Responses API orchestrates agent loop</text>
<line x1="119" y1="201.9188034188034" x2="250" y2="205.83760683760684" stroke="#b4f079" stroke-width="1.5" marker-end="url(#arrowhead)"/>
<rect x="159" y="193.37820512820514" width="51" height="21" rx="4" fill="#000000"/><text x="184.5" y="207.37820512820514" font-family="'JetBrains Mono', 'Fira Code', 'SF Mono', 'Cascadia Code', monospace" font-size="11" fill="#b4f079" opacity="0.85" text-anchor="middle">PROMPT</text>
<line x1="428" y1="112.5" x2="604.5" y2="89" stroke="#b4f079" stroke-width="1.5" marker-end="url(#arrowhead)"/>
<rect x="419.25" y="82.75" width="194" height="36" rx="4" fill="#000000"/><text x="516.25" y="96.75" font-family="'JetBrains Mono', 'Fira Code', 'SF Mono', 'Cascadia Code', monospace" font-size="11" fill="#b4f079" opacity="0.85" text-anchor="middle">PROMPT + SHELL INSTRUCTION +</text><text x="516.25" y="111.75" font-family="'JetBrains Mono', 'Fira Code', 'SF Mono', 'Cascadia Code', monospace" font-size="11" fill="#b4f079" opacity="0.85" text-anchor="middle">STDOUT/STDERR</text>
<line x1="604.5" y1="137" x2="428" y2="164.75" stroke="#b4f079" stroke-width="1.5" marker-end="url(#arrowhead)"/>
<rect x="464.75" y="140.375" width="103" height="21" rx="4" fill="#000000"/><text x="516.25" y="154.375" font-family="'JetBrains Mono', 'Fira Code', 'SF Mono', 'Cascadia Code', monospace" font-size="11" fill="#b4f079" opacity="0.85" text-anchor="middle">SHELL COMMANDS</text>
<line x1="428" y1="252.25" x2="548" y2="280" stroke="#b4f079" stroke-width="1.5" marker-end="url(#arrowhead)"/>
<rect x="430" y="255.625" width="116" height="21" rx="4" fill="#000000"/><text x="488" y="269.625" font-family="'JetBrains Mono', 'Fira Code', 'SF Mono', 'Cascadia Code', monospace" font-size="11" fill="#b4f079" opacity="0.85" text-anchor="middle">EXECUTE COMMANDS</text>
<line x1="548" y1="328" x2="428" y2="304.5" stroke="#b4f079" stroke-width="1.5" marker-end="url(#arrowhead)"/>
<rect x="439.75" y="305.75" width="96.5" height="21" rx="4" fill="#000000"/><text x="488" y="319.75" font-family="'JetBrains Mono', 'Fira Code', 'SF Mono', 'Cascadia Code', monospace" font-size="11" fill="#b4f079" opacity="0.85" text-anchor="middle">STDOUT/STDERR</text>
<circle cx="105" cy="180.5" r="7" fill="none" stroke="#b4f079" stroke-width="1.5"/><line x1="105" y1="187.5" x2="105" y2="209.5" stroke="#b4f079" stroke-width="1.5"/><line x1="91" y1="193.5" x2="119" y2="193.5" stroke="#b4f079" stroke-width="1.5"/><line x1="105" y1="209.5" x2="95" y2="225.5" stroke="#b4f079" stroke-width="1.5"/><line x1="105" y1="209.5" x2="115" y2="225.5" stroke="#b4f079" stroke-width="1.5"/><text x="105" y="239.5" font-family="'JetBrains Mono', 'Fira Code', 'SF Mono', 'Cascadia Code', monospace" font-size="13" fill="#b4f079" text-anchor="middle" letter-spacing="0.12em">USER</text>
<rect x="250" y="108.5" width="178" height="200" rx="12" fill="none" stroke="#b4f079" stroke-width="2"/><rect x="255" y="113.5" width="168" height="190" rx="8" fill="url(#hero)" stroke="#b4f079" stroke-width="1"/><text x="339" y="208.5" font-family="'JetBrains Mono', 'Fira Code', 'SF Mono', 'Cascadia Code', monospace" font-size="13" fill="#b4f079" text-anchor="middle" dominant-baseline="central" letter-spacing="0.12em">RESPONSES API</text>
<rect x="604.5" y="85" width="103" height="56" rx="12" fill="url(#dotgrid)" stroke="#b4f079" stroke-width="1.5"/><text x="656" y="113" font-family="'JetBrains Mono', 'Fira Code', 'SF Mono', 'Cascadia Code', monospace" font-size="13" fill="#b4f079" text-anchor="middle" dominant-baseline="central" letter-spacing="0.12em">MODEL</text>
<rect x="548" y="276" width="216" height="56" rx="12" fill="url(#crosshatch)" stroke="#b4f079" stroke-width="1.5"/><text x="656" y="304" font-family="'JetBrains Mono', 'Fira Code', 'SF Mono', 'Cascadia Code', monospace" font-size="13" fill="#b4f079" text-anchor="middle" dominant-baseline="central" letter-spacing="0.12em">RUNTIME CONTAINER</text>
<text x="448" y="212.5" font-family="'Inter', 'Helvetica Neue', Arial, sans-serif" font-size="12" fill="#b4f079" opacity="0.6" font-style="italic">Feedback loop (until complete)</text>
</g>
</svg>