<svg xmlns="http://www.w3.org/2000/svg" viewBox="0 0 1284 392" width="1284" height="392">
<defs>
  <pattern id="dotgrid" width="8" height="8" patternUnits="userSpaceOnUse">
    <rect width="8" height="8" fill="#000000"/>
    <circle cx="4" cy="4" r="0.8" fill="#b4f079" opacity="0.7"/>
  </pattern>
  <pattern id="crosshatch" width="8" height="8" patternUnits="userSpaceOnUse">
    <rect width="8" height="8" fill="#000000"/>
    <path d="M0 8L8 0M-1 1L1 -1M7 9L9 7" stroke="#b4f079" stroke-width="0.8" opacity="0.2"/>
  </pattern>
  <pattern id="hero" width="6" height="6" patternUnits="userSpaceOnUse">
    <rect width="6" height="6" fill="#3d6b23"/>
    <circle cx="3" cy="3" r="0.6" fill="#5a9a35" opacity="0.5"/>
  </pattern>
  <marker id="arrowhead" markerWidth="10" markerHeight="7" refX="9" refY="3.5" orient="auto" markerUnits="strokeWidth">
    <polygon points="0 0, 10 3.5, 0 7" fill="#b4f079"/>
  </marker>
  <marker id="arrowhead-reverse" markerWidth="10" markerHeight="7" refX="1" refY="3.5" orient="auto" markerUnits="strokeWidth">
    <polygon points="10 0, 0 3.5, 10 7" fill="#b4f079"/>
  </marker>
</defs>
<rect width="100%" height="100%" fill="#000000"/>
<g class="diagram">
<text x="30" y="34" font-family="'Inter', 'Helvetica Neue', Arial, sans-serif" font-size="18" fill="#ffffff" font-weight="700">Responses API orchestrates agent loop</text>
<line x1="119" y1="209.215859030837" x2="470" y2="214.62775330396477" stroke="#b4f079" stroke-width="1.5" marker-end="url(#arrowhead)"/>
<rect x="269" y="201.4218061674009" width="51" height="21" rx="4" fill="#000000"/><text x="294.5" y="215.4218061674009" font-family="'JetBrains Mono', 'Fira Code', 'SF Mono', 'Cascadia Code', monospace" font-size="11" fill="#b4f079" opacity="0.85" text-anchor="middle">PROMPT</text>
<line x1="635.2620749969393" y1="188" x2="1044.5" y2="102.1665510867181" stroke="#b4f079" stroke-width="1.5" marker-end="url(#arrowhead)"/>
<rect x="706.5334524978575" y="136.74996532601543" width="103" height="51" rx="4" fill="#000000"/><text x="758.0334524978575" y="150.74996532601543" font-family="'JetBrains Mono', 'Fira Code', 'SF Mono', 'Cascadia Code', monospace" font-size="11" fill="#b4f079" opacity="0.85" text-anchor="middle">PROMPT + SHELL</text><text x="758.0334524978575" y="165.74996532601543" font-family="'JetBrains Mono', 'Fira Code', 'SF Mono', 'Cascadia Code', monospace" font-size="11" fill="#b4f079" opacity="0.85" text-anchor="middle">INSTRUCTION +</text><text x="758.0334524978575" y="180.74996532601543" font-family="'JetBrains Mono', 'Fira Code', 'SF Mono', 'Cascadia Code', monospace" font-size="11" fill="#b4f079" opacity="0.85" text-anchor="middle">STDOUT/STDERR</text>
<line x1="1044.5" y1="102.1665510867181" x2="635.2620749969393" y2="188" stroke="#b4f079" stroke-width="1.5" marker-end="url(#arrowhead)"/>
<rect x="870.2286224990818" y="117.41658576070267" width="103" height="21" rx="4" fill="#000000"/><text x="921.7286224990818" y="131.41658576070267" font-family="'JetBrains Mono', 'Fira Code', 'SF Mono', 'Cascadia Code', monospace" font-size="11" fill="#b4f079" opacity="0.85" text-anchor="middle">SHELL COMMANDS</text>
<line x1="648" y1="223.20044750908565" x2="1019.7379250030607" y2="306" stroke="#b4f079" stroke-width="1.5" marker-end="url(#arrowhead)"/>
<rect x="701.5213775009182" y="237.54031325635995" width="116" height="21" rx="4" fill="#000000"/><text x="759.5213775009182" y="251.54031325635995" font-family="'JetBrains Mono', 'Fira Code', 'SF Mono', 'Cascadia Code', monospace" font-size="11" fill="#b4f079" opacity="0.85" text-anchor="middle">EXECUTE COMMANDS</text>
<line x1="1019.7379250030607" y1="306" x2="648" y2="223.20044750908565" stroke="#b4f079" stroke-width="1.5" marker-end="url(#arrowhead)"/>
<rect x="859.9665475021425" y="270.6601342527257" width="96.5" height="21" rx="4" fill="#000000"/><text x="908.2165475021425" y="284.6601342527257" font-family="'JetBrains Mono', 'Fira Code', 'SF Mono', 'Cascadia Code', monospace" font-size="11" fill="#b4f079" opacity="0.85" text-anchor="middle">STDOUT/STDERR</text>
<circle cx="105" cy="188" r="7" fill="none" stroke="#b4f079" stroke-width="1.5"/><line x1="105" y1="195" x2="105" y2="217" stroke="#b4f079" stroke-width="1.5"/><line x1="91" y1="201" x2="119" y2="201" stroke="#b4f079" stroke-width="1.5"/><line x1="105" y1="217" x2="95" y2="233" stroke="#b4f079" stroke-width="1.5"/><line x1="105" y1="217" x2="115" y2="233" stroke="#b4f079" stroke-width="1.5"/><text x="105" y="247" font-family="'JetBrains Mono', 'Fira Code', 'SF Mono', 'Cascadia Code', monospace" font-size="13" fill="#b4f079" text-anchor="middle" letter-spacing="0.12em">USER</text>
<rect x="470" y="188" width="178" height="56" rx="12" fill="none" stroke="#b4f079" stroke-width="2"/><rect x="475" y="193" width="168" height="46" rx="8" fill="url(#hero)" stroke="#b4f079" stroke-width="1"/><text x="559" y="216" font-family="'JetBrains Mono', 'Fira Code', 'SF Mono', 'Cascadia Code', monospace" font-size="13" fill="#b4f079" text-anchor="middle" dominant-baseline="central" letter-spacing="0.12em">RESPONSES API</text>
<rect x="1044.5" y="70" width="103" height="56" rx="12" fill="url(#dotgrid)" stroke="#b4f079" stroke-width="1.5"/><text x="1096" y="98" font-family="'JetBrains Mono', 'Fira Code', 'SF Mono', 'Cascadia Code', monospace" font-size="13" fill="#b4f079" text-anchor="middle" dominant-baseline="central" letter-spacing="0.12em">MODEL</text>
<rect x="988" y="306" width="216" height="56" rx="12" fill="url(#crosshatch)" stroke="#b4f079" stroke-width="1.5"/><text x="1096" y="334" font-family="'JetBrains Mono', 'Fira Code', 'SF Mono', 'Cascadia Code', monospace" font-size="13" fill="#b4f079" text-anchor="middle" dominant-baseline="central" letter-spacing="0.12em">RUNTIME CONTAINER</text>
<text x="668" y="220" font-family="'Inter', 'Helvetica Neue', Arial, sans-serif" font-size="12" fill="#b4f079" opacity="0.6" font-style="italic">Feedback loop (until complete)</text>
</g>
</svg>