<svg xmlns="http://www.w3.org/2000/svg" viewBox="0 0 668.72 337" width="668.72" height="337">
<defs>
  <pattern id="dotgrid" width="8" height="8" patternUnits="userSpaceOnUse">
    <rect width="8" height="8" fill="#000000"/>
    <circle cx="4" cy="4" r="0.8" fill="#b4f079" opacity="0.7"/>
  </pattern>
  <pattern id="crosshatch" width="8" height="8" patternUnits="userSpaceOnUse">
    <rect width="8" height="8" fill="#000000"/>
    <path d="M0 8L8 0M-1 1L1 -1M7 9L9 7" stroke="#b4f079" stroke-width="0.8" opacity="0.2"/>
  </pattern>
  <pattern id="hero" width="6" height="6" patternUnits="userSpaceOnUse">
    <rect width="6" height="6" fill="#3d6b23"/>
    <circle cx="3" cy="3" r="0.6" fill="#5a9a35" opacity="0.5"/>
  </pattern>
  <marker id="arrowhead" markerWidth="10" markerHeight="7" refX="9" refY="3.5" orient="auto" markerUnits="strokeWidth">
    <polygon points="0 0, 10 3.5, 0 7" fill="#b4f079"/>
  </marker>
  <marker id="arrowhead-reverse" markerWidth="10" markerHeight="7" refX="1" refY="3.5" orient="auto" markerUnits="strokeWidth">
    <polygon points="10 0, 0 3.5, 10 7" fill="#b4f079"/>
  </marker>
</defs>
<rect width="100%" height="100%" fill="#000000"/>
<g class="diagram">
<text x="30" y="34" font-family="'Inter', 'Helvetica Neue', Arial, sans-serif" font-size="15" fill="#ffffff" font-weight="700">Responses API orchestrates agent loop</text>
<line x1="64.72" y1="178.1086956521739" x2="134.72" y2="181.15217391304347" stroke="#b4f079" stroke-width="1.5" marker-end="url(#arrowhead)"/>
<line x1="288.72" y1="139.5" x2="505.22" y2="103" stroke="#b4f079" stroke-width="1.5" marker-end="url(#arrowhead)"/>
<line x1="505.22" y1="119" x2="288.72" y2="168" stroke="#b4f079" stroke-width="1.5" marker-end="url(#arrowhead)"/>
<line x1="288.72" y1="201" x2="448.72" y2="250" stroke="#b4f079" stroke-width="1.5" marker-end="url(#arrowhead)"/>
<line x1="448.72" y1="266" x2="288.72" y2="229.5" stroke="#b4f079" stroke-width="1.5" marker-end="url(#arrowhead)"/>
<rect x="74.22" y="169.1304347826087" width="51" height="21" rx="4" fill="#000000"/>
<rect x="294.72" y="104.67500000000001" width="194" height="36" rx="4" fill="#000000"/>
<rect x="302.1700000000001" y="148.675" width="103" height="21" rx="4" fill="#000000"/>
<rect x="294.72" y="205.2" width="116" height="21" rx="4" fill="#000000"/>
<rect x="294.72" y="229.95" width="96.5" height="21" rx="4" fill="#000000"/>
<circle cx="50.72" cy="162.5" r="7" fill="none" stroke="#b4f079" stroke-width="1.5"/><line x1="50.72" y1="169.5" x2="50.72" y2="191.5" stroke="#b4f079" stroke-width="1.5"/><line x1="36.72" y1="175.5" x2="64.72" y2="175.5" stroke="#b4f079" stroke-width="1.5"/><line x1="50.72" y1="191.5" x2="40.72" y2="207.5" stroke="#b4f079" stroke-width="1.5"/><line x1="50.72" y1="191.5" x2="60.72" y2="207.5" stroke="#b4f079" stroke-width="1.5"/><text x="50.72" y="221.5" font-family="'JetBrains Mono', 'Fira Code', 'SF Mono', 'Cascadia Code', monospace" font-size="13" fill="#b4f079" text-anchor="middle" letter-spacing="0.12em">USER</text>
<rect x="134.72" y="135.5" width="154" height="98" rx="12" fill="none" stroke="#b4f079" stroke-width="2"/><rect x="139.72" y="140.5" width="144" height="88" rx="8" fill="url(#hero)" stroke="#b4f079" stroke-width="1"/><text x="211.72" y="184.5" font-family="'JetBrains Mono', 'Fira Code', 'SF Mono', 'Cascadia Code', monospace" font-size="13" fill="#b4f079" text-anchor="middle" dominant-baseline="central" letter-spacing="0.12em">RESPONSES API</text>
<rect x="505.22" y="50" width="79" height="73" rx="12" fill="url(#dotgrid)" stroke="#b4f079" stroke-width="1.5"/><rect x="516.72" y="75.4" width="56" height="22.2" fill="#000000" rx="2"/><text x="544.72" y="86.5" font-family="'JetBrains Mono', 'Fira Code', 'SF Mono', 'Cascadia Code', monospace" font-size="13" fill="#b4f079" text-anchor="middle" dominant-baseline="central" letter-spacing="0.12em">MODEL</text>
<rect x="448.72" y="246" width="192" height="73" rx="12" fill="url(#crosshatch)" stroke="#b4f079" stroke-width="1.5"/><rect x="468.72" y="271.4" width="152" height="22.2" fill="#000000" rx="2"/><text x="544.72" y="282.5" font-family="'JetBrains Mono', 'Fira Code', 'SF Mono', 'Cascadia Code', monospace" font-size="13" fill="#b4f079" text-anchor="middle" dominant-baseline="central" letter-spacing="0.12em">RUNTIME CONTAINER</text>
<text x="99.72" y="183.1304347826087" font-family="'JetBrains Mono', 'Fira Code', 'SF Mono', 'Cascadia Code', monospace" font-size="11" fill="#b4f079" opacity="0.85" text-anchor="middle">PROMPT</text>
<text x="391.72" y="118.67500000000001" font-family="'JetBrains Mono', 'Fira Code', 'SF Mono', 'Cascadia Code', monospace" font-size="11" fill="#b4f079" opacity="0.85" text-anchor="middle">PROMPT + SHELL INSTRUCTION +</text><text x="391.72" y="133.675" font-family="'JetBrains Mono', 'Fira Code', 'SF Mono', 'Cascadia Code', monospace" font-size="11" fill="#b4f079" opacity="0.85" text-anchor="middle">STDOUT/STDERR</text>
<text x="353.6700000000001" y="162.675" font-family="'JetBrains Mono', 'Fira Code', 'SF Mono', 'Cascadia Code', monospace" font-size="11" fill="#b4f079" opacity="0.85" text-anchor="middle">SHELL COMMANDS</text>
<text x="352.72" y="219.2" font-family="'JetBrains Mono', 'Fira Code', 'SF Mono', 'Cascadia Code', monospace" font-size="11" fill="#b4f079" opacity="0.85" text-anchor="middle">EXECUTE COMMANDS</text>
<text x="342.97" y="243.95" font-family="'JetBrains Mono', 'Fira Code', 'SF Mono', 'Cascadia Code', monospace" font-size="11" fill="#b4f079" opacity="0.85" text-anchor="middle">STDOUT/STDERR</text>
<text x="300.72" y="202" font-family="'Inter', 'Helvetica Neue', Arial, sans-serif" font-size="12" fill="#b4f079" opacity="0.6" font-style="italic">Feedback loop (until complete)</text>
</g>
</svg>