<svg xmlns="http://www.w3.org/2000/svg" viewBox="0 0 530.4 295" width="530.4" height="295">
<defs>
  <pattern id="dotgrid" width="8" height="8" patternUnits="userSpaceOnUse">
    <rect width="8" height="8" fill="#000000"/>
    <circle cx="4" cy="4" r="0.8" fill="#b4f079" opacity="0.7"/>
  </pattern>
  <pattern id="crosshatch" width="8" height="8" patternUnits="userSpaceOnUse">
    <rect width="8" height="8" fill="#000000"/>
    <path d="M0 8L8 0M-1 1L1 -1M7 9L9 7" stroke="#b4f079" stroke-width="0.8" opacity="0.2"/>
  </pattern>
  <pattern id="hero" width="6" height="6" patternUnits="userSpaceOnUse">
    <rect width="6" height="6" fill="#3d6b23"/>
    <circle cx="3" cy="3" r="0.6" fill="#5a9a35" opacity="0.5"/>
  </pattern>
  <marker id="arrowhead" markerWidth="10" markerHeight="7" refX="9" refY="3.5" orient="auto" markerUnits="strokeWidth">
    <polygon points="0 0, 10 3.5, 0 7" fill="#b4f079"/>
  </marker>
  <marker id="arrowhead-reverse" markerWidth="10" markerHeight="7" refX="1" refY="3.5" orient="auto" markerUnits="strokeWidth">
    <polygon points="10 0, 0 3.5, 10 7" fill="#b4f079"/>
  </marker>
</defs>
<rect width="100%" height="100%" fill="#000000"/>
<g class="diagram">
<text x="30" y="34" font-family="'Inter', 'Helvetica Neue', Arial, sans-serif" font-size="15" fill="#ffffff" font-weight="700">The Responses API executes commands asynchronous</text>
<rect x="297.4" y="60" width="205" height="215" rx="12" fill="url(#crosshatch)" stroke="#b4f079" stroke-width="1" opacity="0.35"/><rect x="297.4" y="60" width="205" height="215" rx="12" fill="none" stroke="#b4f079" stroke-width="1" opacity="0.5"/>
<line x1="185.39999999999998" y1="132.5" x2="313.4" y2="100" stroke="#b4f079" stroke-width="1.5" marker-end="url(#arrowhead)"/>
<line x1="313.4" y1="132" x2="185.39999999999998" y2="164.75" stroke="#b4f079" stroke-width="1.5" marker-end="url(#arrowhead)"/>
<line x1="185.39999999999998" y1="190.25" x2="313.4" y2="223" stroke="#b4f079" stroke-width="1.5" marker-end="url(#arrowhead)"/>
<line x1="313.4" y1="255" x2="185.39999999999998" y2="222.5" stroke="#b4f079" stroke-width="1.5" marker-end="url(#arrowhead)"/>
<rect x="143.04999999999998" y="99.5" width="161.5" height="21" rx="4" fill="#000000"/>
<rect x="193.39999999999998" y="144.425" width="64" height="21" rx="4" fill="#000000"/>
<rect x="133.29999999999998" y="267" width="181" height="21" rx="4" fill="#000000"/>
<rect x="193.39999999999998" y="221.75" width="64" height="21" rx="4" fill="#000000"/>
<rect x="326.15" y="73" width="147.5" height="24" fill="#000000" rx="3"/><text x="399.9" y="86" font-family="'Inter', 'Helvetica Neue', Arial, sans-serif" font-size="14" fill="#ffffff" opacity="0.9" text-anchor="middle">Runtime container</text>
<rect x="28" y="128.5" width="157.39999999999998" height="98" rx="12" fill="none" stroke="#b4f079" stroke-width="2"/><rect x="33" y="133.5" width="147.39999999999998" height="88" rx="8" fill="url(#hero)" stroke="#b4f079" stroke-width="1"/><text x="106.69999999999999" y="169.5" font-family="'JetBrains Mono', 'Fira Code', 'SF Mono', 'Cascadia Code', monospace" font-size="13" fill="#b4f079" text-anchor="middle" dominant-baseline="central" letter-spacing="0.12em">RESPONSES API</text><text x="106.69999999999999" y="189.5" font-family="'JetBrains Mono', 'Fira Code', 'SF Mono', 'Cascadia Code', monospace" font-size="11" fill="#b4f079" opacity="0.6" text-anchor="middle" dominant-baseline="central" letter-spacing="0.12em">SESSION MULTIPLEXER</text>
<rect x="313.4" y="96" width="173" height="40" rx="12" fill="none" stroke="#b4f079" stroke-width="2"/><rect x="318.4" y="101" width="163" height="30" rx="8" fill="#000000" stroke="#b4f079" stroke-width="1"/><text x="399.9" y="116" font-family="'JetBrains Mono', 'Fira Code', 'SF Mono', 'Cascadia Code', monospace" font-size="13" fill="#b4f079" text-anchor="middle" dominant-baseline="central" letter-spacing="0.12em">SESSION ID: 101</text>
<rect x="313.4" y="219" width="173" height="40" rx="12" fill="none" stroke="#b4f079" stroke-width="2"/><rect x="318.4" y="224" width="163" height="30" rx="8" fill="#000000" stroke="#b4f079" stroke-width="1"/><text x="399.9" y="239" font-family="'JetBrains Mono', 'Fira Code', 'SF Mono', 'Cascadia Code', monospace" font-size="13" fill="#b4f079" text-anchor="middle" dominant-baseline="central" letter-spacing="0.12em">SESSION ID: 102</text>
<text x="223.79999999999998" y="113.5" font-family="'JetBrains Mono', 'Fira Code', 'SF Mono', 'Cascadia Code', monospace" font-size="11" fill="#b4f079" opacity="0.85" text-anchor="middle">&quot;python a.py&quot;</text>
<text x="225.39999999999998" y="158.425" font-family="'JetBrains Mono', 'Fira Code', 'SF Mono', 'Cascadia Code', monospace" font-size="11" fill="#b4f079" opacity="0.85" text-anchor="middle">OUTPUT 1</text>
<text x="223.79999999999998" y="281" font-family="'JetBrains Mono', 'Fira Code', 'SF Mono', 'Cascadia Code', monospace" font-size="11" fill="#b4f079" opacity="0.85" text-anchor="middle">&quot;go run test.go&quot;</text>
<text x="225.39999999999998" y="235.75" font-family="'JetBrains Mono', 'Fira Code', 'SF Mono', 'Cascadia Code', monospace" font-size="11" fill="#b4f079" opacity="0.85" text-anchor="middle">OUTPUT 2</text>
</g>
</svg>