<svg xmlns="http://www.w3.org/2000/svg" viewBox="0 0 583.8 327" width="583.8" height="327">
<defs>
  <pattern id="dotgrid" width="8" height="8" patternUnits="userSpaceOnUse">
    <rect width="8" height="8" fill="#000000"/>
    <circle cx="4" cy="4" r="0.8" fill="#b4f079" opacity="0.7"/>
  </pattern>
  <pattern id="crosshatch" width="8" height="8" patternUnits="userSpaceOnUse">
    <rect width="8" height="8" fill="#000000"/>
    <path d="M0 8L8 0M-1 1L1 -1M7 9L9 7" stroke="#b4f079" stroke-width="0.8" opacity="0.2"/>
  </pattern>
  <pattern id="hero" width="6" height="6" patternUnits="userSpaceOnUse">
    <rect width="6" height="6" fill="#3d6b23"/>
    <circle cx="3" cy="3" r="0.6" fill="#5a9a35" opacity="0.5"/>
  </pattern>
  <marker id="arrowhead" markerWidth="10" markerHeight="7" refX="9" refY="3.5" orient="auto" markerUnits="strokeWidth">
    <polygon points="0 0, 10 3.5, 0 7" fill="#b4f079"/>
  </marker>
  <marker id="arrowhead-reverse" markerWidth="10" markerHeight="7" refX="1" refY="3.5" orient="auto" markerUnits="strokeWidth">
    <polygon points="10 0, 0 3.5, 10 7" fill="#b4f079"/>
  </marker>
</defs>
<rect width="100%" height="100%" fill="#000000"/>
<g class="diagram">
<text x="30" y="34" font-family="'Inter', 'Helvetica Neue', Arial, sans-serif" font-size="15" fill="#ffffff" font-weight="700">The Responses API executes commands asynchronous</text>
<rect x="324.79999999999995" y="60" width="213" height="237" rx="12" fill="url(#crosshatch)" stroke="#b4f079" stroke-width="1" opacity="0.35"/><rect x="324.79999999999995" y="60" width="213" height="237" rx="12" fill="none" stroke="#b4f079" stroke-width="1" opacity="0.5"/>
<line x1="212.79999999999998" y1="153.5" x2="340.79999999999995" y2="120.25" stroke="#b4f079" stroke-width="1.5" marker-end="url(#arrowhead)"/>
<line x1="340.79999999999995" y1="152" x2="212.79999999999998" y2="185.25" stroke="#b4f079" stroke-width="1.5" marker-end="url(#arrowhead)"/>
<line x1="212.79999999999998" y1="211.75" x2="340.79999999999995" y2="245" stroke="#b4f079" stroke-width="1.5" marker-end="url(#arrowhead)"/>
<line x1="340.79999999999995" y1="276.75" x2="212.79999999999998" y2="243.5" stroke="#b4f079" stroke-width="1.5" marker-end="url(#arrowhead)"/>
<rect x="164.7" y="86" width="173" height="22" rx="4" fill="#000000"/>
<rect x="220.79999999999998" y="149.275" width="68" height="22" rx="4" fill="#000000"/>
<rect x="154.2" y="289" width="194" height="22" rx="4" fill="#000000"/>
<rect x="220.79999999999998" y="257.475" width="68" height="22" rx="4" fill="#000000"/>
<rect x="357.54999999999995" y="73" width="147.5" height="24" fill="#000000" rx="3"/><text x="431.29999999999995" y="86" font-family="'Inter', 'Helvetica Neue', Arial, sans-serif" font-size="14" fill="#ffffff" opacity="0.9" text-anchor="middle">Runtime container</text>
<rect x="36" y="149.5" width="176.79999999999998" height="98" rx="12" fill="none" stroke="#b4f079" stroke-width="2"/><rect x="41" y="154.5" width="166.79999999999998" height="88" rx="8" fill="url(#hero)" stroke="#b4f079" stroke-width="1"/><rect x="64.39999999999999" y="179.4" width="120" height="22.2" fill="#000000" rx="2"/><text x="124.39999999999999" y="190.5" font-family="'JetBrains Mono', 'Fira Code', 'SF Mono', 'Cascadia Code', monospace" font-size="13" fill="#b4f079" text-anchor="middle" dominant-baseline="central" letter-spacing="0.12em">RESPONSES API</text><rect x="40.39999999999999" y="199.1" width="168" height="22.799999999999997" fill="#000000" rx="2"/><text x="124.39999999999999" y="210.5" font-family="'JetBrains Mono', 'Fira Code', 'SF Mono', 'Cascadia Code', monospace" font-size="12" fill="#b4f079" opacity="0.6" text-anchor="middle" dominant-baseline="central" letter-spacing="0.12em">SESSION MULTIPLEXER</text>
<rect x="340.79999999999995" y="116" width="181" height="40" rx="12" fill="none" stroke="#b4f079" stroke-width="2"/><rect x="345.79999999999995" y="121" width="171" height="30" rx="8" fill="#000000" stroke="#b4f079" stroke-width="1"/><text x="431.29999999999995" y="136" font-family="'JetBrains Mono', 'Fira Code', 'SF Mono', 'Cascadia Code', monospace" font-size="13" fill="#b4f079" text-anchor="middle" dominant-baseline="central" letter-spacing="0.12em">SESSION ID: 101</text>
<rect x="340.79999999999995" y="241" width="181" height="40" rx="12" fill="none" stroke="#b4f079" stroke-width="2"/><rect x="345.79999999999995" y="246" width="171" height="30" rx="8" fill="#000000" stroke="#b4f079" stroke-width="1"/><text x="431.29999999999995" y="261" font-family="'JetBrains Mono', 'Fira Code', 'SF Mono', 'Cascadia Code', monospace" font-size="13" fill="#b4f079" text-anchor="middle" dominant-baseline="central" letter-spacing="0.12em">SESSION ID: 102</text>
<text x="251.2" y="101" font-family="'JetBrains Mono', 'Fira Code', 'SF Mono', 'Cascadia Code', monospace" font-size="12" fill="#b4f079" opacity="0.85" text-anchor="middle">&quot;python a.py&quot;</text>
<text x="254.79999999999998" y="164.275" font-family="'JetBrains Mono', 'Fira Code', 'SF Mono', 'Cascadia Code', monospace" font-size="12" fill="#b4f079" opacity="0.85" text-anchor="middle">OUTPUT 1</text>
<text x="251.2" y="304" font-family="'JetBrains Mono', 'Fira Code', 'SF Mono', 'Cascadia Code', monospace" font-size="12" fill="#b4f079" opacity="0.85" text-anchor="middle">&quot;go run test.go&quot;</text>
<text x="254.79999999999998" y="272.475" font-family="'JetBrains Mono', 'Fira Code', 'SF Mono', 'Cascadia Code', monospace" font-size="12" fill="#b4f079" opacity="0.85" text-anchor="middle">OUTPUT 2</text>
</g>
</svg>