<svg xmlns="http://www.w3.org/2000/svg" viewBox="0 0 556.4 321" width="556.4" height="321">
<defs>
  <pattern id="dotgrid" width="8" height="8" patternUnits="userSpaceOnUse">
    <rect width="8" height="8" fill="#000000"/>
    <circle cx="4" cy="4" r="0.8" fill="#b4f079" opacity="0.7"/>
  </pattern>
  <pattern id="crosshatch" width="8" height="8" patternUnits="userSpaceOnUse">
    <rect width="8" height="8" fill="#000000"/>
    <path d="M0 8L8 0M-1 1L1 -1M7 9L9 7" stroke="#b4f079" stroke-width="0.8" opacity="0.2"/>
  </pattern>
  <pattern id="hero" width="6" height="6" patternUnits="userSpaceOnUse">
    <rect width="6" height="6" fill="#3d6b23"/>
    <circle cx="3" cy="3" r="0.6" fill="#5a9a35" opacity="0.5"/>
  </pattern>
  <marker id="arrowhead" markerWidth="10" markerHeight="7" refX="9" refY="3.5" orient="auto" markerUnits="strokeWidth">
    <polygon points="0 0, 10 3.5, 0 7" fill="#b4f079"/>
  </marker>
  <marker id="arrowhead-reverse" markerWidth="10" markerHeight="7" refX="1" refY="3.5" orient="auto" markerUnits="strokeWidth">
    <polygon points="10 0, 0 3.5, 10 7" fill="#b4f079"/>
  </marker>
</defs>
<rect width="100%" height="100%" fill="#000000"/>
<g class="diagram">
<text x="30" y="34" font-family="'Inter', 'Helvetica Neue', Arial, sans-serif" font-size="15" fill="#ffffff" font-weight="700">The Responses API executes commands asynchronous</text>
<rect x="305.4" y="60" width="213" height="231" rx="12" fill="url(#crosshatch)" stroke="#b4f079" stroke-width="1" opacity="0.35"/><rect x="305.4" y="60" width="213" height="231" rx="12" fill="none" stroke="#b4f079" stroke-width="1" opacity="0.5"/>
<line x1="193.39999999999998" y1="147.5" x2="321.4" y2="114.25" stroke="#b4f079" stroke-width="1.5" marker-end="url(#arrowhead)"/>
<line x1="321.4" y1="146" x2="193.39999999999998" y2="179.25" stroke="#b4f079" stroke-width="1.5" marker-end="url(#arrowhead)"/>
<line x1="193.39999999999998" y1="205.75" x2="321.4" y2="239" stroke="#b4f079" stroke-width="1.5" marker-end="url(#arrowhead)"/>
<line x1="321.4" y1="270.75" x2="193.39999999999998" y2="237.5" stroke="#b4f079" stroke-width="1.5" marker-end="url(#arrowhead)"/>
<rect x="151.04999999999998" y="114.5" width="161.5" height="21" rx="4" fill="#000000"/>
<rect x="201.39999999999998" y="158.775" width="64" height="21" rx="4" fill="#000000"/>
<rect x="141.29999999999998" y="283" width="181" height="21" rx="4" fill="#000000"/>
<rect x="201.39999999999998" y="236.975" width="64" height="21" rx="4" fill="#000000"/>
<rect x="338.15" y="73" width="147.5" height="24" fill="#000000" rx="3"/><text x="411.9" y="86" font-family="'Inter', 'Helvetica Neue', Arial, sans-serif" font-size="14" fill="#ffffff" opacity="0.9" text-anchor="middle">Runtime container</text>
<rect x="28" y="143.5" width="165.39999999999998" height="98" rx="12" fill="none" stroke="#b4f079" stroke-width="2"/><rect x="33" y="148.5" width="155.39999999999998" height="88" rx="8" fill="url(#hero)" stroke="#b4f079" stroke-width="1"/><text x="110.69999999999999" y="184.5" font-family="'JetBrains Mono', 'Fira Code', 'SF Mono', 'Cascadia Code', monospace" font-size="13" fill="#b4f079" text-anchor="middle" dominant-baseline="central" letter-spacing="0.12em">RESPONSES API</text><text x="110.69999999999999" y="204.5" font-family="'JetBrains Mono', 'Fira Code', 'SF Mono', 'Cascadia Code', monospace" font-size="11" fill="#b4f079" opacity="0.6" text-anchor="middle" dominant-baseline="central" letter-spacing="0.12em">SESSION MULTIPLEXER</text>
<rect x="321.4" y="110" width="181" height="40" rx="12" fill="none" stroke="#b4f079" stroke-width="2"/><rect x="326.4" y="115" width="171" height="30" rx="8" fill="#000000" stroke="#b4f079" stroke-width="1"/><text x="411.9" y="130" font-family="'JetBrains Mono', 'Fira Code', 'SF Mono', 'Cascadia Code', monospace" font-size="13" fill="#b4f079" text-anchor="middle" dominant-baseline="central" letter-spacing="0.12em">SESSION ID: 101</text>
<rect x="321.4" y="235" width="181" height="40" rx="12" fill="none" stroke="#b4f079" stroke-width="2"/><rect x="326.4" y="240" width="171" height="30" rx="8" fill="#000000" stroke="#b4f079" stroke-width="1"/><text x="411.9" y="255" font-family="'JetBrains Mono', 'Fira Code', 'SF Mono', 'Cascadia Code', monospace" font-size="13" fill="#b4f079" text-anchor="middle" dominant-baseline="central" letter-spacing="0.12em">SESSION ID: 102</text>
<text x="231.79999999999998" y="128.5" font-family="'JetBrains Mono', 'Fira Code', 'SF Mono', 'Cascadia Code', monospace" font-size="11" fill="#b4f079" opacity="0.85" text-anchor="middle">&quot;python a.py&quot;</text>
<text x="233.39999999999998" y="172.775" font-family="'JetBrains Mono', 'Fira Code', 'SF Mono', 'Cascadia Code', monospace" font-size="11" fill="#b4f079" opacity="0.85" text-anchor="middle">OUTPUT 1</text>
<text x="231.79999999999998" y="297" font-family="'JetBrains Mono', 'Fira Code', 'SF Mono', 'Cascadia Code', monospace" font-size="11" fill="#b4f079" opacity="0.85" text-anchor="middle">&quot;go run test.go&quot;</text>
<text x="233.39999999999998" y="250.975" font-family="'JetBrains Mono', 'Fira Code', 'SF Mono', 'Cascadia Code', monospace" font-size="11" fill="#b4f079" opacity="0.85" text-anchor="middle">OUTPUT 2</text>
</g>
</svg>