<svg xmlns="http://www.w3.org/2000/svg" viewBox="0 0 1034.96 421" width="1034.96" height="421">
<defs>
  <pattern id="dotgrid" width="8" height="8" patternUnits="userSpaceOnUse">
    <rect width="8" height="8" fill="#000000"/>
    <circle cx="4" cy="4" r="0.8" fill="#b4f079" opacity="0.7"/>
  </pattern>
  <pattern id="crosshatch" width="8" height="8" patternUnits="userSpaceOnUse">
    <rect width="8" height="8" fill="#000000"/>
    <path d="M0 8L8 0M-1 1L1 -1M7 9L9 7" stroke="#b4f079" stroke-width="0.8" opacity="0.2"/>
  </pattern>
  <pattern id="hero" width="6" height="6" patternUnits="userSpaceOnUse">
    <rect width="6" height="6" fill="#3d6b23"/>
    <circle cx="3" cy="3" r="0.6" fill="#5a9a35" opacity="0.5"/>
  </pattern>
  <marker id="arrowhead" markerWidth="10" markerHeight="7" refX="9" refY="3.5" orient="auto" markerUnits="strokeWidth">
    <polygon points="0 0, 10 3.5, 0 7" fill="#b4f079"/>
  </marker>
  <marker id="arrowhead-reverse" markerWidth="10" markerHeight="7" refX="1" refY="3.5" orient="auto" markerUnits="strokeWidth">
    <polygon points="10 0, 0 3.5, 10 7" fill="#b4f079"/>
  </marker>
</defs>
<rect width="100%" height="100%" fill="#000000"/>
<g class="diagram">
<text x="30" y="34" font-family="'Inter', 'Helvetica Neue', Arial, sans-serif" font-size="15" fill="#ffffff" font-weight="700">The Responses API uses skills: Registry → Bundle → Runtime</text>
<line x1="317.36" y1="167.72397223705286" x2="504.6600000000001" y2="114.72397223705285" stroke="#b4f079" stroke-width="1.5" marker-end="url(#arrowhead)"/>
<line x1="317.36" y1="207" x2="432.35999999999996" y2="207" stroke="#b4f079" stroke-width="1.5" marker-end="url(#arrowhead)"/>
<circle cx="351.86" cy="187" r="11" fill="#b4f079" stroke="none"/><text x="351.86" y="187" font-family="'JetBrains Mono', 'Fira Code', 'SF Mono', 'Cascadia Code', monospace" font-size="11" fill="#000000" text-anchor="middle" dominant-baseline="central" font-weight="700">1</text>
<line x1="317.36" y1="254.0571276027763" x2="439.1600000000001" y2="295.350774159103" stroke="#b4f079" stroke-width="1.5" marker-end="url(#arrowhead)"/>
<circle cx="360.3215542964999" cy="247.50416456598245" r="11" fill="#b4f079" stroke="none"/><text x="360.3215542964999" y="247.50416456598245" font-family="'JetBrains Mono', 'Fira Code', 'SF Mono', 'Cascadia Code', monospace" font-size="11" fill="#000000" text-anchor="middle" dominant-baseline="central" font-weight="700">2</text>
<line x1="601.6600000000001" y1="101" x2="788.96" y2="101" stroke="#b4f079" stroke-width="1.5" marker-end="url(#arrowhead)"/>
<circle cx="657.85" cy="81" r="11" fill="#b4f079" stroke="none"/><text x="657.85" y="81" font-family="'JetBrains Mono', 'Fira Code', 'SF Mono', 'Cascadia Code', monospace" font-size="11" fill="#000000" text-anchor="middle" dominant-baseline="central" font-weight="700">3</text>
<rect x="356.01000000000005" y="100.22397223705286" width="110" height="22" rx="4" fill="#000000"/>
<rect x="340.86" y="196" width="68" height="22" rx="4" fill="#000000"/>
<rect x="323.26000000000005" y="263" width="110" height="22" rx="4" fill="#000000"/>
<rect x="640.3100000000001" y="90" width="110" height="22" rx="4" fill="#000000"/>
<rect x="504.66" y="81" width="97" height="40" rx="12" fill="url(#dotgrid)" stroke="#b4f079" stroke-width="1.5"/><rect x="521.1600000000001" y="89.9" width="64" height="22.2" fill="#000000" rx="2"/><text x="553.1600000000001" y="101" font-family="'JetBrains Mono', 'Fira Code', 'SF Mono', 'Cascadia Code', monospace" font-size="13" fill="#b4f079" text-anchor="middle" dominant-baseline="central" letter-spacing="0.12em">MODELS</text>
<rect x="39.75999999999999" y="147" width="277.6" height="120" rx="12" fill="none" stroke="#b4f079" stroke-width="2"/><rect x="44.75999999999999" y="152" width="267.6" height="110" rx="8" fill="url(#hero)" stroke="#b4f079" stroke-width="1"/><rect x="118.56" y="187.9" width="120" height="22.2" fill="#000000" rx="2"/><text x="178.56" y="199" font-family="'JetBrains Mono', 'Fira Code', 'SF Mono', 'Cascadia Code', monospace" font-size="13" fill="#b4f079" text-anchor="middle" dominant-baseline="central" letter-spacing="0.12em">RESPONSES API</text><rect x="38.56" y="207.60000000000002" width="280" height="39.599999999999994" fill="#000000" rx="2"/><text x="178.56" y="210.6" font-family="'JetBrains Mono', 'Fira Code', 'SF Mono', 'Cascadia Code', monospace" font-size="12" fill="#b4f079" opacity="0.6" text-anchor="middle" dominant-baseline="central" letter-spacing="0.12em">System prompt: name, description,</text><text x="178.56" y="227.39999999999998" font-family="'JetBrains Mono', 'Fira Code', 'SF Mono', 'Cascadia Code', monospace" font-size="12" fill="#b4f079" opacity="0.6" text-anchor="middle" dominant-baseline="central" letter-spacing="0.12em">path</text>
<rect x="432.36" y="166" width="241.6" height="82" rx="12" fill="url(#dotgrid)" stroke="#b4f079" stroke-width="1.5"/><rect x="489.15999999999997" y="187.9" width="128" height="22.2" fill="#000000" rx="2"/><text x="553.16" y="199" font-family="'JetBrains Mono', 'Fira Code', 'SF Mono', 'Cascadia Code', monospace" font-size="13" fill="#b4f079" text-anchor="middle" dominant-baseline="central" letter-spacing="0.12em">SKILL REGISTRY</text><rect x="433.15999999999997" y="207.6" width="240" height="22.799999999999997" fill="#000000" rx="2"/><text x="553.16" y="219" font-family="'JetBrains Mono', 'Fira Code', 'SF Mono', 'Cascadia Code', monospace" font-size="12" fill="#b4f079" opacity="0.6" text-anchor="middle" dominant-baseline="central" letter-spacing="0.12em">name, description, object_id</text>
<rect x="439.16" y="293" width="228" height="82" rx="12" fill="url(#dotgrid)" stroke="#b4f079" stroke-width="1.5"/><rect x="465.1600000000001" y="314.9" width="176" height="22.2" fill="#000000" rx="2"/><text x="553.1600000000001" y="326" font-family="'JetBrains Mono', 'Fira Code', 'SF Mono', 'Cascadia Code', monospace" font-size="13" fill="#b4f079" text-anchor="middle" dominant-baseline="central" letter-spacing="0.12em">SKILL BUNDLE STORAGE</text><rect x="489.1600000000001" y="334.6" width="128" height="22.799999999999997" fill="#000000" rx="2"/><text x="553.1600000000001" y="346" font-family="'JetBrains Mono', 'Fira Code', 'SF Mono', 'Cascadia Code', monospace" font-size="12" fill="#b4f079" opacity="0.6" text-anchor="middle" dominant-baseline="central" letter-spacing="0.12em">object_id, zip</text>
<rect x="788.96" y="60" width="200" height="82" rx="12" fill="url(#dotgrid)" stroke="#b4f079" stroke-width="1.5"/><rect x="812.96" y="81.9" width="152" height="22.2" fill="#000000" rx="2"/><text x="888.96" y="93" font-family="'JetBrains Mono', 'Fira Code', 'SF Mono', 'Cascadia Code', monospace" font-size="13" fill="#b4f079" text-anchor="middle" dominant-baseline="central" letter-spacing="0.12em">CONTAINER RUNTIME</text><rect x="800.96" y="101.6" width="176" height="22.799999999999997" fill="#000000" rx="2"/><text x="888.96" y="113" font-family="'JetBrains Mono', 'Fira Code', 'SF Mono', 'Cascadia Code', monospace" font-size="12" fill="#b4f079" opacity="0.6" text-anchor="middle" dominant-baseline="central" letter-spacing="0.12em">/home/oai/skills/...</text>
<text x="411.01000000000005" y="115.22397223705286" font-family="'JetBrains Mono', 'Fira Code', 'SF Mono', 'Cascadia Code', monospace" font-size="12" fill="#b4f079" opacity="0.85" text-anchor="middle">COMMAND/OUTPUT</text>
<text x="374.86" y="211" font-family="'JetBrains Mono', 'Fira Code', 'SF Mono', 'Cascadia Code', monospace" font-size="12" fill="#b4f079" opacity="0.85" text-anchor="middle">SKILL ID</text>
<text x="378.26000000000005" y="278" font-family="'JetBrains Mono', 'Fira Code', 'SF Mono', 'Cascadia Code', monospace" font-size="12" fill="#b4f079" opacity="0.85" text-anchor="middle">EXECUTE/OUTPUT</text>
<text x="695.3100000000001" y="105" font-family="'JetBrains Mono', 'Fira Code', 'SF Mono', 'Cascadia Code', monospace" font-size="12" fill="#b4f079" opacity="0.85" text-anchor="middle">COMMAND/OUTPUT</text>
</g>
</svg>