<svg xmlns="http://www.w3.org/2000/svg" viewBox="0 0 981.8 416" width="981.8" height="416">
<defs>
  <pattern id="dotgrid" width="8" height="8" patternUnits="userSpaceOnUse">
    <rect width="8" height="8" fill="#000000"/>
    <circle cx="4" cy="4" r="0.8" fill="#b4f079" opacity="0.7"/>
  </pattern>
  <pattern id="crosshatch" width="8" height="8" patternUnits="userSpaceOnUse">
    <rect width="8" height="8" fill="#000000"/>
    <path d="M0 8L8 0M-1 1L1 -1M7 9L9 7" stroke="#b4f079" stroke-width="0.8" opacity="0.2"/>
  </pattern>
  <pattern id="hero" width="6" height="6" patternUnits="userSpaceOnUse">
    <rect width="6" height="6" fill="#3d6b23"/>
    <circle cx="3" cy="3" r="0.6" fill="#5a9a35" opacity="0.5"/>
  </pattern>
  <marker id="arrowhead" markerWidth="10" markerHeight="7" refX="9" refY="3.5" orient="auto" markerUnits="strokeWidth">
    <polygon points="0 0, 10 3.5, 0 7" fill="#b4f079"/>
  </marker>
  <marker id="arrowhead-reverse" markerWidth="10" markerHeight="7" refX="1" refY="3.5" orient="auto" markerUnits="strokeWidth">
    <polygon points="10 0, 0 3.5, 10 7" fill="#b4f079"/>
  </marker>
</defs>
<rect width="100%" height="100%" fill="#000000"/>
<g class="diagram">
<text x="30" y="34" font-family="'Inter', 'Helvetica Neue', Arial, sans-serif" font-size="15" fill="#ffffff" font-weight="700">The Responses API uses skills: Registry → Bundle → Runtime</text>
<line x1="285.79999999999995" y1="167.18357082984073" x2="466.29999999999995" y2="114.22883487007545" stroke="#b4f079" stroke-width="1.5" marker-end="url(#arrowhead)"/>
<line x1="285.79999999999995" y1="205" x2="402.4" y2="205" stroke="#b4f079" stroke-width="1.5" marker-end="url(#arrowhead)"/>
<circle cx="320.78" cy="185" r="11" fill="#b4f079" stroke="none"/><text x="320.78" y="185" font-family="'JetBrains Mono', 'Fira Code', 'SF Mono', 'Cascadia Code', monospace" font-size="11" fill="#000000" text-anchor="middle" dominant-baseline="central" font-weight="700">1</text>
<line x1="285.79999999999995" y1="250.01955853590388" x2="400.79999999999995" y2="290.18440905280806" stroke="#b4f079" stroke-width="1.5" marker-end="url(#arrowhead)"/>
<circle cx="326.89455231184417" cy="243.18749151170283" r="11" fill="#b4f079" stroke="none"/><text x="326.89455231184417" y="243.18749151170283" font-family="'JetBrains Mono', 'Fira Code', 'SF Mono', 'Cascadia Code', monospace" font-size="11" fill="#000000" text-anchor="middle" dominant-baseline="central" font-weight="700">2</text>
<line x1="563.3" y1="100" x2="743.8" y2="100" stroke="#b4f079" stroke-width="1.5" marker-end="url(#arrowhead)"/>
<circle cx="617.4499999999999" cy="80" r="11" fill="#b4f079" stroke="none"/><text x="617.4499999999999" y="80" font-family="'JetBrains Mono', 'Fira Code', 'SF Mono', 'Cascadia Code', monospace" font-size="11" fill="#000000" text-anchor="middle" dominant-baseline="central" font-weight="700">3</text>
<rect x="324.54999999999995" y="130.2062028499581" width="103" height="21" rx="4" fill="#000000"/>
<rect x="312.09999999999997" y="194.5" width="64" height="21" rx="4" fill="#000000"/>
<rect x="291.79999999999995" y="261" width="103" height="21" rx="4" fill="#000000"/>
<rect x="602.05" y="89.5" width="103" height="21" rx="4" fill="#000000"/>
<rect x="466.29999999999995" y="80" width="97" height="40" rx="12" fill="url(#dotgrid)" stroke="#b4f079" stroke-width="1.5"/><rect x="482.79999999999995" y="88.9" width="64" height="22.2" fill="#000000" rx="2"/><text x="514.8" y="100" font-family="'JetBrains Mono', 'Fira Code', 'SF Mono', 'Cascadia Code', monospace" font-size="13" fill="#b4f079" text-anchor="middle" dominant-baseline="central" letter-spacing="0.12em">MODELS</text>
<rect x="28" y="145" width="257.79999999999995" height="120" rx="12" fill="none" stroke="#b4f079" stroke-width="2"/><rect x="33" y="150" width="247.79999999999995" height="110" rx="8" fill="url(#hero)" stroke="#b4f079" stroke-width="1"/><rect x="96.89999999999998" y="185.9" width="120" height="22.2" fill="#000000" rx="2"/><text x="156.89999999999998" y="197" font-family="'JetBrains Mono', 'Fira Code', 'SF Mono', 'Cascadia Code', monospace" font-size="13" fill="#b4f079" text-anchor="middle" dominant-baseline="central" letter-spacing="0.12em">RESPONSES API</text><rect x="16.899999999999977" y="206.29999999999998" width="280" height="36.8" fill="#000000" rx="2"/><text x="156.89999999999998" y="217" font-family="'JetBrains Mono', 'Fira Code', 'SF Mono', 'Cascadia Code', monospace" font-size="11" fill="#b4f079" opacity="0.6" text-anchor="middle" dominant-baseline="central" letter-spacing="0.12em">System prompt: name, description,</text><text x="156.89999999999998" y="232.4" font-family="'JetBrains Mono', 'Fira Code', 'SF Mono', 'Cascadia Code', monospace" font-size="11" fill="#b4f079" opacity="0.6" text-anchor="middle" dominant-baseline="central" letter-spacing="0.12em">path</text>
<rect x="402.4" y="165" width="224.79999999999998" height="80" rx="12" fill="url(#dotgrid)" stroke="#b4f079" stroke-width="1.5"/><rect x="450.79999999999995" y="185.9" width="128" height="22.2" fill="#000000" rx="2"/><text x="514.8" y="197" font-family="'JetBrains Mono', 'Fira Code', 'SF Mono', 'Cascadia Code', monospace" font-size="13" fill="#b4f079" text-anchor="middle" dominant-baseline="central" letter-spacing="0.12em">SKILL REGISTRY</text><rect x="394.79999999999995" y="206.3" width="240" height="21.4" fill="#000000" rx="2"/><text x="514.8" y="217" font-family="'JetBrains Mono', 'Fira Code', 'SF Mono', 'Cascadia Code', monospace" font-size="11" fill="#b4f079" opacity="0.6" text-anchor="middle" dominant-baseline="central" letter-spacing="0.12em">name, description, object_id</text>
<rect x="400.79999999999995" y="290" width="228" height="80" rx="12" fill="url(#dotgrid)" stroke="#b4f079" stroke-width="1.5"/><rect x="426.79999999999995" y="310.9" width="176" height="22.2" fill="#000000" rx="2"/><text x="514.8" y="322" font-family="'JetBrains Mono', 'Fira Code', 'SF Mono', 'Cascadia Code', monospace" font-size="13" fill="#b4f079" text-anchor="middle" dominant-baseline="central" letter-spacing="0.12em">SKILL BUNDLE STORAGE</text><rect x="450.79999999999995" y="331.3" width="128" height="21.4" fill="#000000" rx="2"/><text x="514.8" y="342" font-family="'JetBrains Mono', 'Fira Code', 'SF Mono', 'Cascadia Code', monospace" font-size="11" fill="#b4f079" opacity="0.6" text-anchor="middle" dominant-baseline="central" letter-spacing="0.12em">object_id, zip</text>
<rect x="743.8" y="60" width="200" height="80" rx="12" fill="url(#dotgrid)" stroke="#b4f079" stroke-width="1.5"/><rect x="767.8" y="80.9" width="152" height="22.2" fill="#000000" rx="2"/><text x="843.8" y="92" font-family="'JetBrains Mono', 'Fira Code', 'SF Mono', 'Cascadia Code', monospace" font-size="13" fill="#b4f079" text-anchor="middle" dominant-baseline="central" letter-spacing="0.12em">CONTAINER RUNTIME</text><rect x="755.8" y="101.3" width="176" height="21.4" fill="#000000" rx="2"/><text x="843.8" y="112" font-family="'JetBrains Mono', 'Fira Code', 'SF Mono', 'Cascadia Code', monospace" font-size="11" fill="#b4f079" opacity="0.6" text-anchor="middle" dominant-baseline="central" letter-spacing="0.12em">/home/oai/skills/...</text>
<text x="376.04999999999995" y="144.2062028499581" font-family="'JetBrains Mono', 'Fira Code', 'SF Mono', 'Cascadia Code', monospace" font-size="11" fill="#b4f079" opacity="0.85" text-anchor="middle">COMMAND/OUTPUT</text>
<text x="344.09999999999997" y="208.5" font-family="'JetBrains Mono', 'Fira Code', 'SF Mono', 'Cascadia Code', monospace" font-size="11" fill="#b4f079" opacity="0.85" text-anchor="middle">SKILL ID</text>
<text x="343.29999999999995" y="275" font-family="'JetBrains Mono', 'Fira Code', 'SF Mono', 'Cascadia Code', monospace" font-size="11" fill="#b4f079" opacity="0.85" text-anchor="middle">EXECUTE/OUTPUT</text>
<text x="653.55" y="103.5" font-family="'JetBrains Mono', 'Fira Code', 'SF Mono', 'Cascadia Code', monospace" font-size="11" fill="#b4f079" opacity="0.85" text-anchor="middle">COMMAND/OUTPUT</text>
</g>
</svg>