<svg xmlns="http://www.w3.org/2000/svg" viewBox="0 0 581.8 353.5" width="581.8" height="353.5">
<defs>
  <pattern id="dotgrid" width="8" height="8" patternUnits="userSpaceOnUse">
    <rect width="8" height="8" fill="#000000"/>
    <circle cx="4" cy="4" r="0.8" fill="#b4f079" opacity="0.7"/>
  </pattern>
  <pattern id="crosshatch" width="8" height="8" patternUnits="userSpaceOnUse">
    <rect width="8" height="8" fill="#000000"/>
    <path d="M0 8L8 0M-1 1L1 -1M7 9L9 7" stroke="#b4f079" stroke-width="0.8" opacity="0.2"/>
  </pattern>
  <pattern id="hero" width="6" height="6" patternUnits="userSpaceOnUse">
    <rect width="6" height="6" fill="#3d6b23"/>
    <circle cx="3" cy="3" r="0.6" fill="#5a9a35" opacity="0.5"/>
  </pattern>
  <marker id="arrowhead" markerWidth="10" markerHeight="7" refX="9" refY="3.5" orient="auto" markerUnits="strokeWidth">
    <polygon points="0 0, 10 3.5, 0 7" fill="#b4f079"/>
  </marker>
  <marker id="arrowhead-reverse" markerWidth="10" markerHeight="7" refX="1" refY="3.5" orient="auto" markerUnits="strokeWidth">
    <polygon points="10 0, 0 3.5, 10 7" fill="#b4f079"/>
  </marker>
</defs>
<rect width="100%" height="100%" fill="#000000"/>
<g class="diagram">
<text x="30" y="34" font-family="'Inter', 'Helvetica Neue', Arial, sans-serif" font-size="15" fill="#ffffff" font-weight="700">Language models use tools</text>
<rect x="149" y="60" width="185" height="232" rx="12" fill="url(#crosshatch)" stroke="#b4f079" stroke-width="1" opacity="0.35"/><rect x="149" y="60" width="185" height="232" rx="12" fill="none" stroke="#b4f079" stroke-width="1" opacity="0.5"/>
<line x1="123" y1="179.88888888888889" x2="198" y2="152.11111111111111" stroke="#b4f079" stroke-width="1.5" marker-end="url(#arrowhead)"/>
<line x1="123" y1="196" x2="184" y2="196" stroke="#b4f079" stroke-width="1.5" marker-end="url(#arrowhead)"/>
<line x1="123" y1="212.11111111111111" x2="187.5" y2="236" stroke="#b4f079" stroke-width="1.5" marker-end="url(#arrowhead)"/>
<line x1="285" y1="130.45859872611464" x2="365.1" y2="120.2547770700637" stroke="#b4f079" stroke-width="1.5" marker-end="url(#arrowhead)"/>
<line x1="299" y1="196" x2="360" y2="196" stroke="#b4f079" stroke-width="1.5" marker-end="url(#arrowhead)"/>
<line x1="318" y1="264.8953488372093" x2="360" y2="269.77906976744185" stroke="#b4f079" stroke-width="1.5" marker-end="url(#arrowhead)"/>

<rect x="212.75" y="73" width="57.5" height="24" fill="#000000" rx="3"/><text x="241.5" y="86" font-family="'Inter', 'Helvetica Neue', Arial, sans-serif" font-size="14" fill="#ffffff" opacity="0.9" text-anchor="middle">Tools</text>
<rect x="36" y="176" width="87" height="40" rx="12" fill="url(#dotgrid)" stroke="#b4f079" stroke-width="1.5"/><rect x="51.5" y="184.9" width="56" height="22.2" fill="#000000" rx="2"/><text x="79.5" y="196" font-family="'JetBrains Mono', 'Fira Code', 'SF Mono', 'Cascadia Code', monospace" font-size="13" fill="#b4f079" text-anchor="middle" dominant-baseline="central" letter-spacing="0.12em">MODEL</text>
<rect x="198" y="116" width="87" height="40" rx="12" fill="none" stroke="#b4f079" stroke-width="2"/><rect x="203" y="121" width="77" height="30" rx="8" fill="#000000" stroke="#b4f079" stroke-width="1"/><text x="241.5" y="136" font-family="'JetBrains Mono', 'Fira Code', 'SF Mono', 'Cascadia Code', monospace" font-size="13" fill="#b4f079" text-anchor="middle" dominant-baseline="central" letter-spacing="0.12em">SHELL</text>
<rect x="184" y="176" width="115" height="40" rx="12" fill="none" stroke="#b4f079" stroke-width="2"/><rect x="189" y="181" width="105" height="30" rx="8" fill="#000000" stroke="#b4f079" stroke-width="1"/><text x="241.5" y="196" font-family="'JetBrains Mono', 'Fira Code', 'SF Mono', 'Cascadia Code', monospace" font-size="13" fill="#b4f079" text-anchor="middle" dominant-baseline="central" letter-spacing="0.12em">FUNCTION</text>
<rect x="165" y="236" width="153" height="40" rx="12" fill="none" stroke="#b4f079" stroke-width="2"/><rect x="170" y="241" width="143" height="30" rx="8" fill="#000000" stroke="#b4f079" stroke-width="1"/><text x="241.5" y="256" font-family="'JetBrains Mono', 'Fira Code', 'SF Mono', 'Cascadia Code', monospace" font-size="13" fill="#b4f079" text-anchor="middle" dominant-baseline="central" letter-spacing="0.12em">COMPUTER USE</text>

<text x="365.1" y="97.5" font-family="'JetBrains Mono', 'Fira Code', 'SF Mono', 'Cascadia Code', monospace" font-size="13" fill="#b4f079" font-weight="700" letter-spacing="0.12em">COMMAND</text><text x="369.1" y="113.5" font-family="'JetBrains Mono', 'Fira Code', 'SF Mono', 'Cascadia Code', monospace" font-size="11" fill="#b4f079" opacity="0.7">ls -l /home/user</text>
<text x="360" y="172.5" font-family="'JetBrains Mono', 'Fira Code', 'SF Mono', 'Cascadia Code', monospace" font-size="13" fill="#b4f079" font-weight="700" letter-spacing="0.12em">JSON</text><text x="364" y="188.5" font-family="'JetBrains Mono', 'Fira Code', 'SF Mono', 'Cascadia Code', monospace" font-size="11" fill="#b4f079" opacity="0.7">{&quot;name&quot;:&quot;get_weather&quot;,</text><text x="364" y="206.5" font-family="'JetBrains Mono', 'Fira Code', 'SF Mono', 'Cascadia Code', monospace" font-size="11" fill="#b4f079" opacity="0.7">&quot;description&quot;:&quot;...&quot;}</text>
<text x="360" y="265.5" font-family="'JetBrains Mono', 'Fira Code', 'SF Mono', 'Cascadia Code', monospace" font-size="13" fill="#b4f079" font-weight="700" letter-spacing="0.12em">ACTION</text><text x="364" y="281.5" font-family="'JetBrains Mono', 'Fira Code', 'SF Mono', 'Cascadia Code', monospace" font-size="11" fill="#b4f079" opacity="0.7">click(&quot;left&quot;, 100, 200)</text>
<circle cx="229.5" cy="166" r="3" fill="#b4f079"/><circle cx="241.5" cy="166" r="3" fill="#b4f079"/><circle cx="253.5" cy="166" r="3" fill="#b4f079"/>
</g>
</svg>