<svg xmlns="http://www.w3.org/2000/svg" viewBox="0 0 529.8 317.5" width="529.8" height="317.5">
<defs>
  <pattern id="dotgrid" width="8" height="8" patternUnits="userSpaceOnUse">
    <rect width="8" height="8" fill="#000000"/>
    <circle cx="4" cy="4" r="0.8" fill="#b4f079" opacity="0.7"/>
  </pattern>
  <pattern id="crosshatch" width="8" height="8" patternUnits="userSpaceOnUse">
    <rect width="8" height="8" fill="#000000"/>
    <path d="M0 8L8 0M-1 1L1 -1M7 9L9 7" stroke="#b4f079" stroke-width="0.8" opacity="0.2"/>
  </pattern>
  <pattern id="hero" width="6" height="6" patternUnits="userSpaceOnUse">
    <rect width="6" height="6" fill="#3d6b23"/>
    <circle cx="3" cy="3" r="0.6" fill="#5a9a35" opacity="0.5"/>
  </pattern>
  <marker id="arrowhead" markerWidth="10" markerHeight="7" refX="9" refY="3.5" orient="auto" markerUnits="strokeWidth">
    <polygon points="0 0, 10 3.5, 0 7" fill="#b4f079"/>
  </marker>
  <marker id="arrowhead-reverse" markerWidth="10" markerHeight="7" refX="1" refY="3.5" orient="auto" markerUnits="strokeWidth">
    <polygon points="10 0, 0 3.5, 10 7" fill="#b4f079"/>
  </marker>
</defs>
<rect width="100%" height="100%" fill="#000000"/>
<g class="diagram">
<text x="30" y="34" font-family="'Inter', 'Helvetica Neue', Arial, sans-serif" font-size="18" fill="#ffffff" font-weight="700">Language models use tools</text>
<rect x="128" y="68" width="177" height="216" rx="12" fill="url(#crosshatch)" stroke="#b4f079" stroke-width="1" opacity="0.35"/><rect x="128" y="68" width="177" height="216" rx="12" fill="none" stroke="#b4f079" stroke-width="1" opacity="0.5"/><text x="216.5" y="94" font-family="'Inter', 'Helvetica Neue', Arial, sans-serif" font-size="14" fill="#ffffff" opacity="0.9" text-anchor="middle">Tools</text>
<line x1="114" y1="168.75352112676057" x2="177" y2="141.24647887323943" stroke="#b4f079" stroke-width="1.5" marker-end="url(#arrowhead)"/>
<line x1="114" y1="186" x2="163" y2="186" stroke="#b4f079" stroke-width="1.5" marker-end="url(#arrowhead)"/>
<line x1="114" y1="203.24647887323943" x2="170.69354838709677" y2="228" stroke="#b4f079" stroke-width="1.5" marker-end="url(#arrowhead)"/>
<line x1="256" y1="119.02100840336135" x2="342.1" y2="108.16806722689076" stroke="#b4f079" stroke-width="1.5" marker-end="url(#arrowhead)"/>
<line x1="270" y1="186" x2="322.29999999999995" y2="186" stroke="#b4f079" stroke-width="1.5" marker-end="url(#arrowhead)"/>
<line x1="289" y1="257.1386554621849" x2="319" y2="260.9201680672269" stroke="#b4f079" stroke-width="1.5" marker-end="url(#arrowhead)"/>

<rect x="35" y="166" width="79" height="40" rx="12" fill="url(#dotgrid)" stroke="#b4f079" stroke-width="1.5"/><text x="74.5" y="186" font-family="'JetBrains Mono', 'Fira Code', 'SF Mono', 'Cascadia Code', monospace" font-size="13" fill="#b4f079" text-anchor="middle" dominant-baseline="central" letter-spacing="0.12em">MODEL</text>
<rect x="177" y="104" width="79" height="40" rx="12" fill="none" stroke="#b4f079" stroke-width="2"/><rect x="182" y="109" width="69" height="30" rx="8" fill="#000000" stroke="#b4f079" stroke-width="1"/><text x="216.5" y="124" font-family="'JetBrains Mono', 'Fira Code', 'SF Mono', 'Cascadia Code', monospace" font-size="13" fill="#b4f079" text-anchor="middle" dominant-baseline="central" letter-spacing="0.12em">SHELL</text>
<rect x="163" y="166" width="107" height="40" rx="12" fill="none" stroke="#b4f079" stroke-width="2"/><rect x="168" y="171" width="97" height="30" rx="8" fill="#000000" stroke="#b4f079" stroke-width="1"/><text x="216.5" y="186" font-family="'JetBrains Mono', 'Fira Code', 'SF Mono', 'Cascadia Code', monospace" font-size="13" fill="#b4f079" text-anchor="middle" dominant-baseline="central" letter-spacing="0.12em">FUNCTION</text>
<rect x="144" y="228" width="145" height="40" rx="12" fill="none" stroke="#b4f079" stroke-width="2"/><rect x="149" y="233" width="135" height="30" rx="8" fill="#000000" stroke="#b4f079" stroke-width="1"/><text x="216.5" y="248" font-family="'JetBrains Mono', 'Fira Code', 'SF Mono', 'Cascadia Code', monospace" font-size="13" fill="#b4f079" text-anchor="middle" dominant-baseline="central" letter-spacing="0.12em">COMPUTER USE</text>

<text x="342.1" y="85.5" font-family="'JetBrains Mono', 'Fira Code', 'SF Mono', 'Cascadia Code', monospace" font-size="13" fill="#b4f079" font-weight="700" letter-spacing="0.12em">COMMAND</text><text x="346.1" y="101.5" font-family="'JetBrains Mono', 'Fira Code', 'SF Mono', 'Cascadia Code', monospace" font-size="11" fill="#b4f079" opacity="0.7">ls -l /home/user</text>
<text x="322.3" y="162.5" font-family="'JetBrains Mono', 'Fira Code', 'SF Mono', 'Cascadia Code', monospace" font-size="13" fill="#b4f079" font-weight="700" letter-spacing="0.12em">JSON</text><text x="326.3" y="178.5" font-family="'JetBrains Mono', 'Fira Code', 'SF Mono', 'Cascadia Code', monospace" font-size="11" fill="#b4f079" opacity="0.7">{&quot;name&quot;:&quot;get_weather&quot;,</text><text x="326.3" y="196.5" font-family="'JetBrains Mono', 'Fira Code', 'SF Mono', 'Cascadia Code', monospace" font-size="11" fill="#b4f079" opacity="0.7">&quot;description&quot;:&quot;...&quot;}</text>
<text x="319" y="257.5" font-family="'JetBrains Mono', 'Fira Code', 'SF Mono', 'Cascadia Code', monospace" font-size="13" fill="#b4f079" font-weight="700" letter-spacing="0.12em">ACTION</text><text x="323" y="273.5" font-family="'JetBrains Mono', 'Fira Code', 'SF Mono', 'Cascadia Code', monospace" font-size="11" fill="#b4f079" opacity="0.7">click(&quot;left&quot;, 100, 200)</text>
<circle cx="204.5" cy="155" r="3" fill="#b4f079"/><circle cx="216.5" cy="155" r="3" fill="#b4f079"/><circle cx="228.5" cy="155" r="3" fill="#b4f079"/>
</g>
</svg>