<svg xmlns="http://www.w3.org/2000/svg" viewBox="0 0 536.8 319.5" width="536.8" height="319.5">
<defs>
  <pattern id="dotgrid" width="8" height="8" patternUnits="userSpaceOnUse">
    <rect width="8" height="8" fill="#000000"/>
    <circle cx="4" cy="4" r="0.8" fill="#b4f079" opacity="0.7"/>
  </pattern>
  <pattern id="crosshatch" width="8" height="8" patternUnits="userSpaceOnUse">
    <rect width="8" height="8" fill="#000000"/>
    <path d="M0 8L8 0M-1 1L1 -1M7 9L9 7" stroke="#b4f079" stroke-width="0.8" opacity="0.2"/>
  </pattern>
  <pattern id="hero" width="6" height="6" patternUnits="userSpaceOnUse">
    <rect width="6" height="6" fill="#3d6b23"/>
    <circle cx="3" cy="3" r="0.6" fill="#5a9a35" opacity="0.5"/>
  </pattern>
  <marker id="arrowhead" markerWidth="10" markerHeight="7" refX="9" refY="3.5" orient="auto" markerUnits="strokeWidth">
    <polygon points="0 0, 10 3.5, 0 7" fill="#b4f079"/>
  </marker>
  <marker id="arrowhead-reverse" markerWidth="10" markerHeight="7" refX="1" refY="3.5" orient="auto" markerUnits="strokeWidth">
    <polygon points="10 0, 0 3.5, 10 7" fill="#b4f079"/>
  </marker>
</defs>
<rect width="100%" height="100%" fill="#000000"/>
<g class="diagram">
<text x="30" y="34" font-family="'Inter', 'Helvetica Neue', Arial, sans-serif" font-size="15" fill="#ffffff" font-weight="700">Language models use tools</text>
<rect x="140" y="60" width="185" height="208" rx="12" fill="url(#crosshatch)" stroke="#b4f079" stroke-width="1" opacity="0.35"/><rect x="140" y="60" width="185" height="208" rx="12" fill="none" stroke="#b4f079" stroke-width="1" opacity="0.5"/>
<line x1="115" y1="158.32919254658384" x2="189" y2="131.67080745341616" stroke="#b4f079" stroke-width="1.5" marker-end="url(#arrowhead)"/>
<line x1="115" y1="174" x2="175" y2="174" stroke="#b4f079" stroke-width="1.5" marker-end="url(#arrowhead)"/>
<line x1="115" y1="189.67080745341616" x2="176.98275862068965" y2="212" stroke="#b4f079" stroke-width="1.5" marker-end="url(#arrowhead)"/>
<line x1="276" y1="110.45859872611464" x2="356.1" y2="100.2547770700637" stroke="#b4f079" stroke-width="1.5" marker-end="url(#arrowhead)"/>
<line x1="290" y1="174" x2="350" y2="174" stroke="#b4f079" stroke-width="1.5" marker-end="url(#arrowhead)"/>
<line x1="309" y1="240.93865628042843" x2="350" y2="245.72930866601752" stroke="#b4f079" stroke-width="1.5" marker-end="url(#arrowhead)"/>

<rect x="203.75" y="73" width="57.5" height="24" fill="#000000" rx="3"/><text x="232.5" y="86" font-family="'Inter', 'Helvetica Neue', Arial, sans-serif" font-size="14" fill="#ffffff" opacity="0.9" text-anchor="middle">Tools</text>
<rect x="28" y="154" width="87" height="40" rx="12" fill="url(#dotgrid)" stroke="#b4f079" stroke-width="1.5"/><rect x="43.5" y="162.9" width="56" height="22.2" fill="#000000" rx="2"/><text x="71.5" y="174" font-family="'JetBrains Mono', 'Fira Code', 'SF Mono', 'Cascadia Code', monospace" font-size="13" fill="#b4f079" text-anchor="middle" dominant-baseline="central" letter-spacing="0.12em">MODEL</text>
<rect x="189" y="96" width="87" height="40" rx="12" fill="none" stroke="#b4f079" stroke-width="2"/><rect x="194" y="101" width="77" height="30" rx="8" fill="#000000" stroke="#b4f079" stroke-width="1"/><text x="232.5" y="116" font-family="'JetBrains Mono', 'Fira Code', 'SF Mono', 'Cascadia Code', monospace" font-size="13" fill="#b4f079" text-anchor="middle" dominant-baseline="central" letter-spacing="0.12em">SHELL</text>
<rect x="175" y="154" width="115" height="40" rx="12" fill="none" stroke="#b4f079" stroke-width="2"/><rect x="180" y="159" width="105" height="30" rx="8" fill="#000000" stroke="#b4f079" stroke-width="1"/><text x="232.5" y="174" font-family="'JetBrains Mono', 'Fira Code', 'SF Mono', 'Cascadia Code', monospace" font-size="13" fill="#b4f079" text-anchor="middle" dominant-baseline="central" letter-spacing="0.12em">FUNCTION</text>
<rect x="156" y="212" width="153" height="40" rx="12" fill="none" stroke="#b4f079" stroke-width="2"/><rect x="161" y="217" width="143" height="30" rx="8" fill="#000000" stroke="#b4f079" stroke-width="1"/><text x="232.5" y="232" font-family="'JetBrains Mono', 'Fira Code', 'SF Mono', 'Cascadia Code', monospace" font-size="13" fill="#b4f079" text-anchor="middle" dominant-baseline="central" letter-spacing="0.12em">COMPUTER USE</text>

<text x="356.1" y="77.5" font-family="'JetBrains Mono', 'Fira Code', 'SF Mono', 'Cascadia Code', monospace" font-size="13" fill="#b4f079" font-weight="700" letter-spacing="0.12em">COMMAND</text><text x="360.1" y="93.5" font-family="'JetBrains Mono', 'Fira Code', 'SF Mono', 'Cascadia Code', monospace" font-size="11" fill="#b4f079" opacity="0.7">ls -l /home/user</text>
<text x="350" y="150.5" font-family="'JetBrains Mono', 'Fira Code', 'SF Mono', 'Cascadia Code', monospace" font-size="13" fill="#b4f079" font-weight="700" letter-spacing="0.12em">JSON</text><text x="354" y="166.5" font-family="'JetBrains Mono', 'Fira Code', 'SF Mono', 'Cascadia Code', monospace" font-size="11" fill="#b4f079" opacity="0.7">{&quot;name&quot;:&quot;get_weather&quot;,</text><text x="354" y="184.5" font-family="'JetBrains Mono', 'Fira Code', 'SF Mono', 'Cascadia Code', monospace" font-size="11" fill="#b4f079" opacity="0.7">&quot;description&quot;:&quot;...&quot;}</text>
<text x="350" y="241.5" font-family="'JetBrains Mono', 'Fira Code', 'SF Mono', 'Cascadia Code', monospace" font-size="13" fill="#b4f079" font-weight="700" letter-spacing="0.12em">ACTION</text><text x="354" y="257.5" font-family="'JetBrains Mono', 'Fira Code', 'SF Mono', 'Cascadia Code', monospace" font-size="11" fill="#b4f079" opacity="0.7">click(&quot;left&quot;, 100, 200)</text>
<circle cx="220.5" cy="145" r="3" fill="#b4f079"/><circle cx="232.5" cy="145" r="3" fill="#b4f079"/><circle cx="244.5" cy="145" r="3" fill="#b4f079"/>
</g>
</svg>