<svg xmlns="http://www.w3.org/2000/svg" viewBox="0 0 503.79999999999995 301.5" width="503.79999999999995" height="301.5">
<defs>
  <pattern id="dotgrid" width="8" height="8" patternUnits="userSpaceOnUse">
    <rect width="8" height="8" fill="#000000"/>
    <circle cx="4" cy="4" r="0.8" fill="#b4f079" opacity="0.7"/>
  </pattern>
  <pattern id="crosshatch" width="8" height="8" patternUnits="userSpaceOnUse">
    <rect width="8" height="8" fill="#000000"/>
    <path d="M0 8L8 0M-1 1L1 -1M7 9L9 7" stroke="#b4f079" stroke-width="0.8" opacity="0.2"/>
  </pattern>
  <pattern id="hero" width="6" height="6" patternUnits="userSpaceOnUse">
    <rect width="6" height="6" fill="#3d6b23"/>
    <circle cx="3" cy="3" r="0.6" fill="#5a9a35" opacity="0.5"/>
  </pattern>
  <marker id="arrowhead" markerWidth="10" markerHeight="7" refX="9" refY="3.5" orient="auto" markerUnits="strokeWidth">
    <polygon points="0 0, 10 3.5, 0 7" fill="#b4f079"/>
  </marker>
  <marker id="arrowhead-reverse" markerWidth="10" markerHeight="7" refX="1" refY="3.5" orient="auto" markerUnits="strokeWidth">
    <polygon points="10 0, 0 3.5, 10 7" fill="#b4f079"/>
  </marker>
</defs>
<rect width="100%" height="100%" fill="#000000"/>
<g class="diagram">
<text x="30" y="34" font-family="'Inter', 'Helvetica Neue', Arial, sans-serif" font-size="15" fill="#ffffff" font-weight="700">Language models use tools</text>
<rect x="115" y="60" width="177" height="208" rx="12" fill="url(#crosshatch)" stroke="#b4f079" stroke-width="1" opacity="0.35"/><rect x="115" y="60" width="177" height="208" rx="12" fill="none" stroke="#b4f079" stroke-width="1" opacity="0.5"/>
<line x1="107" y1="157.15441176470588" x2="164" y2="132.84558823529412" stroke="#b4f079" stroke-width="1.5" marker-end="url(#arrowhead)"/>
<line x1="107" y1="174" x2="150" y2="174" stroke="#b4f079" stroke-width="1.5" marker-end="url(#arrowhead)"/>
<line x1="107" y1="190.84558823529412" x2="156.60344827586206" y2="212" stroke="#b4f079" stroke-width="1.5" marker-end="url(#arrowhead)"/>
<line x1="243" y1="110.8590021691974" x2="323.1" y2="100.43383947939262" stroke="#b4f079" stroke-width="1.5" marker-end="url(#arrowhead)"/>
<line x1="257" y1="174" x2="303.29999999999995" y2="174" stroke="#b4f079" stroke-width="1.5" marker-end="url(#arrowhead)"/>
<line x1="276" y1="241.43600867678958" x2="300" y2="244.55965292841648" stroke="#b4f079" stroke-width="1.5" marker-end="url(#arrowhead)"/>

<rect x="174.75" y="73" width="57.5" height="24" fill="#000000" rx="3"/><text x="203.5" y="86" font-family="'Inter', 'Helvetica Neue', Arial, sans-serif" font-size="14" fill="#ffffff" opacity="0.9" text-anchor="middle">Tools</text>
<rect x="28" y="154" width="79" height="40" rx="12" fill="url(#dotgrid)" stroke="#b4f079" stroke-width="1.5"/><rect x="39.5" y="162.9" width="56" height="22.2" fill="#000000" rx="2"/><text x="67.5" y="174" font-family="'JetBrains Mono', 'Fira Code', 'SF Mono', 'Cascadia Code', monospace" font-size="13" fill="#b4f079" text-anchor="middle" dominant-baseline="central" letter-spacing="0.12em">MODEL</text>
<rect x="164" y="96" width="79" height="40" rx="12" fill="none" stroke="#b4f079" stroke-width="2"/><rect x="169" y="101" width="69" height="30" rx="8" fill="#000000" stroke="#b4f079" stroke-width="1"/><text x="203.5" y="116" font-family="'JetBrains Mono', 'Fira Code', 'SF Mono', 'Cascadia Code', monospace" font-size="13" fill="#b4f079" text-anchor="middle" dominant-baseline="central" letter-spacing="0.12em">SHELL</text>
<rect x="150" y="154" width="107" height="40" rx="12" fill="none" stroke="#b4f079" stroke-width="2"/><rect x="155" y="159" width="97" height="30" rx="8" fill="#000000" stroke="#b4f079" stroke-width="1"/><text x="203.5" y="174" font-family="'JetBrains Mono', 'Fira Code', 'SF Mono', 'Cascadia Code', monospace" font-size="13" fill="#b4f079" text-anchor="middle" dominant-baseline="central" letter-spacing="0.12em">FUNCTION</text>
<rect x="131" y="212" width="145" height="40" rx="12" fill="none" stroke="#b4f079" stroke-width="2"/><rect x="136" y="217" width="135" height="30" rx="8" fill="#000000" stroke="#b4f079" stroke-width="1"/><text x="203.5" y="232" font-family="'JetBrains Mono', 'Fira Code', 'SF Mono', 'Cascadia Code', monospace" font-size="13" fill="#b4f079" text-anchor="middle" dominant-baseline="central" letter-spacing="0.12em">COMPUTER USE</text>

<text x="323.1" y="77.5" font-family="'JetBrains Mono', 'Fira Code', 'SF Mono', 'Cascadia Code', monospace" font-size="13" fill="#b4f079" font-weight="700" letter-spacing="0.12em">COMMAND</text><text x="327.1" y="93.5" font-family="'JetBrains Mono', 'Fira Code', 'SF Mono', 'Cascadia Code', monospace" font-size="11" fill="#b4f079" opacity="0.7">ls -l /home/user</text>
<text x="303.3" y="150.5" font-family="'JetBrains Mono', 'Fira Code', 'SF Mono', 'Cascadia Code', monospace" font-size="13" fill="#b4f079" font-weight="700" letter-spacing="0.12em">JSON</text><text x="307.3" y="166.5" font-family="'JetBrains Mono', 'Fira Code', 'SF Mono', 'Cascadia Code', monospace" font-size="11" fill="#b4f079" opacity="0.7">{&quot;name&quot;:&quot;get_weather&quot;,</text><text x="307.3" y="184.5" font-family="'JetBrains Mono', 'Fira Code', 'SF Mono', 'Cascadia Code', monospace" font-size="11" fill="#b4f079" opacity="0.7">&quot;description&quot;:&quot;...&quot;}</text>
<text x="300" y="241.5" font-family="'JetBrains Mono', 'Fira Code', 'SF Mono', 'Cascadia Code', monospace" font-size="13" fill="#b4f079" font-weight="700" letter-spacing="0.12em">ACTION</text><text x="304" y="257.5" font-family="'JetBrains Mono', 'Fira Code', 'SF Mono', 'Cascadia Code', monospace" font-size="11" fill="#b4f079" opacity="0.7">click(&quot;left&quot;, 100, 200)</text>
<circle cx="191.5" cy="145" r="3" fill="#b4f079"/><circle cx="203.5" cy="145" r="3" fill="#b4f079"/><circle cx="215.5" cy="145" r="3" fill="#b4f079"/>
</g>
</svg>