<svg xmlns="http://www.w3.org/2000/svg" viewBox="0 0 620.8 316" width="620.8" height="316">
<defs>
  <pattern id="dotgrid" width="8" height="8" patternUnits="userSpaceOnUse">
    <rect width="8" height="8" fill="#000000"/>
    <circle cx="4" cy="4" r="0.8" fill="#b4f079" opacity="0.7"/>
  </pattern>
  <pattern id="crosshatch" width="8" height="8" patternUnits="userSpaceOnUse">
    <rect width="8" height="8" fill="#000000"/>
    <path d="M0 8L8 0M-1 1L1 -1M7 9L9 7" stroke="#b4f079" stroke-width="0.8" opacity="0.2"/>
  </pattern>
  <pattern id="hero" width="6" height="6" patternUnits="userSpaceOnUse">
    <rect width="6" height="6" fill="#3d6b23"/>
    <circle cx="3" cy="3" r="0.6" fill="#5a9a35" opacity="0.5"/>
  </pattern>
  <marker id="arrowhead" markerWidth="10" markerHeight="7" refX="9" refY="3.5" orient="auto" markerUnits="strokeWidth">
    <polygon points="0 0, 10 3.5, 0 7" fill="#b4f079"/>
  </marker>
  <marker id="arrowhead-reverse" markerWidth="10" markerHeight="7" refX="1" refY="3.5" orient="auto" markerUnits="strokeWidth">
    <polygon points="10 0, 0 3.5, 10 7" fill="#b4f079"/>
  </marker>
</defs>
<rect width="100%" height="100%" fill="#000000"/>
<g class="diagram">
<text x="30" y="34" font-family="'Inter', 'Helvetica Neue', Arial, sans-serif" font-size="18" fill="#ffffff" font-weight="700">Language models use tools</text>
<rect x="173" y="66.5" width="189" height="218" rx="12" fill="url(#crosshatch)" stroke="#b4f079" stroke-width="1.5" opacity="0.5"/><rect x="173" y="66.5" width="189" height="218" rx="12" fill="none" stroke="#b4f079" stroke-width="1.5" opacity="0.4"/><text x="191" y="92.5" font-family="'Inter', 'Helvetica Neue', Arial, sans-serif" font-size="14" fill="#ffffff" opacity="0.9">Tools</text>
<line x1="135" y1="164.78169014084506" x2="222.5" y2="134.21830985915494" stroke="#b4f079" stroke-width="1.5" marker-end="url(#arrowhead)"/>
<line x1="135" y1="180.5" x2="214" y2="180.5" stroke="#b4f079" stroke-width="1.5" marker-end="url(#arrowhead)"/>
<line x1="135" y1="196.21830985915494" x2="210.24193548387098" y2="222.5" stroke="#b4f079" stroke-width="1.5" marker-end="url(#arrowhead)"/>
<line x1="312.5" y1="113.59981851179674" x2="423.1" y2="101.55626134301271" stroke="#b4f079" stroke-width="1.5" marker-end="url(#arrowhead)"/>
<line x1="321" y1="180.5" x2="403.29999999999995" y2="180.5" stroke="#b4f079" stroke-width="1.5" marker-end="url(#arrowhead)"/>
<line x1="340" y1="250.39473684210526" x2="400" y2="256.9283121597096" stroke="#b4f079" stroke-width="1.5" marker-end="url(#arrowhead)"/>

<rect x="45" y="160.5" width="90" height="40" rx="12" fill="url(#dotgrid)" stroke="#b4f079" stroke-width="1.5"/><text x="90" y="180.5" font-family="'JetBrains Mono', 'Fira Code', 'SF Mono', 'Cascadia Code', monospace" font-size="13" fill="#b4f079" text-anchor="middle" dominant-baseline="central" letter-spacing="0.12em">MODEL</text>
<rect x="222.5" y="98.5" width="90" height="40" rx="12" fill="none" stroke="#b4f079" stroke-width="2"/><rect x="227.5" y="103.5" width="80" height="30" rx="8" fill="transparent" stroke="#b4f079" stroke-width="1"/><text x="267.5" y="118.5" font-family="'JetBrains Mono', 'Fira Code', 'SF Mono', 'Cascadia Code', monospace" font-size="13" fill="#b4f079" text-anchor="middle" dominant-baseline="central" letter-spacing="0.12em">SHELL</text>
<rect x="214" y="160.5" width="107" height="40" rx="12" fill="none" stroke="#b4f079" stroke-width="2"/><rect x="219" y="165.5" width="97" height="30" rx="8" fill="transparent" stroke="#b4f079" stroke-width="1"/><text x="267.5" y="180.5" font-family="'JetBrains Mono', 'Fira Code', 'SF Mono', 'Cascadia Code', monospace" font-size="13" fill="#b4f079" text-anchor="middle" dominant-baseline="central" letter-spacing="0.12em">FUNCTION</text>
<rect x="195" y="222.5" width="145" height="40" rx="12" fill="none" stroke="#b4f079" stroke-width="2"/><rect x="200" y="227.5" width="135" height="30" rx="8" fill="transparent" stroke="#b4f079" stroke-width="1"/><text x="267.5" y="242.5" font-family="'JetBrains Mono', 'Fira Code', 'SF Mono', 'Cascadia Code', monospace" font-size="13" fill="#b4f079" text-anchor="middle" dominant-baseline="central" letter-spacing="0.12em">COMPUTER USE</text>

<text x="423.1" y="80" font-family="'JetBrains Mono', 'Fira Code', 'SF Mono', 'Cascadia Code', monospace" font-size="13" fill="#b4f079" font-weight="700" letter-spacing="0.12em">COMMAND</text><text x="427.1" y="96" font-family="'JetBrains Mono', 'Fira Code', 'SF Mono', 'Cascadia Code', monospace" font-size="11" fill="#b4f079" opacity="0.7">ls -l /home/user</text>
<text x="403.3" y="157" font-family="'JetBrains Mono', 'Fira Code', 'SF Mono', 'Cascadia Code', monospace" font-size="13" fill="#b4f079" font-weight="700" letter-spacing="0.12em">JSON</text><text x="407.3" y="173" font-family="'JetBrains Mono', 'Fira Code', 'SF Mono', 'Cascadia Code', monospace" font-size="11" fill="#b4f079" opacity="0.7">{&quot;name&quot;:&quot;get_weather&quot;,</text><text x="407.3" y="191" font-family="'JetBrains Mono', 'Fira Code', 'SF Mono', 'Cascadia Code', monospace" font-size="11" fill="#b4f079" opacity="0.7">&quot;description&quot;:&quot;...&quot;}</text>
<text x="400" y="252" font-family="'JetBrains Mono', 'Fira Code', 'SF Mono', 'Cascadia Code', monospace" font-size="13" fill="#b4f079" font-weight="700" letter-spacing="0.12em">ACTION</text><text x="404" y="268" font-family="'JetBrains Mono', 'Fira Code', 'SF Mono', 'Cascadia Code', monospace" font-size="11" fill="#b4f079" opacity="0.7">click(&quot;left&quot;, 100, 200)</text>
<circle cx="255.5" cy="149.5" r="3" fill="#b4f079"/><circle cx="267.5" cy="149.5" r="3" fill="#b4f079"/><circle cx="279.5" cy="149.5" r="3" fill="#b4f079"/>
</g>
</svg>