<svg xmlns="http://www.w3.org/2000/svg" viewBox="0 0 847.8 408" width="847.8" height="408">
<defs>
  <pattern id="dotgrid" width="8" height="8" patternUnits="userSpaceOnUse">
    <rect width="8" height="8" fill="#000000"/>
    <circle cx="4" cy="4" r="0.8" fill="#b4f079" opacity="0.7"/>
  </pattern>
  <pattern id="crosshatch" width="8" height="8" patternUnits="userSpaceOnUse">
    <rect width="8" height="8" fill="#000000"/>
    <path d="M0 8L8 0M-1 1L1 -1M7 9L9 7" stroke="#b4f079" stroke-width="0.8" opacity="0.2"/>
  </pattern>
  <pattern id="hero" width="6" height="6" patternUnits="userSpaceOnUse">
    <rect width="6" height="6" fill="#3d6b23"/>
    <circle cx="3" cy="3" r="0.6" fill="#5a9a35" opacity="0.5"/>
  </pattern>
  <marker id="arrowhead" markerWidth="10" markerHeight="7" refX="9" refY="3.5" orient="auto" markerUnits="strokeWidth">
    <polygon points="0 0, 10 3.5, 0 7" fill="#b4f079"/>
  </marker>
  <marker id="arrowhead-reverse" markerWidth="10" markerHeight="7" refX="1" refY="3.5" orient="auto" markerUnits="strokeWidth">
    <polygon points="10 0, 0 3.5, 10 7" fill="#b4f079"/>
  </marker>
</defs>
<rect width="100%" height="100%" fill="#000000"/>
<g class="diagram">
<text x="30" y="34" font-family="'Inter', 'Helvetica Neue', Arial, sans-serif" font-size="18" fill="#ffffff" font-weight="700">Language models use tools</text>
<rect x="263" y="42.5" width="249" height="368" rx="12" fill="url(#crosshatch)" stroke="#b4f079" stroke-width="1.5" opacity="0.5"/><rect x="263" y="42.5" width="249" height="368" rx="12" fill="none" stroke="#b4f079" stroke-width="1.5" opacity="0.4"/><text x="281" y="68.5" font-family="'Inter', 'Helvetica Neue', Arial, sans-serif" font-size="14" fill="#ffffff" opacity="0.9">Tools</text>
<line x1="183" y1="209.169921875" x2="336" y2="142.830078125" stroke="#b4f079" stroke-width="1.5" marker-end="url(#arrowhead)"/>
<line x1="183" y1="231.5" x2="322" y2="231.5" stroke="#b4f079" stroke-width="1.5" marker-end="url(#arrowhead)"/>
<line x1="183" y1="253.830078125" x2="322.9234234234234" y2="314.5" stroke="#b4f079" stroke-width="1.5" marker-end="url(#arrowhead)"/>
<line x1="439" y1="119.09097127222982" x2="615.1" y2="114.27291381668947" stroke="#b4f079" stroke-width="1.5" marker-end="url(#arrowhead)"/>
<line x1="453" y1="231.5" x2="595.3" y2="231.5" stroke="#b4f079" stroke-width="1.5" marker-end="url(#arrowhead)"/>
<line x1="472" y1="344.81190150478795" x2="592" y2="348.09507523939806" stroke="#b4f079" stroke-width="1.5" marker-end="url(#arrowhead)"/>
<rect x="80" y="203.5" width="103" height="56" rx="12" fill="url(#dotgrid)" stroke="#b4f079" stroke-width="1.5"/><text x="131.5" y="231.5" font-family="'JetBrains Mono', 'Fira Code', 'SF Mono', 'Cascadia Code', monospace" font-size="13" fill="#b4f079" text-anchor="middle" dominant-baseline="central" letter-spacing="0.12em">MODEL</text>
<rect x="336" y="92.5" width="103" height="56" rx="12" fill="none" stroke="#b4f079" stroke-width="2"/><rect x="341" y="97.5" width="93" height="46" rx="8" fill="transparent" stroke="#b4f079" stroke-width="1"/><text x="387.5" y="120.5" font-family="'JetBrains Mono', 'Fira Code', 'SF Mono', 'Cascadia Code', monospace" font-size="13" fill="#b4f079" text-anchor="middle" dominant-baseline="central" letter-spacing="0.12em">SHELL</text>
<rect x="322" y="203.5" width="131" height="56" rx="12" fill="none" stroke="#b4f079" stroke-width="2"/><rect x="327" y="208.5" width="121" height="46" rx="8" fill="transparent" stroke="#b4f079" stroke-width="1"/><text x="387.5" y="231.5" font-family="'JetBrains Mono', 'Fira Code', 'SF Mono', 'Cascadia Code', monospace" font-size="13" fill="#b4f079" text-anchor="middle" dominant-baseline="central" letter-spacing="0.12em">FUNCTION</text>
<rect x="303" y="314.5" width="169" height="56" rx="12" fill="none" stroke="#b4f079" stroke-width="2"/><rect x="308" y="319.5" width="159" height="46" rx="8" fill="transparent" stroke="#b4f079" stroke-width="1"/><text x="387.5" y="342.5" font-family="'JetBrains Mono', 'Fira Code', 'SF Mono', 'Cascadia Code', monospace" font-size="13" fill="#b4f079" text-anchor="middle" dominant-baseline="central" letter-spacing="0.12em">COMPUTER USE</text>
<text x="615.1" y="98" font-family="'JetBrains Mono', 'Fira Code', 'SF Mono', 'Cascadia Code', monospace" font-size="13" fill="#b4f079" font-weight="700" letter-spacing="0.12em">COMMAND</text><text x="619.1" y="114" font-family="'JetBrains Mono', 'Fira Code', 'SF Mono', 'Cascadia Code', monospace" font-size="11" fill="#b4f079" opacity="0.7">ls -l /home/user</text>
<text x="595.3" y="208" font-family="'JetBrains Mono', 'Fira Code', 'SF Mono', 'Cascadia Code', monospace" font-size="13" fill="#b4f079" font-weight="700" letter-spacing="0.12em">JSON</text><text x="599.3" y="224" font-family="'JetBrains Mono', 'Fira Code', 'SF Mono', 'Cascadia Code', monospace" font-size="11" fill="#b4f079" opacity="0.7">{&quot;name&quot;:&quot;get_weather&quot;,</text><text x="599.3" y="242" font-family="'JetBrains Mono', 'Fira Code', 'SF Mono', 'Cascadia Code', monospace" font-size="11" fill="#b4f079" opacity="0.7">&quot;description&quot;:&quot;...&quot;}</text>
<text x="592" y="336" font-family="'JetBrains Mono', 'Fira Code', 'SF Mono', 'Cascadia Code', monospace" font-size="13" fill="#b4f079" font-weight="700" letter-spacing="0.12em">ACTION</text><text x="596" y="352" font-family="'JetBrains Mono', 'Fira Code', 'SF Mono', 'Cascadia Code', monospace" font-size="11" fill="#b4f079" opacity="0.7">click(&quot;left&quot;, 100, 200)</text>
<circle cx="375.5" cy="176" r="3" fill="#b4f079"/><circle cx="387.5" cy="176" r="3" fill="#b4f079"/><circle cx="399.5" cy="176" r="3" fill="#b4f079"/>
</g>
</svg>