<svg xmlns="http://www.w3.org/2000/svg" viewBox="0 0 553 237" width="553" height="237">
<defs>
  <pattern id="dotgrid" width="8" height="8" patternUnits="userSpaceOnUse">
    <rect width="8" height="8" fill="#000000"/>
    <circle cx="4" cy="4" r="0.8" fill="#b4f079" opacity="0.7"/>
  </pattern>
  <pattern id="crosshatch" width="8" height="8" patternUnits="userSpaceOnUse">
    <rect width="8" height="8" fill="#000000"/>
    <path d="M0 8L8 0M-1 1L1 -1M7 9L9 7" stroke="#b4f079" stroke-width="0.8" opacity="0.2"/>
  </pattern>
  <pattern id="hero" width="6" height="6" patternUnits="userSpaceOnUse">
    <rect width="6" height="6" fill="#3d6b23"/>
    <circle cx="3" cy="3" r="0.6" fill="#5a9a35" opacity="0.5"/>
  </pattern>
  <marker id="arrowhead" markerWidth="10" markerHeight="7" refX="9" refY="3.5" orient="auto" markerUnits="strokeWidth">
    <polygon points="0 0, 10 3.5, 0 7" fill="#b4f079"/>
  </marker>
  <marker id="arrowhead-reverse" markerWidth="10" markerHeight="7" refX="1" refY="3.5" orient="auto" markerUnits="strokeWidth">
    <polygon points="10 0, 0 3.5, 10 7" fill="#b4f079"/>
  </marker>
</defs>
<rect width="100%" height="100%" fill="#000000"/>
<g class="diagram">
<text x="30" y="34" font-family="'Inter', 'Helvetica Neue', Arial, sans-serif" font-size="18" fill="#ffffff" font-weight="700">Responses API orchestrates agent loop</text>
<line x1="70" y1="132.2" x2="119" y2="134.65" stroke="#b4f079" stroke-width="1.5" marker-end="url(#arrowhead)"/>
<line x1="273" y1="93.5" x2="371.5" y2="62" stroke="#b4f079" stroke-width="1.5" marker-end="url(#arrowhead)"/>
<line x1="371.5" y1="94" x2="273" y2="126.25" stroke="#b4f079" stroke-width="1.5" marker-end="url(#arrowhead)"/>
<line x1="273" y1="150.75" x2="315" y2="183" stroke="#b4f079" stroke-width="1.5" marker-end="url(#arrowhead)"/>
<line x1="315" y1="215" x2="273" y2="183.5" stroke="#b4f079" stroke-width="1.5" marker-end="url(#arrowhead)"/>
<rect x="69" y="122.92500000000001" width="51" height="21" rx="4" fill="#000000"/>
<rect x="225.25" y="59.75" width="194" height="36" rx="4" fill="#000000"/>
<rect x="270.75" y="99.625" width="103" height="21" rx="4" fill="#000000"/>
<rect x="236" y="156.375" width="116" height="21" rx="4" fill="#000000"/>
<rect x="245.75" y="188.75" width="96.5" height="21" rx="4" fill="#000000"/>
<circle cx="56" cy="116.5" r="7" fill="none" stroke="#b4f079" stroke-width="1.5"/><line x1="56" y1="123.5" x2="56" y2="145.5" stroke="#b4f079" stroke-width="1.5"/><line x1="42" y1="129.5" x2="70" y2="129.5" stroke="#b4f079" stroke-width="1.5"/><line x1="56" y1="145.5" x2="46" y2="161.5" stroke="#b4f079" stroke-width="1.5"/><line x1="56" y1="145.5" x2="66" y2="161.5" stroke="#b4f079" stroke-width="1.5"/><text x="56" y="175.5" font-family="'JetBrains Mono', 'Fira Code', 'SF Mono', 'Cascadia Code', monospace" font-size="13" fill="#b4f079" text-anchor="middle" letter-spacing="0.12em">USER</text>
<rect x="119" y="89.5" width="154" height="98" rx="12" fill="none" stroke="#b4f079" stroke-width="2"/><rect x="124" y="94.5" width="144" height="88" rx="8" fill="url(#hero)" stroke="#b4f079" stroke-width="1"/><text x="196" y="138.5" font-family="'JetBrains Mono', 'Fira Code', 'SF Mono', 'Cascadia Code', monospace" font-size="13" fill="#b4f079" text-anchor="middle" dominant-baseline="central" letter-spacing="0.12em">RESPONSES API</text>
<rect x="371.5" y="58" width="79" height="40" rx="12" fill="url(#dotgrid)" stroke="#b4f079" stroke-width="1.5"/><text x="411" y="78" font-family="'JetBrains Mono', 'Fira Code', 'SF Mono', 'Cascadia Code', monospace" font-size="13" fill="#b4f079" text-anchor="middle" dominant-baseline="central" letter-spacing="0.12em">MODEL</text>
<rect x="315" y="179" width="192" height="40" rx="12" fill="url(#crosshatch)" stroke="#b4f079" stroke-width="1.5"/><text x="411" y="199" font-family="'JetBrains Mono', 'Fira Code', 'SF Mono', 'Cascadia Code', monospace" font-size="13" fill="#b4f079" text-anchor="middle" dominant-baseline="central" letter-spacing="0.12em">RUNTIME CONTAINER</text>
<text x="94.5" y="136.925" font-family="'JetBrains Mono', 'Fira Code', 'SF Mono', 'Cascadia Code', monospace" font-size="11" fill="#b4f079" opacity="0.85" text-anchor="middle">PROMPT</text>
<text x="322.25" y="73.75" font-family="'JetBrains Mono', 'Fira Code', 'SF Mono', 'Cascadia Code', monospace" font-size="11" fill="#b4f079" opacity="0.85" text-anchor="middle">PROMPT + SHELL INSTRUCTION +</text><text x="322.25" y="88.75" font-family="'JetBrains Mono', 'Fira Code', 'SF Mono', 'Cascadia Code', monospace" font-size="11" fill="#b4f079" opacity="0.85" text-anchor="middle">STDOUT/STDERR</text>
<text x="322.25" y="113.625" font-family="'JetBrains Mono', 'Fira Code', 'SF Mono', 'Cascadia Code', monospace" font-size="11" fill="#b4f079" opacity="0.85" text-anchor="middle">SHELL COMMANDS</text>
<text x="294" y="170.375" font-family="'JetBrains Mono', 'Fira Code', 'SF Mono', 'Cascadia Code', monospace" font-size="11" fill="#b4f079" opacity="0.85" text-anchor="middle">EXECUTE COMMANDS</text>
<text x="294" y="202.75" font-family="'JetBrains Mono', 'Fira Code', 'SF Mono', 'Cascadia Code', monospace" font-size="11" fill="#b4f079" opacity="0.85" text-anchor="middle">STDOUT/STDERR</text>
<text x="293" y="142.5" font-family="'Inter', 'Helvetica Neue', Arial, sans-serif" font-size="12" fill="#b4f079" opacity="0.6" font-style="italic">Feedback loop (until complete)</text>
</g>
</svg>