<svg xmlns="http://www.w3.org/2000/svg" viewBox="0 0 1122.5 1188" width="1122.5" height="1188">
<defs>
  <pattern id="dotgrid" width="8" height="8" patternUnits="userSpaceOnUse">
    <rect width="8" height="8" fill="#000000"/>
    <circle cx="4" cy="4" r="0.8" fill="#b4f079" opacity="0.7"/>
  </pattern>
  <pattern id="crosshatch" width="8" height="8" patternUnits="userSpaceOnUse">
    <rect width="8" height="8" fill="#000000"/>
    <path d="M0 8L8 0M-1 1L1 -1M7 9L9 7" stroke="#b4f079" stroke-width="0.8" opacity="0.2"/>
  </pattern>
  <pattern id="hero" width="6" height="6" patternUnits="userSpaceOnUse">
    <rect width="6" height="6" fill="#3d6b23"/>
    <circle cx="3" cy="3" r="0.6" fill="#5a9a35" opacity="0.5"/>
  </pattern>
  <marker id="arrowhead" markerWidth="10" markerHeight="7" refX="9" refY="3.5" orient="auto" markerUnits="strokeWidth">
    <polygon points="0 0, 10 3.5, 0 7" fill="#b4f079"/>
  </marker>
  <marker id="arrowhead-reverse" markerWidth="10" markerHeight="7" refX="1" refY="3.5" orient="auto" markerUnits="strokeWidth">
    <polygon points="10 0, 0 3.5, 10 7" fill="#b4f079"/>
  </marker>
</defs>
<rect width="100%" height="100%" fill="#000000"/>
<g class="diagram">
<text x="30" y="34" font-family="'Inter', 'Helvetica Neue', Arial, sans-serif" font-size="15" fill="#ffffff" font-weight="700">CI/CD pipeline: build triggers parallel deployment targets</text>
<line x1="140.23125" y1="577.5" x2="320.55" y2="430" stroke="#b4f079" stroke-width="1.5" marker-end="url(#arrowhead)"/>
<line x1="173" y1="580.3476482617586" x2="296.1" y2="530" stroke="#b4f079" stroke-width="1.5" marker-end="url(#arrowhead)"/>
<line x1="173" y1="610" x2="258.5" y2="610" stroke="#b4f079" stroke-width="1.5" marker-end="url(#arrowhead)"/>
<line x1="173" y1="639.6523517382414" x2="296.1" y2="690" stroke="#b4f079" stroke-width="1.5" marker-end="url(#arrowhead)"/>
<line x1="140.23125" y1="642.5" x2="320.55" y2="790" stroke="#b4f079" stroke-width="1.5" marker-end="url(#arrowhead)"/>
<line x1="360.2" y1="430" x2="477.63733543892613" y2="584.5228097880607" stroke="#b4f079" stroke-width="1.5" marker-end="url(#arrowhead)"/>
<line x1="375.4" y1="530" x2="470.26665336819394" y2="592.4122719527592" stroke="#b4f079" stroke-width="1.5" marker-end="url(#arrowhead)"/>
<line x1="431.5" y1="610" x2="465" y2="610" stroke="#b4f079" stroke-width="1.5" marker-end="url(#arrowhead)"/>
<line x1="375.4" y1="690" x2="470.26665336819394" y2="627.5877280472408" stroke="#b4f079" stroke-width="1.5" marker-end="url(#arrowhead)"/>
<line x1="360.2" y1="790" x2="477.63733543892613" y2="635.4771902119393" stroke="#b4f079" stroke-width="1.5" marker-end="url(#arrowhead)"/>
<line x1="519.7211110974145" y1="587.4666666802501" x2="718.8333333333334" y2="390" stroke="#b4f079" stroke-width="1.5" marker-end="url(#arrowhead)"/>
<line x1="525.668899814382" y1="595.7840166209676" x2="698.6666666666666" y2="510" stroke="#b4f079" stroke-width="1.5" marker-end="url(#arrowhead)"/>
<line x1="529" y1="610" x2="671.5" y2="610" stroke="#b4f079" stroke-width="1.5" marker-end="url(#arrowhead)"/>
<line x1="525.668899814382" y1="624.2159833790324" x2="698.6666666666666" y2="710" stroke="#b4f079" stroke-width="1.5" marker-end="url(#arrowhead)"/>
<line x1="519.7211110974145" y1="632.5333333197499" x2="718.8333333333334" y2="830" stroke="#b4f079" stroke-width="1.5" marker-end="url(#arrowhead)"/>
<line x1="525.6571805394892" y1="595.7604071853469" x2="939.75" y2="390" stroke="#b4f079" stroke-width="1.5" marker-end="url(#arrowhead)"/>
<line x1="528.0558735110122" y1="602.2842550283199" x2="921.5" y2="504.53416149068323" stroke="#b4f079" stroke-width="1.5" marker-end="url(#arrowhead)"/>
<line x1="529" y1="610" x2="898" y2="610" stroke="#b4f079" stroke-width="1.5" marker-end="url(#arrowhead)"/>
<line x1="528.0558735110122" y1="617.7157449716801" x2="899.5" y2="710" stroke="#b4f079" stroke-width="1.5" marker-end="url(#arrowhead)"/>
<line x1="525.6571805394892" y1="624.2395928146531" x2="939.75" y2="830" stroke="#b4f079" stroke-width="1.5" marker-end="url(#arrowhead)"/>
<rect x="198.390625" y="451" width="64" height="21" rx="4" fill="#000000"/>
<rect x="202.55" y="556.0869120654397" width="64" height="21" rx="4" fill="#000000"/>
<rect x="183.75" y="527.0869120654397" width="64" height="21" rx="4" fill="#000000"/>
<rect x="202.55" y="654.3261758691207" width="64" height="21" rx="4" fill="#000000"/>
<rect x="198.390625" y="705.75" width="64" height="21" rx="4" fill="#000000"/>
<rect x="593.777222215374" y="478.23333334012506" width="51" height="21" rx="4" fill="#000000"/>
<rect x="586.6677832405244" y="542.3920083104838" width="51" height="21" rx="4" fill="#000000"/>
<rect x="565" y="599.5" width="70.5" height="21" rx="4" fill="#000000"/>
<rect x="586.6677832405244" y="656.6079916895162" width="51" height="21" rx="4" fill="#000000"/>
<rect x="590.527222215374" y="720.766666659875" width="57.5" height="21" rx="4" fill="#000000"/>
<rect x="703.9535902697446" y="516" width="57.5" height="21" rx="4" fill="#000000"/>
<rect x="686.2779367555061" y="538.4546041297508" width="77" height="21" rx="4" fill="#000000"/>
<rect x="671.75" y="567.4546041297508" width="83.5" height="21" rx="4" fill="#000000"/>
<rect x="681.7779367555061" y="653.3578724858401" width="64" height="21" rx="4" fill="#000000"/>
<rect x="690.9535902697446" y="683" width="83.5" height="21" rx="4" fill="#000000"/>
<rect x="28" y="577.5" width="145" height="65" rx="12" fill="none" stroke="#b4f079" stroke-width="2"/><rect x="33" y="582.5" width="135" height="55" rx="8" fill="url(#hero)" stroke="#b4f079" stroke-width="1"/><text x="100.5" y="602" font-family="'JetBrains Mono', 'Fira Code', 'SF Mono', 'Cascadia Code', monospace" font-size="13" fill="#b4f079" text-anchor="middle" dominant-baseline="central" letter-spacing="0.12em">BUILD SERVER</text><text x="100.5" y="622" font-family="'JetBrains Mono', 'Fira Code', 'SF Mono', 'Cascadia Code', monospace" font-size="11" fill="#b4f079" opacity="0.6" text-anchor="middle" dominant-baseline="central" letter-spacing="0.12em">GitHub Actions</text>
<rect x="282" y="390" width="126" height="40" rx="12" fill="url(#dotgrid)" stroke="#b4f079" stroke-width="1.5"/><rect x="297" y="398.9" width="96" height="22.2" fill="#000000" rx="2"/><text x="345" y="410" font-family="'JetBrains Mono', 'Fira Code', 'SF Mono', 'Cascadia Code', monospace" font-size="13" fill="#b4f079" text-anchor="middle" dominant-baseline="central" letter-spacing="0.12em">UNIT TESTS</text>
<rect x="249" y="490" width="192" height="40" rx="12" fill="url(#dotgrid)" stroke="#b4f079" stroke-width="1.5"/><rect x="269" y="498.9" width="152" height="22.2" fill="#000000" rx="2"/><text x="345" y="510" font-family="'JetBrains Mono', 'Fira Code', 'SF Mono', 'Cascadia Code', monospace" font-size="13" fill="#b4f079" text-anchor="middle" dominant-baseline="central" letter-spacing="0.12em">INTEGRATION TESTS</text>
<rect x="258.5" y="590" width="173" height="40" rx="12" fill="url(#dotgrid)" stroke="#b4f079" stroke-width="1.5"/><rect x="277" y="598.9" width="136" height="22.2" fill="#000000" rx="2"/><text x="345" y="610" font-family="'JetBrains Mono', 'Fira Code', 'SF Mono', 'Cascadia Code', monospace" font-size="13" fill="#b4f079" text-anchor="middle" dominant-baseline="central" letter-spacing="0.12em">LINT AND FORMAT</text>
<rect x="268" y="690" width="154" height="40" rx="12" fill="url(#dotgrid)" stroke="#b4f079" stroke-width="1.5"/><rect x="285" y="698.9" width="120" height="22.2" fill="#000000" rx="2"/><text x="345" y="710" font-family="'JetBrains Mono', 'Fira Code', 'SF Mono', 'Cascadia Code', monospace" font-size="13" fill="#b4f079" text-anchor="middle" dominant-baseline="central" letter-spacing="0.12em">SECURITY SCAN</text>
<rect x="272.5" y="790" width="145" height="40" rx="12" fill="url(#dotgrid)" stroke="#b4f079" stroke-width="1.5"/><rect x="289" y="798.9" width="112" height="22.2" fill="#000000" rx="2"/><text x="345" y="810" font-family="'JetBrains Mono', 'Fira Code', 'SF Mono', 'Cascadia Code', monospace" font-size="13" fill="#b4f079" text-anchor="middle" dominant-baseline="central" letter-spacing="0.12em">DOCKER BUILD</text>
<circle cx="497" cy="610" r="32" fill="#000000" stroke="#b4f079" stroke-width="1.5"/><text x="497" y="610" font-family="'JetBrains Mono', 'Fira Code', 'SF Mono', 'Cascadia Code', monospace" font-size="13" fill="#b4f079" text-anchor="middle" dominant-baseline="central" letter-spacing="0.12em">GATE</text>
<rect x="671.5" y="350" width="135" height="40" rx="12" fill="url(#crosshatch)" stroke="#b4f079" stroke-width="1.5"/><rect x="687" y="358.9" width="104" height="22.2" fill="#000000" rx="2"/><text x="739" y="370" font-family="'JetBrains Mono', 'Fira Code', 'SF Mono', 'Cascadia Code', monospace" font-size="13" fill="#b4f079" text-anchor="middle" dominant-baseline="central" letter-spacing="0.12em">STAGING K8S</text>
<rect x="671.5" y="470" width="135" height="40" rx="12" fill="url(#crosshatch)" stroke="#b4f079" stroke-width="1.5"/><rect x="687" y="478.9" width="104" height="22.2" fill="#000000" rx="2"/><text x="739" y="490" font-family="'JetBrains Mono', 'Fira Code', 'SF Mono', 'Cascadia Code', monospace" font-size="13" fill="#b4f079" text-anchor="middle" dominant-baseline="central" letter-spacing="0.12em">PREVIEW ENV</text>
<rect x="671.5" y="590" width="135" height="40" rx="12" fill="url(#crosshatch)" stroke="#b4f079" stroke-width="1.5"/><rect x="687" y="598.9" width="104" height="22.2" fill="#000000" rx="2"/><text x="739" y="610" font-family="'JetBrains Mono', 'Fira Code', 'SF Mono', 'Cascadia Code', monospace" font-size="13" fill="#b4f079" text-anchor="middle" dominant-baseline="central" letter-spacing="0.12em">CANARY PROD</text>
<rect x="662" y="710" width="154" height="40" rx="12" fill="url(#crosshatch)" stroke="#b4f079" stroke-width="1.5"/><rect x="679" y="718.9" width="120" height="22.2" fill="#000000" rx="2"/><text x="739" y="730" font-family="'JetBrains Mono', 'Fira Code', 'SF Mono', 'Cascadia Code', monospace" font-size="13" fill="#b4f079" text-anchor="middle" dominant-baseline="central" letter-spacing="0.12em">LOAD TEST ENV</text>
<rect x="671.5" y="830" width="135" height="40" rx="12" fill="url(#crosshatch)" stroke="#b4f079" stroke-width="1.5"/><rect x="687" y="838.9" width="104" height="22.2" fill="#000000" rx="2"/><text x="739" y="850" font-family="'JetBrains Mono', 'Fira Code', 'SF Mono', 'Cascadia Code', monospace" font-size="13" fill="#b4f079" text-anchor="middle" dominant-baseline="central" letter-spacing="0.12em">DOCS DEPLOY</text>
<rect x="912.5" y="350" width="135" height="40" rx="12" fill="url(#crosshatch)" stroke="#b4f079" stroke-width="1.5"/><rect x="928" y="358.9" width="104" height="22.2" fill="#000000" rx="2"/><text x="980" y="370" font-family="'JetBrains Mono', 'Fira Code', 'SF Mono', 'Cascadia Code', monospace" font-size="13" fill="#b4f079" text-anchor="middle" dominant-baseline="central" letter-spacing="0.12em">NPM PUBLISH</text>
<rect x="921.5" y="470" width="117" height="40" rx="12" fill="url(#crosshatch)" stroke="#b4f079" stroke-width="1.5"/><rect x="936" y="478.9" width="88" height="22.2" fill="#000000" rx="2"/><text x="980" y="490" font-family="'JetBrains Mono', 'Fira Code', 'SF Mono', 'Cascadia Code', monospace" font-size="13" fill="#b4f079" text-anchor="middle" dominant-baseline="central" letter-spacing="0.12em">CDN PURGE</text>
<rect x="898" y="590" width="164" height="40" rx="12" fill="url(#crosshatch)" stroke="#b4f079" stroke-width="1.5"/><rect x="916" y="598.9" width="128" height="22.2" fill="#000000" rx="2"/><text x="980" y="610" font-family="'JetBrains Mono', 'Fira Code', 'SF Mono', 'Cascadia Code', monospace" font-size="13" fill="#b4f079" text-anchor="middle" dominant-baseline="central" letter-spacing="0.12em">SENTRY RELEASE</text>
<rect x="865.5" y="710" width="229" height="40" rx="12" fill="url(#crosshatch)" stroke="#b4f079" stroke-width="1.5"/><rect x="888" y="718.9" width="184" height="22.2" fill="#000000" rx="2"/><text x="980" y="730" font-family="'JetBrains Mono', 'Fira Code', 'SF Mono', 'Cascadia Code', monospace" font-size="13" fill="#b4f079" text-anchor="middle" dominant-baseline="central" letter-spacing="0.12em">DATADOG DEPLOY MARKER</text>
<rect x="879.5" y="830" width="201" height="40" rx="12" fill="url(#crosshatch)" stroke="#b4f079" stroke-width="1.5"/><rect x="900" y="838.9" width="160" height="22.2" fill="#000000" rx="2"/><text x="980" y="850" font-family="'JetBrains Mono', 'Fira Code', 'SF Mono', 'Cascadia Code', monospace" font-size="13" fill="#b4f079" text-anchor="middle" dominant-baseline="central" letter-spacing="0.12em">SLACK NOTIFICATION</text>
<text x="230.390625" y="465" font-family="'JetBrains Mono', 'Fira Code', 'SF Mono', 'Cascadia Code', monospace" font-size="11" fill="#b4f079" opacity="0.85" text-anchor="middle">Parallel</text>
<text x="234.55" y="570.0869120654397" font-family="'JetBrains Mono', 'Fira Code', 'SF Mono', 'Cascadia Code', monospace" font-size="11" fill="#b4f079" opacity="0.85" text-anchor="middle">Parallel</text>
<text x="215.75" y="541.0869120654397" font-family="'JetBrains Mono', 'Fira Code', 'SF Mono', 'Cascadia Code', monospace" font-size="11" fill="#b4f079" opacity="0.85" text-anchor="middle">Parallel</text>
<text x="234.55" y="668.3261758691207" font-family="'JetBrains Mono', 'Fira Code', 'SF Mono', 'Cascadia Code', monospace" font-size="11" fill="#b4f079" opacity="0.85" text-anchor="middle">Parallel</text>
<text x="230.390625" y="719.75" font-family="'JetBrains Mono', 'Fira Code', 'SF Mono', 'Cascadia Code', monospace" font-size="11" fill="#b4f079" opacity="0.85" text-anchor="middle">Parallel</text>
<text x="619.277222215374" y="492.23333334012506" font-family="'JetBrains Mono', 'Fira Code', 'SF Mono', 'Cascadia Code', monospace" font-size="11" fill="#b4f079" opacity="0.85" text-anchor="middle">Deploy</text>
<text x="612.1677832405244" y="556.3920083104838" font-family="'JetBrains Mono', 'Fira Code', 'SF Mono', 'Cascadia Code', monospace" font-size="11" fill="#b4f079" opacity="0.85" text-anchor="middle">Deploy</text>
<text x="600.25" y="613.5" font-family="'JetBrains Mono', 'Fira Code', 'SF Mono', 'Cascadia Code', monospace" font-size="11" fill="#b4f079" opacity="0.85" text-anchor="middle">Deploy 5%</text>
<text x="612.1677832405244" y="670.6079916895162" font-family="'JetBrains Mono', 'Fira Code', 'SF Mono', 'Cascadia Code', monospace" font-size="11" fill="#b4f079" opacity="0.85" text-anchor="middle">Deploy</text>
<text x="619.277222215374" y="734.766666659875" font-family="'JetBrains Mono', 'Fira Code', 'SF Mono', 'Cascadia Code', monospace" font-size="11" fill="#b4f079" opacity="0.85" text-anchor="middle">Publish</text>
<text x="732.7035902697446" y="530" font-family="'JetBrains Mono', 'Fira Code', 'SF Mono', 'Cascadia Code', monospace" font-size="11" fill="#b4f079" opacity="0.85" text-anchor="middle">Publish</text>
<text x="724.7779367555061" y="552.4546041297508" font-family="'JetBrains Mono', 'Fira Code', 'SF Mono', 'Cascadia Code', monospace" font-size="11" fill="#b4f079" opacity="0.85" text-anchor="middle">Invalidate</text>
<text x="713.5" y="581.4546041297508" font-family="'JetBrains Mono', 'Fira Code', 'SF Mono', 'Cascadia Code', monospace" font-size="11" fill="#b4f079" opacity="0.85" text-anchor="middle">Tag release</text>
<text x="713.7779367555061" y="667.3578724858401" font-family="'JetBrains Mono', 'Fira Code', 'SF Mono', 'Cascadia Code', monospace" font-size="11" fill="#b4f079" opacity="0.85" text-anchor="middle">Annotate</text>
<text x="732.7035902697446" y="697" font-family="'JetBrains Mono', 'Fira Code', 'SF Mono', 'Cascadia Code', monospace" font-size="11" fill="#b4f079" opacity="0.85" text-anchor="middle">Notify team</text>
<text x="497" y="534" font-family="'Inter', 'Helvetica Neue', Arial, sans-serif" font-size="12" fill="#b4f079" opacity="0.6" font-style="italic">All checks must pass</text>
<text x="497" y="666" font-family="'Inter', 'Helvetica Neue', Arial, sans-serif" font-size="12" fill="#b4f079" opacity="0.6" font-style="italic">Fan-out to 10 targets</text>
</g>
</svg>